<svg xmlns="http://www.w3.org/2000/svg" xmlns:xlink="http://www.w3.org/1999/xlink" width="190" height="134" viewBox="0 0 190 134">
  <defs>
    <clipPath id="clip-path">
      <rect id="Rectángulo_340085" data-name="Rectángulo 340085" width="190" height="134" fill="#fff" stroke="#707070" stroke-width="1"/>
    </clipPath>
  </defs>
  <g id="Enmascarar_grupo_878385" data-name="Enmascarar grupo 878385" clip-path="url(#clip-path)">
    <g id="centro-de-llamadas_3_" data-name="centro-de-llamadas(3)" transform="translate(-7.685 13.062)">
      <g id="Grupo_952634" data-name="Grupo 952634" transform="translate(63.341 1.58)">
        <g id="Grupo_952628" data-name="Grupo 952628" transform="translate(0)">
          <path id="Trazado_636485" data-name="Trazado 636485" d="M141.658,124.367h-66.1a6.3,6.3,0,0,1-6.3-6.3V29.192a6.3,6.3,0,0,1,6.3-6.3h66.1a6.3,6.3,0,0,1,6.3,6.3v88.88A6.3,6.3,0,0,1,141.658,124.367Z" transform="translate(-69.265 -19.652)" fill="#388af5"/>
          <path id="Trazado_636486" data-name="Trazado 636486" d="M389.176,22.9h-6.321a6.3,6.3,0,0,1,6.3,6.3v88.88a6.3,6.3,0,0,1-6.3,6.3h6.321a6.3,6.3,0,0,0,6.3-6.3V29.192A6.3,6.3,0,0,0,389.176,22.9Z" transform="translate(-316.783 -19.652)" fill="#2c6ec4"/>
          <g id="Grupo_952626" data-name="Grupo 952626" transform="translate(6.295 9.54)">
            <path id="Trazado_636487" data-name="Trazado 636487" d="M99.142,140.251V53.828a1.049,1.049,0,0,1,1.049-1.049h64a1.049,1.049,0,0,1,1.049,1.049v71.394L149.166,141.3H100.191A1.049,1.049,0,0,1,99.142,140.251Z" transform="translate(-99.142 -52.779)" fill="#f9f7f8"/>
            <path id="Trazado_636488" data-name="Trazado 636488" d="M336.563,412.688v-9.781a6.3,6.3,0,0,1,6.3-6.3h9.78Z" transform="translate(-286.54 -324.167)" fill="#ffe2d9"/>
          </g>
          <g id="Grupo_952627" data-name="Grupo 952627" transform="translate(19.843)">
            <path id="Trazado_636489" data-name="Trazado 636489" d="M163.443,11.076v5.8a3.576,3.576,0,0,0,3.575,3.576H198.87a3.576,3.576,0,0,0,3.576-3.576v-5.8A3.576,3.576,0,0,0,198.87,7.5H167.018a3.576,3.576,0,0,0-3.576,3.576Z" transform="translate(-163.443 -7.5)" fill="#388af5"/>
          </g>
          <path id="Trazado_636490" data-name="Trazado 636490" d="M307.908,7.5h-6.321a3.576,3.576,0,0,1,3.576,3.576v5.8a3.576,3.576,0,0,1-3.576,3.576h6.321a3.576,3.576,0,0,0,3.576-3.576v-5.8A3.576,3.576,0,0,0,307.908,7.5Z" transform="translate(-252.638 -7.5)" fill="#2c6ec4"/>
        </g>
        <g id="Grupo_952633" data-name="Grupo 952633" transform="translate(16.885 30.034)">
          <g id="Grupo_952632" data-name="Grupo 952632">
            <g id="Grupo_952629" data-name="Grupo 952629" transform="translate(0 43.022)">
              <path id="Trazado_636491" data-name="Trazado 636491" d="M164.593,356.134v11.4a1.9,1.9,0,0,1-1.9,1.9H151.3a1.9,1.9,0,0,1-1.9-1.9v-11.4a1.9,1.9,0,0,1,1.9-1.9h11.4A1.9,1.9,0,0,1,164.593,356.134Z" transform="translate(-149.403 -354.238)" fill="#cc3000"/>
            </g>
            <g id="Grupo_952630" data-name="Grupo 952630" transform="translate(0 21.511)">
              <path id="Trazado_636492" data-name="Trazado 636492" d="M164.593,254.037v11.4a1.9,1.9,0,0,1-1.9,1.9H151.3a1.9,1.9,0,0,1-1.9-1.9v-11.4a1.9,1.9,0,0,1,1.9-1.9h11.4A1.9,1.9,0,0,1,164.593,254.037Z" transform="translate(-149.403 -252.141)" fill="#cc3000"/>
            </g>
            <g id="Grupo_952631" data-name="Grupo 952631">
              <path id="Trazado_636493" data-name="Trazado 636493" d="M164.593,151.941v11.4a1.9,1.9,0,0,1-1.9,1.9H151.3a1.9,1.9,0,0,1-1.9-1.9v-11.4a1.9,1.9,0,0,1,1.9-1.9h11.4A1.9,1.9,0,0,1,164.593,151.941Z" transform="translate(-149.403 -150.045)" fill="#cc3000"/>
            </g>
          </g>
        </g>
      </g>
      <path id="Trazado_636494" data-name="Trazado 636494" d="M94.943,74.83l-5.915,5.957a.31.31,0,0,1-.224.093h0a.311.311,0,0,1-.224-.092l-2.2-2.2a1.58,1.58,0,1,0-2.235,2.234l2.2,2.2A3.454,3.454,0,0,0,88.8,84.041h.006a3.454,3.454,0,0,0,2.461-1.027l5.915-5.957a1.58,1.58,0,0,0-2.243-2.227ZM97.178,31.8a1.58,1.58,0,0,0-2.235.008l-5.915,5.957a.31.31,0,0,1-.224.093h0a.311.311,0,0,1-.224-.092l-2.2-2.2A1.58,1.58,0,1,0,84.149,37.8l2.2,2.2A3.453,3.453,0,0,0,88.8,41.019h.006a3.453,3.453,0,0,0,2.461-1.027l5.915-5.957A1.58,1.58,0,0,0,97.178,31.8Zm0,21.511a1.58,1.58,0,0,0-2.235.008l-5.915,5.957a.31.31,0,0,1-.224.093h0a.311.311,0,0,1-.224-.092l-2.2-2.2a1.58,1.58,0,1,0-2.235,2.234l2.2,2.2A3.453,3.453,0,0,0,88.8,62.53h.006A3.453,3.453,0,0,0,91.271,61.5l5.915-5.957a1.58,1.58,0,0,0-.008-2.235ZM87.273,30.034H82.122a3.48,3.48,0,0,0-3.476,3.476v11.4a3.48,3.48,0,0,0,3.476,3.476h11.4A3.48,3.48,0,0,0,97,44.908v-4a1.58,1.58,0,1,0-3.16,0v4a.316.316,0,0,1-.316.316h-11.4a.316.316,0,0,1-.316-.316V33.51a.316.316,0,0,1,.316-.316h5.151a1.58,1.58,0,1,0,0-3.16ZM135.735,3.245h-7.244a1.58,1.58,0,1,0,0,3.16h7.244a4.721,4.721,0,0,1,4.715,4.715V100a4.721,4.721,0,0,1-4.715,4.715h-66.1A4.721,4.721,0,0,1,64.92,100V11.12a4.721,4.721,0,0,1,4.715-4.715H81.6V9.54H70.685a2.633,2.633,0,0,0-2.629,2.629V77.243a1.58,1.58,0,1,0,3.16,0V12.7h7.509a4.706,4.706,0,0,0-.268,1.567v4.383a4.733,4.733,0,0,0,4.728,4.728h39a4.733,4.733,0,0,0,4.728-4.728V14.268a4.705,4.705,0,0,0-.268-1.567h7.509V81.984h-8.2a7.885,7.885,0,0,0-7.875,7.876v8.2H71.216v-14.5a1.58,1.58,0,0,0-3.16,0V98.593a2.632,2.632,0,0,0,2.629,2.629h48.974a1.586,1.586,0,0,0,1.118-.463l0,0,16.072-16.074a1.6,1.6,0,0,0,.458-1.016c0-.014.005-71.459.005-71.5a2.632,2.632,0,0,0-2.629-2.629H123.767V5.156A5.162,5.162,0,0,0,118.611,0H86.76a5.163,5.163,0,0,0-4.787,3.245H69.636A7.885,7.885,0,0,0,61.76,11.12V100a7.885,7.885,0,0,0,7.876,7.876h66.1A7.885,7.885,0,0,0,143.611,100V11.12a7.885,7.885,0,0,0-7.876-7.876Zm-14.5,92.581V89.86a4.721,4.721,0,0,1,4.715-4.716h5.965ZM84.764,5.156a2,2,0,0,1,2-2h31.852a2,2,0,0,1,2,2v5.8a2,2,0,0,1-2,2H86.76a2,2,0,0,1-2-2Zm-3.148,9.112a1.562,1.562,0,0,1,.477-1.124,5.161,5.161,0,0,0,4.666,2.966h31.852a5.162,5.162,0,0,0,4.666-2.966,1.562,1.562,0,0,1,.477,1.124v4.383a1.569,1.569,0,0,1-1.567,1.568h-39a1.569,1.569,0,0,1-1.567-1.568ZM78.646,66.419A3.48,3.48,0,0,0,82.122,69.9h11.4A3.48,3.48,0,0,0,97,66.419v-4a1.58,1.58,0,1,0-3.16,0v4a.316.316,0,0,1-.316.316h-11.4a.316.316,0,0,1-.316-.316v-11.4a.316.316,0,0,1,.316-.316h5.151a1.58,1.58,0,1,0,0-3.16H82.122a3.48,3.48,0,0,0-3.476,3.476Zm23.961,9.8h22.538a1.58,1.58,0,1,0,0-3.16H102.606a1.58,1.58,0,1,0,0,3.16ZM78.646,87.93a3.48,3.48,0,0,0,3.476,3.476h11.4A3.48,3.48,0,0,0,97,87.93v-4a1.58,1.58,0,1,0-3.16,0v4a.316.316,0,0,1-.316.316h-11.4a.316.316,0,0,1-.316-.316v-11.4a.316.316,0,0,1,.316-.316h5.151a1.58,1.58,0,1,0,0-3.16H82.122a3.48,3.48,0,0,0-3.476,3.476Zm23.961-5.393h13.057a1.58,1.58,0,1,0,0-3.16H102.606a1.58,1.58,0,1,0,0,3.16Zm0-21.511h13.057a1.58,1.58,0,1,0,0-3.16H102.606a1.58,1.58,0,1,0,0,3.16Zm0-6.321h22.538a1.58,1.58,0,1,0,0-3.16H102.606a1.58,1.58,0,1,0,0,3.16Zm0-15.19h22.538a1.58,1.58,0,1,0,0-3.16H102.606a1.58,1.58,0,1,0,0,3.16Zm0-6.321h22.538a1.58,1.58,0,1,0,0-3.16H102.606a1.58,1.58,0,1,0,0,3.16Z"/>
    </g>
  </g>
</svg>
