<svg xmlns="http://www.w3.org/2000/svg" width="400" height="298.087" viewBox="0 0 400 298.087">
  <g id="Grupo_958975" data-name="Grupo 958975" transform="translate(-788.38 -4561.739)">
    <g id="Grupo_933422" data-name="Grupo 933422" transform="translate(788.38 4561.739)">
      <rect id="Rectángulo_337966" data-name="Rectángulo 337966" width="400" height="0.2" transform="translate(0 261.957)" fill="#ebebeb"/>
      <rect id="Rectángulo_337967" data-name="Rectángulo 337967" width="26.498" height="0.2" transform="translate(333.423 274.834)" fill="#ebebeb"/>
      <rect id="Rectángulo_337968" data-name="Rectángulo 337968" width="6.955" height="0.2" transform="translate(258.021 277.004)" fill="#ebebeb"/>
      <rect id="Rectángulo_337969" data-name="Rectángulo 337969" width="15.354" height="0.2" transform="translate(317.269 267.405)" fill="#ebebeb"/>
      <rect id="Rectángulo_337970" data-name="Rectángulo 337970" width="34.555" height="0.2" transform="translate(41.967 268.749)" fill="#ebebeb"/>
      <rect id="Rectángulo_337971" data-name="Rectángulo 337971" width="5.066" height="0.2" transform="translate(83.645 268.749)" fill="#ebebeb"/>
      <rect id="Rectángulo_337972" data-name="Rectángulo 337972" width="74.941" height="0.2" transform="translate(105.177 272.127)" fill="#ebebeb"/>
      <path id="Trazado_629064" data-name="Trazado 629064" d="M985.633,4788.017H831.153a4.571,4.571,0,0,1-4.566-4.566V4566.3a4.572,4.572,0,0,1,4.566-4.566H985.633a4.571,4.571,0,0,1,4.566,4.566V4783.45A4.571,4.571,0,0,1,985.633,4788.017ZM831.153,4561.939a4.371,4.371,0,0,0-4.366,4.366V4783.45a4.371,4.371,0,0,0,4.366,4.366H985.633A4.37,4.37,0,0,0,990,4783.45V4566.3a4.371,4.371,0,0,0-4.366-4.366Z" transform="translate(-796.022 -4561.739)" fill="#ebebeb"/>
      <path id="Trazado_629065" data-name="Trazado 629065" d="M1201.93,4788.017H1047.451a4.571,4.571,0,0,1-4.566-4.566V4566.3a4.571,4.571,0,0,1,4.566-4.566H1201.93a4.572,4.572,0,0,1,4.566,4.566V4783.45A4.571,4.571,0,0,1,1201.93,4788.017Zm-154.479-226.078a4.371,4.371,0,0,0-4.366,4.366V4783.45a4.371,4.371,0,0,0,4.366,4.366H1201.93a4.371,4.371,0,0,0,4.366-4.366V4566.3a4.371,4.371,0,0,0-4.366-4.366Z" transform="translate(-839.281 -4561.739)" fill="#ebebeb"/>
    </g>
    <g id="Grupo_933432" data-name="Grupo 933432" transform="translate(843.328 4578.697)">
      <g id="Grupo_933424" data-name="Grupo 933424" transform="translate(159.277 140.413)">
        <g id="Grupo_933423" data-name="Grupo 933423">
          <rect id="Rectángulo_337973" data-name="Rectángulo 337973" width="28.08" height="104.585" transform="translate(28.081 104.586) rotate(180)" fill="#e7e7e7"/>
          <path id="Trazado_629066" data-name="Trazado 629066" d="M1060.835,4886.832h-4.673v-9.411h9.573Z" transform="translate(-1056.162 -4782.246)" fill="#f0f0f0"/>
          <rect id="Rectángulo_337974" data-name="Rectángulo 337974" width="28.081" height="104.585" transform="translate(142.369 104.586) rotate(180)" fill="#e7e7e7"/>
          <rect id="Rectángulo_337975" data-name="Rectángulo 337975" width="118.366" height="100.972" transform="translate(118.366 100.971) rotate(180)" fill="#f0f0f0"/>
          <rect id="Rectángulo_337976" data-name="Rectángulo 337976" width="111.116" height="27.69" transform="translate(114.741 32.166) rotate(180)" fill="#e7e7e7"/>
          <path id="Trazado_629067" data-name="Trazado 629067" d="M1120.566,4772.441h10.5c4.559,0,8.918-3.416,12.054-9.447h-34.606C1111.647,4769.025,1116.006,4772.441,1120.566,4772.441Z" transform="translate(-1066.632 -4759.361)" fill="#f0f0f0"/>
          <path id="Trazado_629068" data-name="Trazado 629068" d="M1197.053,4886.832h4.673v-9.411h-9.573Z" transform="translate(-1083.36 -4782.246)" fill="#f0f0f0"/>
          <rect id="Rectángulo_337977" data-name="Rectángulo 337977" width="111.116" height="27.69" transform="translate(114.741 64.331) rotate(180)" fill="#e7e7e7"/>
          <path id="Trazado_629069" data-name="Trazado 629069" d="M1120.566,4812.648h10.5c4.559,0,8.918-3.416,12.054-9.447h-34.606C1111.647,4809.232,1116.006,4812.648,1120.566,4812.648Z" transform="translate(-1066.632 -4767.402)" fill="#f0f0f0"/>
          <rect id="Rectángulo_337978" data-name="Rectángulo 337978" width="111.116" height="27.69" transform="translate(114.741 96.496) rotate(180)" fill="#e7e7e7"/>
          <path id="Trazado_629070" data-name="Trazado 629070" d="M1120.566,4852.855h10.5c4.559,0,8.918-3.416,12.054-9.447h-34.606C1111.647,4849.439,1116.006,4852.855,1120.566,4852.855Z" transform="translate(-1066.632 -4775.444)" fill="#f0f0f0"/>
        </g>
      </g>
      <g id="Grupo_933425" data-name="Grupo 933425" transform="translate(0 8.187)">
        <rect id="Rectángulo_337979" data-name="Rectángulo 337979" width="107.232" height="108.508" transform="translate(114.682 108.508) rotate(180)" fill="#e7e7e7"/>
        <rect id="Rectángulo_337980" data-name="Rectángulo 337980" width="112.702" height="108.508" transform="translate(112.702 108.508) rotate(180)" fill="#f0f0f0"/>
        <rect id="Rectángulo_337981" data-name="Rectángulo 337981" width="89.625" height="93.819" transform="translate(103.26 9.441) rotate(90)" fill="#fff"/>
        <path id="Trazado_629071" data-name="Trazado 629071" d="M920.775,4619.759l-17.22,17.22a22.244,22.244,0,0,0,0,31.422l17.219,17.22a.907.907,0,0,0,1.282,0l17.22-17.22a22.244,22.244,0,0,0,0-31.422l-17.219-17.22A.907.907,0,0,0,920.775,4619.759Zm-15.938,47.36a20.43,20.43,0,0,1,0-28.858Zm33.158,0V4638.26A20.43,20.43,0,0,1,937.994,4667.119Z" transform="translate(-865.064 -4598.435)" fill="#f0f0f0"/>
      </g>
      <g id="Grupo_933426" data-name="Grupo 933426" transform="translate(183.443 103.078)">
        <path id="Trazado_629072" data-name="Trazado 629072" d="M1179.4,4711.785H1119.49l-3.419,35.379h59.912Z" transform="translate(-1092.309 -4711.785)" fill="#e7e7e7"/>
        <path id="Trazado_629073" data-name="Trazado 629073" d="M1175.921,4756.008l-.242,1.956h-59.915l.242-1.956Z" transform="translate(-1092.248 -4720.629)" fill="#e7e7e7"/>
        <path id="Trazado_629074" data-name="Trazado 629074" d="M1177.1,4711.785h-59.912l-3.419,35.379h59.912Z" transform="translate(-1091.848 -4711.785)" fill="#f0f0f0"/>
        <path id="Trazado_629075" data-name="Trazado 629075" d="M1173,4745.263l2.5-30.647a.749.749,0,0,0-.747-.81h-55.08a.749.749,0,0,0-.746.689l-2.5,30.647a.749.749,0,0,0,.747.81h55.081A.749.749,0,0,0,1173,4745.263Z" transform="translate(-1092.379 -4712.189)" fill="#fff"/>
        <path id="Trazado_629076" data-name="Trazado 629076" d="M1152.587,4756.008l-.242,1.956h-65.976l.242-1.956Z" transform="translate(-1086.369 -4720.629)" fill="#f0f0f0"/>
      </g>
      <g id="Grupo_933430" data-name="Grupo 933430" transform="translate(159.313 0)">
        <g id="Grupo_933429" data-name="Grupo 933429">
          <g id="Grupo_933427" data-name="Grupo 933427" transform="translate(7.311 9.38)">
            <rect id="Rectángulo_337982" data-name="Rectángulo 337982" width="112.505" height="74.789" transform="translate(115.005 74.789) rotate(180)" fill="#e7e7e7"/>
            <rect id="Rectángulo_337983" data-name="Rectángulo 337983" width="112.505" height="74.789" transform="translate(112.505 74.789) rotate(180)" fill="#f5f5f5"/>
            <rect id="Rectángulo_337984" data-name="Rectángulo 337984" width="64.707" height="103.53" transform="translate(108.017 5.041) rotate(90)" fill="#fff"/>
            <rect id="Rectángulo_337985" data-name="Rectángulo 337985" width="64.707" height="1.89" transform="translate(6.378 5.041) rotate(90)" fill="#e7e7e7"/>
            <rect id="Rectángulo_337986" data-name="Rectángulo 337986" width="108.793" height="6.767" transform="translate(110.649 61.162) rotate(180)" fill="#f5f5f5"/>
          </g>
          <g id="Grupo_933428" data-name="Grupo 933428">
            <path id="Trazado_629077" data-name="Trazado 629077" d="M1059.056,4584.233h124.79a.693.693,0,0,1,.691.69h0a.694.694,0,0,1-.691.691h-124.79a.694.694,0,0,1-.691-.691h0A.693.693,0,0,1,1059.056,4584.233Z" transform="translate(-1056.638 -4583.196)" fill="#e7e7e7"/>
            <path id="Trazado_629078" data-name="Trazado 629078" d="M1056.206,4584.664a1.727,1.727,0,1,0,1.727-1.727A1.728,1.728,0,0,0,1056.206,4584.664Z" transform="translate(-1056.206 -4582.937)" fill="#e7e7e7"/>
            <path id="Trazado_629079" data-name="Trazado 629079" d="M1207.7,4588.966h0a.936.936,0,0,0,.933-.933v-2a.936.936,0,0,0-.933-.933h0a.936.936,0,0,0-.933.933v2A.936.936,0,0,0,1207.7,4588.966Z" transform="translate(-1086.319 -4583.369)" fill="#e7e7e7"/>
            <path id="Trazado_629080" data-name="Trazado 629080" d="M1072.02,4588.966h0a.936.936,0,0,0,.933-.933v-2a.936.936,0,0,0-.933-.933h0a.936.936,0,0,0-.933.933v2A.936.936,0,0,0,1072.02,4588.966Z" transform="translate(-1059.182 -4583.369)" fill="#e7e7e7"/>
          </g>
        </g>
        <rect id="Rectángulo_337987" data-name="Rectángulo 337987" width="115.321" height="72.668" transform="translate(117.96 74.395) rotate(180)" fill="#e0e0e0" opacity="0.4"/>
        <path id="Trazado_629081" data-name="Trazado 629081" d="M1191.888,4584.664a1.727,1.727,0,1,0,1.727-1.727A1.728,1.728,0,0,0,1191.888,4584.664Z" transform="translate(-1083.342 -4582.937)" fill="#e7e7e7"/>
      </g>
      <g id="Grupo_933431" data-name="Grupo 933431" transform="translate(0.782 159.602)">
        <rect id="Rectángulo_337988" data-name="Rectángulo 337988" width="9.248" height="80.214" transform="translate(113.118 80.214) rotate(180)" fill="#f0f0f0"/>
        <rect id="Rectángulo_337989" data-name="Rectángulo 337989" width="106.015" height="5.083" transform="translate(109.567 85.296) rotate(180)" fill="#f0f0f0"/>
        <rect id="Rectángulo_337990" data-name="Rectángulo 337990" width="103.87" height="80.214" transform="translate(0 0)" fill="#f5f5f5"/>
        <path id="Rectángulo_337991" data-name="Rectángulo 337991" d="M7.122,0H82.2a7.122,7.122,0,0,1,7.122,7.122V19.185A7.123,7.123,0,0,1,82.2,26.307H7.122A7.122,7.122,0,0,1,0,19.185V7.122A7.122,7.122,0,0,1,7.122,0Z" transform="translate(7.272 9.873)" fill="#f0f0f0"/>
        <path id="Rectángulo_337992" data-name="Rectángulo 337992" d="M7.122,0H82.2a7.122,7.122,0,0,1,7.122,7.122V19.185A7.123,7.123,0,0,1,82.2,26.307H7.122A7.122,7.122,0,0,1,0,19.185V7.122A7.122,7.122,0,0,1,7.122,0Z" transform="translate(7.272 44.033)" fill="#f0f0f0"/>
        <path id="Trazado_629082" data-name="Trazado 629082" d="M898.319,4812.575h38.707a1.809,1.809,0,0,0,1.8-1.8h0a1.81,1.81,0,0,0-1.8-1.8H898.319a1.81,1.81,0,0,0-1.8,1.8h0A1.809,1.809,0,0,0,898.319,4812.575Z" transform="translate(-865.737 -4787.745)" fill="#f5f5f5"/>
        <path id="Trazado_629083" data-name="Trazado 629083" d="M898.319,4855.275h38.707a1.809,1.809,0,0,0,1.8-1.8h0a1.809,1.809,0,0,0-1.8-1.8H898.319a1.809,1.809,0,0,0-1.8,1.8h0A1.809,1.809,0,0,0,898.319,4855.275Z" transform="translate(-865.737 -4796.285)" fill="#f5f5f5"/>
      </g>
    </g>
    <ellipse id="_Path_" data-name="&lt;Path&gt;" cx="155.111" cy="9.059" rx="155.111" ry="9.059" transform="translate(833.269 4841.708)" fill="#f5f5f5"/>
    <g id="Grupo_933448" data-name="Grupo 933448" transform="translate(874.821 4589.44)">
      <g id="Grupo_933433" data-name="Grupo 933433" transform="translate(0 9.495)">
        <path id="Trazado_629084" data-name="Trazado 629084" d="M1044.267,4608.234H896.431l11.485,201.339h147.837Z" transform="translate(-896.431 -4608.234)" fill="#263238"/>
        <path id="Trazado_629085" data-name="Trazado 629085" d="M1047.862,4608.234H900.025l11.486,201.339h147.837Z" transform="translate(-897.15 -4608.234)" fill="#ff3c00"/>
        <path id="Trazado_629086" data-name="Trazado 629086" d="M1039.363,4616.7H908.471l9.383,182.249h134.293Z" transform="translate(-898.839 -4609.927)" opacity="0.5"/>
      </g>
      <g id="Grupo_933447" data-name="Grupo 933447" transform="translate(9.632 16.266)">
        <g id="Grupo_933440" data-name="Grupo 933440">
          <path id="Trazado_629087" data-name="Trazado 629087" d="M908.471,4616.7c9.729,60.75,3.056,121.5,12.784,182.249h134.294c-9.729-60.75-3.055-121.5-12.784-182.249Z" transform="translate(-908.471 -4616.698)" fill="#fff"/>
          <g id="Grupo_933434" data-name="Grupo 933434" transform="translate(14.625 52.293)" opacity="0.3">
            <path id="Trazado_629088" data-name="Trazado 629088" d="M939.586,4684.381a11.571,11.571,0,0,1,11.469,11.018,10.528,10.528,0,0,1-10.608,10.958,11.479,11.479,0,0,1-11.369-11.019,10.56,10.56,0,0,1,2.9-7.75,10.421,10.421,0,0,1,7.606-3.208m-.082-2.317a12.681,12.681,0,0,0-12.743,13.306,13.838,13.838,0,0,0,13.72,13.3,12.8,12.8,0,0,0,12.89-13.3,13.971,13.971,0,0,0-13.867-13.306Z" transform="translate(-926.752 -4682.064)" fill="#ffbba6"/>
          </g>
          <g id="Grupo_933435" data-name="Grupo 933435" transform="translate(56.141 143.964)">
            <path id="Trazado_629089" data-name="Trazado 629089" d="M1024.434,4809.706h-42.42a2.224,2.224,0,0,0-2.252,2.483h0a2.8,2.8,0,0,0,2.726,2.483h42.419a2.215,2.215,0,0,0,2.24-2.483h0A2.788,2.788,0,0,0,1024.434,4809.706Z" transform="translate(-978.868 -4799.264)" fill="#e0e0e0"/>
            <path id="Trazado_629090" data-name="Trazado 629090" d="M1046.893,4796.654H980.957a2.276,2.276,0,0,0-2.3,2.483h0a2.727,2.727,0,0,0,2.675,2.483h65.936a2.266,2.266,0,0,0,2.291-2.483h0A2.718,2.718,0,0,0,1046.893,4796.654Z" transform="translate(-978.647 -4796.654)" fill="#e0e0e0"/>
          </g>
          <g id="Grupo_933436" data-name="Grupo 933436" transform="translate(15.828 95.327)" opacity="0.3">
            <path id="Trazado_629091" data-name="Trazado 629091" d="M941.234,4738.175a11.414,11.414,0,0,1,11.322,11.018,10.6,10.6,0,0,1-2.954,7.751,10.477,10.477,0,0,1-7.631,3.206,11.476,11.476,0,0,1-11.391-11.018,10.587,10.587,0,0,1,10.654-10.958m-.03-2.318h0a12.871,12.871,0,0,0-12.942,13.307,13.854,13.854,0,0,0,13.77,13.305,12.785,12.785,0,0,0,12.841-13.305,13.763,13.763,0,0,0-13.669-13.307Z" transform="translate(-928.257 -4735.857)" fill="#ffbba6"/>
          </g>
          <g id="Grupo_933437" data-name="Grupo 933437" transform="translate(52.907 57.895)">
            <path id="Trazado_629092" data-name="Trazado 629092" d="M999.862,4694.033H977.187a2.605,2.605,0,0,1-2.581-2.483h0a2.361,2.361,0,0,1,2.379-2.482H999.66a2.61,2.61,0,0,1,2.587,2.482h0A2.368,2.368,0,0,1,999.862,4694.033Z" transform="translate(-974.604 -4689.067)" fill="#e0e0e0"/>
            <path id="Trazado_629093" data-name="Trazado 629093" d="M1034.416,4694.033H1019.05a2.607,2.607,0,0,1-2.581-2.483h0a2.362,2.362,0,0,1,2.379-2.482h15.366a2.612,2.612,0,0,1,2.587,2.482h0A2.368,2.368,0,0,1,1034.416,4694.033Z" transform="translate(-982.977 -4689.067)" fill="#e0e0e0"/>
            <path id="Trazado_629094" data-name="Trazado 629094" d="M1038.509,4707.084H977.635a2.581,2.581,0,0,1-2.561-2.483h0a2.387,2.387,0,0,1,2.4-2.482h60.874a2.583,2.583,0,0,1,2.564,2.482h0A2.391,2.391,0,0,1,1038.509,4707.084Z" transform="translate(-974.698 -4691.677)" fill="#e0e0e0"/>
          </g>
          <g id="Grupo_933438" data-name="Grupo 933438" transform="translate(18.043 138.363)" opacity="0.3">
            <path id="Trazado_629095" data-name="Trazado 629095" d="M943.528,4791.969a12.131,12.131,0,0,1,11.84,11.019,10.158,10.158,0,0,1-2.489,7.75,9.794,9.794,0,0,1-7.414,3.208,12.36,12.36,0,0,1-12.077-11.019,9.981,9.981,0,0,1,2.608-7.75,10.152,10.152,0,0,1,7.532-3.208m-.116-2.317a12.16,12.16,0,0,0-12.34,13.307,14.944,14.944,0,0,0,14.62,13.3c7.35,0,12.608-5.957,11.991-13.3a14.6,14.6,0,0,0-14.271-13.307Z" transform="translate(-931.025 -4789.652)" fill="#ffbba6"/>
          </g>
          <g id="Grupo_933439" data-name="Grupo 933439" transform="translate(54.157 100.929)">
            <path id="Trazado_629096" data-name="Trazado 629096" d="M1049.239,4755.912H978.966a2.388,2.388,0,0,0-2.4,2.483h0a2.59,2.59,0,0,0,2.569,2.482h70.274a2.383,2.383,0,0,0,2.4-2.482h0A2.585,2.585,0,0,0,1049.239,4755.912Z" transform="translate(-976.247 -4745.47)" fill="#e0e0e0"/>
            <path id="Trazado_629097" data-name="Trazado 629097" d="M1032.494,4742.86H978.585a2.4,2.4,0,0,0-2.416,2.484h0a2.57,2.57,0,0,0,2.553,2.483h53.91a2.4,2.4,0,0,0,2.413-2.483h0A2.565,2.565,0,0,0,1032.494,4742.86Z" transform="translate(-976.168 -4742.86)" fill="#e0e0e0"/>
          </g>
          <path id="Trazado_629098" data-name="Trazado 629098" d="M942.1,4703.891l-.948-1.552c-2.068-3.387-6.394-6.41-7.886-7.292l1.123-1.985a30.7,30.7,0,0,1,7.737,6.688c3.4-4.563,8.368-9.265,15.1-14.335l1.449,1.874c-7.2,5.417-12.3,10.369-15.573,15.145Z" transform="translate(-913.431 -4630.441)" fill="#ff3c00"/>
          <path id="Trazado_629099" data-name="Trazado 629099" d="M943.607,4757.685l-.955-1.552c-2.08-3.385-6.386-6.411-7.872-7.292l1.14-1.984a30.712,30.712,0,0,1,7.7,6.688c3.406-4.561,8.416-9.266,15.246-14.336l1.413,1.875c-7.3,5.416-12.43,10.371-15.682,15.144Z" transform="translate(-913.733 -4641.2)" fill="#ff3c00"/>
          <path id="Trazado_629100" data-name="Trazado 629100" d="M946.9,4811.609l-1.055-1.552c-2.3-3.386-6.766-6.411-8.3-7.293q.516-.992,1.037-1.984a33.634,33.634,0,0,1,8.073,6.687c3.134-4.559,7.9-9.265,14.53-14.334q.744.938,1.491,1.873c-7.066,5.417-11.929,10.373-14.878,15.146Q947.346,4810.879,946.9,4811.609Z" transform="translate(-914.286 -4651.985)" fill="#ff3c00"/>
        </g>
        <g id="Grupo_933446" data-name="Grupo 933446" transform="translate(42.64 11.7)">
          <g id="Grupo_933442" data-name="Grupo 933442">
            <path id="Trazado_629101" data-name="Trazado 629101" d="M1011.4,4635.806q-2.112,4.6-4.324,9.208a19.822,19.822,0,0,1,10.912,16.062h10.634C1027.907,4650.2,1020.887,4640.723,1011.4,4635.806Z" transform="translate(-970.831 -4632.22)" fill="#ff3c00"/>
            <path id="Trazado_629102" data-name="Trazado 629102" d="M961.837,4661.216H972.47a16.943,16.943,0,0,1,7.378-15.5q-3.1-4.605-6.3-9.212C965.794,4641.566,961.152,4650.737,961.837,4661.216Z" transform="translate(-961.771 -4632.36)" fill="#992400"/>
            <g id="Grupo_933441" data-name="Grupo 933441" transform="translate(11.779)">
              <path id="Trazado_629103" data-name="Trazado 629103" d="M990.9,4631.323a26.171,26.171,0,0,0-14.408,4.148q3.2,4.607,6.3,9.212a16.778,16.778,0,0,1,9.327-2.732,19.421,19.421,0,0,1,8.837,2.166q2.209-4.6,4.324-9.208A31.319,31.319,0,0,0,990.9,4631.323Z" transform="translate(-976.494 -4631.323)" fill="#cc3000"/>
              <path id="Trazado_629104" data-name="Trazado 629104" d="M990.9,4631.323a26.171,26.171,0,0,0-14.408,4.148q3.2,4.607,6.3,9.212a16.778,16.778,0,0,1,9.327-2.732,19.421,19.421,0,0,1,8.837,2.166q2.209-4.6,4.324-9.208A31.319,31.319,0,0,0,990.9,4631.323Z" transform="translate(-976.494 -4631.323)" fill="#cc3000" opacity="0.5"/>
            </g>
          </g>
          <path id="Trazado_629105" data-name="Trazado 629105" d="M1007.521,4658.3c.006,0-10.731,4.347-11.87,5.153a2.544,2.544,0,0,0-.453,3.617,2.677,2.677,0,0,0,3.661.7C1000.018,4666.96,1007.54,4658.3,1007.521,4658.3Zm-11.276,8.028a1.253,1.253,0,0,1,.223-1.78,1.326,1.326,0,0,1,1.8.343,1.251,1.251,0,0,1-.225,1.781A1.324,1.324,0,0,1,996.245,4666.328Z" transform="translate(-968.346 -4636.719)" fill="#263238"/>
          <g id="Grupo_933443" data-name="Grupo 933443" transform="translate(44.338 12.728)">
            <path id="Trazado_629106" data-name="Trazado 629106" d="M1024.757,4651.008a3.406,3.406,0,0,1-3.451,3.774,4.2,4.2,0,0,1-4.1-3.774,3.384,3.384,0,0,1,3.422-3.775A4.228,4.228,0,0,1,1024.757,4651.008Z" transform="translate(-1017.193 -4647.233)" fill="#fff"/>
            <path id="Trazado_629107" data-name="Trazado 629107" d="M1020.5,4650.714a.538.538,0,0,1-.546.6.674.674,0,0,1-.656-.6.542.542,0,0,1,.546-.6A.674.674,0,0,1,1020.5,4650.714Z" transform="translate(-1017.613 -4647.809)" fill="#263238"/>
            <path id="Trazado_629108" data-name="Trazado 629108" d="M1024.065,4650.714a.539.539,0,0,1-.546.6.675.675,0,0,1-.656-.6.542.542,0,0,1,.546-.6A.671.671,0,0,1,1024.065,4650.714Z" transform="translate(-1018.326 -4647.809)" fill="#263238"/>
            <path id="Trazado_629109" data-name="Trazado 629109" d="M1021.591,4654.469h-.006a3.174,3.174,0,0,1-2.136-.841.3.3,0,0,1,.4-.441,2.581,2.581,0,0,0,1.735.686h.006a2.126,2.126,0,0,0,1.583-.668.3.3,0,1,1,.437.406A2.715,2.715,0,0,1,1021.591,4654.469Z" transform="translate(-1017.624 -4648.408)" fill="#263238"/>
          </g>
          <g id="Grupo_933444" data-name="Grupo 933444" transform="translate(23.006 1.479)">
            <path id="Trazado_629110" data-name="Trazado 629110" d="M998.1,4636.947a3.311,3.311,0,0,1-3.358,3.775,4.329,4.329,0,0,1-4.19-3.775,3.289,3.289,0,0,1,3.325-3.775A4.365,4.365,0,0,1,998.1,4636.947Z" transform="translate(-990.529 -4633.172)" fill="#fff"/>
            <path id="Trazado_629111" data-name="Trazado 629111" d="M993.819,4636.654a.524.524,0,0,1-.531.6.7.7,0,0,1-.671-.6.525.525,0,0,1,.531-.6A.7.7,0,0,1,993.819,4636.654Z" transform="translate(-990.946 -4633.748)" fill="#263238"/>
            <path id="Trazado_629112" data-name="Trazado 629112" d="M997.385,4636.654a.524.524,0,0,1-.531.6.7.7,0,0,1-.671-.6.526.526,0,0,1,.531-.6A.7.7,0,0,1,997.385,4636.654Z" transform="translate(-991.659 -4633.748)" fill="#263238"/>
            <path id="Trazado_629113" data-name="Trazado 629113" d="M996.778,4639.645h-3.742a.3.3,0,1,1,0-.6h3.742a.3.3,0,1,1,0,.6Z" transform="translate(-990.97 -4634.347)" fill="#263238"/>
          </g>
          <g id="Grupo_933445" data-name="Grupo 933445" transform="translate(4.017 12.728)">
            <path id="Trazado_629114" data-name="Trazado 629114" d="M974.356,4651.008a3.405,3.405,0,0,1-3.45,3.774,4.2,4.2,0,0,1-4.1-3.774,3.385,3.385,0,0,1,3.422-3.775A4.229,4.229,0,0,1,974.356,4651.008Z" transform="translate(-966.792 -4647.233)" fill="#fff"/>
            <path id="Trazado_629115" data-name="Trazado 629115" d="M970.1,4650.714a.537.537,0,0,1-.546.6.674.674,0,0,1-.656-.6.541.541,0,0,1,.546-.6A.671.671,0,0,1,970.1,4650.714Z" transform="translate(-967.212 -4647.809)" fill="#263238"/>
            <path id="Trazado_629116" data-name="Trazado 629116" d="M973.664,4650.714a.539.539,0,0,1-.546.6.673.673,0,0,1-.656-.6.542.542,0,0,1,.546-.6A.671.671,0,0,1,973.664,4650.714Z" transform="translate(-967.926 -4647.809)" fill="#263238"/>
            <path id="Trazado_629117" data-name="Trazado 629117" d="M969.33,4654.469a.3.3,0,0,1-.218-.5,2.741,2.741,0,0,1,2.025-.858,3.169,3.169,0,0,1,2.137.841.3.3,0,1,1-.4.44,2.578,2.578,0,0,0-1.744-.685,2.129,2.129,0,0,0-1.58.668A.3.3,0,0,1,969.33,4654.469Z" transform="translate(-967.24 -4648.408)" fill="#263238"/>
          </g>
        </g>
      </g>
      <path id="Trazado_629118" data-name="Trazado 629118" d="M1024.231,4613.146c-2.5-5.25-8.326-8.729-14.606-8.729H996.832a5.005,5.005,0,0,1-4.439-2.32c-1.785-3.344-6.038-5.732-10.868-5.732s-8.8,2.388-10.207,5.732a4.391,4.391,0,0,1-4.174,2.32H954.35c-6.281,0-11.712,3.479-13.61,8.729a1.43,1.43,0,0,0-.082.583,1.624,1.624,0,0,0,1.6,1.512h80.7A1.435,1.435,0,0,0,1024.231,4613.146Zm-42.165-7.286a3.821,3.821,0,0,1-3.764-3.561,3.33,3.33,0,0,1,3.358-3.561,3.818,3.818,0,0,1,3.765,3.561A3.327,3.327,0,0,1,982.066,4605.861Z" transform="translate(-905.276 -4596.365)" fill="#263238"/>
    </g>
    <g id="Grupo_933453" data-name="Grupo 933453" transform="translate(1010.692 4608.077)">
      <g id="Grupo_933450" data-name="Grupo 933450" transform="translate(48.61 40.318)">
        <path id="Trazado_629119" data-name="Trazado 629119" d="M1148.327,4915.546a2.551,2.551,0,0,1-1.775-.442.539.539,0,0,1-.057-.609.6.6,0,0,1,.4-.325c.948-.266,3.133.9,3.226.954a.158.158,0,0,1,.084.143.12.12,0,0,1-.1.115A10.041,10.041,0,0,1,1148.327,4915.546Zm-1.058-1.139a1,1,0,0,0-.266.031.365.365,0,0,0-.251.2c-.079.173-.034.258.007.308.316.379,1.8.388,2.878.233A6.952,6.952,0,0,0,1147.269,4914.407Z" transform="translate(-1130.911 -4718.873)" fill="#007cff"/>
        <path id="Trazado_629120" data-name="Trazado 629120" d="M1150.42,4915.032a.156.156,0,0,1-.058-.012c-.745-.318-2.292-1.589-2.259-2.253.008-.156.1-.351.475-.39a1.117,1.117,0,0,1,.8.239,4.476,4.476,0,0,1,1.166,2.264.122.122,0,0,1-.122.152Zm-1.7-2.382a.789.789,0,0,0-.083,0c-.248.025-.253.124-.254.156-.02.4,1.046,1.4,1.819,1.833a3.714,3.714,0,0,0-.979-1.812A.821.821,0,0,0,1148.72,4912.65Z" transform="translate(-1131.246 -4718.521)" fill="#007cff"/>
        <path id="Trazado_629121" data-name="Trazado 629121" d="M1157.062,4912.121h-5.877l-2.107-13.61h5.877Z" transform="translate(-1131.441 -4715.749)" fill="#ffc3bd"/>
        <path id="Trazado_629122" data-name="Trazado 629122" d="M1149.052,4914.673h6.418a.589.589,0,0,1,.545.4l1.745,5.224a.761.761,0,0,1-.728,1.046c-2.32-.04-5.681-.176-8.59-.176-3.4,0-3.1.186-7.088.186-2.413,0-3.355-2.438-2.37-2.659,4.486-1.006,5-1.114,8.7-3.563A2.464,2.464,0,0,1,1149.052,4914.673Z" transform="translate(-1129.345 -4718.981)" fill="#263238"/>
        <g id="Grupo_933449" data-name="Grupo 933449" transform="translate(17.639 182.766)">
          <path id="Trazado_629123" data-name="Trazado 629123" d="M1149.081,4898.515l1.085,7.016h5.879l-1.085-7.016Z" transform="translate(-1149.081 -4898.515)" opacity="0.2"/>
        </g>
        <path id="Trazado_629124" data-name="Trazado 629124" d="M1157.226,4732.238l-3.989,4.042,6.129,2.165s2.375-3.3.718-5.552Z" transform="translate(-1132.273 -4682.494)" fill="#ffc3bd"/>
        <path id="Trazado_629125" data-name="Trazado 629125" d="M1151.543,4742.938l6.115.895,1.369-4.376-6.129-2.165Z" transform="translate(-1131.934 -4683.505)" fill="#ffc3bd"/>
        <path id="Trazado_629126" data-name="Trazado 629126" d="M1159.036,4670.058c.52,1.115.934,2.07,1.354,3.107.418,1.018.815,2.04,1.2,3.066.761,2.058,1.442,4.15,2.07,6.272a66.913,66.913,0,0,1,1.589,6.521l.3,1.68.245,1.713c.089.566.141,1.155.194,1.741.048.607.124,1.111.13,1.853l.022,1.037-.037.917-.047.909-.083.856c-.1,1.152-.258,2.233-.4,3.328-.319,2.162-.683,4.27-1.09,6.365-.848,4.183-1.775,8.274-2.9,12.39l-7.289-1.435c.46-4.07.944-8.2,1.325-12.258.189-2.03.382-4.054.5-6.038.046-.98.1-1.973.1-2.9l.009-.7-.018-.654-.014-.645-.052-.525c-.007-.3-.115-.828-.179-1.256-.07-.449-.137-.9-.244-1.354l-.29-1.366-.347-1.378c-.5-1.839-1.058-3.688-1.7-5.538s-1.349-3.688-2.1-5.515c-.374-.915-.757-1.826-1.155-2.726-.39-.883-.822-1.833-1.188-2.6Z" transform="translate(-1131.414 -4670.058)" fill="#263238"/>
        <path id="Trazado_629127" data-name="Trazado 629127" d="M1127.032,4728.656s.975,44.99,3.618,62.912c2.748,18.642,12.765,78.632,12.765,78.632h9.955s-3.574-57.1-4.709-75.439c-1.236-20-.966-66.1-.966-66.1Z" transform="translate(-1127.032 -4681.778)" fill="#ff3c00"/>
        <path id="Trazado_629128" data-name="Trazado 629128" d="M1144.561,4900.629c-.046,0,1.023,4.134,1.023,4.134H1157.7l-.085-3.689Z" transform="translate(-1130.537 -4716.172)" fill="#263238"/>
      </g>
      <ellipse id="Elipse_7720" data-name="Elipse 7720" cx="0.902" cy="0.588" rx="0.902" ry="0.588" transform="matrix(0.061, -0.998, 0.998, 0.061, 45.136, 15.086)" fill="#263238"/>
      <path id="Trazado_629129" data-name="Trazado 629129" d="M1123.285,4638.564a18.6,18.6,0,0,1-2.528,4.257,2.827,2.827,0,0,0,2.362.446Z" transform="translate(-1077.167 -4623.442)" fill="#ff847f"/>
      <path id="Trazado_629130" data-name="Trazado 629130" d="M1125.9,4633.711a.281.281,0,0,1-.169-.056,2.308,2.308,0,0,0-2.063-.382.282.282,0,0,1-.372-.167.3.3,0,0,1,.18-.377,2.865,2.865,0,0,1,2.614.452.289.289,0,0,1,.052.408A.3.3,0,0,1,1125.9,4633.711Z" transform="translate(-1077.672 -4622.248)" fill="#263238"/>
      <path id="Trazado_629131" data-name="Trazado 629131" d="M1140.22,4644.311c-.994,4.3-2.114,12.178.793,15.046,0,0-1.33,4.361-9.318,4.361-8.785,0-4.044-4.36-4.044-4.36,4.835-1.146,4.837-4.7,4.119-8.043Z" transform="translate(-1078.29 -4624.591)" fill="#ffc3bd"/>
      <path id="Trazado_629132" data-name="Trazado 629132" d="M1143.613,4664.335c.863-1.758,1.817-3.769.014-4.4-1.983-.693-12.95-1.4-16.786-.1a4.037,4.037,0,0,0-2.887,4.865Z" transform="translate(-1077.785 -4627.551)" fill="#ff3c00"/>
      <path id="Trazado_629133" data-name="Trazado 629133" d="M1157.223,4665.053c5.065,2.334,7.641,20.045,7.641,20.045l-10.2,3.2a103.928,103.928,0,0,1-4.425-14.41C1148.669,4666.5,1152.046,4662.666,1157.223,4665.053Z" transform="translate(-1082.986 -4628.598)" fill="#263238"/>
      <path id="Trazado_629134" data-name="Trazado 629134" d="M1078.472,4698.662l-4.7-4.044-4.233,6.16s3.8,3.047,7.966,1.8Z" transform="translate(-1066.923 -4634.652)" fill="#ffc3bd"/>
      <path id="Trazado_629135" data-name="Trazado 629135" d="M1066.922,4692.17l-.653,6.086,2.615,2.031,4.233-6.16Z" transform="translate(-1066.269 -4634.163)" fill="#ffc3bd"/>
      <path id="Trazado_629136" data-name="Trazado 629136" d="M1140.6,4633.875c-.591,6.113-.627,9.709-3.826,12.846a7.98,7.98,0,0,1-13.5-4.18c-1.118-5.492.036-14.566,6.106-17A8.072,8.072,0,0,1,1140.6,4633.875Z" transform="translate(-1077.594 -4620.708)" fill="#ffc3bd"/>
      <path id="Trazado_629137" data-name="Trazado 629137" d="M1128.307,4634.784c-.538-4.222-.45-5.822,1.808-6.755-2.342-.467-4.375-.534-5.342-1.9s-1.2-4.867,3.5-6.467c-.434.833.934,2.467,5.266.967s10.632-1.667,11.182,2.733c2.285-.8,6.118,6.267,1.629,11.422-3.764,4.323-6.278,7.3-7.018,9.594a.79.79,0,0,1-1.1.482c-1.566-.731-4.354-.107-5.588.23a.78.78,0,0,1-.912-.412C1130.937,4643.026,1128.751,4638.271,1128.307,4634.784Z" transform="translate(-1077.857 -4619.661)" fill="#263238"/>
      <path id="Trazado_629138" data-name="Trazado 629138" d="M1148.861,4624.606s1.853-2.617,5.412-.67A16.117,16.117,0,0,0,1148.861,4624.606Z" transform="translate(-1082.788 -4620.372)" fill="#263238"/>
      <path id="Trazado_629139" data-name="Trazado 629139" d="M1149.244,4624.507s2.581-1.584.567-4.619A11.747,11.747,0,0,1,1149.244,4624.507Z" transform="translate(-1082.864 -4619.707)" fill="#263238"/>
      <path id="Trazado_629140" data-name="Trazado 629140" d="M1131.882,4638.125a7.326,7.326,0,0,1-2.139,3.963c-1.481,1.4-2.764.406-2.807-1.4-.038-1.623.686-4.3,2.39-5.025C1131.006,4634.957,1132.184,4636.316,1131.882,4638.125Z" transform="translate(-1078.402 -4622.824)" fill="#ffc3bd"/>
      <path id="Trazado_629141" data-name="Trazado 629141" d="M1128.062,4759.906c.576,13.424,1.48,29.008,2.792,37.912.5,3.392,1.24,8.144,2.12,13.656C1136.51,4792.178,1138.622,4767.314,1128.062,4759.906Z" transform="translate(-1078.628 -4647.71)" opacity="0.3"/>
      <g id="Grupo_933452" data-name="Grupo 933452" transform="translate(33.1 87.196)">
        <path id="Trazado_629142" data-name="Trazado 629142" d="M1122.1,4915.546c-.754,0-1.479-.1-1.71-.442a.529.529,0,0,1,.033-.609.733.733,0,0,1,.453-.325c.987-.266,3,.9,3.085.954a.135.135,0,0,1,.063.143.145.145,0,0,1-.114.115A10.482,10.482,0,0,1,1122.1,4915.546Zm-.891-1.139a1.067,1.067,0,0,0-.27.031.444.444,0,0,0-.279.2c-.1.173-.072.258-.038.308.26.379,1.746.388,2.844.233A6.1,6.1,0,0,0,1121.212,4914.407Z" transform="translate(-1110.178 -4765.75)" fill="#007cff"/>
        <path id="Trazado_629143" data-name="Trazado 629143" d="M1124.281,4915.032a.139.139,0,0,1-.057-.012c-.7-.318-2.058-1.589-1.927-2.253.03-.156.148-.351.532-.39a.994.994,0,0,1,.763.239,3.841,3.841,0,0,1,.832,2.264.143.143,0,0,1-.062.126A.148.148,0,0,1,1124.281,4915.032Zm-1.35-2.382a.8.8,0,0,0-.083,0c-.252.025-.271.124-.278.156-.078.4.842,1.4,1.55,1.833a3.155,3.155,0,0,0-.711-1.812A.717.717,0,0,0,1122.93,4912.65Z" transform="translate(-1110.573 -4765.399)" fill="#007cff"/>
        <path id="Trazado_629144" data-name="Trazado 629144" d="M1131.367,4912.121h-5.877l-.1-13.61h5.877Z" transform="translate(-1111.193 -4762.627)" fill="#ffc3bd"/>
        <path id="Trazado_629145" data-name="Trazado 629145" d="M1122,4914.673h6.418a.49.49,0,0,1,.486.4l.977,5.224a.89.89,0,0,1-.882,1.046c-2.314-.04-5.654-.176-8.565-.176-3.4,0-6.347.186-10.338.186-2.413,0-3-2.438-1.978-2.659,4.633-1.006,8.391-1.114,12.451-3.563A2.8,2.8,0,0,1,1122,4914.673Z" transform="translate(-1107.644 -4765.859)" fill="#263238"/>
        <g id="Grupo_933451" data-name="Grupo 933451" transform="translate(14.194 135.887)">
          <path id="Trazado_629146" data-name="Trazado 629146" d="M1125.387,4898.515l.053,7.016h5.88l-.053-7.016Z" transform="translate(-1125.387 -4898.515)" opacity="0.2"/>
        </g>
        <path id="Trazado_629147" data-name="Trazado 629147" d="M1113.332,4728.656s-2.361,43.942-2.354,61.864c.007,18.642,9.438,79.68,9.438,79.68h9.956s-2.592-59.949-1.5-78.257c1.188-19.959,6.965-63.287,6.965-63.287Z" transform="translate(-1108.311 -4728.656)" fill="#ff3c00"/>
        <path id="Trazado_629148" data-name="Trazado 629148" d="M1120.555,4900.629c-.046,0,.415,4.134.415,4.134h12.111l.458-3.689Z" transform="translate(-1110.226 -4763.05)" fill="#263238"/>
      </g>
      <path id="Trazado_629149" data-name="Trazado 629149" d="M1114.909,4664.7s-10.018,25.3-5.654,69.035h36.577c.387-4.826-3.443-46.6,2.014-69.338a80.773,80.773,0,0,0-10.476-1.329,115.334,115.334,0,0,0-13.362,0A60.128,60.128,0,0,0,1114.909,4664.7Z" transform="translate(-1074.646 -4628.304)" fill="#263238"/>
      <path id="Trazado_629150" data-name="Trazado 629150" d="M1109.81,4691.442c-.544,4.032-.992,8.568-1.28,13.576,7.1-6.528,9.536-22.792,9.536-22.792Z" transform="translate(-1074.721 -4632.174)" opacity="0.2"/>
      <path id="Trazado_629151" data-name="Trazado 629151" d="M1112.291,4679.269c-1.435,3.745-2.894,7.348-4.492,10.973-1.575,3.621-3.259,7.207-5.118,10.782l-.71,1.341-.362.67c-.152.269-.137.291-.556.982a7.83,7.83,0,0,1-2.891,2.689,8.6,8.6,0,0,1-3.127.945,13.19,13.19,0,0,1-4.482-.362,24.525,24.525,0,0,1-3.392-1.1,44.515,44.515,0,0,1-5.735-2.882c-.9-.521-1.766-1.074-2.623-1.64s-1.672-1.127-2.576-1.784l4.325-6.62a56.261,56.261,0,0,0,9.716,4.214,14.745,14.745,0,0,0,2.182.5,3.091,3.091,0,0,0,1.286,0c.044-.021-.106-.047-.374.086a2.194,2.194,0,0,0-.814.707c-.166.279.052-.139.121-.3l.291-.625.577-1.26c1.518-3.39,2.922-6.9,4.293-10.441,1.348-3.532,2.7-7.144,3.923-10.667Z" transform="translate(-1068.261 -4630.823)" fill="#263238"/>
      <path id="Trazado_629152" data-name="Trazado 629152" d="M1121.476,4667.716c1.867,5.23-11.378,26.294-11.378,26.294l-7.859-7.777s2.012-6.623,4.661-14.585C1109.507,4663.813,1119.691,4662.715,1121.476,4667.716Z" transform="translate(-1073.463 -4628.666)" fill="#263238"/>
    </g>
  </g>
</svg>
