<svg xmlns="http://www.w3.org/2000/svg" width="174" height="174" viewBox="0 0 174 174">
  <g id="Grupo_958966" data-name="Grupo 958966" transform="translate(-301 -3368)">
    <circle id="Elipse_7894" data-name="Elipse 7894" cx="87" cy="87" r="87" transform="translate(301 3368)" fill="#fff"/>
    <g id="Grupo_962219" data-name="Grupo 962219">
      <rect id="Rectángulo_340306" data-name="Rectángulo 340306" width="77" height="77" transform="translate(350 3417)" fill="none"/>
      <g id="administrador-de-pc" transform="translate(350.889 3417.152)">
        <path id="Trazado_640490" data-name="Trazado 640490" d="M85.943,43.065c5.268,0,17.655-6.34,17.655-21.532C103.6,9.64,101.993,0,85.943,0S68.288,9.64,68.288,21.532C68.288,36.724,80.675,43.065,85.943,43.065Z" transform="translate(-53.151 0)" fill="#cc3000"/>
        <path id="Trazado_640491" data-name="Trazado 640491" d="M213.558,199.313H182.943a1.224,1.224,0,0,0-1.222,1.222V220.18a1.223,1.223,0,0,0,1.222,1.222h10.448l-.371,1.457a19.45,19.45,0,0,1-1.151,3.311,1.222,1.222,0,0,0,1.111,1.731h10.541a1.222,1.222,0,0,0,1.111-1.733,19.5,19.5,0,0,1-1.15-3.309l-.372-1.457h10.448a1.224,1.224,0,0,0,1.222-1.222V200.535A1.223,1.223,0,0,0,213.558,199.313ZM211.6,218.636h-1.524v-.3a.806.806,0,1,0-1.612,0v.3H207.45v-.3a.806.806,0,1,0-1.612,0v.3H184.9V202.078h26.7Z" transform="translate(-140.07 -152.725)" fill="#cc3000"/>
        <path id="Trazado_640492" data-name="Trazado 640492" d="M42.491,202.073V182.428a3.915,3.915,0,0,1,3.91-3.91h5.964c-1.919-1.039-3.694-1.987-4.928-2.646l-.079-.043a1.237,1.237,0,0,0-1.347.118,16.089,16.089,0,0,1-6.458,3.119,1.239,1.239,0,0,0-.888.769l-2.344,6.178-2.344-6.178a1.239,1.239,0,0,0-.888-.769,16.085,16.085,0,0,1-6.459-3.12,1.238,1.238,0,0,0-1.347-.118c-3.741,2-12.716,6.832-15.249,8.54-4.285,2.888-6.158,13.333-6.49,15.4a1.24,1.24,0,0,0,.055.61c.153.433,4.085,10.6,32.721,10.6a83.025,83.025,0,0,0,16.332-1.419,3.9,3.9,0,0,1,.232-2.618c.147-.319.278-.64.4-.957H46.4A3.914,3.914,0,0,1,42.491,202.073Z" transform="translate(-3.528 -134.618)" fill="#cc3000"/>
      </g>
    </g>
  </g>
</svg>
