<svg xmlns="http://www.w3.org/2000/svg" width="174" height="174" viewBox="0 0 174 174">
  <g id="Grupo_962221" data-name="Grupo 962221" transform="translate(-1125 -3368)">
    <g id="Grupo_958968" data-name="Grupo 958968">
      <circle id="Elipse_7896" data-name="Elipse 7896" cx="87" cy="87" r="87" transform="translate(1125 3368)" fill="#fff"/>
    </g>
    <g id="consultante" transform="translate(1173.422 3416.655)">
      <path id="Trazado_640496" data-name="Trazado 640496" d="M335.042,200.084a9.042,9.042,0,1,1,9.042-9.042A9.052,9.052,0,0,1,335.042,200.084Z" transform="translate(-276.873 -154.573)" fill="#cc3000"/>
      <path id="Trazado_640497" data-name="Trazado 640497" d="M74.9,461.042H2.26A2.261,2.261,0,0,1,0,458.781V454.26A2.261,2.261,0,0,1,2.26,452H74.9a2.261,2.261,0,0,1,2.26,2.26v4.521A2.261,2.261,0,0,1,74.9,461.042Z" transform="translate(0 -383.885)" fill="#cc3000"/>
      <path id="Trazado_640498" data-name="Trazado 640498" d="M304.613,315.633a13.534,13.534,0,0,1-15.579,0,15.945,15.945,0,0,0-5.02,4.492v4.756A6.78,6.78,0,0,1,281,330.516v1.146h31.646V329.4A15.833,15.833,0,0,0,304.613,315.633Z" transform="translate(-238.654 -268.068)" fill="#cc3000"/>
      <path id="Trazado_640499" data-name="Trazado 640499" d="M39.428,212H3.26A2.26,2.26,0,0,0,1,214.26v22.6a2.261,2.261,0,0,0,2.26,2.26H13.687l-1.507,4.521H30.508L29,239.125H39.428a2.261,2.261,0,0,0,2.26-2.26v-22.6A2.26,2.26,0,0,0,39.428,212Z" transform="translate(-0.849 -180.052)" fill="#cc3000"/>
      <path id="Trazado_640500" data-name="Trazado 640500" d="M119.428,0H86.274A5.28,5.28,0,0,0,81,5.274V17.33A5.28,5.28,0,0,0,86.274,22.6h18.906l8.472,5.648a2.26,2.26,0,0,0,3.514-1.881V22.6h2.26A5.28,5.28,0,0,0,124.7,17.33V5.274A5.28,5.28,0,0,0,119.428,0ZM113.4,13.563H92.3a2.26,2.26,0,0,1,0-4.521h21.1a2.26,2.26,0,1,1,0,4.521Z" transform="translate(-68.794 0)" fill="#cc3000"/>
    </g>
  </g>
</svg>
