<svg xmlns="http://www.w3.org/2000/svg" width="304.819" height="192.11" viewBox="0 0 304.819 192.11">
  <g id="Grupo_953654" data-name="Grupo 953654" transform="translate(-131.228 -4955.375)">
    <g id="Grupo_953619" data-name="Grupo 953619" transform="translate(232.212 4955.375)">
      <path id="Trazado_637051" data-name="Trazado 637051" d="M367.043,5076.275c3.37,5.314,9.722,18.926,17.759,20.87s13.092,0,16.721-7.907,5.833-11.8,6.222-11.408,4.8,14.259,5.7,16.592,36.165,10.37,41.739,7.389,8.425-5.185,11.278-21.129,4.666-22.3,2.463-27.87-3.5-7.517-9.463-11.147-15.553-9.151-23.28-9.4c-4.929-.162-23.125,5.127-30.644,13.941s-18.277,32.667-19.055,33.185c-5.185-5.574-6.093-6.871-6.093-6.871S366.006,5074.461,367.043,5076.275Z" transform="translate(-348.507 -4993.299)" fill="#ffbba6"/>
      <path id="Trazado_637052" data-name="Trazado 637052" d="M449.779,5007.064c1.383,2.679,3.716,5.185,8.383,4.407s8.932-6.672,7.085-10.249c-1.826-3.538-5.962-10.664-5.962-10.664,3.629-1.037,3.715-7.863-2.42-8.728-2.679-7.951-9.073-19.185-22.987-12.531s-13.041,8.8-12.176,13.554,3.794,7.013,6.991,12.8S437.421,5012.077,449.779,5007.064Z" transform="translate(-375.288 -4961.246)" fill="#ffbf9d"/>
      <path id="Trazado_637053" data-name="Trazado 637053" d="M381.785,5113.559a57.864,57.864,0,0,1-3.686-4.539s-14.777.064-13.74,1.879c.7,1.105,2.893,5.813,3.84,7.455A11.079,11.079,0,0,0,381.785,5113.559Z" transform="translate(-347.183 -5031.163)" fill="#ff7e7d"/>
      <path id="Rectángulo_339847" data-name="Rectángulo 339847" d="M4.092,0H83.534a4.093,4.093,0,0,1,4.093,4.093V12.24a4.093,4.093,0,0,1-4.093,4.093H4.094A4.094,4.094,0,0,1,0,12.239V4.092A4.092,4.092,0,0,1,4.092,0Z" transform="translate(0 62.366)" fill="#f1e0d9"/>
      <path id="Trazado_637054" data-name="Trazado 637054" d="M471.633,5084.59V5094.7h10.512c1.563,0,2.5-.44,2.5-2.168V5086.7a1.844,1.844,0,0,0-2.031-2.113Z" transform="translate(-400.124 -5019.113)" fill="#151748"/>
      <path id="Trazado_637055" data-name="Trazado 637055" d="M377.249,5084.59V5094.7H339.461c-1.563,0-2.5-.44-2.5-2.168V5086.7a1.844,1.844,0,0,1,2.03-2.113Z" transform="translate(-333.697 -5019.113)" fill="#ff3c00"/>
      <rect id="Rectángulo_339848" data-name="Rectángulo 339848" width="28.385" height="10.111" transform="translate(43.208 65.477)" fill="#ffe2d9"/>
      <path id="Trazado_637056" data-name="Trazado 637056" d="M456.9,5115.219c-.778-1.685-.972-3.694-1.944-4.471s-1.556-1.491-2.787-.842-2.787-.13-3.565-1.427c-1.426.649-2.075.065-2.075.065-1.425.778-3.11,1.1-4.6-1.49s.519-7.519,2.657-2.982c.13-2.679,1.685-4.32,2.723-3.8a1.829,1.829,0,0,1,.972,1.664c.367-2.009,2.83-2.787,3.175.324,1.037-1.426,1.556-1.037,2.787.842s.756,2.117,3.09,1.923c1.079-.692,5.681-1.621,7.043-.519s2.96,3.586,4.58,5.207C466.816,5114.407,460.1,5117.034,456.9,5115.219Z" transform="translate(-385.218 -5026.799)" fill="#ff7e7d"/>
      <path id="Trazado_637057" data-name="Trazado 637057" d="M353.394,5102.43c-.94-1.96-3.369-2.823-3.761-.314s2.272,7.992,6.034,6.582c3.79.813,4.907,1.635,6.082,1.4s7.238.872,8.257-3.437a9.5,9.5,0,0,1-3.6-.314c-1.489-1.959-3.37-4.074-4.153-3.917s-.627,1.252-.627,1.252c-.862-2.742-1.723-3.682-2.664-3.682s-1.567,1.566-1.567,1.566C356.606,5099.06,354.178,5097.336,353.394,5102.43Z" transform="translate(-339.926 -5026.289)" fill="#ff7e7d"/>
      <g id="Grupo_953603" data-name="Grupo 953603" transform="translate(13.215 75.886)">
        <path id="Trazado_637058" data-name="Trazado 637058" d="M365.288,5113.2a6.657,6.657,0,0,1-1.605-.242c-.138-.033-.276-.066-.416-.1a11.947,11.947,0,0,0-1.212-.173,5.954,5.954,0,0,1-3.272-1.044c-1.9-1.536-2.109-4.956-2.189-6.242a.254.254,0,0,1,.237-.27.251.251,0,0,1,.269.237c.077,1.227.28,4.486,2,5.882a5.485,5.485,0,0,0,3.008.934,12.006,12.006,0,0,1,1.265.182c.143.031.285.064.426.1a4.86,4.86,0,0,0,4.412-.772.254.254,0,0,1,.265.433A6.028,6.028,0,0,1,365.288,5113.2Z" transform="translate(-356.593 -5105.131)"/>
      </g>
      <g id="Grupo_953604" data-name="Grupo 953604" transform="translate(17.104 75.024)">
        <path id="Trazado_637059" data-name="Trazado 637059" d="M368.232,5111.067a.258.258,0,0,1-.087-.016c-4.344-1.58-3.954-5.527-3.787-7.213l.018-.179a.25.25,0,0,1,.276-.228.253.253,0,0,1,.228.276l-.018.181c-.168,1.7-.518,5.243,3.456,6.687a.254.254,0,0,1-.087.492Z" transform="translate(-364.268 -5103.43)"/>
      </g>
      <g id="Grupo_953605" data-name="Grupo 953605" transform="translate(24.947 78.295)">
        <path id="Trazado_637060" data-name="Trazado 637060" d="M381.9,5111.84a1.591,1.591,0,0,1-.8-.211,3.282,3.282,0,0,1-1.324-1.375.253.253,0,1,1,.451-.23,2.81,2.81,0,0,0,1.113,1.159,1.258,1.258,0,0,0,.849.132c.132-.012.274-.024.437-.024a.253.253,0,0,1,0,.507c-.146,0-.274.011-.392.022S382.01,5111.84,381.9,5111.84Z" transform="translate(-379.747 -5109.885)"/>
      </g>
      <g id="Grupo_953606" data-name="Grupo 953606" transform="translate(21.498 77.301)">
        <path id="Trazado_637061" data-name="Trazado 637061" d="M377.877,5113.769a3.243,3.243,0,0,1-.846-.106,5.544,5.544,0,0,1-3.279-2.7,5.016,5.016,0,0,1-.586-1.782,8.127,8.127,0,0,0-.215-.931.253.253,0,1,1,.483-.152,8.65,8.65,0,0,1,.229.988,4.567,4.567,0,0,0,.52,1.613,5.067,5.067,0,0,0,2.968,2.468,3.657,3.657,0,0,0,2.045-.133.254.254,0,0,1,.152.484A4.963,4.963,0,0,1,377.877,5113.769Z" transform="translate(-372.939 -5107.924)"/>
      </g>
      <g id="Grupo_953607" data-name="Grupo 953607" transform="translate(71.273 77.084)">
        <path id="Trazado_637062" data-name="Trazado 637062" d="M473.549,5112.36a2.621,2.621,0,0,1-1.47-.387,2.23,2.23,0,0,1-.883-2.25c.272-1.973,2.781-2.091,5.208-2.2l.475-.023a.244.244,0,0,1,.266.24.253.253,0,0,1-.24.266l-.477.023c-2.322.109-4.515.212-4.73,1.768a1.768,1.768,0,0,0,.659,1.756c.633.416,2.266.766,6.088-1.553a.254.254,0,1,1,.263.434C476.295,5111.894,474.656,5112.36,473.549,5112.36Z" transform="translate(-471.167 -5107.496)"/>
      </g>
      <g id="Grupo_953608" data-name="Grupo 953608" transform="translate(65.859 74.686)">
        <path id="Trazado_637063" data-name="Trazado 637063" d="M463.816,5111.03a2.121,2.121,0,0,1-.539-.068c-.989-.257-1.75-1.208-2.395-3-.446-1.239-.724-4.009.313-5.12a.254.254,0,0,1,.37.346c-.809.866-.66,3.343-.206,4.6.575,1.595,1.244,2.472,2.045,2.68.826.214,1.856-.233,3.153-1.364a.253.253,0,1,1,.333.381A5.038,5.038,0,0,1,463.816,5111.03Z" transform="translate(-460.483 -5102.764)"/>
      </g>
      <g id="Grupo_953609" data-name="Grupo 953609" transform="translate(62.543 74.557)">
        <path id="Trazado_637064" data-name="Trazado 637064" d="M456.958,5111.365a2.087,2.087,0,0,1-1.268-.421c-1.981-1.463-2.009-6.556-1.405-8.266a.253.253,0,0,1,.478.169c-.536,1.516-.512,6.4,1.229,7.689.768.569,1.817.371,3.113-.589a.254.254,0,0,1,.3.408A4.294,4.294,0,0,1,456.958,5111.365Z" transform="translate(-453.94 -5102.51)"/>
      </g>
      <g id="Grupo_953610" data-name="Grupo 953610" transform="translate(58.985 76.76)">
        <path id="Trazado_637065" data-name="Trazado 637065" d="M449.945,5112.194a2.027,2.027,0,0,1-1.031-.28c-1.508-.875-2-3.614-2-4.8a.253.253,0,1,1,.507,0c0,1.051.439,3.609,1.743,4.366a1.959,1.959,0,0,0,2.026-.178.253.253,0,1,1,.251.439A3.054,3.054,0,0,1,449.945,5112.194Z" transform="translate(-446.918 -5106.856)"/>
      </g>
      <g id="Grupo_953611" data-name="Grupo 953611" transform="translate(83.419 82.594)">
        <path id="Trazado_637066" data-name="Trazado 637066" d="M509.369,5127.858a.252.252,0,0,1-.144-.046c-.191-.132-.723-.413-1.4-.769a58.443,58.443,0,0,1-7.009-4.188c-1.346-.984-2.331-1.811-3.122-2.475-1.111-.933-1.783-1.5-2.312-1.5a.254.254,0,0,1-.249-.258.263.263,0,0,1,.257-.249c.709.011,1.391.584,2.629,1.625.785.659,1.763,1.479,3.1,2.453a58.009,58.009,0,0,0,6.946,4.15c.742.392,1.232.65,1.448.8a.254.254,0,0,1-.144.462Z" transform="translate(-495.137 -5118.369)"/>
      </g>
      <g id="Grupo_953612" data-name="Grupo 953612" transform="translate(95.993 66.973)">
        <path id="Trazado_637067" data-name="Trazado 637067" d="M520.206,5111.771a.28.28,0,0,1-.05,0,.254.254,0,0,1-.2-.3c.788-3.994,4.6-16.082,6.224-21.244.4-1.267.682-2.165.781-2.5a.253.253,0,1,1,.486.144c-.1.336-.384,1.237-.784,2.508-1.624,5.154-5.427,17.223-6.209,21.19A.253.253,0,0,1,520.206,5111.771Z" transform="translate(-519.952 -5087.542)"/>
      </g>
      <path id="Trazado_637068" data-name="Trazado 637068" d="M420.792,4968.536c-1.393,3.392-1.161,8.421-.422,8.868,2.463,1.491,5.507.888,11.125-1.1S442.9,4968.1,442.9,4968.1c.346,4.839,2.161,6.481,3.2,8.123s2.593.173,3.976,1.3,3.061,4.331,3.753,4.59,1.69-1.825,1.172-4.677a4.354,4.354,0,0,1,4.4-.006c.864-5.531-1.379-13.3-5.7-16.845s-12.617-6.827-19.789-4.321A21.35,21.35,0,0,0,420.792,4968.536Z" transform="translate(-374.546 -4955.375)" fill="#151748"/>
      <g id="Grupo_953613" data-name="Grupo 953613" transform="translate(57.905 29.577)">
        <path id="Trazado_637069" data-name="Trazado 637069" d="M449.507,5022.458a2.373,2.373,0,0,1-1.6-.447c-.652-.56-.638-1.523-.619-2.858,0-.237.007-.487.007-.749,0-2.434-.756-3.795-2.312-4.16a.254.254,0,0,1,.116-.494c1.793.422,2.7,1.988,2.7,4.654,0,.265,0,.517-.008.756-.017,1.2-.029,2.061.442,2.464.433.371,1.355.422,2.9.159a.256.256,0,0,1,.292.207.254.254,0,0,1-.207.292A10.394,10.394,0,0,1,449.507,5022.458Z" transform="translate(-444.786 -5013.744)"/>
      </g>
      <g id="Grupo_953614" data-name="Grupo 953614" transform="translate(63.782 36.771)">
        <path id="Trazado_637070" data-name="Trazado 637070" d="M458.17,5031.873a5.213,5.213,0,0,1-1.614-.263.253.253,0,0,1,.16-.481,4.157,4.157,0,0,0,3.116-.146,4.557,4.557,0,0,0,2.136-2.866.253.253,0,1,1,.483.153,5.039,5.039,0,0,1-2.389,3.164A4.147,4.147,0,0,1,458.17,5031.873Z" transform="translate(-456.383 -5027.94)"/>
      </g>
      <g id="Grupo_953615" data-name="Grupo 953615" transform="translate(74.238 31.262)">
        <path id="Trazado_637071" data-name="Trazado 637071" d="M477.272,5031.878a.253.253,0,0,1-.142-.463l.345-.233c2.732-1.84,7.306-4.919,6.329-13.832a.253.253,0,0,1,.224-.28.257.257,0,0,1,.28.225c1.01,9.218-3.907,12.528-6.55,14.308l-.343.232A.254.254,0,0,1,477.272,5031.878Z" transform="translate(-477.018 -5017.068)"/>
      </g>
      <path id="Trazado_637072" data-name="Trazado 637072" d="M462.6,5012.919c-.71.664.714,2.917,1.945,2.269S463.576,5012.013,462.6,5012.919Z" transform="translate(-395.577 -4983.664)"/>
      <path id="Trazado_637073" data-name="Trazado 637073" d="M441.593,5018.016c-.711.664.714,2.917,1.945,2.268S442.566,5017.108,441.593,5018.016Z" transform="translate(-385.212 -4986.178)"/>
      <path id="Trazado_637074" data-name="Trazado 637074" d="M451.748,5005.9c-2.942-1.91.83-3.667,4.266-3.083s3.787,2.424,2.361,2.294-3.694-.26-4.6.259S452.4,5006.327,451.748,5005.9Z" transform="translate(-389.794 -4978.722)" fill="#151748"/>
      <path id="Trazado_637075" data-name="Trazado 637075" d="M432.188,5013.516c.607-.652,2.062-2.808,3.927-2.322,1.489.388-.519-2.369-2.646-2.11a3.249,3.249,0,0,0-2.379,2.744C430.9,5012.7,432.02,5013.7,432.188,5013.516Z" transform="translate(-380.115 -4981.859)" fill="#151748"/>
      <g id="Grupo_953616" data-name="Grupo 953616" transform="translate(73.503 41.632)">
        <path id="Trazado_637076" data-name="Trazado 637076" d="M484.021,5049.733c-3.324,0-6.635-1.251-8.42-4.434a.254.254,0,0,1,.442-.249c2.487,4.436,8.159,4.89,12.378,3.434,3.951-1.363,8.252-4.973,7.372-10.66a.253.253,0,0,1,.5-.078c.927,6-3.572,9.79-7.708,11.216A14.167,14.167,0,0,1,484.021,5049.733Z" transform="translate(-475.569 -5037.533)"/>
      </g>
      <g id="Grupo_953617" data-name="Grupo 953617" transform="translate(37.338 85.403)">
        <path id="Trazado_637077" data-name="Trazado 637077" d="M408.772,5128.566a.257.257,0,0,1-.168-.063,55.437,55.437,0,0,1-4.358-4.189.253.253,0,0,1,.409-.3,57.264,57.264,0,0,0,4.283,4.106.254.254,0,0,1-.167.444Z" transform="translate(-404.198 -5123.912)"/>
      </g>
      <g id="Grupo_953618" data-name="Grupo 953618" transform="translate(71.429 88.167)">
        <path id="Trazado_637078" data-name="Trazado 637078" d="M479.117,5141.216a.251.251,0,0,1-.161-.058c-1.49-1.23-6.663-8.976-7.469-11.459a.254.254,0,1,1,.482-.156c.766,2.361,5.894,10.055,7.309,11.226a.253.253,0,0,1-.161.448Z" transform="translate(-471.475 -5129.367)"/>
      </g>
    </g>
    <g id="Grupo_953623" data-name="Grupo 953623" transform="translate(209.383 5049.376)">
      <path id="Trazado_637079" data-name="Trazado 637079" d="M419.755,5238.662v-86.376a11.406,11.406,0,0,0-11.406-11.406H296.871a11.407,11.407,0,0,0-11.408,11.406v86.376Z" transform="translate(-285.463 -5140.88)" fill="#f1e0d9"/>
      <g id="Grupo_953620" data-name="Grupo 953620" transform="translate(81.541 59.221)">
        <path id="Trazado_637080" data-name="Trazado 637080" d="M471.824,5270.471a12.723,12.723,0,1,1-12.722-12.722A12.722,12.722,0,0,1,471.824,5270.471Z" transform="translate(-446.379 -5257.749)" fill="#54478d"/>
        <path id="Trazado_637081" data-name="Trazado 637081" d="M471.682,5275.687a7.365,7.365,0,1,1-7.364-7.363A7.365,7.365,0,0,1,471.682,5275.687Z" transform="translate(-451.594 -5262.965)" fill="#7967cc"/>
      </g>
      <g id="Grupo_953621" data-name="Grupo 953621" transform="translate(19.096 58.85)">
        <rect id="Rectángulo_339849" data-name="Rectángulo 339849" width="52.405" height="26.644" rx="9.209" fill="#ffbba6"/>
        <path id="Trazado_637082" data-name="Trazado 637082" d="M337.3,5265.838a2.314,2.314,0,1,1-2.315-2.315A2.314,2.314,0,0,1,337.3,5265.838Z" transform="translate(-327.845 -5260.226)" fill="#f1efef"/>
        <path id="Rectángulo_339850" data-name="Rectángulo 339850" d="M2.315,0H18.787A2.314,2.314,0,0,1,21.1,2.314v0a2.314,2.314,0,0,1-2.314,2.314H2.314A2.314,2.314,0,0,1,0,2.315v0A2.315,2.315,0,0,1,2.315,0Z" transform="translate(12.935 3.298)" fill="#f1efef"/>
        <path id="Trazado_637083" data-name="Trazado 637083" d="M337.3,5281.5a2.314,2.314,0,1,1-2.315-2.315A2.314,2.314,0,0,1,337.3,5281.5Z" transform="translate(-327.845 -5267.953)" fill="#54478d"/>
        <path id="Rectángulo_339851" data-name="Rectángulo 339851" d="M2.314,0H23.19A2.314,2.314,0,0,1,25.5,2.314v0A2.314,2.314,0,0,1,23.19,4.628H2.315A2.315,2.315,0,0,1,0,2.314v0A2.314,2.314,0,0,1,2.314,0Z" transform="translate(12.935 11.236)" fill="#54478d"/>
        <path id="Trazado_637084" data-name="Trazado 637084" d="M337.3,5297.168a2.314,2.314,0,1,1-2.315-2.315A2.315,2.315,0,0,1,337.3,5297.168Z" transform="translate(-327.845 -5275.68)" fill="#151748"/>
        <path id="Rectángulo_339852" data-name="Rectángulo 339852" d="M2.314,0H30.8a2.314,2.314,0,0,1,2.314,2.314v0A2.314,2.314,0,0,1,30.8,4.629H2.314A2.314,2.314,0,0,1,0,2.314v0A2.314,2.314,0,0,1,2.314,0Z" transform="translate(12.935 19.174)" fill="#151748"/>
      </g>
      <g id="Grupo_953622" data-name="Grupo 953622" transform="translate(45.401 16.422)">
        <path id="Trazado_637085" data-name="Trazado 637085" d="M408.336,5215.981H378.821l-2.855,4.947c-2.123,3.676-.387,6.685,3.86,6.685h27.506c4.246,0,5.982-3.009,3.86-6.685Z" transform="translate(-375.06 -5194.347)" fill="#151748"/>
        <path id="Trazado_637086" data-name="Trazado 637086" d="M381.76,5210.173h30.249l-4.188-7.254H385.948Z" transform="translate(-378.365 -5187.904)" fill="#54478d"/>
        <path id="Trazado_637087" data-name="Trazado 637087" d="M388.981,5195.826h22.929l-5.279-9.144H394.26Z" transform="translate(-381.927 -5179.895)" fill="#aad5ce"/>
        <path id="Trazado_637088" data-name="Trazado 637088" d="M411.8,5181.656l-3.238-5.609c-2.123-3.678-5.6-3.678-7.72,0l-3.238,5.609Z" transform="translate(-386.178 -5173.288)" fill="#f1efef"/>
      </g>
    </g>
    <g id="Grupo_953639" data-name="Grupo 953639" transform="translate(303.395 5034.711)">
      <path id="Trazado_637089" data-name="Trazado 637089" d="M573.877,5128.283c-1.167-4.407-.561-9.591,9.29-14.172s28.863-2.592,32.492,12.531-.345,22.813,7,32.319,20.912,20.567,9.16,33.617c-20.222,14.259-52.973-2.161-55.912-10.11s1.728-20.654,8.469-31.283S575.13,5135.11,573.877,5128.283Z" transform="translate(-521.527 -5111.939)" fill="#151748"/>
      <path id="Trazado_637090" data-name="Trazado 637090" d="M591.442,5165.817c-.13-1.686-.519-6.093-.519-6.093-9.592,2.334-15.944-5.314-15.685-13.22s.259-8.427-1.036-14.519,10.241-13.481,21.517-12.444,9.766,6.783,8.081,17.8c-.259,2.982,1.425,7.562,1.425,7.562.39,6.525.216,20.783.216,20.783S597.794,5170.094,591.442,5165.817Z" transform="translate(-521.851 -5115.64)" fill="#ffbf9d"/>
      <path id="Trazado_637091" data-name="Trazado 637091" d="M597.663,5213.062c2.549-.3,5.574-.778,5.574-.778s-.389-3.673-.475-4.277.3-.692,1.166-.433a20.857,20.857,0,0,0,12.142-.864c1.426-.475,1.427-.389,1.643,1.34s.56,3.284.56,3.284,1.642.864,6.093,1.253C618.921,5219.067,602.761,5223.949,597.663,5213.062Z" transform="translate(-533.473 -5158.565)" fill="#dcd8f0"/>
      <path id="Trazado_637092" data-name="Trazado 637092" d="M634.772,5162.591c1.814-1.9,6.049-3.111,7.518.864s-4.58,9.5-8.728,5.271A29.744,29.744,0,0,0,634.772,5162.591Z" transform="translate(-551.18 -5136.05)" fill="#ff7e7d"/>
      <path id="Trazado_637093" data-name="Trazado 637093" d="M574.36,5131.144c1.641-3.456,10.974-8.554,15.64-9.159,1.988,11.838,4.97,18.838,11.451,17.37,1.469,6.308,1.945,6.221,2.895,5.876s1.469-3.759,1.728-5.488c2.939-2.161,4.493-5.488,4.148-10.414s-4.493-15.469-18.233-12.963S572.373,5123.8,574.36,5131.144Z" transform="translate(-521.793 -5113.936)" fill="#151748"/>
      <g id="Grupo_953624" data-name="Grupo 953624" transform="translate(54.388 19.928)">
        <path id="Trazado_637094" data-name="Trazado 637094" d="M586.393,5164.225h-.014c-1.715-.094-2.675-.435-3.115-1.107a2.353,2.353,0,0,1,0-2.173c.145-.389.289-.731.424-1.05a5.175,5.175,0,0,0,.094-4.781,4.983,4.983,0,0,0-5.194-3.333.241.241,0,0,1-.266-.241.253.253,0,0,1,.24-.266,5.471,5.471,0,0,1,5.7,3.666,5.636,5.636,0,0,1-.1,5.152c-.132.312-.274.649-.416,1.029a1.911,1.911,0,0,0-.048,1.719c.338.517,1.2.8,2.719.878a.253.253,0,0,1-.014.506Z" transform="translate(-578.319 -5151.266)"/>
      </g>
      <g id="Grupo_953625" data-name="Grupo 953625" transform="translate(64.347 20.483)">
        <path id="Trazado_637095" data-name="Trazado 637095" d="M604.189,5154.7a.252.252,0,0,1-.144-.045c-3.651-2.522-4.922-1.87-5.623-1.02a.253.253,0,0,1-.391-.322c1.244-1.513,3.188-1.227,6.3.925a.254.254,0,0,1-.144.462Z" transform="translate(-597.973 -5152.362)"/>
      </g>
      <g id="Grupo_953626" data-name="Grupo 953626" transform="translate(60.717 32.878)">
        <path id="Trazado_637096" data-name="Trazado 637096" d="M593.107,5179.661a5.006,5.006,0,0,1-2.155-.609.253.253,0,1,1,.221-.456c1.653.8,2.928,1.111,5.471-1.692a.253.253,0,0,1,.375.34C595.426,5179,594.266,5179.661,593.107,5179.661Z" transform="translate(-590.809 -5176.821)"/>
      </g>
      <g id="Grupo_953627" data-name="Grupo 953627" transform="translate(68.819 33.914)">
        <path id="Trazado_637097" data-name="Trazado 637097" d="M607.051,5189.289a.254.254,0,0,1-.08-.494c.985-.328,9.7-3.391,12.224-9.769a.253.253,0,1,1,.471.186c-2.609,6.591-11.527,9.728-12.534,10.064A.244.244,0,0,1,607.051,5189.289Z" transform="translate(-606.797 -5178.866)"/>
      </g>
      <path id="Trazado_637098" data-name="Trazado 637098" d="M606.02,5164.333c-.835.1-.26,2.528.939,2.3S607.088,5164.2,606.02,5164.333Z" transform="translate(-537.401 -5137.78)"/>
      <g id="Grupo_953628" data-name="Grupo 953628" transform="translate(67.361 25.424)">
        <path id="Trazado_637099" data-name="Trazado 637099" d="M604.952,5163.726s-.653-.783-.979-1.207a.253.253,0,1,1,.4-.309c.322.418.965,1.191.965,1.191Z" transform="translate(-603.921 -5162.111)"/>
      </g>
      <path id="Trazado_637100" data-name="Trazado 637100" d="M582.932,5161.071c-.835.1-.258,2.527.94,2.3S584,5160.941,582.932,5161.071Z" transform="translate(-526.012 -5136.172)"/>
      <g id="Grupo_953629" data-name="Grupo 953629" transform="translate(55.661 23.771)">
        <path id="Trazado_637101" data-name="Trazado 637101" d="M581.864,5160.464s-.653-.783-.979-1.206a.254.254,0,1,1,.4-.31c.322.419.966,1.191.966,1.191Z" transform="translate(-580.832 -5158.85)"/>
      </g>
      <path id="Trazado_637102" data-name="Trazado 637102" d="M485.964,5244.3c-.3-1.124-.821-2.9-.821-2.9a2.544,2.544,0,0,1-2.851-.087,4.157,4.157,0,0,1-5.141-1.685c-2.248,1.34-5.791-.475-6.136-2.074s2.938-.561,4.882.259c-.647-3.283.087-4.061.649-3.932s1.642.173,3.068,3.37c-.389-3.715,1.08-3.371,1.987-2.376a17.022,17.022,0,0,1,1.987,3.543l1.124-.3c-.606-1.858-.821-3.629,0-3.975s1.944-.216,3.412,3.5c2.723-.562,5.618-1.858,6.7-.475a21.686,21.686,0,0,1,2.2,4.753S495.383,5248.445,485.964,5244.3Z" transform="translate(-470.988 -5172.084)" fill="#ff7e7d"/>
      <path id="Trazado_637103" data-name="Trazado 637103" d="M549.813,5218.7c-3.025.605-7.518-.432-11.061.951s-6.482,5.443-10.63,15.382-7.95,16.938-7.95,16.938c-2.333-5.272-8.037-16.679-8.642-17.888s-1.037.95-4.234,1.987-7,.606-7.691.087,0,2.247,1.9,7.259,6.307,18.752,9.333,23.851,12.1,10.111,18.666,1.124a89.7,89.7,0,0,0,10.456-19.877l5.53,27.913h39.061l.346-23.073s9.506,18.579,7.086,23.073c5.79,0,15.9.172,15.9.172a18.031,18.031,0,0,0-.766-9.993c-2.331-6.408-5.28-14.362-7.1-18.7-3.371-8.038-7.6-18.926-10.111-22.037s-4.074-5.562-14.173-7.691c-.821-.174-.995.517-3.976,2.029s-13.788,4.214-19.832.26C550.9,5219.794,550.332,5218.658,549.813,5218.7Z" transform="translate(-484.975 -5164.333)" fill="#ff8e00"/>
      <path id="Trazado_637104" data-name="Trazado 637104" d="M618.49,5220.715a.848.848,0,1,1-.821-1.059A.963.963,0,0,1,618.49,5220.715Z" transform="translate(-542.936 -5165.072)" fill="#151748"/>
      <g id="Grupo_953630" data-name="Grupo 953630" transform="translate(69.51 50.028)">
        <path id="Trazado_637105" data-name="Trazado 637105" d="M610.091,5216.291c-.622,0-1.244-.594-1.9-1.814a.253.253,0,0,1,.446-.239c.735,1.368,1.245,1.545,1.472,1.546.4-.018.722-.581.923-1.051.64-1.493,1.62-3.886,1.63-3.909a.256.256,0,0,1,.331-.138.253.253,0,0,1,.138.33c-.01.024-.992,2.421-1.634,3.917-.376.877-.836,1.335-1.366,1.357Z" transform="translate(-608.162 -5210.667)"/>
      </g>
      <g id="Grupo_953631" data-name="Grupo 953631" transform="translate(74.954 50.182)">
        <path id="Trazado_637106" data-name="Trazado 637106" d="M622.819,5216.932c-.1,0-.206,0-.309-.012-2.024-.155-2.669-2.43-3.239-4.436-.117-.414-.231-.814-.353-1.18a.254.254,0,0,1,.481-.161c.124.373.24.781.36,1.2.524,1.848,1.119,3.941,2.79,4.07,2.254.17,4.68-1.848,5.753-3.068a.253.253,0,1,1,.381.334C627.594,5214.92,625.182,5216.932,622.819,5216.932Z" transform="translate(-618.904 -5210.97)"/>
      </g>
      <g id="Grupo_953632" data-name="Grupo 953632" transform="translate(52.81 74.746)">
        <path id="Trazado_637107" data-name="Trazado 637107" d="M577.663,5270.257a.254.254,0,0,1-.247-.2c-.327-1.5-.662-2.95-.969-4.277-.62-2.678-1.11-4.794-1.24-6.056a.254.254,0,1,1,.5-.053c.127,1.232.637,3.439,1.229,6,.308,1.33.643,2.776.97,4.283a.253.253,0,0,1-.193.3A.3.3,0,0,1,577.663,5270.257Z" transform="translate(-575.205 -5259.445)"/>
      </g>
      <g id="Grupo_953633" data-name="Grupo 953633" transform="translate(94.419 78.441)">
        <path id="Trazado_637108" data-name="Trazado 637108" d="M663.535,5279.3a.253.253,0,0,1-.237-.166,98.5,98.5,0,0,0-5.1-10.442c-.329-.613-.618-1.15-.846-1.582a.254.254,0,1,1,.448-.237c.227.431.516.967.844,1.579a98.5,98.5,0,0,1,5.132,10.506.253.253,0,0,1-.15.325A.248.248,0,0,1,663.535,5279.3Z" transform="translate(-657.319 -5266.737)"/>
      </g>
      <g id="Grupo_953634" data-name="Grupo 953634" transform="translate(4.568 64.57)">
        <path id="Trazado_637109" data-name="Trazado 637109" d="M482.718,5243.933a.252.252,0,0,1-.171-.067,11.333,11.333,0,0,1-2.536-4.184.253.253,0,1,1,.49-.128,10.9,10.9,0,0,0,2.389,3.939.253.253,0,0,1-.171.439Z" transform="translate(-480.003 -5239.363)"/>
      </g>
      <g id="Grupo_953635" data-name="Grupo 953635" transform="translate(8.155 64.311)">
        <path id="Trazado_637110" data-name="Trazado 637110" d="M490.531,5244.2a.249.249,0,0,1-.117-.028c-2.149-1.118-2.905-3.613-3.269-4.813l-.053-.177a.253.253,0,1,1,.484-.148l.054.178c.344,1.133,1.059,3.492,3.018,4.511a.253.253,0,0,1-.117.478Z" transform="translate(-487.081 -5238.854)"/>
      </g>
      <g id="Grupo_953636" data-name="Grupo 953636" transform="translate(13.469 65.478)">
        <path id="Trazado_637111" data-name="Trazado 637111" d="M501.26,5244.926a3.217,3.217,0,0,1-1.408-.31,4.751,4.751,0,0,1-2.272-3.133.253.253,0,0,1,.484-.15,4.29,4.29,0,0,0,2.007,2.826,3.5,3.5,0,0,0,2.844-.092.254.254,0,1,1,.185.472A5.065,5.065,0,0,1,501.26,5244.926Z" transform="translate(-497.568 -5241.155)"/>
      </g>
      <g id="Grupo_953637" data-name="Grupo 953637" transform="translate(16.622 64.614)">
        <path id="Trazado_637112" data-name="Trazado 637112" d="M504.867,5241.858a.254.254,0,0,1-.227-.14,20.966,20.966,0,0,1-.833-1.928.253.253,0,1,1,.476-.173c.337.926.806,1.865.81,1.875a.254.254,0,0,1-.226.367Z" transform="translate(-503.792 -5239.45)"/>
      </g>
      <g id="Grupo_953638" data-name="Grupo 953638" transform="translate(13.382 68.2)">
        <path id="Trazado_637113" data-name="Trazado 637113" d="M497.65,5248.071a.253.253,0,0,1-.049-.5,5.361,5.361,0,0,0,1.616-.983.253.253,0,1,1,.325.388,5.782,5.782,0,0,1-1.842,1.092A.291.291,0,0,1,497.65,5248.071Z" transform="translate(-497.397 -5246.527)"/>
      </g>
    </g>
    <g id="Grupo_953640" data-name="Grupo 953640" transform="translate(218.386 5045.005)">
      <circle id="Elipse_7822" data-name="Elipse 7822" cx="17.284" cy="17.284" r="17.284" transform="translate(0 0)" fill="#ffbba6"/>
      <path id="Trazado_637114" data-name="Trazado 637114" d="M352.029,5140.436a17.27,17.27,0,0,0-14.692-8.182v17.284S347.137,5144.241,352.029,5140.436Z" transform="translate(-320.053 -5132.254)" fill="#cc3000"/>
      <path id="Trazado_637115" data-name="Trazado 637115" d="M337.337,5156.884l17.074,2.688a17.3,17.3,0,0,0-2.795-12.426C346.651,5150.559,337.337,5156.884,337.337,5156.884Z" transform="translate(-320.053 -5139.601)" fill="#ff3c00"/>
    </g>
    <g id="Grupo_953651" data-name="Grupo 953651" transform="translate(131.228 5031.211)">
      <path id="Trazado_637116" data-name="Trazado 637116" d="M170.952,5112.817c-1.49-3.664-7.45-10.554-16.554-6.6s-9.517,11.507-12.663,21.18-8.277,19.787-9.85,24.771-.744,13.045,7.119,11.579c-.331,6.45,9.37,7.587,13.533,5.129a11.484,11.484,0,0,0,5.574-11.73c3.394,1.394,12.972-1.92,9.729-11.778-4.686-14.243-6.254-29.7,1.081-29.7C173.763,5112.043,170.952,5112.817,170.952,5112.817Z" transform="translate(-131.228 -5105.032)" fill="#151748"/>
      <path id="Trazado_637117" data-name="Trazado 637117" d="M208.576,5119.876c-1.266-1.378-3.166-2.438-4.749-.074-1.376,2.056-1.978,4.581.713,5.123C206.306,5125.28,209.21,5122.339,208.576,5119.876Z" transform="translate(-166.462 -5111.629)" fill="#5fb0a2"/>
      <path id="Trazado_637118" data-name="Trazado 637118" d="M218.278,5166.559c.346-1.556,1.48-9.6,1.48-9.6l4.321-6.4c-4.731-4.968,2.333-12.875,6.135-6.395,1.728-.432,1.382-13.914,4.061-15.9s10.716-1.382,10.716-1.382c2.161,2.593,2.852,6.308,2.333,10.456s-1.3,5.358.691,7.345,3.716,3.458.6,5.7c-1.9,1.3-1.987,1.814-2.332,4.234s-.606,5.186-4.667,6.222a21.78,21.78,0,0,1-8.3.6c-.606-.086-1.556,4.494-1.987,6.914S218.278,5166.559,218.278,5166.559Z" transform="translate(-174.167 -5115.768)" fill="#ffbf9d"/>
      <path id="Trazado_637119" data-name="Trazado 637119" d="M312.778,5213.355c2.506-2.765,4.149-5.876,7.691-6.394a75.836,75.836,0,0,0,7.778-1.21c1.815-.519,2.16-1.21,3.2,0,.518-3.543,2.247-5.012,2.852-2.593,1.3-2.505,3.11-2.246,2.678-.086,1.988-1.9,3.544-1.467,2.939.52s-2.075,5.7-4.753,6.826-8.641-.26-11.148,2.506a81.961,81.961,0,0,0-5.185,6.568Z" transform="translate(-220.781 -5152.55)" fill="#ff7e7d"/>
      <g id="Grupo_953641" data-name="Grupo 953641" transform="translate(104.75 52.645)">
        <path id="Trazado_637120" data-name="Trazado 637120" d="M338.2,5213.643a.253.253,0,0,1-.027-.505c1.944-.208,4.839-1.142,5.323-1.894.527-.82.505-1.447-.065-1.861a.253.253,0,1,1,.3-.41c.466.339,1.111,1.12.194,2.546-.686,1.066-4.073,1.95-5.7,2.124Z" transform="translate(-337.944 -5208.923)"/>
      </g>
      <g id="Grupo_953642" data-name="Grupo 953642" transform="translate(110.237 50.182)">
        <path id="Trazado_637121" data-name="Trazado 637121" d="M349.026,5209.409a.253.253,0,0,1,0-.507,3.692,3.692,0,0,0,3.215-1.545c.488-.615.883-1.166,1.231-1.652a10.923,10.923,0,0,1,1.257-1.574.254.254,0,0,1,.346.371,10.7,10.7,0,0,0-1.191,1.5c-.352.491-.75,1.047-1.247,1.672A4.2,4.2,0,0,1,349.026,5209.409Z" transform="translate(-348.773 -5204.062)"/>
      </g>
      <g id="Grupo_953643" data-name="Grupo 953643" transform="translate(111.49 49.75)">
        <path id="Trazado_637122" data-name="Trazado 637122" d="M351.5,5208.643a.253.253,0,0,1-.209-.4,9.366,9.366,0,0,0,.616-1.506,11.422,11.422,0,0,1,1.653-3.447.253.253,0,0,1,.372.343,11.216,11.216,0,0,0-1.549,3.275,8.947,8.947,0,0,1-.675,1.623A.253.253,0,0,1,351.5,5208.643Z" transform="translate(-351.246 -5203.211)"/>
      </g>
      <path id="Trazado_637123" data-name="Trazado 637123" d="M235.005,5213.116c1.361-1.555,2.787-3.888,4.537-2.4s6.805,4.862,7.972,5.769,2.592,1.425,1.166,3.435-14.842,19.509-20.739,25.277-11.083,6.871-19.379-2.527c-1.621,3.5-7,5.574-7.908,9.269s-.691,15.187-.691,15.187l-31.8-.173s6.078-24,8.8-31.06,3.927-13.682,9.881-23.689c2.5-4.2,4.658-5.642,5.954-11.021.195-1.167.28-2.228,1.9-1.773s11.207,3.142,12.179,3.66-.324,2.852-1.685,7.972c4.213,3.37,9.268,10.434,11.8,13.74s4.925,5.379,7.129,2.917S235.005,5213.116,235.005,5213.116Z" transform="translate(-149.446 -5151.533)" fill="#ff3c00"/>
      <g id="Grupo_953644" data-name="Grupo 953644" transform="translate(45.64 76.236)">
        <path id="Trazado_637124" data-name="Trazado 637124" d="M235.1,5270.895a.252.252,0,0,1-.181-.077c-2.778-2.842-12.188-13.159-13.565-14.929a.253.253,0,1,1,.4-.311c1.371,1.762,10.755,12.049,13.528,14.885a.254.254,0,0,1-.181.431Z" transform="translate(-221.296 -5255.48)"/>
      </g>
      <g id="Grupo_953645" data-name="Grupo 953645" transform="translate(50.242 57.247)">
        <path id="Trazado_637125" data-name="Trazado 637125" d="M236.464,5221.04a.251.251,0,0,1-.167-.063,10.894,10.894,0,0,0-5.667-2.465.253.253,0,1,1,0-.506,11.275,11.275,0,0,1,6,2.59.254.254,0,0,1-.166.445Z" transform="translate(-230.377 -5218.005)"/>
      </g>
      <path id="Trazado_637126" data-name="Trazado 637126" d="M210.465,5150.222c1.211-.087,2.4-1.471,4.213-6.569a5.742,5.742,0,0,1,1.123-7.777c2.333-1.815,3.975.087,5.185,2.248s1.988,2.42,3.025,1.814,4.031-4.992.574-14.239c-.562-1.643.635-3.217,3.4-2.958s5.79.259,8.123-1.987c.691-1.038-.819-3.859-6.2-6.266-4.128-1.846-17.327-3.9-24.82,3.932-5.174,5.406-6.009,10.414-5.85,13.851C199.49,5137.718,203.725,5146.318,210.465,5150.222Z" transform="translate(-164.766 -5108.859)" fill="#151748"/>
      <g id="Grupo_953646" data-name="Grupo 953646" transform="translate(49.054 33.59)">
        <path id="Trazado_637127" data-name="Trazado 637127" d="M231.611,5173.97a3.834,3.834,0,0,1-3.553-2.283.253.253,0,0,1,.453-.227c.952,1.9,2.868,2.489,5.122,1.563a.254.254,0,0,1,.192.47A5.879,5.879,0,0,1,231.611,5173.97Z" transform="translate(-228.032 -5171.32)"/>
      </g>
      <g id="Grupo_953647" data-name="Grupo 953647" transform="translate(68.908 35.339)">
        <path id="Trazado_637128" data-name="Trazado 637128" d="M270.428,5178.542l-.033,0c-1.352-.179-2.564-1.848-3.164-3.424a.253.253,0,1,1,.473-.18c.53,1.388,1.617,2.951,2.757,3.1a.254.254,0,0,1-.033.505Z" transform="translate(-267.214 -5174.773)"/>
      </g>
      <g id="Grupo_953648" data-name="Grupo 953648" transform="translate(54.39 43.377)">
        <path id="Trazado_637129" data-name="Trazado 637129" d="M243.872,5193.344h-.029a13.135,13.135,0,0,1-5.183-2.256.254.254,0,1,1,.314-.4,12.733,12.733,0,0,0,4.927,2.151.253.253,0,0,1-.029.5Z" transform="translate(-238.563 -5190.634)"/>
      </g>
      <g id="Grupo_953649" data-name="Grupo 953649" transform="translate(66.251 20.147)">
        <path id="Trazado_637130" data-name="Trazado 637130" d="M262.223,5146.815a.253.253,0,0,1-.165-.445,6.711,6.711,0,0,1,4.855-1.551.253.253,0,0,1,.229.275.256.256,0,0,1-.276.229,6.184,6.184,0,0,0-4.478,1.431A.249.249,0,0,1,262.223,5146.815Z" transform="translate(-261.97 -5144.792)"/>
      </g>
      <g id="Grupo_953650" data-name="Grupo 953650" transform="translate(68.39 25.099)">
        <path id="Trazado_637131" data-name="Trazado 637131" d="M266.444,5156.433a.254.254,0,0,1-.163-.448,11.348,11.348,0,0,0,1.126-1.319.253.253,0,0,1,.405.3,11.974,11.974,0,0,1-1.207,1.4A.251.251,0,0,1,266.444,5156.433Z" transform="translate(-266.19 -5154.564)"/>
      </g>
      <path id="Trazado_637132" data-name="Trazado 637132" d="M265.941,5157.068c-.694-.063-1.772,2.679-.735,2.852S266.893,5157.155,265.941,5157.068Z" transform="translate(-197.103 -5130.699)"/>
    </g>
    <g id="Grupo_953652" data-name="Grupo 953652" transform="translate(295.056 5056.808)">
      <path id="Rectángulo_339853" data-name="Rectángulo 339853" d="M12.278,0H25.227A12.278,12.278,0,0,1,37.5,12.278V25.571A12.279,12.279,0,0,1,25.226,37.85H12.279A12.279,12.279,0,0,1,0,25.571V12.278A12.278,12.278,0,0,1,12.278,0Z" transform="translate(0)" fill="#f1efef"/>
      <path id="Trazado_637133" data-name="Trazado 637133" d="M473.73,5197.425a3.033,3.033,0,0,1-3.033,3.033h0a3.033,3.033,0,0,1-3.033-3.033v-12.967a3.034,3.034,0,0,1,3.033-3.034h0a3.033,3.033,0,0,1,3.033,3.034Z" transform="translate(-461.009 -5168.312)" fill="#aad5ce"/>
      <path id="Trazado_637134" data-name="Trazado 637134" d="M490.461,5192.692a3.034,3.034,0,0,1-3.035,3.033h0a3.034,3.034,0,0,1-3.033-3.033v-17.829a3.034,3.034,0,0,1,3.033-3.033h0a3.034,3.034,0,0,1,3.035,3.033Z" transform="translate(-469.261 -5163.579)" fill="#54478d"/>
      <path id="Trazado_637135" data-name="Trazado 637135" d="M507.192,5188.4a3.034,3.034,0,0,1-3.033,3.033h0a3.034,3.034,0,0,1-3.034-3.033v-22.235a3.034,3.034,0,0,1,3.034-3.034h0a3.034,3.034,0,0,1,3.033,3.034Z" transform="translate(-477.515 -5159.289)" fill="#151748"/>
    </g>
    <g id="Grupo_953653" data-name="Grupo 953653" transform="translate(134.927 5146.472)">
      <path id="Trazado_637136" data-name="Trazado 637136" d="M439.141,5333.507H139.035a.507.507,0,1,1,0-1.013H439.141a.507.507,0,1,1,0,1.013Z" transform="translate(-138.528 -5332.494)" fill="#151748"/>
    </g>
  </g>
</svg>
