<svg xmlns="http://www.w3.org/2000/svg" width="295" height="236.47" viewBox="0 0 295 236.47">
  <g id="Grupo_959376" data-name="Grupo 959376" transform="translate(-934.792 -2752.843)">
    <g id="Grupo_959385" data-name="Grupo 959385" transform="translate(962.029 2759.601)">
      <g id="Grupo_959376-2" data-name="Grupo 959376">
        <path id="Trazado_654549" data-name="Trazado 654549" d="M965.359,2760.283a10.815,10.815,0,0,1,8.333,1.516,19.082,19.082,0,0,1,5.909,6.293c2.959,4.774,3.956,11.163,4.036,16.779-6.23-.311-11.509-5.26-14.029-7.94-3.984-4.234-8.613-14.306-4.249-16.647" transform="translate(-963.596 -2759.99)" fill="#ffe2d9"/>
      </g>
      <g id="Grupo_959377" data-name="Grupo 959377" transform="translate(26.801 10.989)">
        <path id="Trazado_654550" data-name="Trazado 654550" d="M995.172,2789.354a9.228,9.228,0,0,1-3.09-8.735,12.254,12.254,0,0,1,5.35-7.812,5.157,5.157,0,0,1,4.217-1.057,3.945,3.945,0,0,1,2.525,3.1,8.01,8.01,0,0,1-.52,4.124c-1.616,4.528-4.01,8.613-8.482,10.378" transform="translate(-991.938 -2771.611)" fill="#ffe2d9"/>
      </g>
      <g id="Grupo_959379" data-name="Grupo 959379" transform="translate(29.817 18.326)">
        <g id="Grupo_959378" data-name="Grupo 959378">
          <path id="Trazado_654551" data-name="Trazado 654551" d="M998.97,2803.358a18.218,18.218,0,0,1-1.767-3.266,17.255,17.255,0,0,1-1.243-3.864,37.922,37.922,0,0,1-.773-4.892,18.471,18.471,0,0,1,1.405-8.865,13.375,13.375,0,0,1,1.383-2.362c.4-.506.65-.763.682-.738.093.066-.812,1.176-1.655,3.273a19.814,19.814,0,0,0-1.188,8.647,44.571,44.571,0,0,0,.712,4.822,19.029,19.029,0,0,0,1.085,3.8A26.691,26.691,0,0,1,998.97,2803.358Z" transform="translate(-995.127 -2779.37)" fill="#ffbba6"/>
        </g>
      </g>
      <g id="Grupo_959381" data-name="Grupo 959381" transform="translate(5.963 7.651)">
        <g id="Grupo_959380" data-name="Grupo 959380">
          <path id="Trazado_654552" data-name="Trazado 654552" d="M969.9,2768.082a10.758,10.758,0,0,1,1.3,1.353c.808.9,1.961,2.211,3.37,3.848,2.818,3.272,6.661,7.837,10.781,12.981s7.719,9.912,10.25,13.412c1.265,1.75,2.273,3.179,2.949,4.181a10.8,10.8,0,0,1,1,1.59,10.687,10.687,0,0,1-1.2-1.446l-3.107-4.058c-2.62-3.43-6.268-8.144-10.384-13.285l-10.631-13.089-3.216-3.975A10.717,10.717,0,0,1,969.9,2768.082Z" transform="translate(-969.902 -2768.081)" fill="#ffbba6"/>
        </g>
      </g>
      <g id="Grupo_959382" data-name="Grupo 959382" transform="translate(2.765 31.045)">
        <path id="Trazado_654553" data-name="Trazado 654553" d="M989.547,2796.585a21.587,21.587,0,0,0-19.568-2.455c-1.63.612-3.406,1.75-3.458,3.49s1.663,2.989,3.274,3.66a18.442,18.442,0,0,0,20.006-4.3" transform="translate(-966.52 -2792.821)" fill="#ffe2d9"/>
      </g>
      <g id="Grupo_959384" data-name="Grupo 959384" transform="translate(10.583 33.649)">
        <g id="Grupo_959383" data-name="Grupo 959383">
          <path id="Trazado_654554" data-name="Trazado 654554" d="M974.787,2796.927a3,3,0,0,1,.935-.32c.611-.174,1.507-.368,2.624-.576a24.354,24.354,0,0,1,8.876-.074,15.257,15.257,0,0,1,4.609,1.76,14.775,14.775,0,0,1,3.136,2.522,14.585,14.585,0,0,1,1.67,2.12c.345.535.516.841.48.864-.1.074-.872-1.108-2.465-2.671a15.977,15.977,0,0,0-3.111-2.333,15.711,15.711,0,0,0-4.445-1.646,27.4,27.4,0,0,0-8.684-.1A31.762,31.762,0,0,1,974.787,2796.927Z" transform="translate(-974.787 -2795.574)" fill="#ffbba6"/>
        </g>
      </g>
    </g>
    <g id="Grupo_959409" data-name="Grupo 959409" transform="translate(934.792 2796.074)">
      <g id="Grupo_959388" data-name="Grupo 959388">
        <g id="Grupo_959387" data-name="Grupo 959387">
          <g id="Grupo_959386" data-name="Grupo 959386">
            <path id="Trazado_654555" data-name="Trazado 654555" d="M996.963,2933.99c20.137-9.777,27.989-32.624,30.634-53.862.442-3.545,1.42-7.2.235-10.562s-4.763-6.1-8.156-5.114c-2.815.816-4.442,3.68-6.307,5.966a20.892,20.892,0,0,1-9.527,6.583c-2.431.808-5.323,1.078-7.345-.5-2.774-2.163-2.464-6.422-1.885-9.926q1.623-9.8,3.243-19.589c.58-3.5,1.16-7.083.6-10.585s-2.479-6.978-5.666-8.443-7.621-.2-8.871,3.122a32.774,32.774,0,0,0-.8,4.351c-.329,1.441-1.263,2.944-2.711,3.129-1.465.189-2.71-1.029-3.6-2.222-3.056-4.117-4.787-9.07-6.36-13.972s-3.063-9.9-5.732-14.285-6.726-8.169-11.7-9.253-10.823,1.165-12.876,5.894.026,10.218,2.529,14.719a79.272,79.272,0,0,0,13.827,18.131,6.52,6.52,0,0,1,2.26,3.365c.39,2.459-2.195,4.429-4.626,4.83-2.753.455-5.546-.268-8.332-.381s-5.94.621-7.386,3.041c-2.008,3.356.392,7.591,2.951,10.521a67.92,67.92,0,0,0,18.024,14.616c2.429,1.354,5.013,2.615,6.8,4.758s2.546,5.5.9,7.766-5,2.55-7.626,1.619-4.807-2.783-7.228-4.165c-4.53-2.586-10.807-3.244-14.558.429-2.464,2.415-3.25,6.2-2.742,9.626a25.917,25.917,0,0,0,3.937,9.514,68.3,68.3,0,0,0,25.574,24.819c10.563,5.656,20.756,8.354,32.514,6.059" transform="translate(-934.792 -2798.561)" fill="#ffe2d9"/>
          </g>
        </g>
      </g>
      <g id="Grupo_959392" data-name="Grupo 959392" transform="translate(11.185 2.157)">
        <g id="Grupo_959391" data-name="Grupo 959391">
          <g id="Grupo_959390" data-name="Grupo 959390">
            <g id="Grupo_959389" data-name="Grupo 959389">
              <path id="Trazado_654556" data-name="Trazado 654556" d="M994.752,2935.24c.566-8.49.944-4.086-.491-15.237a318.1,318.1,0,0,0-7.09-35.82q-1.184-4.707-2.34-9.294c-.775-3.049-1.544-6.072-2.478-8.982a158.917,158.917,0,0,0-6.328-16.417c-2.266-5.124-4.6-9.905-6.82-14.358s-4.383-8.561-6.506-12.222a126.111,126.111,0,0,0-11.3-16.516c-1.481-1.839-2.676-3.227-3.5-4.158l-.943-1.051a2.578,2.578,0,0,0-.338-.344,2.492,2.492,0,0,0,.287.388l.894,1.094c.79.958,1.953,2.372,3.4,4.233a133.387,133.387,0,0,1,11.094,16.59c2.093,3.666,4.218,7.779,6.422,12.233s4.51,9.243,6.755,14.361a160.5,160.5,0,0,1,6.267,16.367c.926,2.9,1.684,5.893,2.459,8.949s1.547,6.153,2.337,9.29a326.066,326.066,0,0,1,7.127,35.739c1.462,11.112,1.131,6.664.625,15.127" transform="translate(-946.62 -2800.842)" fill="#ffbba6"/>
            </g>
          </g>
        </g>
      </g>
      <g id="Grupo_959396" data-name="Grupo 959396" transform="translate(46.727 29.398)">
        <g id="Grupo_959395" data-name="Grupo 959395">
          <g id="Grupo_959394" data-name="Grupo 959394">
            <g id="Grupo_959393" data-name="Grupo 959393">
              <path id="Trazado_654557" data-name="Trazado 654557" d="M984.216,2867.419a7.13,7.13,0,0,0,.581-1.441c.339-.94.783-2.315,1.308-4.023,1.052-3.413,2.343-8.176,3.746-13.433s2.76-9.99,3.861-13.377c.546-1.7,1-3.063,1.328-4a7.177,7.177,0,0,0,.439-1.491,7.051,7.051,0,0,0-.675,1.4c-.4.915-.924,2.264-1.527,3.946-1.217,3.362-2.649,8.092-4.054,13.356-1.372,5.191-2.613,9.887-3.561,13.475-.439,1.618-.81,2.982-1.106,4.076A7.12,7.12,0,0,0,984.216,2867.419Z" transform="translate(-984.207 -2829.649)" fill="#ffbba6"/>
            </g>
          </g>
        </g>
      </g>
      <g id="Grupo_959400" data-name="Grupo 959400" transform="translate(2.986 51.554)">
        <g id="Grupo_959399" data-name="Grupo 959399">
          <g id="Grupo_959398" data-name="Grupo 959398">
            <g id="Grupo_959397" data-name="Grupo 959397">
              <path id="Trazado_654558" data-name="Trazado 654558" d="M937.95,2853.091a9.9,9.9,0,0,0,1.764.5c1.14.287,2.793.694,4.819,1.261,4.059,1.1,9.612,2.823,15.656,4.989s11.426,4.38,15.273,6.086c1.932.84,3.475,1.561,4.546,2.054a9.688,9.688,0,0,0,1.691.711,9.852,9.852,0,0,0-1.577-.943c-1.038-.563-2.556-1.351-4.468-2.249-3.81-1.819-9.185-4.1-15.244-6.283a161.036,161.036,0,0,0-15.761-4.817c-2.047-.511-3.721-.851-4.882-1.06A9.625,9.625,0,0,0,937.95,2853.091Z" transform="translate(-937.95 -2853.08)" fill="#ffbba6"/>
            </g>
          </g>
        </g>
      </g>
      <g id="Grupo_959404" data-name="Grupo 959404" transform="translate(58.401 66.423)">
        <g id="Grupo_959403" data-name="Grupo 959403">
          <g id="Grupo_959402" data-name="Grupo 959402">
            <g id="Grupo_959401" data-name="Grupo 959401">
              <path id="Trazado_654559" data-name="Trazado 654559" d="M996.554,2922.781a2.305,2.305,0,0,0,.4-.5l1.031-1.509c.889-1.313,2.126-3.248,3.624-5.658,3-4.82,6.929-11.608,11.165-19.155s8.1-14.366,10.994-19.24l3.443-5.764c.372-.63.678-1.148.929-1.574a2.322,2.322,0,0,0,.286-.574,2.432,2.432,0,0,0-.4.5l-1.031,1.507c-.889,1.315-2.126,3.249-3.624,5.66-3,4.82-6.928,11.607-11.167,19.158s-8.1,14.363-10.993,19.239c-1.415,2.367-2.578,4.317-3.442,5.763-.372.629-.678,1.149-.929,1.574A2.384,2.384,0,0,0,996.554,2922.781Z" transform="translate(-996.552 -2868.804)" fill="#ffbba6"/>
            </g>
          </g>
        </g>
      </g>
      <g id="Grupo_959408" data-name="Grupo 959408" transform="translate(1.558 91.55)">
        <g id="Grupo_959407" data-name="Grupo 959407">
          <g id="Grupo_959406" data-name="Grupo 959406">
            <g id="Grupo_959405" data-name="Grupo 959405">
              <path id="Trazado_654560" data-name="Trazado 654560" d="M936.44,2895.38a2.432,2.432,0,0,0,.555.34l1.648.861,6.085,3.1c5.137,2.62,12.193,6.319,19.983,10.416s14.888,7.738,20.081,10.251c2.6,1.258,4.707,2.253,6.18,2.912l1.7.749a2.4,2.4,0,0,0,.612.219,2.462,2.462,0,0,0-.555-.341l-1.647-.859-6.085-3.1c-5.137-2.618-12.194-6.319-19.985-10.418s-14.885-7.735-20.078-10.249c-2.6-1.258-4.707-2.254-6.18-2.912-.682-.3-1.244-.549-1.7-.749A2.362,2.362,0,0,0,936.44,2895.38Z" transform="translate(-936.44 -2895.376)" fill="#ffbba6"/>
            </g>
          </g>
        </g>
      </g>
    </g>
    <g id="Grupo_959411" data-name="Grupo 959411" transform="translate(938.189 2988.961)">
      <g id="Grupo_959410" data-name="Grupo 959410">
        <path id="Trazado_654561" data-name="Trazado 654561" d="M1223.951,3002.718c0,.1-63.932.176-142.777.176-78.872,0-142.79-.079-142.79-.176s63.918-.176,142.79-.176C1160.019,3002.542,1223.951,3002.62,1223.951,3002.718Z" transform="translate(-938.384 -3002.542)" fill="#263238"/>
      </g>
    </g>
    <g id="Grupo_959427" data-name="Grupo 959427" transform="translate(951.622 2876.882)">
      <g id="Grupo_959412" data-name="Grupo 959412">
        <path id="Trazado_654562" data-name="Trazado 654562" d="M954.846,2884.425s4.66-3.145,10.482,8.018a145.788,145.788,0,0,1,8.049,17.612s1.533,2.336,3.133.785,3.77-5.93,6.521-5.172c2.854.788,3.821,3.954,3.322,8.627s-1.216,14.948-1.278,15.878c-.06.913.475,2.251,1.734,1.369s8.474-9.071,12.155-5.414.152,16.443-.207,17.848-.079,2,.59,2.342,2.835-2.64,4.982-4.885,5.031-4.472,6.978-2.184,2.652,11.851-6.308,27.479l-4.627,6.97-8.393-.387c-17.913-1.922-25.239-8.109-25.948-11.028s2.787-3.946,5.865-4.366,6.762-.424,6.879-1.165-.2-1.318-1.549-1.853-13.772-5.187-14.57-10.313,10.066-6.159,11.519-6.66.684-1.72-.09-2.207c-.789-.5-9.529-5.949-13.6-8.289s-6.071-4.982-5.033-7.754c1-2.673,5.819-1.859,8.015-2.243s1.2-3,1.2-3a145.851,145.851,0,0,1-9.531-16.855c-5.618-11.268-.194-13.216-.194-13.216" transform="translate(-952.59 -2884.016)" fill="#ff4812"/>
      </g>
      <g id="Grupo_959414" data-name="Grupo 959414" transform="translate(7.486 10.397)">
        <g id="Grupo_959413" data-name="Grupo 959413">
          <path id="Trazado_654563" data-name="Trazado 654563" d="M960.508,2895.011a1.239,1.239,0,0,1,.117.2l.315.6,1.183,2.305,4.32,8.5,14.356,27.972c5.63,10.915,10.681,20.822,14.276,28.021,1.778,3.594,3.22,6.508,4.227,8.542l1.128,2.333.286.61a1.126,1.126,0,0,1,.087.213,1.213,1.213,0,0,1-.117-.2l-.315-.6-1.183-2.3c-1.028-2.024-2.5-4.921-4.319-8.5-3.647-7.172-8.729-17.06-14.359-27.976s-10.678-20.817-14.273-28.017c-1.779-3.594-3.221-6.508-4.227-8.542l-1.129-2.333-.287-.61A1.188,1.188,0,0,1,960.508,2895.011Z" transform="translate(-960.507 -2895.011)" fill="#263238"/>
        </g>
      </g>
      <g id="Grupo_959416" data-name="Grupo 959416" transform="translate(24.028 27.899)">
        <g id="Grupo_959415" data-name="Grupo 959415">
          <path id="Trazado_654564" data-name="Trazado 654564" d="M981.625,2913.52a17.224,17.224,0,0,1-.462,2.2l-1.209,5.287c-.469,2.066-.907,3.937-1.265,5.28-.181.671-.339,1.212-.459,1.582a2.263,2.263,0,0,1-.222.565,20.387,20.387,0,0,1,.458-2.2c.319-1.441.724-3.272,1.173-5.3.469-2.067.931-3.932,1.3-5.272.187-.67.345-1.209.466-1.579A2.179,2.179,0,0,1,981.625,2913.52Z" transform="translate(-978 -2913.52)" fill="#263238"/>
        </g>
      </g>
      <g id="Grupo_959418" data-name="Grupo 959418" transform="translate(6.209 38.236)">
        <g id="Grupo_959417" data-name="Grupo 959417">
          <path id="Trazado_654565" data-name="Trazado 654565" d="M976.215,2929.187c-.024.087-3.862-.9-8.572-2.209s-8.51-2.435-8.486-2.521,3.861.9,8.573,2.209S976.239,2929.1,976.215,2929.187Z" transform="translate(-959.157 -2924.451)" fill="#263238"/>
        </g>
      </g>
      <g id="Grupo_959420" data-name="Grupo 959420" transform="translate(18.453 61.301)">
        <g id="Grupo_959419" data-name="Grupo 959419">
          <path id="Trazado_654566" data-name="Trazado 654566" d="M987.755,2949.3a2.232,2.232,0,0,1-.612.091c-.4.04-.969.078-1.678.114-1.417.069-3.38.116-5.548.052s-4.126-.213-5.537-.365c-.706-.075-1.277-.149-1.669-.208a2.269,2.269,0,0,1-.606-.126,18.735,18.735,0,0,1,2.294.106c1.414.094,3.367.211,5.527.271s4.115.053,5.532.042A18.317,18.317,0,0,1,987.755,2949.3Z" transform="translate(-972.105 -2948.843)" fill="#263238"/>
        </g>
      </g>
      <g id="Grupo_959422" data-name="Grupo 959422" transform="translate(33.966 48.999)">
        <g id="Grupo_959421" data-name="Grupo 959421">
          <path id="Trazado_654567" data-name="Trazado 654567" d="M995.614,2935.834a13.809,13.809,0,0,1-.941,1.9c-.617,1.157-1.488,2.742-2.469,4.485s-1.884,3.311-2.552,4.438a13.71,13.71,0,0,1-1.139,1.792,13.594,13.594,0,0,1,.94-1.9c.617-1.155,1.488-2.742,2.469-4.485s1.885-3.312,2.552-4.439A13.727,13.727,0,0,1,995.614,2935.834Z" transform="translate(-988.51 -2935.833)" fill="#263238"/>
        </g>
      </g>
      <g id="Grupo_959424" data-name="Grupo 959424" transform="translate(43.485 64.37)">
        <g id="Grupo_959423" data-name="Grupo 959423">
          <path id="Trazado_654568" data-name="Trazado 654568" d="M1007.835,2952.089a3.215,3.215,0,0,1-.309.664l-.948,1.75c-.811,1.47-1.953,3.49-3.231,5.711s-2.451,4.223-3.313,5.664l-1.036,1.7a3.181,3.181,0,0,1-.419.6,3.224,3.224,0,0,1,.309-.664l.948-1.749c.811-1.469,1.953-3.49,3.231-5.711s2.45-4.223,3.313-5.664l1.036-1.7A3.14,3.14,0,0,1,1007.835,2952.089Z" transform="translate(-998.577 -2952.089)" fill="#263238"/>
        </g>
      </g>
      <g id="Grupo_959426" data-name="Grupo 959426" transform="translate(23.762 78.899)">
        <g id="Grupo_959425" data-name="Grupo 959425">
          <path id="Trazado_654569" data-name="Trazado 654569" d="M997.558,2968.565a3.624,3.624,0,0,1-.781.066c-.5.022-1.232.036-2.132.044-1.8.008-4.288-.028-7.032-.184s-5.223-.385-7.01-.6c-.895-.1-1.616-.2-2.114-.278a3.582,3.582,0,0,1-.769-.152,3.679,3.679,0,0,1,.783.026l2.123.176c1.791.152,4.267.35,7.005.5s5.22.228,7.017.277l2.129.06A3.73,3.73,0,0,1,997.558,2968.565Z" transform="translate(-977.719 -2967.453)" fill="#263238"/>
        </g>
      </g>
    </g>
    <g id="Grupo_959711" data-name="Grupo 959711" transform="translate(996.161 2752.843)">
      <g id="Grupo_959526" data-name="Grupo 959526" transform="translate(66.457 42.654)">
        <g id="Grupo_959428" data-name="Grupo 959428">
          <path id="Trazado_654570" data-name="Trazado 654570" d="M1222.165,2876.033l-22.6,22-20.826,39.748-23.424,44.942-28.776-13.489-31.1-15.926,19.9-38.006,12.364-42.559c-8.736,5.8-24.952,13.689-44.366,9.573-21.031-4.46-10.936-83.776-10.936-83.776l23.109-.594,2.3,55.924,26.125-11.536.041.1c1.572-.7,2.947-1.327,3.677-1.725,14.446-7.88,23.928-8.835,39.426-3.3h0l22.362,7.428c5.746,2.709,26.931,13.14,32.729,31.2" transform="translate(-1069.971 -2797.95)" fill="#ff3c00"/>
        </g>
        <g id="Grupo_959433" data-name="Grupo 959433" transform="translate(30.126 37.796)">
          <g id="Grupo_959430" data-name="Grupo 959430" transform="translate(27.031)">
            <g id="Grupo_959429" data-name="Grupo 959429">
              <path id="Trazado_654571" data-name="Trazado 654571" d="M1146.349,2837.921c.017.03-.524.3-1.4.923a15.487,15.487,0,0,0-3.238,3.185,23.065,23.065,0,0,0-3.191,5.933c-.913,2.382-1.616,5.107-2.382,7.961-1.547,5.686-2.947,10.831-3.974,14.606l-1.243,4.416c-.146.491-.264.887-.356,1.2a2.084,2.084,0,0,1-.146.411,1.927,1.927,0,0,1,.078-.429c.075-.313.171-.716.291-1.213l1.135-4.444c1-3.782,2.367-8.937,3.875-14.633a77.9,77.9,0,0,1,2.419-7.986,22.669,22.669,0,0,1,3.3-5.97,14.666,14.666,0,0,1,3.356-3.144,9.679,9.679,0,0,1,1.08-.634A2.043,2.043,0,0,1,1146.349,2837.921Z" transform="translate(-1130.415 -2837.92)" fill="#263238"/>
            </g>
          </g>
          <g id="Grupo_959432" data-name="Grupo 959432" transform="translate(0 11.206)" opacity="0.3">
            <g id="Grupo_959431" data-name="Grupo 959431">
              <path id="Trazado_654572" data-name="Trazado 654572" d="M1136.371,2849.77c-6.461,17.493-18.082,27.277-34.542,36.042a60.607,60.607,0,0,0,27.138-9.945" transform="translate(-1101.829 -2849.77)"/>
            </g>
          </g>
        </g>
        <g id="Grupo_959435" data-name="Grupo 959435" transform="translate(85.249 36.549)" opacity="0.3">
          <g id="Grupo_959434" data-name="Grupo 959434">
            <path id="Trazado_654573" data-name="Trazado 654573" d="M1160.123,2836.6q4.109,65.76,8.217,131.52l-8.122,16.707Z" transform="translate(-1160.123 -2836.601)"/>
          </g>
        </g>
        <g id="Grupo_959437" data-name="Grupo 959437" transform="translate(106.531 72.993)">
          <g id="Grupo_959436" data-name="Grupo 959436">
            <path id="Trazado_654574" data-name="Trazado 654574" d="M1186.8,2884.182c-.1.035-.923-2.034-2.075-4.525s-2.184-4.465-2.1-4.515a5.6,5.6,0,0,1,.8,1.225c.45.784,1.032,1.89,1.61,3.142s1.041,2.413,1.345,3.265A5.668,5.668,0,0,1,1186.8,2884.182Z" transform="translate(-1182.629 -2875.141)" fill="#fafafa"/>
          </g>
        </g>
        <g id="Grupo_959439" data-name="Grupo 959439" transform="translate(120.134 72.783)">
          <g id="Grupo_959438" data-name="Grupo 959438">
            <path id="Trazado_654575" data-name="Trazado 654575" d="M1205.983,2874.924a79.773,79.773,0,0,1-8.967,5.589,79.537,79.537,0,0,1,8.967-5.589Z" transform="translate(-1197.015 -2874.92)" fill="#fafafa"/>
          </g>
        </g>
        <g id="Grupo_959441" data-name="Grupo 959441" transform="translate(120.673 58.928)">
          <g id="Grupo_959440" data-name="Grupo 959440">
            <path id="Trazado_654576" data-name="Trazado 654576" d="M1198.03,2867.469a36.993,36.993,0,0,1-.376-7.2,36.99,36.99,0,0,1,.376,7.2Z" transform="translate(-1197.585 -2860.267)" fill="#fafafa"/>
          </g>
        </g>
        <g id="Grupo_959443" data-name="Grupo 959443" transform="translate(133.039 60.858)">
          <g id="Grupo_959442" data-name="Grupo 959442">
            <path id="Trazado_654577" data-name="Trazado 654577" d="M1217.106,2866.294a40.953,40.953,0,0,1-6.443-3.979,40.9,40.9,0,0,1,6.443,3.979Z" transform="translate(-1210.662 -2862.309)" fill="#fafafa"/>
          </g>
        </g>
        <g id="Grupo_959445" data-name="Grupo 959445" transform="translate(111.402 92.064)">
          <g id="Grupo_959444" data-name="Grupo 959444">
            <path id="Trazado_654578" data-name="Trazado 654578" d="M1187.787,2904.513a71.488,71.488,0,0,1,3.972-9.2,71.415,71.415,0,0,1-3.972,9.2Z" transform="translate(-1187.78 -2895.31)" fill="#fafafa"/>
          </g>
        </g>
        <g id="Grupo_959447" data-name="Grupo 959447" transform="translate(100.237 103.578)">
          <g id="Grupo_959446" data-name="Grupo 959446">
            <path id="Trazado_654579" data-name="Trazado 654579" d="M1178.967,2913.458a31.753,31.753,0,0,1-2.985-5.97,31.734,31.734,0,0,1,2.985,5.97Z" transform="translate(-1175.973 -2907.486)" fill="#fafafa"/>
          </g>
        </g>
        <g id="Grupo_959449" data-name="Grupo 959449" transform="translate(103.017 120.675)">
          <g id="Grupo_959448" data-name="Grupo 959448">
            <path id="Trazado_654580" data-name="Trazado 654580" d="M1185.964,2925.583a16.318,16.318,0,0,1-7.052.994c0-.1,1.591-.179,3.532-.456S1185.937,2925.484,1185.964,2925.583Z" transform="translate(-1178.913 -2925.566)" fill="#fafafa"/>
          </g>
        </g>
        <g id="Grupo_959451" data-name="Grupo 959451" transform="translate(118.836 102.086)">
          <g id="Grupo_959450" data-name="Grupo 959450">
            <path id="Trazado_654581" data-name="Trazado 654581" d="M1195.651,2912.327a34.631,34.631,0,0,1,2.718-6.419,34.684,34.684,0,0,1-2.718,6.419Z" transform="translate(-1195.642 -2905.907)" fill="#fafafa"/>
          </g>
        </g>
        <g id="Grupo_959453" data-name="Grupo 959453" transform="translate(92.554 128.537)">
          <g id="Grupo_959452" data-name="Grupo 959452">
            <path id="Trazado_654582" data-name="Trazado 654582" d="M1172.8,2939.6c-.085.058-1.078-1.315-2.443-2.886s-2.577-2.756-2.508-2.832a18.355,18.355,0,0,1,4.951,5.718Z" transform="translate(-1167.848 -2933.88)" fill="#fafafa"/>
          </g>
        </g>
        <g id="Grupo_959455" data-name="Grupo 959455" transform="translate(89.798 106.566)">
          <g id="Grupo_959454" data-name="Grupo 959454">
            <path id="Trazado_654583" data-name="Trazado 654583" d="M1168.776,2910.647a41.484,41.484,0,0,1-3.836,6.61,41.621,41.621,0,0,1,3.836-6.61Z" transform="translate(-1164.934 -2910.646)" fill="#fafafa"/>
          </g>
        </g>
        <g id="Grupo_959457" data-name="Grupo 959457" transform="translate(88.933 95.085)">
          <g id="Grupo_959456" data-name="Grupo 959456">
            <path id="Trazado_654584" data-name="Trazado 654584" d="M1171.48,2900.445a42.374,42.374,0,0,1-7.461-1.926,42.206,42.206,0,0,1,7.461,1.926Z" transform="translate(-1164.019 -2898.504)" fill="#fafafa"/>
          </g>
        </g>
        <g id="Grupo_959459" data-name="Grupo 959459" transform="translate(96.229 77.459)">
          <g id="Grupo_959458" data-name="Grupo 959458">
            <path id="Trazado_654585" data-name="Trazado 654585" d="M1171.741,2879.866a78.152,78.152,0,0,1,3.877,5.589,21,21,0,0,1-3.877-5.589Z" transform="translate(-1171.734 -2879.864)" fill="#fafafa"/>
          </g>
        </g>
        <g id="Grupo_959461" data-name="Grupo 959461" transform="translate(85.105 76.498)">
          <g id="Grupo_959460" data-name="Grupo 959460">
            <path id="Trazado_654586" data-name="Trazado 654586" d="M1164.878,2878.852a30.155,30.155,0,0,1-4.9,4.265,30.141,30.141,0,0,1,4.9-4.265Z" transform="translate(-1159.971 -2878.848)" fill="#fafafa"/>
          </g>
        </g>
        <g id="Grupo_959463" data-name="Grupo 959463" transform="translate(89.327 59.685)">
          <g id="Grupo_959462" data-name="Grupo 959462">
            <path id="Trazado_654587" data-name="Trazado 654587" d="M1170.034,2867.64a22.126,22.126,0,0,1-5.594-6.571c.086-.057,1.2,1.525,2.741,3.333S1170.1,2867.564,1170.034,2867.64Z" transform="translate(-1164.435 -2861.068)" fill="#fafafa"/>
          </g>
        </g>
        <g id="Grupo_959465" data-name="Grupo 959465" transform="translate(104.519 63.09)">
          <g id="Grupo_959464" data-name="Grupo 959464">
            <path id="Trazado_654588" data-name="Trazado 654588" d="M1188.178,2864.681a45.91,45.91,0,0,1-7.676,2.344,45.729,45.729,0,0,1,7.676-2.344Z" transform="translate(-1180.502 -2864.669)" fill="#fafafa"/>
          </g>
        </g>
        <g id="Grupo_959467" data-name="Grupo 959467" transform="translate(87.012 39.83)">
          <g id="Grupo_959466" data-name="Grupo 959466">
            <path id="Trazado_654589" data-name="Trazado 654589" d="M1162.855,2846.895c-.105-.007-.058-1.551-.3-3.428s-.655-3.364-.555-3.4a12.524,12.524,0,0,1,.853,6.823Z" transform="translate(-1161.987 -2840.071)" fill="#fafafa"/>
          </g>
        </g>
        <g id="Grupo_959469" data-name="Grupo 959469" transform="translate(61.918 95.617)">
          <g id="Grupo_959468" data-name="Grupo 959468">
            <path id="Trazado_654590" data-name="Trazado 654590" d="M1146.044,2899.07a13.107,13.107,0,0,1-1.591,1.173c-1,.7-2.361,1.682-3.822,2.827s-2.741,2.236-3.66,3.036a13.028,13.028,0,0,1-1.519,1.265,9.543,9.543,0,0,1,1.351-1.449,48.157,48.157,0,0,1,7.512-5.887A9.512,9.512,0,0,1,1146.044,2899.07Z" transform="translate(-1135.451 -2899.067)" fill="#fafafa"/>
          </g>
        </g>
        <g id="Grupo_959471" data-name="Grupo 959471" transform="translate(65.938 82.725)">
          <g id="Grupo_959470" data-name="Grupo 959470">
            <path id="Trazado_654591" data-name="Trazado 654591" d="M1145.388,2892.906c-.089.054-1.226-1.715-2.8-3.771s-2.964-3.63-2.889-3.7a4.952,4.952,0,0,1,1.017.939,32.69,32.69,0,0,1,4.033,5.3A4.956,4.956,0,0,1,1145.388,2892.906Z" transform="translate(-1139.701 -2885.433)" fill="#fafafa"/>
          </g>
        </g>
        <g id="Grupo_959473" data-name="Grupo 959473" transform="translate(69.119 68.848)">
          <g id="Grupo_959472" data-name="Grupo 959472">
            <path id="Trazado_654592" data-name="Trazado 654592" d="M1149.686,2870.765a40.735,40.735,0,0,1-6.62,3.656,40.626,40.626,0,0,1,6.62-3.656Z" transform="translate(-1143.065 -2870.758)" fill="#fafafa"/>
          </g>
        </g>
        <g id="Grupo_959475" data-name="Grupo 959475" transform="translate(65.34 51.827)">
          <g id="Grupo_959474" data-name="Grupo 959474">
            <path id="Trazado_654593" data-name="Trazado 654593" d="M1145.4,2860.467a5.246,5.246,0,0,1-1.157-.912,24.971,24.971,0,0,1-2.441-2.583,25.262,25.262,0,0,1-2.057-2.9,5.272,5.272,0,0,1-.668-1.313c.093-.054,1.246,1.867,3,3.99S1145.466,2860.387,1145.4,2860.467Z" transform="translate(-1139.069 -2852.758)" fill="#fafafa"/>
          </g>
        </g>
        <g id="Grupo_959477" data-name="Grupo 959477" transform="translate(78.668 53.584)">
          <g id="Grupo_959476" data-name="Grupo 959476">
            <path id="Trazado_654594" data-name="Trazado 654594" d="M1153.172,2860.372a29.132,29.132,0,0,1,2.8-5.755,29.33,29.33,0,0,1-2.8,5.755Z" transform="translate(-1153.164 -2854.616)" fill="#fafafa"/>
          </g>
        </g>
        <g id="Grupo_959479" data-name="Grupo 959479" transform="translate(75.365 39.512)">
          <g id="Grupo_959478" data-name="Grupo 959478">
            <path id="Trazado_654595" data-name="Trazado 654595" d="M1151.111,2848.9c-.11,0,.012-2.1-.391-4.63-.388-2.536-1.142-4.493-1.04-4.53a4.378,4.378,0,0,1,.573,1.253,18,18,0,0,1,1.022,6.54A4.409,4.409,0,0,1,1151.111,2848.9Z" transform="translate(-1149.67 -2839.735)" fill="#fafafa"/>
          </g>
        </g>
        <g id="Grupo_959481" data-name="Grupo 959481" transform="translate(78.184 89.042)">
          <g id="Grupo_959480" data-name="Grupo 959480">
            <path id="Trazado_654596" data-name="Trazado 654596" d="M1153,2905.563a13.2,13.2,0,0,1,.026-1.977c.042-1.217.078-2.9.032-4.754s-.166-3.534-.268-4.747a13.248,13.248,0,0,1-.125-1.972,9.45,9.45,0,0,1,.372,1.945,45.044,45.044,0,0,1,.238,9.543A9.526,9.526,0,0,1,1153,2905.563Z" transform="translate(-1152.651 -2892.113)" fill="#fafafa"/>
          </g>
        </g>
        <g id="Grupo_959483" data-name="Grupo 959483" transform="translate(71.061 115.145)">
          <g id="Grupo_959482" data-name="Grupo 959482">
            <path id="Trazado_654597" data-name="Trazado 654597" d="M1151.567,2923.844a17.658,17.658,0,0,0-6.448-4.113,9.863,9.863,0,0,1,6.448,4.113Z" transform="translate(-1145.119 -2919.718)" fill="#fafafa"/>
          </g>
        </g>
        <g id="Grupo_959485" data-name="Grupo 959485" transform="translate(76.522 129.67)">
          <g id="Grupo_959484" data-name="Grupo 959484">
            <path id="Trazado_654598" data-name="Trazado 654598" d="M1160.333,2935.084a80.2,80.2,0,0,1-9.438,4.884,80.274,80.274,0,0,1,9.438-4.884Z" transform="translate(-1150.894 -2935.079)" fill="#fafafa"/>
          </g>
        </g>
        <g id="Grupo_959487" data-name="Grupo 959487" transform="translate(55.625 125.386)">
          <g id="Grupo_959486" data-name="Grupo 959486">
            <path id="Trazado_654599" data-name="Trazado 654599" d="M1135.345,2939.45a86.669,86.669,0,0,1-6.547-8.9,87.048,87.048,0,0,1,6.547,8.9Z" transform="translate(-1128.795 -2930.548)" fill="#fafafa"/>
          </g>
        </g>
        <g id="Grupo_959489" data-name="Grupo 959489" transform="translate(54.652 105.631)">
          <g id="Grupo_959488" data-name="Grupo 959488">
            <path id="Trazado_654600" data-name="Trazado 654600" d="M1127.947,2919.109a5.1,5.1,0,0,1-.15-1.386c-.04-.858-.048-2.046.012-3.356s.179-2.494.3-3.344a5.121,5.121,0,0,1,.277-1.365c.1.012-.1,2.12-.223,4.726S1128.048,2919.105,1127.947,2919.109Z" transform="translate(-1127.766 -2909.657)" fill="#fafafa"/>
          </g>
        </g>
        <g id="Grupo_959491" data-name="Grupo 959491" transform="translate(39.245 141.489)">
          <g id="Grupo_959490" data-name="Grupo 959490">
            <path id="Trazado_654601" data-name="Trazado 654601" d="M1119.141,2953.954a70.926,70.926,0,0,1-7.666-6.374,70.437,70.437,0,0,1,7.666,6.374Z" transform="translate(-1111.473 -2947.577)" fill="#fafafa"/>
          </g>
        </g>
        <g id="Grupo_959493" data-name="Grupo 959493" transform="translate(51.328 136.267)">
          <g id="Grupo_959492" data-name="Grupo 959492">
            <path id="Trazado_654602" data-name="Trazado 654602" d="M1124.59,2952.648a80.072,80.072,0,0,1-.247-10.593,80.128,80.128,0,0,1,.247,10.593Z" transform="translate(-1124.251 -2942.055)" fill="#fafafa"/>
          </g>
        </g>
        <g id="Grupo_959495" data-name="Grupo 959495" transform="translate(45.589 164.659)">
          <g id="Grupo_959494" data-name="Grupo 959494">
            <path id="Trazado_654603" data-name="Trazado 654603" d="M1133.649,2974.618c-.023.052-.843-.281-2.2-.715a31.673,31.673,0,0,0-10.958-1.5c-1.423.053-2.3.155-2.31.1a2.148,2.148,0,0,1,.609-.143c.394-.074.971-.146,1.687-.2a26.474,26.474,0,0,1,11.052,1.51c.673.249,1.21.473,1.571.649A2.121,2.121,0,0,1,1133.649,2974.618Z" transform="translate(-1118.182 -2972.08)" fill="#fafafa"/>
          </g>
        </g>
        <g id="Grupo_959497" data-name="Grupo 959497" transform="translate(68.788 170.905)">
          <g id="Grupo_959496" data-name="Grupo 959496">
            <path id="Trazado_654604" data-name="Trazado 654604" d="M1142.717,2978.687a8.178,8.178,0,0,1,1.521,1.052,38.114,38.114,0,0,1,6.3,6.3,8.182,8.182,0,0,1,1.052,1.521,11.713,11.713,0,0,1-1.245-1.363c-.747-.856-1.8-2.021-3.022-3.245s-2.39-2.275-3.245-3.022A11.72,11.72,0,0,1,1142.717,2978.687Z" transform="translate(-1142.716 -2978.685)" fill="#fafafa"/>
          </g>
        </g>
        <g id="Grupo_959499" data-name="Grupo 959499" transform="translate(68.975 127.717)">
          <g id="Grupo_959498" data-name="Grupo 959498">
            <path id="Trazado_654605" data-name="Trazado 654605" d="M1146.095,2941.02a52.737,52.737,0,0,1-3.173-8.006,52.811,52.811,0,0,1,3.173,8.006Z" transform="translate(-1142.913 -2933.013)" fill="#fafafa"/>
          </g>
        </g>
        <g id="Grupo_959501" data-name="Grupo 959501" transform="translate(36.442 67.278)">
          <g id="Grupo_959500" data-name="Grupo 959500">
            <path id="Trazado_654606" data-name="Trazado 654606" d="M1117.1,2869.1a5.488,5.488,0,0,1-1.033,1.126,22.909,22.909,0,0,1-6.118,4.078,5.45,5.45,0,0,1-1.437.52c-.043-.1,2.1-1.016,4.466-2.605S1117.021,2869.021,1117.1,2869.1Z" transform="translate(-1108.508 -2869.097)" fill="#fafafa"/>
          </g>
        </g>
        <g id="Grupo_959503" data-name="Grupo 959503" transform="translate(46.672 54.113)">
          <g id="Grupo_959502" data-name="Grupo 959502">
            <path id="Trazado_654607" data-name="Trazado 654607" d="M1119.411,2861.186a25.859,25.859,0,0,1,.285-6.011,25.877,25.877,0,0,1-.285,6.011Z" transform="translate(-1119.327 -2855.175)" fill="#fafafa"/>
          </g>
        </g>
        <g id="Grupo_959505" data-name="Grupo 959505" transform="translate(26.423 62.978)">
          <g id="Grupo_959504" data-name="Grupo 959504">
            <path id="Trazado_654608" data-name="Trazado 654608" d="M1104.784,2867.708a40.7,40.7,0,0,1-6.87-3.149,40.637,40.637,0,0,1,6.87,3.149Z" transform="translate(-1097.913 -2864.551)" fill="#fafafa"/>
          </g>
        </g>
        <g id="Grupo_959507" data-name="Grupo 959507" transform="translate(57.281 49.531)">
          <g id="Grupo_959506" data-name="Grupo 959506">
            <path id="Trazado_654609" data-name="Trazado 654609" d="M1130.6,2857.773a39.565,39.565,0,0,1,.569-7.443,39.807,39.807,0,0,1-.569,7.443Z" transform="translate(-1130.546 -2850.33)" fill="#fafafa"/>
          </g>
        </g>
        <g id="Grupo_959509" data-name="Grupo 959509" transform="translate(18.978 76.15)">
          <g id="Grupo_959508" data-name="Grupo 959508">
            <path id="Trazado_654610" data-name="Trazado 654610" d="M1097.2,2882.778a16.433,16.433,0,0,1-7.156-4.294c.069-.08,1.505,1.129,3.483,2.308S1097.238,2882.679,1097.2,2882.778Z" transform="translate(-1090.041 -2878.48)" fill="#fafafa"/>
          </g>
        </g>
        <g id="Grupo_959511" data-name="Grupo 959511" transform="translate(10.103 66.705)">
          <g id="Grupo_959510" data-name="Grupo 959510">
            <path id="Trazado_654611" data-name="Trazado 654611" d="M1086.67,2868.494a56.434,56.434,0,0,1-6.012,6.584,56.636,56.636,0,0,1,6.012-6.584Z" transform="translate(-1080.655 -2868.492)" fill="#fafafa"/>
          </g>
        </g>
        <g id="Grupo_959513" data-name="Grupo 959513" transform="translate(9.531 50.101)">
          <g id="Grupo_959512" data-name="Grupo 959512">
            <path id="Trazado_654612" data-name="Trazado 654612" d="M1085.778,2855.23a13.662,13.662,0,0,1-5.726-4.294c.076-.072,1.209,1.069,2.788,2.247S1085.826,2855.136,1085.778,2855.23Z" transform="translate(-1080.049 -2850.933)" fill="#fafafa"/>
          </g>
        </g>
        <g id="Grupo_959515" data-name="Grupo 959515" transform="translate(5.806 56.971)">
          <g id="Grupo_959514" data-name="Grupo 959514">
            <path id="Trazado_654613" data-name="Trazado 654613" d="M1079.266,2858.2a16.931,16.931,0,0,1-3.149,3.721,17.028,17.028,0,0,1,3.149-3.721Z" transform="translate(-1076.111 -2858.198)" fill="#fafafa"/>
          </g>
        </g>
        <g id="Grupo_959517" data-name="Grupo 959517" transform="translate(16.921 34.12)">
          <g id="Grupo_959516" data-name="Grupo 959516">
            <path id="Trazado_654614" data-name="Trazado 654614" d="M1093.419,2834.035a54.585,54.585,0,0,1-5.55,6.779,54.6,54.6,0,0,1,5.55-6.779Z" transform="translate(-1087.865 -2834.033)" fill="#fafafa"/>
          </g>
        </g>
        <g id="Grupo_959519" data-name="Grupo 959519" transform="translate(5.4 30.458)">
          <g id="Grupo_959518" data-name="Grupo 959518">
            <path id="Trazado_654615" data-name="Trazado 654615" d="M1081.165,2836.424a49.1,49.1,0,0,1-5.48-6.262,49.514,49.514,0,0,1,5.48,6.262Z" transform="translate(-1075.682 -2830.16)" fill="#fafafa"/>
          </g>
        </g>
        <g id="Grupo_959521" data-name="Grupo 959521" transform="translate(12.953 15.471)">
          <g id="Grupo_959520" data-name="Grupo 959520">
            <path id="Trazado_654616" data-name="Trazado 654616" d="M1087.394,2820.9a40.763,40.763,0,0,1-3.719-6.585,40.871,40.871,0,0,1,3.719,6.585Z" transform="translate(-1083.668 -2814.311)" fill="#fafafa"/>
          </g>
        </g>
        <g id="Grupo_959523" data-name="Grupo 959523" transform="translate(16.387 6.03)">
          <g id="Grupo_959522" data-name="Grupo 959522">
            <path id="Trazado_654617" data-name="Trazado 654617" d="M1087.306,2810.891c-.085-.067.926-1.347,1.73-3.165.819-1.812,1.1-3.419,1.206-3.4a10.452,10.452,0,0,1-2.935,6.564Z" transform="translate(-1087.301 -2804.327)" fill="#fafafa"/>
          </g>
        </g>
        <g id="Grupo_959525" data-name="Grupo 959525" transform="translate(5.191 4.567)">
          <g id="Grupo_959524" data-name="Grupo 959524">
            <path id="Trazado_654618" data-name="Trazado 654618" d="M1075.507,2810.244a7.852,7.852,0,0,1,.831-4.132,9.9,9.9,0,0,1,1.65-2.512,3.253,3.253,0,0,1,.938-.818,14.036,14.036,0,0,0-3.419,7.462Z" transform="translate(-1075.46 -2802.78)" fill="#fafafa"/>
          </g>
        </g>
      </g>
      <g id="Grupo_959604" data-name="Grupo 959604" transform="translate(156.647 16.909)">
        <g id="Grupo_959527" data-name="Grupo 959527" transform="translate(12.144)">
          <path id="Trazado_654619" data-name="Trazado 654619" d="M1178.465,2792.434a42.794,42.794,0,0,1-.1-8.429,14.355,14.355,0,0,1,3.107-7.719,8.712,8.712,0,0,1,7.471-3.143c1.724.223,3.359,1.075,5.1,1.024,2.011-.06,3.761-1.3,5.589-2.136a14.659,14.659,0,0,1,9.212-.961,8.737,8.737,0,0,1,4.356,2.2,4.9,4.9,0,0,1,1.413,4.515,23.249,23.249,0,0,1,6.047.531,7.833,7.833,0,0,1,4.857,3.407,4.78,4.78,0,0,1-.506,5.638,3.886,3.886,0,0,1,4.294,2.928,5.005,5.005,0,0,1-2.025,5.026,9.352,9.352,0,0,1-6.312,1.269,13.57,13.57,0,0,1-5.557-2.043" transform="translate(-1178.191 -2770.724)" fill="#263238"/>
        </g>
        <g id="Grupo_959600" data-name="Grupo 959600" transform="translate(0 12.291)">
          <g id="Grupo_959599" data-name="Grupo 959599">
            <g id="Grupo_959540" data-name="Grupo 959540">
              <g id="Grupo_959539" data-name="Grupo 959539">
                <g id="Grupo_959538" data-name="Grupo 959538">
                  <g id="Grupo_959532" data-name="Grupo 959532">
                    <g id="Grupo_959531" data-name="Grupo 959531">
                      <g id="Grupo_959530" data-name="Grupo 959530">
                        <g id="Grupo_959529" data-name="Grupo 959529">
                          <g id="Grupo_959528" data-name="Grupo 959528">
                            <path id="Trazado_654620" data-name="Trazado 654620" d="M1176.3,2856.756h0a14.572,14.572,0,0,0,17.717-10.387c1.142-4.325,2.071-7.95,2.071-7.95s11.288,1.933,15.021-8.749,10.14-35.935,10.14-35.935h0a39.323,39.323,0,0,0-39.037-7.865l-2,.69-14.337,52.22A14.574,14.574,0,0,0,1176.3,2856.756Z" transform="translate(-1165.348 -2783.722)" fill="#b78876"/>
                          </g>
                        </g>
                      </g>
                    </g>
                  </g>
                  <g id="Grupo_959537" data-name="Grupo 959537" transform="translate(18.159 45.881)">
                    <g id="Grupo_959536" data-name="Grupo 959536">
                      <g id="Grupo_959535" data-name="Grupo 959535">
                        <g id="Grupo_959534" data-name="Grupo 959534">
                          <g id="Grupo_959533" data-name="Grupo 959533">
                            <path id="Trazado_654621" data-name="Trazado 654621" d="M1197.2,2840.909a26.311,26.311,0,0,1-12.649-8.667s.714,8.829,11.742,11.455Z" transform="translate(-1184.551 -2832.242)" fill="#aa6550"/>
                          </g>
                        </g>
                      </g>
                    </g>
                  </g>
                </g>
              </g>
            </g>
            <g id="Grupo_959552" data-name="Grupo 959552" transform="translate(3.193 12.905)">
              <g id="Grupo_959545" data-name="Grupo 959545">
                <g id="Grupo_959544" data-name="Grupo 959544">
                  <g id="Grupo_959543" data-name="Grupo 959543">
                    <g id="Grupo_959542" data-name="Grupo 959542">
                      <g id="Grupo_959541" data-name="Grupo 959541">
                        <path id="Trazado_654622" data-name="Trazado 654622" d="M1177.985,2798.857c-.156-.141-6.638-4.653-8.865,2.759s5.674,8.119,5.75,7.91S1177.985,2798.857,1177.985,2798.857Z" transform="translate(-1168.725 -2797.369)" fill="#b78876"/>
                      </g>
                    </g>
                  </g>
                </g>
              </g>
              <g id="Grupo_959551" data-name="Grupo 959551" transform="translate(2.048 2.331)">
                <g id="Grupo_959550" data-name="Grupo 959550">
                  <g id="Grupo_959549" data-name="Grupo 959549">
                    <g id="Grupo_959548" data-name="Grupo 959548">
                      <g id="Grupo_959547" data-name="Grupo 959547">
                        <g id="Grupo_959546" data-name="Grupo 959546">
                          <path id="Trazado_654623" data-name="Trazado 654623" d="M1173.568,2806.171c-.026-.033-.157.052-.4.086a1.349,1.349,0,0,1-.971-.271c-.7-.522-.982-1.963-.616-3.311a4.455,4.455,0,0,1,.916-1.74,1.559,1.559,0,0,1,1.269-.7.687.687,0,0,1,.656.583c.037.237-.055.371-.019.4.015.026.2-.075.228-.4a.856.856,0,0,0-.151-.552,1.022,1.022,0,0,0-.658-.4,1.893,1.893,0,0,0-1.694.743,4.592,4.592,0,0,0-1.069,1.932c-.4,1.507-.057,3.135.922,3.767a1.446,1.446,0,0,0,1.24.159C1173.5,2806.346,1173.59,2806.192,1173.568,2806.171Z" transform="translate(-1170.891 -2799.833)" fill="#aa6550"/>
                        </g>
                      </g>
                    </g>
                  </g>
                </g>
              </g>
            </g>
            <g id="Grupo_959598" data-name="Grupo 959598" transform="translate(26.468 16.441)">
              <g id="Grupo_959597" data-name="Grupo 959597">
                <g id="Grupo_959591" data-name="Grupo 959591">
                  <g id="Grupo_959590" data-name="Grupo 959590">
                    <g id="Grupo_959589" data-name="Grupo 959589">
                      <g id="Grupo_959564" data-name="Grupo 959564" transform="translate(16.306 5.131)">
                        <g id="Grupo_959557" data-name="Grupo 959557" transform="translate(0.857 1.91)">
                          <g id="Grupo_959556" data-name="Grupo 959556">
                            <g id="Grupo_959555" data-name="Grupo 959555">
                              <g id="Grupo_959554" data-name="Grupo 959554">
                                <g id="Grupo_959553" data-name="Grupo 959553">
                                  <path id="Trazado_654624" data-name="Trazado 654624" d="M1214.661,2810.53a1.617,1.617,0,0,1-2,1.05,1.546,1.546,0,0,1-1.115-1.911,1.616,1.616,0,0,1,1.994-1.051A1.547,1.547,0,0,1,1214.661,2810.53Z" transform="translate(-1211.488 -2808.555)" fill="#263238"/>
                                </g>
                              </g>
                            </g>
                          </g>
                        </g>
                        <g id="Grupo_959563" data-name="Grupo 959563">
                          <g id="Grupo_959562" data-name="Grupo 959562">
                            <g id="Grupo_959561" data-name="Grupo 959561">
                              <g id="Grupo_959560" data-name="Grupo 959560">
                                <g id="Grupo_959559" data-name="Grupo 959559">
                                  <g id="Grupo_959558" data-name="Grupo 959558">
                                    <path id="Trazado_654625" data-name="Trazado 654625" d="M1216.613,2809.384c-.257.136-1.129-1.112-2.779-1.662-1.64-.571-3.135-.129-3.245-.391-.058-.119.256-.414.911-.621a4.436,4.436,0,0,1,2.682.067,4.254,4.254,0,0,1,2.128,1.572C1216.686,2808.907,1216.736,2809.326,1216.613,2809.384Z" transform="translate(-1210.582 -2806.535)" fill="#263238"/>
                                  </g>
                                </g>
                              </g>
                            </g>
                          </g>
                        </g>
                      </g>
                      <g id="Grupo_959576" data-name="Grupo 959576">
                        <g id="Grupo_959569" data-name="Grupo 959569" transform="translate(0.961 1.603)">
                          <g id="Grupo_959568" data-name="Grupo 959568">
                            <g id="Grupo_959567" data-name="Grupo 959567">
                              <g id="Grupo_959566" data-name="Grupo 959566">
                                <g id="Grupo_959565" data-name="Grupo 959565">
                                  <path id="Trazado_654626" data-name="Trazado 654626" d="M1197.526,2804.778a1.616,1.616,0,0,1-2,1.05,1.545,1.545,0,0,1-1.115-1.911,1.617,1.617,0,0,1,1.994-1.051A1.547,1.547,0,0,1,1197.526,2804.778Z" transform="translate(-1194.354 -2802.804)" fill="#263238"/>
                                </g>
                              </g>
                            </g>
                          </g>
                        </g>
                        <g id="Grupo_959575" data-name="Grupo 959575">
                          <g id="Grupo_959574" data-name="Grupo 959574">
                            <g id="Grupo_959573" data-name="Grupo 959573">
                              <g id="Grupo_959572" data-name="Grupo 959572">
                                <g id="Grupo_959571" data-name="Grupo 959571">
                                  <g id="Grupo_959570" data-name="Grupo 959570">
                                    <path id="Trazado_654627" data-name="Trazado 654627" d="M1199.37,2803.958c-.257.136-1.131-1.113-2.78-1.662-1.64-.571-3.134-.129-3.245-.392-.057-.119.255-.415.913-.621a4.439,4.439,0,0,1,2.681.066,4.258,4.258,0,0,1,2.129,1.573C1199.441,2803.48,1199.493,2803.9,1199.37,2803.958Z" transform="translate(-1193.338 -2801.109)" fill="#263238"/>
                                  </g>
                                </g>
                              </g>
                            </g>
                          </g>
                        </g>
                      </g>
                      <g id="Grupo_959582" data-name="Grupo 959582" transform="translate(7.91 3.096)">
                        <g id="Grupo_959581" data-name="Grupo 959581">
                          <g id="Grupo_959580" data-name="Grupo 959580">
                            <g id="Grupo_959579" data-name="Grupo 959579">
                              <g id="Grupo_959578" data-name="Grupo 959578">
                                <g id="Grupo_959577" data-name="Grupo 959577">
                                  <path id="Trazado_654628" data-name="Trazado 654628" d="M1201.7,2818.368a11.544,11.544,0,0,1,2.839.416c.436.1.862.147,1.03-.115a2.259,2.259,0,0,0,.137-1.342q-.081-1.728-.168-3.623c-.2-5.143-.189-9.315.018-9.322s.535,4.158.732,9.3c.038,1.265.077,2.471.111,3.625a2.574,2.574,0,0,1-.337,1.725,1.112,1.112,0,0,1-.9.384,3.006,3.006,0,0,1-.748-.141A11.265,11.265,0,0,1,1201.7,2818.368Z" transform="translate(-1201.703 -2804.382)" fill="#263238"/>
                                </g>
                              </g>
                            </g>
                          </g>
                        </g>
                      </g>
                      <g id="Grupo_959588" data-name="Grupo 959588" transform="translate(1.935 16.589)">
                        <g id="Grupo_959587" data-name="Grupo 959587">
                          <g id="Grupo_959586" data-name="Grupo 959586">
                            <g id="Grupo_959585" data-name="Grupo 959585">
                              <g id="Grupo_959584" data-name="Grupo 959584">
                                <g id="Grupo_959583" data-name="Grupo 959583">
                                  <path id="Trazado_654629" data-name="Trazado 654629" d="M1196.126,2818.656c.273.075-.323,1.865.781,3.649s3.076,2.226,3.006,2.481c-.013.12-.542.205-1.354-.043a4.7,4.7,0,0,1-2.543-1.97,4.087,4.087,0,0,1-.54-3.021C1195.659,2818.981,1196.007,2818.6,1196.126,2818.656Z" transform="translate(-1195.384 -2818.651)" fill="#263238"/>
                                </g>
                              </g>
                            </g>
                          </g>
                        </g>
                      </g>
                    </g>
                  </g>
                </g>
                <g id="Grupo_959596" data-name="Grupo 959596" transform="translate(17.178 1.976)">
                  <g id="Grupo_959595" data-name="Grupo 959595">
                    <g id="Grupo_959594" data-name="Grupo 959594">
                      <g id="Grupo_959593" data-name="Grupo 959593">
                        <g id="Grupo_959592" data-name="Grupo 959592">
                          <path id="Trazado_654630" data-name="Trazado 654630" d="M1217.031,2806.1c-.416.276-1.421-.493-2.78-.969-1.343-.525-2.606-.6-2.741-1.076-.052-.229.255-.543.879-.728a4.264,4.264,0,0,1,4.448,1.648C1217.191,2805.521,1217.22,2805.959,1217.031,2806.1Z" transform="translate(-1211.504 -2803.198)" fill="#263238"/>
                        </g>
                      </g>
                    </g>
                  </g>
                </g>
              </g>
            </g>
          </g>
        </g>
        <g id="Grupo_959602" data-name="Grupo 959602" transform="translate(26.017 21.379)">
          <g id="Grupo_959601" data-name="Grupo 959601">
            <path id="Trazado_654631" data-name="Trazado 654631" d="M1199.2,2796.857c-.253.139-.648-.084-1.16-.375a10.861,10.861,0,0,0-4.04-1.505c-.578-.115-1.022-.2-1.123-.475-.1-.249.221-.667.954-.946a4.567,4.567,0,0,1,5.265,1.962C1199.469,2796.208,1199.435,2796.732,1199.2,2796.857Z" transform="translate(-1192.861 -2793.333)" fill="#263238"/>
          </g>
        </g>
        <g id="Grupo_959603" data-name="Grupo 959603" transform="translate(10.661 9.862)">
          <path id="Trazado_654632" data-name="Trazado 654632" d="M1221.287,2797.07a26.566,26.566,0,0,1-15.379-6.047c-4.849-3.971-10.921-6.751-12.577-5.971s-3.23,6.348-9.021,6.764c0,0-2.068,10.836-6.268,9.48s2.259-17.4,2.259-17.4l11.65-2.741,11.935.436,10.721,2.433,9.273,5.327Z" transform="translate(-1176.622 -2781.153)" fill="#263238"/>
        </g>
      </g>
      <g id="Grupo_959669" data-name="Grupo 959669">
        <g id="Grupo_959608" data-name="Grupo 959608">
          <g id="Grupo_959605" data-name="Grupo 959605" transform="translate(0.176 0.176)">
            <rect id="Rectángulo_340178" data-name="Rectángulo 340178" width="151.63" height="236.118" fill="#fafafa"/>
          </g>
          <g id="Grupo_959607" data-name="Grupo 959607">
            <g id="Grupo_959606" data-name="Grupo 959606">
              <path id="Trazado_654633" data-name="Trazado 654633" d="M1151.5,2989.137c0-1.454-.066-97.345-.162-236.118l.162.163-151.611.013h-.019l.176-.176c-.013,89.327-.026,171.589-.036,236.118l-.14-.139,151.63.139-151.63.139h-.139v-.139c-.009-64.529-.023-146.791-.037-236.118v-.176h.195l151.611.014h.163v.162C1151.564,2891.792,1151.5,2987.684,1151.5,2989.137Z" transform="translate(-999.691 -2752.843)" fill="#263238"/>
            </g>
          </g>
        </g>
        <g id="Grupo_959634" data-name="Grupo 959634" transform="translate(18.984 21.047)">
          <g id="Grupo_959621" data-name="Grupo 959621">
            <g id="Grupo_959611" data-name="Grupo 959611">
              <g id="Grupo_959610" data-name="Grupo 959610">
                <g id="Grupo_959609" data-name="Grupo 959609">
                  <path id="Trazado_654634" data-name="Trazado 654634" d="M1041.6,2806.808h-19.4a2.427,2.427,0,0,1-2.427-2.427v-26.854a2.427,2.427,0,0,1,2.427-2.427h12.3l9.524,9.816v19.464A2.427,2.427,0,0,1,1041.6,2806.808Z" transform="translate(-1019.767 -2775.1)" fill="#ff4812"/>
                </g>
              </g>
            </g>
            <g id="Grupo_959614" data-name="Grupo 959614" transform="translate(14.732)">
              <g id="Grupo_959613" data-name="Grupo 959613">
                <g id="Grupo_959612" data-name="Grupo 959612">
                  <path id="Trazado_654635" data-name="Trazado 654635" d="M1035.346,2775.1v7.557a2.258,2.258,0,0,0,2.257,2.258h7.267Z" transform="translate(-1035.346 -2775.1)" fill="#ff4812"/>
                </g>
              </g>
            </g>
            <g id="Grupo_959617" data-name="Grupo 959617" transform="translate(14.83 8.22)" opacity="0.2">
              <g id="Grupo_959616" data-name="Grupo 959616">
                <g id="Grupo_959615" data-name="Grupo 959615">
                  <path id="Trazado_654636" data-name="Trazado 654636" d="M1035.451,2783.793a2.51,2.51,0,0,0,1.991,2.436,2.291,2.291,0,0,0,.238.054c.949.169,7.2,1.28,7.2,1.137v-2.031h-7.267S1035.8,2785.327,1035.451,2783.793Z" transform="translate(-1035.45 -2783.793)"/>
                </g>
              </g>
            </g>
            <g id="Grupo_959620" data-name="Grupo 959620" transform="translate(14.732)" opacity="0.3">
              <g id="Grupo_959619" data-name="Grupo 959619">
                <g id="Grupo_959618" data-name="Grupo 959618">
                  <path id="Trazado_654637" data-name="Trazado 654637" d="M1035.346,2775.1v7.557a2.258,2.258,0,0,0,2.257,2.258h7.267Z" transform="translate(-1035.346 -2775.1)" fill="#fff"/>
                </g>
              </g>
            </g>
          </g>
          <g id="Grupo_959623" data-name="Grupo 959623" transform="translate(4.129 7.073)">
            <g id="Grupo_959622" data-name="Grupo 959622">
              <path id="Trazado_654638" data-name="Trazado 654638" d="M1033.11,2782.756a57.377,57.377,0,0,1-8.976,0,57.377,57.377,0,0,1,8.976,0Z" transform="translate(-1024.134 -2782.58)" fill="#fafafa"/>
            </g>
          </g>
          <g id="Grupo_959625" data-name="Grupo 959625" transform="translate(4.129 11.346)">
            <g id="Grupo_959624" data-name="Grupo 959624">
              <path id="Trazado_654639" data-name="Trazado 654639" d="M1038.906,2787.275c0,.1-3.308.176-7.386.176s-7.386-.079-7.386-.176,3.306-.176,7.386-.176S1038.906,2787.177,1038.906,2787.275Z" transform="translate(-1024.134 -2787.099)" fill="#fafafa"/>
            </g>
          </g>
          <g id="Grupo_959627" data-name="Grupo 959627" transform="translate(4.129 14.914)">
            <g id="Grupo_959626" data-name="Grupo 959626">
              <path id="Trazado_654640" data-name="Trazado 654640" d="M1040.237,2791.048c0,.1-3.606.176-8.051.176s-8.052-.079-8.052-.176,3.6-.176,8.052-.176S1040.237,2790.952,1040.237,2791.048Z" transform="translate(-1024.134 -2790.872)" fill="#fafafa"/>
            </g>
          </g>
          <g id="Grupo_959629" data-name="Grupo 959629" transform="translate(4.129 18.28)">
            <g id="Grupo_959628" data-name="Grupo 959628">
              <path id="Trazado_654641" data-name="Trazado 654641" d="M1040.237,2794.608c0,.1-3.606.176-8.051.176s-8.052-.079-8.052-.176,3.6-.176,8.052-.176S1040.237,2794.512,1040.237,2794.608Z" transform="translate(-1024.134 -2794.432)" fill="#fafafa"/>
            </g>
          </g>
          <g id="Grupo_959631" data-name="Grupo 959631" transform="translate(4.129 21.647)">
            <g id="Grupo_959630" data-name="Grupo 959630">
              <path id="Trazado_654642" data-name="Trazado 654642" d="M1040.237,2798.168c0,.1-3.606.176-8.051.176s-8.052-.078-8.052-.176,3.6-.176,8.052-.176S1040.237,2798.072,1040.237,2798.168Z" transform="translate(-1024.134 -2797.992)" fill="#fafafa"/>
            </g>
          </g>
          <g id="Grupo_959633" data-name="Grupo 959633" transform="translate(4.129 25.014)">
            <g id="Grupo_959632" data-name="Grupo 959632">
              <path id="Trazado_654643" data-name="Trazado 654643" d="M1040.237,2801.729c0,.1-3.606.176-8.051.176s-8.052-.079-8.052-.176,3.6-.176,8.052-.176S1040.237,2801.632,1040.237,2801.729Z" transform="translate(-1024.134 -2801.553)" fill="#fafafa"/>
            </g>
          </g>
        </g>
        <g id="Grupo_959635" data-name="Grupo 959635" transform="translate(140.38 14.71)">
          <path id="Rectángulo_340179" data-name="Rectángulo 340179" d="M1.3,0h0a1.3,1.3,0,0,1,1.3,1.3V196.957a1.3,1.3,0,0,1-1.3,1.3h0a1.3,1.3,0,0,1-1.3-1.3V1.3A1.3,1.3,0,0,1,1.3,0Z" fill="#e0e0e0"/>
        </g>
        <g id="Grupo_959636" data-name="Grupo 959636" transform="translate(140.38 14.71)">
          <path id="Rectángulo_340180" data-name="Rectángulo 340180" d="M1.3,0h0a1.3,1.3,0,0,1,1.3,1.3v99.616a1.3,1.3,0,0,1-1.3,1.3h0a1.3,1.3,0,0,1-1.3-1.3V1.3A1.3,1.3,0,0,1,1.3,0Z" fill="#ff4812"/>
        </g>
        <g id="Grupo_959638" data-name="Grupo 959638" transform="translate(22.11 89.156)">
          <g id="Grupo_959637" data-name="Grupo 959637">
            <path id="Trazado_654644" data-name="Trazado 654644" d="M1127.173,2847.3c0,.1-23.305.176-52.047.176s-52.053-.078-52.053-.176,23.3-.176,52.053-.176S1127.173,2847.206,1127.173,2847.3Z" transform="translate(-1023.073 -2847.127)" fill="#263238"/>
          </g>
        </g>
        <g id="Grupo_959640" data-name="Grupo 959640" transform="translate(22.11 97.034)">
          <g id="Grupo_959639" data-name="Grupo 959639">
            <path id="Trazado_654645" data-name="Trazado 654645" d="M1127.173,2855.634c0,.1-23.305.176-52.047.176s-52.053-.078-52.053-.176,23.3-.176,52.053-.176S1127.173,2855.537,1127.173,2855.634Z" transform="translate(-1023.073 -2855.458)" fill="#263238"/>
          </g>
        </g>
        <g id="Grupo_959642" data-name="Grupo 959642" transform="translate(22.11 104.912)">
          <g id="Grupo_959641" data-name="Grupo 959641">
            <path id="Trazado_654646" data-name="Trazado 654646" d="M1127.173,2863.965c0,.1-23.305.176-52.047.176s-52.053-.078-52.053-.176,23.3-.176,52.053-.176S1127.173,2863.868,1127.173,2863.965Z" transform="translate(-1023.073 -2863.789)" fill="#263238"/>
          </g>
        </g>
        <g id="Grupo_959644" data-name="Grupo 959644" transform="translate(22.11 112.79)">
          <g id="Grupo_959643" data-name="Grupo 959643">
            <path id="Trazado_654647" data-name="Trazado 654647" d="M1127.173,2872.3c0,.1-23.305.176-52.047.176s-52.053-.078-52.053-.176,23.3-.176,52.053-.176S1127.173,2872.2,1127.173,2872.3Z" transform="translate(-1023.073 -2872.12)" fill="#263238"/>
          </g>
        </g>
        <g id="Grupo_959646" data-name="Grupo 959646" transform="translate(22.11 120.667)">
          <g id="Grupo_959645" data-name="Grupo 959645">
            <path id="Trazado_654648" data-name="Trazado 654648" d="M1127.173,2880.627c0,.1-23.305.176-52.047.176s-52.053-.078-52.053-.176,23.3-.176,52.053-.176S1127.173,2880.53,1127.173,2880.627Z" transform="translate(-1023.073 -2880.451)" fill="#263238"/>
          </g>
        </g>
        <g id="Grupo_959648" data-name="Grupo 959648" transform="translate(22.11 128.545)">
          <g id="Grupo_959647" data-name="Grupo 959647">
            <path id="Trazado_654649" data-name="Trazado 654649" d="M1127.173,2888.958c0,.1-23.305.176-52.047.176s-52.053-.078-52.053-.176,23.3-.176,52.053-.176S1127.173,2888.861,1127.173,2888.958Z" transform="translate(-1023.073 -2888.782)" fill="#263238"/>
          </g>
        </g>
        <g id="Grupo_959650" data-name="Grupo 959650" transform="translate(22.11 158.468)">
          <g id="Grupo_959649" data-name="Grupo 959649">
            <path id="Trazado_654650" data-name="Trazado 654650" d="M1127.173,2920.6c0,.1-23.305.176-52.047.176s-52.053-.079-52.053-.176,23.3-.176,52.053-.176S1127.173,2920.506,1127.173,2920.6Z" transform="translate(-1023.073 -2920.426)" fill="#263238"/>
          </g>
        </g>
        <g id="Grupo_959652" data-name="Grupo 959652" transform="translate(22.11 165.206)">
          <g id="Grupo_959651" data-name="Grupo 959651">
            <path id="Trazado_654651" data-name="Trazado 654651" d="M1127.173,2927.727c0,.1-23.305.176-52.047.176s-52.053-.078-52.053-.176,23.3-.176,52.053-.176S1127.173,2927.63,1127.173,2927.727Z" transform="translate(-1023.073 -2927.551)" fill="#e0e0e0"/>
          </g>
        </g>
        <g id="Grupo_959654" data-name="Grupo 959654" transform="translate(22.11 171.943)">
          <g id="Grupo_959653" data-name="Grupo 959653">
            <path id="Trazado_654652" data-name="Trazado 654652" d="M1127.173,2934.851c0,.1-23.305.177-52.047.177s-52.053-.079-52.053-.177,23.3-.175,52.053-.175S1127.173,2934.754,1127.173,2934.851Z" transform="translate(-1023.073 -2934.676)" fill="#ebebeb"/>
          </g>
        </g>
        <g id="Grupo_959655" data-name="Grupo 959655" transform="translate(78.74 192.278)">
          <rect id="Rectángulo_340181" data-name="Rectángulo 340181" width="55.069" height="20.516" fill="#ff4812"/>
        </g>
        <g id="Grupo_959656" data-name="Grupo 959656" transform="translate(93.061 199.772)">
          <path id="Trazado_654653" data-name="Trazado 654653" d="M1102.127,2967.93h-2.711l-.56,1.275h-.751l2.309-5.1h.722l2.317,5.1h-.765Zm-.255-.583-1.1-2.5-1.1,2.5Z" transform="translate(-1098.105 -2964.105)" fill="#fff"/>
          <path id="Trazado_654654" data-name="Trazado 654654" d="M1104.035,2967.343a1.929,1.929,0,0,1,2.04-1.967,1.724,1.724,0,0,1,1.573.823l-.531.342a1.206,1.206,0,0,0-1.05-.553,1.359,1.359,0,0,0,0,2.718,1.207,1.207,0,0,0,1.05-.553l.531.335a1.727,1.727,0,0,1-1.573.83A1.935,1.935,0,0,1,1104.035,2967.343Z" transform="translate(-1098.427 -2964.174)" fill="#fff"/>
          <path id="Trazado_654655" data-name="Trazado 654655" d="M1108.37,2967.343a1.929,1.929,0,0,1,2.04-1.967,1.724,1.724,0,0,1,1.574.823l-.531.342a1.205,1.205,0,0,0-1.05-.553,1.359,1.359,0,0,0,0,2.718,1.206,1.206,0,0,0,1.05-.553l.531.335a1.728,1.728,0,0,1-1.574.83A1.935,1.935,0,0,1,1108.37,2967.343Z" transform="translate(-1098.663 -2964.174)" fill="#fff"/>
          <path id="Trazado_654656" data-name="Trazado 654656" d="M1116.538,2967.576H1113.4a1.309,1.309,0,0,0,1.4,1.129,1.446,1.446,0,0,0,1.116-.466l.386.451a2.1,2.1,0,0,1-3.6-1.348,1.89,1.89,0,0,1,1.938-1.967,1.862,1.862,0,0,1,1.909,1.99C1116.553,2967.423,1116.545,2967.511,1116.538,2967.576Zm-3.133-.5h2.478a1.247,1.247,0,0,0-2.478,0Z" transform="translate(-1098.899 -2964.174)" fill="#fff"/>
          <path id="Trazado_654657" data-name="Trazado 654657" d="M1121.8,2967.343a1.876,1.876,0,0,1-1.953,1.975,1.644,1.644,0,0,1-1.346-.627v2h-.7v-5.274h.67v.613a1.642,1.642,0,0,1,1.376-.649A1.874,1.874,0,0,1,1121.8,2967.343Zm-.706,0a1.3,1.3,0,1,0-1.3,1.363A1.276,1.276,0,0,0,1121.089,2967.343Z" transform="translate(-1099.176 -2964.174)" fill="#fff"/>
          <path id="Trazado_654658" data-name="Trazado 654658" d="M1125.186,2969a1.316,1.316,0,0,1-.844.269,1.1,1.1,0,0,1-1.224-1.209v-2.12h-.655v-.576h.655v-.844h.7v.844h1.107v.576h-1.107v2.091a.569.569,0,0,0,.6.649.877.877,0,0,0,.547-.182Z" transform="translate(-1099.43 -2964.128)" fill="#fff"/>
        </g>
        <g id="Grupo_959668" data-name="Grupo 959668" transform="translate(17.221 190.525)">
          <g id="Grupo_959658" data-name="Grupo 959658" transform="translate(0.083)">
            <g id="Grupo_959657" data-name="Grupo 959657">
              <path id="Trazado_654659" data-name="Trazado 654659" d="M1020.22,2976.761a.851.851,0,0,1-.132-.092l-.4-.3-1.637-1.288-.064-.05.077-.029c6.645-2.548,28.319-10.678,55.024-20.636l.094-.035.078.063,2.136,1.719.065.052v.084c0,1.8,0,3.724,0,5.663,0,5.107,0,10.086,0,14.853v.172h-.172l-39.373-.064-11.539-.051-3.092-.028-.8-.015c-.179,0-.267-.014-.267-.014s.1-.01.277-.015l.807-.014,3.109-.028,11.555-.051,39.32-.064-.172.172c0-4.767,0-9.745,0-14.853,0-1.939,0-3.861,0-5.663l.065.136-2.136-1.719.17.028c-26.712,9.942-48.422,17.975-55.113,20.4l.012-.08,1.6,1.316.385.324A1.049,1.049,0,0,1,1020.22,2976.761Z" transform="translate(-1017.99 -2954.327)" fill="#ff4812"/>
            </g>
          </g>
          <g id="Grupo_959662" data-name="Grupo 959662" transform="translate(0 0.023)">
            <g id="Grupo_959659" data-name="Grupo 959659" transform="translate(0.176 0.176)">
              <rect id="Rectángulo_340182" data-name="Rectángulo 340182" width="55.069" height="20.516" fill="#fff"/>
            </g>
            <g id="Grupo_959661" data-name="Grupo 959661">
              <g id="Grupo_959660" data-name="Grupo 959660">
                <path id="Trazado_654660" data-name="Trazado 654660" d="M1073.147,2975.043s-.008-.129-.012-.37l-.013-1.061c-.006-.942-.017-2.309-.029-4.07-.015-3.537-.038-8.649-.065-15.015l.12.12-55.066.056h0l.176-.176c0,7.161,0,14.09-.007,20.516l-.169-.169,39.42.079,11.485.047,3.084.022.8.01c.181,0,.279.01.279.01s-.084.007-.258.01l-.781.01-3.049.022-11.447.047-39.535.08h-.168v-.169c0-6.426,0-13.355-.008-20.516v-.176h.18l55.066.056h.12v.12c-.028,6.4-.05,11.535-.065,15.088-.013,1.749-.023,3.107-.03,4.042l-.012,1.04C1073.155,2974.93,1073.147,2975.043,1073.147,2975.043Z" transform="translate(-1017.902 -2954.351)" fill="#ff4812"/>
              </g>
            </g>
          </g>
          <g id="Grupo_959663" data-name="Grupo 959663" transform="translate(15.269 8.593)">
            <path id="Trazado_654661" data-name="Trazado 654661" d="M1034.049,2963.852h2.149a2.558,2.558,0,1,1,0,5.1h-2.149Zm2.1,4.466a1.922,1.922,0,1,0,0-3.833h-1.377v3.833Z" transform="translate(-1034.049 -2963.438)" fill="#ff4812"/>
            <path id="Trazado_654662" data-name="Trazado 654662" d="M1043.756,2967.323h-3.132a1.307,1.307,0,0,0,1.4,1.129,1.443,1.443,0,0,0,1.115-.467l.386.452a2.105,2.105,0,0,1-3.6-1.347,1.891,1.891,0,0,1,1.938-1.967,1.862,1.862,0,0,1,1.909,1.989C1043.771,2967.17,1043.763,2967.258,1043.756,2967.323Zm-3.132-.5h2.477a1.246,1.246,0,0,0-2.477,0Z" transform="translate(-1034.369 -2963.507)" fill="#ff4812"/>
            <path id="Trazado_654663" data-name="Trazado 654663" d="M1044.637,2967.091a1.928,1.928,0,0,1,2.04-1.967,1.722,1.722,0,0,1,1.574.823l-.531.342a1.205,1.205,0,0,0-1.05-.553,1.359,1.359,0,0,0,0,2.717,1.205,1.205,0,0,0,1.05-.553l.531.335a1.728,1.728,0,0,1-1.574.83A1.934,1.934,0,0,1,1044.637,2967.091Z" transform="translate(-1034.625 -2963.507)" fill="#ff4812"/>
            <path id="Trazado_654664" data-name="Trazado 654664" d="M1049.357,2963.529h.7v5.405h-.7Z" transform="translate(-1034.882 -2963.42)" fill="#ff4812"/>
            <path id="Trazado_654665" data-name="Trazado 654665" d="M1051.375,2963.872a.46.46,0,0,1,.474-.458.452.452,0,0,1,.473.443.474.474,0,0,1-.947.014Zm.124,1.2h.7v3.861h-.7Z" transform="translate(-1034.991 -2963.414)" fill="#ff4812"/>
            <path id="Trazado_654666" data-name="Trazado 654666" d="M1057.319,2966.8v2.221h-.7v-2.142c0-.757-.379-1.129-1.042-1.129a1.147,1.147,0,0,0-1.224,1.282v1.989h-.7v-3.861h.67v.583a1.654,1.654,0,0,1,1.391-.618A1.5,1.5,0,0,1,1057.319,2966.8Z" transform="translate(-1035.115 -2963.507)" fill="#ff4812"/>
            <path id="Trazado_654667" data-name="Trazado 654667" d="M1062.375,2967.323h-3.133a1.307,1.307,0,0,0,1.4,1.129,1.441,1.441,0,0,0,1.115-.467l.386.452a2.1,2.1,0,0,1-3.6-1.347,1.89,1.89,0,0,1,1.938-1.967,1.861,1.861,0,0,1,1.908,1.989A2.075,2.075,0,0,1,1062.375,2967.323Zm-3.133-.5h2.477a1.247,1.247,0,0,0-2.477,0Z" transform="translate(-1035.381 -2963.507)" fill="#ff4812"/>
          </g>
          <g id="Grupo_959667" data-name="Grupo 959667" transform="translate(55.238 20.372)">
            <g id="Grupo_959664" data-name="Grupo 959664" transform="translate(0.007 0.008)">
              <line id="Línea_173" data-name="Línea 173" x2="2.136" y2="2.054" fill="#fff"/>
            </g>
            <g id="Grupo_959666" data-name="Grupo 959666">
              <g id="Grupo_959665" data-name="Grupo 959665">
                <path id="Trazado_654668" data-name="Trazado 654668" d="M1078.461,2977.933c-.067.07-.6-.333-1.189-.9s-1.014-1.084-.947-1.154.6.333,1.19.9S1078.528,2977.862,1078.461,2977.933Z" transform="translate(-1076.318 -2975.871)" fill="#ff4812"/>
              </g>
            </g>
          </g>
        </g>
      </g>
      <g id="Grupo_959710" data-name="Grupo 959710" transform="translate(123.025 120.135)">
        <g id="Grupo_959670" data-name="Grupo 959670" transform="translate(0 62.6)">
          <path id="Trazado_654669" data-name="Trazado 654669" d="M1160.035,2971.185l7.862-3.785-4.319-12.772-9.5-2.2c-.887-.2-1.869-.435-2.969-.74a11.994,11.994,0,0,1-3.594-1.693,18.293,18.293,0,0,1-3.771-3.194c-.9-1.223-2.8-.767-2.8.59s2.393,4.785,6.652,7.206-3.269,3.594-6,4.071-11.116,2.344-11.613,3.3c-.73,1.4.665,2.461,3.383,1.923,2.751-.545,11-1.584,11.216-.137l-.027.041a5.918,5.918,0,0,0,.361,6.883c1.521,1.912,3.811,4.31,5.5,3.946A77.812,77.812,0,0,0,1160.035,2971.185Z" transform="translate(-1129.793 -2946.089)" fill="#b78876"/>
        </g>
        <g id="Grupo_959671" data-name="Grupo 959671" transform="translate(29.763)">
          <path id="Trazado_654670" data-name="Trazado 654670" d="M1161.267,2945.1l7.367,24.91,57.207-17.384a22.929,22.929,0,0,0,15.116-29.1l-14.027-43.641-30.461,7.562,16.717,40.373Z" transform="translate(-1161.267 -2879.888)" fill="#ff3c00"/>
        </g>
        <g id="Grupo_959673" data-name="Grupo 959673" transform="translate(29.54 15.852)">
          <g id="Grupo_959672" data-name="Grupo 959672">
            <path id="Trazado_654671" data-name="Trazado 654671" d="M1227.118,2953.1s-.092.038-.276.1l-.823.264-3.2.994-12.01,3.675-41.639,12.631-.156.047-.051-.154c-2.549-7.613-5.019-15.99-7.875-24.591l-.056-.166.167-.056,1.438-.479,50.492-16.767-.085.185c-4.029-9.794-7.329-17.82-9.628-23.408-1.135-2.785-2.022-4.96-2.631-6.452q-.441-1.1-.678-1.692c-.151-.382-.218-.583-.218-.583s.094.19.257.567.4.948.716,1.676c.624,1.486,1.535,3.651,2.7,6.424l9.74,23.362.058.139-.143.047-50.468,16.835-1.439.479.112-.222c2.858,8.609,5.321,16.987,7.858,24.6l-.207-.107,41.677-12.511,12.038-3.582,3.215-.942.831-.237C1227.021,2953.125,1227.118,2953.1,1227.118,2953.1Z" transform="translate(-1161.032 -2896.652)" fill="#263238"/>
          </g>
        </g>
        <g id="Grupo_959675" data-name="Grupo 959675" transform="translate(81.339 47.943)">
          <g id="Grupo_959674" data-name="Grupo 959674">
            <path id="Trazado_654672" data-name="Trazado 654672" d="M1226.732,2937.85c-.054.03-.435-.63-1.2-1.58a15.487,15.487,0,0,0-7.8-5.173c-1.173-.336-1.93-.43-1.922-.492a1.62,1.62,0,0,1,.539.009,9.753,9.753,0,0,1,1.447.242,13.911,13.911,0,0,1,7.933,5.262,9.642,9.642,0,0,1,.786,1.239A1.6,1.6,0,0,1,1226.732,2937.85Z" transform="translate(-1215.81 -2930.589)" fill="#263238"/>
          </g>
        </g>
        <g id="Grupo_959677" data-name="Grupo 959677" transform="translate(78.217 2.291)">
          <g id="Grupo_959676" data-name="Grupo 959676">
            <path id="Trazado_654673" data-name="Trazado 654673" d="M1212.684,2889.7a38.932,38.932,0,0,1,0-7.391,38.879,38.879,0,0,1,0,7.391Z" transform="translate(-1212.508 -2882.311)" fill="#fafafa"/>
          </g>
        </g>
        <g id="Grupo_959679" data-name="Grupo 959679" transform="translate(87.722 3.089)">
          <g id="Grupo_959678" data-name="Grupo 959678">
            <path id="Trazado_654674" data-name="Trazado 654674" d="M1224.721,2890.337a39.938,39.938,0,0,1-2.147-7.182,39.964,39.964,0,0,1,2.147,7.182Z" transform="translate(-1222.56 -2883.155)" fill="#fafafa"/>
          </g>
        </g>
        <g id="Grupo_959681" data-name="Grupo 959681" transform="translate(76.075 18.667)">
          <g id="Grupo_959680" data-name="Grupo 959680">
            <path id="Trazado_654675" data-name="Trazado 654675" d="M1216.924,2901.6a12.775,12.775,0,0,1-6.68-1.96c.046-.094,1.462.571,3.3,1.106S1216.935,2901.494,1216.924,2901.6Z" transform="translate(-1210.243 -2899.629)" fill="#fafafa"/>
          </g>
        </g>
        <g id="Grupo_959683" data-name="Grupo 959683" transform="translate(95.724 19.345)">
          <g id="Grupo_959682" data-name="Grupo 959682">
            <path id="Trazado_654676" data-name="Trazado 654676" d="M1231.047,2907.345a36.015,36.015,0,0,1,1.21-7,36.006,36.006,0,0,1-1.21,7Z" transform="translate(-1231.022 -2900.346)" fill="#fafafa"/>
          </g>
        </g>
        <g id="Grupo_959685" data-name="Grupo 959685" transform="translate(88.06 29.005)">
          <g id="Grupo_959684" data-name="Grupo 959684">
            <path id="Trazado_654677" data-name="Trazado 654677" d="M1225.958,2917.2a37.891,37.891,0,0,1-3.032-6.633,37.915,37.915,0,0,1,3.032,6.633Z" transform="translate(-1222.918 -2910.561)" fill="#fafafa"/>
          </g>
        </g>
        <g id="Grupo_959687" data-name="Grupo 959687" transform="translate(82.942 40.748)">
          <g id="Grupo_959686" data-name="Grupo 959686">
            <path id="Trazado_654678" data-name="Trazado 654678" d="M1223.76,2926.019a34.356,34.356,0,0,1-6.254-3.032,34.485,34.485,0,0,1,6.254,3.032Z" transform="translate(-1217.505 -2922.979)" fill="#fafafa"/>
          </g>
        </g>
        <g id="Grupo_959689" data-name="Grupo 959689" transform="translate(101.161 41.619)">
          <g id="Grupo_959688" data-name="Grupo 959688">
            <path id="Trazado_654679" data-name="Trazado 654679" d="M1239.422,2923.9a154.3,154.3,0,0,1-2.637,6.166,17.99,17.99,0,0,1,2.637-6.166Z" transform="translate(-1236.772 -2923.901)" fill="#fafafa"/>
          </g>
        </g>
        <g id="Grupo_959691" data-name="Grupo 959691" transform="translate(98.958 53.652)">
          <g id="Grupo_959690" data-name="Grupo 959690">
            <path id="Trazado_654680" data-name="Trazado 654680" d="M1235.23,2944.207a41.207,41.207,0,0,1-.748-7.581,41.264,41.264,0,0,1,.748,7.581Z" transform="translate(-1234.442 -2936.626)" fill="#fafafa"/>
          </g>
        </g>
        <g id="Grupo_959693" data-name="Grupo 959693" transform="translate(84.293 62.708)">
          <g id="Grupo_959692" data-name="Grupo 959692">
            <path id="Trazado_654681" data-name="Trazado 654681" d="M1224.072,2950.925a34.721,34.721,0,0,1-5.135-4.718,34.545,34.545,0,0,1,5.135,4.718Z" transform="translate(-1218.934 -2946.203)" fill="#fafafa"/>
          </g>
        </g>
        <g id="Grupo_959695" data-name="Grupo 959695" transform="translate(67.177 69.205)">
          <g id="Grupo_959694" data-name="Grupo 959694">
            <path id="Trazado_654682" data-name="Trazado 654682" d="M1205.256,2953.075a39.745,39.745,0,0,1-4.418,6.022,39.713,39.713,0,0,1,4.418-6.022Z" transform="translate(-1200.833 -2953.073)" fill="#fafafa"/>
          </g>
        </g>
        <g id="Grupo_959697" data-name="Grupo 959697" transform="translate(72.324 55.539)">
          <g id="Grupo_959696" data-name="Grupo 959696">
            <path id="Trazado_654683" data-name="Trazado 654683" d="M1211.208,2943.931a17.7,17.7,0,0,1-4.927-5.307c.083-.06,1.088,1.21,2.447,2.669S1211.275,2943.852,1211.208,2943.931Z" transform="translate(-1206.276 -2938.622)" fill="#fafafa"/>
          </g>
        </g>
        <g id="Grupo_959699" data-name="Grupo 959699" transform="translate(58.495 62.344)">
          <g id="Grupo_959698" data-name="Grupo 959698">
            <path id="Trazado_654684" data-name="Trazado 654684" d="M1196.959,2946.222a6.993,6.993,0,0,1-5.306-.387c.035-.1,1.18.268,2.64.367S1196.939,2946.118,1196.959,2946.222Z" transform="translate(-1191.652 -2945.818)" fill="#fafafa"/>
          </g>
        </g>
        <g id="Grupo_959701" data-name="Grupo 959701" transform="translate(54.255 71.656)">
          <g id="Grupo_959700" data-name="Grupo 959700">
            <path id="Trazado_654685" data-name="Trazado 654685" d="M1188.2,2961.531a25.287,25.287,0,0,1-1.006-5.865,25.3,25.3,0,0,1,1.006,5.865Z" transform="translate(-1187.168 -2955.666)" fill="#fafafa"/>
          </g>
        </g>
        <g id="Grupo_959703" data-name="Grupo 959703" transform="translate(38.618 78.431)">
          <g id="Grupo_959702" data-name="Grupo 959702">
            <path id="Trazado_654686" data-name="Trazado 654686" d="M1177.258,2967.017a43.752,43.752,0,0,1-6.625-4.182,43.8,43.8,0,0,1,6.625,4.182Z" transform="translate(-1170.632 -2962.83)" fill="#fafafa"/>
          </g>
        </g>
        <g id="Grupo_959705" data-name="Grupo 959705" transform="translate(44.844 64.635)">
          <g id="Grupo_959704" data-name="Grupo 959704">
            <path id="Trazado_654687" data-name="Trazado 654687" d="M1181.2,2948.244a33.789,33.789,0,0,1-2,2.742c-1.1,1.51-1.894,2.8-1.983,2.753a16.175,16.175,0,0,1,3.979-5.5Z" transform="translate(-1177.216 -2948.241)" fill="#fafafa"/>
          </g>
        </g>
        <g id="Grupo_959707" data-name="Grupo 959707" transform="translate(37.269 66.141)">
          <g id="Grupo_959706" data-name="Grupo 959706">
            <path id="Trazado_654688" data-name="Trazado 654688" d="M1173,2951.741a12.886,12.886,0,1,1-1.817-1.1A6.506,6.506,0,0,1,1173,2951.741Z" transform="translate(-1169.205 -2949.833)" fill="#fafafa"/>
          </g>
        </g>
        <g id="Grupo_959709" data-name="Grupo 959709" transform="translate(81.202 46.474)" opacity="0.2">
          <g id="Grupo_959708" data-name="Grupo 959708">
            <path id="Trazado_654689" data-name="Trazado 654689" d="M1215.665,2929.472c3.056.315,6.113.63,9.162,1.014a11.259,11.259,0,0,1,3.1.7,3.947,3.947,0,0,1,2.219,2.169,2.429,2.429,0,0,1-.848,2.829,2.823,2.823,0,0,1-2.769-.119,14.827,14.827,0,0,1-2.28-1.791,12.657,12.657,0,0,0-4.689-2.452,8.029,8.029,0,0,1-2.239-.787,1.934,1.934,0,0,1-.972-2" transform="translate(-1215.665 -2929.035)"/>
          </g>
        </g>
      </g>
    </g>
  </g>
</svg>
