<svg xmlns="http://www.w3.org/2000/svg" xmlns:xlink="http://www.w3.org/1999/xlink" width="248.618" height="178.174" viewBox="0 0 248.618 178.174">
  <defs>
    <clipPath id="clip-path">
      <path id="Trazado_636724" data-name="Trazado 636724" d="M1131.935,2621.512a4.261,4.261,0,1,1,.72-5.983A4.261,4.261,0,0,1,1131.935,2621.512Z" transform="translate(-1125.044 -2613.9)" fill="#78241d"/>
    </clipPath>
  </defs>
  <g id="Grupo_953378" data-name="Grupo 953378" transform="translate(-925.774 -2577.062)">
    <g id="Grupo_953292" data-name="Grupo 953292" transform="translate(1161.049 2619.162)">
      <path id="Trazado_636693" data-name="Trazado 636693" d="M1241.165,2680.678a.266.266,0,0,1-.266-.266v-46.7a.266.266,0,1,1,.531,0v46.7A.266.266,0,0,1,1241.165,2680.678Z" transform="translate(-1240.899 -2633.451)" fill="#bcd4ff"/>
    </g>
    <g id="Grupo_953293" data-name="Grupo 953293" transform="translate(939.141 2622.381)">
      <path id="Trazado_636694" data-name="Trazado 636694" d="M943.944,2711.7a.265.265,0,0,1-.266-.266v-73.409a.265.265,0,0,1,.266-.266h29.872a.266.266,0,1,1,0,.532H944.21v73.143A.266.266,0,0,1,943.944,2711.7Z" transform="translate(-943.678 -2637.762)" fill="#bcd4ff"/>
    </g>
    <rect id="Rectángulo_339774" data-name="Rectángulo 339774" width="153.097" height="109.901" rx="6.937" transform="translate(966.072 2577.062)" fill="#ffbba6"/>
    <rect id="Rectángulo_339775" data-name="Rectángulo 339775" width="77.598" height="45.425" rx="6.937" transform="translate(925.774 2695.984)" fill="#ffbba6"/>
    <rect id="Rectángulo_339776" data-name="Rectángulo 339776" width="57.839" height="42.959" rx="6.937" transform="translate(1110.239 2591.893)" fill="#ffe2d9"/>
    <path id="Trazado_636695" data-name="Trazado 636695" d="M1132.846,2585.331h-153.1v-4.583a3.687,3.687,0,0,1,3.686-3.687H1129.16a3.686,3.686,0,0,1,3.686,3.687Z" transform="translate(-13.677 0)" fill="#ff3c00"/>
    <g id="Grupo_953294" data-name="Grupo 953294" transform="translate(970.572 2579.42)">
      <path id="Trazado_636696" data-name="Trazado 636696" d="M989.328,2582a1.776,1.776,0,1,1-1.776-1.776A1.776,1.776,0,0,1,989.328,2582Z" transform="translate(-985.776 -2580.221)" fill="#fff"/>
      <path id="Trazado_636697" data-name="Trazado 636697" d="M997.341,2582a1.776,1.776,0,1,1-1.776-1.776A1.776,1.776,0,0,1,997.341,2582Z" transform="translate(-987.806 -2580.221)" fill="#fff"/>
      <path id="Trazado_636698" data-name="Trazado 636698" d="M1005.354,2582a1.776,1.776,0,1,1-1.776-1.776A1.777,1.777,0,0,1,1005.354,2582Z" transform="translate(-989.837 -2580.221)" fill="#fff"/>
    </g>
    <rect id="Rectángulo_339777" data-name="Rectángulo 339777" width="12.68" height="69.069" transform="translate(981.318 2607.756)" fill="#ffe2d9"/>
    <rect id="Rectángulo_339778" data-name="Rectángulo 339778" width="12.68" height="56.578" transform="translate(1003.086 2620.248)" fill="#6e92de"/>
    <rect id="Rectángulo_339779" data-name="Rectángulo 339779" width="12.68" height="50.51" transform="translate(1024.854 2626.316)" fill="#ffe2d9"/>
    <rect id="Rectángulo_339780" data-name="Rectángulo 339780" width="12.68" height="46.036" transform="translate(1046.623 2630.79)" fill="#ffe2d9"/>
    <rect id="Rectángulo_339781" data-name="Rectángulo 339781" width="12.68" height="55.663" transform="translate(1068.391 2621.162)" fill="#6e92de"/>
    <rect id="Rectángulo_339782" data-name="Rectángulo 339782" width="12.68" height="73.221" transform="translate(1090.159 2603.605)" fill="#ffe2d9"/>
    <g id="Grupo_953298" data-name="Grupo 953298" transform="translate(975.287 2592.92)">
      <g id="Grupo_953295" data-name="Grupo 953295" transform="translate(1.794 3.386)">
        <path id="Trazado_636699" data-name="Trazado 636699" d="M1123.914,2683.623H994.759a.265.265,0,0,1-.265-.265V2603.1a.265.265,0,1,1,.531,0v79.989h128.889a.266.266,0,1,1,0,.531Z" transform="translate(-994.494 -2602.837)" fill="#0d3991"/>
      </g>
      <g id="Grupo_953296" data-name="Grupo 953296" transform="translate(0 0)">
        <path id="Trazado_636700" data-name="Trazado 636700" d="M995.921,2601.922a.266.266,0,0,1-.231-.133l-1.542-2.689-1.563,2.691a.266.266,0,1,1-.459-.267l1.794-3.09a.265.265,0,0,1,.229-.132.282.282,0,0,1,.231.134l1.77,3.089a.265.265,0,0,1-.23.4Z" transform="translate(-992.091 -2598.302)" fill="#0d3991"/>
      </g>
      <g id="Grupo_953297" data-name="Grupo 953297" transform="translate(131.664 81.858)">
        <path id="Trazado_636701" data-name="Trazado 636701" d="M1168.706,2712.037a.266.266,0,0,1-.132-.5l2.689-1.542-2.691-1.562a.266.266,0,1,1,.267-.459l3.089,1.794a.266.266,0,0,1,0,.46l-3.089,1.771A.265.265,0,0,1,1168.706,2712.037Z" transform="translate(-1168.44 -2707.941)" fill="#0d3991"/>
      </g>
    </g>
    <g id="Grupo_953301" data-name="Grupo 953301" transform="translate(982.271 2589.849)">
      <g id="Grupo_953299" data-name="Grupo 953299" transform="translate(0 3.071)">
        <path id="Trazado_636702" data-name="Trazado 636702" d="M1064.248,2631.664a79.4,79.4,0,0,1-13.64-1.215c-25.752-4.517-48.845-25.453-49.076-25.664a.266.266,0,0,1,.359-.392c.229.21,23.212,21.042,48.809,25.533,14.077,2.469,48.515,4.347,64.217-31.465a.266.266,0,0,1,.487.213c-6.221,14.188-15.971,23.962-28.979,29.048A60.89,60.89,0,0,1,1064.248,2631.664Z" transform="translate(-1001.445 -2598.302)" fill="#0d3991"/>
      </g>
      <g id="Grupo_953300" data-name="Grupo 953300" transform="translate(111.863 0)">
        <path id="Trazado_636703" data-name="Trazado 636703" d="M1154.71,2598.277a.266.266,0,0,1-.265-.254l-.143-3.1-2.62,1.68a.266.266,0,0,1-.287-.447l3.007-1.928a.266.266,0,0,1,.265-.013.263.263,0,0,1,.143.224l.164,3.557a.266.266,0,0,1-.253.278Z" transform="translate(-1151.273 -2594.189)" fill="#0d3991"/>
      </g>
    </g>
    <path id="Trazado_636704" data-name="Trazado 636704" d="M1222.451,2614.05a15.592,15.592,0,0,1-.1,12.868l-14.213-6.535-10.125-11.926a15.418,15.418,0,0,1,3.8-2.382A15.648,15.648,0,0,1,1222.451,2614.05Z" transform="translate(-68.983 -7.012)" fill="#fff"/>
    <path id="Trazado_636705" data-name="Trazado 636705" d="M1221.768,2632.229a15.641,15.641,0,0,1-26.058,3.693c1.3-1.123,3.315-2.867,5.32-4.595l.588-.508c3.069-2.653,5.937-5.126,5.937-5.126Z" transform="translate(-68.399 -12.323)" fill="#6194f0"/>
    <path id="Trazado_636706" data-name="Trazado 636706" d="M1206.263,2621.646s-2.868,2.473-5.937,5.126l-.588.508c-2.005,1.728-4.021,3.473-5.32,4.595a15.663,15.663,0,0,1,1.719-22.154Z" transform="translate(-67.108 -8.276)" fill="#ffc765"/>
    <g id="Grupo_953303" data-name="Grupo 953303" transform="translate(1148.658 2665.857)">
      <g id="Grupo_953302" data-name="Grupo 953302">
        <path id="Trazado_636707" data-name="Trazado 636707" d="M1246.085,2721.728h-17.831a3.956,3.956,0,0,1-3.953-3.951v-17.831a3.957,3.957,0,0,1,3.953-3.952h17.831a3.957,3.957,0,0,1,3.952,3.952v17.831A3.956,3.956,0,0,1,1246.085,2721.728Zm-17.831-25.2a3.424,3.424,0,0,0-3.421,3.42v17.831a3.424,3.424,0,0,0,3.421,3.42h17.831a3.424,3.424,0,0,0,3.42-3.42v-17.831a3.424,3.424,0,0,0-3.42-3.42Z" transform="translate(-1224.302 -2695.994)" fill="#bcd4ff"/>
      </g>
      <rect id="Rectángulo_339783" data-name="Rectángulo 339783" width="20.092" height="1.989" transform="translate(2.822 19.713)" fill="#838fe7"/>
      <path id="Trazado_636708" data-name="Trazado 636708" d="M1238.128,2703.306l5.263,12.758h-14.475Z" transform="translate(-1225.471 -2697.847)" fill="#99bbfc"/>
      <path id="Trazado_636709" data-name="Trazado 636709" d="M1245.776,2709.765l5.735,7.937h-10.256Z" transform="translate(-1228.598 -2699.483)" fill="#6194f0"/>
      <circle id="Elipse_7800" data-name="Elipse 7800" cx="2.391" cy="2.391" r="2.391" transform="translate(3.71 3.069)" fill="#838fe7"/>
      <path id="Trazado_636710" data-name="Trazado 636710" d="M1252.837,2707.1h-6.351a5.142,5.142,0,0,1,1.575-1.207c1.332-.69,2.649-.8,2.939-.237a.736.736,0,0,1-.058.669,1.539,1.539,0,0,1,1.811.516A.735.735,0,0,1,1252.837,2707.1Z" transform="translate(-1229.923 -2698.353)" fill="#99bbfc"/>
    </g>
    <rect id="Rectángulo_339784" data-name="Rectángulo 339784" width="13.668" height="13.668" transform="translate(934.193 2701.639)" fill="#ffc765"/>
    <rect id="Rectángulo_339785" data-name="Rectángulo 339785" width="13.668" height="13.668" transform="translate(934.193 2722.086)" fill="#fff"/>
    <g id="Grupo_953308" data-name="Grupo 953308" transform="translate(954.969 2701.941)">
      <g id="Grupo_953304" data-name="Grupo 953304" transform="translate(0 0)">
        <path id="Trazado_636711" data-name="Trazado 636711" d="M1004.957,2744.856H965.142a.266.266,0,0,1,0-.531h39.815a.266.266,0,1,1,0,.531Z" transform="translate(-964.877 -2744.324)" fill="#992400"/>
      </g>
      <g id="Grupo_953305" data-name="Grupo 953305" transform="translate(0 4.257)">
        <path id="Trazado_636712" data-name="Trazado 636712" d="M1004.957,2750.558H965.142a.266.266,0,0,1,0-.532h39.815a.266.266,0,1,1,0,.532Z" transform="translate(-964.877 -2750.026)" fill="#992400"/>
      </g>
      <g id="Grupo_953306" data-name="Grupo 953306" transform="translate(0 8.514)">
        <path id="Trazado_636713" data-name="Trazado 636713" d="M1004.957,2756.26H965.142a.266.266,0,0,1,0-.531h39.815a.266.266,0,1,1,0,.531Z" transform="translate(-964.877 -2755.728)" fill="#992400"/>
      </g>
      <g id="Grupo_953307" data-name="Grupo 953307" transform="translate(0 12.771)">
        <path id="Trazado_636714" data-name="Trazado 636714" d="M995.921,2761.961H965.142a.266.266,0,0,1,0-.532h30.779a.266.266,0,0,1,0,.532Z" transform="translate(-964.877 -2761.429)" fill="#992400"/>
      </g>
    </g>
    <g id="Grupo_953313" data-name="Grupo 953313" transform="translate(954.969 2722.269)">
      <g id="Grupo_953309" data-name="Grupo 953309">
        <path id="Trazado_636715" data-name="Trazado 636715" d="M979.187,2772.083H965.142a.266.266,0,0,1,0-.531h14.045a.266.266,0,1,1,0,.531Z" transform="translate(-964.877 -2771.551)" fill="#992400"/>
      </g>
      <g id="Grupo_953310" data-name="Grupo 953310" transform="translate(0 4.256)">
        <path id="Trazado_636716" data-name="Trazado 636716" d="M1004.957,2777.784H965.142a.266.266,0,0,1,0-.531h39.815a.266.266,0,1,1,0,.531Z" transform="translate(-964.877 -2777.252)" fill="#992400"/>
      </g>
      <g id="Grupo_953311" data-name="Grupo 953311" transform="translate(0 8.514)">
        <path id="Trazado_636717" data-name="Trazado 636717" d="M1004.957,2783.486H965.142a.266.266,0,0,1,0-.531h39.815a.266.266,0,1,1,0,.531Z" transform="translate(-964.877 -2782.954)" fill="#992400"/>
      </g>
      <g id="Grupo_953312" data-name="Grupo 953312" transform="translate(0 12.771)">
        <path id="Trazado_636718" data-name="Trazado 636718" d="M1002.04,2789.188h-36.9a.266.266,0,0,1,0-.531h36.9a.266.266,0,1,1,0,.531Z" transform="translate(-964.877 -2788.656)" fill="#992400"/>
      </g>
    </g>
    <g id="Grupo_953314" data-name="Grupo 953314" transform="translate(931.829 2698.577)">
      <path id="Trazado_636719" data-name="Trazado 636719" d="M943.082,2755.592a.268.268,0,0,1-.162-.055l-8.932-6.88a.266.266,0,0,1,.324-.421l8.636,6.652L947.878,2740a.266.266,0,0,1,.5.167l-5.049,15.242a.266.266,0,0,1-.175.171A.271.271,0,0,1,943.082,2755.592Z" transform="translate(-933.884 -2739.818)" fill="#0d3991"/>
    </g>
    <path id="Trazado_636720" data-name="Trazado 636720" d="M1105.109,2644.393a5,5,0,0,1-2.538,2.628c-1.959,1.011-4.024.922-4.608-.211-.675-1.307.634-2.5,1.51-3.295a3.744,3.744,0,0,0,1.167-1.668,10.239,10.239,0,0,0,.425-2.365c.031-.325.046-.653.086-.977a2.427,2.427,0,0,1,.119-.442l3.2,3.707.226.927a1.432,1.432,0,0,1,.358.437A1.638,1.638,0,0,1,1105.109,2644.393Z" transform="translate(-43.584 -15.457)" fill="#2c2225"/>
    <g id="Grupo_953318" data-name="Grupo 953318" transform="translate(1074.551 2604.565)">
      <path id="Trazado_636721" data-name="Trazado 636721" d="M1131.935,2621.512a4.261,4.261,0,1,1,.72-5.983A4.261,4.261,0,0,1,1131.935,2621.512Z" transform="translate(-1125.044 -2613.9)" fill="#78241d"/>
      <g id="Grupo_953317" data-name="Grupo 953317" transform="translate(0 0)" clip-path="url(#clip-path)">
        <g id="Grupo_953315" data-name="Grupo 953315" transform="translate(1.855 -4.238)">
          <path id="Trazado_636722" data-name="Trazado 636722" d="M1134.531,2620.7a7.557,7.557,0,0,1-.912-.055,7.15,7.15,0,0,1-4.581-2.385,5.921,5.921,0,0,1-1.467-4.617c.411-3.41,3.786-5.816,7.539-5.366s6.46,3.593,6.048,7a5.919,5.919,0,0,1-2.521,4.137A7.07,7.07,0,0,1,1134.531,2620.7Zm-.324-12.211a6.2,6.2,0,0,0-6.372,5.186,5.659,5.659,0,0,0,1.4,4.412,7.064,7.064,0,0,0,9.244,1.113,5.654,5.654,0,0,0,2.412-3.951h0c.393-3.265-2.216-6.273-5.817-6.708A7.358,7.358,0,0,0,1134.207,2608.489Z" transform="translate(-1127.529 -2608.223)" fill="#2c2225"/>
        </g>
        <g id="Grupo_953316" data-name="Grupo 953316" transform="translate(3.238 -1.857)">
          <path id="Trazado_636723" data-name="Trazado 636723" d="M1133.165,2618.171a4.036,4.036,0,0,1-.493-.03,3.388,3.388,0,1,1,.807-6.7,3.867,3.867,0,0,1,2.476,1.29,3.208,3.208,0,0,1,.794,2.5h0a3.21,3.21,0,0,1-1.366,2.243A3.82,3.82,0,0,1,1133.165,2618.171Zm-.172-6.492a3.237,3.237,0,0,0-3.327,2.7,3.289,3.289,0,0,0,3.039,3.5,3.6,3.6,0,0,0,2.525-.617,2.945,2.945,0,0,0,1.256-2.057h0a2.946,2.946,0,0,0-.732-2.3,3.6,3.6,0,0,0-2.307-1.2A3.927,3.927,0,0,0,1132.993,2611.679Z" transform="translate(-1129.38 -2611.413)" fill="#2c2225"/>
        </g>
      </g>
    </g>
    <g id="Grupo_953319" data-name="Grupo 953319" transform="translate(1042.5 2631.525)">
      <path id="Trazado_636725" data-name="Trazado 636725" d="M1097.87,2657.326c-.037.063-1.564,5.45-3.128,10.985-.579,2.059-1.164,4.134-1.681,5.966-.116.411-.37.757-.473,1.154-.806,3.074-2.691,4.92-5.392,3.873l-5.081-2.2c0-.005,9.276-25.354,9.276-25.354s3.088-2.334,5.02-1.6C1099.023,2651.16,1099.4,2654.982,1097.87,2657.326Z" transform="translate(-1082.115 -2650.009)" fill="#3b78e5"/>
    </g>
    <path id="Trazado_636726" data-name="Trazado 636726" d="M1097.775,2674.15c-.579,2.059-1.164,4.134-1.681,5.966a5.3,5.3,0,0,1-.473,1.154c.147-3.275-1.633-6.914-1.533-7.035l2.217-1.18Z" transform="translate(-42.648 -24.324)" fill="#2c2225"/>
    <path id="Trazado_636727" data-name="Trazado 636727" d="M1109.585,2639.16c.279.127.443.205.443.205l-1.3,4.756-3.823,1.385-4.345-.643c-.052-.211,3.313-1.349,2.1-5.482,0-.005-.005-.01-.005-.017a3.469,3.469,0,0,0-.295-.773c-.1-.284-.184-.579-.263-.874a15.405,15.405,0,0,1,.806-9.8l.047-.095c.127-.284.453-1.027.827-1.733.4-.753.842-1.464,1.153-1.542.258-.069.474.305.7.605.143.19.29.347.448.347a2.623,2.623,0,0,1,1.442.458c.058.037.116.079.174.116,1.649,1.238,2.813,4.313,2.813,7.91A14.019,14.019,0,0,1,1109.585,2639.16Z" transform="translate(-44.29 -12.03)" fill="#78241d"/>
    <path id="Trazado_636728" data-name="Trazado 636728" d="M1120.228,2652.439a13.326,13.326,0,0,0-3.723,9.99l.332,4.576.01.09q.039.419.079.853c.036.39.069.833.11,1.312.264.005.985,10.416,2.391,15.592q-6.729.119-13.465-.205c-.532.216-1.085.422-1.654.605a18.272,18.272,0,0,1-10.53-.242,4.042,4.042,0,0,1,.7-2.964,9.3,9.3,0,0,0,1.8-4.031,47.734,47.734,0,0,0,.406-5.643c-.1-.621-.2-1.269-.305-1.932a.452.452,0,0,0-.01-.084c-.042-.016-.063-.022-.063-.022-1.975-.858-2.817-2.122-2.87-3.6v-.005a9.736,9.736,0,0,1,1.217-3.891c.021-.042.047-.079.068-.116.111-.195.232-.384.358-.579a.005.005,0,0,1,.005-.005c.316-.479.669-.969,1.053-1.454v-.005c.11-3.151-2.011-8.427-1.9-9.254l.024-.073a1.32,1.32,0,0,1,.653-.71c1.817-.79,4-1.542,5.411-2.043l6.3,8.014,9.2-7.414a2.757,2.757,0,0,1,1.106-.838s4.786,2.054,5.2,2.775C1122.346,2651.669,1121.551,2651.24,1120.228,2652.439Z" transform="translate(-42.484 -18.066)" fill="#faa81b"/>
    <ellipse id="Elipse_7801" data-name="Elipse 7801" cx="6.601" cy="4.919" rx="6.601" ry="4.919" transform="translate(1057.32 2614.18) rotate(-42.325)" fill="#78241d"/>
    <path id="Trazado_636729" data-name="Trazado 636729" d="M1124.236,2670.805l-.016.111c-.057.353-.116.7-.173,1.048-.232,1.443-1.864,11.416-1.864,11.416-.985.79-3.081,3.933-6.83,3.959-1.845-4.259-1.292-11.1.616-11.258,6.62-.552,5.537-9.487,5.611-9.6l2.551,3.763Z" transform="translate(-47.75 -22.659)" fill="#2c2225"/>
    <path id="Trazado_636730" data-name="Trazado 636730" d="M1121.252,2621.791c1.731.811,2.13,3.614.89,6.259s-3.649,4.131-5.381,3.319-2.13-3.613-.89-6.259S1119.521,2620.978,1121.252,2621.791Z" transform="translate(-47.986 -11.278)" fill="#78241d"/>
    <path id="Trazado_636731" data-name="Trazado 636731" d="M1111.892,2650.256c-3.407,0-6.383-.805-7.978-2.011-.079-.058-.152-.116-.226-.179l-1.233.5.048.052,6.407,8.34,9.689-7.441A58.736,58.736,0,0,1,1111.892,2650.256Z" transform="translate(-44.769 -17.992)" fill="#3b78e5"/>
    <path id="Trazado_636732" data-name="Trazado 636732" d="M1120.018,2696.662c0,.221-.19.437-.542.643a4.38,4.38,0,0,1-.6.273c-2.043.78-6.609,1.328-11.923,1.328-.927,0-1.833-.016-2.706-.048a34.038,34.038,0,0,1-9.221-1.28c-.732-.279-1.137-.589-1.137-.916,0-.431.716-.837,1.953-1.179a42.16,42.16,0,0,1,9.226-1.037c.616-.016,1.242-.027,1.885-.027a47.168,47.168,0,0,1,11.111,1.064c.248.068.474.143.679.211C1119.564,2695.988,1120.018,2696.315,1120.018,2696.662Z" transform="translate(-42.6 -29.737)" fill="#2c2225"/>
    <path id="Trazado_636733" data-name="Trazado 636733" d="M1117.4,2644.859l-1.232,1.322a19.6,19.6,0,0,1-3.855.368c-3.575,0-6.678-.89-8.2-2.191l.69-.279a3.769,3.769,0,0,0,2.191-2.459,3.684,3.684,0,0,0,.142-1.027v-7.156h7.415v7.572a3.763,3.763,0,0,0,1.807,3.213Z" transform="translate(-45.188 -14.285)" fill="#ffa058"/>
    <path id="Trazado_636734" data-name="Trazado 636734" d="M1113.923,2639.307s-1.474,2.694-5.957,3.8a3.711,3.711,0,0,0,.143-1.025v-2.076Z" transform="translate(-46.166 -15.773)" fill="#2c2225"/>
    <g id="Grupo_953320" data-name="Grupo 953320" transform="translate(1073.958 2632.961)">
      <path id="Trazado_636735" data-name="Trazado 636735" d="M1129.653,2679.393l-2.928-2.159a10.212,10.212,0,0,1-1.164-2.675,30.415,30.415,0,0,1-.826-5.724c-.026-.29-.053-.573-.079-.853l-.01-.09-.332-4.576c-.332-2.934.635-7.851,3.23-10.261,1.271-1.181,2.2-1.23,2.4-1.035.184.316,2.97,7.889,4.7,22.828C1134.971,2677.713,1132.865,2679.383,1129.653,2679.393Z" transform="translate(-1124.25 -2651.933)" fill="#3b78e5"/>
    </g>
    <path id="Rectángulo_339786" data-name="Rectángulo 339786" d="M0,0H9.725a0,0,0,0,1,0,0V9.068A5.237,5.237,0,0,1,4.488,14.3h0A4.488,4.488,0,0,1,0,9.816V0A0,0,0,0,1,0,0Z" transform="matrix(0.993, 0.12, -0.12, 0.993, 1060.888, 2610.262)" fill="#ffa058"/>
    <path id="Trazado_636736" data-name="Trazado 636736" d="M1108.512,2627.234c-.2-.037-.454-.125-.678-.177s-.468-.107-.715-.14a4.283,4.283,0,0,0-.723-.06,2.23,2.23,0,0,0-.791.149l-.015.005a.058.058,0,0,1-.076-.033.055.055,0,0,1,0-.032,1.247,1.247,0,0,1,.641-.821,2.154,2.154,0,0,1,1.012-.276,2.6,2.6,0,0,1,1.011.165,1.894,1.894,0,0,1,.869.636.386.386,0,0,1-.378.612Z" transform="translate(-45.543 -12.362)" fill="#2c2225"/>
    <path id="Trazado_636737" data-name="Trazado 636737" d="M1113.175,2627.029a1.889,1.889,0,0,1,1.064-.168,2.582,2.582,0,0,1,.974.317,2.133,2.133,0,0,1,.773.708,1.247,1.247,0,0,1,.195,1.023.059.059,0,0,1-.073.039.062.062,0,0,1-.028-.018l-.01-.011a2.231,2.231,0,0,0-.635-.5,4.347,4.347,0,0,0-.67-.278c-.235-.083-.469-.144-.7-.2s-.489-.095-.685-.153l-.149-.044a.386.386,0,0,1-.058-.718Z" transform="translate(-47.43 -12.616)" fill="#2c2225"/>
    <g id="Grupo_953321" data-name="Grupo 953321" transform="translate(1065.284 2616.49)">
      <path id="Trazado_636738" data-name="Trazado 636738" d="M1114.855,2631.257a.134.134,0,0,1-.127-.093,1.867,1.867,0,0,0-.6-.85.846.846,0,0,0-.2-.111.823.823,0,0,0-.591-.022,1.222,1.222,0,0,0-.433.263.273.273,0,0,1-.1.065.131.131,0,0,1-.167-.085.132.132,0,0,1,.085-.168l0-.012a1.47,1.47,0,0,1,.523-.315,1.094,1.094,0,0,1,.769.025,1.079,1.079,0,0,1,.264.143,2.1,2.1,0,0,1,.7.986.132.132,0,0,1-.086.166A.122.122,0,0,1,1114.855,2631.257Z" transform="translate(-1112.632 -2629.872)" fill="#2c2225"/>
    </g>
    <g id="Grupo_953322" data-name="Grupo 953322" transform="translate(1060.889 2615.961)">
      <path id="Trazado_636739" data-name="Trazado 636739" d="M1108.969,2630.548a.135.135,0,0,1-.127-.092,1.871,1.871,0,0,0-.6-.85.823.823,0,0,0-.2-.111.838.838,0,0,0-.59-.022,1.235,1.235,0,0,0-.434.263.276.276,0,0,1-.095.065.133.133,0,0,1-.084-.252l0-.013a1.476,1.476,0,0,1,.524-.314,1.09,1.09,0,0,1,.768.025,1.106,1.106,0,0,1,.265.143,2.1,2.1,0,0,1,.7.985.132.132,0,0,1-.086.166A.117.117,0,0,1,1108.969,2630.548Z" transform="translate(-1106.746 -2629.163)" fill="#2c2225"/>
    </g>
    <path id="Trazado_636740" data-name="Trazado 636740" d="M1108.082,2629.989a.522.522,0,1,1-.455-.59A.527.527,0,0,1,1108.082,2629.989Z" transform="translate(-45.932 -13.261)" fill="#2c2225"/>
    <path id="Trazado_636741" data-name="Trazado 636741" d="M1113.876,2630.686a.522.522,0,1,1-.455-.59A.527.527,0,0,1,1113.876,2630.686Z" transform="translate(-47.4 -13.438)" fill="#2c2225"/>
    <g id="Grupo_953323" data-name="Grupo 953323" transform="translate(1063.038 2615.744)">
      <path id="Trazado_636742" data-name="Trazado 636742" d="M1110.866,2632.6a3.021,3.021,0,0,1-1.186-.187c-.1-.063-.147-.09.651-3.433a.133.133,0,1,1,.259.062c-.257,1.076-.653,2.8-.706,3.177a3.454,3.454,0,0,0,1.027.116h0a.132.132,0,0,1,0,.265Z" transform="translate(-1109.624 -2628.873)" fill="#a55012"/>
    </g>
    <g id="Grupo_953324" data-name="Grupo 953324" transform="translate(1062.401 2646.656)">
      <path id="Trazado_636743" data-name="Trazado 636743" d="M1115.208,2677.208a11.752,11.752,0,0,1-3.477-.477c-2.819-1.227-3.642-3.429-2.392-6.374a.133.133,0,0,1,.245.1c-1.2,2.826-.445,4.852,2.243,6.022a11.8,11.8,0,0,0,3.386.459h.182a.132.132,0,0,1,0,.265C1115.333,2677.208,1115.27,2677.208,1115.208,2677.208Z" transform="translate(-1108.771 -2670.276)" fill="#2c2225"/>
    </g>
    <g id="Grupo_953325" data-name="Grupo 953325" transform="translate(1050.822 2641.644)">
      <path id="Trazado_636744" data-name="Trazado 636744" d="M1099.7,2674.923a11.74,11.74,0,0,1-3.477-.477c-2.819-1.226-3.643-3.429-2.392-6.374a18.136,18.136,0,0,1,2.712-4.469.133.133,0,0,1,.191.185,18.292,18.292,0,0,0-2.659,4.388c-1.2,2.826-.445,4.852,2.244,6.022a11.771,11.771,0,0,0,3.386.46h.182a.133.133,0,0,1,0,.266Z" transform="translate(-1093.262 -2663.563)" fill="#2c2225"/>
    </g>
    <g id="Grupo_953326" data-name="Grupo 953326" transform="translate(1063.348 2620.05)">
      <path id="Trazado_636745" data-name="Trazado 636745" d="M1111.083,2635.885a2.812,2.812,0,0,1-.85-.139l-.089-.027a.135.135,0,0,1-.1-.156.133.133,0,0,1,.149-.105c.01,0,.035.008.07.02l.049.015a2.236,2.236,0,0,0,1.509-.01,1.6,1.6,0,0,0,.826-.762.14.14,0,0,1,.178-.07.126.126,0,0,1,.07.165l-.123-.053.118.064a1.847,1.847,0,0,1-.974.9A2.285,2.285,0,0,1,1111.083,2635.885Z" transform="translate(-1110.04 -2634.64)" fill="#a55012"/>
    </g>
    <g id="Grupo_953327" data-name="Grupo 953327" transform="translate(1065.775 2619.509)">
      <path id="Trazado_636746" data-name="Trazado 636746" d="M1113.981,2635.139a.131.131,0,0,1-.081-.027.628.628,0,0,1-.092-.084,1.39,1.39,0,0,1-.281-.388,3.477,3.477,0,0,1-.2-.471l-.026-.071a.133.133,0,0,1,.246-.1l.03.081a3.177,3.177,0,0,0,.187.436,1.145,1.145,0,0,0,.236.328.419.419,0,0,0,.064.059.132.132,0,0,1-.081.238Z" transform="translate(-1113.289 -2633.915)" fill="#a55012"/>
    </g>
    <path id="Trazado_636747" data-name="Trazado 636747" d="M1109.221,2625.657c-.089.068-.184.147-.294.232-.138.1-.279.205-.422.305a8.463,8.463,0,0,1-4.745,1.749c.127-.284.453-1.027.827-1.733a15.043,15.043,0,0,1,1.853-.937c.064-.032.122-.053.174-.074a2.487,2.487,0,0,1,1.228-.169A2.6,2.6,0,0,1,1109.221,2625.657Z" transform="translate(-45.1 -12.151)" fill="#2c2225"/>
    <path id="Trazado_636748" data-name="Trazado 636748" d="M1114.7,2620.414l-3.551-1.152-1.569.849c-.027-.026-.05-.052-.078-.076l.655-1.861-3.134.6a17.766,17.766,0,0,0-4.982,1.341c-1.115.584-2.284,2.023-1.779,3.228.67,1.6,2.444,2.409,5.322,1.789a8.353,8.353,0,0,0,2.989-1.252l.034-.025c.334-.233,3.045-2.048,4.7-.638,1.764,1.505-.037,5.427-.037,5.427s1.548,1.183,1.608,1.018,2.974-6.094,2.974-6.094Z" transform="translate(-44.182 -10.418)" fill="#78241d"/>
    <path id="Trazado_636749" data-name="Trazado 636749" d="M1124.695,2650.01c.053.195.29.711.448,1.148h-2.123a12.123,12.123,0,0,1-.511-2.639,11.924,11.924,0,0,0-.116,2.639h-3.865a12.254,12.254,0,0,1-1.611-5.14,18.626,18.626,0,0,0,.09,5.14h-2.718a14.652,14.652,0,0,1,.932-10.153,14.023,14.023,0,0,0,1.448-5.608l-.121-4.592,5.956-4.245a26.059,26.059,0,0,0,.2,4.7,27.915,27.915,0,0,0,1.83,5.578c.121.295.247.59.358.89,1,2.627-.147,4.707-.5,7.3A13.6,13.6,0,0,0,1124.695,2650.01Z" transform="translate(-47.635 -12.543)" fill="#78241d"/>
    <path id="Trazado_636750" data-name="Trazado 636750" d="M1119.057,2633.971c-.91.714-2.04.8-2.522.18s-.136-1.692.774-2.406,2.039-.8,2.521-.181S1119.967,2633.256,1119.057,2633.971Z" transform="translate(-48.282 -13.706)" fill="#ffa058"/>
    <path id="Trazado_636751" data-name="Trazado 636751" d="M1128.213,2649.024a6.54,6.54,0,0,1-.269.912,6.789,6.789,0,0,1-.379.837c.095-.347.2-.679.321-1A7.42,7.42,0,0,1,1128.213,2649.024Z" transform="translate(-51.132 -18.235)" fill="#78241d"/>
    <g id="Grupo_953328" data-name="Grupo 953328" transform="translate(1069.837 2610.167)">
      <path id="Trazado_636752" data-name="Trazado 636752" d="M1118.864,2622.631a.135.135,0,0,1-.105-.052.133.133,0,0,1,.023-.186c.09-.07,2.221-1.708,3.7-.616a.133.133,0,1,1-.158.213c-1.317-.971-3.358.6-3.378.612A.132.132,0,0,1,1118.864,2622.631Z" transform="translate(-1118.731 -2621.403)" fill="#2c2225"/>
    </g>
    <g id="Grupo_953329" data-name="Grupo 953329" transform="translate(1069.31 2616.907)">
      <path id="Trazado_636753" data-name="Trazado 636753" d="M1118.157,2631.422a.134.134,0,0,1-.12-.076.132.132,0,0,1,.058-.174c.015-.01.038-.032.07-.06a2.233,2.233,0,0,1,2.554-.452.133.133,0,0,1-.114.24,1.964,1.964,0,0,0-2.267.413.648.648,0,0,1-.125.1A.141.141,0,0,1,1118.157,2631.422Z" transform="translate(-1118.025 -2630.43)" fill="#2c2225"/>
    </g>
    <g id="Grupo_953330" data-name="Grupo 953330" transform="translate(1072.529 2620.115)">
      <path id="Trazado_636754" data-name="Trazado 636754" d="M1123.668,2648.22a.133.133,0,0,1-.131-.111,7.379,7.379,0,0,1,.559-4.1,7.8,7.8,0,0,0,.638-3.328,11.5,11.5,0,0,0-2.094-5.273,2.15,2.15,0,0,1-.3-.52.133.133,0,0,1,.107-.155.132.132,0,0,1,.155.1,4.291,4.291,0,0,0,.262.427,11.745,11.745,0,0,1,2.138,5.4,8.022,8.022,0,0,1-.653,3.434,7.071,7.071,0,0,0-.548,3.97.132.132,0,0,1-.108.153A.1.1,0,0,1,1123.668,2648.22Z" transform="translate(-1122.336 -2634.727)" fill="#2c2225"/>
    </g>
    <path id="Trazado_636755" data-name="Trazado 636755" d="M1120.924,2704.046h-28.858l2.5-6.468.816-2.1a42.16,42.16,0,0,1,9.227-1.037c.616-.016,1.242-.027,1.885-.027a47.169,47.169,0,0,1,11.111,1.064l.812,2.1Z" transform="translate(-42.137 -29.737)" fill="#0d3991"/>
    <path id="Trazado_636756" data-name="Trazado 636756" d="M1119.583,2723.3c-4.655.806-9.778-6.319-11.437-15.914-.2-1.132-.337-2.248-.422-3.338a31.556,31.556,0,0,1,.006-5.188,21.835,21.835,0,0,1,.821-4.412c.616-.016,1.242-.027,1.885-.027a47.167,47.167,0,0,1,11.111,1.064c.248.068.474.143.679.211q.387.773.727,1.612a33.826,33.826,0,0,1,2.043,7.156C1126.661,2714.056,1124.239,2722.487,1119.583,2723.3Z" transform="translate(-46.078 -29.737)" fill="#0d3991"/>
    <path id="Trazado_636757" data-name="Trazado 636757" d="M1130.379,2687.584a6.378,6.378,0,0,0,1.86-4.674,5.583,5.583,0,0,0-8.358-4.467c-2.85,1.18-6.276,2.374-6.274,2.385-.165.013-.164.166-.323.211-2.9.828-3.081,6.152-1.622,10.859,1.337,4.315,4.066,8.5,6.747,8.535a2.574,2.574,0,0,0,.729-.1,2.75,2.75,0,0,0,1.654-1.4c1.092-1.607,1.649-4.47,2.077-6.423a9.6,9.6,0,0,1,2.833-4.315,5.632,5.632,0,0,0,.663-.6S1130.377,2687.59,1130.379,2687.584Z" transform="translate(-47.889 -25.499)" fill="#3b78e5"/>
    <g id="Grupo_953331" data-name="Grupo 953331" transform="translate(1069.042 2623.998)">
      <path id="Trazado_636758" data-name="Trazado 636758" d="M1117.807,2650.482a.132.132,0,0,1-.133-.127,8.147,8.147,0,0,1,1.294-4.607,9.422,9.422,0,0,0,1.418-5.679.133.133,0,0,1,.124-.141.124.124,0,0,1,.141.125,9.647,9.647,0,0,1-1.448,5.82,7.933,7.933,0,0,0-1.262,4.47.133.133,0,0,1-.127.139Z" transform="translate(-1117.666 -2639.928)" fill="#2c2225"/>
    </g>
    <g id="Grupo_953332" data-name="Grupo 953332" transform="translate(1055.844 2609.914)">
      <path id="Trazado_636759" data-name="Trazado 636759" d="M1102.851,2625.2a4.334,4.334,0,0,1-.9-.1c-.81-.172-1.994-.908-1.964-1.939a.133.133,0,0,1,.133-.129h0a.132.132,0,0,1,.128.136c-.026.879,1.03,1.517,1.752,1.67,1.969.419,3.405-.661,4.928-1.8,1.344-1.009,2.736-2.041,4.515-1.976a.132.132,0,0,1-.005.265h-.006c-1.679-.076-3.037.943-4.344,1.924C1105.815,2624.216,1104.5,2625.2,1102.851,2625.2Z" transform="translate(-1099.988 -2621.064)" fill="#2c2225"/>
    </g>
    <g id="Grupo_953333" data-name="Grupo 953333" transform="translate(1066.651 2611.973)">
      <path id="Trazado_636760" data-name="Trazado 636760" d="M1119.675,2625.918a.133.133,0,0,1-.133-.119,1.618,1.618,0,0,0-.636-1.194c-.757-.568-2.145-.664-4.128-.288l-.161.03a.133.133,0,1,1-.042-.263c.034-.005.087-.016.153-.028.769-.146,3.1-.588,4.337.336a1.877,1.877,0,0,1,.742,1.381.134.134,0,0,1-.119.145Z" transform="translate(-1114.463 -2623.822)" fill="#2c2225"/>
    </g>
    <path id="Trazado_636761" data-name="Trazado 636761" d="M1084.033,2673.5l-5.655-3.574-9.259-5.851c-.685-.433-3.744-2.465-3.744-2.465-1.652.119-4.291,6.766-4.977,9.646-.608,2.549-1.543,6.126-.216,8.586.736,1.364,2.288,1.54,3.673,1.268a23.745,23.745,0,0,0,2.935-1,6.409,6.409,0,0,1,3.219-.229l10.612,2.91a4.789,4.789,0,0,0,5.225-1.878C1087.008,2679.139,1086.228,2674.841,1084.033,2673.5Z" transform="translate(-33.887 -21.424)" fill="#3b78e5"/>
    <path id="Trazado_636762" data-name="Trazado 636762" d="M1066.8,2671.432c-.016.2-.037.39-.063.59-.711,5.609-3.417,9.389-5.476,8.821-2.075-.585-2.223-4.587-.89-9.642.3-1.222.642-2.418,1-3.529a19.583,19.583,0,0,1,2.27-5.05c.49-.679.974-1.074,1.442-1.085.727-.026,1.3,1.106,1.617,2.906A26.028,26.028,0,0,1,1066.8,2671.432Z" transform="translate(-33.886 -21.405)" fill="#2c2225"/>
    <path id="Trazado_636763" data-name="Trazado 636763" d="M1122.105,2701.465c-1.832.247-4.75-2.944-6.6-8.325a16.544,16.544,0,0,1-.921-5.667,7.252,7.252,0,0,1,1.548-4.824,2.538,2.538,0,0,1,1.058-.668,2.31,2.31,0,0,1,.648-.095h.005c1.622.005,3.012,1.89,3.965,4.886a25.532,25.532,0,0,1,.78,3.244C1123.611,2695.246,1125.765,2700.97,1122.105,2701.465Z" transform="translate(-47.842 -26.562)" fill="#2c2225"/>
    <g id="Grupo_953334" data-name="Grupo 953334" transform="translate(1044.358 2648.37)">
      <path id="Trazado_636764" data-name="Trazado 636764" d="M1089.187,2677.649a.132.132,0,0,1-.13-.108c-.323-1.719-1.841-3.375-4.277-4.664-.059-.031-.1-.052-.114-.062a.133.133,0,0,1-.042-.183.136.136,0,0,1,.184-.041c.013.008.046.026.1.052,2.509,1.328,4.076,3.049,4.413,4.849a.133.133,0,0,1-.106.155Z" transform="translate(-1084.605 -2672.571)" fill="#2c2225"/>
    </g>
    <g id="Grupo_953335" data-name="Grupo 953335" transform="translate(1073.697 2640.562)">
      <path id="Trazado_636765" data-name="Trazado 636765" d="M1124.82,2674.176a.134.134,0,0,1-.133-.121l-.787-8.666c0-.049,0-.084,0-.134a3.264,3.264,0,0,1,1.616-3.125.133.133,0,0,1,.13.231,3.016,3.016,0,0,0-1.48,2.891,1.147,1.147,0,0,1,0,.144l.788,8.634a.132.132,0,0,1-.12.144Z" transform="translate(-1123.9 -2662.114)" fill="#2c2225"/>
    </g>
    <g id="Grupo_953336" data-name="Grupo 953336" transform="translate(1071.223 2631.531)">
      <path id="Trazado_636766" data-name="Trazado 636766" d="M1121.945,2657.144a.13.13,0,0,1-.1-.047,6.413,6.413,0,0,1-.382-7.016.133.133,0,0,1,.227.137,6.133,6.133,0,0,0,.358,6.708.132.132,0,0,1-.016.187A.129.129,0,0,1,1121.945,2657.144Z" transform="translate(-1120.587 -2650.018)" fill="#2c2225"/>
    </g>
    <g id="Grupo_953337" data-name="Grupo 953337" transform="translate(1069.13 2652.791)">
      <path id="Trazado_636767" data-name="Trazado 636767" d="M1117.917,2681.428a.133.133,0,0,1-.049-.257l5.206-2.036c2.764-.909,5.636-1.3,7.955,1.952a.133.133,0,0,1-.216.155c-2.22-3.114-4.989-2.732-7.65-1.856l-5.2,2.033A.135.135,0,0,1,1117.917,2681.428Z" transform="translate(-1117.784 -2678.493)" fill="#2c2225"/>
    </g>
    <g id="Grupo_953338" data-name="Grupo 953338" transform="translate(1076.932 2662.523)">
      <path id="Trazado_636768" data-name="Trazado 636768" d="M1128.366,2702.32a.129.129,0,0,1-.078-.026.132.132,0,0,1-.03-.185c1.641-2.27,1.7-5.353,1.747-7.6a6.3,6.3,0,0,1,.406-2.923.133.133,0,0,1,.215.157,6.468,6.468,0,0,0-.355,2.771c-.046,2.287-.108,5.418-1.8,7.755A.135.135,0,0,1,1128.366,2702.32Z" transform="translate(-1128.233 -2691.528)" fill="#2c2225"/>
    </g>
    <g id="Grupo_953339" data-name="Grupo 953339" transform="translate(1032.46 2657.35)">
      <path id="Trazado_636769" data-name="Trazado 636769" d="M1068.8,2686.183a.133.133,0,0,1-.044-.258c.033-.012.1-.046.2-.094a9.49,9.49,0,0,1,6.619-.994.134.134,0,0,1,.094.163.131.131,0,0,1-.162.095,9.235,9.235,0,0,0-6.435.975c-.111.054-.187.091-.225.1A.137.137,0,0,1,1068.8,2686.183Z" transform="translate(-1068.669 -2684.599)" fill="#2c2225"/>
    </g>
    <g id="Grupo_953340" data-name="Grupo 953340" transform="translate(1079.884 2643.692)">
      <path id="Trazado_636770" data-name="Trazado 636770" d="M1135.726,2671.83a.134.134,0,0,1-.125-.089,22.471,22.471,0,0,0-3.311-5.127l-.074-.092a.133.133,0,0,1,.208-.166l.073.091a22.7,22.7,0,0,1,3.355,5.206.133.133,0,0,1-.082.169A.128.128,0,0,1,1135.726,2671.83Z" transform="translate(-1132.187 -2666.307)" fill="#2c2225"/>
    </g>
    <g id="Grupo_953341" data-name="Grupo 953341" transform="translate(1074.188 2650.102)">
      <path id="Trazado_636771" data-name="Trazado 636771" d="M1124.691,2678.577l-.019,0a.132.132,0,0,1-.112-.151c.173-1.166,1.737-2.328,2.67-3.022a4.506,4.506,0,0,0,.558-.447.134.134,0,0,1,.184-.043.132.132,0,0,1,.044.181,3.126,3.126,0,0,1-.627.522c-.841.626-2.408,1.791-2.565,2.848A.133.133,0,0,1,1124.691,2678.577Z" transform="translate(-1124.558 -2674.892)" fill="#2c2225"/>
    </g>
    <g id="Grupo_953342" data-name="Grupo 953342" transform="translate(1045.698 2647.578)">
      <path id="Trazado_636772" data-name="Trazado 636772" d="M1086.531,2673.356a.129.129,0,0,1-.047-.009.13.13,0,0,1-.077-.167,4.451,4.451,0,0,1,3.792-1.67h0a.133.133,0,0,1,0,.266,4.242,4.242,0,0,0-3.547,1.5A.135.135,0,0,1,1086.531,2673.356Z" transform="translate(-1086.399 -2671.511)" fill="#2c2225"/>
    </g>
    <g id="Grupo_953343" data-name="Grupo 953343" transform="translate(1052.034 2638.833)">
      <path id="Trazado_636773" data-name="Trazado 636773" d="M1096.508,2663.51h-.009a.133.133,0,0,1-.123-.142c.125-1.858-.743-3.136-1.392-3.309a.132.132,0,0,1-.093-.163.134.134,0,0,1,.162-.094c.867.231,1.713,1.726,1.587,3.583A.132.132,0,0,1,1096.508,2663.51Z" transform="translate(-1094.886 -2659.799)" fill="#2c2225"/>
    </g>
    <path id="Trazado_636774" data-name="Trazado 636774" d="M1104.345,2705.1l-.443.832-1.121,2.117-10.043,18.963-3.481,6.572.163,2.407,2.886,42.744-2.312,1.306-19.674-1.306,3.165-46.894a11.116,11.116,0,0,1,1.132-4.177l14.508-29.242Z" transform="translate(-36.627 -30.753)" fill="#0d3991"/>
    <path id="Trazado_636775" data-name="Trazado 636775" d="M1098.872,2729.923l-3.481,6.572.164,2.407-.031-.011c-.29-3.222-.543-4.1-1-4.944.711-.343,2.636-.8,8.164-14.363a22.7,22.7,0,0,0,1.852-9.682l4.371,1.059Z" transform="translate(-42.761 -33.66)" fill="#2c2225"/>
    <path id="Trazado_636776" data-name="Trazado 636776" d="M1092.3,2805.489c-.221,1-1.9,1.659-4.924,1.944a49.385,49.385,0,0,1-5.324.142c-.758-.016-1.485-.031-2.175-.064-1.148-.042-2.2-.094-3.16-.168-1.206-.095-2.253-.211-3.133-.358-1.985-.337-3.113-.816-3.27-1.5-.216-.969,1.853-1.959,6.856-1.248,1.043.148,2.211.369,3.513.679,1.737.416,3.222.706,4.492.9.432.069.837.122,1.216.163q.5.063.948.095C1091.475,2806.421,1092.3,2805.489,1092.3,2805.489Z" transform="translate(-36.622 -57.504)" fill="#2c2225"/>
    <path id="Trazado_636777" data-name="Trazado 636777" d="M1124.019,2812.211l-1.934.664a3.779,3.779,0,0,1-2.536-.031l-2-.742a2.253,2.253,0,0,1-1.469-2.148l.043-2.586a1.576,1.576,0,0,1,2.058-1.928s6,.856,6.877,1.7l.492,2.408A2.329,2.329,0,0,1,1124.019,2812.211Z" transform="translate(-48.214 -57.843)" fill="#2c2225"/>
    <path id="Trazado_636778" data-name="Trazado 636778" d="M1120.714,2809.482a24.743,24.743,0,0,1-4.449-2.365l8.187.045Z" transform="translate(-48.269 -58.294)" fill="#ffa058"/>
    <path id="Trazado_636779" data-name="Trazado 636779" d="M1130.231,2780.7a.3.3,0,0,1,.037.116c0,1.006-4.908,1.827-10.958,1.827-5.767,0-10.485-.742-10.917-1.685h-.063l.573-48.253-1.285-27.167,17.9,7.815-.1,2.043-.016.305c0,.048-.005.095-.005.148l-.037.7v.026l-.726,14.619a22.552,22.552,0,0,0,.137,3.823l.379,3.165a.04.04,0,0,1,.005.021l5.108,42.492Z" transform="translate(-46.078 -32.554)" fill="#0d3991"/>
    <g id="Grupo_953344" data-name="Grupo 953344" transform="translate(1059.563 2675.018)">
      <path id="Trazado_636780" data-name="Trazado 636780" d="M1107.891,2726.293a.133.133,0,0,1-.133-.129c-.185-6.223-.541-15.671-.758-16.2-.234-.566-1.489-1.239-1.953-1.451a.132.132,0,0,1-.066-.175.134.134,0,0,1,.176-.066c.072.033,1.766.813,2.088,1.591.306.739.731,14.7.778,16.29a.133.133,0,0,1-.128.137Z" transform="translate(-1104.97 -2708.264)" fill="#2c2225"/>
    </g>
    <g id="Grupo_953345" data-name="Grupo 953345" transform="translate(1061.475 2664.602)">
      <path id="Trazado_636781" data-name="Trazado 636781" d="M1107.723,2701.329a.133.133,0,0,1-.133-.128c-.022-.585-.037-1.261-.047-1.957-.025-1.71-.008-3.645.02-4.8a.142.142,0,0,1,.136-.13.133.133,0,0,1,.129.135c-.028,1.156-.046,3.086-.021,4.793.01.694.026,1.367.048,1.951a.133.133,0,0,1-.128.137Z" transform="translate(-1107.53 -2694.312)" fill="#2c2225"/>
    </g>
    <g id="Grupo_953346" data-name="Grupo 953346" transform="translate(1051.634 2664.934)">
      <path id="Trazado_636782" data-name="Trazado 636782" d="M1094.641,2699.1h-.159a.133.133,0,1,1,0-.265h.158c.832-.005,2.306-.028,3.332-.045l.479-.008.541-.014.63-3.9a.132.132,0,0,1,.152-.11.134.134,0,0,1,.11.152l-.648,4.012a.134.134,0,0,1-.128.112s-.258,0-.652.016l-.481.008C1096.949,2699.075,1095.474,2699.1,1094.641,2699.1Z" transform="translate(-1094.349 -2694.757)" fill="#2c2225"/>
    </g>
    <g id="Grupo_953347" data-name="Grupo 953347" transform="translate(1066.479 2664.581)">
      <path id="Trazado_636783" data-name="Trazado 636783" d="M1119.7,2698.981c-1.156,0-3.968-.053-4.632-.066a.133.133,0,0,1-.129-.112l-.706-4.365a.134.134,0,0,1,.11-.152.132.132,0,0,1,.153.11l.688,4.256c1.938.037,4.784.083,4.961.057a.137.137,0,0,1,.151.111.131.131,0,0,1-.1.152C1120.156,2698.978,1119.974,2698.981,1119.7,2698.981Z" transform="translate(-1114.233 -2694.284)" fill="#2c2225"/>
    </g>
    <g id="Grupo_953348" data-name="Grupo 953348" transform="translate(1051.445 2699.81)">
      <path id="Trazado_636784" data-name="Trazado 636784" d="M1095.7,2750.9a.133.133,0,0,1-.132-.125c-.106-1.591-.2-2.86-.29-3.878-.283-3.155-.531-4.059-.979-4.894-.058-.117-.12-.225-.187-.338a.133.133,0,1,1,.229-.134c.069.118.134.231.194.351.464.863.721,1.79,1.009,4.991.089,1.021.184,2.292.29,3.885a.132.132,0,0,1-.124.141Z" transform="translate(-1094.096 -2741.469)" fill="#2c2225"/>
    </g>
    <g id="Grupo_953349" data-name="Grupo 953349" transform="translate(1037.073 2698.437)">
      <path id="Trazado_636785" data-name="Trazado 636785" d="M1078.689,2740.654a.122.122,0,0,1-.055-.012c-1.875-.85-2.781-.825-3.211-.653a.555.555,0,0,0-.32.254.133.133,0,0,1-.171.076.131.131,0,0,1-.078-.167.768.768,0,0,1,.446-.4c.475-.2,1.457-.251,3.443.648a.133.133,0,0,1-.054.254Z" transform="translate(-1074.846 -2739.63)" fill="#2c2225"/>
    </g>
    <g id="Grupo_953350" data-name="Grupo 953350" transform="translate(1067.703 2698.526)">
      <path id="Trazado_636786" data-name="Trazado 636786" d="M1121.318,2740.684a.131.131,0,0,1-.055-.012c-3.183-1.443-5.161-.028-5.18-.014a.133.133,0,1,1-.158-.213c.085-.063,2.123-1.521,5.448-.014a.133.133,0,0,1-.055.254Z" transform="translate(-1115.872 -2739.75)" fill="#2c2225"/>
    </g>
    <path id="Trazado_636787" data-name="Trazado 636787" d="M1130.089,2734.938a22.542,22.542,0,0,0,.137,3.823l.379,3.165a19.4,19.4,0,0,1-1.39-8.789c.458-4.118,1.364-9.294,1.6-12.818Z" transform="translate(-51.528 -36.3)" fill="#2c2225"/>
    <g id="Grupo_953351" data-name="Grupo 953351" transform="translate(1035.163 2710.654)">
      <path id="Trazado_636788" data-name="Trazado 636788" d="M1072.422,2769.718h-.009a.133.133,0,0,1-.124-.141c.358-5.3,3.728-13.169,4.315-13.561a.133.133,0,0,1,.148.221c-.5.331-3.846,8.144-4.2,13.357A.133.133,0,0,1,1072.422,2769.718Z" transform="translate(-1072.288 -2755.994)" fill="#2c2225"/>
    </g>
    <g id="Grupo_953352" data-name="Grupo 953352" transform="translate(1048.417 2725.589)">
      <path id="Trazado_636789" data-name="Trazado 636789" d="M1096.889,2792.391a.133.133,0,0,1-.131-.118c-.579-5.177-3.872-10.923-5.641-14.01-.821-1.433-1.1-1.939-1.074-2.15a.133.133,0,0,1,.264.035,12.784,12.784,0,0,0,1.041,1.983c1.778,3.1,5.089,8.881,5.673,14.113a.132.132,0,0,1-.117.146Z" transform="translate(-1090.041 -2775.997)" fill="#2c2225"/>
    </g>
    <g id="Grupo_953353" data-name="Grupo 953353" transform="translate(1062.566 2696.831)">
      <path id="Trazado_636790" data-name="Trazado 636790" d="M1109.125,2751.568h0a.133.133,0,0,1-.131-.134c.076-6.343,2.627-13.022,3.492-13.914a.133.133,0,0,1,.191.185c-.706.726-3.34,7.156-3.417,13.732A.132.132,0,0,1,1109.125,2751.568Z" transform="translate(-1108.992 -2737.479)" fill="#2c2225"/>
    </g>
    <g id="Grupo_953354" data-name="Grupo 953354" transform="translate(1075.321 2714.55)">
      <path id="Trazado_636791" data-name="Trazado 636791" d="M1132.45,2774.184a.133.133,0,0,1-.129-.1c-1-4.187-5.831-12.173-6.216-12.653a.133.133,0,0,1,.208-.166c.388.485,5.261,8.536,6.267,12.758a.133.133,0,0,1-.1.16A.115.115,0,0,1,1132.45,2774.184Z" transform="translate(-1126.076 -2761.212)" fill="#2c2225"/>
    </g>
    <g id="Grupo_953355" data-name="Grupo 953355" transform="translate(1042.796 2681.524)">
      <path id="Trazado_636792" data-name="Trazado 636792" d="M1082.645,2722.549a.121.121,0,0,1-.06-.015.133.133,0,0,1-.058-.178,12.513,12.513,0,0,1,6.646-5.37.133.133,0,1,1,.088.25,12.232,12.232,0,0,0-6.5,5.241A.133.133,0,0,1,1082.645,2722.549Z" transform="translate(-1082.512 -2716.978)" fill="#2c2225"/>
    </g>
    <g id="Grupo_953356" data-name="Grupo 953356" transform="translate(1075.367 2676.885)">
      <path id="Trazado_636793" data-name="Trazado 636793" d="M1130.057,2716.04a.131.131,0,0,1-.131-.111,6.778,6.778,0,0,0-2.948-4.179c-.452-.35-.752-.582-.833-.809a.133.133,0,0,1,.25-.089,2.837,2.837,0,0,0,.746.688,7,7,0,0,1,3.048,4.344.133.133,0,0,1-.11.153A.1.1,0,0,1,1130.057,2716.04Z" transform="translate(-1126.138 -2710.765)" fill="#2c2225"/>
    </g>
    <g id="Grupo_953357" data-name="Grupo 953357" transform="translate(1050.475 2670.113)">
      <path id="Trazado_636794" data-name="Trazado 636794" d="M1092.93,2703.2a.13.13,0,0,1-.11-.059.133.133,0,0,1,.036-.185c.071-.047,1.793-1.169,6.345-1.261a.128.128,0,0,1,.135.13.133.133,0,0,1-.13.136c-4.46.091-6.186,1.206-6.2,1.217A.125.125,0,0,1,1092.93,2703.2Z" transform="translate(-1092.797 -2701.694)" fill="#2c2225"/>
    </g>
    <path id="Trazado_636795" data-name="Trazado 636795" d="M1086.861,2806.061c-1.2.316-3.722.975-6.514,1.532a37.019,37.019,0,0,1-8.2.927s.811-.616,1.906-1.454l3.586-2.744c1.043.148,2.211.369,3.513.679A48.562,48.562,0,0,0,1086.861,2806.061Z" transform="translate(-37.09 -57.586)" fill="#ffa058"/>
    <g id="Grupo_953358" data-name="Grupo 953358" transform="translate(1051.515 2660.975)">
      <path id="Trazado_636796" data-name="Trazado 636796" d="M1094.323,2693.276a.147.147,0,0,1-.039-.006.133.133,0,0,1-.088-.166c.635-2.062,2.938-3.088,3.8-3.475a3.1,3.1,0,0,0,.283-.133.127.127,0,0,1,.183-.005.138.138,0,0,1,.005.192,1.242,1.242,0,0,1-.363.19c-.837.373-3.06,1.363-3.658,3.309A.134.134,0,0,1,1094.323,2693.276Z" transform="translate(-1094.19 -2689.454)" fill="#2c2225"/>
    </g>
    <path id="Trazado_636797" data-name="Trazado 636797" d="M1078.138,2811.825v-1.8l-5.5,1.8h-8.789a5.149,5.149,0,0,1-2.444-.616.507.507,0,0,1,.163-.943l12.828-2.306,8.458-1.527c.432.068.837.122,1.216.163q.5.063.948.1l.037,1.359.095,3.775Z" transform="translate(-34.302 -58.121)" fill="#2c2225"/>
    <path id="Trazado_636798" data-name="Trazado 636798" d="M1118.269,2681.282c.508.259-2.037,2.475-2.656,1.861-2.558-2.533-4.815-5.272-4.668-6.083h0a.189.189,0,0,1,.3-.164A53.612,53.612,0,0,0,1118.269,2681.282Z" transform="translate(-46.919 -25.288)" fill="#ffa058"/>
    <g id="Grupo_953359" data-name="Grupo 953359" transform="translate(1050.115 2645.173)">
      <path id="Trazado_636799" data-name="Trazado 636799" d="M1109.08,2683.4a1.487,1.487,0,0,1-.27,1.156l-.1.13-2.792-14.262c.037-1.052-.287-1.315-.658-1.306l-12.782.024.379-.338a1.087,1.087,0,0,1,.87-.457l12-.06a.724.724,0,0,1,.714.593Z" transform="translate(-1092.357 -2668.29)" fill="#2c2225"/>
      <path id="Trazado_636800" data-name="Trazado 636800" d="M1106.144,2669.716l2.7,14.706a.53.53,0,0,1-.52.625h-12.239a.726.726,0,0,1-.71-.577l-3.048-14.666a.53.53,0,0,1,.517-.637l12.586-.044A.725.725,0,0,1,1106.144,2669.716Z" transform="translate(-1092.315 -2668.501)" fill="#bcd4ff"/>
      <path id="Trazado_636801" data-name="Trazado 636801" d="M1103.047,2676.171a1.28,1.28,0,1,1-1.182-1.1A1.155,1.155,0,0,1,1103.047,2676.171Z" transform="translate(-1094.4 -2670.007)" fill="#2c2225"/>
    </g>
    <g id="Grupo_953360" data-name="Grupo 953360" transform="translate(1016.329 2635.945)">
      <path id="Trazado_636802" data-name="Trazado 636802" d="M1067.015,2671.686l-5.429-3.76-1.216-.842,2.922-4.544.564.336,3.06,1.822A26.034,26.034,0,0,1,1067.015,2671.686Z" transform="translate(-1050.434 -2657.604)" fill="#ffa058"/>
      <path id="Trazado_636803" data-name="Trazado 636803" d="M1061.393,2662.53l-1.7,5.1s-5.5-.914-6.634-1.941c-.846-.768,1.805-4.2,1.805-4.2Z" transform="translate(-1048.539 -2657.339)" fill="#ffa058"/>
      <path id="Trazado_636804" data-name="Trazado 636804" d="M1064.924,2662.143c.417.388-2.636,1.823-3.064,1.064-1.766-3.137-3.188-6.39-2.825-7.129h0a.189.189,0,0,1,.334-.075A53.6,53.6,0,0,0,1064.924,2662.143Z" transform="translate(-1050.081 -2655.929)" fill="#ffa058"/>
      <path id="Trazado_636805" data-name="Trazado 636805" d="M1054.123,2661.854a1.587,1.587,0,0,1-.247-.09l-.114-.066c-.083-.046-.125-.082-.19-.124-.114-.08-.219-.159-.32-.24-.2-.161-.394-.326-.579-.495-.372-.337-.724-.689-1.062-1.052a26.563,26.563,0,0,1-1.905-2.379.264.264,0,0,1,.26-.413h0a1.845,1.845,0,0,1,1.081.61,17.316,17.316,0,0,0,1.385,1.358c.343.313.7.613,1.063.892.182.139.367.274.552.4.091.062.184.12.27.171.038.02.094.056.117.063l.044.02a.181.181,0,0,0-.078-.026Z" transform="translate(-1047.719 -2656.198)" fill="#ffa058"/>
      <path id="Trazado_636806" data-name="Trazado 636806" d="M1053.61,2663.042a1.9,1.9,0,0,1-.24-.083l-.12-.061c-.085-.042-.146-.08-.218-.12-.141-.078-.267-.158-.4-.239q-.387-.243-.758-.5c-.5-.344-.976-.705-1.439-1.093a16.427,16.427,0,0,1-2.565-2.735.192.192,0,0,1,.157-.3h0a1.833,1.833,0,0,1,1.391.6,10.392,10.392,0,0,0,1.73,1.522c.458.333.935.644,1.421.935q.365.219.735.417c.122.063.247.131.366.187.058.027.125.061.173.08l.078.033s-.022-.013-.034-.01Z" transform="translate(-1047.257 -2656.431)" fill="#ffa058"/>
      <path id="Trazado_636807" data-name="Trazado 636807" d="M1053.146,2664.8c-.067-.025-.146-.056-.2-.082l-.122-.063c-.085-.043-.15-.083-.225-.125-.146-.084-.283-.169-.421-.255-.273-.173-.541-.351-.8-.537-.523-.37-1.031-.759-1.518-1.177a20.97,20.97,0,0,1-2.744-2.83.246.246,0,0,1,.219-.392l.082.007a1.946,1.946,0,0,1,1.266.647,12.693,12.693,0,0,0,1.9,1.66c.481.362.983.7,1.495,1.014.256.158.517.307.777.451.13.07.262.141.39.2.063.029.132.066.188.089l.087.039c.016.005.01,0,.015.005Z" transform="translate(-1047.062 -2656.793)" fill="#ffa058"/>
      <path id="Trazado_636808" data-name="Trazado 636808" d="M1053.14,2666.481l-.17-.049-.113-.042-.213-.085c-.092-.037-.18-.076-.267-.116-.177-.08-.354-.16-.526-.247a15.434,15.434,0,0,1-1.863-1.1,12.967,12.967,0,0,1-2.6-2.5.265.265,0,0,1,.194-.424h0a1.328,1.328,0,0,1,1.064.415,8.857,8.857,0,0,0,1.974,1.528,14.133,14.133,0,0,0,1.8.89c.156.066.315.124.474.182.08.029.161.058.239.084l.177.056.083.025a.139.139,0,0,1,.029.006Z" transform="translate(-1047.129 -2657.448)" fill="#ffa058"/>
    </g>
    <g id="Grupo_953361" data-name="Grupo 953361" transform="translate(1057.038 2654.969)">
      <path id="Trazado_636809" data-name="Trazado 636809" d="M1110.075,2684.023a1.63,1.63,0,0,1-.287.044l-.146,0c-.105,0-.165-.013-.25-.019-.155-.017-.3-.038-.44-.064-.283-.048-.556-.106-.826-.171-.541-.129-1.071-.283-1.593-.455a29.391,29.391,0,0,1-3.12-1.3.292.292,0,0,1,.032-.538h0a2.044,2.044,0,0,1,1.376.015,19.19,19.19,0,0,0,2.07.58c.5.121,1.005.223,1.508.3.251.039,1.572.215,1.545.228Z" transform="translate(-1102.008 -2681.41)" fill="#ffa058"/>
      <path id="Trazado_636810" data-name="Trazado 636810" d="M1109.069,2685.269a1.9,1.9,0,0,1-.258.026l-.137,0c-.1,0-.169-.01-.252-.016-.164-.011-.316-.031-.473-.049-.308-.04-.614-.084-.916-.137-.606-.1-1.206-.232-1.8-.391a16.775,16.775,0,0,1-3.547-1.424.2.2,0,0,1,.015-.347h0a1.873,1.873,0,0,1,1.542-.048,10.557,10.557,0,0,0,2.255.663c.567.111,1.141.193,1.716.253.287.031.574.053.859.07.141.005.285.014.419.015.066,0,.141,0,.194,0l.086,0s-.025,0-.036.006Z" transform="translate(-1101.587 -2681.746)" fill="#ffa058"/>
      <path id="Trazado_636811" data-name="Trazado 636811" d="M1110.109,2687c-.073.006-.158.011-.221.01l-.14-.006c-.1,0-.175-.012-.263-.018-.17-.015-.334-.034-.5-.054-.327-.043-.651-.092-.973-.151-.643-.117-1.28-.259-1.909-.435a21.318,21.318,0,0,1-3.753-1.435.25.25,0,0,1,.034-.456l.079-.029a1.978,1.978,0,0,1,1.448.054,12.967,12.967,0,0,0,2.475.715c.6.128,1.209.223,1.818.294.3.036.609.062.911.083.15.008.3.017.448.02.07,0,.151,0,.212,0h.1c.017,0,.01,0,.016,0Z" transform="translate(-1101.748 -2682.146)" fill="#ffa058"/>
      <path id="Trazado_636812" data-name="Trazado 636812" d="M1111.02,2688.129l-.179.023-.122.008-.234.007c-.1,0-.2,0-.3,0-.2,0-.4,0-.593-.016a15.743,15.743,0,0,1-2.188-.259,13.228,13.228,0,0,1-3.455-1.263.27.27,0,0,1,.008-.476h0a1.356,1.356,0,0,1,1.163-.049,9.043,9.043,0,0,0,2.469.617,14.383,14.383,0,0,0,2.043.093c.172,0,.345-.013.517-.024.087-.006.174-.011.258-.021l.187-.02.088-.011a.165.165,0,0,1,.03-.006Z" transform="translate(-1102.152 -2682.573)" fill="#ffa058"/>
      <path id="Trazado_636813" data-name="Trazado 636813" d="M1120.415,2686.772l-2.517.579a10.415,10.415,0,0,1-2.939.252c-.521-.031-1.138-.073-1.769-.132a12.939,12.939,0,0,1-3.86-.716c-.959-.553,1.1-4.039,1.1-4.039l4.313-.069.505-.01-.063-.311s.511-.185,1.264-.442h.005C1118.072,2681.891,1119.462,2683.776,1120.415,2686.772Z" transform="translate(-1103.485 -2681.531)" fill="#ffa058"/>
    </g>
    <g id="Grupo_953362" data-name="Grupo 953362" transform="translate(1057.017 2656.364)">
      <path id="Trazado_636814" data-name="Trazado 636814" d="M1108.562,2685.635h-.012a17.189,17.189,0,0,1-6.916-2.1.146.146,0,0,1-.06-.187.122.122,0,0,1,.169-.057l.025.014a16.906,16.906,0,0,0,6.805,2.062.133.133,0,0,1,.121.144A.132.132,0,0,1,1108.562,2685.635Z" transform="translate(-1101.559 -2683.278)" fill="#a55012"/>
    </g>
    <g id="Grupo_953363" data-name="Grupo 953363" transform="translate(1057.51 2657.602)">
      <path id="Trazado_636815" data-name="Trazado 636815" d="M1108.627,2687.3h-.014a19.047,19.047,0,0,1-6.327-2.116.134.134,0,0,1-.05-.181.131.131,0,0,1,.181-.05,18.761,18.761,0,0,0,6.224,2.084.133.133,0,0,1-.013.265Z" transform="translate(-1102.219 -2684.936)" fill="#a55012"/>
    </g>
    <g id="Grupo_953364" data-name="Grupo 953364" transform="translate(1060.95 2656.632)">
      <path id="Trazado_636816" data-name="Trazado 636816" d="M1109.9,2684.567h-.01a11.917,11.917,0,0,1-2.972-.671.132.132,0,1,1,.094-.248,11.916,11.916,0,0,0,2.9.654.133.133,0,0,1-.01.266Z" transform="translate(-1106.828 -2683.638)" fill="#a55012"/>
    </g>
    <g id="Grupo_953365" data-name="Grupo 953365" transform="translate(1026.259 2639.759)">
      <path id="Trazado_636817" data-name="Trazado 636817" d="M1062.094,2664.23a.135.135,0,0,1-.085-.031,8.9,8.9,0,0,1-1.613-2.918l-.022-.056a.134.134,0,0,1,.068-.175.132.132,0,0,1,.174.066s.013.029.028.069a8.128,8.128,0,0,0,1.536,2.809.133.133,0,0,1-.084.235Z" transform="translate(-1060.363 -2661.039)" fill="#a55012"/>
    </g>
    <g id="Grupo_953366" data-name="Grupo 953366" transform="translate(1020.853 2640.095)">
      <path id="Trazado_636818" data-name="Trazado 636818" d="M1053.255,2665.227a.134.134,0,0,1-.122-.183l.066-.164c.428-1.054,1.224-3.017,2.025-3.38a.133.133,0,0,1,.11.242c-.7.32-1.534,2.365-1.888,3.238l-.066.164A.133.133,0,0,1,1053.255,2665.227Z" transform="translate(-1053.122 -2661.488)" fill="#a55012"/>
    </g>
    <g id="Grupo_953367" data-name="Grupo 953367" transform="translate(1025.924 2643.122)">
      <path id="Trazado_636819" data-name="Trazado 636819" d="M1060.046,2666.254a.133.133,0,0,1-.079-.24,2.725,2.725,0,0,1,2.985-.048.133.133,0,1,1-.179.2,2.461,2.461,0,0,0-2.647.064A.133.133,0,0,1,1060.046,2666.254Z" transform="translate(-1059.913 -2665.542)" fill="#a55012"/>
    </g>
    <g id="Grupo_953368" data-name="Grupo 953368" transform="translate(1019.19 2641.926)">
      <path id="Trazado_636820" data-name="Trazado 636820" d="M1052.785,2665.169a.127.127,0,0,1-.063-.017c-.4-.218-1.715-.934-1.767-.968a.133.133,0,0,1,.145-.223c.06.037,1.078.593,1.749.958a.133.133,0,0,1-.064.25Z" transform="translate(-1050.895 -2663.941)" fill="#a55012"/>
    </g>
    <g id="Grupo_953369" data-name="Grupo 953369" transform="translate(1018.354 2639.56)">
      <path id="Trazado_636821" data-name="Trazado 636821" d="M1053.123,2663.4a.133.133,0,0,1-.065-.016,24.672,24.672,0,0,1-3.241-2.379.133.133,0,0,1,.18-.2,24.556,24.556,0,0,0,3.191,2.343.133.133,0,0,1,.051.181A.132.132,0,0,1,1053.123,2663.4Z" transform="translate(-1049.774 -2660.772)" fill="#a55012"/>
    </g>
    <g id="Grupo_953370" data-name="Grupo 953370" transform="translate(1019.369 2638.856)">
      <path id="Trazado_636822" data-name="Trazado 636822" d="M1054.023,2662a.123.123,0,0,1-.05-.011,15.11,15.11,0,0,1-2.792-1.926.133.133,0,0,1,.172-.2,15.31,15.31,0,0,0,2.72,1.884.133.133,0,0,1-.051.256Z" transform="translate(-1051.134 -2659.829)" fill="#a55012"/>
    </g>
    <g id="Grupo_953371" data-name="Grupo 953371" transform="translate(1069.204 2618.06)">
      <path id="Trazado_636823" data-name="Trazado 636823" d="M1118.016,2632.967a.133.133,0,0,1-.112-.2,1.643,1.643,0,0,1,2-.647.133.133,0,1,1-.106.243,1.349,1.349,0,0,0-1.672.546A.133.133,0,0,1,1118.016,2632.967Z" transform="translate(-1117.883 -2631.974)" fill="#a55012"/>
    </g>
    <g id="Grupo_953372" data-name="Grupo 953372" transform="translate(1062.496 2637.239)">
      <path id="Trazado_636824" data-name="Trazado 636824" d="M1109.031,2661.777a.122.122,0,0,1-.058-.014.133.133,0,0,1-.061-.178,10.978,10.978,0,0,1,3.635-3.9.133.133,0,0,1,.145.222,10.7,10.7,0,0,0-3.541,3.8A.133.133,0,0,1,1109.031,2661.777Z" transform="translate(-1108.898 -2657.662)" fill="#2c2225"/>
    </g>
    <path id="Trazado_636825" data-name="Trazado 636825" d="M1199.008,2791.813l-2.054,16.364h-.031c0,.548-3.312.991-7.4.991s-7.4-.443-7.4-.991h-.031l-2.054-16.364Z" transform="translate(-64.427 -54.416)" fill="#3c49ab"/>
    <path id="Trazado_636826" data-name="Trazado 636826" d="M1199.008,2791.23a.255.255,0,0,1-.026.121.911.911,0,0,1-.474.427.016.016,0,0,1-.01.005c-1.048.558-3.634.985-6.835,1.117-.248.016-.5.021-.748.026-.326.01-.658.016-.99.016a.071.071,0,0,1-.047,0,1.363,1.363,0,0,1-.148.005h-.21c-.063,0-.131,0-.195-.005a.558.558,0,0,1-.095,0,1.978,1.978,0,0,1-.252,0c-.332,0-.659-.005-.985-.021a.073.073,0,0,1-.048,0c-.152,0-.305-.005-.458-.016h-.043q-.624-.023-1.216-.063a30.193,30.193,0,0,1-3.77-.464c-1.506-.305-2.423-.705-2.423-1.147,0-.238.258-.459.732-.664a16.517,16.517,0,0,1,4.318-.853c.217-.016.438-.037.659-.053.269-.021.548-.042.826-.058l.553-.031c.358-.016.721-.026,1.1-.037.19-.005.379-.01.569-.005a.872.872,0,0,1,.121-.005h.031a1.236,1.236,0,0,1,.195,0c.127-.005.258-.005.385-.005.348,0,.69.005,1.027.01a.329.329,0,0,1,.073.005c.569.005,1.127.031,1.659.058l.2.016C1196.27,2789.83,1199.008,2790.472,1199.008,2791.23Z" transform="translate(-64.427 -53.835)" fill="#2c2225"/>
    <path id="Trazado_636827" data-name="Trazado 636827" d="M1204.5,2751.878a3.756,3.756,0,0,1-.748,1.1,28.3,28.3,0,0,0-3.228,5.266c-.289.574-.563,1.159-.827,1.743-.632,1.385-1.227,2.791-1.77,4.224-.31.789-.605,1.59-.89,2.39-.226.647-.447,1.3-.664,1.954-.484,1.463-.927,2.949-1.358,4.439-.4,1.5-.827,3-1.2,4.513-.2.774-.39,1.554-.584,2.333-.027.126-.058.252-.09.385-.205.852-.411,1.711-.617,2.57-.01.052-.026.111-.036.163-.026.1-.047.2-.074.3h-.211c-.095,0-.195,0-.29-.005a2.072,2.072,0,0,1-.252,0c-.332,0-.659-.005-.985-.021a.076.076,0,0,1-.048,0c.005-.1.01-.206.016-.305.058-1.028.148-2.054.258-3.081q.1-1.02.237-2.038c.021-.142.037-.28.058-.416s.031-.264.053-.395a66.059,66.059,0,0,1,2.069-9.405,41.737,41.737,0,0,1,3.771-8.963c.021-.037.047-.079.068-.116a20.876,20.876,0,0,1,6.319-7.046c.264-.174.748-.305.964,0A.469.469,0,0,1,1204.5,2751.878Z" transform="translate(-67.112 -44.147)" fill="#ffc765"/>
    <path id="Trazado_636828" data-name="Trazado 636828" d="M1195.167,2753.176a27.684,27.684,0,0,1,.142,3.833c-.01.468-.031.953-.063,1.464-.058.911-.121,1.848-.2,2.791-.252,3.117-.632,6.335-1.142,9.162a41.793,41.793,0,0,1-.933,4.139,13.682,13.682,0,0,1-1.364,3.334c-.326.01-.658.016-.99.016a.071.071,0,0,1-.047,0,1.361,1.361,0,0,1-.148.005h-.211c-.095,0-.195,0-.29-.005a1.979,1.979,0,0,1-.252,0c-.332,0-.658-.005-.985-.021a.073.073,0,0,1-.048,0c-.152,0-.305-.005-.458-.016h-.043a15.62,15.62,0,0,1-1.7-3.244,45.606,45.606,0,0,1-1.917-6.077,63.8,63.8,0,0,1-1.259-6.508c-.11-.8-.205-1.58-.279-2.354-.095-.959-.158-1.9-.19-2.791a27.117,27.117,0,0,1,.132-4.065v-.006c.358-3.032,1.306-4.765,2.5-5.729a21.263,21.263,0,0,1,.069-8.052c1.1-5.224,4.8-9.3,7.225-8.789s3.481,5.666,2.385,10.89a21.641,21.641,0,0,1-2.344,6.1C1193.9,2748.289,1194.82,2750.1,1195.167,2753.176Z" transform="translate(-65.121 -38.809)" fill="#6e92de"/>
    <g id="Grupo_953373" data-name="Grupo 953373" transform="translate(1122.133 2691.322)">
      <path id="Trazado_636829" data-name="Trazado 636829" d="M1191.359,2777.871a.133.133,0,0,1-.126-.091c-1.257-3.747-2.7-10.345-2.423-20.494.454-16.572,5.262-27.005,5.311-27.11a.135.135,0,0,1,.177-.063.133.133,0,0,1,.063.177c-.049.1-4.834,10.492-5.285,27-.274,10.109,1.159,16.675,2.41,20.4a.133.133,0,0,1-.084.168A.131.131,0,0,1,1191.359,2777.871Z" transform="translate(-1188.775 -2730.101)" fill="#0d3991"/>
    </g>
    <path id="Trazado_636830" data-name="Trazado 636830" d="M1186.629,2781.074a1.892,1.892,0,0,1-.252,0c-.332,0-.658-.005-.985-.021a.07.07,0,0,1-.048,0c-.152,0-.305-.005-.458-.015-.153-.585-.305-1.169-.469-1.749-.158-.516-.305-1.032-.448-1.554-.289-1.037-.563-2.075-.884-3.1-.074-.237-.153-.48-.232-.716-.847-2.938-1.816-5.845-2.886-8.71q-.664-1.777-1.38-3.539c-1.833-4.534-3.908-8.979-6.156-13.308q-.972-1.871-1.964-3.734c-.358-.684-1.448-2.569.163-1.732a3,3,0,0,1,.627.406,50.254,50.254,0,0,1,8.373,12.69V2756a72.638,72.638,0,0,1,3.275,8.172c.7,2.07,1.332,4.171,1.853,6.294.153.647.253,1.321.4,1.975.063.279.137.558.227.827l.305,1.4c.063.322.11.643.163.969.027.148.048.3.074.443.084.532.174,1.058.258,1.59.069.411.131.816.19,1.227.037.232.068.464.1.7v.01C1186.539,2780.084,1186.582,2780.579,1186.629,2781.074Z" transform="translate(-61.827 -41.968)" fill="#ffc765"/>
    <path id="Trazado_636831" data-name="Trazado 636831" d="M1186.446,2786.11a.558.558,0,0,1-.095,0,1.978,1.978,0,0,1-.252,0c-.332,0-.659-.005-.985-.021a.073.073,0,0,1-.048,0c-.152,0-.305-.005-.458-.016h-.043q-.624-.023-1.216-.063c-.337-.837-.679-1.922-1.143-3.128a17.948,17.948,0,0,0-7.746-9.737,15.712,15.712,0,0,1-2.385-1.7c-3.7-3.213-4.318-7.141-2.143-8.484,1.98-1.221,5.14.427,8.378,3.744q.545.561,1.1,1.185.94,1.066,1.864,2.291a25.214,25.214,0,0,1,3.607,7.293c.3.942.553,1.875.753,2.775.074.347.237,1.348.395,2.444C1186.22,2784.03,1186.41,2785.51,1186.446,2786.11Z" transform="translate(-61.55 -47.003)" fill="#6e92de"/>
    <path id="Trazado_636832" data-name="Trazado 636832" d="M1221.776,2780.046c.557,2.722-.633,6.005-2.74,6.437s-4.331-2.153-4.888-4.874.7-5.277,2.805-5.709S1221.219,2777.325,1221.776,2780.046Z" transform="translate(-73.038 -50.368)" fill="#2c2225"/>
    <path id="Trazado_636833" data-name="Trazado 636833" d="M1208.2,2759.977c-.084.058-.174.11-.258.169.858,1.911.868,5.566-3.165,7.92a19.386,19.386,0,0,0-5.988,5.35,21.488,21.488,0,0,0-3.244,6.861c-.384,1.343-.611,2.491-.816,3.292-.248.016-.495.021-.748.026-.326.01-.658.016-.99.016-.021-.052-.047-.105-.068-.157s-.037-.09-.053-.137a11.857,11.857,0,0,1-.669-3.122,13.016,13.016,0,0,1,.122-3.4,44.968,44.968,0,0,1,2.09-7.82,28.967,28.967,0,0,1,3.27-6.271c.211-.311.426-.617.653-.917.806-1.079,1.654-2.164,2.57-3.186a20.514,20.514,0,0,1,5-4.244c1.343-.774,5.281-2.76,6.556-.875C1213.394,2754.842,1211.482,2757.755,1208.2,2759.977Z" transform="translate(-67.496 -44.504)" fill="#99bbfc"/>
    <path id="Trazado_636834" data-name="Trazado 636834" d="M1175.3,2777.435c.482,1.646-1.3,4.087-4.018,4.882s-5.327-.357-5.81-2,1.327-3.627,4.041-4.421S1174.814,2775.788,1175.3,2777.435Z" transform="translate(-60.717 -50.299)" fill="#2c2225"/>
    <path id="Trazado_636835" data-name="Trazado 636835" d="M1216.285,2783.4s-3.486-9.283-11.216,1.038a22.328,22.328,0,0,1-2.759,3.086c-.158.153-.316.295-.474.427a.016.016,0,0,1-.01.005c-1.048.558-3.634.985-6.835,1.117-.248.015-.495.021-.748.026-.326.01-.658.015-.99.015a.068.068,0,0,1-.047,0c-.01-.052-.016-.105-.021-.157a2.781,2.781,0,0,1-.016-.3,6.78,6.78,0,0,1,.617-2.57c.047-.122.105-.253.163-.379a19.7,19.7,0,0,1,2.591-4.082,27.645,27.645,0,0,1,2.512-2.706c.084-.079.169-.164.258-.242C1206.78,2771.775,1219.382,2773.145,1216.285,2783.4Z" transform="translate(-67.755 -50.004)" fill="#6e92de"/>
    <path id="Trazado_636836" data-name="Trazado 636836" d="M1184.281,2789.1a.076.076,0,0,1-.048,0c-.152,0-.305-.005-.458-.016h-.042c-.416-.015-.821-.037-1.216-.063a30.152,30.152,0,0,1-3.77-.464,14.4,14.4,0,0,1-1.69-1.811,15.08,15.08,0,0,1-2.37-4.35c-1.39-3.976-3.234-4.85-4.94-5.071-3.365-.438-4.355,1.937-4.355,1.937s.016-2.259,2.827-3.833a7.446,7.446,0,0,1,3.023-.974c2.238-.179,4.724.8,7.509,3.7a18.274,18.274,0,0,1,1.364,1.612,25.008,25.008,0,0,1,1.859,2.917,26.168,26.168,0,0,1,1.437,3.07,13.277,13.277,0,0,1,.837,3.044A3.064,3.064,0,0,1,1184.281,2789.1Z" transform="translate(-60.717 -50.012)" fill="#99bbfc"/>
    <g id="Grupo_953374" data-name="Grupo 953374" transform="translate(1134.794 2714.513)">
      <path id="Trazado_636837" data-name="Trazado 636837" d="M1211.606,2766.324a.128.128,0,0,1-.047-.009.133.133,0,0,1-.078-.171,5.577,5.577,0,0,0-.249-3.821,1.706,1.706,0,0,0-1.283-.861,5.129,5.129,0,0,0-3.988,1.507.133.133,0,1,1-.193-.183,5.344,5.344,0,0,1,4.216-1.587,1.963,1.963,0,0,1,1.475.988,5.8,5.8,0,0,1,.269,4.051A.133.133,0,0,1,1211.606,2766.324Z" transform="translate(-1205.733 -2761.163)" fill="#0d3991"/>
    </g>
    <g id="Grupo_953375" data-name="Grupo 953375" transform="translate(1128.844 2725.07)">
      <path id="Trazado_636838" data-name="Trazado 636838" d="M1197.9,2789.325a.133.133,0,0,1-.095-.226,20.487,20.487,0,0,0,3.247-4.933c1.6-3.011,3.26-6.125,6.941-7.785,4.936-2.234,7.786-.579,9.308,1.2a.133.133,0,0,1-.2.172c-2.1-2.455-5.209-2.846-9-1.133-3.6,1.623-5.234,4.7-6.817,7.668a20.671,20.671,0,0,1-3.293,5A.132.132,0,0,1,1197.9,2789.325Z" transform="translate(-1197.763 -2775.302)" fill="#0d3991"/>
    </g>
    <g id="Grupo_953376" data-name="Grupo 953376" transform="translate(1108.291 2724.346)">
      <path id="Trazado_636839" data-name="Trazado 636839" d="M1184.081,2789.148a.131.131,0,0,1-.111-.061,66.628,66.628,0,0,1-4.106-7.952c-2.84-6.17-6.2-6.722-7.957-6.5a.084.084,0,0,1-.037.005,4.4,4.4,0,0,0-1.4.407.284.284,0,0,1-.061.03.133.133,0,1,1-.083-.252,4.591,4.591,0,0,1,1.5-.446.232.232,0,0,1,.068-.008c1.811-.232,5.3.324,8.215,6.649a66.384,66.384,0,0,0,4.088,7.919.134.134,0,0,1-.04.184A.13.13,0,0,1,1184.081,2789.148Z" transform="translate(-1170.236 -2774.333)" fill="#0d3991"/>
    </g>
    <g id="Grupo_953377" data-name="Grupo 953377" transform="translate(1113.987 2717.228)">
      <path id="Trazado_636840" data-name="Trazado 636840" d="M1188.968,2786.816l-.018,0a.132.132,0,0,1-.114-.149c0-.028.352-2.8-1.769-8.86a26.251,26.251,0,0,0-9.143-12.76.133.133,0,0,1-.04-.183.131.131,0,0,1,.183-.04,26.512,26.512,0,0,1,9.252,12.895c2.146,6.132,1.8,8.872,1.781,8.985A.133.133,0,0,1,1188.968,2786.816Z" transform="translate(-1177.864 -2764.8)" fill="#0d3991"/>
    </g>
  </g>
</svg>
