<svg id="investigacion-de-mercado_1_" data-name="investigacion-de-mercado(1)" xmlns="http://www.w3.org/2000/svg" width="99.664" height="99.659" viewBox="0 0 99.664 99.659">
  <g id="Grupo_953227" data-name="Grupo 953227">
    <g id="Grupo_953223" data-name="Grupo 953223" transform="translate(0 0)">
      <circle id="Elipse_7785" data-name="Elipse 7785" cx="19.048" cy="19.048" r="19.048" transform="translate(0 26.934) rotate(-45)" fill="#60b7ff"/>
      <circle id="Elipse_7786" data-name="Elipse 7786" cx="16.682" cy="16.682" r="16.682" transform="translate(10.257 10.253)" fill="#8ac9fe"/>
      <path id="Trazado_634436" data-name="Trazado 634436" d="M112.609,112.618h19.048a19.04,19.04,0,0,1-9.523,16.5Z" transform="translate(-85.67 -85.684)" fill="#fd4755" fill-rule="evenodd"/>
      <path id="Trazado_634437" data-name="Trazado 634437" d="M112.609,112.618h16.682a16.675,16.675,0,0,1-8.34,14.449Z" transform="translate(-85.67 -85.684)" fill="#fe646f" fill-rule="evenodd"/>
      <path id="Trazado_634438" data-name="Trazado 634438" d="M131.657,27.056H112.609V8.008A19.048,19.048,0,0,1,131.657,27.056Z" transform="translate(-85.67 -0.122)" fill="#ffd064" fill-rule="evenodd"/>
      <path id="Trazado_634439" data-name="Trazado 634439" d="M129.291,37.688H112.609V21.006A16.682,16.682,0,0,1,129.291,37.688Z" transform="translate(-85.67 -10.753)" fill="#ffe177" fill-rule="evenodd"/>
    </g>
    <g id="Grupo_953224" data-name="Grupo 953224" transform="translate(55.008 7.383)">
      <path id="Trazado_634440" data-name="Trazado 634440" d="M268.81,5.245h4.913a2.054,2.054,0,0,1,2.05,2.05v4.913a2.054,2.054,0,0,1-2.05,2.05H268.81a2.054,2.054,0,0,1-2.05-2.05V7.295A2.054,2.054,0,0,1,268.81,5.245Z" transform="translate(-266.76 -5.245)" fill="#8ac9fe" fill-rule="evenodd"/>
      <path id="Trazado_634441" data-name="Trazado 634441" d="M268.81,87.87h4.913a2.054,2.054,0,0,1,2.05,2.05v4.913a2.054,2.054,0,0,1-2.05,2.05H268.81a2.054,2.054,0,0,1-2.05-2.05V89.92A2.054,2.054,0,0,1,268.81,87.87Z" transform="translate(-266.76 -72.825)" fill="#ffe177" fill-rule="evenodd"/>
      <path id="Trazado_634442" data-name="Trazado 634442" d="M268.81,170.5h4.913a2.054,2.054,0,0,1,2.05,2.05v4.913a2.054,2.054,0,0,1-2.05,2.05H268.81a2.054,2.054,0,0,1-2.05-2.05v-4.913A2.054,2.054,0,0,1,268.81,170.5Z" transform="translate(-266.76 -140.405)" fill="#fe646f" fill-rule="evenodd"/>
    </g>
    <g id="Grupo_953225" data-name="Grupo 953225" transform="translate(7.891 56.439)">
      <path id="Trazado_634443" data-name="Trazado 634443" d="M198.834,348.359h6.049a1.824,1.824,0,0,1,1.821,1.821v24.7a1.824,1.824,0,0,1-1.821,1.821h-6.049a1.824,1.824,0,0,1-1.821-1.821v-24.7A1.824,1.824,0,0,1,198.834,348.359Z" transform="translate(-162.596 -334.938)" fill="#ffe177" fill-rule="evenodd"/>
      <path id="Trazado_634444" data-name="Trazado 634444" d="M204.883,348.359a1.824,1.824,0,0,1,1.821,1.821v24.7a1.824,1.824,0,0,1-1.821,1.821h-6.049a1.824,1.824,0,0,1-1.821-1.821h6.049a1.824,1.824,0,0,0,1.821-1.821Z" transform="translate(-162.596 -334.938)" fill="#ffd064" fill-rule="evenodd"/>
      <path id="Trazado_634445" data-name="Trazado 634445" d="M295.42,348.359h6.049a1.824,1.824,0,0,1,1.821,1.821v24.7a1.824,1.824,0,0,1-1.821,1.821H295.42a1.824,1.824,0,0,1-1.821-1.821v-24.7A1.824,1.824,0,0,1,295.42,348.359Z" transform="translate(-241.595 -334.938)" fill="#fe646f" fill-rule="evenodd"/>
      <path id="Trazado_634446" data-name="Trazado 634446" d="M301.469,348.359a1.824,1.824,0,0,1,1.821,1.821v24.7a1.824,1.824,0,0,1-1.821,1.821H295.42a1.824,1.824,0,0,1-1.821-1.821h6.049a1.824,1.824,0,0,0,1.821-1.821Z" transform="translate(-241.595 -334.938)" fill="#fd4755" fill-rule="evenodd"/>
      <path id="Trazado_634447" data-name="Trazado 634447" d="M9.822,321.359h6.049a1.824,1.824,0,0,1,1.821,1.821V352.8a1.824,1.824,0,0,1-1.821,1.821H9.822A1.824,1.824,0,0,1,8,352.8V323.18A1.824,1.824,0,0,1,9.822,321.359Z" transform="translate(-8.001 -312.855)" fill="#6cf5c2" fill-rule="evenodd"/>
      <path id="Trazado_634448" data-name="Trazado 634448" d="M15.871,321.359a1.824,1.824,0,0,1,1.821,1.821V352.8a1.824,1.824,0,0,1-1.821,1.821H9.822A1.824,1.824,0,0,1,8,352.8H14.05a1.824,1.824,0,0,0,1.821-1.821Z" transform="translate(-8.001 -312.855)" fill="#00e499" fill-rule="evenodd"/>
      <path id="Trazado_634449" data-name="Trazado 634449" d="M102.248,274.655H108.3a1.824,1.824,0,0,1,1.821,1.821V314.6a1.824,1.824,0,0,1-1.821,1.821h-6.049a1.824,1.824,0,0,1-1.821-1.821V276.476A1.824,1.824,0,0,1,102.248,274.655Z" transform="translate(-83.597 -274.655)" fill="#8ac9fe" fill-rule="evenodd"/>
      <path id="Trazado_634450" data-name="Trazado 634450" d="M108.3,274.655a1.824,1.824,0,0,1,1.821,1.821V314.6a1.824,1.824,0,0,1-1.821,1.821h-6.049a1.824,1.824,0,0,1-1.821-1.821h6.049a1.824,1.824,0,0,0,1.821-1.821Z" transform="translate(-83.597 -274.655)" fill="#60b7ff" fill-rule="evenodd"/>
    </g>
    <g id="Grupo_953226" data-name="Grupo 953226" transform="translate(36.989 35.081)">
      <path id="Trazado_634451" data-name="Trazado 634451" d="M376.406,354.859a18.86,18.86,0,0,1-3.183,3.5l8.655,8.484,3.3-3.4Z" transform="translate(-335.818 -318.896)" fill="#a79ba7" fill-rule="evenodd"/>
      <path id="Trazado_634452" data-name="Trazado 634452" d="M386.792,354.538a2.174,2.174,0,0,1-.942,1.263l8.6,8.541,1.053-1.154Z" transform="translate(-346.146 -318.634)" fill="#837683" fill-rule="evenodd"/>
      <path id="Trazado_634453" data-name="Trazado 634453" d="M421.534,406.085l3.719-3.832a1.71,1.71,0,0,0-.036-2.411l-10.3-9.995a1.71,1.71,0,0,0-2.411.036l-3.719,3.832a1.71,1.71,0,0,0,.037,2.411l10.3,9.995A1.71,1.71,0,0,0,421.534,406.085Z" transform="translate(-364.514 -347.121)" fill="#f1ba84" fill-rule="evenodd"/>
      <path id="Trazado_634454" data-name="Trazado 634454" d="M434.324,389.847l10.3,9.995a1.71,1.71,0,0,1,.036,2.411l-3.719,3.832a1.691,1.691,0,0,1-.462.337,1.712,1.712,0,0,0,1.986-.337l3.719-3.832a1.71,1.71,0,0,0-.036-2.411l-10.3-9.995a1.712,1.712,0,0,0-1.949-.3A1.681,1.681,0,0,1,434.324,389.847Z" transform="translate(-385.446 -347.121)" fill="#e3a76f" fill-rule="evenodd"/>
      <circle id="Elipse_7787" data-name="Elipse 7787" cx="18.756" cy="18.756" r="18.756" transform="translate(0 26.521) rotate(-45)" fill="#8ac9fe"/>
      <path id="Trazado_634455" data-name="Trazado 634455" d="M309.425,200a18.756,18.756,0,1,1,0,37.512q-.458,0-.91-.022a18.756,18.756,0,0,0,0-37.467C308.817,200.009,309.12,200,309.425,200Z" transform="translate(-282.893 -192.236)" fill="#60b7ff" fill-rule="evenodd"/>
      <circle id="Elipse_7788" data-name="Elipse 7788" cx="13.468" cy="13.468" r="13.468" transform="translate(7.477 26.521) rotate(-45)" fill="#eceff1"/>
      <path id="Trazado_634456" data-name="Trazado 634456" d="M253.02,229.042c.306,0,.61.011.91.031a13.467,13.467,0,0,0,0,26.873c-.3.02-.6.031-.91.031a13.468,13.468,0,0,1,0-26.936Z" transform="translate(-226.487 -215.989)" fill="#d1d1d6" fill-rule="evenodd"/>
    </g>
  </g>
  <path id="Trazado_634457" data-name="Trazado 634457" d="M26.522,90.324H19.745V51.475h6.777ZM27.98,48.562H18.289a1.456,1.456,0,0,0-1.457,1.456V91.781a1.456,1.456,0,0,0,1.457,1.457H27.98a1.458,1.458,0,0,0,1.457-1.457V50.018a1.458,1.458,0,0,0-1.457-1.456ZM57.088,43.17a12.011,12.011,0,1,1-12.01,12.011A12.025,12.025,0,0,1,57.088,43.17Zm0,26.935A14.924,14.924,0,1,0,42.164,55.181,14.941,14.941,0,0,0,57.088,70.1ZM90.25,82.777,86.53,86.61a.256.256,0,0,1-.351.005l-10.3-9.994a.239.239,0,0,1-.073-.175.232.232,0,0,1,.068-.176l3.718-3.834a.248.248,0,0,1,.175-.073h0a.243.243,0,0,1,.173.068l10.3,9.995A.257.257,0,0,1,90.25,82.777ZM61.7,90.324H54.92V75.276a20.278,20.278,0,0,0,6.778-.413V90.324Zm-17.588,0H37.331V64.9h2.038a20.345,20.345,0,0,0,4.74,5.766ZM57.088,37.881a17.3,17.3,0,1,0,17.3,17.3A17.319,17.319,0,0,0,57.088,37.881Zm-6.554-4.869h5.093v2.009a20.057,20.057,0,0,0-5.093,1.038Zm25.742,38.66-1.268,1.3-3.625-3.517q.642-.644,1.225-1.344Zm16,8.664-10.3-10a3.164,3.164,0,0,0-3.51-.606l-4.133-4.011a20.178,20.178,0,0,0-3.837-25.658h7.193a1.457,1.457,0,1,0,0-2.913H66.22a20.053,20.053,0,0,0-7.678-2.13V31.556A1.457,1.457,0,0,0,57.085,30.1H49.078a1.457,1.457,0,0,0-1.456,1.458v5.771a20.21,20.21,0,0,0-9.568,24.655H35.875a1.456,1.456,0,0,0-1.457,1.457V91.781a1.456,1.456,0,0,0,1.457,1.457h9.691a1.456,1.456,0,0,0,1.457-1.457V72.7a20.067,20.067,0,0,0,4.984,2.041V91.781a1.456,1.456,0,0,0,1.457,1.457h9.691a1.457,1.457,0,0,0,1.457-1.457V73.942a20.179,20.179,0,0,0,4.564-2.569l3.964,3.848a3.169,3.169,0,0,0,.714,3.491l10.3,9.994a3.167,3.167,0,0,0,4.472-.068l3.718-3.833a3.166,3.166,0,0,0-.067-4.47ZM9.692,90.324H2.915V59.98H9.692Zm1.457-33.258H1.459A1.456,1.456,0,0,0,0,58.523V91.781a1.456,1.456,0,0,0,1.457,1.457h9.69a1.456,1.456,0,0,0,1.457-1.457V58.523a1.456,1.456,0,0,0-1.457-1.457ZM62.136,32.508a1.457,1.457,0,0,1,1.456-1.456H91.775a1.456,1.456,0,1,1,0,2.913H63.592a1.457,1.457,0,0,1-1.456-1.457Zm-11.6-14.542h5.093v5.093H50.535Zm-1.457,8.006h8.007a1.456,1.456,0,0,0,1.457-1.457V16.51a1.457,1.457,0,0,0-1.457-1.457H49.078a1.457,1.457,0,0,0-1.456,1.457v8.006A1.456,1.456,0,0,0,49.078,25.973Zm13.058-2.41a1.457,1.457,0,0,1,1.456-1.457H77.685a1.457,1.457,0,1,1,0,2.913H63.592a1.458,1.458,0,0,1-1.456-1.457Zm0-6.1a1.458,1.458,0,0,1,1.456-1.457H91.775a1.457,1.457,0,0,1,0,2.913H63.592a1.457,1.457,0,0,1-1.456-1.457ZM50.535,2.922h5.093V8.014H50.535Zm-1.457,8.006h8.007a1.456,1.456,0,0,0,1.457-1.457V1.465A1.457,1.457,0,0,0,57.085.008H49.078a1.457,1.457,0,0,0-1.456,1.457V9.471A1.456,1.456,0,0,0,49.078,10.928Zm13.058-2.41a1.457,1.457,0,0,1,1.456-1.457H77.685a1.457,1.457,0,1,1,0,2.913H63.592a1.458,1.458,0,0,1-1.456-1.457Zm0-6.1A1.458,1.458,0,0,1,63.592.962H91.775a1.457,1.457,0,1,1,0,2.913H63.592a1.457,1.457,0,0,1-1.456-1.457ZM19.05,2.983V20.513a1.455,1.455,0,0,0,.2.738l8.884,15.112A17.591,17.591,0,1,1,19.05,2.983ZM38.038,19.065A17.621,17.621,0,0,0,21.963,2.983V19.058ZM30.644,34.883,23.052,21.971l14.984.007A17.6,17.6,0,0,1,30.644,34.883ZM20.506,41.018a20.5,20.5,0,1,1,20.505-20.5A20.528,20.528,0,0,1,20.506,41.018Z" transform="translate(6.432 6.421)" fill-rule="evenodd"/>
</svg>
