<svg xmlns="http://www.w3.org/2000/svg" width="164" height="164" viewBox="0 0 164 164">
  <g id="Grupo_959318" data-name="Grupo 959318" transform="translate(-377 -1857)">
    <g id="Grupo_81380" data-name="Grupo 81380" transform="translate(197.186 575.265)">
      <g id="Grupo_930456" data-name="Grupo 930456" transform="translate(195.146 1283.954)">
        <circle id="Elipse_7667" data-name="Elipse 7667" cx="65.203" cy="65.203" r="65.203" transform="translate(0 14.578)" fill="#ff3c00"/>
        <g id="analitica" transform="translate(45.641 53.9)">
          <g id="Grupo_959330" data-name="Grupo 959330" transform="translate(-35.334 -35.298)">
            <g id="Grupo_959325" data-name="Grupo 959325" transform="translate(0)">
              <circle id="Elipse_7903" data-name="Elipse 7903" cx="21.544" cy="21.544" r="21.544" transform="translate(0 30.464) rotate(-45)" fill="#60b7ff"/>
              <circle id="Elipse_7904" data-name="Elipse 7904" cx="18.868" cy="18.868" r="18.868" transform="translate(3.785 30.464) rotate(-45)" fill="#8ac9fe"/>
              <path id="Trazado_654407" data-name="Trazado 654407" d="M112.608,112.62h21.544a21.535,21.535,0,0,1-10.771,18.661Z" transform="translate(-82.139 -82.156)" fill="#fd4755" fill-rule="evenodd"/>
              <path id="Trazado_654408" data-name="Trazado 654408" d="M112.608,112.62h18.868a18.86,18.86,0,0,1-9.432,16.342Z" transform="translate(-82.139 -82.156)" fill="#fe646f" fill-rule="evenodd"/>
              <path id="Trazado_654409" data-name="Trazado 654409" d="M134.152,29.554H112.608V8.01A21.545,21.545,0,0,1,134.152,29.554Z" transform="translate(-82.139 0.909)" fill="#ffd064" fill-rule="evenodd"/>
              <path id="Trazado_654410" data-name="Trazado 654410" d="M131.476,39.876H112.608V21.008A18.868,18.868,0,0,1,131.476,39.876Z" transform="translate(-82.139 -9.412)" fill="#ffe177" fill-rule="evenodd"/>
            </g>
            <g id="Grupo_959326" data-name="Grupo 959326" transform="translate(62.216 8.35)">
              <path id="Trazado_654411" data-name="Trazado 654411" d="M269.077,5.247h5.557a2.323,2.323,0,0,1,2.318,2.318v5.557a2.323,2.323,0,0,1-2.318,2.318h-5.557a2.323,2.323,0,0,1-2.318-2.318V7.565a2.323,2.323,0,0,1,2.318-2.318Z" transform="translate(-266.759 -5.247)" fill="#8ac9fe" fill-rule="evenodd"/>
              <path id="Trazado_654412" data-name="Trazado 654412" d="M269.077,87.873h5.557a2.323,2.323,0,0,1,2.318,2.318v5.557a2.323,2.323,0,0,1-2.318,2.318h-5.557a2.323,2.323,0,0,1-2.318-2.318V90.191A2.323,2.323,0,0,1,269.077,87.873Z" transform="translate(-266.759 -70.856)" fill="#ffe177" fill-rule="evenodd"/>
              <path id="Trazado_654413" data-name="Trazado 654413" d="M269.077,170.5h5.557a2.323,2.323,0,0,1,2.318,2.318v5.557a2.323,2.323,0,0,1-2.318,2.318h-5.557a2.323,2.323,0,0,1-2.318-2.318v-5.557A2.323,2.323,0,0,1,269.077,170.5Z" transform="translate(-266.759 -136.464)" fill="#fe646f" fill-rule="evenodd"/>
            </g>
            <g id="Grupo_959327" data-name="Grupo 959327" transform="translate(8.925 63.836)">
              <path id="Trazado_654414" data-name="Trazado 654414" d="M199.072,348.361h6.841a2.063,2.063,0,0,1,2.06,2.059v27.937a2.063,2.063,0,0,1-2.06,2.06h-6.841a2.063,2.063,0,0,1-2.06-2.06V350.421A2.063,2.063,0,0,1,199.072,348.361Z" transform="translate(-158.085 -333.182)" fill="#ffe177" fill-rule="evenodd"/>
              <path id="Trazado_654415" data-name="Trazado 654415" d="M205.913,348.361a2.063,2.063,0,0,1,2.06,2.059v27.937a2.063,2.063,0,0,1-2.06,2.06h-6.841a2.063,2.063,0,0,1-2.06-2.06h6.841a2.063,2.063,0,0,0,2.06-2.06Z" transform="translate(-158.085 -333.182)" fill="#ffd064" fill-rule="evenodd"/>
              <path id="Trazado_654416" data-name="Trazado 654416" d="M295.656,348.361H302.5a2.063,2.063,0,0,1,2.06,2.059v27.937a2.063,2.063,0,0,1-2.06,2.06h-6.841a2.063,2.063,0,0,1-2.06-2.06V350.421A2.064,2.064,0,0,1,295.656,348.361Z" transform="translate(-234.778 -333.182)" fill="#fe646f" fill-rule="evenodd"/>
              <path id="Trazado_654417" data-name="Trazado 654417" d="M302.5,348.361a2.063,2.063,0,0,1,2.06,2.059v27.937a2.063,2.063,0,0,1-2.06,2.06h-6.841a2.063,2.063,0,0,1-2.06-2.06h6.841a2.063,2.063,0,0,0,2.06-2.06Z" transform="translate(-234.778 -333.182)" fill="#fd4755" fill-rule="evenodd"/>
              <path id="Trazado_654418" data-name="Trazado 654418" d="M10.06,321.361H16.9a2.063,2.063,0,0,1,2.06,2.06v33.5a2.063,2.063,0,0,1-2.06,2.06H10.06A2.063,2.063,0,0,1,8,356.919v-33.5A2.063,2.063,0,0,1,10.06,321.361Z" transform="translate(-8 -311.742)" fill="#6cf5c2" fill-rule="evenodd"/>
              <path id="Trazado_654419" data-name="Trazado 654419" d="M16.9,321.361a2.063,2.063,0,0,1,2.06,2.06v33.5a2.063,2.063,0,0,1-2.06,2.06H10.06A2.063,2.063,0,0,1,8,356.919h6.841a2.063,2.063,0,0,0,2.06-2.06Z" transform="translate(-8 -311.742)" fill="#00e499" fill-rule="evenodd"/>
              <path id="Trazado_654420" data-name="Trazado 654420" d="M102.486,274.658h6.841a2.063,2.063,0,0,1,2.06,2.06v43.117a2.063,2.063,0,0,1-2.06,2.06h-6.841a2.063,2.063,0,0,1-2.06-2.06V276.717A2.063,2.063,0,0,1,102.486,274.658Z" transform="translate(-81.391 -274.658)" fill="#8ac9fe" fill-rule="evenodd"/>
              <path id="Trazado_654421" data-name="Trazado 654421" d="M109.327,274.658a2.063,2.063,0,0,1,2.06,2.06v43.117a2.063,2.063,0,0,1-2.06,2.06h-6.841a2.063,2.063,0,0,1-2.06-2.06h6.841a2.063,2.063,0,0,0,2.06-2.06Z" transform="translate(-81.391 -274.658)" fill="#60b7ff" fill-rule="evenodd"/>
            </g>
            <g id="Grupo_959328" data-name="Grupo 959328" transform="translate(41.836 39.679)">
              <path id="Trazado_654422" data-name="Trazado 654422" d="M376.821,354.862a21.335,21.335,0,0,1-3.6,3.964l9.789,9.6,3.727-3.841Z" transform="translate(-330.914 -314.187)" fill="#a79ba7" fill-rule="evenodd"/>
              <path id="Trazado_654423" data-name="Trazado 654423" d="M386.915,354.541a2.459,2.459,0,0,1-1.066,1.429l9.725,9.661,1.191-1.3Z" transform="translate(-340.942 -313.932)" fill="#837683" fill-rule="evenodd"/>
              <path id="Trazado_654424" data-name="Trazado 654424" d="M423.266,408.277l4.206-4.335a1.934,1.934,0,0,0-.041-2.727l-11.65-11.3a1.934,1.934,0,0,0-2.727.041l-4.206,4.335a1.934,1.934,0,0,0,.041,2.727l11.65,11.3A1.934,1.934,0,0,0,423.266,408.277Z" transform="translate(-358.773 -341.587)" fill="#f1ba84" fill-rule="evenodd"/>
              <path id="Trazado_654425" data-name="Trazado 654425" d="M434.378,389.911l11.65,11.3a1.934,1.934,0,0,1,.041,2.727l-4.206,4.335a1.914,1.914,0,0,1-.522.382,1.936,1.936,0,0,0,2.246-.382l4.206-4.335a1.934,1.934,0,0,0-.041-2.727l-11.65-11.3a1.936,1.936,0,0,0-2.2-.341A1.923,1.923,0,0,1,434.378,389.911Z" transform="translate(-379.094 -341.587)" fill="#e3a76f" fill-rule="evenodd"/>
              <circle id="Elipse_7905" data-name="Elipse 7905" cx="21.214" cy="21.214" r="21.214" transform="translate(0 29.996) rotate(-45)" fill="#eceff1"/>
              <path id="Trazado_654426" data-name="Trazado 654426" d="M309.544,200a21.214,21.214,0,0,1,0,42.427q-.518,0-1.03-.025a21.213,21.213,0,0,0,0-42.377Q309.026,200,309.544,200Z" transform="translate(-279.534 -191.222)" fill="#d1d1d6" fill-rule="evenodd"/>
            </g>
            <g id="Grupo_959329" data-name="Grupo 959329" transform="translate(56.399 54.227)">
              <circle id="Elipse_7906" data-name="Elipse 7906" cx="15.446" cy="15.446" r="15.446" transform="translate(0 0)" fill="#837683"/>
              <path id="Trazado_654427" data-name="Trazado 654427" d="M320.918,243.452a15.448,15.448,0,0,1-14.073,15.386q.679.06,1.373.06a15.589,15.589,0,0,0,2.21-.157l.279-.043a15.448,15.448,0,0,0-2.489-30.693q-.694,0-1.373.06a15.448,15.448,0,0,1,14.073,15.386Z" transform="translate(-292.772 -228.005)" fill="#685e68" fill-rule="evenodd"/>
              <path id="Trazado_654428" data-name="Trazado 654428" d="M272.161,310.239a10.791,10.791,0,0,0-10.725,9.626,15.4,15.4,0,0,0,10.725,4.331,15.585,15.585,0,0,0,2.21-.157,15.4,15.4,0,0,0,8.514-4.174A10.788,10.788,0,0,0,272.161,310.239Z" transform="translate(-256.715 -293.303)" fill="#8ac9fe" fill-rule="evenodd"/>
              <path id="Trazado_654429" data-name="Trazado 654429" d="M306.847,310.326c6.421.816,9.008,5.674,9.6,11.5a15.5,15.5,0,0,0,2.494-1.957,10.788,10.788,0,0,0-10.724-9.626A10.9,10.9,0,0,0,306.847,310.326Z" transform="translate(-292.774 -293.303)" fill="#60b7ff" fill-rule="evenodd"/>
              <circle id="Elipse_7907" data-name="Elipse 7907" cx="5.454" cy="5.454" r="5.454" transform="translate(9.993 5.213)" fill="#f6dccd"/>
              <path id="Trazado_654430" data-name="Trazado 654430" d="M314.948,258.772a5.455,5.455,0,0,1-4.767,5.411,5.509,5.509,0,0,0,.686.043,5.454,5.454,0,1,0,0-10.908,5.509,5.509,0,0,0-.686.043A5.455,5.455,0,0,1,314.948,258.772Z" transform="translate(-295.421 -248.105)" fill="#f1cbbc" fill-rule="evenodd"/>
            </g>
          </g>
          <path id="Trazado_654431" data-name="Trazado 654431" d="M50.766,62.412a13.715,13.715,0,0,0,2.278,7.581,12.4,12.4,0,0,1,6.394-6.64,7.1,7.1,0,1,1,10.255,0,12.41,12.41,0,0,1,6.394,6.64,13.8,13.8,0,1,0-25.322-7.581Zm13.8-.158a3.806,3.806,0,1,1,3.806-3.807A3.81,3.81,0,0,1,64.565,62.254Zm0,13.957a13.733,13.733,0,0,1-8.96-3.319,9.141,9.141,0,0,1,17.924,0A13.741,13.741,0,0,1,64.565,76.21Zm-17.094-13.8A17.094,17.094,0,1,1,64.565,79.506,17.114,17.114,0,0,1,47.471,62.412ZM29.994,58.22H22.328v43.94h7.666Zm3.295-1.648v47.236a1.649,1.649,0,0,1-1.647,1.648H20.681a1.648,1.648,0,0,1-1.648-1.648V56.573a1.647,1.647,0,0,1,1.648-1.648H31.642a1.648,1.648,0,0,1,1.647,1.648Zm68.777,36.654-11.65-11.3a.27.27,0,0,0-.193-.077h-.007a.276.276,0,0,0-.2.083l-4.206,4.334a.289.289,0,0,0,.007.4l11.648,11.3a.29.29,0,0,0,.4-.006l4.207-4.335A.289.289,0,0,0,102.066,93.226ZM69.778,84.673a22.914,22.914,0,0,1-7.665.467v17.02h7.665ZM49.884,79.922a23.025,23.025,0,0,1-5.36-6.522h-2.3v28.76h7.665ZM45,62.412A19.566,19.566,0,1,1,64.565,81.978,19.588,19.588,0,0,1,45,62.412ZM57.152,40.784a22.7,22.7,0,0,1,5.761-1.175V37.338H57.152ZM82.12,77.039c-.439.527-.9,1.035-1.386,1.52l4.1,3.98,1.433-1.476Zm22.317,18.88-4.205,4.334a3.581,3.581,0,0,1-5.058.076l-11.648-11.3a3.583,3.583,0,0,1-.808-3.949l-4.483-4.351a22.851,22.851,0,0,1-5.161,2.905v20.178a1.649,1.649,0,0,1-1.647,1.648H60.465a1.648,1.648,0,0,1-1.648-1.648V84.54a22.686,22.686,0,0,1-5.636-2.31v21.578a1.648,1.648,0,0,1-1.648,1.648H40.572a1.648,1.648,0,0,1-1.647-1.648V71.752A1.647,1.647,0,0,1,40.572,70.1h2.465A22.86,22.86,0,0,1,53.858,42.217V35.69a1.648,1.648,0,0,1,1.648-1.648h9.056a1.648,1.648,0,0,1,1.648,1.648v3.92a22.685,22.685,0,0,1,8.684,2.41H87.86a1.648,1.648,0,1,1,0,3.3H79.725a22.823,22.823,0,0,1,4.339,29.02l4.674,4.536a3.587,3.587,0,0,1,3.973.687l11.649,11.305a3.579,3.579,0,0,1,.076,5.056ZM10.958,67.839H3.293V102.16h7.665Zm3.3-1.647v37.617a1.648,1.648,0,0,1-1.648,1.648H1.645A1.648,1.648,0,0,1,0,103.808V66.192a1.647,1.647,0,0,1,1.648-1.648H12.606a1.647,1.647,0,0,1,1.648,1.648Zm42.9-40.111h5.761v-5.76H57.152Zm-3.295,1.648V18.673a1.647,1.647,0,0,1,1.648-1.647h9.056a1.647,1.647,0,0,1,1.648,1.647v9.056a1.648,1.648,0,0,1-1.648,1.648H55.505A1.648,1.648,0,0,1,53.857,27.729Zm18.066.569H87.86a1.648,1.648,0,1,0,0-3.3H71.923a1.648,1.648,0,0,0,0,3.3Zm0-6.9H103.8a1.648,1.648,0,0,0,0-3.3H71.923a1.648,1.648,0,0,0,0,3.3ZM57.152,9.064h5.761V3.3H57.152Zm-3.295,1.648V1.657A1.647,1.647,0,0,1,55.505.009h9.056a1.648,1.648,0,0,1,1.648,1.648v9.055a1.647,1.647,0,0,1-1.648,1.648H55.505A1.647,1.647,0,0,1,53.857,10.712Zm18.066.569H87.86a1.647,1.647,0,1,0,0-3.295H71.923a1.647,1.647,0,0,0,0,3.295Zm0-6.9H103.8a1.648,1.648,0,0,0,0-3.3H71.923a1.648,1.648,0,0,0,0,3.3ZM3.293,23.2A19.9,19.9,0,0,0,31.817,41.128L21.768,24.036a1.662,1.662,0,0,1-.226-.836V3.373A19.924,19.924,0,0,0,3.293,23.2ZM24.837,3.373A19.933,19.933,0,0,1,43.019,21.562l-18.182-.008ZM43.016,24.858,26.069,24.85l8.586,14.6a19.9,19.9,0,0,0,8.361-14.6ZM0,23.2A23.192,23.192,0,1,0,23.19.009,23.22,23.22,0,0,0,0,23.2ZM70.276,36.769a1.647,1.647,0,0,0,1.647,1.647H103.8a1.647,1.647,0,1,0,0-3.295H71.923A1.647,1.647,0,0,0,70.276,36.769Z" transform="translate(-28.055 -28.036)" fill-rule="evenodd"/>
        </g>
      </g>
      <rect id="Rectángulo_305736" data-name="Rectángulo 305736" width="164" height="164" transform="translate(179.814 1281.735)" fill="none"/>
    </g>
  </g>
</svg>
