<svg xmlns="http://www.w3.org/2000/svg" width="164" height="164" viewBox="0 0 164 164">
  <g id="Grupo_959324" data-name="Grupo 959324" transform="translate(-377 -1857)">
    <g id="Grupo_81380" data-name="Grupo 81380" transform="translate(197.186 575.265)">
      <g id="Grupo_930456" data-name="Grupo 930456" transform="translate(195.146 1283.954)">
        <circle id="Elipse_7667" data-name="Elipse 7667" cx="65.203" cy="65.203" r="65.203" transform="translate(0 14.578)" fill="#ff3c00"/>
        <g id="contratacion" transform="translate(14.784 28.016)">
          <path id="Trazado_654518" data-name="Trazado 654518" d="M64.775,300.737H8V286.251a10.02,10.02,0,0,1,6.851-9.505l18.2-6.066V264H53.086v6.679l11.689,3.9Zm0,0" transform="translate(-6.33 -208.895)" fill="#ff826e"/>
          <path id="Trazado_654519" data-name="Trazado 654519" d="M128,256h20.038v18.368H128Zm0,0" transform="translate(-101.282 -202.565)" fill="#f0d0b4"/>
          <path id="Trazado_654520" data-name="Trazado 654520" d="M64,44.737V31.378a23.378,23.378,0,1,1,46.756,0V44.737Zm0,0" transform="translate(-50.641 -6.33)" fill="#b27946"/>
          <path id="Trazado_654521" data-name="Trazado 654521" d="M128,261.639a19.874,19.874,0,0,0,20.038,0V256H128Zm0,0" transform="translate(-101.282 -202.565)" fill="#ecc19c"/>
          <path id="Trazado_654522" data-name="Trazado 654522" d="M129.4,127.514V136.7a16.7,16.7,0,1,1-33.4,0v-9.184a7.515,7.515,0,0,1,12.023-6.012l4.675,3.507,4.675-3.507a7.515,7.515,0,0,1,12.023,6.012Zm0,0" transform="translate(-75.962 -94.952)" fill="#f0d0b4"/>
          <path id="Trazado_654523" data-name="Trazado 654523" d="M70.679,152a6.679,6.679,0,0,0,0,13.359h33.4a6.679,6.679,0,0,0,0-13.359Zm0,0" transform="translate(-50.641 -120.273)" fill="#f0d0b4"/>
          <path id="Trazado_654524" data-name="Trazado 654524" d="M186.019,296,176,306.019l11.689,8.349,3.34-16.7Zm0,0" transform="translate(-139.263 -234.215)" fill="#e6e9ed"/>
          <path id="Trazado_654525" data-name="Trazado 654525" d="M109.01,296l10.019,10.019-11.689,8.349L104,297.67Zm0,0" transform="translate(-82.292 -234.215)" fill="#e6e9ed"/>
          <path id="Trazado_654526" data-name="Trazado 654526" d="M59.34,395.689V384L56,395.689Zm0,0" transform="translate(-44.311 -303.847)" fill="#fc6e51"/>
          <path id="Trazado_654527" data-name="Trazado 654527" d="M267.34,310.448,264,309.336V336.61h3.34Zm0,0" transform="translate(-208.895 -244.768)" fill="#fc6e51"/>
          <path id="Trazado_654528" data-name="Trazado 654528" d="M323.416,298.1H280V248h33.4l10.019,10.019Zm0,0" transform="translate(-221.555 -196.234)" fill="#e6e9ed"/>
          <path id="Trazado_654529" data-name="Trazado 654529" d="M443.689,258.019,433.67,248H432v13.359h11.689Zm0,0" transform="translate(-341.828 -196.234)" fill="#ccd1d9"/>
          <path id="Trazado_654530" data-name="Trazado 654530" d="M440,248v10.019h10.019Zm0,0" transform="translate(-348.158 -196.234)" fill="#b4dd7f"/>
          <path id="Trazado_654531" data-name="Trazado 654531" d="M392,392h13.359v13.359H392Zm0,0" transform="translate(-310.177 -310.177)" fill="#b4dd7f"/>
          <path id="Trazado_654532" data-name="Trazado 654532" d="M361.4,72.7A16.7,16.7,0,1,1,344.7,56,16.7,16.7,0,0,1,361.4,72.7Zm0,0" transform="translate(-259.536 -44.311)" fill="#fcd770"/>
          <path id="Trazado_654533" data-name="Trazado 654533" d="M131.34,161.67a1.67,1.67,0,1,1-1.67-1.67A1.67,1.67,0,0,1,131.34,161.67Zm0,0" transform="translate(-101.282 -126.603)"/>
          <path id="Trazado_654534" data-name="Trazado 654534" d="M211.34,161.67a1.67,1.67,0,1,1-1.67-1.67A1.67,1.67,0,0,1,211.34,161.67Zm0,0" transform="translate(-164.584 -126.603)"/>
          <path id="Trazado_654535" data-name="Trazado 654535" d="M150.679,222.679A6.686,6.686,0,0,0,157.359,216h-3.34a3.34,3.34,0,1,1-6.679,0H144A6.686,6.686,0,0,0,150.679,222.679Zm0,0" transform="translate(-113.943 -170.914)"/>
          <path id="Trazado_654536" data-name="Trazado 654536" d="M56.775,50.1V63.364L48.426,60.58V55.9a18.4,18.4,0,0,0,5.993-9.248,8.331,8.331,0,0,0,7.366-8.249V25.048a25.048,25.048,0,1,0-50.1,0V38.407a8.331,8.331,0,0,0,7.366,8.249A18.4,18.4,0,0,0,25.048,55.9V60.58L7.992,66.268A11.671,11.671,0,0,0,0,77.355V93.512H56.775v10.019h46.756V61.093l-11-11Zm36.737,5.7,4.318,4.318H93.512ZM49.839,64.572,47.293,77.293l-7.982-5.7,7.9-7.9Zm5.2-21.441c.035-.459.07-.917.07-1.384V33.7a4.979,4.979,0,0,1-.07,9.426ZM15.029,38.407a5,5,0,0,1,3.34-4.7v8.042c0,.467.035.925.07,1.384a5,5,0,0,1-3.41-4.724Zm3.66-8.212a8.26,8.26,0,0,0-3.66,1.576V25.048a21.708,21.708,0,1,1,43.416,0V31.77a8.26,8.26,0,0,0-3.66-1.576,9.173,9.173,0,0,0-14.374-4.978L36.737,27.97l-3.672-2.753a9.174,9.174,0,0,0-14.376,4.978Zm3.019,11.552V32.562a5.846,5.846,0,0,1,9.353-4.675l5.676,4.258,5.677-4.258a5.844,5.844,0,0,1,9.351,4.675v9.184a15.029,15.029,0,1,1-30.057,0ZM36.737,60.115a18.249,18.249,0,0,0,8.349-2.027v3.005l-8.349,8.349-8.349-8.349V58.088A18.249,18.249,0,0,0,36.737,60.115ZM26.267,63.7l7.9,7.9-7.982,5.7L23.635,64.572ZM16.7,90.172V80.153h-3.34V90.172H3.34V77.355a8.338,8.338,0,0,1,5.709-7.92l11.394-3.8,3.475,17.376,12.819-9.157,12.822,9.157,3.474-17.376,3.743,1.246V90.172Zm43.416,10.019V53.435H90.172V63.455h10.019v36.737Zm0,0"/>
          <path id="Trazado_654537" data-name="Trazado 654537" d="M384,400.7h16.7V384H384Zm3.34-13.359h10.019v10.019H387.34Zm0,0" transform="translate(-303.847 -303.847)"/>
          <path id="Trazado_654538" data-name="Trazado 654538" d="M304,448h13.359v3.34H304Zm0,0" transform="translate(-240.545 -354.488)"/>
          <path id="Trazado_654539" data-name="Trazado 654539" d="M304,416h13.359v3.34H304Zm0,0" transform="translate(-240.545 -329.167)"/>
          <path id="Trazado_654540" data-name="Trazado 654540" d="M304,384h13.359v3.34H304Zm0,0" transform="translate(-240.545 -303.847)"/>
          <path id="Trazado_654541" data-name="Trazado 654541" d="M304,272h3.34v3.34H304Zm0,0" transform="translate(-240.545 -215.225)"/>
          <path id="Trazado_654542" data-name="Trazado 654542" d="M336,272h16.7v3.34H336Zm0,0" transform="translate(-265.866 -215.225)"/>
          <path id="Trazado_654543" data-name="Trazado 654543" d="M304,304h23.378v3.34H304Zm0,0" transform="translate(-240.545 -240.545)"/>
          <path id="Trazado_654544" data-name="Trazado 654544" d="M448,336h3.34v3.34H448Zm0,0" transform="translate(-354.488 -265.866)"/>
          <path id="Trazado_654545" data-name="Trazado 654545" d="M304,336h26.718v3.34H304Zm0,0" transform="translate(-240.545 -265.866)"/>
          <path id="Trazado_654546" data-name="Trazado 654546" d="M338.368,84.737a18.339,18.339,0,0,0,14.944-29.011l2.985-3.258-2.462-2.257-2.718,2.964a18.359,18.359,0,1,0-12.749,31.562Zm0-33.4a14.97,14.97,0,0,1,10.5,4.293L336.522,69.1l-7.13-5.7L327.3,66l9.568,7.655,14.122-15.406a15.014,15.014,0,1,1-12.626-6.912Zm0,0" transform="translate(-253.206 -37.981)"/>
        </g>
      </g>
      <rect id="Rectángulo_305736" data-name="Rectángulo 305736" width="164" height="164" transform="translate(179.814 1281.735)" fill="none"/>
    </g>
  </g>
</svg>
