<svg xmlns="http://www.w3.org/2000/svg" width="353" height="77" viewBox="0 0 353 77">
  <g id="Grupo_962228" data-name="Grupo 962228" transform="translate(2620 7410)">
    <path id="Trazado_655462" data-name="Trazado 655462" d="M11,0H342a11,11,0,0,1,11,11V66a11,11,0,0,1-11,11H11A11,11,0,0,1,0,66V11A11,11,0,0,1,11,0Z" transform="translate(-2620 -7410)" fill="#fff"/>
    <path id="Trazado_655466" data-name="Trazado 655466" d="M-73.937-4.617a12.079,12.079,0,0,1,.473-3.391,9.85,9.85,0,0,1,1.41-2.953,6,6,0,0,1,1.945-1.875l.3.953a6.222,6.222,0,0,0-1.871,2.672,11.583,11.583,0,0,0-.8,4.023l-.008.664a11.643,11.643,0,0,0,1.1,5.234,6.252,6.252,0,0,0,1.578,2.078l-.3.883a6.192,6.192,0,0,1-1.984-1.937A10.859,10.859,0,0,1-73.937-4.617ZM-63.812,0h-1.453V-9.633l-2.914,1.07V-9.875l4.141-1.555h.227Zm4.336,2.266L-60.3,1.7a3.77,3.77,0,0,0,.766-2.109v-1.3h1.414V-.578A3.559,3.559,0,0,1-58.5,1,3.7,3.7,0,0,1-59.477,2.266ZM-50.9-5a3.536,3.536,0,0,1-1.082.867,2.936,2.936,0,0,1-1.379.328,3.031,3.031,0,0,1-1.715-.484A3.149,3.149,0,0,1-56.2-5.652a4.648,4.648,0,0,1-.4-1.941,4.735,4.735,0,0,1,.434-2.055,3.185,3.185,0,0,1,1.23-1.4,3.509,3.509,0,0,1,1.859-.484,3.177,3.177,0,0,1,2.66,1.262,5.5,5.5,0,0,1,.973,3.441v.422q0,3.32-1.312,4.848A5.043,5.043,0,0,1-54.719.008H-55V-1.219h.3a3.979,3.979,0,0,0,2.75-.932A4,4,0,0,0-50.9-5Zm-2.227,0a2.232,2.232,0,0,0,1.34-.445,2.625,2.625,0,0,0,.895-1.1v-.578a3.977,3.977,0,0,0-.617-2.312,1.842,1.842,0,0,0-1.562-.891A1.856,1.856,0,0,0-54.6-9.6a3.013,3.013,0,0,0-.578,1.926,3.136,3.136,0,0,0,.559,1.918A1.769,1.769,0,0,0-53.125-5Zm11.344-6.383v1.227h-.266a3.805,3.805,0,0,0-2.687,1A4.161,4.161,0,0,0-45.891-6.43a3.085,3.085,0,0,1,2.453-1.031,2.95,2.95,0,0,1,2.371,1.047,4.038,4.038,0,0,1,.887,2.7A4.025,4.025,0,0,1-41.137-.9,3.3,3.3,0,0,1-43.7.156,3.247,3.247,0,0,1-46.352-1.1a4.97,4.97,0,0,1-1.016-3.23v-.555a7.488,7.488,0,0,1,1.34-4.8,4.921,4.921,0,0,1,3.988-1.7Zm-1.9,5.125a2.306,2.306,0,0,0-1.367.445A2.32,2.32,0,0,0-45.914-4.7v.531A3.731,3.731,0,0,0-45.281-1.9a1.9,1.9,0,0,0,1.578.859,1.838,1.838,0,0,0,1.535-.719,2.982,2.982,0,0,0,.559-1.883,2.983,2.983,0,0,0-.566-1.895A1.816,1.816,0,0,0-43.68-6.258Zm6.844-1.426-2.359-.7.359-1.178,2.359.874-.07-2.685h1.2l-.078,2.724,2.32-.859.359,1.186-2.4.71L-33.6-5.5l-.969.734-1.453-2.25-1.406,2.2-.977-.711ZM-26.828,0h-1.453V-9.633L-31.2-8.562V-9.875l4.141-1.555h.227Zm4.336,2.266-.82-.562a3.77,3.77,0,0,0,.766-2.109v-1.3h1.414V-.578A3.559,3.559,0,0,1-21.52,1,3.7,3.7,0,0,1-22.492,2.266ZM-13.914-5A3.536,3.536,0,0,1-15-4.133a2.936,2.936,0,0,1-1.379.328,3.031,3.031,0,0,1-1.715-.484,3.149,3.149,0,0,1-1.129-1.363,4.648,4.648,0,0,1-.4-1.941,4.735,4.735,0,0,1,.434-2.055,3.185,3.185,0,0,1,1.23-1.4,3.509,3.509,0,0,1,1.859-.484,3.177,3.177,0,0,1,2.66,1.262,5.5,5.5,0,0,1,.973,3.441v.422q0,3.32-1.312,4.848A5.043,5.043,0,0,1-17.734.008h-.281V-1.219h.3a3.979,3.979,0,0,0,2.75-.932A4,4,0,0,0-13.914-5Zm-2.227,0a2.232,2.232,0,0,0,1.34-.445,2.625,2.625,0,0,0,.895-1.1v-.578a3.977,3.977,0,0,0-.617-2.312,1.842,1.842,0,0,0-1.562-.891,1.856,1.856,0,0,0-1.531.73A3.013,3.013,0,0,0-18.2-7.672a3.136,3.136,0,0,0,.559,1.918A1.769,1.769,0,0,0-16.141-5ZM-4.8-11.383v1.227h-.266a3.805,3.805,0,0,0-2.687,1A4.161,4.161,0,0,0-8.906-6.43,3.085,3.085,0,0,1-6.453-7.461,2.95,2.95,0,0,1-4.082-6.414a4.038,4.038,0,0,1,.887,2.7A4.025,4.025,0,0,1-4.152-.9,3.3,3.3,0,0,1-6.719.156,3.247,3.247,0,0,1-9.367-1.1a4.97,4.97,0,0,1-1.016-3.23v-.555a7.488,7.488,0,0,1,1.34-4.8,4.921,4.921,0,0,1,3.988-1.7ZM-6.7-6.258a2.306,2.306,0,0,0-1.367.445A2.32,2.32,0,0,0-8.93-4.7v.531A3.731,3.731,0,0,0-8.3-1.9a1.9,1.9,0,0,0,1.578.859,1.838,1.838,0,0,0,1.535-.719,2.982,2.982,0,0,0,.559-1.883,2.983,2.983,0,0,0-.566-1.895A1.816,1.816,0,0,0-6.7-6.258ZM2-4.539A12.084,12.084,0,0,1,1.543-1.2,9.876,9.876,0,0,1,.145,1.75,6.127,6.127,0,0,1-1.828,3.672l-.3-.883A6.281,6.281,0,0,0-.2-.074,12.387,12.387,0,0,0,.547-4.383v-.25A12.861,12.861,0,0,0,.2-7.684a10.3,10.3,0,0,0-.957-2.527,5.838,5.838,0,0,0-1.379-1.742l.3-.883A6.1,6.1,0,0,1,.137-10.93a9.9,9.9,0,0,1,1.4,2.945A12.363,12.363,0,0,1,2-4.539ZM9.672-7.684l-2.359-.7.359-1.178,2.359.874-.07-2.685h1.2l-.078,2.724L13.4-9.51l.359,1.186-2.4.71L12.906-5.5l-.969.734-1.453-2.25-1.406,2.2L8.1-5.527ZM26.023-4.852a6.61,6.61,0,0,1-.867,3.773A3.084,3.084,0,0,1,22.445.156a3.107,3.107,0,0,1-2.7-1.207,6.274,6.274,0,0,1-.906-3.605v-1.93a6.463,6.463,0,0,1,.867-3.727,3.108,3.108,0,0,1,2.719-1.219,3.136,3.136,0,0,1,2.7,1.176,6.237,6.237,0,0,1,.891,3.629ZM24.578-6.828A5.3,5.3,0,0,0,24.063-9.5a1.775,1.775,0,0,0-1.633-.84,1.751,1.751,0,0,0-1.617.836,5.171,5.171,0,0,0-.523,2.57v2.313A5.381,5.381,0,0,0,20.824-1.9a1.771,1.771,0,0,0,1.621.879,1.747,1.747,0,0,0,1.59-.828,5.186,5.186,0,0,0,.543-2.609Zm3.4,9.094-.82-.562a3.77,3.77,0,0,0,.766-2.109v-1.3h1.414V-.578A3.559,3.559,0,0,1,28.949,1,3.7,3.7,0,0,1,27.977,2.266ZM31.68-5.7l.578-5.672h5.828v1.336h-4.6l-.344,3.1a3.671,3.671,0,0,1,1.9-.492A3.138,3.138,0,0,1,37.508-6.4a4.026,4.026,0,0,1,.914,2.777,3.886,3.886,0,0,1-.949,2.77A3.46,3.46,0,0,1,34.82.156,3.6,3.6,0,0,1,32.359-.68a3.337,3.337,0,0,1-1.086-2.312h1.367a2.3,2.3,0,0,0,.7,1.473,2.162,2.162,0,0,0,1.484.5A1.95,1.95,0,0,0,36.4-1.711a2.874,2.874,0,0,0,.574-1.9,2.638,2.638,0,0,0-.621-1.832A2.113,2.113,0,0,0,34.7-6.133a2.383,2.383,0,0,0-1.484.414l-.383.313Zm13.914-1.98-2.359-.7.359-1.178,2.359.874-.07-2.685h1.2L47-8.651l2.32-.859.359,1.186-2.4.71L48.828-5.5l-.969.734-1.453-2.25L45-4.816l-.977-.711ZM61.945-4.852a6.61,6.61,0,0,1-.867,3.773A3.084,3.084,0,0,1,58.367.156a3.107,3.107,0,0,1-2.7-1.207,6.274,6.274,0,0,1-.906-3.605v-1.93a6.463,6.463,0,0,1,.867-3.727,3.108,3.108,0,0,1,2.719-1.219,3.136,3.136,0,0,1,2.7,1.176,6.237,6.237,0,0,1,.891,3.629ZM60.5-6.828A5.3,5.3,0,0,0,59.984-9.5a1.775,1.775,0,0,0-1.633-.84,1.751,1.751,0,0,0-1.617.836,5.171,5.171,0,0,0-.523,2.57v2.313A5.381,5.381,0,0,0,56.746-1.9a1.771,1.771,0,0,0,1.621.879,1.747,1.747,0,0,0,1.59-.828A5.186,5.186,0,0,0,60.5-4.461Zm3.4,9.094-.82-.562a3.77,3.77,0,0,0,.766-2.109v-1.3h1.414V-.578A3.559,3.559,0,0,1,64.871,1,3.7,3.7,0,0,1,63.9,2.266ZM67.6-5.7l.578-5.672h5.828v1.336h-4.6l-.344,3.1a3.671,3.671,0,0,1,1.9-.492A3.138,3.138,0,0,1,73.43-6.4a4.026,4.026,0,0,1,.914,2.777,3.886,3.886,0,0,1-.949,2.77A3.46,3.46,0,0,1,70.742.156,3.6,3.6,0,0,1,68.281-.68,3.337,3.337,0,0,1,67.2-2.992h1.367a2.3,2.3,0,0,0,.7,1.473,2.162,2.162,0,0,0,1.484.5,1.95,1.95,0,0,0,1.582-.687,2.874,2.874,0,0,0,.574-1.9,2.638,2.638,0,0,0-.621-1.832,2.113,2.113,0,0,0-1.652-.691,2.383,2.383,0,0,0-1.484.414l-.383.313Z" transform="translate(-2382 -7379)" fill="#12263f"/>
    <path id="Trazado_655467" data-name="Trazado 655467" d="M-29.422-4.852a6.61,6.61,0,0,1-.867,3.773A3.084,3.084,0,0,1-33,.156a3.107,3.107,0,0,1-2.7-1.207A6.274,6.274,0,0,1-36.6-4.656v-1.93a6.463,6.463,0,0,1,.867-3.727,3.108,3.108,0,0,1,2.719-1.219,3.136,3.136,0,0,1,2.7,1.176,6.237,6.237,0,0,1,.891,3.629Zm-1.445-1.977A5.3,5.3,0,0,0-31.383-9.5a1.775,1.775,0,0,0-1.633-.84,1.751,1.751,0,0,0-1.617.836,5.171,5.171,0,0,0-.523,2.57v2.313A5.381,5.381,0,0,0-34.621-1.9,1.771,1.771,0,0,0-33-1.023a1.747,1.747,0,0,0,1.59-.828,5.186,5.186,0,0,0,.543-2.609Zm3.4,9.094-.82-.562a3.77,3.77,0,0,0,.766-2.109v-1.3h1.414V-.578A3.559,3.559,0,0,1-26.5,1,3.7,3.7,0,0,1-27.469,2.266ZM-17.3-4.852a6.61,6.61,0,0,1-.867,3.773A3.084,3.084,0,0,1-20.875.156a3.107,3.107,0,0,1-2.7-1.207,6.274,6.274,0,0,1-.906-3.605v-1.93a6.463,6.463,0,0,1,.867-3.727,3.108,3.108,0,0,1,2.719-1.219,3.136,3.136,0,0,1,2.7,1.176A6.237,6.237,0,0,1-17.3-6.727Zm-1.445-1.977A5.3,5.3,0,0,0-19.258-9.5a1.775,1.775,0,0,0-1.633-.84,1.751,1.751,0,0,0-1.617.836,5.171,5.171,0,0,0-.523,2.57v2.313A5.381,5.381,0,0,0-22.5-1.9a1.771,1.771,0,0,0,1.621.879,1.747,1.747,0,0,0,1.59-.828,5.186,5.186,0,0,0,.543-2.609Zm5.4.438h1.086a2.387,2.387,0,0,0,1.609-.539,1.8,1.8,0,0,0,.586-1.414,1.764,1.764,0,0,0-1.992-2,2.072,2.072,0,0,0-1.5.535,1.873,1.873,0,0,0-.559,1.418h-1.445a2.9,2.9,0,0,1,.988-2.246,3.6,3.6,0,0,1,2.512-.895,3.558,3.558,0,0,1,2.523.852,3.076,3.076,0,0,1,.914,2.367A2.5,2.5,0,0,1-9.1-6.875a2.9,2.9,0,0,1-1.309,1.039,2.8,2.8,0,0,1,1.449.984,2.734,2.734,0,0,1,.512,1.68,3.1,3.1,0,0,1-1,2.43,3.745,3.745,0,0,1-2.6.9,3.844,3.844,0,0,1-2.605-.867,2.877,2.877,0,0,1-1-2.289H-14.2a1.859,1.859,0,0,0,.586,1.438,2.229,2.229,0,0,0,1.57.539,2.187,2.187,0,0,0,1.6-.547,2.108,2.108,0,0,0,.555-1.57A1.912,1.912,0,0,0-10.5-4.664a2.655,2.655,0,0,0-1.758-.547h-1.086ZM-.867-7.684l-2.359-.7.359-1.178,2.359.874-.07-2.685h1.2L.539-8.651l2.32-.859.359,1.186-2.4.71L2.367-5.5,1.4-4.762-.055-7.012l-1.406,2.2-.977-.711ZM15.484-4.852a6.61,6.61,0,0,1-.867,3.773A3.084,3.084,0,0,1,11.906.156a3.107,3.107,0,0,1-2.7-1.207A6.274,6.274,0,0,1,8.3-4.656v-1.93a6.463,6.463,0,0,1,.867-3.727,3.108,3.108,0,0,1,2.719-1.219,3.136,3.136,0,0,1,2.7,1.176,6.237,6.237,0,0,1,.891,3.629ZM14.039-6.828A5.3,5.3,0,0,0,13.523-9.5a1.775,1.775,0,0,0-1.633-.84,1.751,1.751,0,0,0-1.617.836,5.171,5.171,0,0,0-.523,2.57v2.313A5.381,5.381,0,0,0,10.285-1.9a1.771,1.771,0,0,0,1.621.879,1.747,1.747,0,0,0,1.59-.828,5.186,5.186,0,0,0,.543-2.609Zm3.4,9.094-.82-.562a3.77,3.77,0,0,0,.766-2.109v-1.3H18.8V-.578A3.559,3.559,0,0,1,18.41,1,3.7,3.7,0,0,1,17.438,2.266ZM27.609-4.852a6.61,6.61,0,0,1-.867,3.773A3.084,3.084,0,0,1,24.031.156a3.107,3.107,0,0,1-2.7-1.207,6.274,6.274,0,0,1-.906-3.605v-1.93a6.463,6.463,0,0,1,.867-3.727,3.108,3.108,0,0,1,2.719-1.219,3.136,3.136,0,0,1,2.7,1.176,6.237,6.237,0,0,1,.891,3.629ZM26.164-6.828A5.3,5.3,0,0,0,25.648-9.5a1.775,1.775,0,0,0-1.633-.84,1.751,1.751,0,0,0-1.617.836,5.171,5.171,0,0,0-.523,2.57v2.313A5.381,5.381,0,0,0,22.41-1.9a1.771,1.771,0,0,0,1.621.879,1.747,1.747,0,0,0,1.59-.828,5.186,5.186,0,0,0,.543-2.609Zm5.4.438h1.086a2.387,2.387,0,0,0,1.609-.539,1.8,1.8,0,0,0,.586-1.414,1.764,1.764,0,0,0-1.992-2,2.072,2.072,0,0,0-1.5.535A1.873,1.873,0,0,0,30.8-8.391H29.352a2.9,2.9,0,0,1,.988-2.246,3.6,3.6,0,0,1,2.512-.895,3.558,3.558,0,0,1,2.523.852,3.076,3.076,0,0,1,.914,2.367,2.5,2.5,0,0,1-.48,1.438A2.9,2.9,0,0,1,34.5-5.836a2.8,2.8,0,0,1,1.449.984,2.734,2.734,0,0,1,.512,1.68,3.1,3.1,0,0,1-1,2.43,3.745,3.745,0,0,1-2.6.9,3.844,3.844,0,0,1-2.605-.867A2.877,2.877,0,0,1,29.25-3H30.7a1.859,1.859,0,0,0,.586,1.438,2.229,2.229,0,0,0,1.57.539,2.187,2.187,0,0,0,1.6-.547,2.108,2.108,0,0,0,.555-1.57,1.912,1.912,0,0,0-.609-1.523,2.655,2.655,0,0,0-1.758-.547H31.563Z" transform="translate(-2409 -7347)" fill="#12263f"/>
    <path id="Trazado_655465" data-name="Trazado 655465" d="M0,0H213" transform="translate(-2492.5 -7371.5)" fill="none" stroke="#2c6ec4" stroke-width="4"/>
    <path id="Trazado_655463" data-name="Trazado 655463" d="M-34.375,0h-1.508l-5.727-8.766V0h-1.508V-11.375h1.508l5.742,8.8v-8.8h1.492Zm7.656-.836A3.07,3.07,0,0,1-29.2.156a2.628,2.628,0,0,1-2.059-.785,3.4,3.4,0,0,1-.715-2.324v-5.5h1.445v5.461q0,1.922,1.563,1.922a2.163,2.163,0,0,0,2.2-1.234V-8.453h1.445V0h-1.375Zm4.961-7.617.039.938a3.122,3.122,0,0,1,2.508-1.094A2.417,2.417,0,0,1-16.8-7.25a3.2,3.2,0,0,1,1.1-.984,3.242,3.242,0,0,1,1.6-.375q2.781,0,2.828,2.945V0h-1.445V-5.578a1.941,1.941,0,0,0-.414-1.355,1.823,1.823,0,0,0-1.391-.449,1.916,1.916,0,0,0-1.336.48,1.949,1.949,0,0,0-.617,1.293V0H-17.93V-5.539a1.613,1.613,0,0,0-1.8-1.844A1.934,1.934,0,0,0-21.68-6.172V0h-1.445V-8.453ZM-5.586.156a3.693,3.693,0,0,1-2.8-1.129,4.19,4.19,0,0,1-1.078-3.02v-.266A5.073,5.073,0,0,1-8.98-6.5,3.748,3.748,0,0,1-7.637-8.051a3.378,3.378,0,0,1,1.871-.559A3.166,3.166,0,0,1-3.2-7.523a4.7,4.7,0,0,1,.914,3.109v.6H-8.016a3,3,0,0,0,.73,2.02,2.3,2.3,0,0,0,1.777.77,2.517,2.517,0,0,0,1.3-.312,3.259,3.259,0,0,0,.93-.828l.883.688A3.55,3.55,0,0,1-5.586.156Zm-.18-7.578a1.928,1.928,0,0,0-1.469.637A3.1,3.1,0,0,0-7.969-5h4.234v-.109a2.753,2.753,0,0,0-.594-1.707A1.815,1.815,0,0,0-5.766-7.422Zm9.234.266a4.331,4.331,0,0,0-.711-.055A1.9,1.9,0,0,0,.828-6V0H-.617V-8.453H.789l.023.977A2.251,2.251,0,0,1,2.828-8.609a1.477,1.477,0,0,1,.641.109ZM9.7,0a3.036,3.036,0,0,1-.2-.891A3.225,3.225,0,0,1,7.094.156,2.984,2.984,0,0,1,5.043-.551a2.287,2.287,0,0,1-.8-1.793,2.39,2.39,0,0,1,1-2.051,4.733,4.733,0,0,1,2.824-.73H9.477v-.664A1.623,1.623,0,0,0,9.023-7a1.821,1.821,0,0,0-1.336-.449,2.107,2.107,0,0,0-1.3.391,1.151,1.151,0,0,0-.523.945H4.414a2,2,0,0,1,.449-1.223,3.066,3.066,0,0,1,1.219-.934,4.1,4.1,0,0,1,1.691-.344,3.342,3.342,0,0,1,2.289.73,2.635,2.635,0,0,1,.859,2.012v3.891a4.757,4.757,0,0,0,.3,1.852V0ZM7.3-1.1a2.54,2.54,0,0,0,1.289-.352,2.127,2.127,0,0,0,.883-.914V-4.1H8.344q-2.656,0-2.656,1.555a1.316,1.316,0,0,0,.453,1.063A1.742,1.742,0,0,0,7.3-1.1Zm5.531-3.2a4.952,4.952,0,0,1,.922-3.129,2.915,2.915,0,0,1,2.414-1.184,2.932,2.932,0,0,1,2.352,1.016V-12h1.445V0H18.641l-.07-.906A2.943,2.943,0,0,1,16.156.156a2.887,2.887,0,0,1-2.395-1.2,5.008,5.008,0,0,1-.926-3.141Zm1.445.164a3.749,3.749,0,0,0,.594,2.25,1.92,1.92,0,0,0,1.641.813A2.108,2.108,0,0,0,18.523-2.3V-6.187a2.125,2.125,0,0,0-1.992-1.2,1.929,1.929,0,0,0-1.656.82A4.128,4.128,0,0,0,14.281-4.133ZM21.828-4.3a4.993,4.993,0,0,1,.488-2.234A3.643,3.643,0,0,1,23.676-8.07a3.7,3.7,0,0,1,1.988-.539,3.565,3.565,0,0,1,2.793,1.2,4.6,4.6,0,0,1,1.066,3.18v.1a5.036,5.036,0,0,1-.473,2.215A3.589,3.589,0,0,1,27.7-.391a3.743,3.743,0,0,1-2.02.547,3.556,3.556,0,0,1-2.785-1.2A4.575,4.575,0,0,1,21.828-4.2Zm1.453.172a3.616,3.616,0,0,0,.652,2.258,2.088,2.088,0,0,0,1.746.852,2.075,2.075,0,0,0,1.75-.863A3.955,3.955,0,0,0,28.078-4.3a3.61,3.61,0,0,0-.66-2.254,2.1,2.1,0,0,0-1.754-.863,2.075,2.075,0,0,0-1.727.852A3.925,3.925,0,0,0,23.281-4.133ZM35.422-7.156a4.331,4.331,0,0,0-.711-.055A1.9,1.9,0,0,0,32.781-6V0H31.336V-8.453h1.406l.023.977a2.251,2.251,0,0,1,2.016-1.133,1.477,1.477,0,0,1,.641.109Zm7.938.8H36.844V-7.617h6.516Zm0,3.242H36.844v-1.25h6.516Z" transform="translate(-2558 -7379)" fill="#12263f"/>
    <path id="Trazado_655464" data-name="Trazado 655464" d="M-51.031,0V-11.375h3.211a5.169,5.169,0,0,1,2.625.656,4.438,4.438,0,0,1,1.762,1.867A6.078,6.078,0,0,1-42.8-6.07v.727a6.1,6.1,0,0,1-.621,2.82A4.369,4.369,0,0,1-45.2-.664,5.5,5.5,0,0,1-47.883,0Zm1.5-10.148v8.922h1.578a3.434,3.434,0,0,0,2.7-1.079,4.458,4.458,0,0,0,.965-3.073v-.665a4.529,4.529,0,0,0-.91-3.014,3.239,3.239,0,0,0-2.582-1.091ZM-37.258.156a3.693,3.693,0,0,1-2.8-1.129,4.19,4.19,0,0,1-1.078-3.02v-.266a5.073,5.073,0,0,1,.48-2.246,3.748,3.748,0,0,1,1.344-1.547,3.378,3.378,0,0,1,1.871-.559,3.166,3.166,0,0,1,2.563,1.086,4.7,4.7,0,0,1,.914,3.109v.6h-5.727a3,3,0,0,0,.73,2.02,2.3,2.3,0,0,0,1.777.77,2.517,2.517,0,0,0,1.3-.312,3.259,3.259,0,0,0,.93-.828l.883.688A3.55,3.55,0,0,1-37.258.156Zm-.18-7.578a1.928,1.928,0,0,0-1.469.637A3.1,3.1,0,0,0-39.641-5h4.234v-.109A2.753,2.753,0,0,0-36-6.816,1.815,1.815,0,0,0-37.437-7.422Zm6.516-1.031.047,1.063a3.08,3.08,0,0,1,2.531-1.219q2.68,0,2.7,3.023V0h-1.445V-5.594A1.946,1.946,0,0,0-27.5-6.945a1.675,1.675,0,0,0-1.277-.437,2.086,2.086,0,0,0-1.234.375,2.546,2.546,0,0,0-.828.984V0h-1.445V-8.453ZM-23.844-4.3a4.993,4.993,0,0,1,.488-2.234A3.643,3.643,0,0,1-22-8.07a3.7,3.7,0,0,1,1.988-.539,3.565,3.565,0,0,1,2.793,1.2,4.6,4.6,0,0,1,1.066,3.18v.1a5.036,5.036,0,0,1-.473,2.215A3.589,3.589,0,0,1-17.973-.391a3.743,3.743,0,0,1-2.02.547,3.556,3.556,0,0,1-2.785-1.2A4.575,4.575,0,0,1-23.844-4.2Zm1.453.172a3.616,3.616,0,0,0,.652,2.258,2.088,2.088,0,0,0,1.746.852,2.075,2.075,0,0,0,1.75-.863A3.955,3.955,0,0,0-17.594-4.3a3.61,3.61,0,0,0-.66-2.254,2.1,2.1,0,0,0-1.754-.863,2.075,2.075,0,0,0-1.727.852A3.925,3.925,0,0,0-22.391-4.133Zm9.414-4.32.039.938A3.122,3.122,0,0,1-10.43-8.609,2.417,2.417,0,0,1-8.016-7.25a3.2,3.2,0,0,1,1.1-.984,3.242,3.242,0,0,1,1.6-.375q2.781,0,2.828,2.945V0H-3.937V-5.578a1.941,1.941,0,0,0-.414-1.355,1.823,1.823,0,0,0-1.391-.449,1.916,1.916,0,0,0-1.336.48A1.949,1.949,0,0,0-7.7-5.609V0H-9.148V-5.539a1.613,1.613,0,0,0-1.8-1.844A1.934,1.934,0,0,0-12.9-6.172V0h-1.445V-8.453ZM1.258,0H-.187V-8.453H1.258ZM-.3-10.7a.863.863,0,0,1,.215-.594.807.807,0,0,1,.637-.242.819.819,0,0,1,.641.242.854.854,0,0,1,.219.594.826.826,0,0,1-.219.586.834.834,0,0,1-.641.234.821.821,0,0,1-.637-.234A.834.834,0,0,1-.3-10.7ZM4.938-8.453l.047,1.063A3.08,3.08,0,0,1,7.516-8.609q2.68,0,2.7,3.023V0H8.773V-5.594a1.946,1.946,0,0,0-.418-1.352,1.675,1.675,0,0,0-1.277-.437,2.086,2.086,0,0,0-1.234.375,2.546,2.546,0,0,0-.828.984V0H3.57V-8.453ZM17.617,0a3.036,3.036,0,0,1-.2-.891A3.225,3.225,0,0,1,15.008.156a2.984,2.984,0,0,1-2.051-.707,2.287,2.287,0,0,1-.8-1.793,2.39,2.39,0,0,1,1-2.051,4.733,4.733,0,0,1,2.824-.73h1.406v-.664A1.623,1.623,0,0,0,16.938-7,1.821,1.821,0,0,0,15.6-7.445a2.107,2.107,0,0,0-1.3.391,1.151,1.151,0,0,0-.523.945H12.328a2,2,0,0,1,.449-1.223A3.066,3.066,0,0,1,14-8.266a4.1,4.1,0,0,1,1.691-.344,3.342,3.342,0,0,1,2.289.73,2.635,2.635,0,0,1,.859,2.012v3.891a4.757,4.757,0,0,0,.3,1.852V0Zm-2.4-1.1a2.54,2.54,0,0,0,1.289-.352,2.127,2.127,0,0,0,.883-.914V-4.1H16.258Q13.6-4.1,13.6-2.547a1.316,1.316,0,0,0,.453,1.063A1.742,1.742,0,0,0,15.219-1.1ZM20.75-4.3a4.952,4.952,0,0,1,.922-3.129,2.915,2.915,0,0,1,2.414-1.184,2.932,2.932,0,0,1,2.352,1.016V-12h1.445V0H26.555l-.07-.906A2.943,2.943,0,0,1,24.07.156a2.887,2.887,0,0,1-2.395-1.2,5.008,5.008,0,0,1-.926-3.141Zm1.445.164a3.749,3.749,0,0,0,.594,2.25,1.92,1.92,0,0,0,1.641.813A2.108,2.108,0,0,0,26.438-2.3V-6.187a2.125,2.125,0,0,0-1.992-1.2,1.929,1.929,0,0,0-1.656.82A4.128,4.128,0,0,0,22.2-4.133ZM29.742-4.3a4.993,4.993,0,0,1,.488-2.234A3.643,3.643,0,0,1,31.59-8.07a3.7,3.7,0,0,1,1.988-.539,3.565,3.565,0,0,1,2.793,1.2,4.6,4.6,0,0,1,1.066,3.18v.1a5.036,5.036,0,0,1-.473,2.215A3.589,3.589,0,0,1,35.613-.391a3.743,3.743,0,0,1-2.02.547,3.556,3.556,0,0,1-2.785-1.2A4.575,4.575,0,0,1,29.742-4.2Zm1.453.172a3.616,3.616,0,0,0,.652,2.258,2.088,2.088,0,0,0,1.746.852,2.075,2.075,0,0,0,1.75-.863A3.955,3.955,0,0,0,35.992-4.3a3.61,3.61,0,0,0-.66-2.254,2.1,2.1,0,0,0-1.754-.863,2.075,2.075,0,0,0-1.727.852A3.925,3.925,0,0,0,31.2-4.133ZM43.336-7.156a4.331,4.331,0,0,0-.711-.055A1.9,1.9,0,0,0,40.7-6V0H39.25V-8.453h1.406l.023.977A2.251,2.251,0,0,1,42.7-8.609a1.477,1.477,0,0,1,.641.109Zm7.938.8H44.758V-7.617h6.516Zm0,3.242H44.758v-1.25h6.516Z" transform="translate(-2550 -7347)" fill="#12263f"/>
  </g>
</svg>
