<svg xmlns="http://www.w3.org/2000/svg" width="101" height="101" viewBox="0 0 101 101">
  <g id="Grupo_962225" data-name="Grupo 962225" transform="translate(-637 -1157)">
    <circle id="Elipse_1146" data-name="Elipse 1146" cx="50.5" cy="50.5" r="50.5" transform="translate(637 1157)" fill="#ffbba6"/>
    <g id="encuesta" transform="translate(605.184 1178.926)">
      <path id="Trazado_637652" data-name="Trazado 637652" d="M161.411,139.29H128.7a1.7,1.7,0,0,1-1.7-1.7V94.2a1.7,1.7,0,0,1,1.7-1.7h32.708a1.7,1.7,0,0,1,1.7,1.7v43.383A1.7,1.7,0,0,1,161.411,139.29Z" transform="translate(-59.834 -81.995)" fill="#bdbdbd"/>
      <path id="Trazado_637653" data-name="Trazado 637653" d="M131.411,96.79H98.7a1.7,1.7,0,0,1-1.7-1.7V51.7A1.7,1.7,0,0,1,98.7,50h32.708a1.7,1.7,0,0,1,1.7,1.7V95.087A1.7,1.7,0,0,1,131.411,96.79Z" transform="translate(-33.241 -44.322)" fill="#d4d4d4"/>
      <path id="Trazado_637654" data-name="Trazado 637654" d="M101.411,54.29H68.7a1.7,1.7,0,0,1-1.7-1.7V9.2a1.7,1.7,0,0,1,1.7-1.7h32.708a1.7,1.7,0,0,1,1.7,1.7V52.587A1.7,1.7,0,0,1,101.411,54.29Z" transform="translate(-6.648 -6.648)" fill="#f5f5f5"/>
      <path id="Trazado_637655" data-name="Trazado 637655" d="M355,7.5V54.29h1.7a1.7,1.7,0,0,0,1.7-1.7V9.2a1.7,1.7,0,0,0-1.7-1.7Z" transform="translate(-261.94 -6.648)" fill="#e6e6e6"/>
      <path id="Trazado_637656" data-name="Trazado 637656" d="M123.86,126.814h-5.906a.454.454,0,0,1-.454-.454v-5.906a.454.454,0,0,1,.454-.454h5.906a.454.454,0,0,1,.454.454v5.906A.454.454,0,0,1,123.86,126.814Z" transform="translate(-51.413 -106.372)" fill="#ff3d7a"/>
      <path id="Trazado_637657" data-name="Trazado 637657" d="M123.86,223.814h-5.906a.454.454,0,0,1-.454-.454v-5.906a.454.454,0,0,1,.454-.454h5.906a.454.454,0,0,1,.454.454v5.906A.454.454,0,0,1,123.86,223.814Z" transform="translate(-51.413 -192.356)" fill="#8cf2ff"/>
      <path id="Trazado_637658" data-name="Trazado 637658" d="M123.86,320.814h-5.906a.454.454,0,0,1-.454-.454v-5.906a.454.454,0,0,1,.454-.454h5.906a.454.454,0,0,1,.454.454v5.906A.454.454,0,0,1,123.86,320.814Z" transform="translate(-51.413 -278.339)" fill="#ffca28"/>
      <path id="Trazado_637659" data-name="Trazado 637659" d="M158.66,46.975H142.987a1.987,1.987,0,1,1,0-3.975H158.66a1.987,1.987,0,0,1,0,3.975Z" transform="translate(-72.244 -38.117)" fill="#8c9eff"/>
      <path id="Trazado_637660" data-name="Trazado 637660" d="M103.281,19.007a.852.852,0,0,0,.852-.852V12.209a2.558,2.558,0,0,0-2.555-2.555h-.852V7.382A2.558,2.558,0,0,0,98.17,4.827h-.852V2.555A2.558,2.558,0,0,0,94.763,0H62.055A2.558,2.558,0,0,0,59.5,2.555v4.7a.852.852,0,0,0,1.7,0v-4.7a.853.853,0,0,1,.852-.852H94.763a.853.853,0,0,1,.852.852V45.939a.853.853,0,0,1-.852.852H62.055a.853.853,0,0,1-.852-.852V10.887a.852.852,0,0,0-1.7,0V45.939a2.558,2.558,0,0,0,2.555,2.555h.852v2.271a2.558,2.558,0,0,0,2.555,2.555h.852v2.271a2.558,2.558,0,0,0,2.555,2.555h32.708a2.558,2.558,0,0,0,2.555-2.555V21.769a.852.852,0,1,0-1.7,0V55.592a.853.853,0,0,1-.852.852H68.869a.853.853,0,0,1-.852-.852V53.321H89.07a.852.852,0,1,0,0-1.7H65.462a.853.853,0,0,1-.852-.852V48.494H94.763a2.558,2.558,0,0,0,2.555-2.555V6.53h.852a.853.853,0,0,1,.852.852V50.765a.853.853,0,0,1-.852.852H92.683a.852.852,0,1,0,0,1.7H98.17a2.558,2.558,0,0,0,2.555-2.555V11.357h.852a.853.853,0,0,1,.852.852v5.947A.852.852,0,0,0,103.281,19.007Z"/>
      <path id="Trazado_637661" data-name="Trazado 637661" d="M110,112.476v5.906a1.308,1.308,0,0,0,1.306,1.306h5.906a1.308,1.308,0,0,0,1.306-1.306V113.99l1.746-1.49a.852.852,0,0,0-1.106-1.3l-.786.671a1.307,1.307,0,0,0-1.159-.7h-5.906A1.308,1.308,0,0,0,110,112.476Zm1.7.4h5.111v.33l-1.69,1.443-.807-.874a.852.852,0,0,0-1.252,1.155l1.363,1.476a.852.852,0,0,0,1.179.07l1.207-1.031v2.541H111.7v-5.111Z" transform="translate(-44.765 -98.394)"/>
      <path id="Trazado_637662" data-name="Trazado 637662" d="M221.48,124.5H207.852a.852.852,0,1,0,0,1.7H221.48a.852.852,0,1,0,0-1.7Z" transform="translate(-130.749 -110.361)"/>
      <path id="Trazado_637663" data-name="Trazado 637663" d="M221.48,156.5H207.852a.852.852,0,1,0,0,1.7H221.48a.852.852,0,1,0,0-1.7Z" transform="translate(-130.749 -138.726)"/>
      <path id="Trazado_637664" data-name="Trazado 637664" d="M110,216.712a1.308,1.308,0,0,0,1.306,1.306h5.906a1.308,1.308,0,0,0,1.306-1.306v-5.906a1.308,1.308,0,0,0-1.306-1.306h-5.906A1.308,1.308,0,0,0,110,210.806Zm1.7-5.508h5.111v5.111H111.7Z" transform="translate(-44.765 -185.707)"/>
      <path id="Trazado_637665" data-name="Trazado 637665" d="M221.48,221.5H207.852a.852.852,0,1,0,0,1.7H221.48a.852.852,0,1,0,0-1.7Z" transform="translate(-130.749 -196.345)"/>
      <path id="Trazado_637666" data-name="Trazado 637666" d="M221.48,253.5H207.852a.852.852,0,1,0,0,1.7H221.48a.852.852,0,1,0,0-1.7Z" transform="translate(-130.749 -224.71)"/>
      <path id="Trazado_637667" data-name="Trazado 637667" d="M110,313.712a1.308,1.308,0,0,0,1.306,1.306h5.906a1.308,1.308,0,0,0,1.306-1.306v-5.906a1.308,1.308,0,0,0-1.306-1.306h-5.906A1.308,1.308,0,0,0,110,307.806Zm1.7-5.508h5.111v5.111H111.7Z" transform="translate(-44.765 -271.691)"/>
      <path id="Trazado_637668" data-name="Trazado 637668" d="M221.48,318.5H207.852a.852.852,0,1,0,0,1.7H221.48a.852.852,0,1,0,0-1.7Z" transform="translate(-130.749 -282.328)"/>
      <path id="Trazado_637669" data-name="Trazado 637669" d="M221.48,350.5H207.852a.852.852,0,1,0,0,1.7H221.48a.852.852,0,1,0,0-1.7Z" transform="translate(-130.749 -310.694)"/>
      <path id="Trazado_637670" data-name="Trazado 637670" d="M152.012,35.5H136.339a2.839,2.839,0,1,0,0,5.678h15.672a2.839,2.839,0,0,0,0-5.678Zm0,3.975H136.339a1.136,1.136,0,0,1,0-2.271h15.672a1.136,1.136,0,0,1,0,2.271Z" transform="translate(-65.596 -31.468)"/>
    </g>
  </g>
</svg>
