<svg xmlns="http://www.w3.org/2000/svg" xmlns:xlink="http://www.w3.org/1999/xlink" width="400" height="284" viewBox="0 0 400 284">
  <defs>
    <clipPath id="clip-path">
      <rect id="Rectángulo_34145" data-name="Rectángulo 34145" width="400" height="284" transform="translate(1020 424)" fill="#fff" stroke="#707070" stroke-width="1"/>
    </clipPath>
    <clipPath id="clip-path-2">
      <path id="Trazado_115668" data-name="Trazado 115668" d="M1134.274,2624.1a5.707,5.707,0,1,1,.965-8.013A5.706,5.706,0,0,1,1134.274,2624.1Z" fill="#78241d"/>
    </clipPath>
  </defs>
  <g id="Enmascarar_grupo_52" data-name="Enmascarar grupo 52" transform="translate(-1020 -424)" clip-path="url(#clip-path)">
    <g id="Grupo_81357" data-name="Grupo 81357" transform="translate(127.728 -2130.383)">
      <g id="Grupo_81357-2" data-name="Grupo 81357">
        <path id="Trazado_115637" data-name="Trazado 115637" d="M1241.255,2696.706a.356.356,0,0,1-.356-.356v-62.543a.356.356,0,0,1,.712,0v62.543A.356.356,0,0,1,1241.255,2696.706Z" fill="#bcd4ff"/>
      </g>
      <g id="Grupo_81358" data-name="Grupo 81358">
        <path id="Trazado_115638" data-name="Trazado 115638" d="M944.034,2736.8a.356.356,0,0,1-.356-.356v-98.324a.355.355,0,0,1,.356-.356h40.01a.356.356,0,0,1,0,.712H944.39v97.968A.356.356,0,0,1,944.034,2736.8Z" fill="#bcd4ff"/>
      </g>
      <rect id="Rectángulo_34146" data-name="Rectángulo 34146" width="205.056" height="147.201" rx="6.937" transform="translate(979.749 2577.062)" fill="#bcd4ff"/>
      <rect id="Rectángulo_34147" data-name="Rectángulo 34147" width="103.935" height="60.842" rx="6.937" transform="translate(925.774 2736.345)" fill="#99bbfc"/>
      <rect id="Rectángulo_34148" data-name="Rectángulo 34148" width="77.468" height="57.539" rx="6.937" transform="translate(1172.845 2596.926)" fill="#99bbfc"/>
      <path id="Trazado_115639" data-name="Trazado 115639" d="M1184.805,2588.138H979.749V2582a4.938,4.938,0,0,1,4.937-4.938h195.182a4.937,4.937,0,0,1,4.937,4.938Z" fill="#6e92de"/>
      <g id="Grupo_81359" data-name="Grupo 81359">
        <path id="Trazado_115640" data-name="Trazado 115640" d="M990.534,2582.6a2.379,2.379,0,1,1-2.379-2.379A2.379,2.379,0,0,1,990.534,2582.6Z" fill="#fff"/>
        <path id="Trazado_115641" data-name="Trazado 115641" d="M998.547,2582.6a2.379,2.379,0,1,1-2.379-2.379A2.379,2.379,0,0,1,998.547,2582.6Z" fill="#fff"/>
        <path id="Trazado_115642" data-name="Trazado 115642" d="M1006.56,2582.6a2.379,2.379,0,1,1-2.379-2.379A2.379,2.379,0,0,1,1006.56,2582.6Z" fill="#fff"/>
      </g>
      <rect id="Rectángulo_34149" data-name="Rectángulo 34149" width="16.983" height="92.51" transform="translate(1000.169 2618.174)" fill="#838fe7"/>
      <rect id="Rectángulo_34150" data-name="Rectángulo 34150" width="16.983" height="75.779" transform="translate(1029.325 2634.905)" fill="#6e92de"/>
      <rect id="Rectángulo_34151" data-name="Rectángulo 34151" width="16.983" height="67.652" transform="translate(1058.481 2643.033)" fill="#838fe7"/>
      <rect id="Rectángulo_34152" data-name="Rectángulo 34152" width="16.983" height="61.66" transform="translate(1087.637 2649.024)" fill="#6e92de"/>
      <rect id="Rectángulo_34153" data-name="Rectángulo 34153" width="16.983" height="74.555" transform="translate(1116.793 2636.13)" fill="#6e92de"/>
      <rect id="Rectángulo_34154" data-name="Rectángulo 34154" width="16.983" height="98.071" transform="translate(1145.95 2612.613)" fill="#838fe7"/>
      <g id="Grupo_81363" data-name="Grupo 81363">
        <g id="Grupo_81360" data-name="Grupo 81360">
          <path id="Trazado_115643" data-name="Trazado 115643" d="M1167.838,2711.04H994.849a.355.355,0,0,1-.355-.355V2603.193a.355.355,0,1,1,.711,0v107.136h172.633a.355.355,0,1,1,0,.711Z" fill="#0d3991"/>
        </g>
        <g id="Grupo_81361" data-name="Grupo 81361">
          <path id="Trazado_115644" data-name="Trazado 115644" d="M997.221,2603.151a.356.356,0,0,1-.309-.179l-2.065-3.6-2.093,3.6a.356.356,0,0,1-.615-.357l2.4-4.138a.355.355,0,0,1,.307-.177.378.378,0,0,1,.309.179l2.371,4.137a.355.355,0,0,1-.308.533Z" fill="#0d3991"/>
        </g>
        <g id="Grupo_81362" data-name="Grupo 81362">
          <path id="Trazado_115645" data-name="Trazado 115645" d="M1168.8,2713.428a.356.356,0,0,1-.177-.665l3.6-2.065-3.6-2.092a.356.356,0,0,1,.357-.616l4.138,2.4a.356.356,0,0,1,0,.616l-4.138,2.372A.356.356,0,0,1,1168.8,2713.428Z" fill="#0d3991"/>
        </g>
      </g>
      <g id="Grupo_81366" data-name="Grupo 81366">
        <g id="Grupo_81364" data-name="Grupo 81364">
          <path id="Trazado_115646" data-name="Trazado 115646" d="M1085.562,2642.986a106.365,106.365,0,0,1-18.269-1.627c-34.492-6.051-65.423-34.092-65.732-34.374a.356.356,0,0,1,.481-.525c.307.281,31.09,28.183,65.374,34.2,18.855,3.307,64.98,5.822,86.011-42.143a.356.356,0,0,1,.652.285c-8.333,19-21.391,32.094-38.814,38.907A81.548,81.548,0,0,1,1085.562,2642.986Z" fill="#0d3991"/>
        </g>
        <g id="Grupo_81365" data-name="Grupo 81365">
          <path id="Trazado_115647" data-name="Trazado 115647" d="M1155.877,2599.664a.356.356,0,0,1-.355-.34l-.192-4.147-3.509,2.25a.356.356,0,0,1-.384-.6l4.028-2.583a.357.357,0,0,1,.355-.017.353.353,0,0,1,.192.3l.22,4.764a.356.356,0,0,1-.339.372Z" fill="#0d3991"/>
        </g>
      </g>
      <path id="Trazado_115648" data-name="Trazado 115648" d="M1230.745,2617.212a20.884,20.884,0,0,1-.133,17.235l-19.037-8.753-13.562-15.973a20.636,20.636,0,0,1,5.083-3.19A20.959,20.959,0,0,1,1230.745,2617.212Z" fill="#fff"/>
      <path id="Trazado_115649" data-name="Trazado 115649" d="M1230.612,2634.447a20.949,20.949,0,0,1-34.9,4.947c1.741-1.5,4.44-3.839,7.126-6.154l.787-.68c4.111-3.554,7.952-6.866,7.952-6.866Z" fill="#6194f0"/>
      <path id="Trazado_115650" data-name="Trazado 115650" d="M1211.575,2625.694s-3.841,3.312-7.952,6.866l-.787.68c-2.686,2.315-5.385,4.651-7.126,6.154a20.979,20.979,0,0,1,2.3-29.673Z" fill="#ffc765"/>
      <g id="Grupo_81368" data-name="Grupo 81368">
        <g id="Grupo_81367" data-name="Grupo 81367">
          <path id="Trazado_115651" data-name="Trazado 115651" d="M1253.478,2730.462H1229.6a5.3,5.3,0,0,1-5.294-5.292v-23.883a5.3,5.3,0,0,1,5.294-5.293h23.882a5.3,5.3,0,0,1,5.293,5.293v23.883A5.3,5.3,0,0,1,1253.478,2730.462Zm-23.882-33.756a4.586,4.586,0,0,0-4.582,4.581v23.883a4.587,4.587,0,0,0,4.582,4.581h23.882a4.587,4.587,0,0,0,4.581-4.581v-23.883a4.586,4.586,0,0,0-4.581-4.581Z" fill="#bcd4ff"/>
        </g>
        <rect id="Rectángulo_34155" data-name="Rectángulo 34155" width="26.91" height="2.664" transform="translate(1228.082 2722.397)" fill="#838fe7"/>
        <path id="Trazado_115652" data-name="Trazado 115652" d="M1241.255,2703.306l7.05,17.089h-19.388Z" fill="#99bbfc"/>
        <path id="Trazado_115653" data-name="Trazado 115653" d="M1247.311,2709.765l7.682,10.63h-13.737Z" fill="#6194f0"/>
        <circle id="Elipse_4719" data-name="Elipse 4719" cx="3.202" cy="3.202" r="3.202" transform="translate(1229.271 2700.104)" fill="#838fe7"/>
        <path id="Trazado_115654" data-name="Trazado 115654" d="M1254.992,2707.715h-8.506a6.884,6.884,0,0,1,2.109-1.616c1.784-.924,3.548-1.065,3.936-.317a.986.986,0,0,1-.078.9,2.062,2.062,0,0,1,2.426.691A.985.985,0,0,1,1254.992,2707.715Z" fill="#99bbfc"/>
      </g>
      <rect id="Rectángulo_34156" data-name="Rectángulo 34156" width="18.307" height="18.307" transform="translate(937.051 2743.919)" fill="#ffc765"/>
      <rect id="Rectángulo_34157" data-name="Rectángulo 34157" width="18.307" height="18.307" transform="translate(937.051 2771.306)" fill="#fff"/>
      <g id="Grupo_81373" data-name="Grupo 81373">
        <g id="Grupo_81369" data-name="Grupo 81369">
          <path id="Trazado_115655" data-name="Trazado 115655" d="M1018.56,2745.036H965.232a.356.356,0,0,1,0-.712h53.328a.356.356,0,1,1,0,.712Z" fill="#fff"/>
        </g>
        <g id="Grupo_81370" data-name="Grupo 81370">
          <path id="Trazado_115656" data-name="Trazado 115656" d="M1018.56,2750.738H965.232a.356.356,0,0,1,0-.712h53.328a.356.356,0,0,1,0,.712Z" fill="#fff"/>
        </g>
        <g id="Grupo_81371" data-name="Grupo 81371">
          <path id="Trazado_115657" data-name="Trazado 115657" d="M1018.56,2756.44H965.232a.356.356,0,0,1,0-.712h53.328a.356.356,0,1,1,0,.712Z" fill="#fff"/>
        </g>
        <g id="Grupo_81372" data-name="Grupo 81372">
          <path id="Trazado_115658" data-name="Trazado 115658" d="M1006.457,2762.141H965.232a.356.356,0,0,1,0-.712h41.225a.356.356,0,0,1,0,.712Z" fill="#fff"/>
        </g>
      </g>
      <g id="Grupo_81378" data-name="Grupo 81378">
        <g id="Grupo_81374" data-name="Grupo 81374">
          <path id="Trazado_115659" data-name="Trazado 115659" d="M984.044,2772.263H965.232a.356.356,0,0,1,0-.712h18.812a.356.356,0,1,1,0,.712Z" fill="#fff"/>
        </g>
        <g id="Grupo_81375" data-name="Grupo 81375">
          <path id="Trazado_115660" data-name="Trazado 115660" d="M1018.56,2777.964H965.232a.356.356,0,0,1,0-.712h53.328a.356.356,0,0,1,0,.712Z" fill="#fff"/>
        </g>
        <g id="Grupo_81376" data-name="Grupo 81376">
          <path id="Trazado_115661" data-name="Trazado 115661" d="M1018.56,2783.666H965.232a.356.356,0,0,1,0-.712h53.328a.356.356,0,1,1,0,.712Z" fill="#fff"/>
        </g>
        <g id="Grupo_81377" data-name="Grupo 81377">
          <path id="Trazado_115662" data-name="Trazado 115662" d="M1014.653,2789.368H965.232a.356.356,0,0,1,0-.712h49.421a.356.356,0,0,1,0,.712Z" fill="#fff"/>
        </g>
      </g>
      <g id="Grupo_81379" data-name="Grupo 81379">
        <path id="Trazado_115663" data-name="Trazado 115663" d="M946.2,2760.945a.361.361,0,0,1-.217-.074l-11.964-9.215a.356.356,0,1,1,.434-.564L946.024,2760l6.6-19.938a.356.356,0,0,1,.676.223l-6.762,20.415a.356.356,0,0,1-.234.229A.368.368,0,0,1,946.2,2760.945Z" fill="#0d3991"/>
      </g>
      <path id="Trazado_115664" data-name="Trazado 115664" d="M1107.6,2646.542a6.7,6.7,0,0,1-3.4,3.519c-2.624,1.355-5.389,1.235-6.172-.282-.9-1.751.849-3.347,2.023-4.413a5.014,5.014,0,0,0,1.563-2.234,13.717,13.717,0,0,0,.569-3.167c.041-.436.062-.875.115-1.309a3.246,3.246,0,0,1,.159-.592l4.282,4.965.3,1.242a1.911,1.911,0,0,1,.48.585A2.193,2.193,0,0,1,1107.6,2646.542Z" fill="#2c2225"/>
      <g id="Grupo_81383" data-name="Grupo 81383">
        <path id="Trazado_115665" data-name="Trazado 115665" d="M1134.274,2624.1a5.707,5.707,0,1,1,.965-8.013A5.706,5.706,0,0,1,1134.274,2624.1Z" fill="#78241d"/>
        <g id="Grupo_81382" data-name="Grupo 81382" clip-path="url(#clip-path-2)">
          <g id="Grupo_81380" data-name="Grupo 81380">
            <path id="Trazado_115666" data-name="Trazado 115666" d="M1136.907,2624.935a10.1,10.1,0,0,1-1.221-.074,9.577,9.577,0,0,1-6.136-3.194,7.93,7.93,0,0,1-1.965-6.184c.55-4.567,5.071-7.79,10.1-7.187s8.652,4.812,8.1,9.379a7.928,7.928,0,0,1-3.377,5.541A9.47,9.47,0,0,1,1136.907,2624.935Zm-.434-16.356c-4.339,0-8.051,2.93-8.535,6.946a7.581,7.581,0,0,0,1.881,5.909,9.461,9.461,0,0,0,12.381,1.491,7.575,7.575,0,0,0,3.23-5.292h0c.527-4.373-2.968-8.4-7.791-8.984A9.83,9.83,0,0,0,1136.473,2608.579Z" fill="#2c2225"/>
          </g>
          <g id="Grupo_81381" data-name="Grupo 81381">
            <path id="Trazado_115667" data-name="Trazado 115667" d="M1134.45,2620.464a5.464,5.464,0,0,1-.66-.04,4.538,4.538,0,1,1,1.081-8.972,5.178,5.178,0,0,1,3.316,1.727,4.3,4.3,0,0,1,1.064,3.352h0a4.3,4.3,0,0,1-1.83,3A5.116,5.116,0,0,1,1134.45,2620.464Zm-.231-8.7a4.336,4.336,0,0,0-4.456,3.619,4.4,4.4,0,0,0,4.07,4.683,4.822,4.822,0,0,0,3.382-.827,3.944,3.944,0,0,0,1.683-2.755h0a3.946,3.946,0,0,0-.98-3.077,4.823,4.823,0,0,0-3.09-1.607A5.249,5.249,0,0,0,1134.219,2611.769Z" fill="#2c2225"/>
          </g>
        </g>
      </g>
      <g id="Grupo_81384" data-name="Grupo 81384">
        <path id="Trazado_115669" data-name="Trazado 115669" d="M1103.217,2659.809c-.049.085-2.1,7.3-4.189,14.713-.776,2.758-1.559,5.537-2.251,7.991-.155.551-.495,1.014-.634,1.545-1.079,4.118-3.6,6.59-7.222,5.187l-6.806-2.944c0-.007,12.424-33.959,12.424-33.959s4.136-3.127,6.724-2.14C1104.762,2651.55,1105.263,2656.67,1103.217,2659.809Z" fill="#3b78e5"/>
      </g>
      <path id="Trazado_115670" data-name="Trazado 115670" d="M1099.028,2674.522c-.776,2.758-1.559,5.537-2.251,7.991a7.1,7.1,0,0,1-.634,1.545c.2-4.387-2.187-9.261-2.053-9.423l2.97-1.58Z" fill="#2c2225"/>
      <path id="Trazado_115671" data-name="Trazado 115671" d="M1112.647,2644.122c.374.17.593.275.593.275l-1.735,6.37-5.121,1.855-5.819-.861c-.07-.282,4.437-1.806,2.807-7.342,0-.007-.007-.014-.007-.022a4.643,4.643,0,0,0-.4-1.036c-.134-.381-.247-.776-.352-1.171a20.632,20.632,0,0,1,1.079-13.126l.063-.127c.17-.381.607-1.376,1.108-2.321.529-1.008,1.128-1.961,1.544-2.066.346-.092.635.409.938.811.191.254.388.465.6.465a3.515,3.515,0,0,1,1.932.614c.078.049.156.106.233.155,2.208,1.658,3.767,5.777,3.767,10.594A18.776,18.776,0,0,1,1112.647,2644.122Z" fill="#78241d"/>
      <path id="Trazado_115672" data-name="Trazado 115672" d="M1129.321,2653.824c-3.514,3.187-5.431,9.452-4.986,13.38l.444,6.13.014.12q.053.561.106,1.142c.049.522.092,1.115.148,1.757.353.007,1.319,13.951,3.2,20.884q-9.014.159-18.035-.275c-.712.289-1.453.565-2.215.811-6.912,2.25-14.1-.324-14.1-.324a5.416,5.416,0,0,1,.936-3.971,12.457,12.457,0,0,0,2.411-5.4,63.932,63.932,0,0,0,.544-7.558c-.134-.832-.268-1.7-.409-2.588a.614.614,0,0,0-.014-.113c-.056-.021-.085-.029-.085-.029-2.645-1.149-3.773-2.842-3.844-4.824v-.007a13.044,13.044,0,0,1,1.63-5.212c.028-.057.063-.106.091-.156.148-.261.311-.514.48-.775a.007.007,0,0,1,.007-.007c.423-.642.9-1.3,1.411-1.947v-.007c.147-4.22-2.694-11.288-2.543-12.394l.032-.1a1.769,1.769,0,0,1,.874-.951c2.434-1.058,5.355-2.066,7.247-2.736l8.437,10.734,12.325-9.93a3.694,3.694,0,0,1,1.481-1.122s6.411,2.751,6.969,3.717C1132.158,2652.793,1131.093,2652.218,1129.321,2653.824Z" fill="#faa81b"/>
      <ellipse id="Elipse_4720" data-name="Elipse 4720" cx="8.841" cy="6.588" rx="8.841" ry="6.588" transform="translate(1101.965 2626.778) rotate(-42.325)" fill="#78241d"/>
      <path id="Trazado_115673" data-name="Trazado 115673" d="M1127.636,2672.272l-.022.148c-.077.473-.155.931-.232,1.4-.311,1.932-2.5,15.291-2.5,15.291-1.319,1.058-4.126,5.268-9.148,5.3-2.471-5.705-1.731-14.866.825-15.079,8.867-.739,7.417-12.707,7.515-12.855l3.417,5.04Z" fill="#2c2225"/>
      <path id="Trazado_115674" data-name="Trazado 115674" d="M1123.323,2621.866c2.319,1.087,2.853,4.84,1.192,8.383s-4.888,5.533-7.207,4.445-2.853-4.84-1.192-8.383S1121,2620.778,1123.323,2621.866Z" fill="#78241d"/>
      <path id="Trazado_115675" data-name="Trazado 115675" d="M1115.095,2651c-4.564,0-8.549-1.079-10.686-2.694-.106-.078-.2-.155-.3-.24l-1.651.67.064.071,8.581,11.17,12.977-9.966A78.732,78.732,0,0,1,1115.095,2651Z" fill="#3b78e5"/>
      <path id="Trazado_115676" data-name="Trazado 115676" d="M1128.884,2697.424c0,.3-.254.585-.726.861a5.868,5.868,0,0,1-.8.366c-2.737,1.044-8.852,1.778-15.969,1.778-1.241,0-2.455-.021-3.625-.064-5.53-.2-10.094-.853-12.351-1.714-.98-.374-1.523-.79-1.523-1.227,0-.578.959-1.121,2.616-1.58a56.476,56.476,0,0,1,12.358-1.389c.825-.022,1.664-.036,2.525-.036,6.284,0,11.8.572,14.882,1.425.332.092.635.191.91.282C1128.277,2696.521,1128.884,2696.959,1128.884,2697.424Z" fill="#2c2225"/>
      <path id="Trazado_115677" data-name="Trazado 115677" d="M1121.908,2648.735l-1.65,1.771a26.229,26.229,0,0,1-5.163.493c-4.789,0-8.944-1.192-10.989-2.934l.924-.374a5.049,5.049,0,0,0,2.934-3.294,4.938,4.938,0,0,0,.19-1.375v-9.585h9.931v10.142a5.041,5.041,0,0,0,2.42,4.3Z" fill="#ffa058"/>
      <path id="Trazado_115678" data-name="Trazado 115678" d="M1115.945,2639.307s-1.974,3.609-7.979,5.09a4.972,4.972,0,0,0,.192-1.373v-2.781Z" fill="#2c2225"/>
      <g id="Grupo_81385" data-name="Grupo 81385">
        <path id="Trazado_115679" data-name="Trazado 115679" d="M1131.487,2688.713l-3.922-2.892a13.675,13.675,0,0,1-1.559-3.583,40.764,40.764,0,0,1-1.107-7.667q-.053-.582-.106-1.142l-.014-.12-.444-6.129c-.445-3.929.85-10.516,4.326-13.744,1.7-1.582,2.947-1.647,3.214-1.386.246.424,3.978,10.566,6.291,30.576C1138.61,2686.463,1135.789,2688.7,1131.487,2688.713Z" fill="#3b78e5"/>
      </g>
      <path id="Rectángulo_34158" data-name="Rectángulo 34158" d="M0,0H13.026a0,0,0,0,1,0,0V12.145a7.014,7.014,0,0,1-7.014,7.014h0A6.012,6.012,0,0,1,0,13.148V0A0,0,0,0,1,0,0Z" transform="matrix(0.993, 0.12, -0.12, 0.993, 1106.745, 2621.53)" fill="#ffa058"/>
      <path id="Trazado_115680" data-name="Trazado 115680" d="M1109.531,2627.7c-.268-.05-.608-.167-.908-.237s-.626-.143-.958-.188a5.738,5.738,0,0,0-.968-.08,2.99,2.99,0,0,0-1.06.2l-.02.007a.077.077,0,0,1-.1-.044.072.072,0,0,1,0-.043,1.67,1.67,0,0,1,.859-1.1,2.885,2.885,0,0,1,1.356-.37,3.49,3.49,0,0,1,1.354.221,2.535,2.535,0,0,1,1.164.852.517.517,0,0,1-.507.82Z" fill="#2c2225"/>
      <path id="Trazado_115681" data-name="Trazado 115681" d="M1113.249,2627.09a2.53,2.53,0,0,1,1.425-.225,3.461,3.461,0,0,1,1.305.424,2.855,2.855,0,0,1,1.036.949,1.67,1.67,0,0,1,.261,1.371.079.079,0,0,1-.1.052.084.084,0,0,1-.037-.024l-.013-.015a2.993,2.993,0,0,0-.851-.663,5.8,5.8,0,0,0-.9-.372c-.315-.112-.628-.193-.937-.272s-.655-.127-.917-.2l-.2-.059a.517.517,0,0,1-.077-.961Z" fill="#2c2225"/>
      <g id="Grupo_81386" data-name="Grupo 81386">
        <path id="Trazado_115682" data-name="Trazado 115682" d="M1115.609,2631.727a.179.179,0,0,1-.17-.124,2.5,2.5,0,0,0-.8-1.138,1.142,1.142,0,0,0-.274-.148,1.1,1.1,0,0,0-.791-.03,1.641,1.641,0,0,0-.58.352.362.362,0,0,1-.129.087.175.175,0,0,1-.223-.114.177.177,0,0,1,.114-.224l0-.017a1.97,1.97,0,0,1,.7-.421,1.463,1.463,0,0,1,1.03.034,1.44,1.44,0,0,1,.354.191,2.809,2.809,0,0,1,.935,1.32.177.177,0,0,1-.115.223A.167.167,0,0,1,1115.609,2631.727Z" fill="#2c2225"/>
      </g>
      <g id="Grupo_81387" data-name="Grupo 81387">
        <path id="Trazado_115683" data-name="Trazado 115683" d="M1109.723,2631.018a.181.181,0,0,1-.17-.124,2.5,2.5,0,0,0-.8-1.138,1.1,1.1,0,0,0-.274-.148,1.117,1.117,0,0,0-.79-.03,1.655,1.655,0,0,0-.581.352.366.366,0,0,1-.127.087.178.178,0,0,1-.113-.338l.005-.017a1.975,1.975,0,0,1,.7-.421,1.461,1.461,0,0,1,1.029.034,1.5,1.5,0,0,1,.355.191,2.813,2.813,0,0,1,.934,1.32.177.177,0,0,1-.115.223A.174.174,0,0,1,1109.723,2631.018Z" fill="#2c2225"/>
      </g>
      <path id="Trazado_115684" data-name="Trazado 115684" d="M1108.435,2630.19a.7.7,0,1,1-.609-.79A.706.706,0,0,1,1108.435,2630.19Z" fill="#2c2225"/>
      <path id="Trazado_115685" data-name="Trazado 115685" d="M1114.229,2630.888a.7.7,0,1,1-.609-.79A.706.706,0,0,1,1114.229,2630.888Z" fill="#2c2225"/>
      <g id="Grupo_81388" data-name="Grupo 81388">
        <path id="Trazado_115686" data-name="Trazado 115686" d="M1111.287,2633.86a4.046,4.046,0,0,1-1.588-.251c-.139-.085-.2-.12.872-4.6a.178.178,0,1,1,.347.083c-.344,1.442-.875,3.746-.945,4.255a4.628,4.628,0,0,0,1.376.156h0a.177.177,0,0,1,0,.355Z" fill="#a55012"/>
      </g>
      <g id="Grupo_81389" data-name="Grupo 81389">
        <path id="Trazado_115687" data-name="Trazado 115687" d="M1117.392,2679.561a15.742,15.742,0,0,1-4.657-.639c-3.775-1.643-4.878-4.593-3.2-8.537a.178.178,0,0,1,.328.139c-1.608,3.785-.6,6.5,3,8.066a15.8,15.8,0,0,0,4.535.615h.244a.177.177,0,0,1,0,.355C1117.56,2679.561,1117.475,2679.561,1117.392,2679.561Z" fill="#2c2225"/>
      </g>
      <g id="Grupo_81390" data-name="Grupo 81390">
        <path id="Trazado_115688" data-name="Trazado 115688" d="M1101.883,2678.778a15.728,15.728,0,0,1-4.657-.639c-3.776-1.643-4.879-4.593-3.2-8.537a24.292,24.292,0,0,1,3.632-5.985.178.178,0,0,1,.256.247,24.5,24.5,0,0,0-3.561,5.877c-1.607,3.785-.6,6.5,3.005,8.066a15.781,15.781,0,0,0,4.535.615h.244a.178.178,0,0,1,0,.356Z" fill="#2c2225"/>
      </g>
      <g id="Grupo_81391" data-name="Grupo 81391">
        <path id="Trazado_115689" data-name="Trazado 115689" d="M1111.437,2636.308a3.765,3.765,0,0,1-1.139-.186l-.119-.036a.181.181,0,0,1-.136-.209.178.178,0,0,1,.2-.141c.014,0,.047.011.094.026l.066.02a2.994,2.994,0,0,0,2.021-.013,2.137,2.137,0,0,0,1.106-1.02.187.187,0,0,1,.239-.094.168.168,0,0,1,.094.221l-.164-.071.158.085a2.473,2.473,0,0,1-1.3,1.211A3.062,3.062,0,0,1,1111.437,2636.308Z" fill="#a55012"/>
      </g>
      <g id="Grupo_81392" data-name="Grupo 81392">
        <path id="Trazado_115690" data-name="Trazado 115690" d="M1114.216,2635.555a.175.175,0,0,1-.109-.037.839.839,0,0,1-.123-.113,1.862,1.862,0,0,1-.376-.519,4.682,4.682,0,0,1-.271-.631l-.035-.095a.178.178,0,0,1,.33-.134l.04.108a4.281,4.281,0,0,0,.25.584,1.553,1.553,0,0,0,.316.439.584.584,0,0,0,.086.079.178.178,0,0,1,.033.25A.181.181,0,0,1,1114.216,2635.555Z" fill="#a55012"/>
      </g>
      <path id="Trazado_115691" data-name="Trazado 115691" d="M1111.074,2625.876c-.119.091-.246.2-.394.31-.184.134-.374.275-.565.409a11.336,11.336,0,0,1-6.355,2.342c.17-.381.607-1.376,1.108-2.321a20.087,20.087,0,0,1,2.482-1.255c.085-.043.163-.071.233-.1a3.328,3.328,0,0,1,1.644-.226A3.481,3.481,0,0,1,1111.074,2625.876Z" fill="#2c2225"/>
      <path id="Trazado_115692" data-name="Trazado 115692" d="M1119.637,2621.174l-4.756-1.543-2.1,1.137c-.036-.034-.067-.069-.1-.1l.877-2.493-4.2.807a23.778,23.778,0,0,0-6.673,1.8c-1.494.782-3.059,2.709-2.383,4.323.9,2.145,3.273,3.227,7.128,2.4a11.187,11.187,0,0,0,4-1.677l.045-.033c.447-.312,4.078-2.743,6.291-.854,2.362,2.016-.05,7.268-.05,7.268s2.073,1.585,2.154,1.364,3.984-8.162,3.984-8.162Z" fill="#78241d"/>
      <path id="Trazado_115693" data-name="Trazado 115693" d="M1128.4,2657.968c.071.261.388.952.6,1.538h-2.843a16.226,16.226,0,0,1-.684-3.534,15.974,15.974,0,0,0-.155,3.534h-5.177a16.412,16.412,0,0,1-2.158-6.884,24.945,24.945,0,0,0,.12,6.884h-3.64a19.624,19.624,0,0,1,1.249-13.6,18.783,18.783,0,0,0,1.939-7.512l-.162-6.15,7.977-5.685a34.892,34.892,0,0,0,.272,6.3,37.375,37.375,0,0,0,2.451,7.471c.162.4.331.79.479,1.192,1.341,3.519-.2,6.3-.663,9.783A18.223,18.223,0,0,0,1128.4,2657.968Z" fill="#78241d"/>
      <path id="Trazado_115694" data-name="Trazado 115694" d="M1119.987,2634.928c-1.219.957-2.732,1.065-3.378.241s-.182-2.266,1.037-3.223,2.731-1.065,3.377-.242S1121.206,2633.971,1119.987,2634.928Z" fill="#ffa058"/>
      <path id="Trazado_115695" data-name="Trazado 115695" d="M1128.433,2649.024a8.748,8.748,0,0,1-.36,1.221,9.089,9.089,0,0,1-.508,1.121c.127-.465.268-.91.43-1.333A9.979,9.979,0,0,1,1128.433,2649.024Z" fill="#78241d"/>
      <g id="Grupo_81393" data-name="Grupo 81393">
        <path id="Trazado_115696" data-name="Trazado 115696" d="M1118.909,2623.048a.181.181,0,0,1-.141-.069.178.178,0,0,1,.031-.249c.121-.094,2.975-2.288,4.956-.826a.178.178,0,1,1-.211.286c-1.764-1.3-4.5.8-4.525.82A.178.178,0,0,1,1118.909,2623.048Z" fill="#2c2225"/>
      </g>
      <g id="Grupo_81394" data-name="Grupo 81394">
        <path id="Trazado_115697" data-name="Trazado 115697" d="M1118.2,2631.758a.178.178,0,0,1-.082-.335c.02-.014.051-.043.094-.08a2.991,2.991,0,0,1,3.421-.606.178.178,0,0,1-.152.322,2.632,2.632,0,0,0-3.036.553.855.855,0,0,1-.168.129A.192.192,0,0,1,1118.2,2631.758Z" fill="#2c2225"/>
      </g>
      <g id="Grupo_81395" data-name="Grupo 81395">
        <path id="Trazado_115698" data-name="Trazado 115698" d="M1124.12,2652.8a.178.178,0,0,1-.175-.148,9.881,9.881,0,0,1,.749-5.5,10.443,10.443,0,0,0,.854-4.458c-.187-3.059-2.022-5.864-2.8-7.062a2.878,2.878,0,0,1-.4-.7.178.178,0,0,1,.35-.069,5.753,5.753,0,0,0,.351.571c.8,1.221,2.67,4.081,2.864,7.235a10.744,10.744,0,0,1-.875,4.6,9.471,9.471,0,0,0-.734,5.317.177.177,0,0,1-.145.205A.155.155,0,0,1,1124.12,2652.8Z" fill="#2c2225"/>
      </g>
      <path id="Trazado_115699" data-name="Trazado 115699" d="M1130.718,2707.313h-38.652l3.35-8.662,1.093-2.807a56.476,56.476,0,0,1,12.358-1.389c.825-.022,1.664-.036,2.525-.036,6.284,0,11.8.572,14.882,1.425l1.087,2.807Z" fill="#0d3991"/>
      <path id="Trazado_115700" data-name="Trazado 115700" d="M1123.643,2733.1c-6.235,1.08-13.1-8.463-15.319-21.315-.268-1.516-.452-3.011-.565-4.471a42.24,42.24,0,0,1,.008-6.948,29.248,29.248,0,0,1,1.1-5.91c.825-.022,1.664-.036,2.525-.036,6.284,0,11.8.572,14.882,1.425.332.092.635.191.91.282q.519,1.036.974,2.159a45.311,45.311,0,0,1,2.736,9.585C1133.123,2720.721,1129.879,2732.013,1123.643,2733.1Z" fill="#0d3991"/>
      <path id="Trazado_115701" data-name="Trazado 115701" d="M1135.677,2690.942a8.542,8.542,0,0,0,2.491-6.26,7.478,7.478,0,0,0-11.194-5.983c-3.817,1.58-8.406,3.179-8.4,3.2-.221.017-.22.222-.433.283-3.886,1.109-4.126,8.24-2.173,14.545,1.791,5.78,5.446,11.389,9.037,11.431a3.442,3.442,0,0,0,.976-.131,3.683,3.683,0,0,0,2.216-1.875c1.463-2.152,2.209-5.987,2.782-8.6.524-2.393,2.582-4.625,3.8-5.779a7.557,7.557,0,0,0,.888-.8S1135.675,2690.949,1135.677,2690.942Z" fill="#3b78e5"/>
      <g id="Grupo_81396" data-name="Grupo 81396">
        <path id="Trazado_115702" data-name="Trazado 115702" d="M1117.855,2654.064a.177.177,0,0,1-.178-.17,10.913,10.913,0,0,1,1.733-6.17,12.618,12.618,0,0,0,1.9-7.606.178.178,0,0,1,.166-.189.166.166,0,0,1,.189.167,12.922,12.922,0,0,1-1.94,7.8,10.627,10.627,0,0,0-1.691,5.987.178.178,0,0,1-.17.186Z" fill="#2c2225"/>
      </g>
      <g id="Grupo_81397" data-name="Grupo 81397">
        <path id="Trazado_115703" data-name="Trazado 115703" d="M1103.823,2626.61a5.794,5.794,0,0,1-1.2-.129c-1.085-.231-2.67-1.216-2.63-2.6a.178.178,0,0,1,.178-.172h.006a.177.177,0,0,1,.172.183c-.035,1.178,1.38,2.031,2.347,2.237,2.637.562,4.561-.885,6.6-2.417,1.8-1.351,3.664-2.734,6.047-2.647a.178.178,0,0,1-.007.355h-.008c-2.249-.1-4.068,1.263-5.818,2.577C1107.793,2625.286,1106.03,2626.61,1103.823,2626.61Z" fill="#2c2225"/>
      </g>
      <g id="Grupo_81398" data-name="Grupo 81398">
        <path id="Trazado_115704" data-name="Trazado 115704" d="M1121.444,2626.63a.178.178,0,0,1-.178-.16,2.168,2.168,0,0,0-.852-1.6c-1.014-.76-2.873-.889-5.529-.385-.095.018-.168.032-.216.04a.178.178,0,1,1-.056-.352c.045-.007.116-.021.2-.038,1.03-.2,4.157-.788,5.809.45a2.515,2.515,0,0,1,.994,1.85.179.179,0,0,1-.16.194Z" fill="#2c2225"/>
      </g>
      <path id="Trazado_115705" data-name="Trazado 115705" d="M1092.357,2677.536l-7.574-4.787-12.4-7.837c-.918-.58-5.015-3.3-5.015-3.3-2.213.159-5.748,9.062-6.666,12.919-.814,3.414-2.067,8.205-.289,11.5.986,1.827,3.064,2.062,4.92,1.7a31.764,31.764,0,0,0,3.931-1.334,8.587,8.587,0,0,1,4.311-.306l14.213,3.9a6.415,6.415,0,0,0,7-2.515C1096.341,2685.087,1095.3,2679.331,1092.357,2677.536Z" fill="#3b78e5"/>
      <path id="Trazado_115706" data-name="Trazado 115706" d="M1069.27,2674.79c-.021.261-.05.522-.085.79-.952,7.512-4.577,12.576-7.335,11.814-2.779-.783-2.977-6.143-1.192-12.914.4-1.637.86-3.238,1.34-4.726a26.234,26.234,0,0,1,3.04-6.764c.656-.91,1.305-1.439,1.932-1.453.974-.035,1.743,1.481,2.166,3.893A34.869,34.869,0,0,1,1069.27,2674.79Z" fill="#2c2225"/>
      <path id="Trazado_115707" data-name="Trazado 115707" d="M1124.659,2708.11c-2.454.331-6.362-3.943-8.838-11.151a22.161,22.161,0,0,1-1.234-7.59c.071-2.878.839-5.2,2.074-6.461a3.4,3.4,0,0,1,1.417-.9,3.109,3.109,0,0,1,.868-.127h.007c2.172.007,4.034,2.532,5.311,6.545a34.207,34.207,0,0,1,1.044,4.345C1126.676,2699.78,1129.561,2707.447,1124.659,2708.11Z" fill="#2c2225"/>
      <g id="Grupo_81399" data-name="Grupo 81399">
        <path id="Trazado_115708" data-name="Trazado 115708" d="M1090.742,2679.373a.178.178,0,0,1-.174-.145c-.432-2.3-2.466-4.52-5.728-6.246-.079-.042-.131-.07-.152-.083a.178.178,0,0,1-.056-.246.182.182,0,0,1,.246-.055c.018.011.062.035.128.07,3.36,1.778,5.46,4.084,5.911,6.494a.178.178,0,0,1-.142.208Z" fill="#2c2225"/>
      </g>
      <g id="Grupo_81400" data-name="Grupo 81400">
        <path id="Trazado_115709" data-name="Trazado 115709" d="M1125.132,2678.269a.179.179,0,0,1-.178-.162L1123.9,2666.5c0-.066,0-.113,0-.179a4.372,4.372,0,0,1,2.164-4.185.178.178,0,0,1,.174.31,4.039,4.039,0,0,0-1.982,3.872,1.51,1.51,0,0,1-.005.193l1.056,11.564a.177.177,0,0,1-.161.193Z" fill="#2c2225"/>
      </g>
      <g id="Grupo_81401" data-name="Grupo 81401">
        <path id="Trazado_115710" data-name="Trazado 115710" d="M1122.406,2659.563a.175.175,0,0,1-.136-.063,8.59,8.59,0,0,1-.512-9.4.178.178,0,1,1,.3.184,8.213,8.213,0,0,0,.48,8.984.177.177,0,0,1-.022.251A.173.173,0,0,1,1122.406,2659.563Z" fill="#2c2225"/>
      </g>
      <g id="Grupo_81402" data-name="Grupo 81402">
        <path id="Trazado_115711" data-name="Trazado 115711" d="M1117.962,2682.424a.178.178,0,0,1-.065-.344l6.972-2.726c3.7-1.218,7.549-1.742,10.655,2.614a.178.178,0,1,1-.289.207c-2.974-4.17-6.682-3.659-10.246-2.486l-6.962,2.723A.186.186,0,0,1,1117.962,2682.424Z" fill="#2c2225"/>
      </g>
      <g id="Grupo_81403" data-name="Grupo 81403">
        <path id="Trazado_115712" data-name="Trazado 115712" d="M1128.411,2705.983a.175.175,0,0,1-.1-.034.177.177,0,0,1-.04-.248c2.2-3.04,2.28-7.169,2.34-10.185.036-1.821.065-3.259.544-3.915a.178.178,0,1,1,.288.21c-.414.565-.443,2.024-.476,3.712-.061,3.063-.144,7.257-2.408,10.387A.18.18,0,0,1,1128.411,2705.983Z" fill="#2c2225"/>
      </g>
      <g id="Grupo_81404" data-name="Grupo 81404">
        <path id="Trazado_115713" data-name="Trazado 115713" d="M1068.846,2686.72a.178.178,0,0,1-.059-.345c.044-.016.134-.061.264-.125,3.248-1.582,6.231-2.03,8.866-1.331a.179.179,0,0,1,.126.218.176.176,0,0,1-.217.127c-2.551-.677-5.45-.237-8.619,1.306-.148.073-.25.122-.3.14A.178.178,0,0,1,1068.846,2686.72Z" fill="#2c2225"/>
      </g>
      <g id="Grupo_81405" data-name="Grupo 81405">
        <path id="Trazado_115714" data-name="Trazado 115714" d="M1136.927,2673.705a.179.179,0,0,1-.168-.119c-.83-2.375-3.543-5.757-4.434-6.868l-.1-.123a.178.178,0,0,1,.278-.222l.1.122c.9,1.123,3.642,4.541,4.494,6.973a.179.179,0,0,1-.11.227A.173.173,0,0,1,1136.927,2673.705Z" fill="#2c2225"/>
      </g>
      <g id="Grupo_81406" data-name="Grupo 81406">
        <path id="Trazado_115715" data-name="Trazado 115715" d="M1124.736,2679.827l-.026,0a.177.177,0,0,1-.15-.2c.232-1.562,2.326-3.118,3.576-4.048a6.1,6.1,0,0,0,.747-.6.18.18,0,0,1,.246-.058.177.177,0,0,1,.059.243,4.2,4.2,0,0,1-.84.7c-1.127.839-3.225,2.4-3.436,3.815A.177.177,0,0,1,1124.736,2679.827Z" fill="#2c2225"/>
      </g>
      <g id="Grupo_81407" data-name="Grupo 81407">
        <path id="Trazado_115716" data-name="Trazado 115716" d="M1086.576,2673.983a.177.177,0,0,1-.166-.236c.1-.271,1.648-2.19,5.079-2.236h0a.178.178,0,0,1,0,.356c-3.2.043-4.643,1.748-4.751,2A.182.182,0,0,1,1086.576,2673.983Z" fill="#2c2225"/>
      </g>
      <g id="Grupo_81408" data-name="Grupo 81408">
        <path id="Trazado_115717" data-name="Trazado 115717" d="M1097.058,2664.769h-.012a.178.178,0,0,1-.165-.19c.167-2.489-.995-4.2-1.864-4.431a.177.177,0,0,1-.125-.218.179.179,0,0,1,.217-.126c1.162.31,2.294,2.312,2.126,4.8A.177.177,0,0,1,1097.058,2664.769Z" fill="#2c2225"/>
      </g>
      <path id="Trazado_115718" data-name="Trazado 115718" d="M1115.892,2707.369l-.593,1.115-1.5,2.835-13.451,25.4-4.662,8.8.219,3.224,3.865,57.251-3.1,1.749L1070.321,2806l4.239-62.809a14.891,14.891,0,0,1,1.516-5.594l19.432-39.166Z" fill="#0d3991"/>
      <path id="Trazado_115719" data-name="Trazado 115719" d="M1100.346,2736.718l-4.662,8.8.219,3.224-.042-.015c-.388-4.316-.727-5.494-1.333-6.622.952-.459,3.53-1.068,10.935-19.238a30.405,30.405,0,0,0,2.48-12.968l5.854,1.418Z" fill="#2c2225"/>
      <path id="Trazado_115720" data-name="Trazado 115720" d="M1099.768,2806c-.3,1.34-2.546,2.222-6.595,2.6a66.12,66.12,0,0,1-7.131.19c-1.015-.021-1.989-.042-2.913-.085-1.537-.056-2.948-.126-4.232-.225-1.615-.127-3.018-.282-4.2-.48-2.659-.451-4.169-1.093-4.38-2-.289-1.3,2.482-2.624,9.183-1.672,1.4.2,2.962.494,4.7.91,2.327.557,4.316.945,6.016,1.2.578.092,1.121.163,1.629.219q.667.084,1.27.127C1098.661,2807.243,1099.768,2806,1099.768,2806Z" fill="#2c2225"/>
      <path id="Trazado_115721" data-name="Trazado 115721" d="M1126.724,2814.544l-2.591.889a5.059,5.059,0,0,1-3.4-.042l-2.685-.994a3.017,3.017,0,0,1-1.967-2.877l.057-3.464a2.11,2.11,0,0,1,2.756-2.583s8.03,1.146,9.211,2.271l.659,3.225A3.119,3.119,0,0,1,1126.724,2814.544Z" fill="#2c2225"/>
      <path id="Trazado_115722" data-name="Trazado 115722" d="M1122.224,2810.285a33.149,33.149,0,0,1-5.959-3.167l10.966.06Z" fill="#ffa058"/>
      <path id="Trazado_115723" data-name="Trazado 115723" d="M1137.905,2806.207a.4.4,0,0,1,.049.155c0,1.347-6.573,2.447-14.677,2.447-7.724,0-14.043-.994-14.622-2.257h-.084l.768-64.629-1.721-36.388L1131.6,2716l-.134,2.737-.021.409c0,.064-.007.127-.007.2l-.049.938v.035l-.973,19.58a30.213,30.213,0,0,0,.183,5.121l.508,4.239a.052.052,0,0,1,.007.028l6.841,56.913Z" fill="#0d3991"/>
      <g id="Grupo_81409" data-name="Grupo 81409">
        <path id="Trazado_115724" data-name="Trazado 115724" d="M1108.883,2732.412a.178.178,0,0,1-.178-.172c-.248-8.335-.724-20.99-1.015-21.693-.314-.758-1.995-1.66-2.616-1.943a.178.178,0,0,1,.148-.324c.1.044,2.365,1.089,2.8,2.131.41.99.979,19.689,1.042,21.818a.178.178,0,0,1-.172.183Z" fill="#2c2225"/>
      </g>
      <g id="Grupo_81410" data-name="Grupo 81410">
        <path id="Trazado_115725" data-name="Trazado 115725" d="M1107.788,2703.71a.178.178,0,0,1-.178-.171c-.029-.784-.05-1.689-.063-2.621-.034-2.291-.011-4.882.027-6.432a.191.191,0,0,1,.183-.174.178.178,0,0,1,.173.182c-.038,1.548-.062,4.133-.028,6.419.014.929.035,1.831.064,2.613a.178.178,0,0,1-.172.184Z" fill="#2c2225"/>
      </g>
      <g id="Grupo_81411" data-name="Grupo 81411">
        <path id="Trazado_115726" data-name="Trazado 115726" d="M1094.74,2700.578h-.213a.177.177,0,1,1,0-.355h.212c1.114-.007,3.089-.038,4.463-.06l.641-.011c.322-.009.576-.014.725-.018l.844-5.228a.176.176,0,0,1,.2-.147.179.179,0,0,1,.148.2l-.868,5.374a.178.178,0,0,1-.172.15s-.345.007-.873.021l-.644.011C1097.832,2700.541,1095.856,2700.572,1094.74,2700.578Z" fill="#2c2225"/>
      </g>
      <g id="Grupo_81412" data-name="Grupo 81412">
        <path id="Trazado_115727" data-name="Trazado 115727" d="M1121.557,2700.575c-1.549,0-5.315-.071-6.2-.088a.178.178,0,0,1-.172-.15l-.945-5.847a.179.179,0,0,1,.147-.2.177.177,0,0,1,.205.147l.921,5.7c2.6.05,6.408.111,6.645.077a.184.184,0,0,1,.2.148.175.175,0,0,1-.139.2C1122.166,2700.571,1121.923,2700.575,1121.557,2700.575Z" fill="#2c2225"/>
      </g>
      <g id="Grupo_81413" data-name="Grupo 81413">
        <path id="Trazado_115728" data-name="Trazado 115728" d="M1096.248,2754.106a.178.178,0,0,1-.177-.167c-.142-2.131-.269-3.83-.388-5.194-.379-4.226-.711-5.437-1.312-6.554-.078-.157-.161-.3-.25-.453a.178.178,0,1,1,.306-.18c.093.158.18.31.26.47.622,1.156.966,2.4,1.351,6.685.119,1.367.246,3.069.388,5.2a.177.177,0,0,1-.166.189Z" fill="#2c2225"/>
      </g>
      <g id="Grupo_81414" data-name="Grupo 81414">
        <path id="Trazado_115729" data-name="Trazado 115729" d="M1079.993,2741a.169.169,0,0,1-.073-.016c-2.511-1.139-3.725-1.105-4.3-.875a.741.741,0,0,0-.429.341.178.178,0,0,1-.229.1.175.175,0,0,1-.1-.224,1.025,1.025,0,0,1,.6-.535c.636-.269,1.952-.337,4.611.868a.178.178,0,0,1-.073.34Z" fill="#2c2225"/>
      </g>
      <g id="Grupo_81415" data-name="Grupo 81415">
        <path id="Trazado_115730" data-name="Trazado 115730" d="M1123.167,2741a.172.172,0,0,1-.073-.016c-4.263-1.932-6.912-.037-6.938-.019a.178.178,0,0,1-.212-.286c.114-.084,2.844-2.037,7.3-.019a.178.178,0,0,1-.074.34Z" fill="#2c2225"/>
      </g>
      <path id="Trazado_115731" data-name="Trazado 115731" d="M1130.415,2739.9a30.213,30.213,0,0,0,.183,5.121l.508,4.239a25.975,25.975,0,0,1-1.862-11.772c.613-5.516,1.827-12.449,2.144-17.168Z" fill="#2c2225"/>
      <g id="Grupo_81416" data-name="Grupo 81416">
        <path id="Trazado_115732" data-name="Trazado 115732" d="M1072.467,2774.376h-.012a.177.177,0,0,1-.166-.189c.48-7.1,4.993-17.638,5.78-18.163a.178.178,0,0,1,.2.3c-.666.444-5.151,10.908-5.623,17.89A.178.178,0,0,1,1072.467,2774.376Z" fill="#2c2225"/>
      </g>
      <g id="Grupo_81417" data-name="Grupo 81417">
        <path id="Trazado_115733" data-name="Trazado 115733" d="M1099.213,2797.954a.178.178,0,0,1-.176-.158c-.776-6.934-5.186-14.63-7.555-18.765-1.1-1.919-1.478-2.6-1.438-2.88a.178.178,0,0,1,.353.047,17.131,17.131,0,0,0,1.394,2.656c2.382,4.157,6.816,11.9,7.6,18.9a.177.177,0,0,1-.157.2Z" fill="#2c2225"/>
      </g>
      <g id="Grupo_81418" data-name="Grupo 81418">
        <path id="Trazado_115734" data-name="Trazado 115734" d="M1109.17,2756.349h0a.179.179,0,0,1-.176-.18c.1-8.495,3.518-17.442,4.677-18.636a.178.178,0,0,1,.256.248c-.945.973-4.473,9.585-4.577,18.392A.177.177,0,0,1,1109.17,2756.349Z" fill="#2c2225"/>
      </g>
      <g id="Grupo_81419" data-name="Grupo 81419">
        <path id="Trazado_115735" data-name="Trazado 115735" d="M1134.613,2778.586a.179.179,0,0,1-.173-.137c-1.335-5.608-7.81-16.3-8.325-16.948a.178.178,0,1,1,.278-.222c.519.649,7.047,11.433,8.394,17.088a.178.178,0,0,1-.132.214A.155.155,0,0,1,1134.613,2778.586Z" fill="#2c2225"/>
      </g>
      <g id="Grupo_81420" data-name="Grupo 81420">
        <path id="Trazado_115736" data-name="Trazado 115736" d="M1082.69,2724.44a.166.166,0,0,1-.081-.02.178.178,0,0,1-.078-.239,16.758,16.758,0,0,1,8.9-7.193.178.178,0,1,1,.118.335,16.383,16.383,0,0,0-8.7,7.02A.177.177,0,0,1,1082.69,2724.44Z" fill="#2c2225"/>
      </g>
      <g id="Grupo_81421" data-name="Grupo 81421">
        <path id="Trazado_115737" data-name="Trazado 115737" d="M1131.388,2717.83a.175.175,0,0,1-.175-.148c-.489-2.92-2.655-4.595-3.949-5.6-.606-.469-1.007-.779-1.116-1.083a.178.178,0,1,1,.335-.119,3.793,3.793,0,0,0,1,.921c1.335,1.032,3.57,2.762,4.082,5.819a.178.178,0,0,1-.147.2A.13.13,0,0,1,1131.388,2717.83Z" fill="#2c2225"/>
      </g>
      <g id="Grupo_81422" data-name="Grupo 81422">
        <path id="Trazado_115738" data-name="Trazado 115738" d="M1092.975,2703.71a.174.174,0,0,1-.148-.079.178.178,0,0,1,.048-.247c.095-.063,2.4-1.566,8.5-1.69a.172.172,0,0,1,.181.174.179.179,0,0,1-.174.182c-5.974.122-8.285,1.615-8.308,1.63A.169.169,0,0,1,1092.975,2703.71Z" fill="#2c2225"/>
      </g>
      <path id="Trazado_115739" data-name="Trazado 115739" d="M1091.854,2806.651c-1.6.423-4.986,1.305-8.725,2.052a49.573,49.573,0,0,1-10.981,1.242s1.086-.825,2.553-1.947l4.8-3.675c1.4.2,2.962.494,4.7.91A65.1,65.1,0,0,0,1091.854,2806.651Z" fill="#ffa058"/>
      <g id="Grupo_81423" data-name="Grupo 81423">
        <path id="Trazado_115740" data-name="Trazado 115740" d="M1094.368,2694.573a.188.188,0,0,1-.052-.008.177.177,0,0,1-.118-.222c.851-2.762,3.935-4.136,5.1-4.654a4.187,4.187,0,0,0,.379-.179.17.17,0,0,1,.245-.007.185.185,0,0,1,.007.257,1.661,1.661,0,0,1-.486.255c-1.121.5-4.1,1.825-4.9,4.432A.179.179,0,0,1,1094.368,2694.573Z" fill="#2c2225"/>
      </g>
      <path id="Trazado_115741" data-name="Trazado 115741" d="M1083.905,2813.655v-2.405l-7.363,2.405H1064.77a6.9,6.9,0,0,1-3.273-.825.678.678,0,0,1,.219-1.263l17.181-3.089,11.328-2.046c.578.092,1.121.163,1.629.219q.667.084,1.27.127l.049,1.82.127,5.057Z" fill="#2c2225"/>
      <path id="Trazado_115742" data-name="Trazado 115742" d="M1120.757,2682.783c.68.347-2.728,3.315-3.557,2.493-3.426-3.393-6.449-7.062-6.253-8.148h0a.253.253,0,0,1,.4-.219A71.827,71.827,0,0,0,1120.757,2682.783Z" fill="#ffa058"/>
      <g id="Grupo_81424" data-name="Grupo 81424">
        <path id="Trazado_115743" data-name="Trazado 115743" d="M1114.713,2688.533a1.992,1.992,0,0,1-.361,1.548l-.13.174-3.739-19.1c.049-1.409-.384-1.761-.882-1.749l-17.12.032.508-.453a1.455,1.455,0,0,1,1.166-.612l16.073-.08a.97.97,0,0,1,.957.794Z" fill="#2c2225"/>
        <path id="Trazado_115744" data-name="Trazado 115744" d="M1110.838,2669.918l3.616,19.7a.709.709,0,0,1-.7.836h-16.393a.972.972,0,0,1-.951-.773l-4.083-19.644a.709.709,0,0,1,.692-.853l16.858-.059A.972.972,0,0,1,1110.838,2669.918Z" fill="#bcd4ff"/>
        <path id="Trazado_115745" data-name="Trazado 115745" d="M1103.9,2676.546a1.714,1.714,0,1,1-1.583-1.475A1.547,1.547,0,0,1,1103.9,2676.546Z" fill="#2c2225"/>
      </g>
      <g id="Grupo_81425" data-name="Grupo 81425">
        <path id="Trazado_115746" data-name="Trazado 115746" d="M1069.27,2674.79l-7.272-5.036-1.629-1.128,3.914-6.087.755.451,4.1,2.44A34.869,34.869,0,0,1,1069.27,2674.79Z" fill="#ffa058"/>
        <path id="Trazado_115747" data-name="Trazado 115747" d="M1064.278,2662.881l-2.278,6.836s-7.369-1.224-8.885-2.6c-1.133-1.029,2.418-5.623,2.418-5.623Z" fill="#ffa058"/>
        <path id="Trazado_115748" data-name="Trazado 115748" d="M1066.942,2664.252c.559.52-3.531,2.442-4.1,1.425-2.366-4.2-4.27-8.558-3.784-9.548h0a.253.253,0,0,1,.448-.1A71.758,71.758,0,0,0,1066.942,2664.252Z" fill="#ffa058"/>
        <path id="Trazado_115749" data-name="Trazado 115749" d="M1055.639,2663.5a2.053,2.053,0,0,1-.33-.121l-.153-.088c-.111-.062-.168-.11-.254-.166-.153-.108-.293-.213-.429-.322-.271-.216-.527-.436-.776-.663-.5-.451-.969-.922-1.422-1.409a35.449,35.449,0,0,1-2.552-3.186.354.354,0,0,1,.348-.553h0a2.474,2.474,0,0,1,1.448.817,23.194,23.194,0,0,0,1.855,1.819c.46.419.935.821,1.423,1.195.244.187.492.367.739.532.122.083.247.161.362.229.051.026.125.075.157.085l.059.027a.241.241,0,0,0-.1-.035Z" fill="#ffa058"/>
        <path id="Trazado_115750" data-name="Trazado 115750" d="M1055.57,2664.784a2.539,2.539,0,0,1-.322-.112l-.161-.081c-.114-.056-.2-.107-.292-.16-.189-.1-.358-.212-.536-.32q-.519-.326-1.015-.671c-.664-.46-1.307-.945-1.927-1.464a21.994,21.994,0,0,1-3.435-3.663.257.257,0,0,1,.21-.4h0a2.456,2.456,0,0,1,1.863.8,13.907,13.907,0,0,0,2.317,2.039c.614.446,1.252.863,1.9,1.253q.489.293.985.559c.163.084.331.176.49.25.078.036.167.082.232.107l.1.044c.006,0-.03-.017-.046-.013Z" fill="#ffa058"/>
        <path id="Trazado_115751" data-name="Trazado 115751" d="M1055.211,2666.654c-.09-.033-.2-.075-.269-.11l-.164-.084c-.114-.058-.2-.112-.3-.168-.195-.112-.379-.226-.564-.342-.366-.232-.725-.47-1.075-.719-.7-.5-1.381-1.017-2.033-1.576a28.1,28.1,0,0,1-3.675-3.79.329.329,0,0,1,.294-.525l.11.01a2.606,2.606,0,0,1,1.7.866,16.985,16.985,0,0,0,2.55,2.224c.644.485,1.317.936,2,1.358.343.212.692.412,1.041.6.174.094.351.189.522.273.084.039.177.089.252.119l.116.052c.022.007.014,0,.02.007Z" fill="#ffa058"/>
        <path id="Trazado_115752" data-name="Trazado 115752" d="M1055.112,2668.029l-.228-.066-.151-.056-.285-.114c-.123-.05-.241-.1-.358-.155-.237-.107-.474-.214-.7-.331a20.717,20.717,0,0,1-2.495-1.468,17.367,17.367,0,0,1-3.489-3.346.355.355,0,0,1,.26-.568h0a1.779,1.779,0,0,1,1.425.556,11.869,11.869,0,0,0,2.644,2.046,18.981,18.981,0,0,0,2.409,1.192c.209.088.422.166.635.244.107.039.215.078.32.112l.237.075.112.033a.246.246,0,0,1,.039.008Z" fill="#ffa058"/>
      </g>
      <g id="Grupo_81426" data-name="Grupo 81426">
        <path id="Trazado_115753" data-name="Trazado 115753" d="M1112.392,2684.91a2.206,2.206,0,0,1-.385.059l-.2,0c-.141,0-.221-.018-.335-.026-.207-.023-.4-.051-.589-.085-.379-.064-.745-.142-1.107-.229-.725-.173-1.434-.379-2.134-.61a39.339,39.339,0,0,1-4.179-1.735.391.391,0,0,1,.043-.721h0a2.738,2.738,0,0,1,1.843.02,25.633,25.633,0,0,0,2.773.777c.67.162,1.346.3,2.02.4.336.052,2.106.288,2.069.306Z" fill="#ffa058"/>
        <path id="Trazado_115754" data-name="Trazado 115754" d="M1111.608,2686.129a2.486,2.486,0,0,1-.346.034l-.184-.005c-.129,0-.226-.014-.338-.022-.22-.015-.423-.042-.633-.065-.413-.053-.822-.113-1.227-.184-.812-.14-1.615-.311-2.411-.524a22.461,22.461,0,0,1-4.751-1.908.262.262,0,0,1,.02-.464h0a2.506,2.506,0,0,1,2.065-.064,14.123,14.123,0,0,0,3.02.888c.759.149,1.528.259,2.3.339.384.041.769.071,1.15.094.188.007.382.019.561.02.088,0,.189,0,.26,0l.115,0c.006,0-.034,0-.048.008Z" fill="#ffa058"/>
        <path id="Trazado_115755" data-name="Trazado 115755" d="M1112.787,2687.914c-.1.008-.212.015-.3.014l-.187-.008c-.131,0-.234-.017-.352-.025-.228-.02-.447-.046-.668-.073-.438-.057-.872-.123-1.3-.2-.861-.157-1.714-.347-2.557-.583a28.577,28.577,0,0,1-5.027-1.922.335.335,0,0,1,.045-.611l.106-.039a2.649,2.649,0,0,1,1.94.072,17.361,17.361,0,0,0,3.315.958c.8.171,1.619.3,2.435.394.407.049.816.083,1.221.111.2.011.405.023.6.027.094,0,.2.006.284,0l.13,0c.023,0,.013-.006.022,0Z" fill="#ffa058"/>
        <path id="Trazado_115756" data-name="Trazado 115756" d="M1113.466,2688.852l-.24.031-.164.01-.313.01c-.135,0-.266,0-.4,0-.265,0-.53-.006-.794-.021a21.139,21.139,0,0,1-2.931-.347,17.728,17.728,0,0,1-4.628-1.692.362.362,0,0,1,.01-.637h0a1.815,1.815,0,0,1,1.558-.066,12.094,12.094,0,0,0,3.307.826,19.219,19.219,0,0,0,2.737.125c.231,0,.462-.018.693-.032.116-.008.233-.015.345-.027l.251-.027.118-.015a.191.191,0,0,1,.04-.008Z" fill="#ffa058"/>
        <path id="Trazado_115757" data-name="Trazado 115757" d="M1124.264,2688.431l-3.371.776a13.94,13.94,0,0,1-3.936.338c-.7-.042-1.524-.1-2.37-.176a17.344,17.344,0,0,1-5.17-.959c-1.284-.741,1.467-5.41,1.467-5.41l5.777-.092.677-.014-.085-.416s.684-.247,1.693-.592h.007C1121.125,2681.893,1122.987,2684.418,1124.264,2688.431Z" fill="#ffa058"/>
      </g>
      <g id="Grupo_81427" data-name="Grupo 81427">
        <path id="Trazado_115758" data-name="Trazado 115758" d="M1110.938,2686.435h-.016a23.016,23.016,0,0,1-9.263-2.809.2.2,0,0,1-.08-.251.164.164,0,0,1,.226-.076l.033.019a22.637,22.637,0,0,0,9.115,2.762.179.179,0,0,1,.162.193A.177.177,0,0,1,1110.938,2686.435Z" fill="#a55012"/>
      </g>
      <g id="Grupo_81428" data-name="Grupo 81428">
        <path id="Trazado_115759" data-name="Trazado 115759" d="M1110.8,2688.106h-.019a25.511,25.511,0,0,1-8.474-2.835.179.179,0,0,1-.067-.243.176.176,0,0,1,.242-.067,25.113,25.113,0,0,0,8.336,2.791.178.178,0,0,1-.018.355Z" fill="#a55012"/>
      </g>
      <g id="Grupo_81429" data-name="Grupo 81429">
        <path id="Trazado_115760" data-name="Trazado 115760" d="M1110.938,2684.882h-.014a15.973,15.973,0,0,1-3.981-.9.178.178,0,1,1,.126-.332,15.972,15.972,0,0,0,3.883.876.178.178,0,0,1-.014.356Z" fill="#a55012"/>
      </g>
      <g id="Grupo_81430" data-name="Grupo 81430">
        <path id="Trazado_115761" data-name="Trazado 115761" d="M1062.682,2665.313a.181.181,0,0,1-.114-.041c-.828-.686-1.71-2.744-2.161-3.909l-.03-.075a.18.18,0,0,1,.091-.234.177.177,0,0,1,.233.088c0,.007.017.039.037.093A10.89,10.89,0,0,0,1062.8,2665a.178.178,0,0,1-.113.315Z" fill="#a55012"/>
      </g>
      <g id="Grupo_81431" data-name="Grupo 81431">
        <path id="Trazado_115762" data-name="Trazado 115762" d="M1053.3,2666.5a.178.178,0,0,1-.067-.014.176.176,0,0,1-.1-.231l.088-.219c.573-1.412,1.639-4.041,2.712-4.527a.178.178,0,0,1,.147.324c-.944.428-2.055,3.167-2.529,4.337l-.089.219A.178.178,0,0,1,1053.3,2666.5Z" fill="#a55012"/>
      </g>
      <g id="Grupo_81432" data-name="Grupo 81432">
        <path id="Trazado_115763" data-name="Trazado 115763" d="M1060.091,2666.5a.178.178,0,0,1-.106-.321c.983-.738,3.064-.917,4-.064a.178.178,0,1,1-.24.263,3.3,3.3,0,0,0-3.545.086A.177.177,0,0,1,1060.091,2666.5Z" fill="#a55012"/>
      </g>
      <g id="Grupo_81433" data-name="Grupo 81433">
        <path id="Trazado_115764" data-name="Trazado 115764" d="M1053.427,2665.586a.172.172,0,0,1-.085-.022c-.538-.292-2.3-1.251-2.367-1.3a.178.178,0,0,1-.051-.246.18.18,0,0,1,.245-.053c.08.049,1.444.794,2.343,1.284a.178.178,0,0,1-.085.334Z" fill="#a55012"/>
      </g>
      <g id="Grupo_81434" data-name="Grupo 81434">
        <path id="Trazado_115765" data-name="Trazado 115765" d="M1054.259,2664.289a.18.18,0,0,1-.087-.022,33.015,33.015,0,0,1-4.341-3.187.178.178,0,0,1,.241-.262,32.861,32.861,0,0,0,4.274,3.138.178.178,0,0,1-.087.333Z" fill="#a55012"/>
      </g>
      <g id="Grupo_81435" data-name="Grupo 81435">
        <path id="Trazado_115766" data-name="Trazado 115766" d="M1055,2662.736a.161.161,0,0,1-.067-.014,20.223,20.223,0,0,1-3.739-2.58.178.178,0,1,1,.231-.271,20.513,20.513,0,0,0,3.643,2.523.178.178,0,0,1-.068.342Z" fill="#a55012"/>
      </g>
      <g id="Grupo_81436" data-name="Grupo 81436">
        <path id="Trazado_115767" data-name="Trazado 115767" d="M1118.061,2633.3a.178.178,0,0,1-.15-.273,2.2,2.2,0,0,1,2.682-.867.178.178,0,1,1-.142.326,1.806,1.806,0,0,0-2.239.731A.178.178,0,0,1,1118.061,2633.3Z" fill="#a55012"/>
      </g>
      <g id="Grupo_81437" data-name="Grupo 81437">
        <path id="Trazado_115768" data-name="Trazado 115768" d="M1109.076,2663.174a.166.166,0,0,1-.078-.018.178.178,0,0,1-.082-.238,14.706,14.706,0,0,1,4.869-5.227.178.178,0,0,1,.194.3,14.322,14.322,0,0,0-4.743,5.085A.178.178,0,0,1,1109.076,2663.174Z" fill="#2c2225"/>
      </g>
      <path id="Trazado_115769" data-name="Trazado 115769" d="M1205.447,2791.813l-2.751,21.918h-.042c0,.734-4.436,1.327-9.917,1.327s-9.91-.593-9.91-1.327h-.042l-2.751-21.918Z" fill="#3c49ab"/>
      <path id="Trazado_115770" data-name="Trazado 115770" d="M1205.447,2791.811a.34.34,0,0,1-.035.162,1.22,1.22,0,0,1-.635.571.022.022,0,0,1-.014.007c-1.4.748-4.867,1.319-9.155,1.5-.332.021-.663.028-1,.035-.437.014-.881.021-1.326.021a.1.1,0,0,1-.063,0,1.852,1.852,0,0,1-.2.007h-.282c-.084,0-.176,0-.261-.007a.76.76,0,0,1-.127,0,2.692,2.692,0,0,1-.338,0c-.445,0-.882-.007-1.319-.028a.1.1,0,0,1-.064,0c-.2,0-.409-.007-.613-.021h-.057q-.836-.031-1.629-.085a40.354,40.354,0,0,1-5.05-.621c-2.017-.409-3.245-.945-3.245-1.537,0-.318.346-.614.981-.889a22.125,22.125,0,0,1,5.783-1.142c.29-.022.586-.05.882-.071.36-.028.734-.056,1.107-.078l.741-.042c.48-.021.966-.035,1.467-.049.254-.007.508-.014.762-.007a1.189,1.189,0,0,1,.162-.007h.042a1.663,1.663,0,0,1,.261,0c.17-.007.346-.007.515-.007.466,0,.924.007,1.376.014a.427.427,0,0,1,.1.007c.762.007,1.51.042,2.222.077l.268.021C1201.78,2789.935,1205.447,2790.795,1205.447,2791.811Z" fill="#2c2225"/>
      <path id="Trazado_115771" data-name="Trazado 115771" d="M1209.207,2752.08a5.043,5.043,0,0,1-1,1.474,37.867,37.867,0,0,0-4.324,7.053c-.387.769-.754,1.552-1.107,2.335-.846,1.855-1.643,3.738-2.37,5.657-.416,1.058-.811,2.13-1.192,3.2-.3.867-.6,1.742-.889,2.617-.648,1.96-1.241,3.949-1.819,5.945-.536,2.011-1.108,4.014-1.608,6.045-.268,1.037-.522,2.081-.783,3.125-.036.169-.078.338-.12.515-.275,1.142-.55,2.292-.826,3.442-.014.07-.035.148-.049.218-.035.134-.063.268-.1.4h-.282c-.127,0-.261,0-.388-.007a2.692,2.692,0,0,1-.338,0c-.445,0-.882-.007-1.319-.028a.1.1,0,0,1-.064,0c.007-.134.014-.275.021-.409.078-1.376.2-2.751.346-4.126q.138-1.365.317-2.73c.029-.19.05-.374.078-.557s.042-.353.071-.529a88.446,88.446,0,0,1,2.771-12.6,55.893,55.893,0,0,1,5.051-12c.028-.049.063-.106.091-.155a27.962,27.962,0,0,1,8.464-9.437c.353-.233,1-.409,1.291,0A.629.629,0,0,1,1209.207,2752.08Z" fill="#ffc765"/>
      <path id="Trazado_115772" data-name="Trazado 115772" d="M1199.374,2760.967a37.1,37.1,0,0,1,.191,5.135c-.014.627-.042,1.276-.085,1.961-.077,1.22-.162,2.475-.268,3.738-.338,4.175-.846,8.485-1.53,12.272a55.949,55.949,0,0,1-1.249,5.544,18.326,18.326,0,0,1-1.827,4.465c-.437.014-.881.021-1.326.021a.1.1,0,0,1-.063,0,1.852,1.852,0,0,1-.2.007h-.282c-.127,0-.261,0-.388-.007a2.692,2.692,0,0,1-.338,0c-.445,0-.882-.007-1.319-.028a.1.1,0,0,1-.064,0c-.2,0-.409-.007-.613-.021h-.057a20.9,20.9,0,0,1-2.278-4.345,61.1,61.1,0,0,1-2.567-8.14,85.5,85.5,0,0,1-1.686-8.717c-.148-1.065-.275-2.116-.374-3.153-.127-1.284-.211-2.539-.254-3.738a36.3,36.3,0,0,1,.177-5.445v-.008c.479-4.062,1.749-6.383,3.35-7.673a28.482,28.482,0,0,1,.092-10.785c1.467-7,6.432-12.456,9.677-11.772s4.662,7.589,3.2,14.586a28.984,28.984,0,0,1-3.139,8.175C1197.682,2754.421,1198.909,2756.841,1199.374,2760.967Z" fill="#6e92de"/>
      <g id="Grupo_81438" data-name="Grupo 81438">
        <path id="Trazado_115773" data-name="Trazado 115773" d="M1192.236,2794.084a.178.178,0,0,1-.169-.122c-1.684-5.019-3.614-13.856-3.246-27.449.608-22.2,7.048-36.171,7.113-36.311a.18.18,0,0,1,.237-.085.178.178,0,0,1,.085.237c-.065.138-6.474,14.053-7.079,36.169-.367,13.54,1.553,22.334,3.228,27.327a.178.178,0,0,1-.169.234Z" fill="#0d3991"/>
      </g>
      <path id="Trazado_115774" data-name="Trazado 115774" d="M1192.349,2794.1a2.692,2.692,0,0,1-.338,0c-.445,0-.882-.007-1.319-.028a.1.1,0,0,1-.064,0c-.2,0-.409-.007-.613-.021-.2-.783-.409-1.566-.628-2.342-.212-.691-.409-1.382-.6-2.081-.387-1.389-.754-2.779-1.184-4.154-.1-.317-.205-.642-.311-.959-1.135-3.936-2.433-7.829-3.865-11.666q-.89-2.381-1.848-4.74c-2.455-6.073-5.234-12.026-8.245-17.824q-1.3-2.507-2.631-5c-.48-.916-1.94-3.441.218-2.32a4.047,4.047,0,0,1,.84.543,67.318,67.318,0,0,1,11.215,17v.008a97.246,97.246,0,0,1,4.387,10.946c.938,2.772,1.784,5.586,2.482,8.429.205.867.339,1.77.536,2.645.085.374.184.748.3,1.107l.409,1.869c.084.431.148.861.218,1.3.036.2.064.4.1.593.113.712.233,1.417.346,2.13.092.55.176,1.093.254,1.643.049.31.091.621.134.931v.014C1192.229,2792.777,1192.286,2793.44,1192.349,2794.1Z" fill="#ffc765"/>
      <path id="Trazado_115775" data-name="Trazado 115775" d="M1192.476,2794.1a.76.76,0,0,1-.127,0,2.692,2.692,0,0,1-.338,0c-.445,0-.882-.007-1.319-.028a.1.1,0,0,1-.064,0c-.2,0-.409-.007-.613-.021h-.057q-.836-.031-1.629-.085c-.451-1.121-.91-2.574-1.531-4.189-1.594-4.176-4.225-9.452-10.375-13.042a21.039,21.039,0,0,1-3.195-2.278c-4.951-4.3-5.784-9.564-2.871-11.363,2.652-1.636,6.884.571,11.222,5.015q.731.751,1.474,1.587,1.258,1.428,2.5,3.068a33.775,33.775,0,0,1,4.831,9.769c.4,1.262.741,2.511,1.009,3.717.1.465.317,1.805.529,3.273C1192.173,2791.317,1192.427,2793.3,1192.476,2794.1Z" fill="#6e92de"/>
      <path id="Trazado_115776" data-name="Trazado 115776" d="M1224.409,2781.475c.746,3.645-.848,8.043-3.669,8.621s-5.8-2.884-6.547-6.529.935-7.068,3.757-7.646S1223.663,2777.83,1224.409,2781.475Z" fill="#2c2225"/>
      <path id="Trazado_115777" data-name="Trazado 115777" d="M1213.65,2762.448c-.113.078-.233.148-.345.226,1.149,2.56,1.163,7.455-4.239,10.608a25.97,25.97,0,0,0-8.02,7.166,28.779,28.779,0,0,0-4.345,9.19c-.515,1.8-.818,3.337-1.093,4.409-.332.021-.663.028-1,.035-.437.014-.881.021-1.326.021-.028-.07-.063-.141-.091-.211s-.05-.12-.071-.184a15.885,15.885,0,0,1-.9-4.182,17.44,17.44,0,0,1,.163-4.55,60.264,60.264,0,0,1,2.8-10.474,38.8,38.8,0,0,1,4.38-8.4c.282-.416.571-.826.874-1.228,1.08-1.445,2.215-2.9,3.442-4.267a27.476,27.476,0,0,1,6.7-5.685c1.8-1.037,7.074-3.7,8.781-1.171C1220.6,2755.571,1218.044,2759.472,1213.65,2762.448Z" fill="#99bbfc"/>
      <path id="Trazado_115778" data-name="Trazado 115778" d="M1178.659,2778.07c.646,2.2-1.747,5.474-5.381,6.539s-7.135-.478-7.782-2.683,1.777-4.858,5.412-5.922S1178.012,2775.864,1178.659,2778.07Z" fill="#2c2225"/>
      <path id="Trazado_115779" data-name="Trazado 115779" d="M1224.131,2786.45s-4.669-12.434-15.023,1.39a29.882,29.882,0,0,1-3.7,4.133c-.212.205-.423.4-.635.571a.022.022,0,0,1-.014.007c-1.4.748-4.867,1.319-9.155,1.5-.332.021-.663.028-1,.035-.437.014-.881.021-1.326.021a.1.1,0,0,1-.063,0c-.014-.07-.021-.141-.028-.211a3.689,3.689,0,0,1-.022-.4,9.081,9.081,0,0,1,.826-3.442c.063-.163.141-.339.218-.508a26.364,26.364,0,0,1,3.471-5.467,36.986,36.986,0,0,1,3.364-3.625c.113-.106.226-.219.346-.324C1211.4,2770.884,1228.279,2772.718,1224.131,2786.45Z" fill="#6e92de"/>
      <path id="Trazado_115780" data-name="Trazado 115780" d="M1190.692,2794.075a.1.1,0,0,1-.064,0c-.2,0-.409-.007-.613-.021h-.057q-.836-.031-1.629-.085a40.354,40.354,0,0,1-5.05-.621,19.29,19.29,0,0,1-2.264-2.426,20.191,20.191,0,0,1-3.174-5.826c-1.862-5.325-4.331-6.5-6.616-6.792-4.507-.586-5.833,2.595-5.833,2.595s.021-3.025,3.787-5.134a9.971,9.971,0,0,1,4.049-1.3c3-.24,6.327,1.072,10.058,4.951a24.48,24.48,0,0,1,1.827,2.158,33.489,33.489,0,0,1,2.49,3.908,35.036,35.036,0,0,1,1.925,4.112,17.792,17.792,0,0,1,1.121,4.077C1190.671,2793.807,1190.685,2793.948,1190.692,2794.075Z" fill="#99bbfc"/>
      <g id="Grupo_81439" data-name="Grupo 81439">
        <path id="Trazado_115781" data-name="Trazado 115781" d="M1213.6,2768.076a.173.173,0,0,1-.063-.011.178.178,0,0,1-.1-.229,7.469,7.469,0,0,0-.333-5.117,2.285,2.285,0,0,0-1.718-1.153c-3-.418-5.317,1.994-5.341,2.018a.178.178,0,1,1-.258-.245,7.158,7.158,0,0,1,5.647-2.126,2.63,2.63,0,0,1,1.976,1.323c1.032,1.726.676,4.58.36,5.425A.177.177,0,0,1,1213.6,2768.076Z" fill="#0d3991"/>
      </g>
      <g id="Grupo_81440" data-name="Grupo 81440">
        <path id="Trazado_115782" data-name="Trazado 115782" d="M1197.942,2794.084a.179.179,0,0,1-.127-.3,27.443,27.443,0,0,0,4.349-6.608c2.146-4.033,4.366-8.2,9.3-10.427,6.611-2.992,10.429-.775,12.467,1.611a.178.178,0,0,1-.271.231c-2.808-3.288-6.977-3.812-12.049-1.518-4.821,2.174-7.011,6.29-9.13,10.27a27.693,27.693,0,0,1-4.41,6.691A.178.178,0,0,1,1197.942,2794.084Z" fill="#0d3991"/>
      </g>
      <g id="Grupo_81441" data-name="Grupo 81441">
        <path id="Trazado_115783" data-name="Trazado 115783" d="M1188.78,2794.176a.177.177,0,0,1-.149-.082,89.241,89.241,0,0,1-5.5-10.651c-3.8-8.265-8.3-9-10.657-8.7a.113.113,0,0,1-.049.007,5.869,5.869,0,0,0-1.873.545.421.421,0,0,1-.082.04.178.178,0,1,1-.112-.338,6.137,6.137,0,0,1,2-.6.3.3,0,0,1,.091-.011c2.426-.31,7.1.434,11,8.906a88.905,88.905,0,0,0,5.475,10.607.179.179,0,0,1-.053.246A.174.174,0,0,1,1188.78,2794.176Z" fill="#0d3991"/>
      </g>
      <g id="Grupo_81442" data-name="Grupo 81442">
        <path id="Trazado_115784" data-name="Trazado 115784" d="M1192.737,2794.288l-.024,0a.176.176,0,0,1-.152-.2c.005-.037.472-3.753-2.369-11.867-4.111-11.75-12.166-17.039-12.246-17.091a.178.178,0,0,1-.054-.246.175.175,0,0,1,.245-.053c.082.052,8.237,5.4,12.392,17.271,2.875,8.213,2.4,11.883,2.385,12.035A.178.178,0,0,1,1192.737,2794.288Z" fill="#0d3991"/>
      </g>
    </g>
  </g>
</svg>
