<svg xmlns="http://www.w3.org/2000/svg" width="350.383" height="264.544" viewBox="0 0 350.383 264.544">
  <g id="Grupo_940835" data-name="Grupo 940835" transform="translate(-601.202 -1063.423)">
    <g id="Grupo_940737" data-name="Grupo 940737" transform="translate(639.857 1067.822)">
      <g id="Grupo_940730" data-name="Grupo 940730" transform="translate(20.591 19.878)">
        <g id="Grupo_940727" data-name="Grupo 940727">
          <path id="Trazado_631632" data-name="Trazado 631632" d="M690.929,1102.067v170.47h84.092v-170.47Zm78.1,164.163H696.407V1108.374h72.621Z" transform="translate(-687.297 -1099.264)" fill="#e0c9b6"/>
          <g id="Grupo_940726" data-name="Grupo 940726">
            <path id="Trazado_631633" data-name="Trazado 631633" d="M776.587,1274.143H685.746V1098.067h90.841Zm-85.235-5.606h79.629V1103.673H691.352Z" transform="translate(-685.746 -1098.067)" fill="#ebd2bf"/>
          </g>
          <path id="Trazado_631634" data-name="Trazado 631634" d="M772.17,1148.881v-4.2H736.56v-35.609h-4.2v35.609h-35.61v4.2h35.61v38.413h-35.61v4.2h35.61v38.413h-35.61v4.2h35.61v35.61h4.2v-35.61h35.61v-4.2H736.56V1191.5h35.61v-4.2H736.56v-38.413Z" transform="translate(-689.038 -1101.359)" fill="#f5ddc9"/>
        </g>
        <g id="Grupo_940729" data-name="Grupo 940729" transform="translate(141.051)">
          <path id="Trazado_631635" data-name="Trazado 631635" d="M892.21,1102.067v170.47H976.3v-170.47Zm78.1,164.163H897.688V1108.374h72.621Z" transform="translate(-888.578 -1099.264)" fill="#e0c9b6"/>
          <g id="Grupo_940728" data-name="Grupo 940728">
            <path id="Trazado_631636" data-name="Trazado 631636" d="M977.868,1274.143H887.027V1098.067h90.841Zm-85.235-5.606h79.629V1103.673H892.633Z" transform="translate(-887.027 -1098.067)" fill="#ebd2bf"/>
          </g>
          <path id="Trazado_631637" data-name="Trazado 631637" d="M973.451,1148.881v-4.2H937.842v-35.609h-4.2v35.609h-35.61v4.2h35.61v38.413h-35.61v4.2h35.61v38.413h-35.61v4.2h35.61v35.61h4.2v-35.61h35.609v-4.2H937.842V1191.5h35.609v-4.2H937.842v-38.413Z" transform="translate(-890.319 -1101.359)" fill="#f5ddc9"/>
        </g>
      </g>
      <g id="Grupo_940731" data-name="Grupo 940731" transform="translate(0 0.834)">
        <rect id="Rectángulo_338122" data-name="Rectángulo 338122" width="25.99" height="6.974" rx="1.319" transform="translate(7.936)" fill="#f5ddc9"/>
        <rect id="Rectángulo_338123" data-name="Rectángulo 338123" width="25.99" height="6.974" rx="1.319" transform="translate(0 8.643)" fill="#f5ddc9"/>
        <rect id="Rectángulo_338124" data-name="Rectángulo 338124" width="25.99" height="6.974" rx="1.319" transform="translate(27.203 8.643)" fill="#f0d7c3"/>
      </g>
      <g id="Grupo_940732" data-name="Grupo 940732" transform="translate(219.06 0)">
        <rect id="Rectángulo_338125" data-name="Rectángulo 338125" width="25.99" height="6.974" rx="1.319" transform="translate(45.256 15.617) rotate(180)" fill="#f5ddc9"/>
        <rect id="Rectángulo_338126" data-name="Rectángulo 338126" width="25.99" height="6.974" rx="1.319" transform="translate(53.192 6.974) rotate(180)" fill="#f5ddc9"/>
        <rect id="Rectángulo_338127" data-name="Rectángulo 338127" width="25.99" height="6.974" rx="1.319" transform="translate(25.99 6.974) rotate(180)" fill="#f0d7c3"/>
      </g>
      <g id="Grupo_940733" data-name="Grupo 940733" transform="translate(113.944 0)">
        <rect id="Rectángulo_338128" data-name="Rectángulo 338128" width="25.99" height="6.974" rx="1.319" transform="translate(41.052 15.617) rotate(180)" fill="#f5ddc9"/>
        <rect id="Rectángulo_338129" data-name="Rectángulo 338129" width="25.99" height="6.974" rx="1.319" transform="translate(53.192 6.974) rotate(180)" fill="#f5ddc9"/>
        <rect id="Rectángulo_338130" data-name="Rectángulo 338130" width="25.99" height="6.974" rx="1.319" transform="translate(25.99 6.974) rotate(180)" fill="#f0d7c3"/>
      </g>
      <g id="Grupo_940734" data-name="Grupo 940734" transform="translate(219.06 202.135)">
        <rect id="Rectángulo_338131" data-name="Rectángulo 338131" width="25.99" height="6.974" rx="1.319" transform="translate(45.256 15.617) rotate(180)" fill="#f5ddc9"/>
        <rect id="Rectángulo_338132" data-name="Rectángulo 338132" width="25.99" height="6.974" rx="1.319" transform="translate(53.192 6.974) rotate(180)" fill="#f5ddc9"/>
        <rect id="Rectángulo_338133" data-name="Rectángulo 338133" width="25.99" height="6.974" rx="1.319" transform="translate(25.99 6.974) rotate(180)" fill="#f0d7c3"/>
      </g>
      <g id="Grupo_940735" data-name="Grupo 940735" transform="translate(0 202.969)">
        <rect id="Rectángulo_338134" data-name="Rectángulo 338134" width="25.99" height="6.974" rx="1.319" transform="translate(7.936)" fill="#f5ddc9"/>
        <rect id="Rectángulo_338135" data-name="Rectángulo 338135" width="25.99" height="6.974" rx="1.319" transform="translate(0 8.643)" fill="#f5ddc9"/>
        <rect id="Rectángulo_338136" data-name="Rectángulo 338136" width="25.99" height="6.974" rx="1.319" transform="translate(27.203 8.643)" fill="#f0d7c3"/>
      </g>
      <g id="Grupo_940736" data-name="Grupo 940736" transform="translate(105.116 202.969)">
        <rect id="Rectángulo_338137" data-name="Rectángulo 338137" width="25.99" height="6.974" rx="1.319" transform="translate(12.141)" fill="#f5ddc9"/>
        <rect id="Rectángulo_338138" data-name="Rectángulo 338138" width="25.99" height="6.974" rx="1.319" transform="translate(0 8.643)" fill="#f5ddc9"/>
        <rect id="Rectángulo_338139" data-name="Rectángulo 338139" width="25.99" height="6.974" rx="1.319" transform="translate(27.203 8.643)" fill="#f0d7c3"/>
      </g>
    </g>
    <g id="Grupo_940738" data-name="Grupo 940738" transform="translate(601.202 1063.423)">
      <rect id="Rectángulo_338140" data-name="Rectángulo 338140" width="23.211" height="0.175" transform="translate(292.065 240.742)" fill="#ebebeb"/>
      <rect id="Rectángulo_338141" data-name="Rectángulo 338141" width="6.092" height="0.175" transform="translate(226.016 242.644)" fill="#ebebeb"/>
      <rect id="Rectángulo_338142" data-name="Rectángulo 338142" width="13.449" height="0.175" transform="translate(277.914 234.235)" fill="#ebebeb"/>
      <rect id="Rectángulo_338143" data-name="Rectángulo 338143" width="30.268" height="0.175" transform="translate(36.761 235.412)" fill="#ebebeb"/>
      <rect id="Rectángulo_338144" data-name="Rectángulo 338144" width="4.438" height="0.175" transform="translate(73.269 235.412)" fill="#ebebeb"/>
      <rect id="Rectángulo_338145" data-name="Rectángulo 338145" width="65.645" height="0.175" transform="translate(92.131 238.371)" fill="#ebebeb"/>
      <path id="Trazado_631638" data-name="Trazado 631638" d="M778.726,1261.632H643.409a4,4,0,0,1-4-4v-190.21a4,4,0,0,1,4-4H778.726a4,4,0,0,1,4,4v190.21A4,4,0,0,1,778.726,1261.632ZM643.409,1063.6a3.829,3.829,0,0,0-3.825,3.824v190.21a3.829,3.829,0,0,0,3.825,3.825H778.726a3.829,3.829,0,0,0,3.824-3.825v-190.21a3.829,3.829,0,0,0-3.824-3.824Z" transform="translate(-612.635 -1063.423)" fill="#ebebeb"/>
      <path id="Trazado_631639" data-name="Trazado 631639" d="M995.023,1261.632H859.706a4,4,0,0,1-4-4v-190.21a4,4,0,0,1,4-4H995.023a4,4,0,0,1,4,4v190.21A4,4,0,0,1,995.023,1261.632ZM859.706,1063.6a3.829,3.829,0,0,0-3.824,3.824v190.21a3.828,3.828,0,0,0,3.824,3.825H995.023a3.829,3.829,0,0,0,3.826-3.825v-190.21a3.829,3.829,0,0,0-3.826-3.824Z" transform="translate(-677.359 -1063.423)" fill="#ebebeb"/>
      <rect id="Rectángulo_338146" data-name="Rectángulo 338146" width="350.383" height="0.175" transform="translate(0 229.463)" fill="#ebebeb"/>
    </g>
    <ellipse id="_Path_" data-name="&lt;Path&gt;" cx="135.871" cy="7.935" rx="135.871" ry="7.935" transform="translate(637.143 1305.968)" fill="#ffeed9"/>
    <g id="Grupo_940742" data-name="Grupo 940742" transform="translate(801.058 1244.428)">
      <g id="Grupo_940740" data-name="Grupo 940740">
        <g id="Grupo_940739" data-name="Grupo 940739" transform="translate(16.86)">
          <path id="Trazado_631640" data-name="Trazado 631640" d="M910.457,1354.809l4.4-33.09,4.4,33.09Z" transform="translate(-910.457 -1321.719)" fill="#ff1d14"/>
          <path id="Trazado_631641" data-name="Trazado 631641" d="M910.457,1354.809l4.4-33.09,4.4,33.09Z" transform="translate(-910.457 -1321.719)" opacity="0.3"/>
        </g>
        <path id="Trazado_631642" data-name="Trazado 631642" d="M886.4,1354.809l4.4-33.09h16.86l-4.4,33.09Z" transform="translate(-886.398 -1321.719)" fill="#ff1d14"/>
        <path id="Trazado_631643" data-name="Trazado 631643" d="M886.4,1354.809l4.4-33.09h16.86l-4.4,33.09Z" transform="translate(-886.398 -1321.719)" fill="#fff" opacity="0.7"/>
      </g>
      <g id="Grupo_940741" data-name="Grupo 940741" transform="translate(4.547 6.813)">
        <path id="Trazado_631644" data-name="Trazado 631644" d="M896.725,1333.439a1,1,0,0,1,.268.931,1.493,1.493,0,0,1-.3.686,1.648,1.648,0,0,1-.653.495,2.383,2.383,0,0,1-.981.186,3.049,3.049,0,0,1-.839-.114,1.842,1.842,0,0,1-.664-.327l.493-.731a1.481,1.481,0,0,0,.5.275,1.927,1.927,0,0,0,.614.1,1.1,1.1,0,0,0,.589-.141.547.547,0,0,0,.268-.395.377.377,0,0,0-.151-.4,1.359,1.359,0,0,0-.724-.135h-1.055l.58-2.322h2.516l-.121.766h-1.72l-.189.784h.336A1.757,1.757,0,0,1,896.725,1333.439Z" transform="translate(-893.088 -1331.471)" fill="#ff1d14"/>
        <path id="Trazado_631645" data-name="Trazado 631645" d="M899.725,1335.453a1.361,1.361,0,0,1-.512-.733,2.524,2.524,0,0,1-.046-1.146,3.026,3.026,0,0,1,.409-1.146,2.15,2.15,0,0,1,.744-.734,1.88,1.88,0,0,1,.953-.253,1.48,1.48,0,0,1,.873.253,1.368,1.368,0,0,1,.512.734,2.525,2.525,0,0,1,.045,1.146,3.013,3.013,0,0,1-.409,1.146,2.14,2.14,0,0,1-.744.733,1.88,1.88,0,0,1-.954.253A1.478,1.478,0,0,1,899.725,1335.453Zm1.645-.878a2.1,2.1,0,0,0,.374-1,1.721,1.721,0,0,0-.057-1,.559.559,0,0,0-.54-.324.8.8,0,0,0-.638.324,2.094,2.094,0,0,0-.373,1,1.714,1.714,0,0,0,.056,1,.556.556,0,0,0,.535.324A.806.806,0,0,0,901.369,1334.575Z" transform="translate(-894.753 -1331.441)" fill="#ff1d14"/>
        <path id="Trazado_631646" data-name="Trazado 631646" d="M905.16,1333.44a1.047,1.047,0,0,1-.154-.828,1.382,1.382,0,0,1,.416-.828,1.126,1.126,0,0,1,.789-.309.809.809,0,0,1,.688.309,1.055,1.055,0,0,1,.151.828,1.394,1.394,0,0,1-.414.828,1.116,1.116,0,0,1-.786.309A.819.819,0,0,1,905.16,1333.44Zm1.109-.339a.988.988,0,0,0,.193-.489.8.8,0,0,0-.038-.489.3.3,0,0,0-.289-.165.433.433,0,0,0-.339.168.956.956,0,0,0-.2.486.776.776,0,0,0,.041.485.3.3,0,0,0,.286.168A.436.436,0,0,0,906.269,1333.1Zm2.392-1.579h.7l-3.47,4.125h-.7Zm-.824,4.033a.745.745,0,0,1-.3-.4,1.237,1.237,0,0,1-.034-.6,1.508,1.508,0,0,1,.224-.6,1.186,1.186,0,0,1,.425-.4,1.14,1.14,0,0,1,.549-.139.818.818,0,0,1,.691.31,1.045,1.045,0,0,1,.154.828,1.378,1.378,0,0,1-.417.828,1.121,1.121,0,0,1-.788.31A.9.9,0,0,1,907.836,1335.555Zm.924-.513a.978.978,0,0,0,.192-.486.794.794,0,0,0-.038-.486.3.3,0,0,0-.289-.167.439.439,0,0,0-.339.164.967.967,0,0,0-.2.489.776.776,0,0,0,.04.489.3.3,0,0,0,.286.166A.431.431,0,0,0,908.76,1335.042Z" transform="translate(-896.507 -1331.451)" fill="#ff1d14"/>
        <path id="Trazado_631647" data-name="Trazado 631647" d="M893.722,1344.118a1.636,1.636,0,0,1-.686-.763,1.922,1.922,0,0,1-.119-1.093,2.409,2.409,0,0,1,.465-1.093,2.6,2.6,0,0,1,.928-.763,2.677,2.677,0,0,1,1.2-.277,2.151,2.151,0,0,1,1.112.277,1.659,1.659,0,0,1,.686.763,1.9,1.9,0,0,1,.121,1.093,2.393,2.393,0,0,1-.468,1.093,2.659,2.659,0,0,1-2.127,1.039A2.165,2.165,0,0,1,893.722,1344.118Zm1.929-.7a1.522,1.522,0,0,0,.537-.468,1.574,1.574,0,0,0,.276-.684,1.272,1.272,0,0,0-.06-.683.957.957,0,0,0-.388-.469,1.167,1.167,0,0,0-.633-.167,1.457,1.457,0,0,0-.686.167,1.519,1.519,0,0,0-.537.469,1.561,1.561,0,0,0-.276.683,1.269,1.269,0,0,0,.06.684.958.958,0,0,0,.388.468,1.168,1.168,0,0,0,.634.168A1.457,1.457,0,0,0,895.651,1343.414Z" transform="translate(-892.887 -1334.041)" fill="#ff1d14"/>
        <path id="Trazado_631648" data-name="Trazado 631648" d="M901.416,1341l-.172,1.091h1.909l-.121.766h-1.909l-.238,1.5h-.955l.653-4.125H903.7l-.121.766Z" transform="translate(-894.994 -1334.071)" fill="#ff1d14"/>
        <path id="Trazado_631649" data-name="Trazado 631649" d="M906.789,1341l-.172,1.091h1.909l-.121.766H906.5l-.238,1.5H905.3l.653-4.125h3.117l-.121.766Z" transform="translate(-896.602 -1334.071)" fill="#ff1d14"/>
      </g>
    </g>
    <g id="Grupo_940747" data-name="Grupo 940747" transform="translate(758.881 1266.503)">
      <path id="Trazado_631650" data-name="Trazado 631650" d="M840.844,1389.372l-2.628-19.334,13.139-15.767,17.519,2.1,14.541-3.153,14.541,3.153,1.051,7.358-2.8,27.2-5.956,2.578Z" transform="translate(-829.804 -1353.22)" fill="#ff1d14"/>
      <path id="Trazado_631651" data-name="Trazado 631651" d="M897.4,1356.72l-21.991,18.453-4.521-5.84,17.986-12.03Z" transform="translate(-839.58 -1354.267)" opacity="0.2"/>
      <g id="Grupo_940743" data-name="Grupo 940743" transform="translate(0 4.73)">
        <path id="Trazado_631652" data-name="Trazado 631652" d="M900.257,1364.525H828.489a2.278,2.278,0,0,1-2.278-2.277h0a2.277,2.277,0,0,1,2.278-2.277h71.768a2.277,2.277,0,0,1,2.278,2.277h0A2.277,2.277,0,0,1,900.257,1364.525Z" transform="translate(-826.212 -1359.97)" fill="#263238"/>
        <path id="Trazado_631653" data-name="Trazado 631653" d="M900.257,1364.525H828.489a2.278,2.278,0,0,1-2.278-2.277h0a2.277,2.277,0,0,1,2.278-2.277h71.768a2.277,2.277,0,0,1,2.278,2.277h0A2.277,2.277,0,0,1,900.257,1364.525Z" transform="translate(-826.212 -1359.97)" fill="#fff" opacity="0.5"/>
      </g>
      <g id="Grupo_940744" data-name="Grupo 940744" transform="translate(4.104 9.285)">
        <path id="Trazado_631654" data-name="Trazado 631654" d="M832.069,1366.47l2.331,28.46a6.277,6.277,0,0,0,6.257,5.765h50.938a6.277,6.277,0,0,0,6.256-5.765l2.331-28.46Zm12.785,23.679a2.327,2.327,0,1,1-4.654,0V1373a2.327,2.327,0,0,1,4.654,0Zm11.8,0a2.327,2.327,0,1,1-4.654,0V1373a2.327,2.327,0,0,1,4.654,0Zm11.8,0a2.327,2.327,0,1,1-4.654,0V1373a2.327,2.327,0,0,1,4.654,0Zm11.8,0a2.327,2.327,0,1,1-4.654,0V1373a2.327,2.327,0,0,1,4.654,0Zm11.8,0a2.327,2.327,0,1,1-4.654,0V1373a2.327,2.327,0,0,1,4.654,0Z" transform="translate(-832.069 -1366.47)" fill="#263238"/>
        <path id="Trazado_631655" data-name="Trazado 631655" d="M832.069,1366.47l2.331,28.46a6.277,6.277,0,0,0,6.257,5.765h50.938a6.277,6.277,0,0,0,6.256-5.765l2.331-28.46Zm12.785,23.679a2.327,2.327,0,1,1-4.654,0V1373a2.327,2.327,0,0,1,4.654,0Zm11.8,0a2.327,2.327,0,1,1-4.654,0V1373a2.327,2.327,0,0,1,4.654,0Zm11.8,0a2.327,2.327,0,1,1-4.654,0V1373a2.327,2.327,0,0,1,4.654,0Zm11.8,0a2.327,2.327,0,1,1-4.654,0V1373a2.327,2.327,0,0,1,4.654,0Zm11.8,0a2.327,2.327,0,1,1-4.654,0V1373a2.327,2.327,0,0,1,4.654,0Z" transform="translate(-832.069 -1366.47)" fill="#fff" opacity="0.7"/>
      </g>
      <path id="Trazado_631656" data-name="Trazado 631656" d="M906.716,1356.549l9.3-3.329,13.479,3.329,3.154,16.814-11.037,1.406-3.854-16.643Z" transform="translate(-850.302 -1353.22)" fill="#ff1d14"/>
      <g id="Grupo_940745" data-name="Grupo 940745" transform="translate(70.255 17.928)">
        <path id="Trazado_631657" data-name="Trazado 631657" d="M926.466,1380.614l.818,2.8,12.03-1.752-.759-2.862Z" transform="translate(-926.466 -1378.803)" fill="#ff1d14"/>
        <path id="Trazado_631658" data-name="Trazado 631658" d="M926.466,1380.614l.818,2.8,12.03-1.752-.759-2.862Z" transform="translate(-926.466 -1378.803)" fill="#fff" opacity="0.6"/>
      </g>
      <path id="Trazado_631659" data-name="Trazado 631659" d="M929.61,1375.875a.905.905,0,1,1-.905-.906A.9.9,0,0,1,929.61,1375.875Z" transform="translate(-856.611 -1359.728)" fill="#fff" opacity="0.7"/>
      <path id="Trazado_631660" data-name="Trazado 631660" d="M927.693,1369.5a.905.905,0,1,1-.9-.905A.9.9,0,0,1,927.693,1369.5Z" transform="translate(-856.037 -1357.821)" fill="#fff" opacity="0.7"/>
      <g id="Grupo_940746" data-name="Grupo 940746" transform="translate(5.784 1.051)">
        <path id="Trazado_631661" data-name="Trazado 631661" d="M857.218,1356.822l-4.471-2.1-15.653,2.1-2.628,9.431,2.628,4.234s-3.041,14.541-.907,14.716,4.73-14.19,4.73-14.19l7.914-1.2s.237,15.391,3.885,15.389,0-15.72,0-15.72Zm-21,27.067c-1.489-.526,1.84-12.789,1.84-12.789h1.927S837.707,1384.415,836.218,1383.89Zm16.529-.263c-1.988.964-2.864-13.664-2.864-13.664h1.839S854.734,1382.663,852.747,1383.627Z" transform="translate(-834.466 -1354.72)" fill="#ff1d14"/>
        <path id="Trazado_631662" data-name="Trazado 631662" d="M857.218,1356.822l-4.471-2.1-15.653,2.1-2.628,9.431,2.628,4.234s-3.041,14.541-.907,14.716,4.73-14.19,4.73-14.19l7.914-1.2s.237,15.391,3.885,15.389,0-15.72,0-15.72Zm-21,27.067c-1.489-.526,1.84-12.789,1.84-12.789h1.927S837.707,1384.415,836.218,1383.89Zm16.529-.263c-1.988.964-2.864-13.664-2.864-13.664h1.839S854.734,1382.663,852.747,1383.627Z" transform="translate(-834.466 -1354.72)" fill="#fff" opacity="0.7"/>
      </g>
    </g>
    <g id="Grupo_940771" data-name="Grupo 940771" transform="translate(672.768 1144.425)">
      <g id="Grupo_940767" data-name="Grupo 940767" transform="translate(0 19.092)">
        <path id="Trazado_631663" data-name="Trazado 631663" d="M889.387,1350.087H878.062V1219.971a12.025,12.025,0,0,0-12.01-12.011H729.388a12.024,12.024,0,0,0-12.01,12.011v130.115H706.053a2.725,2.725,0,0,0-2.725,2.725v.452h30.307v-.452a2.725,2.725,0,0,0-2.725-2.725H719.586V1219.971a9.814,9.814,0,0,1,9.8-9.8H866.052a9.815,9.815,0,0,1,9.8,9.8v130.115H864.53a2.725,2.725,0,0,0-2.725,2.725v.452h30.307v-.452A2.724,2.724,0,0,0,889.387,1350.087Z" transform="translate(-703.328 -1206.767)" fill="#263238"/>
        <path id="Trazado_631664" data-name="Trazado 631664" d="M889.387,1350.087H878.062V1219.971a12.025,12.025,0,0,0-12.01-12.011H729.388a12.024,12.024,0,0,0-12.01,12.011v130.115H706.053a2.725,2.725,0,0,0-2.725,2.725v.452h30.307v-.452a2.725,2.725,0,0,0-2.725-2.725H719.586V1219.971a9.814,9.814,0,0,1,9.8-9.8H866.052a9.815,9.815,0,0,1,9.8,9.8v130.115H864.53a2.725,2.725,0,0,0-2.725,2.725v.452h30.307v-.452A2.724,2.724,0,0,0,889.387,1350.087Z" transform="translate(-703.328 -1206.767)" fill="#fff" opacity="0.4"/>
        <g id="Grupo_940752" data-name="Grupo 940752" transform="translate(28.812)">
          <g id="Grupo_940748" data-name="Grupo 940748" transform="translate(17.266)">
            <path id="Trazado_631665" data-name="Trazado 631665" d="M786.735,1211.784a3.239,3.239,0,0,1,.141-.673h-1.131a4.664,4.664,0,0,0-.113.673C785.568,1212.491,786.672,1212.487,786.735,1211.784Z" transform="translate(-774.033 -1207.71)" fill="#263238"/>
            <path id="Trazado_631666" data-name="Trazado 631666" d="M800.159,1227.5l-14.856-8.93v-4.256c3.079-.657,4.841-4.332,2.319-6.854a3.831,3.831,0,0,0-5.562-.01h2.23a2.613,2.613,0,0,1,2.492.849,2.947,2.947,0,0,1-2.03,5,.565.565,0,0,0-.552.552v4.72l-14.855,8.93a.552.552,0,0,0,.556.953l7.249-4.358,5.27-3.168c.6-.359,1.246-.686,1.814-1.09.117-.083.427-.219.582-.322.371.307,1.667,1.053,2.019,1.265l5.2,3.126,7.565,4.548A.552.552,0,0,0,800.159,1227.5Z" transform="translate(-769.082 -1206.258)" fill="#263238"/>
          </g>
          <path id="Trazado_631667" data-name="Trazado 631667" d="M795.526,1256.917l1.371,26.88-38.4-.3.823-25.479-5.142,36.224-9.735-1.18a195.587,195.587,0,0,1,4.073-36.876c4.073-18.586,13.735-21.757,13.735-21.757a35.106,35.106,0,0,0,30.256,0s10.643,2.876,13.3,19.1,4.13,39.827,4.13,39.827l-9.735.885Z" transform="translate(-744.443 -1214.686)" fill="#ff1d14"/>
          <g id="Grupo_940749" data-name="Grupo 940749" transform="translate(7.357 45.386)" opacity="0.2">
            <path id="Trazado_631668" data-name="Trazado 631668" d="M754.941,1304.9l2.378.288,4.849-34.166c-.938,1.284-2.08,3.584-2.881,7.653C758.055,1284.938,755.868,1298.9,754.941,1304.9Z" transform="translate(-754.941 -1271.024)"/>
          </g>
          <g id="Grupo_940750" data-name="Grupo 940750" transform="translate(51.409 44.836)" opacity="0.2">
            <path id="Trazado_631669" data-name="Trazado 631669" d="M825.474,1304.653c-.929-6.011-3.112-19.954-4.345-26.211-.934-4.743-2.328-7.075-3.325-8.2l4.348,34.715Z" transform="translate(-817.804 -1270.24)"/>
          </g>
          <g id="Grupo_940751" data-name="Grupo 940751" transform="translate(14.294 55.123)" opacity="0.8">
            <path id="Trazado_631670" data-name="Trazado 631670" d="M802.287,1284.92H765.042l-.2,6.254h37.766Z" transform="translate(-764.84 -1284.92)" fill="#fff"/>
          </g>
          <path id="Trazado_631671" data-name="Trazado 631671" d="M770.327,1244.582l-3.495,11.957S765.367,1249.363,770.327,1244.582Z" transform="translate(-751.082 -1217.726)" opacity="0.1"/>
          <path id="Trazado_631672" data-name="Trazado 631672" d="M811.981,1244.582l3.5,11.957S816.941,1249.363,811.981,1244.582Z" transform="translate(-764.653 -1217.726)" opacity="0.1"/>
        </g>
        <g id="Grupo_940756" data-name="Grupo 940756" transform="translate(52.144)">
          <g id="Grupo_940753" data-name="Grupo 940753" transform="translate(11.989)">
            <path id="Trazado_631673" data-name="Trazado 631673" d="M812.5,1211.784a3.254,3.254,0,0,1,.141-.673h-1.13a4.607,4.607,0,0,0-.114.673C811.333,1212.491,812.437,1212.487,812.5,1211.784Z" transform="translate(-799.798 -1207.71)" fill="#263238"/>
            <path id="Trazado_631674" data-name="Trazado 631674" d="M825.924,1227.5l-14.855-8.93v-4.256c3.079-.657,4.84-4.332,2.318-6.854a3.83,3.83,0,0,0-5.562-.01h2.23a2.613,2.613,0,0,1,2.492.849,2.947,2.947,0,0,1-2.03,5,.565.565,0,0,0-.551.552v4.72l-14.856,8.93a.552.552,0,0,0,.557.953l7.249-4.358,5.27-3.168c.6-.359,1.245-.686,1.814-1.09.117-.083.427-.219.582-.322.371.307,1.666,1.053,2.019,1.265l5.2,3.126,7.564,4.548A.553.553,0,0,0,825.924,1227.5Z" transform="translate(-794.847 -1206.258)" fill="#263238"/>
          </g>
          <g id="Grupo_940755" data-name="Grupo 940755" transform="translate(0 19.738)">
            <g id="Grupo_940754" data-name="Grupo 940754">
              <path id="Trazado_631675" data-name="Trazado 631675" d="M790.269,1234.425a35.107,35.107,0,0,0,30.256,0s10.425,4.052,13.99,19.961l-10.971,2.531,1.371,26.88-38.4-.3.823-25.479-9.6-3.292S779.815,1237.992,790.269,1234.425Z" transform="translate(-777.738 -1234.425)" fill="#ff1d14"/>
              <path id="Trazado_631676" data-name="Trazado 631676" d="M790.269,1234.425a35.107,35.107,0,0,0,30.256,0s10.425,4.052,13.99,19.961l-10.971,2.531,1.371,26.88-38.4-.3.823-25.479-9.6-3.292S779.815,1237.992,790.269,1234.425Z" transform="translate(-777.738 -1234.425)" fill="#fff" opacity="0.5"/>
            </g>
            <path id="Trazado_631677" data-name="Trazado 631677" d="M789.33,1263.536l1.36.466.788-9.43Z" transform="translate(-781.207 -1240.454)" opacity="0.2"/>
            <path id="Trazado_631678" data-name="Trazado 631678" d="M841.219,1251.029l1.32,10.856,2.134-.492Z" transform="translate(-796.734 -1239.393)" opacity="0.2"/>
            <ellipse id="Elipse_7728" data-name="Elipse 7728" cx="12.018" cy="4.905" rx="12.018" ry="4.905" transform="translate(15.667 10.44)" fill="#ff1d14"/>
          </g>
        </g>
        <g id="Grupo_940763" data-name="Grupo 940763" transform="translate(79.34)">
          <g id="Grupo_940757" data-name="Grupo 940757" transform="translate(17.904)">
            <path id="Trazado_631679" data-name="Trazado 631679" d="M859.749,1211.784a3.258,3.258,0,0,1,.141-.673h-1.131a4.7,4.7,0,0,0-.114.673C858.582,1212.491,859.685,1212.487,859.749,1211.784Z" transform="translate(-847.047 -1207.71)" fill="#263238"/>
            <path id="Trazado_631680" data-name="Trazado 631680" d="M873.172,1227.5l-14.855-8.93v-4.256c3.078-.657,4.841-4.332,2.319-6.854a3.83,3.83,0,0,0-5.562-.01h2.23a2.614,2.614,0,0,1,2.492.849,2.947,2.947,0,0,1-2.03,5,.565.565,0,0,0-.552.552v4.72l-14.855,8.93a.552.552,0,0,0,.557.953l7.25-4.358,5.27-3.168c.6-.359,1.245-.686,1.814-1.09.117-.083.427-.219.582-.322.372.307,1.666,1.053,2.018,1.265l5.2,3.126,7.563,4.548A.552.552,0,0,0,873.172,1227.5Z" transform="translate(-842.096 -1206.258)" fill="#263238"/>
          </g>
          <g id="Grupo_940758" data-name="Grupo 940758" transform="translate(0.638 14.924)">
            <path id="Trazado_631681" data-name="Trazado 631681" d="M882.949,1286.483s-1.475-23.6-4.13-39.826a28.133,28.133,0,0,0-5.545-13.39,15.469,15.469,0,0,0-12.067-5.712h-5.25l-3.053,3.193h-5.151l-2.7-3.193h-3.035a18.284,18.284,0,0,0-15.977,9.3,45.158,45.158,0,0,0-4.514,12.458,195.576,195.576,0,0,0-4.073,36.876l9.735,1.18,5.141-36.225-.591,43.3,38.4.3-1.6-44.7,4.675,37.322Z" transform="translate(-817.457 -1227.555)" fill="#263238"/>
            <path id="Trazado_631682" data-name="Trazado 631682" d="M834.623,1251.6c-.368,4.908-7.358,41.968-7.358,41.968l1.825.5,1.036.125,5.141-36.225S834.991,1246.69,834.623,1251.6Z" transform="translate(-820.392 -1234.38)" opacity="0.2"/>
            <path id="Trazado_631683" data-name="Trazado 631683" d="M897.365,1293.96c-.963-6.764-3.412-23.88-4.866-33.187-1.839-11.773-2.146-10.432-2.146-10.432v6.51l4.675,37.321Z" transform="translate(-839.27 -1234.36)" opacity="0.2"/>
          </g>
          <g id="Grupo_940759" data-name="Grupo 940759" transform="translate(25.887 14.102)">
            <path id="Trazado_631684" data-name="Trazado 631684" d="M855.749,1226.382l5.412,3.518,4.942-3.518,3.094.6-3.57,7.021-4.465-2.618L856.225,1234l-2.737-7.021Z" transform="translate(-853.488 -1226.382)" fill="#263238"/>
            <path id="Trazado_631685" data-name="Trazado 631685" d="M855.749,1226.382l5.412,3.518,4.942-3.518,3.094.6-3.57,7.021-4.465-2.618L856.225,1234l-2.737-7.021Z" transform="translate(-853.488 -1226.382)" fill="#fff" opacity="0.2"/>
          </g>
          <g id="Grupo_940760" data-name="Grupo 940760" transform="translate(0 72.23)">
            <path id="Trazado_631686" data-name="Trazado 631686" d="M816.547,1309.331l10.989,1.4-.369,2.36-10.62-1.328Z" transform="translate(-816.547 -1309.331)" fill="#263238"/>
            <path id="Trazado_631687" data-name="Trazado 631687" d="M816.547,1309.331l10.989,1.4-.369,2.36-10.62-1.328Z" transform="translate(-816.547 -1309.331)" fill="#fff" opacity="0.2"/>
          </g>
          <g id="Grupo_940761" data-name="Grupo 940761" transform="translate(55.557 72.427)">
            <path id="Trazado_631688" data-name="Trazado 631688" d="M906.859,1309.612l-11.032,1.009.284,2.371,10.915-.97Z" transform="translate(-895.827 -1309.612)" fill="#263238"/>
            <path id="Trazado_631689" data-name="Trazado 631689" d="M906.859,1309.612l-11.032,1.009.284,2.371,10.915-.97Z" transform="translate(-895.827 -1309.612)" fill="#fff" opacity="0.2"/>
          </g>
          <g id="Grupo_940762" data-name="Grupo 940762" transform="translate(32.493 31.253)">
            <path id="Trazado_631690" data-name="Trazado 631690" d="M864.7,1251.747a.891.891,0,1,1-.891-.891A.891.891,0,0,1,864.7,1251.747Z" transform="translate(-862.915 -1250.856)" fill="#fff" opacity="0.7"/>
            <path id="Trazado_631691" data-name="Trazado 631691" d="M865.207,1271.339a.891.891,0,1,1-.891-.891A.89.89,0,0,1,865.207,1271.339Z" transform="translate(-863.068 -1256.719)" fill="#fff" opacity="0.7"/>
            <path id="Trazado_631692" data-name="Trazado 631692" d="M865.967,1291.634a.891.891,0,1,1-.891-.89A.891.891,0,0,1,865.967,1291.634Z" transform="translate(-863.295 -1262.792)" fill="#fff" opacity="0.7"/>
            <path id="Trazado_631693" data-name="Trazado 631693" d="M865.967,1312.382a.891.891,0,1,1-.891-.89A.891.891,0,0,1,865.967,1312.382Z" transform="translate(-863.295 -1269.001)" fill="#fff" opacity="0.7"/>
          </g>
        </g>
        <g id="Grupo_940766" data-name="Grupo 940766" transform="translate(116.999)">
          <g id="Grupo_940764" data-name="Grupo 940764" transform="translate(2.027)">
            <path id="Trazado_631694" data-name="Trazado 631694" d="M890.833,1211.784a3.25,3.25,0,0,1,.141-.673h-1.131a4.664,4.664,0,0,0-.113.673C889.666,1212.491,890.77,1212.487,890.833,1211.784Z" transform="translate(-878.131 -1207.71)" fill="#263238"/>
            <path id="Trazado_631695" data-name="Trazado 631695" d="M904.256,1227.5l-14.855-8.93v-4.256c3.078-.657,4.841-4.332,2.319-6.854a3.83,3.83,0,0,0-5.562-.01h2.23a2.614,2.614,0,0,1,2.492.849,2.947,2.947,0,0,1-2.03,5,.565.565,0,0,0-.552.552v4.72l-14.855,8.93a.552.552,0,0,0,.557.953l7.25-4.358,5.27-3.168c.6-.359,1.245-.686,1.814-1.09.118-.083.427-.219.583-.322.371.307,1.666,1.053,2.018,1.265l5.2,3.126,7.564,4.548A.552.552,0,0,0,904.256,1227.5Z" transform="translate(-873.179 -1206.258)" fill="#263238"/>
          </g>
          <g id="Grupo_940765" data-name="Grupo 940765" transform="translate(0 18.118)">
            <path id="Trazado_631696" data-name="Trazado 631696" d="M870.359,1235.714l4.267-3.6s5.909,5.1,13.358,4.293a37.052,37.052,0,0,0,13.358-4.293l3.563,2.64s-5.111,7.981.863,17.716l-.9,29.88H871.608l-1.321-30.544S877.218,1243.3,870.359,1235.714Z" transform="translate(-870.287 -1232.112)" fill="#ff1d14"/>
            <path id="Trazado_631697" data-name="Trazado 631697" d="M905.721,1268.476l-.069-.069-5.853,5.853-5.853-5.853-5.853,5.853-5.853-5.853-5.853,5.853-5.737-5.737.234,5.427,5.5,5.5,5.853-5.853,5.853,5.853,5.853-5.853,5.853,5.853,5.766-5.766Z" transform="translate(-870.395 -1242.973)" fill="#fff" opacity="0.5"/>
            <path id="Trazado_631698" data-name="Trazado 631698" d="M905.665,1275.9l-5.766,5.767-5.853-5.853-5.853,5.853-5.853-5.853-5.853,5.853-5.5-5.5.235,5.427,5.268,5.268,5.853-5.854,5.853,5.854,5.853-5.854,5.853,5.854,5.606-5.606Z" transform="translate(-870.495 -1245.19)" fill="#fff" opacity="0.7"/>
            <path id="Trazado_631699" data-name="Trazado 631699" d="M905.605,1283.473,900,1289.078l-5.853-5.853-5.853,5.853-5.853-5.853-5.853,5.853-5.268-5.268.235,5.427,5.033,5.033,5.853-5.853,5.853,5.853,5.853-5.853,5.853,5.853,5.446-5.446Z" transform="translate(-870.596 -1247.407)" fill="#fff" opacity="0.9"/>
          </g>
        </g>
      </g>
      <g id="Grupo_940770" data-name="Grupo 940770" transform="translate(76.674 0)">
        <g id="Grupo_940768" data-name="Grupo 940768">
          <rect id="Rectángulo_338147" data-name="Rectángulo 338147" width="40.107" height="14.01" rx="2.8" fill="#ff1d14"/>
          <rect id="Rectángulo_338148" data-name="Rectángulo 338148" width="2.804" height="6.986" transform="translate(18.652 13.299)" fill="#ff1d14"/>
        </g>
        <g id="Grupo_940769" data-name="Grupo 940769" transform="translate(4.041 2.339)">
          <path id="Trazado_631700" data-name="Trazado 631700" d="M835.088,1186.054l-.005-2.221-1.09,1.83h-.386l-1.084-1.782v2.174h-.8v-3.7h.708l1.386,2.3,1.364-2.3h.7l.01,3.7Z" transform="translate(-822.462 -1182.352)" fill="#fff"/>
          <path id="Trazado_631701" data-name="Trazado 631701" d="M838.926,1182.352h.857v3.7h-.857Z" transform="translate(-824.618 -1182.352)" fill="#fff"/>
          <path id="Trazado_631702" data-name="Trazado 631702" d="M844.8,1182.352v3.7h-.7l-1.846-2.248v2.248H841.4v-3.7h.709l1.84,2.248v-2.248Z" transform="translate(-825.359 -1182.352)" fill="#fff"/>
          <path id="Trazado_631703" data-name="Trazado 631703" d="M848.087,1183.05H846.9v-.7h3.226v.7h-1.184v3h-.857Z" transform="translate(-827.005 -1182.352)" fill="#fff"/>
          <path id="Trazado_631704" data-name="Trazado 631704" d="M819.49,1193.642a1.833,1.833,0,0,1-.719-.682,1.987,1.987,0,0,1,0-1.973,1.835,1.835,0,0,1,.719-.682,2.3,2.3,0,0,1,1.9-.077,1.74,1.74,0,0,1,.653.486l-.55.508a1.18,1.18,0,0,0-.93-.434,1.237,1.237,0,0,0-.613.151,1.074,1.074,0,0,0-.42.42,1.325,1.325,0,0,0,0,1.227,1.069,1.069,0,0,0,.42.42,1.237,1.237,0,0,0,.613.151,1.176,1.176,0,0,0,.93-.439l.55.508a1.714,1.714,0,0,1-.655.492,2.179,2.179,0,0,1-.873.169A2.126,2.126,0,0,1,819.49,1193.642Z" transform="translate(-818.509 -1184.659)" fill="#fff"/>
          <path id="Trazado_631705" data-name="Trazado 631705" d="M824.914,1193.64a1.848,1.848,0,0,1-.725-.685,1.966,1.966,0,0,1,0-1.961,1.85,1.85,0,0,1,.725-.685,2.3,2.3,0,0,1,2.076,0,1.888,1.888,0,0,1,0,3.332,2.294,2.294,0,0,1-2.076,0Zm1.631-.632a1.085,1.085,0,0,0,.416-.42,1.33,1.33,0,0,0,0-1.227,1.09,1.09,0,0,0-.416-.42,1.239,1.239,0,0,0-1.184,0,1.09,1.09,0,0,0-.416.42,1.325,1.325,0,0,0,0,1.227,1.085,1.085,0,0,0,.416.42,1.239,1.239,0,0,0,1.184,0Z" transform="translate(-820.13 -1184.659)" fill="#fff"/>
          <path id="Trazado_631706" data-name="Trazado 631706" d="M834.024,1190.15v3.7h-.7l-1.846-2.248v2.248h-.846v-3.7h.708l1.84,2.248v-2.248Z" transform="translate(-822.136 -1184.686)" fill="#fff"/>
          <path id="Trazado_631707" data-name="Trazado 631707" d="M836.726,1190.15h1.682a2.367,2.367,0,0,1,1.066.23,1.715,1.715,0,0,1,.719.647,1.974,1.974,0,0,1,0,1.946,1.722,1.722,0,0,1-.719.648,2.372,2.372,0,0,1-1.066.23h-1.682Zm1.64,3a1.246,1.246,0,0,0,.886-.309,1.23,1.23,0,0,0,0-1.677,1.246,1.246,0,0,0-.886-.309h-.783v2.295Z" transform="translate(-823.96 -1184.686)" fill="#fff"/>
          <path id="Trazado_631708" data-name="Trazado 631708" d="M842.96,1190.15h.856v3.7h-.856Z" transform="translate(-825.825 -1184.686)" fill="#fff"/>
          <path id="Trazado_631709" data-name="Trazado 631709" d="M846.023,1190.848h-1.184v-.7h3.226v.7H846.88v3h-.857Z" transform="translate(-826.388 -1184.686)" fill="#fff"/>
          <path id="Trazado_631710" data-name="Trazado 631710" d="M850.1,1190.15h.856v3.7H850.1Z" transform="translate(-827.962 -1184.686)" fill="#fff"/>
          <path id="Trazado_631711" data-name="Trazado 631711" d="M853.228,1193.64a1.847,1.847,0,0,1-.724-.685,1.97,1.97,0,0,1,0-1.961,1.849,1.849,0,0,1,.724-.685,2.3,2.3,0,0,1,2.076,0,1.873,1.873,0,0,1,.725.685,1.949,1.949,0,0,1,0,1.961,1.872,1.872,0,0,1-.725.685,2.294,2.294,0,0,1-2.076,0Zm1.631-.632a1.085,1.085,0,0,0,.416-.42,1.325,1.325,0,0,0,0-1.227,1.089,1.089,0,0,0-.416-.42,1.239,1.239,0,0,0-1.184,0,1.09,1.09,0,0,0-.416.42,1.324,1.324,0,0,0,0,1.227,1.085,1.085,0,0,0,.416.42,1.239,1.239,0,0,0,1.184,0Z" transform="translate(-828.603 -1184.659)" fill="#fff"/>
          <path id="Trazado_631712" data-name="Trazado 631712" d="M862.338,1190.15v3.7h-.7l-1.845-2.248v2.248h-.846v-3.7h.708l1.84,2.248v-2.248Z" transform="translate(-830.608 -1184.686)" fill="#fff"/>
        </g>
      </g>
    </g>
    <g id="Grupo_940790" data-name="Grupo 940790" transform="translate(824.624 1137.606)">
      <g id="Grupo_940785" data-name="Grupo 940785" transform="translate(19.702)">
        <g id="Grupo_940774" data-name="Grupo 940774" transform="translate(6.087 58.595)">
          <path id="Trazado_631713" data-name="Trazado 631713" d="M986.2,1252.9s-9.141,37.032-11.209,49.567c-2.039,12.356-5.231,49.817-5.231,49.817l9.715,1.495s5.9-36.492,9.714-48.073c2.9-8.809,13.081-24.265,15.194-33.128,1.1-4.6,0-18.93,0-18.93Z" transform="translate(-960.697 -1252.899)" fill="#ff1d14"/>
          <path id="Trazado_631714" data-name="Trazado 631714" d="M971.856,1396.049l-1.1,9.879,5.046.6,1.758-9.879Z" transform="translate(-960.997 -1295.734)" fill="#ffb570"/>
          <g id="Grupo_940772" data-name="Grupo 940772" transform="translate(0 107.316)">
            <path id="Trazado_631715" data-name="Trazado 631715" d="M965.775,1409.314a2.479,2.479,0,0,1-1.655-.619.517.517,0,0,1,.073-.595.719.719,0,0,1,.465-.276c.995-.165,2.892,1.2,2.975,1.261a.136.136,0,0,1,.051.15.142.142,0,0,1-.123.1A10.138,10.138,0,0,1,965.775,1409.314Zm-.8-1.223a.914.914,0,0,0-.266.007.381.381,0,0,0-.289.163c-.12.16-.093.246-.058.3.228.405,1.687.567,2.778.547A6.366,6.366,0,0,0,964.973,1408.091Z" transform="translate(-958.991 -1406.57)" fill="#ff1d14"/>
            <path id="Trazado_631716" data-name="Trazado 631716" d="M968.259,1408.8a.078.078,0,0,1-.057-.011c-.659-.379-1.919-1.78-1.727-2.418.03-.156.168-.334.55-.332a1.024,1.024,0,0,1,.738.314,3.951,3.951,0,0,1,.664,2.333.137.137,0,0,1-.075.118A.129.129,0,0,1,968.259,1408.8Zm-1.169-2.491-.079-.015c-.248,0-.275.093-.289.127-.076.388.732,1.465,1.4,1.965a3.245,3.245,0,0,0-.582-1.854.721.721,0,0,0-.455-.221Z" transform="translate(-959.709 -1406.04)" fill="#ff1d14"/>
            <path id="Trazado_631717" data-name="Trazado 631717" d="M966.075,1408.91l6.317.663a.512.512,0,0,1,.455.449l.6,5.259a.85.85,0,0,1-.922.949c-2.272-.278-4.284-.615-7.12-.909-3.345-.35-2.539.14-6.478-.217-2.373-.218-2.524-2.957-1.505-2.984,4.659-.1,5.283-1.435,7.23-2.895A2.041,2.041,0,0,1,966.075,1408.91Z" transform="translate(-956.828 -1406.892)" fill="#263238"/>
          </g>
          <path id="Trazado_631718" data-name="Trazado 631718" d="M1001.414,1278.864c-4.859,10.753-4.312,27.844-3.985,33.344,1.573-4.739,5.226-11.379,8.6-17.881l-.5-5.874S1007.267,1265.912,1001.414,1278.864Z" transform="translate(-968.916 -1259.468)" opacity="0.1"/>
          <g id="Grupo_940773" data-name="Grupo 940773" transform="translate(7.8 97.265)">
            <path id="Trazado_631719" data-name="Trazado 631719" d="M968.038,1391.7l-.081,3.679,11.786,1.8.841-3.456Z" transform="translate(-967.958 -1391.697)" fill="#ff1d14"/>
            <path id="Trazado_631720" data-name="Trazado 631720" d="M968.038,1391.7l-.081,3.679,11.786,1.8.841-3.456Z" transform="translate(-967.958 -1391.697)" fill="#fff" opacity="0.3"/>
          </g>
        </g>
        <g id="Grupo_940777" data-name="Grupo 940777" transform="translate(32.792 58.872)">
          <path id="Trazado_631721" data-name="Trazado 631721" d="M1002.511,1253.294s-.947,37.9-.747,50.536c.2,12.528,2.325,50.066,2.325,50.066h9.861s1.12-37.587,2.242-50.066,6.31-29.144-2.242-50.066Z" transform="translate(-996.972 -1253.294)" fill="#ff1d14"/>
          <path id="Trazado_631722" data-name="Trazado 631722" d="M1008.235,1397.392v9.457h5.178l.675-9.457Z" transform="translate(-998.916 -1296.413)" fill="#ffb570"/>
          <g id="Grupo_940775" data-name="Grupo 940775" transform="translate(0 107.705)">
            <path id="Trazado_631723" data-name="Trazado 631723" d="M1003.36,1410.363a2.48,2.48,0,0,1-1.707-.459.519.519,0,0,1,.016-.6.723.723,0,0,1,.437-.319c.974-.258,2.993.92,3.082.972a.138.138,0,0,1,.065.144.146.146,0,0,1-.113.112A10.259,10.259,0,0,1,1003.36,1410.363Zm-.915-1.14a.9.9,0,0,0-.264.032.378.378,0,0,0-.272.19c-.1.171-.069.254-.03.3.267.381,1.734.4,2.818.28A6.37,6.37,0,0,0,1002.444,1409.223Z" transform="translate(-996.92 -1407.576)" fill="#ff1d14"/>
            <path id="Trazado_631724" data-name="Trazado 631724" d="M1005.776,1409.625a.077.077,0,0,1-.058-.005c-.693-.315-2.08-1.589-1.949-2.242.016-.158.136-.348.516-.382a1.018,1.018,0,0,1,.765.242,3.958,3.958,0,0,1,.884,2.259.138.138,0,0,1-.063.124A.129.129,0,0,1,1005.776,1409.625Zm-1.4-2.369-.079-.008c-.247.018-.265.118-.275.154-.039.394.868,1.39,1.586,1.823a3.241,3.241,0,0,0-.757-1.791.714.714,0,0,0-.474-.177Z" transform="translate(-997.577 -1406.99)" fill="#ff1d14"/>
            <path id="Trazado_631725" data-name="Trazado 631725" d="M1003.759,1409.6l6.351.057a.511.511,0,0,1,.5.4l1.1,5.177a.848.848,0,0,1-.647,1.013.828.828,0,0,1-.179.02c-2.289-.06-4.324-.2-7.174-.226-3.364-.03-2.514.38-6.469.4-2.383.01-2.795-2.7-1.783-2.827,4.629-.539,5.122-1.931,6.921-3.57A2.042,2.042,0,0,1,1003.759,1409.6Z" transform="translate(-994.937 -1407.77)" fill="#263238"/>
          </g>
          <g id="Grupo_940776" data-name="Grupo 940776" transform="translate(5.568 98.624)">
            <path id="Trazado_631726" data-name="Trazado 631726" d="M1002.883,1394.031l.42,3.656,11.921.185.363-3.538Z" transform="translate(-1002.883 -1394.031)" fill="#ff1d14"/>
            <path id="Trazado_631727" data-name="Trazado 631727" d="M1002.883,1394.031l.42,3.656,11.921.185.363-3.538Z" transform="translate(-1002.883 -1394.031)" fill="#fff" opacity="0.3"/>
          </g>
        </g>
        <g id="Grupo_940782" data-name="Grupo 940782" transform="translate(41.628)">
          <path id="Trazado_631728" data-name="Trazado 631728" d="M1013.332,1200.949l5.608,1.271c-.437-2.43.7-5.615,1.664-7.909l-6.755,3.708A4.37,4.37,0,0,1,1013.332,1200.949Z" transform="translate(-1009.277 -1176.772)" fill="#ffb570"/>
          <path id="Trazado_631729" data-name="Trazado 631729" d="M1018.08,1196.437l-3.98,2.226a9.587,9.587,0,0,1-.055,1.712c1.324.084,3.559-.589,4.121-1.924A4.12,4.12,0,0,0,1018.08,1196.437Z" transform="translate(-1009.491 -1177.409)" opacity="0.2" style="isolation: isolate"/>
          <path id="Trazado_631730" data-name="Trazado 631730" d="M1023.853,1183.682c-2.361,4.639-3.263,6.645-6.729,8.042-5.218,2.1-10.4-1.816-9.47-7.061.842-4.724,4.576-11.538,10.054-11.376a7.1,7.1,0,0,1,6.145,10.4Z" transform="translate(-1007.546 -1170.48)" fill="#ffb570"/>
          <path id="Trazado_631731" data-name="Trazado 631731" d="M1018.779,1184.793c-.173.385-.515.612-.767.506s-.322-.519-.158-.906.515-.612.767-.506S1018.919,1184.416,1018.779,1184.793Z" transform="translate(-1010.604 -1173.645)" fill="#263238"/>
          <path id="Trazado_631732" data-name="Trazado 631732" d="M1012.523,1182.09c-.173.393-.515.612-.766.506s-.323-.518-.157-.905.515-.612.764-.5S1012.689,1181.7,1012.523,1182.09Z" transform="translate(-1008.732 -1172.838)" fill="#263238"/>
          <path id="Trazado_631733" data-name="Trazado 631733" d="M1012.529,1181.014l-.813-.673S1011.874,1181.278,1012.529,1181.014Z" transform="translate(-1008.794 -1172.592)" fill="#263238"/>
          <path id="Trazado_631734" data-name="Trazado 631734" d="M1013.4,1184.327a11.37,11.37,0,0,1-2.465,1.873,1.854,1.854,0,0,0,1.274.861Z" transform="translate(-1008.559 -1173.784)" fill="#ff8935"/>
          <path id="Trazado_631735" data-name="Trazado 631735" d="M1014.535,1191.461a3.518,3.518,0,0,1-.589-.206.122.122,0,0,1-.07-.159v0a.13.13,0,0,1,.168-.06,3.36,3.36,0,0,0,3.025-.114.124.124,0,1,1,.137.207A3.46,3.46,0,0,1,1014.535,1191.461Z" transform="translate(-1009.437 -1175.751)" fill="#263238"/>
          <path id="Trazado_631736" data-name="Trazado 631736" d="M1021.573,1183.9a.244.244,0,0,1-.187-.226,2.934,2.934,0,0,0-1.327-1.939.253.253,0,0,1-.085-.345.244.244,0,0,1,.336-.083l.008,0a3.37,3.37,0,0,1,1.564,2.339.244.244,0,0,1-.231.256h0A.132.132,0,0,1,1021.573,1183.9Z" transform="translate(-1011.254 -1172.872)" fill="#263238"/>
          <path id="Trazado_631737" data-name="Trazado 631737" d="M1012.253,1178.53a.258.258,0,0,1-.182-.177.252.252,0,0,1,.172-.308,2.435,2.435,0,0,1,2.255.408.236.236,0,0,1,.036.333l-.013.015a.245.245,0,0,1-.345.024l0,0h0a1.983,1.983,0,0,0-1.772-.293A.243.243,0,0,1,1012.253,1178.53Z" transform="translate(-1008.897 -1171.87)" fill="#263238"/>
          <path id="Trazado_631738" data-name="Trazado 631738" d="M1018.774,1183.772l-.813-.673S1018.125,1184.006,1018.774,1183.772Z" transform="translate(-1010.662 -1173.417)" fill="#263238"/>
          <g id="Grupo_940778" data-name="Grupo 940778" transform="translate(2.922)">
            <path id="Trazado_631739" data-name="Trazado 631739" d="M1023.124,1178.338a7.775,7.775,0,0,1-7.672-3l3,.478-6.734-2.989a13.621,13.621,0,0,1,5.24-2.336l-1.5-1.027s10.66-2.148,11.594,8.22a5.922,5.922,0,0,1-1.131,4.483C1024.324,1183.917,1023.124,1178.338,1023.124,1178.338Z" transform="translate(-1011.715 -1169.283)" fill="#263238"/>
            <path id="Trazado_631740" data-name="Trazado 631740" d="M1028.766,1182.911s-2.467,3.227-1.686,6.542c0,0,4.218-2.553,4.472-6.036C1031.878,1178.932,1028.766,1182.911,1028.766,1182.911Z" transform="translate(-1016.267 -1172.874)" fill="#263238"/>
          </g>
          <path id="Trazado_631741" data-name="Trazado 631741" d="M1028.723,1192.918a3.743,3.743,0,0,1-2.583,1.194c-1.31.036-1.654-1.212-1.028-2.292.572-.966,1.938-2.153,3.131-1.7a1.68,1.68,0,0,1,.48,2.8Z" transform="translate(-1012.711 -1175.489)" fill="#ffb570"/>
          <g id="Grupo_940781" data-name="Grupo 940781" transform="translate(12.813 17.314)">
            <g id="Grupo_940779" data-name="Grupo 940779">
              <path id="Trazado_631742" data-name="Trazado 631742" d="M1028.111,1194.826a3.01,3.01,0,0,1,.31,2.2c-.174.706-.783,1.651-1.59,1.017-.933-.734-.971-3.57.516-3.72.213-.022.215-.358,0-.336-1.858.186-1.935,3.491-.636,4.4a1.182,1.182,0,0,0,1.717-.493,3.262,3.262,0,0,0-.027-3.241.168.168,0,0,0-.29.17Z" transform="translate(-1025.831 -1193.989)" fill="#263238"/>
            </g>
            <g id="Grupo_940780" data-name="Grupo 940780" opacity="0.5">
              <path id="Trazado_631743" data-name="Trazado 631743" d="M1028.111,1194.826a3.01,3.01,0,0,1,.31,2.2c-.174.706-.783,1.651-1.59,1.017-.933-.734-.971-3.57.516-3.72.213-.022.215-.358,0-.336-1.858.186-1.935,3.491-.636,4.4a1.182,1.182,0,0,0,1.717-.493,3.262,3.262,0,0,0-.027-3.241.168.168,0,0,0-.29.17Z" transform="translate(-1025.831 -1193.989)" fill="#fff"/>
            </g>
          </g>
        </g>
        <g id="Grupo_940783" data-name="Grupo 940783" transform="translate(0 11.338)">
          <path id="Trazado_631744" data-name="Trazado 631744" d="M959.429,1198.221l-3.985-3.985.672-3.843a2.009,2.009,0,0,0-.685-1.883l-1.482-1.248-.169-.469a2.009,2.009,0,0,0-3.146-.889h0a2,2,0,0,0-.485.567l-1.738,3.018a2.006,2.006,0,0,0-.176,1.6l.983,3.146,2.739,1.619,3.737,5.355Z" transform="translate(-948.142 -1185.462)" fill="#ffb570"/>
          <path id="Trazado_631745" data-name="Trazado 631745" d="M987.82,1204.834a1.027,1.027,0,0,0-1.4-.736c-1.538.648-5.069,2.217-13.052,6-2.366,1.121-8.022-4.06-11.831-9.091l-5.106,4.545s9.092,12.143,14.945,12.268,17.56-7.722,17.56-7.722Z" transform="translate(-950.622 -1190.113)" fill="#263238"/>
        </g>
        <path id="Trazado_631746" data-name="Trazado 631746" d="M988.4,1218.12a73.924,73.924,0,0,0,8.005-4.308V1211.8l-2.72-2.818A47.548,47.548,0,0,0,988.4,1218.12Z" transform="translate(-960.189 -1181.161)" opacity="0.5"/>
        <path id="Trazado_631747" data-name="Trazado 631747" d="M991.364,1241.068s-.872-14.571,1.246-25.655,2.49-12.454,14.944-9.341,12.828,2.366,10.96,8.469c-1.606,5.245-4.608,20.3-5.854,27.4Z" transform="translate(-961.022 -1179.857)" fill="#263238"/>
        <path id="Trazado_631748" data-name="Trazado 631748" d="M1010.624,1204.138l.718-1.208a2.927,2.927,0,0,0,.411-1.5v-.66a.427.427,0,0,1,.6-.391,18.968,18.968,0,0,0,6.383,1.711.588.588,0,0,1,.5.826l-.353.8a2.4,2.4,0,0,0-.2,1l.02,1.372A8.612,8.612,0,0,1,1010.624,1204.138Z" transform="translate(-966.839 -1178.577)" fill="#263238"/>
        <path id="Trazado_631749" data-name="Trazado 631749" d="M1011.511,1206.5s1.519,2.308,6.5,1.642C1018.015,1208.138,1012.1,1211.62,1011.511,1206.5Z" transform="translate(-967.104 -1180.418)" opacity="0.5"/>
        <path id="Trazado_631750" data-name="Trazado 631750" d="M1012.978,1260.718l-3.487,3.113h-3.741a3.892,3.892,0,0,0-2.064.592l-1.308.817a2.962,2.962,0,0,0-.886,4.169l.5.741a2.962,2.962,0,0,0,4.4.579l1.06-.921.653-.163a3.821,3.821,0,0,0,2.588-2.2h0l4.28-3.113Z" transform="translate(-963.955 -1196.643)" fill="#ffb570"/>
        <g id="Grupo_940784" data-name="Grupo 940784" transform="translate(47.484 28.533)">
          <path id="Trazado_631751" data-name="Trazado 631751" d="M1023.036,1210.047s7.167,1.117,7.407,6.987,2.073,15.777.729,20.828-12.26,13.081-12.26,13.081l-3.01-5.244s8.768-6.5,8.771-13.734S1019.959,1209.029,1023.036,1210.047Z" transform="translate(-1015.902 -1210)" fill="#263238"/>
          <path id="Trazado_631752" data-name="Trazado 631752" d="M1027.241,1227.95a49.967,49.967,0,0,1,.825,7.47,9.669,9.669,0,0,1-.185,1.825c1.132-3.9,1.049-11.324.878-15.7C1028.3,1223.287,1027.781,1225.508,1027.241,1227.95Z" transform="translate(-1019.295 -1213.454)" opacity="0.5"/>
        </g>
      </g>
      <g id="Grupo_940786" data-name="Grupo 940786" transform="translate(9.431 14.277)">
        <path id="Trazado_631753" data-name="Trazado 631753" d="M965.046,1211.233l-15.086-9.068v-4.322c3.126-.668,4.916-4.4,2.354-6.961-2.716-2.716-6.74-.548-7.05,2.915-.064.718,1.057.713,1.121,0,.221-2.471,3.17-4.1,5.076-2.062a2.993,2.993,0,0,1-2.062,5.077.573.573,0,0,0-.56.561v4.793l-15.086,9.068a.561.561,0,0,0,.565.968l7.362-4.425,5.352-3.218c.608-.365,1.265-.7,1.842-1.107.119-.085.434-.223.592-.327.377.312,1.692,1.07,2.05,1.285l5.281,3.174,7.682,4.618A.561.561,0,0,0,965.046,1211.233Z" transform="translate(-933.486 -1189.657)" fill="#263238"/>
        <path id="Trazado_631754" data-name="Trazado 631754" d="M965.046,1211.233l-15.086-9.068v-4.322c3.126-.668,4.916-4.4,2.354-6.961-2.716-2.716-6.74-.548-7.05,2.915-.064.718,1.057.713,1.121,0,.221-2.471,3.17-4.1,5.076-2.062a2.993,2.993,0,0,1-2.062,5.077.573.573,0,0,0-.56.561v4.793l-15.086,9.068a.561.561,0,0,0,.565.968l7.362-4.425,5.352-3.218c.608-.365,1.265-.7,1.842-1.107.119-.085.434-.223.592-.327.377.312,1.692,1.07,2.05,1.285l5.281,3.174,7.682,4.618A.561.561,0,0,0,965.046,1211.233Z" transform="translate(-933.486 -1189.657)" fill="#fff" opacity="0.5"/>
      </g>
      <g id="Grupo_940789" data-name="Grupo 940789" transform="translate(0 30.636)">
        <path id="Trazado_631755" data-name="Trazado 631755" d="M937.932,1213s7.117,4.952,17.663,0c0,0,10.733,4.576,11.294,9.619s1.771,23.819,1.771,23.819h-8.123l.374,26.247H931.672l1.03-26.247H922.427s2.458-24.429,5.058-27.486S937.932,1213,937.932,1213Z" transform="translate(-920.746 -1213.001)" fill="#ff1d14"/>
        <path id="Trazado_631756" data-name="Trazado 631756" d="M943.574,1213s-.948.35-2.293.934c1.324,1.335,4.463,3.65,10.452,3.828a18.6,18.6,0,0,0,11.727-3.7c-1.307-.676-2.223-1.067-2.223-1.067C950.691,1217.953,943.574,1213,943.574,1213Z" transform="translate(-926.387 -1213.001)" fill="#fff" opacity="0.3"/>
        <path id="Trazado_631757" data-name="Trazado 631757" d="M936.174,1241.076l-2.688,13.671,2.525.094.489-13.765Z" transform="translate(-924.055 -1221.402)" opacity="0.2"/>
        <g id="Grupo_940787" data-name="Grupo 940787" transform="translate(0 31.944)">
          <path id="Trazado_631758" data-name="Trazado 631758" d="M920.588,1258.585l-.561,2.9,11.883.461v-2.889Z" transform="translate(-920.028 -1258.585)" fill="#ff1d14"/>
          <path id="Trazado_631759" data-name="Trazado 631759" d="M920.588,1258.585l-.561,2.9,11.883.461v-2.889Z" transform="translate(-920.028 -1258.585)" fill="#fff" opacity="0.3"/>
        </g>
        <path id="Trazado_631760" data-name="Trazado 631760" d="M976.2,1241.076l.427,13.765,1.468-.094-1.766-13.671Z" transform="translate(-936.837 -1221.402)" opacity="0.2"/>
        <g id="Grupo_940788" data-name="Grupo 940788" transform="translate(39.791 31.944)">
          <path id="Trazado_631761" data-name="Trazado 631761" d="M976.81,1258.585v2.8h9.434l-.374-2.8Z" transform="translate(-976.81 -1258.585)" fill="#ff1d14"/>
          <path id="Trazado_631762" data-name="Trazado 631762" d="M976.81,1258.585v2.8h9.434l-.374-2.8Z" transform="translate(-976.81 -1258.585)" fill="#fff" opacity="0.3"/>
        </g>
        <path id="Trazado_631763" data-name="Trazado 631763" d="M964.834,1290.354H935.888l-.088,2.242h29.066Z" transform="translate(-924.747 -1236.148)" fill="#fff" opacity="0.3"/>
      </g>
      <path id="Trazado_631764" data-name="Trazado 631764" d="M954.275,1188.756v3.265l-2.836,2.76-1.518-.368-.69-2.645,2.161-2.69Z" transform="translate(-928.766 -1175.11)" fill="#ffb570"/>
    </g>
    <g id="Grupo_940800" data-name="Grupo 940800" transform="translate(626.24 1128.996)">
      <g id="Grupo_940792" data-name="Grupo 940792" transform="translate(1.797 180.595)">
        <path id="Trazado_631765" data-name="Trazado 631765" d="M651.287,1414.707l-2.015,10.943h-5.992l1.154-10.943Z" transform="translate(-640.628 -1414.707)" fill="#e67b62"/>
        <g id="Grupo_940791" data-name="Grupo 940791" transform="translate(0 7.782)">
          <path id="Trazado_631766" data-name="Trazado 631766" d="M653.588,1429.544a.169.169,0,0,1-.13-.13.16.16,0,0,1,.076-.167c.1-.06,2.439-1.423,3.566-1.124a.832.832,0,0,1,.506.368.6.6,0,0,1,.018.693,2.869,2.869,0,0,1-1.975.531A11.836,11.836,0,0,1,653.588,1429.544Zm.515-.218c1.254.143,2.952.117,3.26-.324.045-.054.086-.151-.034-.348a.446.446,0,0,0-.315-.22,1.073,1.073,0,0,0-.306-.036A7.377,7.377,0,0,0,654.1,1429.326Z" transform="translate(-643.672 -1426.491)" fill="#ff1d14"/>
          <path id="Trazado_631767" data-name="Trazado 631767" d="M653.493,1428.857a.159.159,0,0,1-.073-.144,4.574,4.574,0,0,1,1.023-2.615,1.182,1.182,0,0,1,.885-.28c.439.04.579.261.6.443.15.756-1.455,2.231-2.256,2.6a.09.09,0,0,1-.066.006A.151.151,0,0,1,653.493,1428.857Zm1.731-2.735a.829.829,0,0,0-.549.205,3.75,3.75,0,0,0-.875,2.072c.83-.5,1.88-1.652,1.835-2.109-.012-.041-.032-.156-.319-.178l-.092.009Z" transform="translate(-643.661 -1425.813)" fill="#ff1d14"/>
          <path id="Trazado_631768" data-name="Trazado 631768" d="M648.715,1428.832l-7.349.067a.593.593,0,0,0-.574.468l-1.274,5.991a.983.983,0,0,0,.749,1.172.969.969,0,0,0,.208.023c2.649-.07,5-.237,8.3-.262,3.892-.034,2.909.441,7.485.464,2.758.011,3.233-3.127,2.063-3.27-5.357-.625-5.927-2.235-8.008-4.132A2.366,2.366,0,0,0,648.715,1428.832Z" transform="translate(-639.495 -1426.715)" fill="#263238"/>
        </g>
        <path id="Trazado_631769" data-name="Trazado 631769" d="M643.979,1421.939l6.245.6.627-3.405-5.681-1.346-.813.567Z" transform="translate(-640.836 -1415.63)" opacity="0.2"/>
      </g>
      <g id="Grupo_940794" data-name="Grupo 940794" transform="translate(28.397 180.595)">
        <path id="Trazado_631770" data-name="Trazado 631770" d="M687.639,1414.707l-.543,10.943H681.1l-.317-10.943Z" transform="translate(-678.452 -1414.707)" fill="#e67b62"/>
        <g id="Grupo_940793" data-name="Grupo 940793" transform="translate(0 7.782)">
          <path id="Trazado_631771" data-name="Trazado 631771" d="M691.547,1429.544a.167.167,0,0,1-.13-.13.158.158,0,0,1,.076-.167c.1-.06,2.439-1.423,3.566-1.124a.832.832,0,0,1,.505.368.6.6,0,0,1,.019.693,2.872,2.872,0,0,1-1.975.531A11.838,11.838,0,0,1,691.547,1429.544Zm.515-.218c1.254.143,2.952.117,3.26-.324.045-.054.085-.151-.034-.348a.445.445,0,0,0-.315-.22,1.07,1.07,0,0,0-.3-.036A7.369,7.369,0,0,0,692.062,1429.326Z" transform="translate(-681.632 -1426.491)" fill="#ff1d14"/>
          <path id="Trazado_631772" data-name="Trazado 631772" d="M691.453,1428.857a.156.156,0,0,1-.073-.144,4.571,4.571,0,0,1,1.022-2.615,1.182,1.182,0,0,1,.885-.28c.439.04.579.261.6.443.151.756-1.454,2.231-2.256,2.6a.091.091,0,0,1-.067.006A.151.151,0,0,1,691.453,1428.857Zm1.731-2.735a.831.831,0,0,0-.55.205,3.75,3.75,0,0,0-.875,2.072c.83-.5,1.88-1.652,1.834-2.109-.012-.041-.031-.156-.319-.178l-.091.009Z" transform="translate(-681.621 -1425.813)" fill="#ff1d14"/>
          <path id="Trazado_631773" data-name="Trazado 631773" d="M686.674,1428.832l-7.349.067a.593.593,0,0,0-.573.468l-1.275,5.991a.984.984,0,0,0,.749,1.172.972.972,0,0,0,.207.023c2.649-.07,5-.237,8.3-.262,3.893-.034,2.909.441,7.486.464,2.758.011,3.234-3.127,2.063-3.27-5.357-.625-5.926-2.235-8.008-4.132A2.368,2.368,0,0,0,686.674,1428.832Z" transform="translate(-677.454 -1426.715)" fill="#263238"/>
        </g>
        <path id="Trazado_631774" data-name="Trazado 631774" d="M681.023,1422.543h6.309l.208-4.189-1.428-.563-3.955.276-1.252.373Z" transform="translate(-678.486 -1415.63)" opacity="0.2"/>
      </g>
      <g id="Grupo_940795" data-name="Grupo 940795" transform="translate(21.225 81.58)">
        <path id="Trazado_631775" data-name="Trazado 631775" d="M685.238,1273.412s2.237,37.62,2.207,50.176c-.031,13.2-2.567,52.732-2.567,52.732H674.822s-.13-38.673-1.226-51.506c-.929-10.87-6.377-43.167-6.377-43.167v-8.235Z" transform="translate(-667.219 -1273.412)" fill="#263238"/>
        <path id="Trazado_631776" data-name="Trazado 631776" d="M676.878,1416.769l.09,4.039,11.817.131.108-3.97Z" transform="translate(-670.109 -1316.309)" fill="#263238"/>
        <path id="Trazado_631777" data-name="Trazado 631777" d="M673.192,1318.843c2.57-16.958,1.354-37.879,1.354-37.879l-5.463,10.854C670.288,1299.227,672.058,1310.393,673.192,1318.843Z" transform="translate(-667.777 -1275.672)" opacity="0.4"/>
        <path id="Trazado_631778" data-name="Trazado 631778" d="M676.878,1416.769l.09,4.039,11.817.131.108-3.97Z" transform="translate(-670.109 -1316.309)" fill="#fff" opacity="0.3"/>
      </g>
      <g id="Grupo_940796" data-name="Grupo 940796" transform="translate(2.278 81.58)">
        <path id="Trazado_631779" data-name="Trazado 631779" d="M667.325,1273.412s-5.358,39.678-7.351,52.874c-1.893,12.531-8.159,50.034-8.159,50.034l-10.056-.736s3.607-38.232,4.169-51.016c.41-9.312.179-27.595.491-37.281.245-7.6.736-13.877.736-13.877Z" transform="translate(-640.654 -1273.412)" fill="#263238"/>
        <path id="Trazado_631780" data-name="Trazado 631780" d="M640.611,1415.626l-.429,4.047,11.773.981.613-3.924Z" transform="translate(-640.182 -1315.967)" fill="#263238"/>
        <path id="Trazado_631781" data-name="Trazado 631781" d="M640.611,1415.626l-.429,4.047,11.773.981.613-3.924Z" transform="translate(-640.182 -1315.967)" fill="#fff" opacity="0.3"/>
      </g>
      <path id="Trazado_631782" data-name="Trazado 631782" d="M678.534,1198.5s4.783-1.1,9.792,5.518c3.625,4.788,14.98,16.924,12.773,22.2-1.68,4.012-5.641,3.434-12.386-5.273S674.73,1197.193,678.534,1198.5Z" transform="translate(-649.065 -1169.393)" fill="#ff1d14"/>
      <path id="Trazado_631783" data-name="Trazado 631783" d="M678.534,1198.5s4.783-1.1,9.792,5.518c3.625,4.788,14.98,16.924,12.773,22.2-1.68,4.012-5.641,3.434-12.386-5.273S674.73,1197.193,678.534,1198.5Z" transform="translate(-649.065 -1169.393)" fill="#fff" opacity="0.7"/>
      <g id="Grupo_940797" data-name="Grupo 940797" transform="translate(41.943 51.468)">
        <path id="Trazado_631784" data-name="Trazado 631784" d="M701.227,1231.286s-8.414,8.306-2.085,10.179c6.009,1.778,7.717-3.131,7.991-6.745C707.318,1232.267,706.5,1228.833,701.227,1231.286Z" transform="translate(-696.783 -1230.442)" fill="#ff1d14"/>
        <path id="Trazado_631785" data-name="Trazado 631785" d="M701.227,1231.286s-8.414,8.306-2.085,10.179c6.009,1.778,7.717-3.131,7.991-6.745C707.318,1232.267,706.5,1228.833,701.227,1231.286Z" transform="translate(-696.783 -1230.442)" fill="#fff" opacity="0.7"/>
      </g>
      <path id="Trazado_631786" data-name="Trazado 631786" d="M648.5,1252.63a1.333,1.333,0,0,1-1.226-1.4c.27-5.187,1.148-24.77-.439-34.769-1.84-11.589-2.943-17.292,9.565-18.947s20.418.184,22.258,9.382c1.581,7.905.988,35.922.79,43.639a2.3,2.3,0,0,1-2.056,2.231C673.414,1253.188,663.589,1253.87,648.5,1252.63Z" transform="translate(-639.559 -1168.959)" fill="#ff1d14"/>
      <path id="Trazado_631787" data-name="Trazado 631787" d="M648.5,1252.63a1.333,1.333,0,0,1-1.226-1.4c.27-5.187,1.148-24.77-.439-34.769-1.84-11.589-2.943-17.292,9.565-18.947s20.418.184,22.258,9.382c1.581,7.905.988,35.922.79,43.639a2.3,2.3,0,0,1-2.056,2.231C673.414,1253.188,663.589,1253.87,648.5,1252.63Z" transform="translate(-639.559 -1168.959)" fill="#fff" opacity="0.5"/>
      <path id="Trazado_631788" data-name="Trazado 631788" d="M673.584,1195.914l.628-1.387-.975-1.609-1.654.17a5.766,5.766,0,0,1-.046-1.658,13.56,13.56,0,0,1,.277-1.686l-4.148-3.467-3.043-2.526c.71,3.19,1.5,8.373.07,11.309l7.394,4.2,2.438-2.9A5.887,5.887,0,0,1,673.584,1195.914Z" transform="translate(-645.217 -1165.002)" fill="#e67b62"/>
      <path id="Trazado_631789" data-name="Trazado 631789" d="M657.157,1197.613s5.852-6.41,12.474,4.5a40.891,40.891,0,0,0-.282-5.511,2.674,2.674,0,0,1,4.031.884c.986,1.485.237,4.259-3.5,5.731A125.585,125.585,0,0,0,657.157,1197.613Z" transform="translate(-642.983 -1168.591)" fill="#ff1d14"/>
      <path id="Trazado_631790" data-name="Trazado 631790" d="M673.012,1190.558a13.611,13.611,0,0,0-.278,1.686c-1.56-.309-3.9-1.7-4.111-3.454a7.063,7.063,0,0,1,.24-1.7Z" transform="translate(-646.415 -1166.002)" opacity="0.2" style="isolation: isolate"/>
      <path id="Trazado_631791" data-name="Trazado 631791" d="M682.756,1169.18s4.523,2.253,3.327,4.147-3.429-.783-3.429-.783Z" transform="translate(-650.613 -1160.642)" fill="#263238"/>
      <path id="Trazado_631792" data-name="Trazado 631792" d="M664.8,1170.306c-.631,4.982-1.263,7.856.758,10.912a6.527,6.527,0,0,0,11.505-1.029c1.894-4.187,2.563-11.631-1.837-14.613a6.631,6.631,0,0,0-10.426,4.73Z" transform="translate(-645.086 -1159.199)" fill="#e67b62"/>
      <path id="Trazado_631793" data-name="Trazado 631793" d="M675.329,1179.007c-.076.4.076.77.335.827s.53-.221.631-.632-.076-.77-.335-.827S675.4,1178.609,675.329,1179.007Z" transform="translate(-648.415 -1163.392)" fill="#263238"/>
      <path id="Trazado_631794" data-name="Trazado 631794" d="M682,1180.275c-.076.4.076.77.335.821s.531-.221.631-.631-.076-.77-.335-.828S682.072,1179.871,682,1180.275Z" transform="translate(-650.41 -1163.769)" fill="#263238"/>
      <path id="Trazado_631795" data-name="Trazado 631795" d="M679.09,1180.47a15.316,15.316,0,0,0,1.036,3.3,2.128,2.128,0,0,1-1.743,0Z" transform="translate(-649.335 -1164.021)" fill="#d54c38"/>
      <path id="Trazado_631796" data-name="Trazado 631796" d="M676.407,1188.413a3.5,3.5,0,0,1-2.605-.8.127.127,0,0,1-.027-.169.115.115,0,0,1,.158-.028l0,0a3.339,3.339,0,0,0,2.863.689.113.113,0,0,1,.139.08l0,.013a.127.127,0,0,1-.093.143A4,4,0,0,1,676.407,1188.413Z" transform="translate(-647.95 -1166.093)" fill="#263238"/>
      <path id="Trazado_631797" data-name="Trazado 631797" d="M673.766,1176.3a.22.22,0,0,1-.107-.038.233.233,0,0,1-.057-.325l.007-.009a2.3,2.3,0,0,1,1.894-.991.234.234,0,0,1,.216.251v.008a.24.24,0,0,1-.252.221,1.806,1.806,0,0,0-1.5.789A.222.222,0,0,1,673.766,1176.3Z" transform="translate(-647.892 -1162.365)" fill="#263238"/>
      <path id="Trazado_631798" data-name="Trazado 631798" d="M684.327,1177.661a.253.253,0,0,1-.19-.12,1.965,1.965,0,0,0-1.427-1.017.239.239,0,0,1-.221-.257h0a.246.246,0,0,1,.252-.221h0a2.4,2.4,0,0,1,1.8,1.263.239.239,0,0,1-.082.328A.268.268,0,0,1,684.327,1177.661Z" transform="translate(-650.563 -1162.696)" fill="#263238"/>
      <path id="Trazado_631799" data-name="Trazado 631799" d="M662.195,1162.332s-6.283,1.127-2.769,3.449c0,0-3.7,2.732.678,3.39,0,0-1.316,3.625,2.981,2.28,0,0,3.8.592,1.932-4.907,0,0,5.8,1.491,7.647-.808,0,0,6.314,4.409,7.3.335.758-3.14-3.09-3.247-3.09-3.247s1.528-2.607-.278-3.619a3.14,3.14,0,0,0-3.448.439s1.377-2.583-1-2.647c-2.029-.055-3.45,2.107-3.45,2.107S660.411,1157.594,662.195,1162.332Z" transform="translate(-643.225 -1156.996)" fill="#263238"/>
      <path id="Trazado_631800" data-name="Trazado 631800" d="M661.112,1177.678a5.325,5.325,0,0,0,1.945,3.043c1.263.928,2.217-.2,2.147-1.781-.063-1.427-.8-3.631-2.191-3.921S660.771,1176.156,661.112,1177.678Z" transform="translate(-644.144 -1162.379)" fill="#e67b62"/>
      <path id="Trazado_631801" data-name="Trazado 631801" d="M681.5,1216.26l-1.125,12.448a1.406,1.406,0,0,1-.884,1.188,50.2,50.2,0,0,1-4.886,1.725,56.405,56.405,0,0,1-5.8.63,1.414,1.414,0,0,0-1.294,1.179h0a1.417,1.417,0,0,0,1.164,1.631l18.229,3.044a1.416,1.416,0,0,0,1.623-1.123l3.664-18.589a1.416,1.416,0,0,0-1.086-1.657l-7.89-1.733A1.417,1.417,0,0,0,681.5,1216.26Z" transform="translate(-646.075 -1174.344)" fill="#263238"/>
      <g id="Grupo_940799" data-name="Grupo 940799" transform="translate(0 29.984)">
        <path id="Trazado_631802" data-name="Trazado 631802" d="M672.881,1244.892h5.265a1.532,1.532,0,0,0,.806-.23l2.818-1.748a1.528,1.528,0,0,1,.806-.229H683.7a1.536,1.536,0,0,0,.371-.045l1.5-.376a1.53,1.53,0,0,1,1.505.459h0a1.529,1.529,0,0,1,.257,1.658l-1.752,3.848a1.53,1.53,0,0,1-1.392.9h-3.314a1.533,1.533,0,0,1-.233-.018l-3.278-.5a1.52,1.52,0,0,0-.389-.01l-4.1.423a1.529,1.529,0,0,1-1.669-1.745l.159-1.072A1.528,1.528,0,0,1,672.881,1244.892Z" transform="translate(-647.184 -1212.482)" fill="#e67b62"/>
        <g id="Grupo_940798" data-name="Grupo 940798">
          <path id="Trazado_631803" data-name="Trazado 631803" d="M648.619,1199.786c-1.228,0-6.378-.365-9.567,12.879s-3.189,23.178,2.82,24.772,18.091,2.7,18.091,0l1.983-.15a1.368,1.368,0,0,0,1.264-1.363v-3.429a1.367,1.367,0,0,0-1.433-1.365l-1.108.053s-.034-1.471-2.732-1.594-11.886,1.376-12.055-1.574S654.749,1199.782,648.619,1199.786Z" transform="translate(-636.931 -1199.785)" fill="#ff1d14"/>
          <path id="Trazado_631804" data-name="Trazado 631804" d="M648.619,1199.786c-1.228,0-6.378-.365-9.567,12.879s-3.189,23.178,2.82,24.772,18.091,2.7,18.091,0l1.983-.15a1.368,1.368,0,0,0,1.264-1.363v-3.429a1.367,1.367,0,0,0-1.433-1.365l-1.108.053s-.034-1.471-2.732-1.594-11.886,1.376-12.055-1.574S654.749,1199.782,648.619,1199.786Z" transform="translate(-636.931 -1199.785)" fill="#fff" opacity="0.7"/>
        </g>
      </g>
      <path id="Trazado_631805" data-name="Trazado 631805" d="M700.167,1232.551l-1.814,1.261a1.04,1.04,0,0,0-.434.7l-.547,3.675-.888.934a1.039,1.039,0,0,0,.027,1.459l.2.191a1.04,1.04,0,0,0,.989.262l1.783-.465a1.037,1.037,0,0,0,.677-.561l1.9-4.01a1.038,1.038,0,0,0,.1-.445v-1.861a1.04,1.04,0,0,0-.388-.81l-.355-.286A1.039,1.039,0,0,0,700.167,1232.551Z" transform="translate(-654.666 -1179.549)" fill="#e67b62"/>
    </g>
    <g id="Grupo_940809" data-name="Grupo 940809" transform="translate(689.798 1231.815)">
      <g id="Grupo_940804" data-name="Grupo 940804" transform="translate(33.396 11.058)">
        <g id="Grupo_940803" data-name="Grupo 940803" transform="translate(7.147)">
          <g id="Grupo_940801" data-name="Grupo 940801">
            <path id="Trazado_631806" data-name="Trazado 631806" d="M788.245,1324.691a3.818,3.818,0,0,1-2.626-.706.8.8,0,0,1,.025-.922,1.109,1.109,0,0,1,.672-.491c1.5-.4,4.605,1.415,4.743,1.5a.209.209,0,0,1,.1.221.22.22,0,0,1-.172.173A15.714,15.714,0,0,1,788.245,1324.691Zm-1.408-1.755a1.389,1.389,0,0,0-.406.049.585.585,0,0,0-.419.292c-.161.263-.106.391-.046.463.41.587,2.668.621,4.336.43A9.8,9.8,0,0,0,786.837,1322.936Z" transform="translate(-785.484 -1320.403)" fill="#ff1d14"/>
            <path id="Trazado_631807" data-name="Trazado 631807" d="M791.964,1323.556a.121.121,0,0,1-.088-.008c-1.066-.484-3.2-2.446-3-3.45.025-.243.21-.536.794-.59a1.573,1.573,0,0,1,1.177.373c1.132.948,1.348,3.364,1.359,3.477a.21.21,0,0,1-.1.191A.2.2,0,0,1,791.964,1323.556Zm-2.156-3.645-.121-.012c-.381.029-.408.182-.425.237-.06.607,1.337,2.138,2.441,2.8a4.993,4.993,0,0,0-1.165-2.756,1.11,1.11,0,0,0-.73-.273Z" transform="translate(-786.495 -1319.5)" fill="#ff1d14"/>
          </g>
          <g id="Grupo_940802" data-name="Grupo 940802" opacity="0.7">
            <path id="Trazado_631808" data-name="Trazado 631808" d="M788.245,1324.691a3.818,3.818,0,0,1-2.626-.706.8.8,0,0,1,.025-.922,1.109,1.109,0,0,1,.672-.491c1.5-.4,4.605,1.415,4.743,1.5a.209.209,0,0,1,.1.221.22.22,0,0,1-.172.173A15.714,15.714,0,0,1,788.245,1324.691Zm-1.408-1.755a1.389,1.389,0,0,0-.406.049.585.585,0,0,0-.419.292c-.161.263-.106.391-.046.463.41.587,2.668.621,4.336.43A9.8,9.8,0,0,0,786.837,1322.936Z" transform="translate(-785.484 -1320.403)" fill="#fff"/>
            <path id="Trazado_631809" data-name="Trazado 631809" d="M791.964,1323.556a.121.121,0,0,1-.088-.008c-1.066-.484-3.2-2.446-3-3.45.025-.243.21-.536.794-.59a1.573,1.573,0,0,1,1.177.373c1.132.948,1.348,3.364,1.359,3.477a.21.21,0,0,1-.1.191A.2.2,0,0,1,791.964,1323.556Zm-2.156-3.645-.121-.012c-.381.029-.408.182-.425.237-.06.607,1.337,2.138,2.441,2.8a4.993,4.993,0,0,0-1.165-2.756,1.11,1.11,0,0,0-.73-.273Z" transform="translate(-786.495 -1319.5)" fill="#fff"/>
          </g>
        </g>
        <path id="Trazado_631810" data-name="Trazado 631810" d="M788.86,1323.514l9.773.089a.788.788,0,0,1,.763.622l1.694,7.967a1.307,1.307,0,0,1-1,1.559,1.283,1.283,0,0,1-.275.03c-3.523-.093-6.654-.314-11.04-.348-5.176-.045-3.868.586-9.954.617-3.667.016-4.3-4.158-2.744-4.35,7.124-.831,7.882-2.973,10.65-5.494A3.151,3.151,0,0,1,788.86,1323.514Z" transform="translate(-775.285 -1320.7)" fill="#ff1d14"/>
        <path id="Trazado_631811" data-name="Trazado 631811" d="M800.1,1336.621a1.307,1.307,0,0,0,1-1.558l-.193-.9c-1.024-.073-2.221-.175-3.631-.318-7.114-.719-10.851.359-15.739.431a13.606,13.606,0,0,1-6.108-1.169c-.516,1.167.472,3.828,3.4,3.816,6.086-.031,4.778-.662,9.954-.617,4.386.033,7.517.255,11.04.348A1.282,1.282,0,0,0,800.1,1336.621Z" transform="translate(-775.287 -1323.571)" fill="#fff" opacity="0.6"/>
        <path id="Trazado_631812" data-name="Trazado 631812" d="M805.35,1328.224a2.066,2.066,0,1,1-2.067-2.066A2.066,2.066,0,0,1,805.35,1328.224Z" transform="translate(-783.045 -1321.493)" fill="#fff"/>
      </g>
      <g id="Grupo_940808" data-name="Grupo 940808" transform="translate(14.736 11.002)">
        <g id="Grupo_940807" data-name="Grupo 940807" transform="translate(7.147)">
          <g id="Grupo_940805" data-name="Grupo 940805">
            <path id="Trazado_631813" data-name="Trazado 631813" d="M761.617,1324.61a3.818,3.818,0,0,1-2.626-.705.8.8,0,0,1,.025-.922,1.11,1.11,0,0,1,.673-.49c1.5-.4,4.605,1.415,4.742,1.5a.21.21,0,0,1,.1.222.225.225,0,0,1-.173.173A15.754,15.754,0,0,1,761.617,1324.61Zm-1.408-1.755a1.414,1.414,0,0,0-.407.049.589.589,0,0,0-.419.293c-.16.263-.106.391-.046.464.41.586,2.668.621,4.336.43A9.8,9.8,0,0,0,760.209,1322.855Z" transform="translate(-758.855 -1320.322)" fill="#ff1d14"/>
            <path id="Trazado_631814" data-name="Trazado 631814" d="M765.336,1323.476a.125.125,0,0,1-.088-.009c-1.066-.484-3.2-2.445-3-3.451.024-.243.209-.536.794-.589a1.574,1.574,0,0,1,1.177.373c1.132.948,1.348,3.364,1.359,3.477a.21.21,0,0,1-.1.191A.2.2,0,0,1,765.336,1323.476Zm-2.156-3.645-.121-.012c-.382.029-.409.182-.425.236-.06.607,1.336,2.138,2.44,2.8a4.983,4.983,0,0,0-1.164-2.755,1.105,1.105,0,0,0-.73-.273Z" transform="translate(-759.867 -1319.419)" fill="#ff1d14"/>
          </g>
          <g id="Grupo_940806" data-name="Grupo 940806" opacity="0.7">
            <path id="Trazado_631815" data-name="Trazado 631815" d="M761.617,1324.61a3.818,3.818,0,0,1-2.626-.705.8.8,0,0,1,.025-.922,1.11,1.11,0,0,1,.673-.49c1.5-.4,4.605,1.415,4.742,1.5a.21.21,0,0,1,.1.222.225.225,0,0,1-.173.173A15.754,15.754,0,0,1,761.617,1324.61Zm-1.408-1.755a1.414,1.414,0,0,0-.407.049.589.589,0,0,0-.419.293c-.16.263-.106.391-.046.464.41.586,2.668.621,4.336.43A9.8,9.8,0,0,0,760.209,1322.855Z" transform="translate(-758.855 -1320.322)" fill="#fff"/>
            <path id="Trazado_631816" data-name="Trazado 631816" d="M765.336,1323.476a.125.125,0,0,1-.088-.009c-1.066-.484-3.2-2.445-3-3.451.024-.243.209-.536.794-.589a1.574,1.574,0,0,1,1.177.373c1.132.948,1.348,3.364,1.359,3.477a.21.21,0,0,1-.1.191A.2.2,0,0,1,765.336,1323.476Zm-2.156-3.645-.121-.012c-.382.029-.409.182-.425.236-.06.607,1.336,2.138,2.44,2.8a4.983,4.983,0,0,0-1.164-2.755,1.105,1.105,0,0,0-.73-.273Z" transform="translate(-759.867 -1319.419)" fill="#fff"/>
          </g>
        </g>
        <path id="Trazado_631817" data-name="Trazado 631817" d="M762.231,1323.435l9.773.089a.785.785,0,0,1,.762.622l1.695,7.966a1.308,1.308,0,0,1-1,1.559,1.366,1.366,0,0,1-.276.031c-3.522-.093-6.653-.316-11.039-.349-5.176-.046-3.868.586-9.954.617-3.667.015-4.3-4.158-2.744-4.35,7.123-.831,7.882-2.973,10.65-5.495A3.146,3.146,0,0,1,762.231,1323.435Z" transform="translate(-748.657 -1320.62)" fill="#ff1d14"/>
        <path id="Trazado_631818" data-name="Trazado 631818" d="M773.467,1336.541a1.309,1.309,0,0,0,1-1.559l-.192-.9c-1.025-.074-2.221-.175-3.631-.318-7.115-.719-10.852.36-15.739.431a13.614,13.614,0,0,1-6.109-1.169c-.516,1.167.472,3.829,3.4,3.817,6.086-.031,4.779-.663,9.954-.617,4.386.033,7.517.256,11.039.349A1.368,1.368,0,0,0,773.467,1336.541Z" transform="translate(-748.659 -1323.49)" fill="#fff" opacity="0.8"/>
        <path id="Trazado_631819" data-name="Trazado 631819" d="M778.722,1328.143a2.066,2.066,0,1,1-2.066-2.066A2.066,2.066,0,0,1,778.722,1328.143Z" transform="translate(-756.417 -1321.412)" fill="#fff"/>
      </g>
      <path id="Trazado_631820" data-name="Trazado 631820" d="M739.723,1305.4l1.037,13.742a1.55,1.55,0,0,1-.746,1.452,55.32,55.32,0,0,1-5,2.763,62.132,62.132,0,0,1-6.192,1.739,1.558,1.558,0,0,0-1.193,1.517h0a1.562,1.562,0,0,0,1.562,1.562h20.376a1.562,1.562,0,0,0,1.56-1.516l.608-20.88a1.562,1.562,0,0,0-1.482-1.606l-8.895-.45A1.562,1.562,0,0,0,739.723,1305.4Z" transform="translate(-727.629 -1303.72)" fill="#263238"/>
    </g>
    <g id="Grupo_940820" data-name="Grupo 940820" transform="translate(666.089 1255.765)">
      <g id="Grupo_940811" data-name="Grupo 940811" transform="translate(63.432 4.358)">
        <g id="Grupo_940810" data-name="Grupo 940810" transform="translate(0.479)">
          <path id="Trazado_631821" data-name="Trazado 631821" d="M820.643,1410.393l1.741-.094-3.165-59.351a7.217,7.217,0,0,0-7.208-6.832H795.37a7.218,7.218,0,0,0-7.208,6.832L785,1410.3l1.741.094.715-13.411h32.476Zm-33.1-15.154,2.357-44.2a5.474,5.474,0,0,1,5.467-5.184h16.64a5.474,5.474,0,0,1,5.467,5.184l2.357,44.2Z" transform="translate(-784.997 -1344.116)" fill="#263238"/>
          <path id="Trazado_631822" data-name="Trazado 631822" d="M820.643,1410.393l1.741-.094-3.165-59.351a7.217,7.217,0,0,0-7.208-6.832H795.37a7.218,7.218,0,0,0-7.208,6.832L785,1410.3l1.741.094.715-13.411h32.476Zm-33.1-15.154,2.357-44.2a5.474,5.474,0,0,1,5.467-5.184h16.64a5.474,5.474,0,0,1,5.467,5.184l2.357,44.2Z" transform="translate(-784.997 -1344.116)" fill="#fff" opacity="0.2"/>
        </g>
        <path id="Trazado_631823" data-name="Trazado 631823" d="M835.971,1436.824l1-.054a.809.809,0,0,0,.764-.851l-.43-8.062a.683.683,0,0,0-.682-.646h-1.25a.683.683,0,0,0-.682.719l.433,8.129A.81.81,0,0,0,835.971,1436.824Z" transform="translate(-799.386 -1368.981)" fill="#263238"/>
        <path id="Trazado_631824" data-name="Trazado 631824" d="M786.677,1427.211h-1.25a.683.683,0,0,0-.682.646l-.43,8.062a.809.809,0,0,0,.765.851l1,.054a.81.81,0,0,0,.852-.765l.433-8.129A.683.683,0,0,0,786.677,1427.211Z" transform="translate(-784.313 -1368.981)" fill="#263238"/>
      </g>
      <g id="Grupo_940817" data-name="Grupo 940817" transform="translate(0 0)">
        <g id="Grupo_940812" data-name="Grupo 940812" transform="translate(3.199 2.614)">
          <rect id="Rectángulo_338149" data-name="Rectángulo 338149" width="35.646" height="8.134" fill="#ff1d14"/>
          <rect id="Rectángulo_338150" data-name="Rectángulo 338150" width="35.646" height="8.134" fill="#fff" opacity="0.2"/>
        </g>
        <g id="Grupo_940813" data-name="Grupo 940813" transform="translate(38.846 2.614)">
          <rect id="Rectángulo_338151" data-name="Rectángulo 338151" width="61.666" height="8.134" fill="#ff1d14"/>
          <rect id="Rectángulo_338152" data-name="Rectángulo 338152" width="61.666" height="8.134" fill="#fff" opacity="0.4"/>
        </g>
        <g id="Grupo_940816" data-name="Grupo 940816">
          <g id="Grupo_940814" data-name="Grupo 940814">
            <rect id="Rectángulo_338153" data-name="Rectángulo 338153" width="35.152" height="4.357" fill="#ff1d14"/>
            <rect id="Rectángulo_338154" data-name="Rectángulo 338154" width="35.152" height="4.357" fill="#fff" opacity="0.5"/>
          </g>
          <g id="Grupo_940815" data-name="Grupo 940815" transform="translate(35.152)">
            <rect id="Rectángulo_338155" data-name="Rectángulo 338155" width="68.39" height="4.357" fill="#ff1d14"/>
            <rect id="Rectángulo_338156" data-name="Rectángulo 338156" width="68.39" height="4.357" fill="#fff" opacity="0.7"/>
          </g>
        </g>
      </g>
      <g id="Grupo_940819" data-name="Grupo 940819" transform="translate(1.766 4.358)">
        <g id="Grupo_940818" data-name="Grupo 940818" transform="translate(0.479)">
          <path id="Trazado_631825" data-name="Trazado 631825" d="M732.646,1410.393l1.741-.094-3.165-59.351a7.217,7.217,0,0,0-7.208-6.832h-16.64a7.217,7.217,0,0,0-7.208,6.832L697,1410.3l1.741.094.715-13.411h32.476Zm-33.1-15.154,2.357-44.2a5.474,5.474,0,0,1,5.467-5.184h16.64a5.474,5.474,0,0,1,5.468,5.184l2.357,44.2Z" transform="translate(-696.999 -1344.116)" fill="#263238"/>
          <path id="Trazado_631826" data-name="Trazado 631826" d="M732.646,1410.393l1.741-.094-3.165-59.351a7.217,7.217,0,0,0-7.208-6.832h-16.64a7.217,7.217,0,0,0-7.208,6.832L697,1410.3l1.741.094.715-13.411h32.476Zm-33.1-15.154,2.357-44.2a5.474,5.474,0,0,1,5.467-5.184h16.64a5.474,5.474,0,0,1,5.468,5.184l2.357,44.2Z" transform="translate(-696.999 -1344.116)" fill="#fff" opacity="0.2"/>
        </g>
        <path id="Trazado_631827" data-name="Trazado 631827" d="M747.973,1436.824l.995-.054a.809.809,0,0,0,.765-.851l-.43-8.062a.683.683,0,0,0-.682-.646h-1.25a.683.683,0,0,0-.682.719l.433,8.129A.809.809,0,0,0,747.973,1436.824Z" transform="translate(-711.388 -1368.981)" fill="#263238"/>
        <path id="Trazado_631828" data-name="Trazado 631828" d="M698.678,1427.211h-1.25a.683.683,0,0,0-.682.646l-.43,8.062a.809.809,0,0,0,.764.851l1,.054a.809.809,0,0,0,.851-.765l.434-8.129A.683.683,0,0,0,698.678,1427.211Z" transform="translate(-696.315 -1368.981)" fill="#263238"/>
      </g>
    </g>
    <g id="Grupo_940834" data-name="Grupo 940834" transform="translate(698.489 1268.675)">
      <path id="Trazado_631829" data-name="Trazado 631829" d="M742.765,1356.322c5.545.443,36.288,2.687,59.928.017a.679.679,0,0,1,.76.689,168.6,168.6,0,0,0,1.31,23.176.685.685,0,0,1-.606.776c-4.127.42-26.3,2.378-60.241-.023a.69.69,0,0,1-.642-.755c.244-2.339.809-10.43-1.241-23.078A.69.69,0,0,1,742.765,1356.322Z" transform="translate(-740.628 -1356.32)" fill="#ff1d14"/>
      <path id="Trazado_631830" data-name="Trazado 631830" d="M779.179,1363.106l4.7-2.942,1.658,3.979,6.491-1.116-1.834,3.951,6.539,1.009-4.834,2.864,4.834,2.864-6.539,1.009,1.834,3.951-6.491-1.116-1.658,3.98-4.7-2.942-4.7,2.942-1.658-3.98-6.491,1.116,1.834-3.951-6.539-1.009,4.834-2.864-4.834-2.864,6.539-1.009-1.834-3.951,6.491,1.116,1.658-3.979Z" transform="translate(-746.492 -1357.47)" fill="#f5f5f5"/>
      <g id="Grupo_940821" data-name="Grupo 940821" transform="translate(23.237 10.731)">
        <path id="Trazado_631831" data-name="Trazado 631831" d="M774.1,1376.767a2.735,2.735,0,0,1-.911-.428l.4-.893a2.724,2.724,0,0,0,.783.388,2.928,2.928,0,0,0,.908.146,1.446,1.446,0,0,0,.747-.15.452.452,0,0,0,.241-.4.386.386,0,0,0-.142-.3,1.1,1.1,0,0,0-.366-.193q-.224-.073-.6-.161a8.407,8.407,0,0,1-.959-.278,1.565,1.565,0,0,1-.64-.447,1.207,1.207,0,0,1-.267-.82,1.423,1.423,0,0,1,.242-.809,1.621,1.621,0,0,1,.728-.574,2.971,2.971,0,0,1,1.189-.213,3.92,3.92,0,0,1,.959.118,2.825,2.825,0,0,1,.819.336l-.366.9a2.858,2.858,0,0,0-1.42-.4,1.334,1.334,0,0,0-.735.161.49.49,0,0,0-.238.424.415.415,0,0,0,.275.392,4.364,4.364,0,0,0,.838.253,8.157,8.157,0,0,1,.959.277,1.585,1.585,0,0,1,.64.439,1.177,1.177,0,0,1,.268.812,1.4,1.4,0,0,1-.245.8,1.64,1.64,0,0,1-.736.575,3,3,0,0,1-1.193.212A4.176,4.176,0,0,1,774.1,1376.767Z" transform="translate(-773.191 -1371.633)" fill="#ff1d14"/>
        <path id="Trazado_631832" data-name="Trazado 631832" d="M783.514,1375.783h-2.378l-.454,1.1h-1.214l2.283-5.123h1.171l2.291,5.123h-1.245Zm-.374-.9-.812-1.961-.812,1.961Z" transform="translate(-775.069 -1371.671)" fill="#ff1d14"/>
        <path id="Trazado_631833" data-name="Trazado 631833" d="M788.427,1371.758h1.186v4.157h2.568v.966h-3.754Z" transform="translate(-777.75 -1371.671)" fill="#ff1d14"/>
        <path id="Trazado_631834" data-name="Trazado 631834" d="M798.7,1375.931v.951h-3.966v-5.123h3.871v.952h-2.693v1.113h2.378v.921h-2.378v1.187Z" transform="translate(-779.638 -1371.671)" fill="#ff1d14"/>
      </g>
      <g id="Grupo_940824" data-name="Grupo 940824" transform="translate(0 0.3)">
        <g id="Grupo_940822" data-name="Grupo 940822">
          <path id="Trazado_631835" data-name="Trazado 631835" d="M740.58,1357.846a2.134,2.134,0,0,1,2.369,0c.383.279.751-.359.372-.636a2.855,2.855,0,0,0-3.112,0,.368.368,0,0,0,.371.636Z" transform="translate(-740.032 -1356.748)" fill="#ff1d14"/>
        </g>
        <g id="Grupo_940823" data-name="Grupo 940823" opacity="0.5">
          <path id="Trazado_631836" data-name="Trazado 631836" d="M740.58,1357.846a2.134,2.134,0,0,1,2.369,0c.383.279.751-.359.372-.636a2.855,2.855,0,0,0-3.112,0,.368.368,0,0,0,.371.636Z" transform="translate(-740.032 -1356.748)" fill="#fff"/>
        </g>
      </g>
      <g id="Grupo_940827" data-name="Grupo 940827" transform="translate(60.888 0.3)">
        <g id="Grupo_940825" data-name="Grupo 940825">
          <path id="Trazado_631837" data-name="Trazado 631837" d="M827.467,1357.846a2.135,2.135,0,0,1,2.37,0c.383.279.75-.359.371-.636a2.856,2.856,0,0,0-3.113,0,.368.368,0,0,0,.372.636Z" transform="translate(-826.919 -1356.748)" fill="#ff1d14"/>
        </g>
        <g id="Grupo_940826" data-name="Grupo 940826" opacity="0.5">
          <path id="Trazado_631838" data-name="Trazado 631838" d="M827.467,1357.846a2.135,2.135,0,0,1,2.37,0c.383.279.75-.359.371-.636a2.856,2.856,0,0,0-3.113,0,.368.368,0,0,0,.372.636Z" transform="translate(-826.919 -1356.748)" fill="#fff"/>
        </g>
      </g>
      <g id="Grupo_940830" data-name="Grupo 940830" transform="translate(62.042 22.719)">
        <g id="Grupo_940828" data-name="Grupo 940828">
          <path id="Trazado_631839" data-name="Trazado 631839" d="M829.114,1389.837a2.136,2.136,0,0,1,2.369,0c.383.279.751-.359.371-.635a2.853,2.853,0,0,0-3.112,0,.368.368,0,0,0,.371.635Z" transform="translate(-828.566 -1388.74)" fill="#ff1d14"/>
        </g>
        <g id="Grupo_940829" data-name="Grupo 940829" opacity="0.5">
          <path id="Trazado_631840" data-name="Trazado 631840" d="M829.114,1389.837a2.136,2.136,0,0,1,2.369,0c.383.279.751-.359.371-.635a2.853,2.853,0,0,0-3.112,0,.368.368,0,0,0,.371.635Z" transform="translate(-828.566 -1388.74)" fill="#fff"/>
        </g>
      </g>
      <g id="Grupo_940833" data-name="Grupo 940833" transform="translate(1.26 22.921)">
        <g id="Grupo_940831" data-name="Grupo 940831">
          <path id="Trazado_631841" data-name="Trazado 631841" d="M742.378,1390.126a2.136,2.136,0,0,1,2.37,0c.383.279.751-.359.372-.636a2.857,2.857,0,0,0-3.113,0,.368.368,0,0,0,.372.636Z" transform="translate(-741.83 -1389.029)" fill="#ff1d14"/>
        </g>
        <g id="Grupo_940832" data-name="Grupo 940832" opacity="0.5">
          <path id="Trazado_631842" data-name="Trazado 631842" d="M742.378,1390.126a2.136,2.136,0,0,1,2.37,0c.383.279.751-.359.372-.636a2.857,2.857,0,0,0-3.113,0,.368.368,0,0,0,.372.636Z" transform="translate(-741.83 -1389.029)" fill="#fff"/>
        </g>
      </g>
    </g>
  </g>
</svg>
