<svg xmlns="http://www.w3.org/2000/svg" xmlns:xlink="http://www.w3.org/1999/xlink" width="190" height="134" viewBox="0 0 190 134">
  <defs>
    <clipPath id="clip-path">
      <rect id="Rectángulo_339855" data-name="Rectángulo 339855" width="190" height="134" fill="#fff" stroke="#707070" stroke-width="1"/>
    </clipPath>
  </defs>
  <g id="Enmascarar_grupo_91" data-name="Enmascarar grupo 91" clip-path="url(#clip-path)">
    <g id="hecho_1_" data-name="hecho(1)" transform="translate(50.082 11.958)">
      <g id="Grupo_953664" data-name="Grupo 953664" transform="translate(1.581 1.596)">
        <path id="Trazado_637227" data-name="Trazado 637227" d="M69.8,140.846H9.742A2.242,2.242,0,0,1,7.5,138.6V45.934a2.242,2.242,0,0,1,2.242-2.242H69.8a2.242,2.242,0,0,1,2.242,2.242V138.6A2.242,2.242,0,0,1,69.8,140.846Z" transform="translate(-7.5 -36.065)" fill="#e7e2e6"/>
        <path id="Trazado_637228" data-name="Trazado 637228" d="M115.993,104.669H55.932a2.242,2.242,0,0,1-2.242-2.242V9.757a2.242,2.242,0,0,1,2.242-2.242h60.061a2.242,2.242,0,0,1,2.242,2.242v92.67A2.242,2.242,0,0,1,115.993,104.669Z" transform="translate(-43.952 -7.515)" fill="#faf7f8"/>
        <path id="Trazado_637229" data-name="Trazado 637229" d="M331.768,7.515h-4.659a2.242,2.242,0,0,1,2.242,2.242v92.67a2.242,2.242,0,0,1-2.242,2.242h4.659a2.242,2.242,0,0,0,2.242-2.242V9.757a2.242,2.242,0,0,0-2.242-2.242Z" transform="translate(-259.727 -7.515)" fill="#f0eef0"/>
        <path id="Trazado_637230" data-name="Trazado 637230" d="M152.918,49.972H119.537a2.154,2.154,0,0,1-2.154-2.154V42.58a2.154,2.154,0,0,1,2.154-2.154h33.381a2.154,2.154,0,0,1,2.154,2.154v5.239A2.154,2.154,0,0,1,152.918,49.972Z" transform="translate(-94.217 -33.487)" fill="#ff3c00"/>
        <path id="Trazado_637231" data-name="Trazado 637231" d="M270.55,40.426h-4.11a2.154,2.154,0,0,1,2.154,2.154v5.239a2.154,2.154,0,0,1-2.154,2.154h4.11a2.154,2.154,0,0,0,2.154-2.154V42.58A2.154,2.154,0,0,0,270.55,40.426Z" transform="translate(-211.849 -33.487)" fill="#cc3000"/>
        <circle id="Elipse_7823" data-name="Elipse 7823" cx="25.087" cy="25.087" r="25.087" transform="translate(54.613 39.54)" fill="#ff3c00"/>
        <path id="Trazado_637232" data-name="Trazado 637232" d="M374.783,195.062a25.346,25.346,0,0,0-2.873.165,25.088,25.088,0,0,1,0,49.845,25.342,25.342,0,0,0,2.873.165,25.087,25.087,0,0,0,0-50.175Z" transform="translate(-295.083 -155.522)" fill="#cc3000"/>
        <g id="Grupo_953663" data-name="Grupo 953663" transform="translate(64.597 53.328)">
          <path id="Trazado_637233" data-name="Trazado 637233" d="M325.035,283.062a3.514,3.514,0,0,1-2.493-1.033l-7.608-7.608a3.526,3.526,0,1,1,4.987-4.987l5.114,5.114L338.086,261.5a3.526,3.526,0,1,1,4.987,4.987l-15.545,15.545A3.516,3.516,0,0,1,325.035,283.062Z" transform="translate(-313.9 -260.464)" fill="#faf7f8"/>
        </g>
      </g>
      <g id="Grupo_953665" data-name="Grupo 953665" transform="translate(0 0.015)">
        <path id="Trazado_637234" data-name="Trazado 637234" d="M147,45.634a3.739,3.739,0,0,0,3.735-3.735V36.66A3.739,3.739,0,0,0,147,32.925H113.618a3.739,3.739,0,0,0-3.735,3.735V41.9a3.739,3.739,0,0,0,3.735,3.735ZM113.045,41.9V36.66a.573.573,0,0,1,.573-.573H147a.573.573,0,0,1,.573.573V41.9a.573.573,0,0,1-.573.573H113.618A.573.573,0,0,1,113.045,41.9Z" transform="translate(-86.717 -25.987)"/>
        <path id="Trazado_637235" data-name="Trazado 637235" d="M90.364,190.724H136.95a1.581,1.581,0,0,0,0-3.162H90.364a1.581,1.581,0,0,0,0,3.162Z" transform="translate(-70.065 -148.022)"/>
        <path id="Trazado_637236" data-name="Trazado 637236" d="M90.364,154.877H136.95a1.581,1.581,0,1,0,0-3.162H90.364a1.581,1.581,0,1,0,0,3.162Z" transform="translate(-70.065 -119.733)"/>
        <path id="Trazado_637237" data-name="Trazado 637237" d="M88.783,117.448a1.581,1.581,0,0,0,1.581,1.581H136.95a1.581,1.581,0,0,0,0-3.162H90.364A1.581,1.581,0,0,0,88.783,117.448Z" transform="translate(-70.065 -91.442)"/>
        <path id="Trazado_637238" data-name="Trazado 637238" d="M334.659,252.965a5.075,5.075,0,0,0-3.612,1.5l-11.933,11.933-4-4a5.108,5.108,0,1,0-7.223,7.223l7.608,7.607a5.107,5.107,0,0,0,7.224,0l15.544-15.544a5.108,5.108,0,0,0-3.611-8.72Zm1.375,6.483-15.545,15.545a1.945,1.945,0,0,1-2.75,0l-7.608-7.608a1.945,1.945,0,1,1,2.751-2.75L318,269.749a1.582,1.582,0,0,0,2.236,0L333.283,256.7a1.945,1.945,0,1,1,2.751,2.75Z" transform="translate(-241.801 -199.636)"/>
        <path id="Trazado_637239" data-name="Trazado 637239" d="M102.9,50.6a1.581,1.581,0,0,0-2.562,1.854,23.521,23.521,0,1,1-3.9-4.2,1.581,1.581,0,1,0,2.04-2.417A26.7,26.7,0,0,0,77.445,39.83V3.838A3.827,3.827,0,0,0,73.622.015H13.561A3.827,3.827,0,0,0,9.738,3.838v3.8H3.823A3.827,3.827,0,0,0,0,11.465v7.59a1.581,1.581,0,0,0,3.162,0v-7.59a.662.662,0,0,1,.661-.661H9.738v85.7a3.827,3.827,0,0,0,3.823,3.823H35.4a1.581,1.581,0,1,0,0-3.162H13.561a.662.662,0,0,1-.661-.661V3.838a.661.661,0,0,1,.661-.661H73.622a.661.661,0,0,1,.661.661V40.486A26.676,26.676,0,0,0,62.7,47.112H20.3a1.581,1.581,0,1,0,0,3.162h39.62a26.711,26.711,0,0,0-2.672,4.4H20.3a1.581,1.581,0,0,0,0,3.162H55.965a26.467,26.467,0,0,0-1.053,4.4H20.3a1.581,1.581,0,0,0,0,3.162H54.626q-.013.415-.013.833a26.8,26.8,0,0,0,.237,3.562H20.3a1.581,1.581,0,0,0,0,3.162H55.471a26.468,26.468,0,0,0,1.572,4.4H20.3a1.581,1.581,0,0,0,0,3.162H58.768a26.874,26.874,0,0,0,3.495,4.4H20.3a1.581,1.581,0,1,0,0,3.162H65.992a26.568,26.568,0,0,0,8.291,3.9v4.548a.662.662,0,0,1-.661.661H41.513a1.581,1.581,0,1,0,0,3.162H64.545v3.8a.662.662,0,0,1-.661.661H3.823a.662.662,0,0,1-.661-.661V25.169a1.581,1.581,0,0,0-3.162,0v78.966a3.828,3.828,0,0,0,3.823,3.823H63.884a3.828,3.828,0,0,0,3.823-3.823v-3.8h5.915a3.827,3.827,0,0,0,3.823-3.823V92.617a26.682,26.682,0,0,0,30.5-26.393A26.475,26.475,0,0,0,102.9,50.6Z" transform="translate(0 -0.015)"/>
      </g>
    </g>
  </g>
</svg>
