<svg xmlns="http://www.w3.org/2000/svg" xmlns:xlink="http://www.w3.org/1999/xlink" width="190" height="134" viewBox="0 0 190 134">
  <defs>
    <clipPath id="clip-path">
      <rect id="Rectángulo_339922" data-name="Rectángulo 339922" width="190" height="134" fill="#fff" stroke="#707070" stroke-width="1"/>
    </clipPath>
  </defs>
  <g id="Enmascarar_grupo_93" data-name="Enmascarar grupo 93" clip-path="url(#clip-path)">
    <g id="honesto" transform="translate(36.755 11.958)">
      <path id="Trazado_637540" data-name="Trazado 637540" d="M22.582,111.179H88.535l8.827,8.827v44.938H30.868V126.26H13.541L7.5,120.22V74.332h8.724l6.357,6.357Zm0,0" transform="translate(-5.92 -58.675)" fill="#787680"/>
      <path id="Trazado_637541" data-name="Trazado 637541" d="M221.174,273.66a6.554,6.554,0,0,0-5.27,2.65,6.59,6.59,0,0,0-2.811-2.174l10.851-24.883H187.16l16.04,36.784h3.793a56.542,56.542,0,0,0,8.909,8.006s11.837-8.422,11.837-13.819a6.565,6.565,0,0,0-6.565-6.564Zm0,0" transform="translate(-147.736 -196.75)" fill="#57565c"/>
      <path id="Trazado_637542" data-name="Trazado 637542" d="M174.069,280.225a6.562,6.562,0,0,1,9.023-6.086l10.852-24.886H157.161l16.04,36.784h3.793c-1.681-2-2.925-4.063-2.925-5.812Zm0,0" transform="translate(-124.056 -196.75)" fill="#fff"/>
      <path id="Trazado_637543" data-name="Trazado 637543" d="M235.14,258.8l-2.569,17.217,1.19,2.728a6.562,6.562,0,0,1,8.5-4.742c.156-.053.315-.1.476-.142l2.2-5.043L243.442,258.8h.624v-9.551h-9.55V258.8Zm0,0" transform="translate(-183.581 -196.751)" fill="#d8d7da"/>
      <path id="Trazado_637544" data-name="Trazado 637544" d="M187.724,28.155v17.3l-12.969,12.97H159.383l-12.969-12.97v-17.3a20.655,20.655,0,0,1,41.31,0Zm0,0" transform="translate(-115.573 -5.92)" fill="#ffdaaa"/>
      <path id="Trazado_637545" data-name="Trazado 637545" d="M221.805,249.258h9.55v9.55h-9.55Zm0,0" transform="translate(-175.083 -196.754)" fill="#ff7956"/>
      <path id="Trazado_637546" data-name="Trazado 637546" d="M175.309,276.387l-11.83-27.129H157.16l16.04,36.784h3.793c-1.681-2-2.926-4.063-2.926-5.813A6.542,6.542,0,0,1,175.309,276.387Zm0,0" transform="translate(-124.055 -196.754)" fill="#d8d7da"/>
      <path id="Trazado_637547" data-name="Trazado 637547" d="M261.1,371.685a6.565,6.565,0,0,0-11.835-3.914,6.565,6.565,0,0,0-11.836,3.914c0,5.4,11.835,13.819,11.835,13.819S261.1,377.082,261.1,371.685Zm0,0" transform="translate(-187.417 -288.211)" fill="#ff7956"/>
      <path id="Trazado_637548" data-name="Trazado 637548" d="M217.807,316.014a6.559,6.559,0,0,1,7.87-6.432l-2.236-14.989h-8.3l-2.568,17.217,4.368,10.016h3.793C219.051,319.831,217.807,317.764,217.807,316.014Zm0,0" transform="translate(-167.794 -232.539)" fill="#ff7956"/>
      <path id="Trazado_637549" data-name="Trazado 637549" d="M393.436,7.5H367V24.675h9.435v3.664L382,24.675h11.441Zm0,0" transform="translate(-289.694 -5.92)" fill="#d7fc7e"/>
      <path id="Trazado_637550" data-name="Trazado 637550" d="M13.819,120.219V74.332H7.5v45.887l6.04,6.04H19.86Zm0,0" transform="translate(-5.92 -58.675)" fill="#57565c"/>
      <path id="Trazado_637551" data-name="Trazado 637551" d="M118.434,320.852v38.684h6.319V320.852Zm0,0" transform="translate(-93.487 -253.267)" fill="#57565c"/>
      <path id="Trazado_637552" data-name="Trazado 637552" d="M152.733,45.455v-17.3a20.66,20.66,0,0,1,17.5-20.414,20.672,20.672,0,0,0-23.815,20.414v17.3l12.97,12.97H165.7l-12.97-12.97Zm0,0" transform="translate(-115.573 -5.921)" fill="#ffbb85"/>
      <path id="Trazado_637553" data-name="Trazado 637553" d="M221.805,249.258h4.213v9.55h-4.213Zm0,0" transform="translate(-175.083 -196.754)" fill="#ff5023"/>
      <path id="Trazado_637554" data-name="Trazado 637554" d="M243.749,371.685a6.563,6.563,0,0,1,3.4-5.756,6.567,6.567,0,0,0-9.724,5.756c0,5.4,11.834,13.819,11.834,13.819s1.361-.968,3.16-2.459C248.918,380.14,243.749,375.252,243.749,371.685Zm0,0" transform="translate(-187.417 -288.211)" fill="#ff5023"/>
      <path id="Trazado_637555" data-name="Trazado 637555" d="M217.973,314.539l-1.19-2.728,2.568-17.217h-4.213l-2.568,17.217,4.368,10.017h3.793c-1.681-2-2.926-4.063-2.926-5.813A6.652,6.652,0,0,1,217.973,314.539Zm0,0" transform="translate(-167.794 -232.539)" fill="#ff5023"/>
      <path id="Trazado_637556" data-name="Trazado 637556" d="M367,7.5h6.319V24.675H367Zm0,0" transform="translate(-289.694 -5.92)" fill="#55e072"/>
      <path id="Trazado_637557" data-name="Trazado 637557" d="M63,50.925,73.731,40.189V22.234a22.235,22.235,0,0,0-44.47,0V40.189L40,50.925H18.241V21.36l-7.283-7.283H0V62.2l6.966,6.966h16.4v38.684H93.021V60.677l-9.753-9.753ZM32.421,38.88V22.234a19.075,19.075,0,0,1,38.15,0V38.88L58.528,50.925H44.466ZM54.692,60.474H48.3v-6.39h6.39Zm-9.55-6.39v9.55h.37L44.026,73.6,35.518,54.084Zm44.72,50.605H77.52V74.326H74.36v5.422a8.144,8.144,0,0,0-12.512-2.478,8.141,8.141,0,0,0-13.415,6.206c0,5.5,8.971,12.6,13.414,15.758,4.071-2.9,10.263-7.939,12.513-12.412V104.69H26.527V66.006H8.276L3.16,60.891V17.238H9.65l5.431,5.432V54.085H32.07l12.4,28.433,2.9-1.263-.959-2.2,2.3-15.421h5.58l1.39,9.317,3.125-.466-1.32-8.851h.37v-9.55h9.625L59.271,72.9l2.9,1.263,8.756-20.078H81.96l7.9,7.9ZM72.1,83.475c0,3.105-5.951,8.633-10.257,11.862-4.305-3.226-10.254-8.752-10.254-11.862a4.985,4.985,0,0,1,8.988-2.97l1.268,1.7,1.268-1.7a4.985,4.985,0,0,1,8.988,2.97Zm0,0" transform="translate(0 0)"/>
      <path id="Trazado_637558" data-name="Trazado 637558" d="M140.921,277.269h-5.832v-9.847h-3.16v13.006h5.832V291.6l7.339,7.339,2.235-2.234-6.414-6.413Zm0,0" transform="translate(-104.139 -211.091)"/>
      <path id="Trazado_637559" data-name="Trazado 637559" d="M320.158,277.269h-5.833v6.612h3.16v-3.453h5.833V267.422h-3.16Zm0,0" transform="translate(-248.114 -211.091)"/>
      <path id="Trazado_637560" data-name="Trazado 637560" d="M359.5,0V20.335h9.435v5.018l7.614-5.018H389.1V0Zm26.436,17.175H375.6l-3.507,2.311V17.175H362.66V3.16h23.276Zm0,0" transform="translate(-283.774 0)"/>
      <path id="Trazado_637561" data-name="Trazado 637561" d="M414.222,26.6l-2.273-2.194-4.61,4.779-1.776-2.232-2.473,1.967,4.02,5.053Zm0,0" transform="translate(-318.182 -19.268)"/>
      <g id="Grupo_954649" data-name="Grupo 954649" transform="translate(51.497 5.266)">
        <path id="Trazado_637562" data-name="Trazado 637562" d="M290.832,402.244l-2.027-2.425c.63-.526,1.238-1.056,1.805-1.577,3.692-3.378,4.271-4.972,4.277-4.988l2.988,1.024c-.239.7-1.22,2.715-5.133,6.3C292.141,401.125,291.5,401.687,290.832,402.244Zm0,0" transform="translate(-279.467 -315.684)" fill="#fff"/>
        <path id="Trazado_637563" data-name="Trazado 637563" d="M261.441,49.154h-3.16V41.968a13.769,13.769,0,0,0-5.084-10.7l2-2.445a16.917,16.917,0,0,1,6.244,13.141ZM251.656,30.18a13.779,13.779,0,0,0-2.551-1.221l1.063-2.975a16.952,16.952,0,0,1,3.137,1.5Zm-4.368-1.732a13.882,13.882,0,0,0-2.815-.288V25a17,17,0,0,1,3.458.355Zm0,0" transform="translate(-244.472 -25)" fill="#fff"/>
        <path id="Trazado_637564" data-name="Trazado 637564" d="M404.765,350.976h-3.16V327.4h3.16Zm0-25.684h-3.16v-3.16h3.16Zm0-5.266h-3.16v-3.16h3.16Zm0,0" transform="translate(-368.506 -255.387)" fill="#fff"/>
      </g>
    </g>
  </g>
</svg>
