<svg xmlns="http://www.w3.org/2000/svg" width="505" height="243.784" viewBox="0 0 505 243.784">
  <g id="Grupo_962223" data-name="Grupo 962223" transform="translate(-285 -909.001)">
    <path id="Rectángulo_340170" data-name="Rectángulo 340170" d="M5,0H500a5,5,0,0,1,5,5V184.694a0,0,0,0,1,0,0H0a0,0,0,0,1,0,0V5A5,5,0,0,1,5,0Z" transform="translate(285 968.091)" fill="#388af5"/>
    <g id="Grupo_959312" data-name="Grupo 959312" transform="translate(358.645 909.001)">
      <rect id="Rectángulo_298217" data-name="Rectángulo 298217" width="357.71" height="231.136" transform="translate(0)" fill="none"/>
      <g id="Grupo_949504" data-name="Grupo 949504" transform="translate(-345.536 -3529.62)">
        <ellipse id="Elipse_7728" data-name="Elipse 7728" cx="145.322" cy="83.904" rx="145.322" ry="83.904" transform="translate(381.247 3592.947)" fill="#e1eaf4"/>
        <g id="Grupo_949506" data-name="Grupo 949506" opacity="0.5" style="mix-blend-mode: multiply;isolation: isolate">
          <ellipse id="Elipse_7729" data-name="Elipse 7729" cx="27.487" cy="15.87" rx="27.487" ry="15.87" transform="translate(406.507 3664.21)" fill="#55b2e6"/>
        </g>
        <g id="Grupo_949507" data-name="Grupo 949507" opacity="0.5" style="mix-blend-mode: multiply;isolation: isolate">
          <path id="Trazado_631126" data-name="Trazado 631126" d="M535.884,3653.916c8.677,5.01,8.677,13.133,0,18.142s-22.746,5.01-31.423,0-8.677-13.132,0-18.142S527.207,3648.906,535.884,3653.916Z" fill="#55b2e6"/>
        </g>
        <path id="Trazado_631127" data-name="Trazado 631127" d="M412.083,3699.537l37.371,21.573,67.159-38.814-37.371-21.585Z" fill="#55b2e6" opacity="0.5" style="mix-blend-mode: multiply;isolation: isolate"/>
        <g id="Grupo_949559" data-name="Grupo 949559">
          <g id="Grupo_949516" data-name="Grupo 949516">
            <g id="Grupo_949508" data-name="Grupo 949508">
              <path id="Trazado_631128" data-name="Trazado 631128" d="M576.024,3655.5l65.172,37.628-92.873,53.622-65.172-37.628Z" fill="#fff"/>
              <path id="Trazado_631129" data-name="Trazado 631129" d="M502.309,3708.839l47.106,27.2-2.816,1.626-47.107-27.2Z" fill="#1d1d1b"/>
              <path id="Trazado_631130" data-name="Trazado 631130" d="M510.021,3704.386l47.107,27.2-1.733,1-47.106-27.2Z" fill="#1d1d1b"/>
              <path id="Trazado_631131" data-name="Trazado 631131" d="M514.679,3701.7l47.106,27.2-1.733,1-47.107-27.2Z" fill="#1d1d1b"/>
              <path id="Trazado_631132" data-name="Trazado 631132" d="M519.336,3699.008l47.106,27.2-1.733,1-47.107-27.2Z" fill="#1d1d1b"/>
              <path id="Trazado_631133" data-name="Trazado 631133" d="M528.651,3693.63l47.107,27.2-1.733,1-47.106-27.2Z" fill="#1d1d1b"/>
              <path id="Trazado_631134" data-name="Trazado 631134" d="M533.309,3690.941l47.106,27.2-1.733,1-47.106-27.2Z" fill="#1d1d1b"/>
              <path id="Trazado_631135" data-name="Trazado 631135" d="M567.036,3705.036l18.036,10.414-1.733,1L565.3,3706.037Z" fill="#1d1d1b"/>
              <path id="Trazado_631136" data-name="Trazado 631136" d="M542.624,3685.563l47.106,27.2-1.733,1-47.106-27.2Z" fill="#1d1d1b"/>
              <path id="Trazado_631137" data-name="Trazado 631137" d="M547.281,3682.874l47.106,27.2-1.733,1-47.107-27.2Z" fill="#1d1d1b"/>
              <path id="Trazado_631138" data-name="Trazado 631138" d="M562.972,3686.555l36.073,20.827-1.733,1-36.073-20.827Z" fill="#1d1d1b"/>
              <path id="Trazado_631139" data-name="Trazado 631139" d="M592.01,3687.186l21.007,12.129-1.733,1-21.007-12.129Z" fill="#1d1d1b"/>
              <path id="Trazado_631140" data-name="Trazado 631140" d="M596.668,3684.5l21.007,12.129-1.733,1L594.935,3685.5Z" fill="#1d1d1b"/>
            </g>
            <path id="Trazado_631141" data-name="Trazado 631141" d="M663.435,3619.842c-.15-4.883-4.956-10.579-10.734-12.721-2.858-1.06-5.416-1.049-7.256-.179a5.219,5.219,0,0,0-.513.285c-.08.048-.163.092-.239.144l-3.31,2-.084-.085-3.278,2.121-17.205,10.416a5.57,5.57,0,0,1,1.321-.434,5.561,5.561,0,0,0-1.32.434,4.36,4.36,0,0,0-1.673,1.4l-4.056,2.257a1.455,1.455,0,0,0-.647.985,44.408,44.408,0,0,0-10.157,1.74s-22.985,6.679-23.038,6.682c-2.24.175-4.108,1.453-4.614,3.094l-.387,1.256-1.965,4.227-.079.174a2.578,2.578,0,0,0,.178,2.558l.225.343a1.846,1.846,0,0,0,.715,2.127c-.465,1.412.22,2.554,1.648,3.522l6.213,4.007a5.528,5.528,0,0,0,3.035.811l1.2-.014,2.426.18a12.007,12.007,0,0,1-1.86,2.51c-3.6.173-6.258.967-6.723,2.156a1.37,1.37,0,0,0-.446.673l-.732,2.889c-.44,1.8,4.38,3.778,10.766,4.419,6.251.627,11.671-.262,12.311-1.987.013,0,.032-.074.032-.074l.748-2.926a1.327,1.327,0,0,0-.471-1.222c-.273-.778-1.4-1.553-3.115-2.21a7.521,7.521,0,0,0,1.84-.52,18.074,18.074,0,0,0,4.554-2.918c4.5-3.744,5.438-5.1,5.438-5.1l5.334-4.673,4.377-3.834c1.943-1.767,2.255-3.972,2.743-5.37a5.948,5.948,0,0,0,4.2.084l1.877-.973a6.456,6.456,0,0,0,3.5-.634l25.435-12.163a5.724,5.724,0,0,0,1.661-.794A5.26,5.26,0,0,0,663.435,3619.842Z" fill="#55b2e6" opacity="0.5" style="mix-blend-mode: multiply;isolation: isolate"/>
            <g id="Grupo_949513" data-name="Grupo 949513">
              <path id="Trazado_631142" data-name="Trazado 631142" d="M587.9,3681.049c-5.038,2.91-13.237,2.91-18.276,0s-5.038-7.642,0-10.551,13.238-2.91,18.276,0S592.942,3678.14,587.9,3681.049Zm-17.66-10.2c-4.7,2.713-4.7,7.128,0,9.841s12.345,2.713,17.044,0,4.7-7.128,0-9.841S574.942,3668.14,570.243,3670.853Z" fill="#1d71b8"/>
              <path id="Trazado_631143" data-name="Trazado 631143" d="M586.568,3680.279a17.273,17.273,0,0,1-15.606,0c-4.3-2.484-4.3-6.527,0-9.011a17.272,17.272,0,0,1,15.606,0C590.871,3673.752,590.871,3677.795,586.568,3680.279Zm-15.2-8.774c-4.076,2.354-4.076,6.183,0,8.537a16.366,16.366,0,0,0,14.785,0c4.076-2.354,4.076-6.183,0-8.537A16.367,16.367,0,0,0,571.373,3671.5Z" fill="#1d71b8"/>
              <path id="Trazado_631144" data-name="Trazado 631144" d="M583.413,3678.457a10.291,10.291,0,0,1-9.3,0c-2.563-1.48-2.563-3.887,0-5.367a10.291,10.291,0,0,1,9.3,0C585.976,3674.57,585.976,3676.977,583.413,3678.457Zm-8.884-5.13c-2.337,1.349-2.337,3.544,0,4.893a9.383,9.383,0,0,0,8.474,0c2.336-1.349,2.336-3.544,0-4.893A9.376,9.376,0,0,0,574.529,3673.327Z" fill="#1d71b8"/>
              <g id="Grupo_949509" data-name="Grupo 949509">
                <path id="Trazado_631145" data-name="Trazado 631145" d="M575.314,3671.973a.166.166,0,0,1-.084.006.483.483,0,0,1-.09-.022l-1.583-.55.885.825c-.172.061-1.26-.953-1.26-.953.076-.079.11-.082.146-.075a.609.609,0,0,1,.108.028l1.548.543-.887-.825c.171-.061,1.26.954,1.26.954C575.35,3671.956,575.335,3671.966,575.314,3671.973Z" fill="#1d71b8"/>
                <path id="Trazado_631146" data-name="Trazado 631146" d="M576.28,3671.752a1.441,1.441,0,0,1-.246.029.92.92,0,0,1-.227-.022.593.593,0,0,1-.194-.084.468.468,0,0,1-.147-.155l-.316-.511a.316.316,0,0,1-.056-.173.213.213,0,0,1,.059-.134.447.447,0,0,1,.151-.1,1.19,1.19,0,0,1,.224-.066,1.343,1.343,0,0,1,.245-.03.806.806,0,0,1,.228.023.582.582,0,0,1,.192.082.514.514,0,0,1,.147.154l.316.512a.3.3,0,0,1,.055.173.2.2,0,0,1-.058.135.424.424,0,0,1-.151.1A1.232,1.232,0,0,1,576.28,3671.752Zm-.129-.95a.373.373,0,0,0-.225-.168.746.746,0,0,0-.337,0,.455.455,0,0,0-.261.122.175.175,0,0,0,.01.213l.316.511a.366.366,0,0,0,.226.17.731.731,0,0,0,.337,0,.458.458,0,0,0,.262-.123c.046-.055.042-.127-.012-.214Z" fill="#1d71b8"/>
                <path id="Trazado_631147" data-name="Trazado 631147" d="M577.884,3670.225c.028.107-.472.152-.472.152l.3,1.115c-.2.017-.5-1.1-.5-1.1l-.5.045C576.68,3670.332,577.884,3670.225,577.884,3670.225Z" fill="#1d71b8"/>
                <path id="Trazado_631148" data-name="Trazado 631148" d="M578.251,3671.487a.254.254,0,0,1-.077-.013,12.182,12.182,0,0,1,.636-1.233c.148-.039.173-.036.194-.029.045.031.641,1.227.641,1.227-.064.057-.09.061-.12.06a.079.079,0,0,1-.074-.03l-.131-.271-.842-.008-.148.268C578.285,3671.486,578.269,3671.488,578.251,3671.487Zm1.019-.389-.346-.711-.391.7Z" fill="#1d71b8"/>
                <path id="Trazado_631149" data-name="Trazado 631149" d="M580.265,3670.31c.01-.025.039-.036.09-.032l.526.067a1.6,1.6,0,0,1,.239.048.59.59,0,0,1,.181.082.259.259,0,0,1,.1.122.245.245,0,0,1-.01.167.357.357,0,0,1-.088.134.491.491,0,0,1-.136.085.624.624,0,0,1-.171.043,1.21,1.21,0,0,1-.2.009l.264.566c-.076.068-.105.071-.133.068a4.72,4.72,0,0,1-.34-.646l-.377-.048-.2.525C579.818,3671.475,580.265,3670.31,580.265,3670.31Zm.171.088-.183.48.4.051a.888.888,0,0,0,.343-.014.273.273,0,0,0,.194-.17.151.151,0,0,0-.051-.2.7.7,0,0,0-.3-.1Z" fill="#1d71b8"/>
                <path id="Trazado_631150" data-name="Trazado 631150" d="M582.02,3671.387c.006-.014-.078-.8-.078-.8.095-.059.121-.057.142-.051a4.81,4.81,0,0,1,.11.766l.963-.453a.137.137,0,0,1,.1-.013c.031.1-1.036.584-1.036.584-.015.011-.329.419-.329.419C581.706,3671.793,582.02,3671.387,582.02,3671.387Z" fill="#1d71b8"/>
                <path id="Trazado_631151" data-name="Trazado 631151" d="M584.408,3671.3a.114.114,0,0,1,.113,0l.432.2a.769.769,0,0,1,.167.106.252.252,0,0,1,.084.122.189.189,0,0,1-.024.138.534.534,0,0,1-.153.151.818.818,0,0,1-.476.17.851.851,0,0,1-.226-.024,1.087,1.087,0,0,1-.215-.075l-.339-.161-.519.367C583.1,3672.227,584.408,3671.3,584.408,3671.3Zm.084.124-.611.429.339.161a.653.653,0,0,0,.318.065.6.6,0,0,0,.31-.115c.122-.086.168-.152.156-.214s-.069-.116-.173-.166Z" fill="#1d71b8"/>
                <path id="Trazado_631152" data-name="Trazado 631152" d="M586.531,3672.539c.125.091-1.061.636-1.061.636a1.117,1.117,0,0,1-.268.086.958.958,0,0,1-.243.01.808.808,0,0,1-.213-.051.786.786,0,0,1-.182-.1.6.6,0,0,1-.13-.126.2.2,0,0,1-.037-.132.218.218,0,0,1,.073-.133.673.673,0,0,1,.206-.13l1.186-.545c.124.09-1.061.635-1.061.635-.123.056-.192.116-.2.178s.025.124.111.186a.552.552,0,0,0,.29.1.7.7,0,0,0,.346-.074Z" fill="#1d71b8"/>
                <path id="Trazado_631153" data-name="Trazado 631153" d="M587.046,3672.994c.11.028.333.284.333.284a.644.644,0,0,1,.09.129.175.175,0,0,1,.02.122.189.189,0,0,1-.08.11.724.724,0,0,1-.212.093,1.1,1.1,0,0,1-.318.047.627.627,0,0,1-.246-.05.178.178,0,0,1-.005.083.171.171,0,0,1-.048.078.364.364,0,0,1-.1.072,1,1,0,0,1-.17.064,1.4,1.4,0,0,1-.331.066.834.834,0,0,1-.23-.016.586.586,0,0,1-.18-.07.6.6,0,0,1-.136-.113l-.257-.3C585.2,3673.531,587.046,3672.994,587.046,3672.994Zm-1.462.838a.414.414,0,0,0,.236.133.737.737,0,0,0,.356-.031c.188-.054.27-.1.294-.158a.171.171,0,0,0-.053-.186l-.2-.228-.832.243Zm.789-.514.179.2a.411.411,0,0,0,.218.138.643.643,0,0,0,.318-.027.46.46,0,0,0,.139-.061.142.142,0,0,0,.057-.074.112.112,0,0,0-.009-.083.47.47,0,0,0-.064-.093l-.174-.2Z" fill="#1d71b8"/>
                <path id="Trazado_631154" data-name="Trazado 631154" d="M585.795,3674.392c.052-.063,2.041-.39,2.041-.39a9.79,9.79,0,0,1-1.832.422l.238.48C586.062,3674.933,585.795,3674.392,585.795,3674.392Z" fill="#1d71b8"/>
                <path id="Trazado_631155" data-name="Trazado 631155" d="M588.208,3674.891a11.884,11.884,0,0,1-2.016.293A11.884,11.884,0,0,1,588.208,3674.891Z" fill="#1d71b8"/>
                <path id="Trazado_631156" data-name="Trazado 631156" d="M587.853,3675.993c.032,0,.07-.006.113-.012a.361.361,0,0,0,.119-.035.266.266,0,0,0,.094-.075.19.19,0,0,0,.038-.126.211.211,0,0,0-.116-.187.737.737,0,0,0-.351-.063l-.941.006a.728.728,0,0,0-.351.067.206.206,0,0,0-.109.195.193.193,0,0,0,.04.125.246.246,0,0,0,.1.068.5.5,0,0,0,.122.032l.12.012c.052,0,.079.022.079.057a.128.128,0,0,1-.122.059.788.788,0,0,1-.2-.024.541.541,0,0,1-.165-.071.358.358,0,0,1-.114-.115.288.288,0,0,1-.044-.154.3.3,0,0,1,.031-.141.311.311,0,0,1,.111-.116.634.634,0,0,1,.2-.079,1.3,1.3,0,0,1,.3-.031l.941-.005a1.257,1.257,0,0,1,.3.028.648.648,0,0,1,.2.078.307.307,0,0,1,.114.116.272.272,0,0,1,.038.142.275.275,0,0,1-.038.154.361.361,0,0,1-.108.113.55.55,0,0,1-.161.071.745.745,0,0,1-.193.026.233.233,0,0,1-.1-.013C587.812,3676,587.832,3675.994,587.853,3675.993Z" fill="#1d71b8"/>
              </g>
              <g id="Grupo_949510" data-name="Grupo 949510">
                <path id="Trazado_631157" data-name="Trazado 631157" d="M582.629,3679.438a.176.176,0,0,1,.081-.008.616.616,0,0,1,.092.019l1.6.512-.937-.81c.164-.066,1.314.929,1.314.929-.069.082-.1.085-.137.08a.618.618,0,0,1-.109-.025l-1.567-.506.937.812c-.161.067-1.314-.931-1.314-.931C582.594,3679.458,582.61,3679.447,582.629,3679.438Z" fill="#1d71b8"/>
                <path id="Trazado_631158" data-name="Trazado 631158" d="M581.706,3679.691a1.229,1.229,0,0,1,.238-.037.734.734,0,0,1,.221.016.554.554,0,0,1,.192.079.507.507,0,0,1,.152.154l.334.516a.337.337,0,0,1,.064.175.22.22,0,0,1-.051.139.392.392,0,0,1-.142.107,1.021,1.021,0,0,1-.213.075,1.278,1.278,0,0,1-.239.038.811.811,0,0,1-.222-.016.584.584,0,0,1-.192-.08.488.488,0,0,1-.151-.153l-.334-.515a.326.326,0,0,1-.063-.176.21.21,0,0,1,.049-.14.421.421,0,0,1,.142-.107A1.039,1.039,0,0,1,581.706,3679.691Zm.173.968a.368.368,0,0,0,.227.165.671.671,0,0,0,.329-.009.427.427,0,0,0,.248-.134.182.182,0,0,0-.02-.216l-.336-.516a.368.368,0,0,0-.228-.167.671.671,0,0,0-.328.01.412.412,0,0,0-.247.133c-.044.058-.037.131.02.218Z" fill="#1d71b8"/>
                <path id="Trazado_631159" data-name="Trazado 631159" d="M580.2,3681.317c-.03-.109.454-.174.454-.174l-.329-1.137c.192-.025.521,1.113.521,1.113l.485-.064C581.363,3681.165,580.2,3681.317,580.2,3681.317Z" fill="#1d71b8"/>
                <path id="Trazado_631160" data-name="Trazado 631160" d="M579.79,3680.029c.109.06-.511,1.311-.511,1.311-.233.007-.839-1.2-.839-1.2.061-.06.088-.066.116-.067a.075.075,0,0,1,.073.029l.135.274.813-.027.137-.283C579.756,3680.033,579.772,3680.029,579.79,3680.029Zm-.978.446.353.718.361-.742Z" fill="#1d71b8"/>
                <path id="Trazado_631161" data-name="Trazado 631161" d="M577.865,3681.33c-.01.027-.038.039-.086.038l-.511-.04a1.3,1.3,0,0,1-.233-.037.518.518,0,0,1-.179-.074.25.25,0,0,1-.1-.12.259.259,0,0,1,.006-.173.38.38,0,0,1,.084-.142.437.437,0,0,1,.128-.1.662.662,0,0,1,.164-.054,1.3,1.3,0,0,1,.189-.02l-.266-.568c.072-.074.1-.079.126-.076a4.683,4.683,0,0,1,.346.645l.365.029.184-.553C578.274,3680.106,577.865,3681.33,577.865,3681.33Zm-.168-.081.168-.5-.392-.031a.8.8,0,0,0-.334.034.287.287,0,0,0-.184.186.156.156,0,0,0,.057.2.607.607,0,0,0,.293.081Z" fill="#1d71b8"/>
                <path id="Trazado_631162" data-name="Trazado 631162" d="M576.131,3680.328c-.006.014.1.81.1.81-.186.014-.267-.714-.267-.714l-.926.53a.14.14,0,0,1-.095.021c-.034-.1.992-.67.992-.67s.307-.45.307-.45C576.425,3679.89,576.131,3680.328,576.131,3680.328Z" fill="#1d71b8"/>
                <path id="Trazado_631163" data-name="Trazado 631163" d="M573.771,3680.583a.113.113,0,0,1-.111.011l-.437-.17a.675.675,0,0,1-.171-.092.25.25,0,0,1-.089-.116.2.2,0,0,1,.017-.141.539.539,0,0,1,.144-.165.876.876,0,0,1,.238-.151.826.826,0,0,1,.45-.056,1.039,1.039,0,0,1,.216.058l.341.133.5-.413C575.022,3679.542,573.771,3680.583,573.771,3680.583Zm-.09-.117.585-.485-.343-.132a.612.612,0,0,0-.318-.04.6.6,0,0,0-.3.142c-.118.1-.16.168-.146.229s.074.111.181.153Z" fill="#1d71b8"/>
                <path id="Trazado_631164" data-name="Trazado 631164" d="M571.636,3679.578c-.132-.078,1-.738,1-.738a1.1,1.1,0,0,1,.259-.112.942.942,0,0,1,.24-.035.824.824,0,0,1,.219.03.79.79,0,0,1,.19.08.515.515,0,0,1,.14.112.187.187,0,0,1,.052.128.212.212,0,0,1-.06.138.752.752,0,0,1-.193.152l-1.135.659c-.132-.077,1-.737,1-.737.117-.068.179-.135.185-.2s-.037-.12-.128-.173a.554.554,0,0,0-.3-.075.731.731,0,0,0-.34.109Z" fill="#1d71b8"/>
                <path id="Trazado_631165" data-name="Trazado 631165" d="M571.041,3679.172a1.308,1.308,0,0,1-.375-.241.7.7,0,0,1-.108-.116.17.17,0,0,1-.037-.117.187.187,0,0,1,.068-.116.637.637,0,0,1,.2-.115,1.089,1.089,0,0,1,.313-.08.636.636,0,0,1,.255.021.18.18,0,0,1-.006-.083.212.212,0,0,1,.037-.081.436.436,0,0,1,.094-.08.886.886,0,0,1,.162-.082,1.5,1.5,0,0,1,.327-.1.85.85,0,0,1,.233-.009.6.6,0,0,1,.191.049.532.532,0,0,1,.153.1l.3.258C572.827,3678.442,571.041,3679.172,571.041,3679.172Zm.634-.39-.209-.181a.432.432,0,0,0-.237-.112.672.672,0,0,0-.318.062.452.452,0,0,0-.131.076.126.126,0,0,0-.048.078.1.1,0,0,0,.022.08.415.415,0,0,0,.075.084l.2.175Zm.725-.591a.439.439,0,0,0-.256-.1.777.777,0,0,0-.355.07c-.18.074-.256.13-.275.187s.01.116.081.176l.229.2.807-.328Z" fill="#1d71b8"/>
                <path id="Trazado_631166" data-name="Trazado 631166" d="M572.1,3677.667c-.041.068-2,.615-2,.615a9.989,9.989,0,0,1,1.783-.621l-.328-.437C571.728,3677.175,572.1,3677.667,572.1,3677.667Z" fill="#1d71b8"/>
                <path id="Trazado_631167" data-name="Trazado 631167" d="M569.56,3677.476a12.136,12.136,0,0,1,1.988-.52A12.108,12.108,0,0,1,569.56,3677.476Z" fill="#1d71b8"/>
                <path id="Trazado_631168" data-name="Trazado 631168" d="M569.674,3676.388c-.032,0-.07.013-.112.023a.426.426,0,0,0-.112.049.248.248,0,0,0-.079.082.163.163,0,0,0-.008.125.238.238,0,0,0,.161.165.815.815,0,0,0,.37.019l.958-.118a.717.717,0,0,0,.341-.106.179.179,0,0,0,.067-.2.2.2,0,0,0-.072-.114.292.292,0,0,0-.11-.054.528.528,0,0,0-.133-.016c-.046,0-.088,0-.125,0-.054,0-.086-.012-.1-.046a.121.121,0,0,1,.111-.071.9.9,0,0,1,.206,0,.712.712,0,0,1,.185.049.44.44,0,0,1,.144.1.315.315,0,0,1,.08.142.249.249,0,0,1,0,.138.254.254,0,0,1-.085.125.633.633,0,0,1-.185.1,1.372,1.372,0,0,1-.3.066l-.956.117a1.4,1.4,0,0,1-.313.009.776.776,0,0,1-.224-.051.378.378,0,0,1-.142-.1.3.3,0,0,1-.071-.132.249.249,0,0,1,0-.151.287.287,0,0,1,.085-.121.518.518,0,0,1,.145-.087.763.763,0,0,1,.193-.048.263.263,0,0,1,.1,0C569.715,3676.377,569.7,3676.384,569.674,3676.388Z" fill="#1d71b8"/>
              </g>
              <path id="Trazado_631169" data-name="Trazado 631169" d="M582.591,3677.982a8.466,8.466,0,0,1-7.652,0c-2.109-1.217-2.109-3.2,0-4.417a8.468,8.468,0,0,1,7.653,0C584.7,3674.782,584.7,3676.764,582.591,3677.982Zm-7.241-4.18c-1.883,1.087-1.883,2.856,0,3.943a7.557,7.557,0,0,0,6.831,0c1.883-1.087,1.883-2.856,0-3.944A7.56,7.56,0,0,0,575.35,3673.8Z" fill="#1d71b8"/>
              <g id="Grupo_949511" data-name="Grupo 949511">
                <path id="Trazado_631170" data-name="Trazado 631170" d="M572.449,3673.5a.2.2,0,0,1,.087.028.081.081,0,0,1,.05.082.112.112,0,0,1-.059.079.288.288,0,0,1-.14.025l-.9-.1.178.523c.009.028,0,.052-.037.072a.394.394,0,0,1-.132.038.229.229,0,0,1-.152-.025.093.093,0,0,1-.048-.06l-.124-.515-.791.247a.192.192,0,0,1-.106.01.244.244,0,0,1-.091-.03.1.1,0,0,1-.059-.076c-.005-.03.013-.057.054-.082s.853-.244.853-.244l-.647-.345c-.037-.026-.055-.051-.049-.076a.109.109,0,0,1,.059-.068.277.277,0,0,1,.118-.034.265.265,0,0,1,.131.028l.6.377.389-.473a.234.234,0,0,1,.169-.052.319.319,0,0,1,.133.038c.061.035.07.072.029.111l-.427.445Z" fill="#1d71b8"/>
              </g>
              <g id="Grupo_949512" data-name="Grupo 949512">
                <path id="Trazado_631171" data-name="Trazado 631171" d="M587.389,3678.038a.2.2,0,0,1,.086.028c.038.022.056.049.051.081a.114.114,0,0,1-.06.08.308.308,0,0,1-.139.024l-.9-.1.177.523c.01.028,0,.053-.036.073a.429.429,0,0,1-.132.037.238.238,0,0,1-.153-.024.1.1,0,0,1-.048-.061l-.123-.515-.792.247a.2.2,0,0,1-.1.011.251.251,0,0,1-.091-.031.1.1,0,0,1-.06-.076c-.005-.03.014-.057.055-.082s.853-.243.853-.243l-.647-.346c-.039-.025-.056-.051-.049-.076a.107.107,0,0,1,.059-.068.269.269,0,0,1,.118-.034.263.263,0,0,1,.131.028l.6.378.389-.474a.234.234,0,0,1,.169-.051.313.313,0,0,1,.133.038c.06.035.069.072.028.11l-.426.445Z" fill="#1d71b8"/>
              </g>
            </g>
            <g id="Grupo_949515" data-name="Grupo 949515">
              <path id="Trazado_631172" data-name="Trazado 631172" d="M626.989,3623.179c0-5.929-4.163-13.139-9.3-16.1-2.554-1.474-4.867-1.62-6.547-.665-1.7.965-2.751,3.053-2.751,6.033,0,5.93,4.163,13.14,9.3,16.1,2.657,1.534,5.051,1.628,6.745.544C626.017,3628.079,626.989,3626.041,626.989,3623.179Z" fill="#575756"/>
              <path id="Trazado_631173" data-name="Trazado 631173" d="M618.853,3630.931c-3.77,1.62-7.484-2.653-9.961-6.361-2.273-5.2-6.158-11.548-3.76-13.507,2.722-1.939,10.034.1,14.966,2.057C620.905,3619.559,623.714,3627.8,618.853,3630.931Z" fill="#dadada"/>
              <path id="Trazado_631174" data-name="Trazado 631174" d="M647.566,3612.534l-24.052,11.9-7.814,4.3c-1.745.433-1.077,5.559-4.164,9.028l-4.626,5-1.638-.426-9.979-2.586c.022-.088.045-.175.065-.263a7.628,7.628,0,0,0,.155-.809c-1.735-2.794-7.992-1.983-13.938-1.419l-.919,2.5a4.945,4.945,0,0,1,4.675,2.754l-1.15,1.986-4.6,7.961-.521.9-3.407-.584-1.234-.068a4.862,4.862,0,0,1-3.1-1.346l-6.267-6.014a4.938,4.938,0,0,1-1.585-5.007,3.174,3.174,0,0,1-.668-3l-.221-.493a4.7,4.7,0,0,1-.1-3.563l.087-.235,2.156-5.723.438-1.715a5.227,5.227,0,0,1,4.847-3.958c.055,0,23.923-7.6,23.923-7.6a33.528,33.528,0,0,1,10.85-1.667l27.846-21.889Z" fill="#fcaf75"/>
              <path id="Trazado_631175" data-name="Trazado 631175" d="M595.36,3639.488a8.162,8.162,0,0,0,.153-.809c-1.735-2.794-7.992-1.983-13.938-1.419l-.919,2.5a4.945,4.945,0,0,1,4.675,2.754l-1.15,1.986-6.472-2.2c1.976-2.541,2.529-5.828,3.24-9.549,5.215,1.838,10.806,2.6,15.085.438A11.815,11.815,0,0,1,595.36,3639.488Z" fill="#fcaf75" opacity="0.5" style="mix-blend-mode: multiply;isolation: isolate"/>
              <path id="Trazado_631176" data-name="Trazado 631176" d="M579.9,3647.274l-.326,5.19-.521.9-3.407-.584-1.234-.068a4.862,4.862,0,0,1-3.1-1.346l-6.267-6.014a4.938,4.938,0,0,1-1.585-5.007,3.174,3.174,0,0,1-.668-3l-.221-.493a4.7,4.7,0,0,1-.1-3.563l.087-.235.569,1.455,2.671-6.427-2.086,8.1.834,1.667A64.988,64.988,0,0,0,568,3626.119c.433-1.693,1.735-2.361,3.222-2.817a4.328,4.328,0,0,0-2.266,3.42A51.578,51.578,0,0,1,565.506,3639a4.661,4.661,0,0,0,.887,5.041c1.474,1.541,3.625,2.5,4.98.922a4.129,4.129,0,0,1-.689-4.57,25.7,25.7,0,0,0,3.13-10.452c.438-3.443,2.221-3.994,4.569-4.006-2.146.678-3.443,1.5-3.943,4.006a24.2,24.2,0,0,1-2.543,10.783,3.318,3.318,0,0,0,1.122,4.281A9.412,9.412,0,0,0,579.9,3647.274Z" fill="#fcaf75" opacity="0.5" style="mix-blend-mode: multiply;isolation: isolate"/>
              <g id="Grupo_949514" data-name="Grupo 949514">
                <path id="Trazado_631177" data-name="Trazado 631177" d="M591.56,3668.822c-.51,2.465-6.235,3.366-12.786,2.011s-11.451-4.451-10.941-6.916,6.234-3.366,12.786-2.012S592.069,3666.356,591.56,3668.822Z" fill="#1d1d1b"/>
                <path id="Trazado_631178" data-name="Trazado 631178" d="M592.4,3664.865l-23.727-4.905-.845,3.957,23.687,5.058Z" fill="#1d1d1b"/>
                <path id="Trazado_631179" data-name="Trazado 631179" d="M592.405,3664.865c-.51,2.466-6.234,3.366-12.786,2.012s-11.45-4.451-10.941-6.917,6.235-3.366,12.786-2.011S592.914,3662.4,592.405,3664.865Z" fill="#292928"/>
                <path id="Trazado_631180" data-name="Trazado 631180" d="M591.987,3663.972c-.509,2.466-6.047,3.405-12.368,2.1s-11.033-4.365-10.523-6.83,6.047-3.405,12.368-2.1S592.5,3661.507,591.987,3663.972Z" fill="#3c3c3b"/>
                <path id="Trazado_631181" data-name="Trazado 631181" d="M588.08,3663c-.364,1.678-3.971,2.319-8.055,1.433s-7.1-2.964-6.737-4.641,3.97-2.32,8.054-1.433S588.444,3661.32,588.08,3663Z" fill="#1d1d1b"/>
                <path id="Trazado_631182" data-name="Trazado 631182" d="M587.026,3650.365l-7.33-1.921c-1,4.28-2.56,7.837-6.007,10.633l14.139,2.73C586.123,3658.316,586,3654.975,587.026,3650.365Z" fill="#1d1d1b"/>
                <path id="Trazado_631183" data-name="Trazado 631183" d="M590.843,3647.744c-.473,2.288-3.318,3.581-7.69,2.73-3.783-.736-6.384-2.914-5.978-5.556.431-2.8,3.906-3.458,7.691-2.73C589.023,3642.989,591.316,3645.456,590.843,3647.744Z" fill="#3c3c3b"/>
                <path id="Trazado_631184" data-name="Trazado 631184" d="M589.871,3645.71c-.245,1.125-2.924,1.5-5.986.835s-5.346-2.115-5.1-3.24,2.924-1.5,5.986-.835S590.115,3644.585,589.871,3645.71Z" fill="#525250"/>
              </g>
              <path id="Trazado_631185" data-name="Trazado 631185" d="M606.91,3642.763l-5.639,6.1s-1.006,1.808-5.758,6.678a17.644,17.644,0,0,1-4.779,3.717c-3.173,1.52-4.407-.242-4.407-.242-5.928-5.291,5.057-12.767,5.057-12.767a17.535,17.535,0,0,0,3.909-6.494,13.72,13.72,0,0,1,10.332,2.13C606.053,3642.149,606.482,3642.445,606.91,3642.763Z" fill="#fcaf75"/>
              <path id="Trazado_631186" data-name="Trazado 631186" d="M623.514,3624.429l-7.814,4.3c-1.745.433-1.077,5.559-4.164,9.028l-4.626,5-5.639,6.1s-1.006,1.808-5.758,6.678a17.644,17.644,0,0,1-4.779,3.717l-1.107.283c3.007-1.68,3.2-2.957,1.93-4.706-1.049-1.448-2.992-1.277-4.807-.8a4.711,4.711,0,0,1,5.053-.418,2.8,2.8,0,0,1,1.457,2.306c3.4-2.872,6.136-5.716,7.092-8.48a24.885,24.885,0,0,0,4.92-5.1c.118-.15.236-.3.353-.456,1.262-1.632,2.556-3.394,3.991-5.122,2.053-2.206,3.17-5.345,3.838-8.93a12.62,12.62,0,0,0,0-5.423,8.5,8.5,0,0,1,1.294,4.171c2.569-.05,6.385-2.837,8.137-6.635Z" fill="#fcaf75" opacity="0.5" style="mix-blend-mode: multiply;isolation: isolate"/>
              <path id="Trazado_631187" data-name="Trazado 631187" d="M605.132,3611.063c8.172-3.449,18.862,14.941,13.721,19.868l9.365-5.793c3.086-6.809-3.664-19.911-12.829-20.927Z" fill="#ededed"/>
              <ellipse id="Elipse_7730" data-name="Elipse 7730" cx="8.691" cy="15.054" rx="8.691" ry="15.054" transform="matrix(0.866, -0.5, 0.5, 0.866, 629.371, 3591.921)" fill="#1d1d1b"/>
              <path id="Trazado_631188" data-name="Trazado 631188" d="M652.756,3613.069l-15.807-25.548-25.806,18.889c1.681-.955,3.994-.809,6.548.665,5.135,2.965,9.3,10.175,9.3,16.1,0,2.862-.972,4.9-2.553,5.912Z" fill="#1d1d1b"/>
            </g>
          </g>
          <g id="Grupo_949523" data-name="Grupo 949523">
            <g id="Grupo_949522" data-name="Grupo 949522">
              <path id="Trazado_631189" data-name="Trazado 631189" d="M528.564,3672c-3.874-.24-3.02-6.819-1.97-10.4a2.528,2.528,0,0,1,3.211-1.5c1.279.422,2.067,2.853,2.027,4.2C531.795,3665.563,533.142,3672.289,528.564,3672Z"/>
              <path id="Trazado_631190" data-name="Trazado 631190" d="M526.444,3665.165c-.653-5.55,5.411-6.009,4.588.034-.218,1.608-1.229,2.78-2.247,2.824C527.2,3668.092,526.581,3666.323,526.444,3665.165Z" fill="#fcaf75"/>
              <g id="Grupo_949518" data-name="Grupo 949518">
                <g id="Grupo_949517" data-name="Grupo 949517">
                  <path id="Trazado_631191" data-name="Trazado 631191" d="M508.453,3662.979a9.188,9.188,0,0,1-5.943,2.011,1.03,1.03,0,0,1-.8-.277c-.287-.351-.084-.889.154-1.277,1.954-3.185,5.626-5.9,7.233-9.291a2.891,2.891,0,0,1,.682-1.076c.505-.4,1.214-.312,1.83-.472.571-.147,1.18-.516,1.7-.231.473.26.57.9.712,1.443.152.574.415,2.01.6,2.573a2.99,2.99,0,0,1,.131,1.754,2.769,2.769,0,0,1-1.433,1.567c-.632.34-1.324.548-1.952.9A22.693,22.693,0,0,0,508.453,3662.979Z" fill="#fcaf75"/>
                  <path id="Trazado_631192" data-name="Trazado 631192" d="M501.706,3664.717a1.052,1.052,0,0,0,.8.27,9.154,9.154,0,0,0,5.946-2.006,22.793,22.793,0,0,1,2.914-2.384c.63-.342,1.323-.558,1.952-.891a2.793,2.793,0,0,0,1.431-1.574,3.01,3.01,0,0,0-.126-1.754c-.162-.486-.378-1.853-.531-2.348a1.641,1.641,0,0,1-.072-.225c-.144-.531-.243-1.178-.72-1.439-.512-.288-1.124.081-1.691.234-.62.153-1.331.063-1.835.468a2.976,2.976,0,0,0-.684,1.079,12.36,12.36,0,0,1-2.635,3.463,33.566,33.566,0,0,0-4.6,5.829C501.625,3663.826,501.418,3664.366,501.706,3664.717Z"/>
                  <path id="Trazado_631193" data-name="Trazado 631193" d="M505.313,3659.463a.608.608,0,0,0,.225.576.934.934,0,0,0,.522.081,9.385,9.385,0,0,0,5.019-2.483,13.192,13.192,0,0,0,2.1-2.051,6.621,6.621,0,0,0,.918-1.556,1.641,1.641,0,0,1-.072-.225c-.144-.531-.163-1.66-.639-1.921-.513-.288-1.205.016-1.771.169-.621.153-1.549-.2-2.052.208-.333.27-.188,1.169-.377,1.556a14.212,14.212,0,0,1-2.726,3.793c-.324.441-.63.864-.882,1.269A1.565,1.565,0,0,0,505.313,3659.463Z" fill="#fcaf75"/>
                </g>
                <path id="Trazado_631194" data-name="Trazado 631194" d="M507.087,3621.023c.054.867.121,1.869.189,2.972.068,1.043.142,2.174.217,3.372.061.968.122,1.97.189,3.007.664,10.386,1.49,23.42,1.49,23.44a.389.389,0,0,0,.041.075c.941,1.754,4.482,2.146,4.807-.075.379-6.865,1.6-12.851,2.458-18.342.291-1.876.542-3.69.7-5.464a39.914,39.914,0,0,0,.183-4.462v-.217a26.705,26.705,0,0,0-.318-3.764c-.061-.373-.136-.738-.21-1.1l-8-5.193C508.834,3615.491,507.087,3620.786,507.087,3621.023Z" fill="#fcaf75"/>
              </g>
              <g id="Grupo_949521" data-name="Grupo 949521">
                <g id="Grupo_949519" data-name="Grupo 949519">
                  <path id="Trazado_631195" data-name="Trazado 631195" d="M516.478,3609.566c1.327,6.8,2.085,12.175,2.891,16.291q.091.468.183.914a34.3,34.3,0,0,0,1.083,4.144c.088.271.176.528.278.765l.663,3.183.292,1.388,5.132,24.6.183.873.169.806c0,1.937,2.966,1.28,3.142-.352.013-.122.027-.25.04-.372.041-.366.082-.725.115-1.084,1.592-14.862,1.151-20.847.149-26.467-.121-.718-.257-1.435-.4-2.16-.2-1.043-.42-2.106-.637-3.243.055-.366.088-.731.129-1.1.014-.095.02-.19.027-.284a1.062,1.062,0,0,0,.02-.156,105.274,105.274,0,0,0,.454-17.754Z" fill="#fcaf75"/>
                </g>
                <g id="Grupo_949520" data-name="Grupo 949520">
                  <path id="Trazado_631196" data-name="Trazado 631196" d="M516.478,3609.566c1.327,6.8,2.085,12.175,2.891,16.291q.091.468.183.914a34.3,34.3,0,0,0,1.083,4.144c.088.271.176.528.278.765l.663,3.183.292,1.388,5.132,24.6.183.873.169.806c0,1.937,2.966,1.28,3.142-.352.013-.122.027-.25.04-.372.041-.366.082-.725.115-1.084,1.592-14.862,1.151-20.847.149-26.467-.121-.718-.257-1.435-.4-2.16-.2-1.043-.42-2.106-.637-3.243.055-.366.088-.731.129-1.1.014-.095.02-.19.027-.284a1.062,1.062,0,0,0,.02-.156,105.274,105.274,0,0,0,.454-17.754Z" fill="#ffbb7d"/>
                </g>
              </g>
            </g>
            <path id="Trazado_631197" data-name="Trazado 631197" d="M519.369,3625.857q.091.468.183.914a34.3,34.3,0,0,0,1.083,4.144c.088.271.176.528.278.765l.663,3.183.292,1.388a19.364,19.364,0,0,0,8.93-1.991c-.121-.718-.257-1.435-.4-2.16-.2-1.043-.42-2.106-.637-3.243.055-.366.088-.731.129-1.1.014-.095.02-.19.027-.284Z" fill="#fcaf75" opacity="0.3" style="mix-blend-mode: multiply;isolation: isolate"/>
            <path id="Trazado_631198" data-name="Trazado 631198" d="M507.276,3624c.068,1.043.142,2.174.217,3.372.061.968.122,1.97.189,3.007a18.623,18.623,0,0,0,8.8,5.1c.291-1.876.542-3.69.7-5.464a39.914,39.914,0,0,0,.183-4.462Z" fill="#fcaf75" opacity="0.3" style="mix-blend-mode: multiply;isolation: isolate"/>
            <path id="Trazado_631199" data-name="Trazado 631199" d="M498.892,3591.266l12.481-2.482s4.77-15.719,4.585-15.973-4.777-9.69-4.777-9.69l-3.589,19.7-10.777,5.417Z" fill="#3f76ab"/>
            <path id="Trazado_631200" data-name="Trazado 631200" d="M498.892,3591.266l12.481-2.482s4.77-15.719,4.585-15.973-4.777-9.69-4.777-9.69l-3.589,19.7-10.777,5.417Z" fill="#ededed"/>
            <path id="Trazado_631201" data-name="Trazado 631201" d="M523.22,3553.549c7.944,2.582,6.249,10.08,4.105,15.956l-5.607-5.274Z" fill="#1d1d1b"/>
            <path id="Trazado_631202" data-name="Trazado 631202" d="M507.453,3626.726c1.211,3.3,17.631,9.92,22.831,4.778l1.523-22.689c1.409-7.448.176-11.287-3.69-14.889-.467-.434-.968-.86-1.51-1.293l-11.531-.468-4.516-.183C506.64,3604.482,506.534,3618.093,507.453,3626.726Z" fill="#e6332a"/>
            <path id="Trazado_631203" data-name="Trazado 631203" d="M505.678,3580.662a4.222,4.222,0,0,0,4.875,4.015c.014,2.2.684,5.281,0,7.3,1.1,2.641,2.573,4.679,5.485,5.424s8.741.122,12.079-3.48c-.555-4.09.826-9.331,2.268-13.725a69,69,0,0,0,1.835-9.141c-2.668-3.351-5.139-4.746-8.558-7.123s-6.026-5.118-9.926-3.656-3.318,8.931-4.753,12S505.685,3577.472,505.678,3580.662Z" fill="#fff"/>
            <path id="Trazado_631204" data-name="Trazado 631204" d="M510.553,3591.982c1.1,2.641,2.573,4.679,5.485,5.424s8.741.122,12.079-3.48c3.866,3.6,5.1,7.441,3.69,14.889l-1.523,22.689a6.945,6.945,0,0,1-2.539,1.466c1.055-7.921-.147-26.16-1.828-32.382-9.554.373-13.6-1.868-15.824-7.136Z" fill="#e6332a" opacity="0.75" style="mix-blend-mode: multiply;isolation: isolate"/>
            <path id="Trazado_631205" data-name="Trazado 631205" d="M510.553,3591.982c1.1,2.641,2.573,4.679,5.485,5.424s8.741.122,12.079-3.48c-.555-4.09.826-9.331,2.268-13.725l-2.871-2.4-4.495,7.631c-2.986,5.024-10.726,4.035-11.05-1.1l-1.416.393C510.567,3586.877,511.237,3589.958,510.553,3591.982Z" fill="#1d1d1b" opacity="0.2" style="mix-blend-mode: multiply;isolation: isolate"/>
            <path id="Trazado_631206" data-name="Trazado 631206" d="M520.121,3589.1a4.138,4.138,0,0,1-2.331,1.794l-1.617.353c-.158.475-.88.566-1.617.647q-.81-.119-.735-.765c-.429-.3-.683-.635-.5-1.058a.829.829,0,0,1-.353-1.118.987.987,0,0,1-.235-1.234l-3.97.47c-.852.1-1.146-.706,0-.97l7.38-1.353a6.579,6.579,0,0,1,3.146,0l2.529.647-.147,3.058Z" fill="#fcaf75"/>
            <path id="Trazado_631207" data-name="Trazado 631207" d="M532.223,3571.062c4.194,5.128,8.6,19.53,5.573,21.667-3.475,3.007-10.931-.313-17.853-3.138.363-1.636.409-2.853-.654-3.725l12.806,1.451-5.089-8.07C525.02,3572.5,528.4,3568.572,532.223,3571.062Z" fill="#ededed"/>
            <path id="Trazado_631208" data-name="Trazado 631208" d="M522.168,3558.67c.5,1.735,1.861,4.419,2.192,6.072.379,2.04-3.383,5.213-5.9,5.03-1.783-.351-2.237-2.64-2.5-4.747Z" fill="#fcaf75"/>
            <path id="Trazado_631209" data-name="Trazado 631209" d="M520.874,3559.994s1.484,12.2-4.381,11.2c-3.825-.657-3.02-6.966-3.02-6.966Z" fill="#1d1d1b" opacity="0.15"/>
            <path id="Trazado_631210" data-name="Trazado 631210" d="M514.117,3552.412c-5.042.77-10.7,6.932-2.236,10.366C511.659,3559.994,511.169,3557.884,514.117,3552.412Z" fill="#1d1d1b"/>
            <path id="Trazado_631211" data-name="Trazado 631211" d="M517.177,3548.819c-5.876.814-7.692,4.262-7.1,8.939.069,3.923,3.331,9.115,5.611,9.018,3.249.179,4.847-3.613,7.623-7.669C525.452,3552.434,522.648,3548.063,517.177,3548.819Z" fill="#fcaf75"/>
            <path id="Trazado_631212" data-name="Trazado 631212" d="M510.152,3557.889c1.222,1.308,3.18,2.049,5.62,2.61,2.061.851,4.057.767,4.854,1.92l2.388-.988c2.4-2.761,2.635-10.654-1.478-12.322C514.933,3546.43,507.085,3553.06,510.152,3557.889Z" fill="#1d1d1b"/>
            <path id="Trazado_631213" data-name="Trazado 631213" d="M520.714,3561.208c.363-1.44,1.364-2.383,2.218-1.554.4.385.371,1.094,0,1.995a1.611,1.611,0,0,1-1.283,1.112C520.841,3562.885,520.435,3562.316,520.714,3561.208Z" fill="#fcaf75"/>
            <path id="Trazado_631214" data-name="Trazado 631214" d="M502.445,3578.857c3.729,3.5,6.236,8.769,8.108,16.448l-12.916.419c.188-5.972-3.725-11.55-8.665-16.867Z" fill="#fff"/>
            <path id="Trazado_631215" data-name="Trazado 631215" d="M498.061,3588.6c1.334.138,1.333,1.177.342,1.276,1.517-.027,1.763,1.309.489,1.389.872.046,1.035,1.046-.226,1.162.945.294,1.019.889-.047,1.036l-1.437.079c-.58.056-1.37-.292-1.2-1-.49,0-.867-1.186-.624-1.275-.442-.187-.758-1.049-.433-1.33-.612-.33-.7-1.232.188-2.208l.42-.434.63,1.22Z" fill="#fcaf75"/>
          </g>
          <g id="Grupo_949558" data-name="Grupo 949558">
            <g id="Grupo_949528" data-name="Grupo 949528">
              <g id="Grupo_949527" data-name="Grupo 949527">
                <g id="Grupo_949525" data-name="Grupo 949525">
                  <path id="Trazado_631216" data-name="Trazado 631216" d="M447.111,3670.3a1.485,1.485,0,1,0,1.485-1.485A1.484,1.484,0,0,0,447.111,3670.3Z" fill="#030403"/>
                  <path id="Trazado_631217" data-name="Trazado 631217" d="M450.605,3685.322a1.485,1.485,0,1,0,1.485-1.485A1.485,1.485,0,0,0,450.605,3685.322Z" fill="#030403"/>
                  <path id="Trazado_631218" data-name="Trazado 631218" d="M426.7,3692.222a1.485,1.485,0,1,0,1.485-1.485A1.485,1.485,0,0,0,426.7,3692.222Z" fill="#030403"/>
                  <path id="Trazado_631219" data-name="Trazado 631219" d="M408.773,3681.566a1.484,1.484,0,1,0,1.484-1.485A1.484,1.484,0,0,0,408.773,3681.566Z" fill="#030403"/>
                  <path id="Trazado_631220" data-name="Trazado 631220" d="M419.774,3667.121a1.485,1.485,0,1,0,1.485-1.485A1.485,1.485,0,0,0,419.774,3667.121Z" fill="#030403"/>
                  <g id="Grupo_949524" data-name="Grupo 949524">
                    <path id="Trazado_631221" data-name="Trazado 631221" d="M419.674,3665.962v-2.043l2.75,1.234,10.343,9.632,14.993-7.315,2.182-.783v2.043l-12.67,8.656,16.683,3.929v2.043l-1.4,1.588-18.174-4.282L429.7,3691.67l-3.048-.279v-2.043l1.438-9.26-19.576.83-.483-1.76v-2.043l19.062-.66Z" fill="#030403"/>
                    <path id="Trazado_631222" data-name="Trazado 631222" d="M419.674,3663.919l2.75-.809,10.343,9.632,14.993-7.316,2.182,1.26-12.67,8.656,16.683,5.972-1.4,1.587-18.174-4.282-4.682,11.006-3.048-.279,1.438-11.3-19.576.83-.483-1.76,19.062-2.7Z" fill="#878787"/>
                  </g>
                  <path id="Trazado_631223" data-name="Trazado 631223" d="M429.92,3674.63a1.236,1.236,0,0,0,0,2.341,4.474,4.474,0,0,0,4.053,0,1.236,1.236,0,0,0,0-2.341A4.48,4.48,0,0,0,429.92,3674.63Z" fill="#030403"/>
                  <rect id="Rectángulo_338222" data-name="Rectángulo 338222" width="5.734" height="18.459" transform="translate(429.08 3657.341)" fill="#030403"/>
                </g>
                <g id="Grupo_949526" data-name="Grupo 949526">
                  <path id="Trazado_631224" data-name="Trazado 631224" d="M432.16,3640l22.674,13.091c1.046.6,1.894.114,1.894-1.094a9.688,9.688,0,0,0-4.372-7.647l-20.195-11.659c-1.046-.6-1.894-.114-1.894,1.093v2.936A4.189,4.189,0,0,0,432.16,3640Z" fill="#4a4a49"/>
                  <path id="Trazado_631225" data-name="Trazado 631225" d="M424.243,3591.589l1.159,7.717,4.621,30.684a3.414,3.414,0,0,0,.287.909,3.347,3.347,0,0,0,1.25,1.441l3.138,1.814a1.12,1.12,0,0,0,1.053.138,1.273,1.273,0,0,0,.483-1.4l-.531-3.441-5.1-33.046-.393-2.568a3.362,3.362,0,0,0-1.771-2.457l-2.909-1.164a.933.933,0,0,0-.9.037A1.3,1.3,0,0,0,424.243,3591.589Z" fill="#4a4a49"/>
                </g>
                <path id="Trazado_631226" data-name="Trazado 631226" d="M435.569,3665.124l20.781-12.039L430.9,3632.52l-20.862,12.063Z" fill="#4a4a49"/>
                <path id="Trazado_631227" data-name="Trazado 631227" d="M404.157,3602.108l20.476-11.857,11.176,44.01-20.581,11.886Z" fill="#4a4a49"/>
                <path id="Trazado_631228" data-name="Trazado 631228" d="M411.483,3651.951l22.674,13.09c1.046.6,1.894.115,1.894-1.093a9.686,9.686,0,0,0-4.372-7.647l-20.2-11.659c-1.045-.6-1.893-.115-1.893,1.093v2.936A4.189,4.189,0,0,0,411.483,3651.951Z" fill="#1d1d1b"/>
                <path id="Trazado_631229" data-name="Trazado 631229" d="M415.556,3644.844l-6.018-39.054a3.366,3.366,0,0,0-1.77-2.458l-2.908-1.162c-.874-.349-1.462.273-1.3,1.371l5.783,38.4a3.506,3.506,0,0,0,1.534,2.351l3.142,1.814C415.006,3646.675,415.744,3646.066,415.556,3644.844Z" fill="#1d1d1b"/>
              </g>
            </g>
            <path id="Trazado_631230" data-name="Trazado 631230" d="M459.416,3619.5l-4.251-15.193c-1.04-5.044-2.552-7.2-7.189-6.513l-3.12,2.369,1.78,3.3,3.125,10.835,2.5,8.69a18.071,18.071,0,0,0,1.3,1.757l7.495-3.716C460.518,3620.484,459.969,3619.966,459.416,3619.5Z" fill="#fff"/>
            <path id="Trazado_631231" data-name="Trazado 631231" d="M440.323,3687.671v2.412A7.006,7.006,0,0,0,443.21,3693c1.975,3.826,4.709,5.8,8.111,6.138,3.018.268,4.9-.767,5.115-2.63-.293-4.129-5.773-5.481-6.431-8.842Z"/>
            <path id="Trazado_631232" data-name="Trazado 631232" d="M455.376,3679.889v2.082c1.286,1.2,2.556,2.331,3.581,2.266,1.775,3.927,4.264,6.028,7.343,6.613,3.318.1,4.64-1.242,4.64-3.179-.255-3-4.749-5.225-5.516-8.476Z"/>
            <path id="Trazado_631233" data-name="Trazado 631233" d="M459.689,3682.778a9.4,9.4,0,0,1-2.642-.953,6.021,6.021,0,0,1-3.133-4.6c-1.187-10.382-1.374-14.737.111-20.641-7.015-6.489-19.391-6.226-21.729-15.445-.047-.239-.082-.467-.111-.678a7.355,7.355,0,0,1,.275-3.18c.222-.841.544-1.847.918-3.291l9.394-.333,2.385-.082c4.548,1.847,7.044,3.473,17.286,13.714q.78.772,1.619,1.625c1.561,1.97,1.134,3.554,1.075,4.887,0,0-.286,9.558-.005,14.86s.713,10.318.713,10.318C466.236,3682.193,463.109,3682.83,459.689,3682.778Z" fill="#4a4a49"/>
            <path id="Trazado_631234" data-name="Trazado 631234" d="M457.047,3681.825a6.021,6.021,0,0,1-3.133-4.6c-1.187-10.382-1.374-14.737.111-20.641-7.015-6.489-19.391-6.226-21.729-15.445-.047-.239-.082-.467-.111-.678a7.355,7.355,0,0,1,.275-3.18,27.373,27.373,0,0,0,5.727,5.367c.618.471,4.166.088,5.709-2.564-.221,2.969-.306,5.046.844,5.779,4.961,3.159,9.331,6.447,13.675,7.237C454.428,3660.12,454.814,3671.1,457.047,3681.825Z" fill="#3f668a" opacity="0.3" style="mix-blend-mode: multiply;isolation: isolate"/>
            <path id="Trazado_631235" data-name="Trazado 631235" d="M445.7,3691.543a8.463,8.463,0,0,1-2.077-.692,7.973,7.973,0,0,1-.976-.534,6.8,6.8,0,0,1-3.252-4.629c-1.184-10.383-1.76-18.389-.275-24.294-7.014-6.489-16.08-8.715-18.415-17.931a19.014,19.014,0,0,1,.525-7.214c.192-.884.409-1.777.642-2.677l2.152.083,11.868.442.259.017,1.826,1.535-.283,4.792,4.94,5.756,6.594,8.625a6.589,6.589,0,0,1,1,3.786s-.283,9.558,0,14.862,1.36,13.544,1.36,13.544C451.978,3690.225,449.117,3691.593,445.7,3691.543Z" fill="#4a4a49"/>
            <path id="Trazado_631236" data-name="Trazado 631236" d="M443.046,3690.317h-.4a6.8,6.8,0,0,1-3.252-4.629c-1.184-10.383-1.76-18.389-.275-24.294-7.014-6.489-16.08-8.715-18.415-17.931a19.014,19.014,0,0,1,.525-7.214c.192-.884.409-1.777.642-2.677l2.152.083A14.293,14.293,0,0,0,426.2,3645.5c3.261,5.8,10.091,10.341,16.3,14.353C441.328,3669.284,440.894,3679.45,443.046,3690.317Z" fill="#3f668a" opacity="0.3" style="mix-blend-mode: multiply;isolation: isolate"/>
            <path id="Trazado_631237" data-name="Trazado 631237" d="M452.122,3606.231c-.033,11.818-6.7,23.529-6.966,27.341-6.23,4.829-15.888,9.566-21.117,6.271a7.044,7.044,0,0,1-2.8-3.6c-.067-9.9,1.854-19.968,3.547-23.612,1.384-2.994,2.642-4.509,3.626-6.627,4.079-2.885,8.967-4.507,13.254-6.075,5.546-1.184,4.178-1.576,7.356-1.184A9.659,9.659,0,0,1,452.122,3606.231Z" fill="#fff"/>
            <g id="Grupo_949532" data-name="Grupo 949532">
              <g id="Grupo_949531" data-name="Grupo 949531">
                <g id="Grupo_949529" data-name="Grupo 949529">
                  <path id="Trazado_631238" data-name="Trazado 631238" d="M446.626,3718.938l-27.96-16.142a9.162,9.162,0,0,1-4.2-7.278V3658.3c0-2.127,1.186-3.556,2.951-3.556a4.254,4.254,0,0,1,2.116.63l27.96,16.143a9.165,9.165,0,0,1,4.2,7.278v37.217c0,2.127-1.186,3.556-2.951,3.556A4.254,4.254,0,0,1,446.626,3718.938ZM416.2,3658.3v37.218a7.5,7.5,0,0,0,3.337,5.78l27.96,16.141a2.59,2.59,0,0,0,1.251.4c1.1,0,1.221-1.277,1.221-1.826v-37.217a7.5,7.5,0,0,0-3.337-5.78l-27.96-16.142a2.6,2.6,0,0,0-1.251-.4C416.314,3656.474,416.2,3657.751,416.2,3658.3Z" fill="#3c3c3b"/>
                  <path id="Trazado_631239" data-name="Trazado 631239" d="M510.685,3681.868l-27.96-16.142a9.166,9.166,0,0,1-4.2-7.279V3621.23c0-2.127,1.186-3.556,2.951-3.556a4.253,4.253,0,0,1,2.116.63l27.96,16.143a9.164,9.164,0,0,1,4.2,7.278v37.218c0,2.127-1.186,3.556-2.95,3.556A4.256,4.256,0,0,1,510.685,3681.868Zm-30.431-60.638v37.217a7.5,7.5,0,0,0,3.337,5.78l27.96,16.142a2.606,2.606,0,0,0,1.251.4c1.1,0,1.221-1.277,1.221-1.826v-37.218a7.5,7.5,0,0,0-3.337-5.78l-27.96-16.142a2.6,2.6,0,0,0-1.251-.4C480.373,3619.4,480.254,3620.681,480.254,3621.23Z" fill="#3c3c3b"/>
                </g>
                <g id="Grupo_949530" data-name="Grupo 949530">
                  <path id="Trazado_631240" data-name="Trazado 631240" d="M412.083,3656.464l37.371,21.573,67.159-38.814v-1.91l-37.371-19.675-67.159,36.916Z" fill="#575756"/>
                  <path id="Trazado_631241" data-name="Trazado 631241" d="M412.083,3654.554l37.371,21.573,67.159-38.814-37.371-21.584Z" fill="#c6c6c6"/>
                </g>
              </g>
            </g>
            <path id="Trazado_631242" data-name="Trazado 631242" d="M424.039,3639.843a7.044,7.044,0,0,1-2.8-3.6c-.067-9.9,1.854-19.968,3.547-23.612h6.8c-1.26,1.541,1.984,1.5,3.224,3.44,1.866,2.919,5.436,15.42,10.344,17.506C442.664,3638.049,427.383,3643.448,424.039,3639.843Z" fill="#1d1d1b" opacity="0.15"/>
            <path id="Trazado_631243" data-name="Trazado 631243" d="M428.41,3606c-3.127,2.6-3.97,5.2-3.395,10.722a51.9,51.9,0,0,0,6.483,20.76,57.577,57.577,0,0,0,19.845,6.9c-.1-1.607.089-5.028,1.526-5.513-7.28-3.485-11.718-7.747-15.479-8.445a111.4,111.4,0,0,0-3.046-16.267C433.3,3610.109,431.015,3607.269,428.41,3606Z" fill="#fff"/>
            <g id="Grupo_949533" data-name="Grupo 949533">
              <path id="Trazado_631244" data-name="Trazado 631244" d="M442.828,3599.666c-1.762-.088-2.978.62-4.875,1.532-2.539,2.328-.041,12.273,6.083,12.273l2.395-3.1,2.028,1.462C449.72,3606.954,447.759,3603,442.828,3599.666Z" fill="#dadada"/>
              <path id="Trazado_631245" data-name="Trazado 631245" d="M443.262,3599.153c-.159,0-2.621,1.843-2.621,1.843-3.6,2.04.521,11.835,5.79,9.379l4.912-3.414Z" fill="#ffbb7d"/>
              <path id="Trazado_631246" data-name="Trazado 631246" d="M452.574,3607.068c0,3.621.051,7.8-4.061,7.972-5.078-1.405-5.528-10.016-4.984-12.82Z" fill="#1d1d1b" opacity="0.15"/>
              <path id="Trazado_631247" data-name="Trazado 631247" d="M449.35,3589.064c-4.408.044-6.925,2.121-7.1,6.722.126,4.836.37,7.754,2.7,11.056a7.01,7.01,0,0,0,5.684,3.029c2.681-.136,6.645-6.565,7.026-11.218C458.318,3593.953,454.311,3590.349,449.35,3589.064Z" fill="#ffbb7d"/>
              <path id="Trazado_631248" data-name="Trazado 631248" d="M457.116,3602.048c-1,2.349-6.845,1.923-9.412-.958l-.287,1.725-2.363-1.962L443,3603.526l-.743-1.057c-1.871-3.756-1.776-9.935,3.556-13.041C452.937,3586.566,461.775,3594.863,457.116,3602.048Z"/>
              <path id="Trazado_631249" data-name="Trazado 631249" d="M444.395,3602.874a3.865,3.865,0,0,1-.583-1.538,1.743,1.743,0,0,1,.514-1.492,1.239,1.239,0,0,1,1.541-.076,1.334,1.334,0,0,1,.44,1.022,3.774,3.774,0,0,1-.207,1.11l-.288.988a.885.885,0,0,1-.366.587.633.633,0,0,1-.632-.088A1.63,1.63,0,0,1,444.395,3602.874Z" fill="#ffbb7d"/>
            </g>
            <g id="Grupo_949538" data-name="Grupo 949538">
              <g id="Grupo_949536" data-name="Grupo 949536">
                <g id="Grupo_949534" data-name="Grupo 949534">
                  <path id="Trazado_631250" data-name="Trazado 631250" d="M452.07,3645.482l14.319-8.267,20.4,11.781-14.319,8.267Z" fill="#fff"/>
                  <path id="Trazado_631251" data-name="Trazado 631251" d="M472.368,3654.833l10.35-5.976.619.357-10.35,5.976Z" fill="#1d1d1b"/>
                  <path id="Trazado_631252" data-name="Trazado 631252" d="M470.673,3653.855l10.35-5.975.381.22-10.35,5.976Z" fill="#1d1d1b"/>
                  <path id="Trazado_631253" data-name="Trazado 631253" d="M469.65,3653.264l10.35-5.975.381.22-10.35,5.976Z" fill="#1d1d1b"/>
                  <path id="Trazado_631254" data-name="Trazado 631254" d="M468.627,3652.673l10.35-5.975.381.22-10.35,5.976Z" fill="#1d1d1b"/>
                  <path id="Trazado_631255" data-name="Trazado 631255" d="M466.58,3651.491l10.35-5.975.381.22-10.35,5.976Z" fill="#1d1d1b"/>
                  <path id="Trazado_631256" data-name="Trazado 631256" d="M465.557,3650.9l10.35-5.976.381.22-10.35,5.976Z" fill="#1d1d1b"/>
                  <path id="Trazado_631257" data-name="Trazado 631257" d="M470.921,3646.622l3.963-2.288.381.22-3.963,2.288Z" fill="#1d1d1b"/>
                  <path id="Trazado_631258" data-name="Trazado 631258" d="M463.51,3649.719l10.35-5.976.381.22-10.35,5.975Z" fill="#1d1d1b"/>
                  <path id="Trazado_631259" data-name="Trazado 631259" d="M462.487,3649.128l10.35-5.976.381.22-10.35,5.975Z" fill="#1d1d1b"/>
                  <path id="Trazado_631260" data-name="Trazado 631260" d="M463.888,3647.138l7.925-4.576.381.22-7.925,4.576Z" fill="#1d1d1b"/>
                  <path id="Trazado_631261" data-name="Trazado 631261" d="M464.128,3643.454l4.615-2.665.381.22-4.615,2.665Z" fill="#1d1d1b"/>
                  <path id="Trazado_631262" data-name="Trazado 631262" d="M463.105,3642.864l4.615-2.665.381.22-4.615,2.665Z" fill="#1d1d1b"/>
                </g>
                <g id="Grupo_949535" data-name="Grupo 949535">
                  <path id="Trazado_631263" data-name="Trazado 631263" d="M464.119,3644.773a.837.837,0,0,0-.024.21,1.283,1.283,0,0,0,.172.551c.073.14.141.372.407.43a.23.23,0,0,0,.012-.284q-.107-.218-.215-.435a3.222,3.222,0,0,0-.285-.478,1.006,1.006,0,0,1,.677-.644c.037-.014,0-.048-.034-.034a1.065,1.065,0,0,0-.689.616c-.056-.075-.115-.148-.181-.221-.447-.5-1.049-.961-1.218-1.525a.833.833,0,0,1,.132-.749,1.071,1.071,0,0,1,.97-.4.518.518,0,0,1,.463.728,1.822,1.822,0,0,1-.548.67c-.024.021.035.04.06.019.414-.36.883-.893.4-1.307a.96.96,0,0,0-.846-.1,1.052,1.052,0,0,0-.634.494c-.286.5.054,1.032.459,1.475.243.266.524.52.76.787A2.459,2.459,0,0,1,464.119,3644.773Zm.393.7c.067.136.2.3.147.445-.146-.044-.186-.155-.236-.237s-.085-.145-.122-.219a1.224,1.224,0,0,1-.137-.478.623.623,0,0,1,.006-.136A5.561,5.561,0,0,1,464.512,3645.472Z" fill="#1d71b8"/>
                  <path id="Trazado_631264" data-name="Trazado 631264" d="M460.14,3646.661c.723-.162,1.112-.6.9-1.035-.007-.013-.03-.017-.05-.012a.865.865,0,0,1-.195.023.18.18,0,0,0,.056-.191l-.029-.259a2.647,2.647,0,0,0,.437.2.2.2,0,0,0,.238-.058c.049-.075-.005-.193-.056-.283.138.07.338.158.485.06s.074-.273.033-.38a7.414,7.414,0,0,0,1.345,1.011c.019.012.062,0,.059-.013a1.207,1.207,0,0,0-.344-.508,4.483,4.483,0,0,1-.508-.648c-.064-.1-.121-.205-.174-.309s-.131-.24-.048-.353a.93.93,0,0,0,.179.387,1.688,1.688,0,0,0,.331.343.845.845,0,0,0,.366.2c.326.065.211-.341.18-.416a1.481,1.481,0,0,0-.6-.6.417.417,0,0,0-.37-.026.254.254,0,0,1,.158-.14.4.4,0,0,1,.359.066,1.794,1.794,0,0,1,.335.325c.088.1.321.3.164.407-.029.02.019.048.048.028.1-.066.078-.141.033-.219a2.132,2.132,0,0,0-.342-.4.59.59,0,0,0-.714-.2.23.23,0,0,0-.13.184.249.249,0,0,0-.1.134c-.026.108.052.225.1.327a3.727,3.727,0,0,0,.27.442,4.418,4.418,0,0,0,.375.461,1.57,1.57,0,0,1,.343.456,6.177,6.177,0,0,1-1.46-1.2,2.065,2.065,0,0,0-.186-.227c-.021-.023-.077,0-.059.02.06.078.123.155.19.232a.935.935,0,0,1,.172.4.283.283,0,0,1-.022.148c-.072.166-.39,0-.46-.037-.02-.01-.039-.021-.057-.032a1.131,1.131,0,0,0-.3-.3c-.022-.015-.068,0-.058.019a.885.885,0,0,0,.294.29.8.8,0,0,1,.085.167.578.578,0,0,1,.025.122c.012.107-.145.091-.239.048-.134-.061-.26-.127-.39-.19-.021-.01-.06,0-.058.014a1.3,1.3,0,0,1,.034.425c-.033.138-.241,0-.294-.013a.151.151,0,0,0-.087.005.744.744,0,0,0,.58.1c.179.4-.182.814-.859.965C460.082,3646.631,460.1,3646.67,460.14,3646.661Zm2.226-2.79c.263-.187.668.228.769.341a.807.807,0,0,1,.166.274.463.463,0,0,1,.023.169.367.367,0,0,1-.014.08c-.032.113-.187.049-.247.019a1.422,1.422,0,0,1-.59-.568A.793.793,0,0,1,462.366,3643.871Z" fill="#1d71b8"/>
                </g>
              </g>
              <g id="Grupo_949537" data-name="Grupo 949537">
                <path id="Trazado_631265" data-name="Trazado 631265" d="M458.023,3639.552a3.377,3.377,0,0,0-.121,2.252l-.25.643-.226.581-.246,1.031a1.285,1.285,0,0,1-.833.355l-.456.718c-.1.181-.35.224-.706.156l-.564.576c-.36.3-1.288.11-2.375.05l-.076,0-1.843-.892s-.575-.251-.69-.661c-.164-.585.049-.7-.046-.967s-.515-.476-.515-1.128c0-.784.518-.79.561-1.128.038-.3-.262-.369-.023-1.174.184-.622.892-.629,1.082-.963a4.324,4.324,0,0,1,.713-1.559c.491-.5,1.658,0,1.658,0l1.284.722,2.768-.318.291.132A1.217,1.217,0,0,1,458.023,3639.552Z" fill="#fcaf75"/>
                <path id="Trazado_631266" data-name="Trazado 631266" d="M454.678,3638.371l2.072.246s.012,2.2,0,2.026a12.835,12.835,0,0,0-1.369-1.548C454.995,3638.693,454.678,3638.371,454.678,3638.371Z" fill="#fcaf75" opacity="0.5" style="mix-blend-mode: multiply;isolation: isolate"/>
                <path id="Trazado_631267" data-name="Trazado 631267" d="M459.237,3645.36l-8.041-10.321a.572.572,0,0,1,.9-.7l8.04,10.321c.194.249.687,1.312.438,1.506S459.431,3645.61,459.237,3645.36Z" fill="#1d1d1b"/>
                <path id="Trazado_631268" data-name="Trazado 631268" d="M457.652,3642.447l-.226.581-.246,1.031a1.285,1.285,0,0,1-.833.355l-.456.718c-.1.181-.35.224-.706.156l-.564.576c-.36.3-1.288.11-2.375.05a8.324,8.324,0,0,0,1.351-4.11l-1.142-1.745,4.592,1.562Z" fill="#fcaf75" opacity="0.5" style="mix-blend-mode: multiply;isolation: isolate"/>
                <path id="Trazado_631269" data-name="Trazado 631269" d="M451.808,3639.517l2.042,1.709,2.747.855c1.062.345,1.5-.948.47-1.474-.122-.063-2.189-.916-2.189-.916l-1.686-2.094A1.336,1.336,0,0,0,451.808,3639.517Z" fill="#fcaf75"/>
                <path id="Trazado_631270" data-name="Trazado 631270" d="M453.9,3638.187l-1.2-.138,2.179,1.642-.6-1.5Z" fill="#fcaf75" opacity="0.5" style="mix-blend-mode: multiply;isolation: isolate"/>
                <path id="Trazado_631271" data-name="Trazado 631271" d="M460.686,3646.386a.082.082,0,0,1-.061-.032l-.153-.2c-.045-.047.083-.166.13-.1l.153.2a.083.083,0,0,1-.015.116A.082.082,0,0,1,460.686,3646.386Z" fill="#b2b2b2"/>
              </g>
            </g>
            <path id="Trazado_631272" data-name="Trazado 631272" d="M474.323,3637.518c.417.692-.334,1.479-.895.966l-.25-.131c.25.489-.477,1.348-1.05.811l-.68-.632c-.059.692-.3,1.038-.978.584l-1.98-2.421-2.349-1.753v1.347l.739,1.312c.417.859-.334,1.563-.9.8l-.656-.919-.381-.525-.5-1.526a12.852,12.852,0,0,1,.572-3.424l-.8-.656,2.362-1.658,1.2.692a9.666,9.666,0,0,1,4.389,2.648l1.873,2.779c.6.764.632,1.5-.048,1.253Z" fill="#fcaf75"/>
            <path id="Trazado_631273" data-name="Trazado 631273" d="M461.065,3621.025a8.465,8.465,0,0,0-7.495,3.716,44.909,44.909,0,0,0,11.034,9.032c-.171-1.425,2.129-3.944,3.437-3.322C465.207,3625.665,464.041,3623.966,461.065,3621.025Z" fill="#fff"/>
            <g id="Grupo_949543" data-name="Grupo 949543">
              <g id="Grupo_949540" data-name="Grupo 949540">
                <rect id="Rectángulo_338223" data-name="Rectángulo 338223" width="5.053" height="1.649" transform="matrix(0.866, -0.5, 0.5, 0.866, 491.547, 3647.544)" fill="#333332"/>
                <path id="Trazado_631274" data-name="Trazado 631274" d="M475.793,3638.474l16.924,9.723c0,.763-.526,1.067-1.175.692l-14.573-8.366a2.6,2.6,0,0,1-1.176-2.036Z" fill="#333332"/>
                <path id="Trazado_631275" data-name="Trazado 631275" d="M514.333,3635.615l-16.878-9.647-21.662,12.507,16.924,9.723Z" fill="#575756"/>
                <g id="Grupo_949539" data-name="Grupo 949539">
                  <path id="Trazado_631276" data-name="Trazado 631276" d="M490.584,3644.236l.962.556-1.191.687-.962-.556Z" fill="#dadada"/>
                  <path id="Trazado_631277" data-name="Trazado 631277" d="M494.4,3643.146l-1.19.687-.963-.556,1.191-.687Z" fill="#dadada"/>
                  <path id="Trazado_631278" data-name="Trazado 631278" d="M494.859,3641.767l.963.556-1.191.687-.963-.556Z" fill="#dadada"/>
                  <path id="Trazado_631279" data-name="Trazado 631279" d="M496.284,3640.945l.962.556-1.19.688-.963-.556Z" fill="#dadada"/>
                  <path id="Trazado_631280" data-name="Trazado 631280" d="M497.709,3640.122l.963.556-1.191.687-.962-.556Z" fill="#dadada"/>
                  <path id="Trazado_631281" data-name="Trazado 631281" d="M501.521,3639.032l-1.191.687-.962-.556,1.19-.687Z" fill="#dadada"/>
                  <path id="Trazado_631282" data-name="Trazado 631282" d="M501.984,3637.654l.962.556-1.191.687-.962-.556Z" fill="#dadada"/>
                  <path id="Trazado_631283" data-name="Trazado 631283" d="M503.409,3636.831l.963.556-1.191.688-.963-.556Z" fill="#dadada"/>
                  <path id="Trazado_631284" data-name="Trazado 631284" d="M499.5,3632.656l-.962-.556,1.19-.687.963.556Z" fill="#dadada"/>
                  <path id="Trazado_631285" data-name="Trazado 631285" d="M500.923,3631.834l-.962-.556,1.191-.687.962.556Z" fill="#dadada"/>
                  <path id="Trazado_631286" data-name="Trazado 631286" d="M501.385,3630.455l1.19-.687.963.556-1.191.688Z" fill="#dadada"/>
                  <path id="Trazado_631287" data-name="Trazado 631287" d="M484.329,3641.773l-.963-.556,1.19-.687.963.556Z" fill="#dadada"/>
                  <path id="Trazado_631288" data-name="Trazado 631288" d="M485.754,3640.95l-.963-.556,1.191-.687.963.556Z" fill="#dadada"/>
                  <path id="Trazado_631289" data-name="Trazado 631289" d="M494.07,3636.149l-2.16,1.247-.456.263-.235.135-.6.344-.83.479-1.19.688-1.425.823-.963-.556,3.9-2.253.137-.079,2.85-1.646Z" fill="#dadada"/>
                  <path id="Trazado_631290" data-name="Trazado 631290" d="M494.3,3636.013l-.962-.556,1.19-.687.963.556Z" fill="#dadada"/>
                  <path id="Trazado_631291" data-name="Trazado 631291" d="M495.729,3635.191l-.962-.556,1.19-.687.963.556Z" fill="#dadada"/>
                  <path id="Trazado_631292" data-name="Trazado 631292" d="M496.192,3633.812l1.19-.687.963.556-1.191.688Z" fill="#dadada"/>
                  <path id="Trazado_631293" data-name="Trazado 631293" d="M499.732,3632.792l1.19-.687.963.556-1.191.687Z" fill="#dadada"/>
                  <path id="Trazado_631294" data-name="Trazado 631294" d="M501.157,3631.969l1.19-.687.963.556-1.191.687Z" fill="#dadada"/>
                  <path id="Trazado_631295" data-name="Trazado 631295" d="M502.582,3631.146l1.191-.687.963.556-1.191.687Z" fill="#dadada"/>
                  <path id="Trazado_631296" data-name="Trazado 631296" d="M484.564,3641.908l1.191-.687.962.556-1.19.688Z" fill="#dadada"/>
                  <path id="Trazado_631297" data-name="Trazado 631297" d="M488.142,3640.954l-1.191.687-.963-.556,1.191-.687Z" fill="#dadada"/>
                  <path id="Trazado_631298" data-name="Trazado 631298" d="M489.567,3640.131l-1.19.688-.963-.556,1.191-.687Z" fill="#dadada"/>
                  <path id="Trazado_631299" data-name="Trazado 631299" d="M490.992,3639.308l-1.19.687-.963-.556,1.19-.687Z" fill="#dadada"/>
                  <path id="Trazado_631300" data-name="Trazado 631300" d="M492.417,3638.486l-1.19.687-.963-.556,1.191-.687Z" fill="#dadada"/>
                  <path id="Trazado_631301" data-name="Trazado 631301" d="M493.842,3637.663l-1.19.688-.963-.556,1.191-.687Z" fill="#dadada"/>
                  <path id="Trazado_631302" data-name="Trazado 631302" d="M495.267,3636.84l-1.191.688-.962-.556,1.19-.687Z" fill="#dadada"/>
                  <path id="Trazado_631303" data-name="Trazado 631303" d="M496.692,3636.017l-1.191.688-.962-.556,1.19-.687Z" fill="#dadada"/>
                  <path id="Trazado_631304" data-name="Trazado 631304" d="M498.117,3635.194l-1.191.688-.962-.556,1.19-.687Z" fill="#dadada"/>
                  <path id="Trazado_631305" data-name="Trazado 631305" d="M500.929,3633.483l1.191-.687.963.556-1.191.687Z" fill="#dadada"/>
                  <path id="Trazado_631306" data-name="Trazado 631306" d="M504.507,3632.529l-1.19.687-.963-.556,1.191-.687Z" fill="#dadada"/>
                  <path id="Trazado_631307" data-name="Trazado 631307" d="M503.779,3631.838l1.191-.687.963.556-1.19.687Z" fill="#dadada"/>
                  <path id="Trazado_631308" data-name="Trazado 631308" d="M485.761,3642.6l1.19-.687.963.556-1.19.687Z" fill="#dadada"/>
                  <path id="Trazado_631309" data-name="Trazado 631309" d="M489.339,3641.645l-1.19.688-.963-.556,1.19-.687Z" fill="#dadada"/>
                  <path id="Trazado_631310" data-name="Trazado 631310" d="M488.611,3640.954l1.191-.687.963.555-1.191.688Z" fill="#dadada"/>
                  <path id="Trazado_631311" data-name="Trazado 631311" d="M490.036,3640.131l1.19-.687.963.556-1.19.688Z" fill="#dadada"/>
                  <path id="Trazado_631312" data-name="Trazado 631312" d="M491.461,3639.308l1.191-.687.963.556-1.191.687Z" fill="#dadada"/>
                  <path id="Trazado_631313" data-name="Trazado 631313" d="M492.886,3638.486l1.191-.688.963.556-1.191.687Z" fill="#dadada"/>
                  <path id="Trazado_631314" data-name="Trazado 631314" d="M496.464,3637.531l-1.191.687-.962-.556,1.19-.687Z" fill="#dadada"/>
                  <path id="Trazado_631315" data-name="Trazado 631315" d="M495.736,3636.84l1.191-.687.963.555-1.191.688Z" fill="#dadada"/>
                  <path id="Trazado_631316" data-name="Trazado 631316" d="M499.548,3635.75l-1.425.823-.962-.556,1.425-.823-1.2-.691,1.19-.687,1.2.691.39.225.573.331-.8.459Z" fill="#dadada"/>
                  <path id="Trazado_631317" data-name="Trazado 631317" d="M503.089,3634.73l-.963-.556,1.191-.687.963.555Z" fill="#dadada"/>
                  <path id="Trazado_631318" data-name="Trazado 631318" d="M504.742,3632.664l.962.556-1.19.688-.963-.556Z" fill="#dadada"/>
                  <path id="Trazado_631319" data-name="Trazado 631319" d="M504.976,3632.529l1.191-.687.963.556-1.19.687Z" fill="#dadada"/>
                  <path id="Trazado_631320" data-name="Trazado 631320" d="M486.958,3643.291l1.191-.687.962.556-1.191.687Z" fill="#dadada"/>
                  <path id="Trazado_631321" data-name="Trazado 631321" d="M489.345,3643.023l-.963-.555,1.19-.687.963.556Z" fill="#dadada"/>
                  <path id="Trazado_631322" data-name="Trazado 631322" d="M489.808,3641.645l1.191-.687.962.556-1.19.688Z" fill="#dadada"/>
                  <path id="Trazado_631323" data-name="Trazado 631323" d="M492.423,3640.135l.963.556-1.191.687-.963-.556Z" fill="#dadada"/>
                  <path id="Trazado_631324" data-name="Trazado 631324" d="M492.658,3640l1.191-.687.962.556-1.19.687Z" fill="#dadada"/>
                  <path id="Trazado_631325" data-name="Trazado 631325" d="M494.083,3639.177l1.191-.687.962.556-1.19.687Z" fill="#dadada"/>
                  <path id="Trazado_631326" data-name="Trazado 631326" d="M496.47,3638.909l-.963-.556,1.19-.687.962.556Z" fill="#dadada"/>
                  <path id="Trazado_631327" data-name="Trazado 631327" d="M496.933,3637.531l1.19-.687.963.556-1.19.688Z" fill="#dadada"/>
                  <path id="Trazado_631328" data-name="Trazado 631328" d="M499.783,3635.885l.434-.251.756-.437.963.556-.756.437-.434.25-1.425.823-.963-.556Z" fill="#dadada"/>
                  <path id="Trazado_631329" data-name="Trazado 631329" d="M506.673,3635.425l-1.19.687-.963-.556,1.19-.687Z" fill="#dadada"/>
                  <path id="Trazado_631330" data-name="Trazado 631330" d="M507.136,3634.046l.963.556-1.191.687-.963-.556Z" fill="#dadada"/>
                  <path id="Trazado_631331" data-name="Trazado 631331" d="M508.561,3633.224l.962.556-1.19.687-.963-.556Z" fill="#dadada"/>
                </g>
                <path id="Trazado_631332" data-name="Trazado 631332" d="M486.1,3634l2.856,1.649a.519.519,0,0,0,.47,0l4.309-2.488a.143.143,0,0,0,0-.271l-2.856-1.649a.518.518,0,0,0-.47,0l-4.309,2.488A.143.143,0,0,0,486.1,3634Z" fill="#878787"/>
              </g>
              <g id="Grupo_949542" data-name="Grupo 949542">
                <g id="Grupo_949541" data-name="Grupo 949541">
                  <path id="Trazado_631333" data-name="Trazado 631333" d="M514.394,3635.9l4.661-17.032a2.427,2.427,0,0,1,.833,2.152l-4.038,14.775c-.172.624-.819.675-1.445.115Z" fill="#4a4a49"/>
                  <path id="Trazado_631334" data-name="Trazado 631334" d="M497.408,3631.362l-3.538,17.371,21.647-12.5,3.538-17.371Z" fill="#4a4a49"/>
                  <path id="Trazado_631335" data-name="Trazado 631335" d="M492.732,3648.4l4.661-17.033a2.429,2.429,0,0,1,.834,2.153l-4.039,14.775c-.172.623-.818.675-1.444.115Z" fill="#333332"/>
                </g>
                <path id="Trazado_631336" data-name="Trazado 631336" d="M506.532,3634.511c-.122.735.335,1.034,1.019.666a3.159,3.159,0,0,0,1.459-2c.122-.735-.335-1.033-1.019-.666A3.16,3.16,0,0,0,506.532,3634.511Z" fill="#dadada"/>
              </g>
            </g>
            <g id="Grupo_949550" data-name="Grupo 949550">
              <g id="Grupo_949544" data-name="Grupo 949544">
                <path id="Trazado_631337" data-name="Trazado 631337" d="M460.389,3658.565l-12.241,9.083-19.932-8.635,12.241-9.083Z" fill="#fff"/>
                <path id="Trazado_631338" data-name="Trazado 631338" d="M440.811,3652.144l-8.848,6.565-.6-.262,8.848-6.566Z" fill="#1d1d1b"/>
                <path id="Trazado_631339" data-name="Trazado 631339" d="M442.466,3652.861l-8.848,6.565-.372-.161,8.848-6.565Z" fill="#1d1d1b"/>
                <path id="Trazado_631340" data-name="Trazado 631340" d="M443.466,3653.294l-8.848,6.565-.372-.161,8.848-6.565Z" fill="#1d1d1b"/>
                <path id="Trazado_631341" data-name="Trazado 631341" d="M444.466,3653.727l-8.848,6.565-.372-.161,8.848-6.565Z" fill="#1d1d1b"/>
                <path id="Trazado_631342" data-name="Trazado 631342" d="M446.465,3654.593l-8.848,6.565-.372-.161,8.848-6.565Z" fill="#1d1d1b"/>
                <path id="Trazado_631343" data-name="Trazado 631343" d="M447.464,3655.026l-8.848,6.566-.372-.161,8.848-6.565Z" fill="#1d1d1b"/>
                <path id="Trazado_631344" data-name="Trazado 631344" d="M443,3659.511l-3.388,2.514-.372-.161,3.388-2.514Z" fill="#1d1d1b"/>
                <path id="Trazado_631345" data-name="Trazado 631345" d="M449.463,3655.892l-8.848,6.565-.372-.161,8.848-6.565Z" fill="#1d1d1b"/>
                <path id="Trazado_631346" data-name="Trazado 631346" d="M450.463,3656.325l-8.848,6.565-.372-.161,8.848-6.565Z" fill="#1d1d1b"/>
                <path id="Trazado_631347" data-name="Trazado 631347" d="M449.39,3658.3l-6.776,5.028-.372-.161,6.776-5.028Z" fill="#1d1d1b"/>
                <path id="Trazado_631348" data-name="Trazado 631348" d="M449.559,3661.7l-3.946,2.928-.372-.161,3.946-2.928Z" fill="#1d1d1b"/>
                <path id="Trazado_631349" data-name="Trazado 631349" d="M450.559,3662.128l-3.946,2.928-.372-.161,3.946-2.928Z" fill="#1d1d1b"/>
              </g>
              <g id="Grupo_949549" data-name="Grupo 949549">
                <path id="Trazado_631350" data-name="Trazado 631350" d="M456.281,3660.232a4.567,4.567,0,0,1-4.1.473,1.259,1.259,0,0,1-.273-2.367,4.57,4.57,0,0,1,4.1-.472A1.258,1.258,0,0,1,456.281,3660.232Zm-4.224-1.83a1.173,1.173,0,0,0,.254,2.207,4.259,4.259,0,0,0,3.823-.44,1.173,1.173,0,0,0-.255-2.207A4.257,4.257,0,0,0,452.057,3658.4Z" fill="#1d71b8"/>
                <path id="Trazado_631351" data-name="Trazado 631351" d="M455.962,3660.094a3.9,3.9,0,0,1-3.5.4,1.075,1.075,0,0,1-.233-2.021,3.9,3.9,0,0,1,3.5-.4A1.075,1.075,0,0,1,455.962,3660.094Zm-3.635-1.575a1.018,1.018,0,0,0,.22,1.915,3.7,3.7,0,0,0,3.316-.382,1.018,1.018,0,0,0-.22-1.915A3.693,3.693,0,0,0,452.327,3658.519Z" fill="#1d71b8"/>
                <path id="Trazado_631352" data-name="Trazado 631352" d="M455.207,3659.767a2.323,2.323,0,0,1-2.085.24.64.64,0,0,1-.139-1.2,2.326,2.326,0,0,1,2.085-.241A.64.64,0,0,1,455.207,3659.767Zm-2.125-.921a.584.584,0,0,0,.126,1.1,2.123,2.123,0,0,0,1.9-.219.584.584,0,0,0-.127-1.1A2.116,2.116,0,0,0,453.082,3658.846Z" fill="#1d71b8"/>
                <g id="Grupo_949545" data-name="Grupo 949545">
                  <path id="Trazado_631353" data-name="Trazado 631353" d="M453.219,3658.525c-.039,0-.408-.083-.408-.083l.218.163c-.036.018-.3-.182-.3-.182a2.291,2.291,0,0,1,.416.066l-.218-.163c.037-.018.306.183.306.183S453.224,3658.523,453.219,3658.525Z" fill="#1d71b8"/>
                  <path id="Trazado_631354" data-name="Trazado 631354" d="M453.434,3658.448a.345.345,0,0,1-.055.013.517.517,0,0,1-.218-.151c.091-.122.11-.126.128-.129a.514.514,0,0,1,.217.15C453.468,3658.435,453.452,3658.442,453.434,3658.448Zm-.053-.21a.081.081,0,0,0-.055-.031.158.158,0,0,0-.076.008.116.116,0,0,0-.055.034.585.585,0,0,0,.092.154.082.082,0,0,0,.055.033.172.172,0,0,0,.075-.009.1.1,0,0,0,.056-.035A.6.6,0,0,0,453.381,3658.238Z" fill="#1d71b8"/>
                  <path id="Trazado_631355" data-name="Trazado 631355" d="M453.748,3658.065c.01.024-.1.047-.1.047l.1.242c-.044.009-.141-.233-.141-.233l-.112.023C453.482,3658.121,453.748,3658.065,453.748,3658.065Z" fill="#1d71b8"/>
                  <path id="Trazado_631356" data-name="Trazado 631356" d="M453.86,3658.34c-.026-.011.092-.294.092-.294.054-.006.22.246.22.246-.043.012-.08-.045-.08-.045l-.189.02-.026.064A.036.036,0,0,1,453.86,3658.34Zm.218-.115-.1-.15-.068.168Z" fill="#1d71b8"/>
                  <path id="Trazado_631357" data-name="Trazado 631357" d="M454.282,3658.023a.829.829,0,0,1,.139-.009.59.59,0,0,0,.077.277c-.048,0-.122-.117-.122-.117h-.086l-.031.124C454.215,3658.3,454.282,3658.023,454.282,3658.023Zm.041.015-.028.112h.092a.193.193,0,0,0,.077-.012.061.061,0,0,0,.039-.044c-.035-.051-.058-.056-.088-.056Z" fill="#1d71b8"/>
                  <path id="Trazado_631358" data-name="Trazado 631358" d="M454.7,3658.217l-.041-.177c.043-.005.077.153.077.153l.2-.127c.031.015-.194.153-.194.153l-.062.1C454.64,3658.316,454.7,3658.217,454.7,3658.217Z" fill="#1d71b8"/>
                  <path id="Trazado_631359" data-name="Trazado 631359" d="M455.229,3658.135a.652.652,0,0,1,.128.031c.014.131,0,.141-.019.149a.728.728,0,0,1-.233-.022l-.105.1C454.963,3658.377,455.229,3658.135,455.229,3658.135Zm.022.025-.123.113.08.027a.151.151,0,0,0,.073.006.138.138,0,0,0,.066-.034c.025-.023.034-.039.029-.052s-.019-.025-.044-.033Z" fill="#1d71b8"/>
                  <path id="Trazado_631360" data-name="Trazado 631360" d="M455.733,3658.35c.031.017-.219.171-.219.171a.233.233,0,0,1-.058.026c-.137-.134.113-.288.113-.288.031.017-.22.171-.22.171-.026.016-.039.031-.04.045.051.051.074.056.1.055a.16.16,0,0,0,.075-.026Z" fill="#1d71b8"/>
                  <path id="Trazado_631361" data-name="Trazado 631361" d="M455.864,3658.437c.026,0,.083.055.083.055-.052.117-.076.123-.1.125a.146.146,0,0,1-.056,0c-.1.089-.118.095-.137.1a.471.471,0,0,1-.194-.089C455.466,3658.607,455.864,3658.437,455.864,3658.437Zm-.3.227a.093.093,0,0,0,.057.024.169.169,0,0,0,.079-.017c.04-.017.057-.03.061-.043a.322.322,0,0,0-.068-.086l-.18.077Zm.162-.136.046.041a.1.1,0,0,0,.052.025.147.147,0,0,0,.071-.015.111.111,0,0,0-.026-.112Z" fill="#1d71b8"/>
                  <path id="Trazado_631362" data-name="Trazado 631362" d="M455.626,3658.786c.01-.016.446-.143.446-.143a2.214,2.214,0,0,1-.4.144l.068.1C455.7,3658.9,455.626,3658.786,455.626,3658.786Z" fill="#1d71b8"/>
                  <path id="Trazado_631363" data-name="Trazado 631363" d="M456.181,3658.829a2.641,2.641,0,0,1-.443.121A2.641,2.641,0,0,1,456.181,3658.829Z" fill="#1d71b8"/>
                  <path id="Trazado_631364" data-name="Trazado 631364" d="M456.135,3659.083c.024-.111,0-.113-.039-.108l-.211.027a.163.163,0,0,0-.076.025.085.085,0,0,1,.073-.051l.21-.027a.328.328,0,0,1,.068,0C456.126,3659.086,456.13,3659.084,456.135,3659.083Z" fill="#1d71b8"/>
                </g>
                <g id="Grupo_949546" data-name="Grupo 949546">
                  <path id="Trazado_631365" data-name="Trazado 631365" d="M455.05,3660.008c.039,0,.411.072.411.072l-.23-.158c.035-.019.318.175.318.175a2.272,2.272,0,0,1-.418-.055l.23.158c-.035.02-.318-.175-.318-.175S455.045,3660.011,455.05,3660.008Z" fill="#1d71b8"/>
                  <path id="Trazado_631366" data-name="Trazado 631366" d="M454.856,3660.086a.454.454,0,0,1,.275.133c-.249.094-.338-.012-.338-.012C454.823,3660.1,454.839,3660.093,454.856,3660.086Zm.066.213a.087.087,0,0,0,.055.031.152.152,0,0,0,.073-.011.1.1,0,0,0,.052-.037.626.626,0,0,0-.1-.155.086.086,0,0,0-.056-.031.152.152,0,0,0-.073.011.094.094,0,0,0-.052.036A.649.649,0,0,0,454.922,3660.3Z" fill="#1d71b8"/>
                  <path id="Trazado_631367" data-name="Trazado 631367" d="M454.571,3660.488c-.011-.023.1-.05.1-.05l-.1-.247c.042-.011.147.236.147.236l.107-.027C454.827,3660.424,454.571,3660.488,454.571,3660.488Z" fill="#1d71b8"/>
                  <path id="Trazado_631368" data-name="Trazado 631368" d="M454.442,3660.21c.026.011-.079.308-.079.308-.052.007-.221-.248-.221-.248.041-.014.079.044.079.044l.182-.027.022-.067A.034.034,0,0,1,454.442,3660.21Zm-.207.126.1.152.061-.176Z" fill="#1d71b8"/>
                  <path id="Trazado_631369" data-name="Trazado 631369" d="M454.05,3660.553a.758.758,0,0,1-.134.015.628.628,0,0,0-.081-.282c.046-.007.121.115.121.115l.083,0,.026-.129C454.108,3660.267,454.05,3660.553,454.05,3660.553Zm-.039-.014.023-.117-.089,0a.174.174,0,0,0-.073.016.068.068,0,0,0-.037.047c.035.052.058.056.087.054Z" fill="#1d71b8"/>
                  <path id="Trazado_631370" data-name="Trazado 631370" d="M453.63,3660.374l.045.179c-.041.008-.079-.153-.079-.153l-.193.144c-.031-.014.183-.169.183-.169l.056-.109C453.684,3660.269,453.63,3660.374,453.63,3660.374Z" fill="#1d71b8"/>
                  <path id="Trazado_631371" data-name="Trazado 631371" d="M453.113,3660.5a.562.562,0,0,1-.127-.021c-.019-.131,0-.143.012-.152a.678.678,0,0,1,.23,0l.1-.106C453.365,3660.229,453.113,3660.5,453.113,3660.5Zm-.023-.024.117-.124-.08-.02a.139.139,0,0,0-.072,0,.148.148,0,0,0-.064.04c-.024.025-.031.042-.026.055s.02.023.045.03Z" fill="#1d71b8"/>
                  <path id="Trazado_631372" data-name="Trazado 631372" d="M452.606,3660.327c-.032-.013.2-.192.2-.192a.3.3,0,0,1,.055-.032c.181.092.168.1.15.119l-.235.179c-.032-.014.2-.192.2-.192.024-.019.036-.035.036-.049-.056-.045-.08-.048-.1-.044a.145.145,0,0,0-.072.033Z" fill="#1d71b8"/>
                  <path id="Trazado_631373" data-name="Trazado 631373" d="M452.467,3660.256a.324.324,0,0,1-.091-.044c.037-.12.06-.129.082-.134a.164.164,0,0,1,.057,0c.087-.1.106-.107.126-.112a.486.486,0,0,1,.207.064C452.846,3660.044,452.467,3660.256,452.467,3660.256Zm.131-.105-.052-.035a.1.1,0,0,0-.057-.018.146.146,0,0,0-.069.022.111.111,0,0,0,.042.107Zm.145-.152a.1.1,0,0,0-.061-.016.179.179,0,0,0-.077.025c-.039.021-.054.036-.056.05a.328.328,0,0,0,.081.075l.171-.095Z" fill="#1d71b8"/>
                  <path id="Trazado_631374" data-name="Trazado 631374" d="M452.662,3659.892c-.007.016-.429.193-.429.193a2.169,2.169,0,0,1,.38-.188l-.087-.089C452.564,3659.792,452.662,3659.892,452.662,3659.892Z" fill="#1d71b8"/>
                  <path id="Trazado_631375" data-name="Trazado 631375" d="M452.085,3659.916a2.755,2.755,0,0,1,.43-.171A2.626,2.626,0,0,1,452.085,3659.916Z" fill="#1d71b8"/>
                  <path id="Trazado_631376" data-name="Trazado 631376" d="M452.112,3659.666c0,.108.028.106.063.1l.211-.052a.172.172,0,0,0,.074-.033.077.077,0,0,1-.064.057l-.211.052a.336.336,0,0,1-.07.01C452.12,3659.662,452.117,3659.664,452.112,3659.666Z" fill="#1d71b8"/>
                </g>
                <path id="Trazado_631377" data-name="Trazado 631377" d="M455.01,3659.682a1.912,1.912,0,0,1-1.716.2.527.527,0,0,1-.114-.991,1.91,1.91,0,0,1,1.716-.2A.527.527,0,0,1,455.01,3659.682Zm-1.732-.751a.47.47,0,0,0,.1.885,1.706,1.706,0,0,0,1.532-.177.47.47,0,0,0-.1-.884A1.709,1.709,0,0,0,453.278,3658.931Z" fill="#1d71b8"/>
                <g id="Grupo_949547" data-name="Grupo 949547">
                  <path id="Trazado_631378" data-name="Trazado 631378" d="M452.619,3658.939c-.008.05-.213.05-.213.05l.054.113c-.083.016-.124-.1-.124-.1l-.171.076c-.042-.039.136-.111.136-.111l-.155-.061c.055-.04.2.028.2.028l.075-.116c.076.013-.008.124-.008.124Z" fill="#1d71b8"/>
                </g>
                <g id="Grupo_949548" data-name="Grupo 949548">
                  <path id="Trazado_631379" data-name="Trazado 631379" d="M456.087,3659.57c-.008.05-.213.05-.213.05l.053.113c-.082.015-.123-.1-.123-.1l-.171.076c-.042-.04.135-.112.135-.112l-.154-.06c.054-.041.2.028.2.028l.075-.116c.077.013-.007.124-.007.124Z" fill="#1d71b8"/>
                </g>
              </g>
            </g>
            <g id="Grupo_949557" data-name="Grupo 949557">
              <g id="Grupo_949551" data-name="Grupo 949551">
                <path id="Trazado_631380" data-name="Trazado 631380" d="M466.007,3661.554l-13.2,7.622-18.812-10.861,13.2-7.622Z" fill="#fff"/>
                <path id="Trazado_631381" data-name="Trazado 631381" d="M447.293,3652.933l-9.542,5.509-.57-.329,9.542-5.509Z" fill="#1d1d1b"/>
                <path id="Trazado_631382" data-name="Trazado 631382" d="M448.856,3653.835l-9.542,5.509-.351-.2,9.542-5.509Z" fill="#1d1d1b"/>
                <path id="Trazado_631383" data-name="Trazado 631383" d="M449.8,3654.38l-9.542,5.509-.351-.2,9.542-5.509Z" fill="#1d1d1b"/>
                <path id="Trazado_631384" data-name="Trazado 631384" d="M450.742,3654.925l-9.542,5.509-.351-.2,9.542-5.509Z" fill="#1d1d1b"/>
                <path id="Trazado_631385" data-name="Trazado 631385" d="M452.629,3656.014l-9.542,5.509-.351-.2,9.542-5.509Z" fill="#1d1d1b"/>
                <path id="Trazado_631386" data-name="Trazado 631386" d="M453.573,3656.559l-9.542,5.509-.351-.2,9.542-5.509Z" fill="#1d1d1b"/>
                <path id="Trazado_631387" data-name="Trazado 631387" d="M448.628,3660.5l-3.653,2.109-.351-.2,3.653-2.109Z" fill="#1d1d1b"/>
                <path id="Trazado_631388" data-name="Trazado 631388" d="M455.459,3657.648l-9.542,5.509-.351-.2,9.542-5.509Z" fill="#1d1d1b"/>
                <path id="Trazado_631389" data-name="Trazado 631389" d="M456.4,3658.193l-9.542,5.509-.351-.2,9.542-5.509Z" fill="#1d1d1b"/>
                <path id="Trazado_631390" data-name="Trazado 631390" d="M455.111,3660.028l-7.307,4.219-.351-.2,7.307-4.219Z" fill="#1d1d1b"/>
                <path id="Trazado_631391" data-name="Trazado 631391" d="M454.89,3663.424l-4.255,2.457-.351-.2,4.255-2.457Z" fill="#1d1d1b"/>
                <path id="Trazado_631392" data-name="Trazado 631392" d="M455.833,3663.969l-4.255,2.457-.351-.2,4.255-2.457Z" fill="#1d1d1b"/>
              </g>
              <g id="Grupo_949556" data-name="Grupo 949556">
                <path id="Trazado_631393" data-name="Trazado 631393" d="M461.735,3662.741a4.571,4.571,0,0,1-4.126,0,1.258,1.258,0,0,1,0-2.383,4.571,4.571,0,0,1,4.126,0A1.259,1.259,0,0,1,461.735,3662.741Zm-3.987-2.3a1.173,1.173,0,0,0,0,2.221,4.256,4.256,0,0,0,3.848,0,1.173,1.173,0,0,0,0-2.221A4.256,4.256,0,0,0,457.748,3660.439Z" fill="#1d71b8"/>
                <path id="Trazado_631394" data-name="Trazado 631394" d="M461.434,3662.567a3.9,3.9,0,0,1-3.524,0,1.075,1.075,0,0,1,0-2.035,3.9,3.9,0,0,1,3.524,0A1.075,1.075,0,0,1,461.434,3662.567ZM458,3660.586a1.018,1.018,0,0,0,0,1.927,3.7,3.7,0,0,0,3.338,0,1.018,1.018,0,0,0,0-1.927A3.7,3.7,0,0,0,458,3660.586Z" fill="#1d71b8"/>
                <path id="Trazado_631395" data-name="Trazado 631395" d="M460.721,3662.155a2.322,2.322,0,0,1-2.1,0,.639.639,0,0,1,0-1.211,2.322,2.322,0,0,1,2.1,0A.639.639,0,0,1,460.721,3662.155ZM458.715,3661a.584.584,0,0,0,0,1.1,2.121,2.121,0,0,0,1.913,0,.583.583,0,0,0,0-1.1A2.121,2.121,0,0,0,458.715,3661Z" fill="#1d71b8"/>
                <g id="Grupo_949552" data-name="Grupo 949552">
                  <path id="Trazado_631396" data-name="Trazado 631396" d="M458.889,3660.694c-.039,0-.4-.128-.4-.128l.2.186c-.039.014-.283-.216-.283-.216a2.359,2.359,0,0,1,.406.113l-.2-.187c.039-.013.283.216.283.216S458.894,3660.692,458.889,3660.694Z" fill="#1d71b8"/>
                  <path id="Trazado_631397" data-name="Trazado 631397" d="M459.111,3660.642a.368.368,0,0,1-.055.007.515.515,0,0,1-.2-.174c.1-.111.123-.114.141-.114a.5.5,0,0,1,.2.174C459.147,3660.633,459.13,3660.638,459.111,3660.642Zm-.029-.214a.084.084,0,0,0-.05-.038.17.17,0,0,0-.077,0,.1.1,0,0,0-.058.028.579.579,0,0,0,.073.163.088.088,0,0,0,.052.039.161.161,0,0,0,.075,0,.105.105,0,0,0,.059-.028A.585.585,0,0,0,459.082,3660.428Z" fill="#1d71b8"/>
                  <path id="Trazado_631398" data-name="Trazado 631398" d="M459.469,3660.3c.007.024-.107.035-.107.035l.069.251c-.044,0-.113-.247-.113-.247l-.114.01C459.2,3660.323,459.469,3660.3,459.469,3660.3Z" fill="#1d71b8"/>
                  <path id="Trazado_631399" data-name="Trazado 631399" d="M459.549,3660.584c-.025-.015.124-.282.124-.282.054,0,.19.27.19.27-.043.007-.074-.054-.074-.054l-.19,0-.033.061C459.556,3660.583,459.553,3660.584,459.549,3660.584Zm.229-.089-.079-.16-.087.159Z" fill="#1d71b8"/>
                  <path id="Trazado_631400" data-name="Trazado 631400" d="M460,3660.317a.8.8,0,0,1,.139.008.589.589,0,0,0,.044.283c-.048,0-.107-.13-.107-.13l-.086-.011-.044.119C459.906,3660.581,460,3660.317,460,3660.317Zm.039.02-.04.108.091.012a.19.19,0,0,0,.077,0,.062.062,0,0,0,.044-.038c-.028-.056-.051-.063-.08-.066Z" fill="#1d71b8"/>
                  <path id="Trazado_631401" data-name="Trazado 631401" d="M460.395,3660.557l-.02-.179c.043,0,.059.161.059.161l.216-.1c.029.019-.21.13-.21.13l-.073.095C460.325,3660.65,460.395,3660.557,460.395,3660.557Z" fill="#1d71b8"/>
                  <path id="Trazado_631402" data-name="Trazado 631402" d="M460.931,3660.537a.592.592,0,0,1,.124.045c0,.132-.019.14-.036.146a.721.721,0,0,1-.229-.048l-.116.083C460.639,3660.747,460.931,3660.537,460.931,3660.537Zm.019.028-.136.1.077.035a.153.153,0,0,0,.072.015.139.139,0,0,0,.07-.027c.028-.02.037-.035.034-.048s-.016-.027-.04-.038Z" fill="#1d71b8"/>
                  <path id="Trazado_631403" data-name="Trazado 631403" d="M461.406,3660.808c.028.02-.238.145-.238.145a.2.2,0,0,1-.06.019c-.121-.148.146-.273.146-.273.028.021-.238.145-.238.145-.028.013-.043.026-.045.04.045.056.067.064.091.065a.166.166,0,0,0,.078-.016Z" fill="#1d71b8"/>
                  <path id="Trazado_631404" data-name="Trazado 631404" d="M461.526,3660.909c.025.006.076.064.076.064-.065.11-.088.114-.111.114a.164.164,0,0,1-.055-.011c-.107.077-.128.081-.148.082a.469.469,0,0,1-.183-.11C461.111,3661.033,461.526,3660.909,461.526,3660.909Zm-.327.191a.091.091,0,0,0,.054.03.162.162,0,0,0,.08-.007c.042-.013.061-.024.066-.036a.315.315,0,0,0-.058-.093l-.187.055Zm.176-.117.042.046a.1.1,0,0,0,.049.031.145.145,0,0,0,.072-.006.113.113,0,0,0-.013-.115Z" fill="#1d71b8"/>
                  <path id="Trazado_631405" data-name="Trazado 631405" d="M461.25,3661.229c.012-.014.459-.091.459-.091a2.171,2.171,0,0,1-.411.1l.055.108C461.313,3661.351,461.25,3661.229,461.25,3661.229Z" fill="#1d71b8"/>
                  <path id="Trazado_631406" data-name="Trazado 631406" d="M461.8,3661.335a2.6,2.6,0,0,1-.453.07A2.6,2.6,0,0,1,461.8,3661.335Z" fill="#1d71b8"/>
                  <path id="Trazado_631407" data-name="Trazado 631407" d="M461.722,3661.583c.036-.109.01-.113-.026-.112l-.212,0a.154.154,0,0,0-.079.017.082.082,0,0,1,.077-.043l.213,0a.338.338,0,0,1,.068.006C461.713,3661.584,461.717,3661.583,461.722,3661.583Z" fill="#1d71b8"/>
                </g>
                <g id="Grupo_949553" data-name="Grupo 949553">
                  <path id="Trazado_631408" data-name="Trazado 631408" d="M460.539,3662.377c.039,0,.4.118.4.118l-.211-.183c.037-.015.3.21.3.21a2.339,2.339,0,0,1-.409-.1l.211.183c-.037.015-.3-.21-.3-.21S460.534,3662.378,460.539,3662.377Z" fill="#1d71b8"/>
                  <path id="Trazado_631409" data-name="Trazado 631409" d="M460.337,3662.432a.456.456,0,0,1,.258.164c-.258.065-.335-.051-.335-.051C460.3,3662.442,460.319,3662.437,460.337,3662.432Zm.04.219a.084.084,0,0,0,.052.037.158.158,0,0,0,.074,0,.1.1,0,0,0,.056-.03.638.638,0,0,0-.081-.165.09.09,0,0,0-.052-.038.158.158,0,0,0-.074,0,.093.093,0,0,0-.056.03A.633.633,0,0,0,460.377,3662.651Z" fill="#1d71b8"/>
                  <path id="Trazado_631410" data-name="Trazado 631410" d="M460.009,3662.8c-.008-.025.1-.039.1-.039l-.076-.257c.043-.006.119.251.119.251l.111-.015C460.271,3662.764,460.009,3662.8,460.009,3662.8Z" fill="#1d71b8"/>
                  <path id="Trazado_631411" data-name="Trazado 631411" d="M459.911,3662.508c.024.014-.113.3-.113.3-.053,0-.191-.271-.191-.271.042-.008.072.053.072.053l.184-.006.031-.064C459.9,3662.509,459.907,3662.508,459.911,3662.508Zm-.22.1.081.162.08-.167Z" fill="#1d71b8"/>
                  <path id="Trazado_631412" data-name="Trazado 631412" d="M459.483,3662.8a.667.667,0,0,1-.135,0,.623.623,0,0,0-.048-.289c.046,0,.107.128.107.128l.083.006.04-.125C459.573,3662.527,459.483,3662.8,459.483,3662.8Zm-.038-.018.037-.114-.088-.006a.183.183,0,0,0-.076.007.068.068,0,0,0-.041.042c.028.056.05.062.08.065Z" fill="#1d71b8"/>
                  <path id="Trazado_631413" data-name="Trazado 631413" d="M459.086,3662.578l.025.183c-.042,0-.062-.161-.062-.161l-.208.12c-.029-.017.2-.147.2-.147l.069-.1C459.152,3662.479,459.086,3662.578,459.086,3662.578Z" fill="#1d71b8"/>
                  <path id="Trazado_631414" data-name="Trazado 631414" d="M458.559,3662.639a.612.612,0,0,1-.124-.035c0-.133.013-.143.03-.151a.684.684,0,0,1,.227.03l.112-.093C458.839,3662.4,458.559,3662.639,458.559,3662.639Zm-.02-.026.13-.11-.077-.03a.139.139,0,0,0-.072-.008.128.128,0,0,0-.068.032c-.026.022-.035.038-.032.052s.017.025.041.034Z" fill="#1d71b8"/>
                  <path id="Trazado_631415" data-name="Trazado 631415" d="M458.073,3662.414c-.03-.017.224-.167.224-.167a.232.232,0,0,1,.058-.026c.135.135-.119.286-.119.286-.03-.018.224-.168.224-.168.026-.015.04-.03.041-.045-.051-.05-.073-.056-.1-.055a.16.16,0,0,0-.076.025Z" fill="#1d71b8"/>
                  <path id="Trazado_631416" data-name="Trazado 631416" d="M457.944,3662.327a.3.3,0,0,1-.086-.054c.051-.115.075-.121.1-.124a.145.145,0,0,1,.057.005c.1-.088.118-.094.137-.1a.5.5,0,0,1,.2.087C458.345,3662.16,457.944,3662.327,457.944,3662.327Zm.142-.089-.048-.041a.111.111,0,0,0-.054-.025.15.15,0,0,0-.072.015.113.113,0,0,0,.029.111Zm.161-.135a.1.1,0,0,0-.058-.023.17.17,0,0,0-.08.017c-.04.017-.058.029-.061.042a.322.322,0,0,0,.071.085l.181-.076Z" fill="#1d71b8"/>
                  <path id="Trazado_631417" data-name="Trazado 631417" d="M458.179,3661.988c-.009.015-.448.142-.448.142a2.243,2.243,0,0,1,.4-.143l-.076-.1C458.093,3661.878,458.179,3661.988,458.179,3661.988Z" fill="#1d71b8"/>
                  <path id="Trazado_631418" data-name="Trazado 631418" d="M457.6,3661.946a2.83,2.83,0,0,1,.447-.12A2.678,2.678,0,0,1,457.6,3661.946Z" fill="#1d71b8"/>
                  <path id="Trazado_631419" data-name="Trazado 631419" d="M457.659,3661.7c-.013.108.015.109.051.1l.216-.027a.162.162,0,0,0,.077-.025.076.076,0,0,1-.07.05l-.216.027a.356.356,0,0,1-.07,0C457.667,3661.7,457.664,3661.7,457.659,3661.7Z" fill="#1d71b8"/>
                </g>
                <path id="Trazado_631420" data-name="Trazado 631420" d="M460.536,3662.048a1.913,1.913,0,0,1-1.728,0,.527.527,0,0,1,0-1,1.912,1.912,0,0,1,1.728,0A.527.527,0,0,1,460.536,3662.048Zm-1.635-.944a.471.471,0,0,0,0,.891,1.71,1.71,0,0,0,1.542,0,.471.471,0,0,0,0-.891A1.709,1.709,0,0,0,458.9,3661.1Z" fill="#1d71b8"/>
                <g id="Grupo_949554" data-name="Grupo 949554">
                  <path id="Trazado_631421" data-name="Trazado 631421" d="M458.246,3661.037c-.014.048-.218.025-.218.025l.041.118c-.084.006-.112-.11-.112-.11l-.178.055c-.037-.043.147-.095.147-.095l-.147-.078c.059-.033.2.051.2.051l.088-.106c.075.022-.022.122-.022.122Z" fill="#1d71b8"/>
                </g>
                <g id="Grupo_949555" data-name="Grupo 949555">
                  <path id="Trazado_631422" data-name="Trazado 631422" d="M461.618,3662.061c-.013.048-.217.025-.217.025l.04.118c-.083.006-.111-.11-.111-.11l-.179.055c-.037-.043.147-.095.147-.095l-.146-.078c.058-.034.195.051.195.051l.088-.106c.075.022-.022.122-.022.122Z" fill="#1d71b8"/>
                </g>
              </g>
            </g>
          </g>
        </g>
      </g>
    </g>
  </g>
</svg>
