<svg xmlns="http://www.w3.org/2000/svg" xmlns:xlink="http://www.w3.org/1999/xlink" width="190" height="134" viewBox="0 0 190 134">
  <defs>
    <clipPath id="clip-path">
      <rect id="Rectángulo_338212" data-name="Rectángulo 338212" width="190" height="134" transform="translate(1125 4090)" fill="#fff" stroke="#707070" stroke-width="1"/>
    </clipPath>
  </defs>
  <g id="Enmascarar_grupo_53" data-name="Enmascarar grupo 53" transform="translate(-1125 -4090)" clip-path="url(#clip-path)">
    <g id="investigacion_4_" data-name="investigacion(4)" transform="translate(1171.27 4102.268)">
      <path id="Trazado_626462" data-name="Trazado 626462" d="M405.75,278.282a3.157,3.157,0,0,1-4.464,0L380.605,257.6l4.464-4.464,20.681,20.681A3.158,3.158,0,0,1,405.75,278.282Zm0,0" transform="translate(-300.522 -199.873)" fill="#484b63"/>
      <path id="Trazado_626463" data-name="Trazado 626463" d="M7.5,62.5H73.78v93H7.5Zm0,0" transform="translate(-5.923 -49.349)" fill="#d8d5ed"/>
      <path id="Trazado_626464" data-name="Trazado 626464" d="M40,307.727H52.625v34.087H40Zm0,0" transform="translate(-31.584 -242.977)" fill="#ff2c5c"/>
      <path id="Trazado_626465" data-name="Trazado 626465" d="M134,247.727h12.625v46.711H134Zm0,0" transform="translate(-105.805 -195.602)" fill="#ffd659"/>
      <path id="Trazado_626466" data-name="Trazado 626466" d="M230,269.727h12.625v42.082H230Zm0,0" transform="translate(-181.606 -212.972)" fill="#4fc6f5"/>
      <path id="Trazado_626467" data-name="Trazado 626467" d="M70,307.727h6.312v34.087H70Zm0,0" transform="translate(-55.272 -242.977)" fill="#e62753"/>
      <path id="Trazado_626468" data-name="Trazado 626468" d="M164,247.727h6.312v46.711H164Zm0,0" transform="translate(-129.493 -195.602)" fill="#ffbd54"/>
      <path id="Trazado_626469" data-name="Trazado 626469" d="M260,269.727h6.312v42.082H260Zm0,0" transform="translate(-205.293 -212.972)" fill="#3bb3e3"/>
      <path id="Trazado_626470" data-name="Trazado 626470" d="M194.025,17.3a33.455,33.455,0,1,0,0,47.312A33.455,33.455,0,0,0,194.025,17.3Zm0,0" transform="translate(-108.106 -5.924)" fill="#50536e"/>
      <path id="Trazado_626471" data-name="Trazado 626471" d="M213.3,83.885a27.143,27.143,0,1,1,0-38.386A27.174,27.174,0,0,1,213.3,83.885Zm0,0" transform="translate(-131.84 -29.657)" fill="#b5fcff"/>
      <path id="Trazado_626472" data-name="Trazado 626472" d="M303.263,45.5a27.1,27.1,0,0,0-22.349-7.754,27.129,27.129,0,0,1,0,53.894A27.133,27.133,0,0,0,303.263,45.5Zm0,0" transform="translate(-221.807 -29.66)" fill="#71f6fc"/>
      <path id="Trazado_626473" data-name="Trazado 626473" d="M106.347,72.414,90.157,56.222a35.045,35.045,0,0,0,1.4-40.427,1.578,1.578,0,1,0-2.637,1.735A31.907,31.907,0,1,1,84.8,12.475l.086.087a1.578,1.578,0,0,0,2.24-2.224l-.09-.091a35.072,35.072,0,0,0-49.546,0q-.644.644-1.246,1.312H1.577A1.578,1.578,0,0,0,0,13.137v6.98a1.578,1.578,0,1,0,3.156,0v-5.4H33.714a34.763,34.763,0,0,0-3.112,5.31H10.941a1.578,1.578,0,1,0,0,3.156H29.3a34.961,34.961,0,0,0-1.133,3.858H10.941a1.578,1.578,0,0,0,0,3.156H27.58a35.264,35.264,0,0,0-.318,3.857H10.941a1.579,1.579,0,0,0,0,3.157H27.317a35.069,35.069,0,0,0,3.533,13.329H28.2a1.578,1.578,0,0,0-1.578,1.579V98.836a1.578,1.578,0,0,0,1.578,1.579H40.82A1.578,1.578,0,0,0,42.4,98.836V63.887a34.771,34.771,0,0,0,4.419,2.587V98.836a1.579,1.579,0,0,0,1.578,1.579H61.019A1.578,1.578,0,0,0,62.6,98.836V70.042a35.6,35.6,0,0,0,3.683-.227V94.193a1.578,1.578,0,1,0,3.156,0V69.307A34.8,34.8,0,0,0,83.462,62.92L99.649,79.11a4.735,4.735,0,0,0,6.7-6.7ZM39.242,97.258H29.774V53.7h2.843a35.055,35.055,0,0,0,4.875,6.1q.853.853,1.751,1.633Zm10.732,0V67.832a35.129,35.129,0,0,0,9.469,2.1V97.258Zm54.142-20.38a1.579,1.579,0,0,1-2.233,0L85.9,60.889c.387-.354.768-.716,1.142-1.09s.736-.754,1.091-1.142l15.986,15.989a1.58,1.58,0,0,1,0,2.232Zm0,0"/>
      <path id="Trazado_626474" data-name="Trazado 626474" d="M67.86,194.65a1.578,1.578,0,0,0-1.578,1.578v3.578H3.156V122.187a1.578,1.578,0,1,0-3.156,0v79.2a1.578,1.578,0,0,0,1.578,1.578H67.86a1.577,1.577,0,0,0,1.578-1.578v-5.156A1.577,1.577,0,0,0,67.86,194.65Zm0,0" transform="translate(-0.001 -95.231)"/>
      <path id="Trazado_626475" data-name="Trazado 626475" d="M32.5,301.773v34.092a1.578,1.578,0,0,0,1.578,1.578H46.7a1.578,1.578,0,0,0,1.578-1.578V301.773A1.578,1.578,0,0,0,46.7,300.2H34.078A1.578,1.578,0,0,0,32.5,301.773Zm3.156,1.579h9.469v30.935H35.656Zm0,0" transform="translate(-25.662 -237.03)"/>
      <path id="Trazado_626476" data-name="Trazado 626476" d="M57.878,198.337a1.578,1.578,0,0,0,0-3.157h-11.8a1.578,1.578,0,0,0,0,3.157Zm0,0" transform="translate(-35.137 -154.111)"/>
      <path id="Trazado_626477" data-name="Trazado 626477" d="M188.186,29.988a28.68,28.68,0,1,0,20.31,8.4A28.526,28.526,0,0,0,188.186,29.988Zm18.077,46.793a25.6,25.6,0,1,1,7.475-18.08A25.389,25.389,0,0,1,206.264,76.781Zm0,0" transform="translate(-125.921 -23.678)"/>
    </g>
  </g>
</svg>
