<svg xmlns="http://www.w3.org/2000/svg" xmlns:xlink="http://www.w3.org/1999/xlink" width="505" height="243.785" viewBox="0 0 505 243.785">
  <defs>
    <linearGradient id="linear-gradient" x1="3.596" y1="0.5" x2="4.596" y2="0.5" gradientUnits="objectBoundingBox">
      <stop offset="0"/>
      <stop offset="1" stop-color="#fff"/>
    </linearGradient>
  </defs>
  <g id="Grupo_962224" data-name="Grupo 962224" transform="translate(-810 -909)">
    <path id="Rectángulo_340171" data-name="Rectángulo 340171" d="M5,0H500a5,5,0,0,1,5,5V184.694a0,0,0,0,1,0,0H0a0,0,0,0,1,0,0V5A5,5,0,0,1,5,0Z" transform="translate(810 968.091)" fill="#2c6ec4"/>
    <g id="Grupo_959311" data-name="Grupo 959311" transform="translate(883.645 909)">
      <rect id="Rectángulo_298217" data-name="Rectángulo 298217" width="357.71" height="231.136" transform="translate(0)" fill="none"/>
      <g id="Grupo_949614" data-name="Grupo 949614" transform="translate(-733.413 -3530.59)">
        <ellipse id="Elipse_7731" data-name="Elipse 7731" cx="145.322" cy="83.904" rx="145.322" ry="83.904" transform="translate(769.124 3593.917)" fill="#e1eefe"/>
        <g id="Grupo_949592" data-name="Grupo 949592">
          <path id="Trazado_631423" data-name="Trazado 631423" d="M918.264,3585.259l-5.048-13.917c-.823-5.487-3.689-7.988-6.405-8.91l-2.266,11.122,1.858,3.793,5.679,11.591c.8,1.769.451,2.851.98,4.8l6.322-3.216A22.681,22.681,0,0,0,918.264,3585.259Z" fill="#ededed"/>
          <path id="Trazado_631424" data-name="Trazado 631424" d="M912.521,3584.748l-2.127-13.406-3.991,6,5.679,11.591c.8,1.769.451,2.851.98,4.8l1.384-.7C913.707,3589.772,913.317,3587.386,912.521,3584.748Z" fill="#3c3c3b" opacity="0.3" style="mix-blend-mode: multiply;isolation: isolate"/>
          <g id="Grupo_949560" data-name="Grupo 949560">
            <path id="Trazado_631425" data-name="Trazado 631425" d="M893.069,3638.39l-.314,4.674c1.327,1.124,2.614,2.078,3.59,2.017,2.015,3.668,5.338,6.141,8.333,6.687,3.185.093,4.343-1.16,4.187-2.968-.735-4.382-6.519-6.31-7.514-9.346Z" fill="#1d1d1b"/>
            <path id="Trazado_631426" data-name="Trazado 631426" d="M902.058,3639.382a12.487,12.487,0,0,1-5.8,1.555,4.32,4.32,0,0,1-3.463-1.8s-.179-6.443-.721-8.47c-1.63-6.106-1.538-11.313-1.127-16.84l-4.7-15.9.552-2.069c.006-.006,3.593-13.384,3.593-13.384l7.954,1.457c2.493,9.169,4.243,18.19,2.054,27.364l-.228,5.522C900.438,3625.483,900.818,3635.616,902.058,3639.382Z" fill="#3c3c3b"/>
            <path id="Trazado_631427" data-name="Trazado 631427" d="M896.261,3640.937a4.32,4.32,0,0,1-3.463-1.8s-.179-6.443-.721-8.47c-1.63-6.106-1.538-11.313-1.127-16.84l-4.7-15.9.552-2.069c.006-.006,5.95-3.122,5.95-3.122-1.274,6.546-1.171,12.913,1.392,18.971C892.386,3620.671,893.665,3630.6,896.261,3640.937Z" fill="#3f668a" opacity="0.3" style="mix-blend-mode: multiply;isolation: isolate"/>
            <path id="Trazado_631428" data-name="Trazado 631428" d="M871.419,3650.108l-.482,5.766a6.7,6.7,0,0,0,2.763,2.8c1.891,3.663,4.508,5.551,7.765,5.876,2.89.256,4.687-.734,4.9-2.518-.28-3.952-6.434-6.334-7.063-9.552Z" fill="#1d1d1b"/>
            <path id="Trazado_631429" data-name="Trazado 631429" d="M897.7,3584.952l-1.132,2.8-.829,2.049c-1.273,3.587-3.533,5.543-6.681,6.052-.78,8.968-1.626,17.844-4.79,23.663-.331,3.067-1.9,4.942-2.7,7.879-1.436,8.339-2.514,17.063-2.259,25.082a6.728,6.728,0,0,1-6.335.7l-.471-.233a2.8,2.8,0,0,1-1.507-2.091c.271-13.368-2.8-20.5,3.344-32.149-.542-10.3.178-14.251,1.3-24.112-1.3-5.907-.369-10.068,2.194-12.962a11.581,11.581,0,0,1,.845-.856l3.165.694Z" fill="#3c3c3b"/>
            <path id="Trazado_631430" data-name="Trazado 631430" d="M906.843,3578.65a24.646,24.646,0,0,1-8.67,7.722,14.509,14.509,0,0,1-1.609,1.381c-5.884,4.438-13.156,3.338-16.749-.287a7.256,7.256,0,0,1-2.232-5.158c.081-.228.162-.455.238-.678.65-1.8,1.23-3.549,1.794-5.212,1.929-5.739,3.56-10.5,6.275-13.346,2.53-1.9,7.818-3.132,10.658-1.9,4.947-2.78,10-.13,13.988,2.688C912.747,3571.541,908.984,3573.67,906.843,3578.65Z" fill="#ededed"/>
            <path id="Trazado_631431" data-name="Trazado 631431" d="M887.97,3573.73a43.234,43.234,0,0,0-6.139,7.738,14.566,14.566,0,0,0-2.01,6c-2.2,1.929-2.634,4.438-1.171,7.575-1.279,9.705-3.386,20.927-.46,24.248-6.562,4.644-5.072,19.681-5.224,33.888l-.471-.233a2.8,2.8,0,0,1-1.507-2.091c.271-13.368-2.8-20.5,3.344-32.149-.542-10.3.178-14.251,1.3-24.112-1.3-5.907-.369-10.068,2.194-12.962.65-1.8,1.23-3.549,1.794-5.212Z" fill="#3c3c3b" opacity="0.3" style="mix-blend-mode: multiply;isolation: isolate"/>
            <path id="Trazado_631432" data-name="Trazado 631432" d="M860.48,3596.972l-1.828,3.319-1.287,3.115-.17,2.676c-.09.609.446,1.041.542.3l-.369,2.834c-.173.812.572,1.173.843.45l.949-3.522-.034,5.419c.011.813.8,1.262,1.027.271l.835-5.52.271,3.352.644,2.473c.327.892,1.275.937,1.253,0l-.407-3.218s.226-2.257.407-3.285a20.457,20.457,0,0,1,1.253-1.727l2.675,3.489c.813.756,1.581.1,1.016-.915l-2.1-4.809-1.626-2.438-.135-.2.237-1.863-3.489-1.321Z" fill="#fcaf75"/>
            <path id="Trazado_631433" data-name="Trazado 631433" d="M885.891,3563.072c-5.743,2.33-11.705,6.828-17.791,12.553-3.4,5.452-5.683,13.28-7.8,21.668.831,1.056,2.19,1.2,4,1.18,2.529-5.78,6.646-10.933,8.715-16.888,3.9-.49,9.476-4.594,14.946-7.857C892.017,3567.492,892.51,3564.022,885.891,3563.072Z" fill="#ededed"/>
          </g>
          <g id="Grupo_949565" data-name="Grupo 949565">
            <g id="Grupo_949564" data-name="Grupo 949564">
              <g id="Grupo_949562" data-name="Grupo 949562">
                <path id="Trazado_631434" data-name="Trazado 631434" d="M952.36,3653.353a1.388,1.388,0,1,1-1.388-1.388A1.389,1.389,0,0,1,952.36,3653.353Z" fill="#030403"/>
                <path id="Trazado_631435" data-name="Trazado 631435" d="M949.093,3667.4a1.389,1.389,0,1,1-1.389-1.389A1.388,1.388,0,0,1,949.093,3667.4Z" fill="#030403"/>
                <path id="Trazado_631436" data-name="Trazado 631436" d="M971.446,3673.854a1.388,1.388,0,1,1-1.389-1.388A1.389,1.389,0,0,1,971.446,3673.854Z" fill="#030403"/>
                <path id="Trazado_631437" data-name="Trazado 631437" d="M988.21,3663.89a1.389,1.389,0,1,1-1.388-1.389A1.388,1.388,0,0,1,988.21,3663.89Z" fill="#030403"/>
                <path id="Trazado_631438" data-name="Trazado 631438" d="M977.923,3650.382a1.388,1.388,0,1,1-1.388-1.388A1.389,1.389,0,0,1,977.923,3650.382Z" fill="#030403"/>
                <g id="Grupo_949561" data-name="Grupo 949561">
                  <path id="Trazado_631439" data-name="Trazado 631439" d="M978.016,3649.3v-1.91l-2.571,1.154-9.672,9.007-14.019-6.84-2.041-.732v1.91l11.847,8.094-15.6,3.674v1.91l1.31,1.485,16.994-4,4.378,10.292,2.85-.261v-1.91l-1.344-8.659,18.306.776.451-1.646v-1.911l-17.825-.617Z" fill="#030403"/>
                  <path id="Trazado_631440" data-name="Trazado 631440" d="M978.016,3647.389l-2.571-.756-9.672,9.007-14.019-6.841-2.041,1.178,11.847,8.094-15.6,5.585,1.31,1.484,16.994-4,4.378,10.292,2.85-.26-1.344-10.569,18.306.776.451-1.646-17.825-2.528Z" fill="#878787"/>
                </g>
                <path id="Trazado_631441" data-name="Trazado 631441" d="M968.436,3657.405a1.155,1.155,0,0,1,0,2.188,4.186,4.186,0,0,1-3.791,0,1.155,1.155,0,0,1,0-2.188A4.186,4.186,0,0,1,968.436,3657.405Z" fill="#030403"/>
                <rect id="Rectángulo_338224" data-name="Rectángulo 338224" width="5.362" height="17.261" transform="translate(963.86 3641.238)" fill="#030403"/>
              </g>
              <g id="Grupo_949563" data-name="Grupo 949563">
                <path id="Trazado_631442" data-name="Trazado 631442" d="M966.341,3625.021l-21.2,12.241c-.978.565-1.77.107-1.77-1.022a9.056,9.056,0,0,1,4.088-7.151l18.884-10.9c.978-.565,1.771-.107,1.771,1.022v2.745A3.917,3.917,0,0,1,966.341,3625.021Z" fill="#4a4a49"/>
                <path id="Trazado_631443" data-name="Trazado 631443" d="M973.744,3579.754l-1.084,7.216-4.321,28.692a3.165,3.165,0,0,1-.269.85,3.126,3.126,0,0,1-1.168,1.348l-2.934,1.695a1.048,1.048,0,0,1-.985.13,1.192,1.192,0,0,1-.452-1.308l.5-3.217,4.764-30.9.368-2.4a3.141,3.141,0,0,1,1.656-2.3l2.72-1.089a.874.874,0,0,1,.845.035A1.215,1.215,0,0,1,973.744,3579.754Z" fill="#4a4a49"/>
              </g>
              <path id="Trazado_631444" data-name="Trazado 631444" d="M963.153,3648.515l-19.432-11.258,23.8-19.23,19.508,11.28Z" fill="#4a4a49"/>
              <path id="Trazado_631445" data-name="Trazado 631445" d="M992.526,3589.59,973.379,3578.5l-10.45,41.153,19.245,11.115Z" fill="#4a4a49"/>
              <path id="Trazado_631446" data-name="Trazado 631446" d="M985.675,3636.2l-21.2,12.241c-.978.565-1.771.107-1.771-1.023a9.059,9.059,0,0,1,4.089-7.15l18.884-10.9c.978-.565,1.771-.107,1.771,1.022v2.745A3.913,3.913,0,0,1,985.675,3636.2Z" fill="#1d1d1b"/>
              <path id="Trazado_631447" data-name="Trazado 631447" d="M981.867,3629.552l5.627-36.519a3.151,3.151,0,0,1,1.656-2.3l2.719-1.086c.817-.326,1.367.255,1.212,1.282l-5.408,35.909a3.274,3.274,0,0,1-1.434,2.2l-2.939,1.7C982.382,3631.264,981.691,3630.7,981.867,3629.552Z" fill="#1d1d1b"/>
            </g>
          </g>
          <g id="Grupo_949566" data-name="Grupo 949566">
            <path id="Trazado_631448" data-name="Trazado 631448" d="M941.243,3663.972c1.159,1.161,1.329,3.425.944,5.647a4.479,4.479,0,0,1-2.82,2.351,22.214,22.214,0,0,0-3.505,1.624c-3.376,3.505-6.5,3.928-7.651,3.5-3.889-1.443.281-4.776,1.411-5.595.328-.238,4.659-4.36,4.659-4.36l1.025-1.624-.122-3.547,5.636-1.667Z"/>
            <path id="Trazado_631449" data-name="Trazado 631449" d="M929.622,3638.236c.744,8.812,3.5,15.443,5.683,27.28a5.7,5.7,0,0,0,4.739,1.036,2.762,2.762,0,0,0,1.846-2.123c.343-10.093.256-17.905-2.529-24.428,8.473-3.729,19.679-4.909,26.593-10.694,2.687-2.323,4.718-4.457,5.349-6.564a4.348,4.348,0,0,0-.164-3.139,6.5,6.5,0,0,0-1.077-1.657l-2.205-1.574-9.514-1.36c-1.21.642-2.559,1.38-3.985,2.2C944.08,3623.071,929.571,3632.795,929.622,3638.236Z" fill="#4a4a49"/>
            <path id="Trazado_631450" data-name="Trazado 631450" d="M939.367,3666.326s.261.093.677.226a2.762,2.762,0,0,0,1.846-2.123c.343-10.093.256-17.905-2.529-24.428,8.473-3.729,19.679-4.909,26.593-10.694,2.687-2.323,4.718-4.457,5.349-6.564l-.164-3.139a6.5,6.5,0,0,0-1.077-1.657l-2.205-1.574-9.514-1.36c-1.21.642-2.559,1.38-3.985,2.2-.723,8.954-9.437,15.263-19.094,21.253C938.9,3646.812,939.931,3656.238,939.367,3666.326Z" fill="#3c3c3b" opacity="0.5" style="mix-blend-mode: multiply;isolation: isolate"/>
            <path id="Trazado_631451" data-name="Trazado 631451" d="M956.63,3672.648c1.158,1.161,1.188,3.288.943,5.647a6.224,6.224,0,0,1-3.59,2.479s-5.385,5.129-10.513,4.36,0-4.445,0-4.445l5.912-5.129,1.14-1.582.049-3.333,5.635-1.667Z"/>
            <path id="Trazado_631452" data-name="Trazado 631452" d="M942.572,3644.745c.744,8.811,5.77,17.4,7.95,29.233,1.984,1.514,3.733,1.78,5.133.185a6.863,6.863,0,0,0,1.072-1.723c.349-10.088-.343-18.992-3.128-25.516,8.473-3.728,15.171-7.421,22.084-13.206a10.737,10.737,0,0,0,1.123-14.832l-.943-.144-.18-.026-15.55,3.221c-.846.964-1.708,1.939-2.57,2.913-1.154,1.3-2.313,2.606-3.446,3.893C948.429,3635.2,943.326,3641.3,942.572,3644.745Z" fill="#4a4a49"/>
            <path id="Trazado_631453" data-name="Trazado 631453" d="M954.666,3674.532l.989-.369a6.863,6.863,0,0,0,1.072-1.723c.349-10.088-.343-18.992-3.128-25.516,8.473-3.728,15.171-7.421,22.084-13.206a10.737,10.737,0,0,0,1.123-14.832l-.943-.144-18.3,6.108c-1.154,1.3-2.313,2.606-3.446,3.893,1.99.308,6.359.41,15.458.3-3.242,6.841-10.842,12.657-20.13,16.673C953.727,3653.038,954.784,3663.254,954.666,3674.532Z" fill="#3c3c3b" opacity="0.5" style="mix-blend-mode: multiply;isolation: isolate"/>
          </g>
          <g id="Grupo_949570" data-name="Grupo 949570">
            <g id="Grupo_949569" data-name="Grupo 949569">
              <g id="Grupo_949567" data-name="Grupo 949567">
                <path id="Trazado_631454" data-name="Trazado 631454" d="M950.969,3707.977c-1.651,0-2.76-1.337-2.76-3.325v-37.22a8.569,8.569,0,0,1,3.93-6.806l26.144-15.094a3.98,3.98,0,0,1,1.979-.59c1.65,0,2.76,1.337,2.76,3.326v37.22a8.568,8.568,0,0,1-3.929,6.806l-26.145,15.094A3.97,3.97,0,0,1,950.969,3707.977Zm29.292-61.417a2.433,2.433,0,0,0-1.17.373l-26.145,15.094a7.015,7.015,0,0,0-3.12,5.4v37.22c0,.513.112,1.707,1.143,1.707a2.431,2.431,0,0,0,1.169-.373l26.145-15.093a7.014,7.014,0,0,0,3.121-5.405v-37.22C981.4,3647.754,981.291,3646.56,980.261,3646.56Z" fill="#575756"/>
                <path id="Trazado_631455" data-name="Trazado 631455" d="M891.067,3673.314c-1.65,0-2.759-1.337-2.759-3.326v-37.219a8.569,8.569,0,0,1,3.929-6.807l26.145-15.094a3.973,3.973,0,0,1,1.978-.59c1.651,0,2.76,1.337,2.76,3.326v37.22a8.569,8.569,0,0,1-3.93,6.806l-26.144,15.094A3.98,3.98,0,0,1,891.067,3673.314ZM920.36,3611.9a2.433,2.433,0,0,0-1.17.373l-26.144,15.095a7.011,7.011,0,0,0-3.121,5.405v37.219c0,.514.111,1.708,1.142,1.708a2.438,2.438,0,0,0,1.17-.373l26.145-15.094a7.016,7.016,0,0,0,3.12-5.405V3613.6C921.5,3613.09,921.391,3611.9,920.36,3611.9Z" fill="#575756"/>
              </g>
              <g id="Grupo_949568" data-name="Grupo 949568">
                <path id="Trazado_631456" data-name="Trazado 631456" d="M985.247,3646.55,950.3,3666.723l-62.8-36.295v-1.786l34.945-18.4,62.8,34.52Z" fill="#575756"/>
                <path id="Trazado_631457" data-name="Trazado 631457" d="M985.247,3644.764,950.3,3664.937l-62.8-36.295,34.945-20.184Z" fill="#b2b2b2"/>
              </g>
            </g>
            <path id="Trazado_631458" data-name="Trazado 631458" d="M943.135,3634.56l6.9-4.039,7.847-1.533-4.594-3.439-5.805,2.175Z" fill="#b2b2b2" opacity="0.5" style="mix-blend-mode: multiply;isolation: isolate"/>
            <path id="Trazado_631459" data-name="Trazado 631459" d="M931.557,3626.692l1.312-1.322-.493-.844,3.22-2.1.779-1.517,4.977-1.523-4.977-2.877-4.144,2.586-2.407,2.068-.2,2.807-.218,1.378Z" fill="#b2b2b2" opacity="0.5" style="mix-blend-mode: multiply;isolation: isolate"/>
          </g>
          <g id="Grupo_949576" data-name="Grupo 949576">
            <path id="Trazado_631460" data-name="Trazado 631460" d="M965.7,3645.8l4.423,2.554a.438.438,0,0,0,.393,0l8.471-4.891a.137.137,0,0,0,.081-.113.14.14,0,0,0-.081-.114l-4.424-2.553a.43.43,0,0,0-.392,0l-8.471,4.89A.12.12,0,0,0,965.7,3645.8Z" fill="#4a4a49"/>
            <path id="Trazado_631461" data-name="Trazado 631461" d="M979.064,3642.914v.439l-13.449,2.343v-.438l13.449-2.345Z" fill="#4a4a49"/>
            <path id="Trazado_631462" data-name="Trazado 631462" d="M965.7,3645.364l4.423,2.554a.432.432,0,0,0,.393,0l8.471-4.891a.119.119,0,0,0,0-.226l-4.424-2.554a.436.436,0,0,0-.392,0l-8.471,4.891A.119.119,0,0,0,965.7,3645.364Z" fill="#878787"/>
            <path id="Trazado_631463" data-name="Trazado 631463" d="M970.6,3647.589l7.62-4.4-1.961-1.133-.651-.377-1-.58-.363-.208c-.043-.026-.349-.2-.349-.2l-7.622,4.4Z" fill="#3f76ab"/>
            <g id="Grupo_949571" data-name="Grupo 949571">
              <path id="Trazado_631464" data-name="Trazado 631464" d="M975.641,3641.546l1.092.631a.185.185,0,0,0,.162,0l.284-.164a.049.049,0,0,0,0-.093l-1.093-.631a.177.177,0,0,0-.162,0l-.283.163A.05.05,0,0,0,975.641,3641.546Z" fill="#fff"/>
              <path id="Trazado_631465" data-name="Trazado 631465" d="M976.774,3642.153a.089.089,0,0,0,.081,0l.283-.163c0-.047-1.093-.678-1.093-.678a.087.087,0,0,0-.08,0l-.284.164C975.681,3641.522,976.774,3642.153,976.774,3642.153Z" fill="#4a4a49"/>
            </g>
            <g id="Grupo_949575" data-name="Grupo 949575">
              <g id="Grupo_949574" data-name="Grupo 949574">
                <g id="Grupo_949572" data-name="Grupo 949572">
                  <path id="Trazado_631466" data-name="Trazado 631466" d="M968.318,3646.692c.019.05.049.05.068.039l.263-.152c-.019-.049-.049-.049-.068-.039Z" fill="#273340"/>
                  <path id="Trazado_631467" data-name="Trazado 631467" d="M968.177,3646.61c.018.05.049.05.067.039l.263-.152c-.018-.049-.048-.049-.067-.039Z" fill="#273340"/>
                  <path id="Trazado_631468" data-name="Trazado 631468" d="M968.035,3646.529c.019.049.049.049.067.038l.264-.151c-.019-.05-.049-.05-.068-.039Z" fill="#273340"/>
                  <path id="Trazado_631469" data-name="Trazado 631469" d="M967.893,3646.447c.019.05.049.05.068.039l.263-.152c-.019-.05-.049-.05-.067-.039Z" fill="#273340"/>
                  <path id="Trazado_631470" data-name="Trazado 631470" d="M967.752,3646.365c.019.05.049.05.067.039l.263-.152c-.018-.05-.049-.05-.067-.039Z" fill="#273340"/>
                </g>
                <g id="Grupo_949573" data-name="Grupo 949573">
                  <path id="Trazado_631471" data-name="Trazado 631471" d="M968.318,3646.692c.019.05.049.05.068.039l.263-.152c-.019-.049-.049-.049-.068-.039Z" opacity="0.5"/>
                  <path id="Trazado_631472" data-name="Trazado 631472" d="M968.177,3646.61c.018.05.049.05.067.039l.263-.152c-.018-.049-.048-.049-.067-.039Z" opacity="0.5"/>
                  <path id="Trazado_631473" data-name="Trazado 631473" d="M968.035,3646.529c.019.049.049.049.067.038l.264-.151c-.019-.05-.049-.05-.068-.039Z" opacity="0.5"/>
                  <path id="Trazado_631474" data-name="Trazado 631474" d="M967.893,3646.447c.019.05.049.05.068.039l.263-.152c-.019-.05-.049-.05-.067-.039Z" opacity="0.5"/>
                  <path id="Trazado_631475" data-name="Trazado 631475" d="M967.752,3646.365c.019.05.049.05.067.039l.263-.152c-.018-.05-.049-.05-.067-.039Z" opacity="0.5"/>
                </g>
              </g>
              <path id="Trazado_631476" data-name="Trazado 631476" d="M969.718,3647.348a.054.054,0,0,0,0,.1.2.2,0,0,0,.175,0,.054.054,0,0,0,0-.1.194.194,0,0,0-.175,0Z" fill="#fff" opacity="0.5"/>
              <path id="Trazado_631477" data-name="Trazado 631477" d="M969.077,3646.978a.054.054,0,0,0,0,.1.2.2,0,0,0,.176,0,.054.054,0,0,0,0-.1.2.2,0,0,0-.176,0Z" opacity="0.5"/>
            </g>
          </g>
          <path id="Trazado_631478" data-name="Trazado 631478" d="M953.558,3584.959c-4.437-.662-5.883,1.405-6.878,6.231l-4.067,14.535c-1.513,1.279-2.444,3.147-3.919,4.983l4.551,3.748c2.086-1.649,4.144-3.45,6.21-5.4l2.395-8.314,2.99-10.365,1.7-3.154Z" fill="#55b2e6"/>
          <path id="Trazado_631479" data-name="Trazado 631479" d="M951.85,3600.745l-3.57-6.99c-.877,5.816-3.292,9.9-3.518,15.13l-3.411,4.081,1.894,1.49c2.086-1.649,4.144-3.45,6.21-5.4Z" fill="#3f76ab" opacity="0.5" style="mix-blend-mode: multiply;isolation: isolate"/>
          <path id="Trazado_631480" data-name="Trazado 631480" d="M963.519,3578.526c8.82,2.867,6.938,11.192,4.557,17.716l-6.225-5.856Z" fill="#1d1d1b"/>
          <path id="Trazado_631481" data-name="Trazado 631481" d="M946.68,3606.264a.824.824,0,0,0,.01.159c.216,5.072,7.124,4.6,7.124,4.6l2.795,6.068c.708,8.806,15.925,11.026,20.2,1.795-3.077-4.36-3.077-4.36-3.333-7.355.241-.8.451-1.574.625-2.328a20.9,20.9,0,0,0-1.82-15.448c-2.5-3.236-8.1-6.478-11.638-7.791l-10.334-.241-2.056,7.5C948.8,3602.628,946.619,3602.3,946.68,3606.264Z" fill="#55b2e6"/>
          <path id="Trazado_631482" data-name="Trazado 631482" d="M962.351,3584.212c.56,1.926,2.066,4.906,2.434,6.742.421,2.265-3.756,5.788-6.553,5.584-1.98-.39-2.484-2.931-2.776-5.27Z" fill="#fcaf75"/>
          <path id="Trazado_631483" data-name="Trazado 631483" d="M960.915,3585.682s1.647,13.55-4.865,12.432c-4.246-.729-3.353-7.735-3.353-7.735Z" fill="#fcaf75" opacity="0.3" style="mix-blend-mode: multiply;isolation: isolate"/>
          <path id="Trazado_631484" data-name="Trazado 631484" d="M956.81,3573.275c-6.525.9-8.541,4.732-7.888,9.925.077,4.355,3.7,10.12,6.229,10.012,3.608.2,5.382-4.012,8.464-8.515C966,3577.288,962.884,3572.435,956.81,3573.275Z" fill="#fcaf75"/>
          <path id="Trazado_631485" data-name="Trazado 631485" d="M949.01,3583.345c1.357,1.452,3.531,2.275,6.239,2.9,2.289.944,4.506.851,5.39,2.131l2.651-1.1c2.663-3.065,2.926-11.828-1.64-13.68C954.318,3570.623,945.6,3577.984,949.01,3583.345Z" fill="#1d1d1b"/>
          <path id="Trazado_631486" data-name="Trazado 631486" d="M960.737,3587.029c.4-1.6,1.514-2.644,2.462-1.725.441.428.412,1.215,0,2.216a1.792,1.792,0,0,1-1.424,1.235C960.878,3588.891,960.427,3588.26,960.737,3587.029Z" fill="#fcaf75"/>
          <path id="Trazado_631487" data-name="Trazado 631487" d="M946.69,3606.423c.216,5.072,7.124,4.6,7.124,4.6l2.795,6.068c.708,8.806,15.925,11.026,20.2,1.795-3.077-4.36-3.077-4.36-3.333-7.355.241-.8.451-1.574.625-2.328l-6.139-6.575-3.544,7.97c-2.872,6.2-9.621,3.544-10.175-1.447C953.255,3610.731,948.111,3610.356,946.69,3606.423Z" fill="#3f76ab" opacity="0.5" style="mix-blend-mode: multiply;isolation: isolate"/>
          <path id="Trazado_631488" data-name="Trazado 631488" d="M939.967,3633.955l-.835.363c-.713.194-1.052-.145-.568-.858C938.528,3634.137,939.084,3634.2,939.967,3633.955Z" fill="#fcaf75" opacity="0.5" style="mix-blend-mode: multiply;isolation: isolate"/>
          <path id="Trazado_631489" data-name="Trazado 631489" d="M902.641,3567.921l.74,2.354,1.356-.492v-2.66l-1.356-.924Z"/>
          <path id="Trazado_631490" data-name="Trazado 631490" d="M903.382,3570.275a169.2,169.2,0,0,1,.006,19.544l2.205,2.1,1.52-3.442a143.239,143.239,0,0,0-2.376-18.7Z"/>
          <path id="Trazado_631491" data-name="Trazado 631491" d="M899.622,3556.531c-.153,0-2.756,3.219-2.756,3.219-3.471,1.967.983,9.287,5.726,8.528l3.926-2.729Z" fill="#fcaf75"/>
          <path id="Trazado_631492" data-name="Trazado 631492" d="M897.663,3558.773a24.367,24.367,0,0,0-2.742,2.133s1.9,8.877,7.72,9.369a15.291,15.291,0,0,1,1.048-2.76C900.082,3566.967,897.663,3561.5,897.663,3558.773Z" fill="#dadada"/>
          <path id="Trazado_631493" data-name="Trazado 631493" d="M903.689,3567.515l2.135,2.041s2.045-8.35.249-10.116S903.689,3567.515,903.689,3567.515Z" fill="#dadada"/>
          <path id="Trazado_631494" data-name="Trazado 631494" d="M905.406,3547.731c-4.249.042-6.677,2.044-6.841,6.48.122,4.664.357,7.477,2.6,10.661a6.758,6.758,0,0,0,5.48,2.92c2.585-.131,6.407-6.33,6.775-10.816C914.053,3552.444,910.19,3548.969,905.406,3547.731Z" fill="#fcaf75"/>
          <path id="Trazado_631495" data-name="Trazado 631495" d="M912.9,3560.249c-.961,2.265-6.6,1.855-9.075-.923l-.277,1.663-2.278-1.892-1.983,2.577-.717-1.019c-1.8-3.621-1.712-9.579,3.429-12.573C908.865,3545.322,917.386,3553.322,912.9,3560.249Z"/>
          <path id="Trazado_631496" data-name="Trazado 631496" d="M900.629,3561.046a3.719,3.719,0,0,1-.562-1.484,1.678,1.678,0,0,1,.5-1.438,1.2,1.2,0,0,1,1.485-.073,1.291,1.291,0,0,1,.425.986,3.678,3.678,0,0,1-.2,1.07l-.278.953a.848.848,0,0,1-.353.565.608.608,0,0,1-.609-.085A1.56,1.56,0,0,1,900.629,3561.046Z" fill="#fcaf75"/>
          <g id="Grupo_949577" data-name="Grupo 949577">
            <path id="Trazado_631497" data-name="Trazado 631497" d="M921.088,3610.517l11.359,6.558-16.187,9.346-11.359-6.559Z" fill="#fff"/>
            <path id="Trazado_631498" data-name="Trazado 631498" d="M908.239,3619.814l8.211,4.74-.491.283-8.211-4.74Z" fill="#1d1d1b"/>
            <path id="Trazado_631499" data-name="Trazado 631499" d="M909.584,3619.038l8.211,4.74-.3.174-8.211-4.74Z" fill="#1d1d1b"/>
            <path id="Trazado_631500" data-name="Trazado 631500" d="M910.4,3618.569l8.211,4.74-.3.175-8.211-4.74Z" fill="#1d1d1b"/>
            <path id="Trazado_631501" data-name="Trazado 631501" d="M911.207,3618.1l8.211,4.74-.3.174-8.211-4.74Z" fill="#1d1d1b"/>
            <path id="Trazado_631502" data-name="Trazado 631502" d="M912.831,3617.163l8.211,4.74-.3.175-8.21-4.74Z" fill="#1d1d1b"/>
            <path id="Trazado_631503" data-name="Trazado 631503" d="M913.642,3616.694l8.211,4.74-.3.174-8.21-4.74Z" fill="#1d1d1b"/>
            <path id="Trazado_631504" data-name="Trazado 631504" d="M919.521,3619.151l3.144,1.815-.3.174-3.144-1.815Z" fill="#1d1d1b"/>
            <path id="Trazado_631505" data-name="Trazado 631505" d="M915.266,3615.757l8.211,4.74-.3.174-8.211-4.74Z" fill="#1d1d1b"/>
            <path id="Trazado_631506" data-name="Trazado 631506" d="M916.078,3615.288l8.211,4.74-.3.175-8.211-4.741Z" fill="#1d1d1b"/>
            <path id="Trazado_631507" data-name="Trazado 631507" d="M918.813,3615.93l6.287,3.63-.3.175-6.287-3.63Z" fill="#1d1d1b"/>
            <path id="Trazado_631508" data-name="Trazado 631508" d="M923.874,3616.04l3.661,2.114-.3.175-3.661-2.114Z" fill="#1d1d1b"/>
            <path id="Trazado_631509" data-name="Trazado 631509" d="M924.686,3615.571l3.661,2.114-.3.174-3.661-2.114Z" fill="#1d1d1b"/>
          </g>
          <path id="Trazado_631510" data-name="Trazado 631510" d="M925.267,3612.4c.234.711-.609,1.267-1.009.687l-.2-.17c.125.494-.71,1.119-1.117.515l-.483-.712c-.2.613-.484.876-1.005.325l-1.287-2.6-1.76-2.071-.279,1.217.4,1.339c.2.863-.626,1.343-.974.537l-.4-.966-.236-.553-.136-1.484A11.907,11.907,0,0,1,918,3605.5l-.586-.759,2.478-1.008.945.874a8.962,8.962,0,0,1,3.417,3.3l1.117,2.9c.38.813.259,1.489-.3,1.121Z" fill="#fcaf75"/>
          <path id="Trazado_631511" data-name="Trazado 631511" d="M913.062,3593.742a91.613,91.613,0,0,0,4.435,12.667l.9-.695a3.414,3.414,0,0,1,2.573-1.031c.113-4.137-.791-9.117-1.587-14.157Z" fill="#ededed"/>
          <path id="Trazado_631512" data-name="Trazado 631512" d="M913.062,3593.742a91.613,91.613,0,0,0,4.435,12.667l.9-.695a86.457,86.457,0,0,1-3.952-12.676Z" fill="#3c3c3b" opacity="0.3" style="mix-blend-mode: multiply;isolation: isolate"/>
          <g id="Grupo_949586" data-name="Grupo 949586">
            <g id="Grupo_949578" data-name="Grupo 949578">
              <path id="Trazado_631513" data-name="Trazado 631513" d="M928.856,3624.344l11.359,6.558-16.187,9.346-11.359-6.558Z" fill="#fff"/>
              <path id="Trazado_631514" data-name="Trazado 631514" d="M916.008,3633.641l8.21,4.74-.491.283-8.211-4.74Z" fill="#1d1d1b"/>
              <path id="Trazado_631515" data-name="Trazado 631515" d="M917.352,3632.865l8.211,4.741-.3.174-8.211-4.74Z" fill="#1d1d1b"/>
              <path id="Trazado_631516" data-name="Trazado 631516" d="M918.164,3632.4l8.21,4.74-.3.175-8.211-4.74Z" fill="#1d1d1b"/>
              <path id="Trazado_631517" data-name="Trazado 631517" d="M918.976,3631.927l8.211,4.74-.3.174-8.211-4.74Z" fill="#1d1d1b"/>
              <path id="Trazado_631518" data-name="Trazado 631518" d="M920.6,3630.99l8.211,4.74-.3.174-8.211-4.74Z" fill="#1d1d1b"/>
              <path id="Trazado_631519" data-name="Trazado 631519" d="M921.411,3630.521l8.211,4.74-.3.175-8.211-4.741Z" fill="#1d1d1b"/>
              <path id="Trazado_631520" data-name="Trazado 631520" d="M927.289,3632.978l3.144,1.815-.3.174-3.144-1.815Z" fill="#1d1d1b"/>
              <path id="Trazado_631521" data-name="Trazado 631521" d="M923.034,3629.584l8.211,4.74-.3.174-8.211-4.74Z" fill="#1d1d1b"/>
              <path id="Trazado_631522" data-name="Trazado 631522" d="M923.846,3629.115l8.211,4.74-.3.174-8.211-4.74Z" fill="#1d1d1b"/>
              <path id="Trazado_631523" data-name="Trazado 631523" d="M926.581,3629.757l6.287,3.63-.3.175-6.287-3.63Z" fill="#1d1d1b"/>
              <path id="Trazado_631524" data-name="Trazado 631524" d="M931.642,3629.867l3.661,2.114-.3.174-3.661-2.114Z" fill="#1d1d1b"/>
              <path id="Trazado_631525" data-name="Trazado 631525" d="M932.454,3629.4l3.661,2.114-.3.174-3.661-2.114Z" fill="#1d1d1b"/>
            </g>
            <g id="Grupo_949583" data-name="Grupo 949583">
              <path id="Trazado_631526" data-name="Trazado 631526" d="M930.926,3628.8a3.526,3.526,0,0,1-3.185,0,.971.971,0,0,1,0-1.839,3.524,3.524,0,0,1,3.185,0A.971.971,0,0,1,930.926,3628.8Zm-3.078-1.777a.906.906,0,0,0,0,1.715,3.288,3.288,0,0,0,2.971,0,.906.906,0,0,0,0-1.715A3.288,3.288,0,0,0,927.848,3627.02Z" fill="#1d71b8"/>
              <path id="Trazado_631527" data-name="Trazado 631527" d="M930.694,3628.663a3.011,3.011,0,0,1-2.72,0,.83.83,0,0,1,0-1.571,3.009,3.009,0,0,1,2.72,0A.83.83,0,0,1,930.694,3628.663Zm-2.649-1.529a.785.785,0,0,0,0,1.487,2.848,2.848,0,0,0,2.577,0,.785.785,0,0,0,0-1.487A2.846,2.846,0,0,0,928.045,3627.134Z" fill="#1d71b8"/>
              <path id="Trazado_631528" data-name="Trazado 631528" d="M930.144,3628.345a1.792,1.792,0,0,1-1.62,0,.494.494,0,0,1,0-.935,1.793,1.793,0,0,1,1.62,0A.494.494,0,0,1,930.144,3628.345Zm-1.549-.894a.451.451,0,0,0,0,.853,1.635,1.635,0,0,0,1.477,0,.451.451,0,0,0,0-.853A1.636,1.636,0,0,0,928.595,3627.451Z" fill="#1d71b8"/>
              <g id="Grupo_949579" data-name="Grupo 949579">
                <path id="Trazado_631529" data-name="Trazado 631529" d="M928.7,3627.212l-.276-.1s.154.144.124.155c0,0-.189-.177-.145-.185l.27.095s-.155-.144-.125-.155c0,0,.19.177.191.184S928.736,3627.214,928.7,3627.212Z" fill="#1d71b8"/>
                <path id="Trazado_631530" data-name="Trazado 631530" d="M928.759,3627.136s-.055-.089.152-.132a.218.218,0,0,1,.028.161C928.928,3627.17,928.915,3627.173,928.759,3627.136Zm-.022-.1a.179.179,0,0,0,.2.06A.179.179,0,0,0,928.737,3627.04Z" fill="#1d71b8"/>
                <path id="Trazado_631531" data-name="Trazado 631531" d="M929.185,3626.929l-.087.008s.052.194.018.2l-.053-.194s-.087.008-.093-.011C928.97,3626.929,929.18,3626.91,929.185,3626.929Z" fill="#1d71b8"/>
                <path id="Trazado_631532" data-name="Trazado 631532" d="M929.225,3627.12s.117-.207.158-.206c0,0,.1.208.048.166,0,0-.147,0-.178.049C929.25,3627.13,929.247,3627.131,929.225,3627.12Zm.2-.058-.061-.123-.068.122Z" fill="#1d71b8"/>
                <path id="Trazado_631533" data-name="Trazado 631533" d="M929.611,3626.92s.092.011.078.132c0,0,.045.1.008.1l-.045-.1-.066-.009s-.035.092-.069.087A1.388,1.388,0,0,1,929.611,3626.92Zm.014.021-.032.083a.1.1,0,0,0,.1-.074Z" fill="#1d71b8"/>
                <path id="Trazado_631534" data-name="Trazado 631534" d="M929.9,3627.11s-.015-.136.019-.136l.01.124s.168-.078.19-.064l-.188.087s-.055.071-.087.063Z" fill="#1d71b8"/>
                <path id="Trazado_631535" data-name="Trazado 631535" d="M930.337,3627.1s.075.036-.072.138l-.059-.028s-.09.064-.117.051A2.678,2.678,0,0,1,930.337,3627.1Zm-.005.022-.107.075s.06.028.166-.047Z" fill="#1d71b8"/>
                <path id="Trazado_631536" data-name="Trazado 631536" d="M930.709,3627.33a.387.387,0,0,1-.345-.006s.207-.095.228-.079c0,0-.206.095-.172.177a.13.13,0,0,0,.061-.013S930.687,3627.314,930.709,3627.33Z" fill="#1d71b8"/>
                <path id="Trazado_631537" data-name="Trazado 631537" d="M930.495,3627.55s-.044-.052-.04-.063S930.777,3627.393,930.495,3627.55Zm.068.012c.017,0,.038,0,.07-.1l-.145.043A.328.328,0,0,0,930.563,3627.562Z" fill="#1d71b8"/>
                <path id="Trazado_631538" data-name="Trazado 631538" d="M930.568,3627.626a2.178,2.178,0,0,1,.356-.038l-.328.054s.041.084.01.089C930.606,3627.731,930.559,3627.637,930.568,3627.626Z" fill="#1d71b8"/>
                <path id="Trazado_631539" data-name="Trazado 631539" d="M930.985,3627.744a2.172,2.172,0,0,1-.362.011A2.2,2.2,0,0,1,930.985,3627.744Z" fill="#1d71b8"/>
                <path id="Trazado_631540" data-name="Trazado 631540" d="M930.961,3627.84a.134.134,0,0,0-.061-.011h-.164c-.028,0-.048,0,0-.02,0,0,.164,0,.173.108C930.911,3627.917,930.914,3627.916,930.961,3627.84Z" fill="#1d71b8"/>
              </g>
              <g id="Grupo_949580" data-name="Grupo 949580">
                <path id="Trazado_631541" data-name="Trazado 631541" d="M930.037,3628.518l.28.089s-.163-.141-.135-.152c0,0,.2.173.158.183l-.274-.088s.164.141.136.153c0,0-.2-.174-.2-.181S930,3628.518,930.037,3628.518Z" fill="#1d71b8"/>
                <path id="Trazado_631542" data-name="Trazado 631542" d="M929.986,3628.6s.059.09-.141.14a.237.237,0,0,1-.036-.164C929.82,3628.568,929.832,3628.564,929.986,3628.6Zm.027.1a.174.174,0,0,0-.2-.056A.174.174,0,0,0,930.013,3628.7Z" fill="#1d71b8"/>
                <path id="Trazado_631543" data-name="Trazado 631543" d="M929.579,3628.825l.084-.011s-.057-.2-.024-.2l.058.2s.084-.011.09.008C929.787,3628.817,929.584,3628.844,929.579,3628.825Z" fill="#1d71b8"/>
                <path id="Trazado_631544" data-name="Trazado 631544" d="M929.531,3628.63s-.108.218-.148.219c0,0-.106-.211-.049-.17,0,0,.141,0,.17-.058C929.506,3628.62,929.509,3628.619,929.531,3628.63Zm-.189.067.061.125.063-.129Z" fill="#1d71b8"/>
                <path id="Trazado_631545" data-name="Trazado 631545" d="M929.162,3628.853s-.089-.007-.079-.132c0,0-.046-.1-.01-.1l.046.1.064.005s.032-.1.065-.093A1.63,1.63,0,0,1,929.162,3628.853Zm-.014-.021.029-.088a.1.1,0,0,0-.1.082Z" fill="#1d71b8"/>
                <path id="Trazado_631546" data-name="Trazado 631546" d="M928.874,3628.674s.018.139-.014.141l-.014-.127s-.161.093-.184.079l.181-.1s.051-.076.083-.07Z" fill="#1d71b8"/>
                <path id="Trazado_631547" data-name="Trazado 631547" d="M928.444,3628.718s-.076-.03.064-.146l.06.024s.086-.072.113-.062A2.959,2.959,0,0,1,928.444,3628.718Zm0-.023.1-.084s-.06-.023-.162.061Z" fill="#1d71b8"/>
                <path id="Trazado_631548" data-name="Trazado 631548" d="M928.068,3628.527a.393.393,0,0,1,.345-.029s-.2.115-.22.1c0,0,.2-.115.155-.192a.117.117,0,0,0-.059.019S928.091,3628.541,928.068,3628.527Z" fill="#1d71b8"/>
                <path id="Trazado_631549" data-name="Trazado 631549" d="M928.25,3628.286s.052.045.049.057S927.987,3628.47,928.25,3628.286Zm-.07,0c-.018,0-.038,0-.056.11l.141-.057A.371.371,0,0,0,928.18,3628.281Z" fill="#1d71b8"/>
                <path id="Trazado_631550" data-name="Trazado 631550" d="M928.164,3628.219a2.171,2.171,0,0,1-.354.078l.324-.091s-.057-.076-.027-.084C928.107,3628.122,928.171,3628.207,928.164,3628.219Z" fill="#1d71b8"/>
                <path id="Trazado_631551" data-name="Trazado 631551" d="M927.72,3628.156a2.255,2.255,0,0,1,.365-.054A2.368,2.368,0,0,1,927.72,3628.156Z" fill="#1d71b8"/>
                <path id="Trazado_631552" data-name="Trazado 631552" d="M927.723,3628.062a.13.13,0,0,0,.065,0l.167-.02c.028,0,.048-.01.005.019,0,0-.167.02-.2-.083C927.756,3627.983,927.753,3627.984,927.723,3628.062Z" fill="#1d71b8"/>
              </g>
              <path id="Trazado_631553" data-name="Trazado 631553" d="M930,3628.262a1.474,1.474,0,0,1-1.334,0,.407.407,0,0,1,0-.771,1.479,1.479,0,0,1,1.334,0A.407.407,0,0,1,930,3628.262Zm-1.262-.728a.363.363,0,0,0,0,.687,1.316,1.316,0,0,0,1.191,0,.363.363,0,0,0,0-.687A1.314,1.314,0,0,0,928.739,3627.534Z" fill="#1d71b8"/>
              <g id="Grupo_949581" data-name="Grupo 949581">
                <path id="Trazado_631554" data-name="Trazado 631554" d="M928.222,3627.519l-.157-.018s.031.092-.033.1l-.022-.09s-.138.043-.166.009l.142-.039s-.113-.061-.068-.087l.1.066s.068-.082.126-.065l-.075.077S928.233,3627.482,928.222,3627.519Z" fill="#1d71b8"/>
              </g>
              <g id="Grupo_949582" data-name="Grupo 949582">
                <path id="Trazado_631555" data-name="Trazado 631555" d="M930.826,3628.309l-.157-.017s.031.091-.034.095l-.021-.089s-.138.043-.166.009l.142-.04s-.113-.06-.068-.086l.105.066s.068-.083.126-.066l-.075.078S930.837,3628.272,930.826,3628.309Z" fill="#1d71b8"/>
              </g>
            </g>
            <g id="Grupo_949585" data-name="Grupo 949585">
              <path id="Trazado_631556" data-name="Trazado 631556" d="M940.054,3615.2l-3.728,2.824-.555,1.65a8.322,8.322,0,0,1-1.532,2.446l-.285-.074-1.74-.451a1.618,1.618,0,0,0,.039-.187c-.3-.487-1.393-.345-2.429-.247l-.161.436a.861.861,0,0,1,.815.48l-.2.346-.8,1.388-.09.157-.55-.335-.215-.012a.843.843,0,0,1-.54-.235l-1.137-.815a.86.86,0,0,1-.276-.872.555.555,0,0,1-.116-.524l-.039-.086a.819.819,0,0,1-.018-.621c.016-.041.391-1.038.391-1.038l.077-.3a.911.911,0,0,1,.845-.69c.009,0,3.991-1.1,3.991-1.1a5.9,5.9,0,0,1,1.908-.284l4.053-4.09Z" fill="#fcaf75"/>
              <path id="Trazado_631557" data-name="Trazado 631557" d="M932.226,3621.553a1.4,1.4,0,0,0,.027-.141c-.3-.487-1.393-.345-2.429-.247l-.161.436a.861.861,0,0,1,.815.48l-.2.346-1.128-.383a3.793,3.793,0,0,0,.564-1.665,3.456,3.456,0,0,0,2.63.077A2.055,2.055,0,0,1,932.226,3621.553Z" fill="#fcaf75" opacity="0.5" style="mix-blend-mode: multiply;isolation: isolate"/>
              <path id="Trazado_631558" data-name="Trazado 631558" d="M929.532,3622.91l-.057.905-.09.157-.55-.335-.215-.012a.843.843,0,0,1-.54-.235l-1.137-.815a.86.86,0,0,1-.276-.872.555.555,0,0,1-.116-.524l-.039-.086a.819.819,0,0,1-.018-.621c.016-.041.115.213.115.213l.465-1.121-.363,1.412.145.29a11.251,11.251,0,0,0,.6-2.043.706.706,0,0,1,.562-.491.754.754,0,0,0-.4.6,8.975,8.975,0,0,1-.6,2.139.813.813,0,0,0,.154.879c.257.269.632.435.868.16a.719.719,0,0,1-.12-.8,4.483,4.483,0,0,0,.546-1.822.68.68,0,0,1,.8-.7.828.828,0,0,0-.687.7,4.221,4.221,0,0,1-.443,1.88.578.578,0,0,0,.195.746A1.64,1.64,0,0,0,929.532,3622.91Z" fill="#fcaf75" opacity="0.5" style="mix-blend-mode: multiply;isolation: isolate"/>
              <g id="Grupo_949584" data-name="Grupo 949584">
                <path id="Trazado_631559" data-name="Trazado 631559" d="M931.564,3626.666c-.089.43-1.087.587-2.229.35s-1.995-.775-1.907-1.205,1.087-.587,2.229-.351S931.653,3626.236,931.564,3626.666Z" fill="#1d1d1b"/>
                <path id="Trazado_631560" data-name="Trazado 631560" d="M931.711,3625.976l-4.136-.855-.147.69,4.129.881Z" fill="#1d1d1b"/>
                <path id="Trazado_631561" data-name="Trazado 631561" d="M931.711,3625.976c-.089.43-1.086.587-2.228.351s-2-.776-1.907-1.206,1.086-.587,2.228-.35S931.8,3625.546,931.711,3625.976Z" fill="#292928"/>
                <path id="Trazado_631562" data-name="Trazado 631562" d="M931.638,3625.821c-.089.429-1.054.593-2.155.365s-1.923-.761-1.835-1.19,1.054-.594,2.156-.366S931.727,3625.391,931.638,3625.821Z" fill="#3c3c3b"/>
                <path id="Trazado_631563" data-name="Trazado 631563" d="M930.957,3625.651c-.063.292-.692.4-1.4.249s-1.237-.516-1.174-.809.692-.4,1.4-.249S931.021,3625.358,930.957,3625.651Z" fill="#1d1d1b"/>
                <path id="Trazado_631564" data-name="Trazado 631564" d="M930.774,3623.449l-1.278-.335a3.123,3.123,0,0,1-1.047,1.853l2.464.476A2.809,2.809,0,0,1,930.774,3623.449Z" fill="#1d1d1b"/>
                <path id="Trazado_631565" data-name="Trazado 631565" d="M931.439,3622.992c-.083.4-.578.624-1.341.476-.659-.129-1.112-.508-1.041-.968.075-.488.68-.6,1.34-.476C931.122,3622.163,931.521,3622.593,931.439,3622.992Z" fill="#3c3c3b"/>
                <path id="Trazado_631566" data-name="Trazado 631566" d="M931.269,3622.638c-.042.2-.509.261-1.043.145s-.932-.369-.889-.565.51-.261,1.043-.145S931.312,3622.441,931.269,3622.638Z" fill="#525250"/>
              </g>
              <path id="Trazado_631567" data-name="Trazado 631567" d="M934.239,3622.124l-.756.621a15.646,15.646,0,0,1-1.426,1.057c-.637.426-1.295,1.256-1.679.859-.7-.538,1.155-1.93,1.155-1.93a3.044,3.044,0,0,0,.681-1.132,2.389,2.389,0,0,1,1.8.371C934.09,3622.017,934.165,3622.068,934.239,3622.124Z" fill="#fcaf75"/>
            </g>
          </g>
          <path id="Trazado_631568" data-name="Trazado 631568" d="M933.479,3616.981c1.407-.058,1.723,1.261,2.292,2.7.18-.1-.025-.11.149-.213.607,0,6.848-4.631,7.325-5.009-1.058-2.115-2.361-3.77-4.551-3.748C937.064,3612.966,935.709,3614.146,933.479,3616.981Z" fill="#55b2e6"/>
          <path id="Trazado_631569" data-name="Trazado 631569" d="M935.92,3619.465a58.969,58.969,0,0,0,7.325-5.009,9.755,9.755,0,0,0-1.349-2.142Z" fill="#3f76ab" opacity="0.5" style="mix-blend-mode: multiply;isolation: isolate"/>
          <path id="Trazado_631570" data-name="Trazado 631570" d="M951.854,3627.631l-2.515,1.33a3.7,3.7,0,0,1-.158.436c-.532,1.318-1.439,2.043-2.938,3.132l-3.108,2.031c-.931.278-.992-.121-.713-.786l-1.282.883c-.871.532-1.572-.048-1.173-.7l-.835.363c-.713.194-1.052-.145-.568-.858a2.022,2.022,0,0,1,.206-.278l.508-.484c-.726.363-1.464,0-.52-.955a35.835,35.835,0,0,1,4.97-4.656,10.729,10.729,0,0,1,4.026-1.064l2.721-.907Z" fill="#fcaf75"/>
          <path id="Trazado_631571" data-name="Trazado 631571" d="M972.276,3593.757c2.992,2.485,3.8,4.978,3.248,10.257a49.655,49.655,0,0,1-6.2,19.861c-5.178,2.837-12.378,4.385-20.14,5.523a3.04,3.04,0,0,0-1.907-3.324c6.965-3.334,14.708-7.919,17.539-7.7a72.931,72.931,0,0,1,2.5-16.5C968.315,3598,969.784,3594.97,972.276,3593.757Z" fill="#55b2e6"/>
          <path id="Trazado_631572" data-name="Trazado 631572" d="M949.169,3629.409c-.52,1.306-1.427,2.031-2.926,3.12l-3.108,2.031c-.931.278-.992-.121-.713-.786l-1.282.883c-.871.532-1.572-.048-1.173-.7.411,1.016,1.378.158,2.733-.689-.641,1.234.665.895,1.354.182A21.307,21.307,0,0,0,949.169,3629.409Z" fill="#fcaf75" opacity="0.5" style="mix-blend-mode: multiply;isolation: isolate"/>
          <g id="Grupo_949591" data-name="Grupo 949591">
            <g id="Grupo_949588" data-name="Grupo 949588">
              <rect id="Rectángulo_338225" data-name="Rectángulo 338225" width="1.542" height="4.725" transform="matrix(0.5, -0.866, 0.866, 0.5, 948.746, 3657.066)" fill="#333332"/>
              <path id="Trazado_631573" data-name="Trazado 631573" d="M968.34,3649.612l-15.825,9.091c0,.714.492,1,1.1.648l13.627-7.823a2.431,2.431,0,0,0,1.1-1.9Z" fill="#333332"/>
              <path id="Trazado_631574" data-name="Trazado 631574" d="M932.3,3646.938l15.782-9.021,20.255,11.694-15.825,9.092Z" fill="#575756"/>
              <g id="Grupo_949587" data-name="Grupo 949587">
                <path id="Trazado_631575" data-name="Trazado 631575" d="M954.51,3655l-.9.52,1.113.643.9-.52Z" fill="#dadada"/>
                <path id="Trazado_631576" data-name="Trazado 631576" d="M950.945,3653.981l1.113.643.9-.52-1.113-.643Z" fill="#dadada"/>
                <path id="Trazado_631577" data-name="Trazado 631577" d="M950.513,3652.692l-.9.52,1.113.643.9-.52Z" fill="#dadada"/>
                <path id="Trazado_631578" data-name="Trazado 631578" d="M949.18,3651.922l-.9.52,1.113.643.9-.52Z" fill="#dadada"/>
                <path id="Trazado_631579" data-name="Trazado 631579" d="M947.848,3651.153l-.9.52,1.113.643.9-.52Z" fill="#dadada"/>
                <path id="Trazado_631580" data-name="Trazado 631580" d="M944.283,3650.134l1.113.643.9-.52-1.113-.643Z" fill="#dadada"/>
                <path id="Trazado_631581" data-name="Trazado 631581" d="M943.85,3648.845l-.9.52,1.113.643.9-.52Z" fill="#dadada"/>
                <path id="Trazado_631582" data-name="Trazado 631582" d="M942.518,3648.076l-.9.52,1.113.643.9-.52Z" fill="#dadada"/>
                <path id="Trazado_631583" data-name="Trazado 631583" d="M946.175,3644.172l.9-.52-1.113-.643-.9.52Z" fill="#dadada"/>
                <path id="Trazado_631584" data-name="Trazado 631584" d="M944.842,3643.4l.9-.52-1.113-.643-.9.52Z" fill="#dadada"/>
                <path id="Trazado_631585" data-name="Trazado 631585" d="M944.41,3642.114l-1.113-.643-.9.52,1.113.643Z" fill="#dadada"/>
                <path id="Trazado_631586" data-name="Trazado 631586" d="M960.359,3652.7l.9-.52-1.113-.643-.9.52Z" fill="#dadada"/>
                <path id="Trazado_631587" data-name="Trazado 631587" d="M959.026,3651.927l.9-.52-1.113-.643-.9.52Z" fill="#dadada"/>
                <path id="Trazado_631588" data-name="Trazado 631588" d="M951.25,3647.438l2.02,1.166.426.246.219.127.557.321.776.448,1.113.643,1.332.769.9-.52-3.65-2.107-.128-.074-2.665-1.539Z" fill="#dadada"/>
                <path id="Trazado_631589" data-name="Trazado 631589" d="M951.031,3647.311l.9-.52-1.113-.643-.9.52Z" fill="#dadada"/>
                <path id="Trazado_631590" data-name="Trazado 631590" d="M949.7,3646.542l.9-.52-1.113-.643-.9.52Z" fill="#dadada"/>
                <path id="Trazado_631591" data-name="Trazado 631591" d="M949.266,3645.253l-1.113-.643-.9.52,1.113.643Z" fill="#dadada"/>
                <path id="Trazado_631592" data-name="Trazado 631592" d="M945.956,3644.3l-1.113-.643-.9.52,1.113.643Z" fill="#dadada"/>
                <path id="Trazado_631593" data-name="Trazado 631593" d="M944.623,3643.53l-1.113-.643-.9.52,1.113.643Z" fill="#dadada"/>
                <path id="Trazado_631594" data-name="Trazado 631594" d="M943.291,3642.76l-1.113-.643-.9.52,1.113.643Z" fill="#dadada"/>
                <path id="Trazado_631595" data-name="Trazado 631595" d="M960.139,3652.823l-1.113-.643-.9.52,1.113.643Z" fill="#dadada"/>
                <path id="Trazado_631596" data-name="Trazado 631596" d="M956.793,3651.931l1.113.643.9-.52-1.113-.643Z" fill="#dadada"/>
                <path id="Trazado_631597" data-name="Trazado 631597" d="M955.461,3651.161l1.113.643.9-.52-1.113-.643Z" fill="#dadada"/>
                <path id="Trazado_631598" data-name="Trazado 631598" d="M954.129,3650.392l1.113.643.9-.52-1.113-.643Z" fill="#dadada"/>
                <path id="Trazado_631599" data-name="Trazado 631599" d="M952.8,3649.623l1.113.643.9-.52-1.113-.643Z" fill="#dadada"/>
                <path id="Trazado_631600" data-name="Trazado 631600" d="M951.464,3648.853l1.113.643.9-.52-1.113-.643Z" fill="#dadada"/>
                <path id="Trazado_631601" data-name="Trazado 631601" d="M950.131,3648.084l1.113.643.9-.519-1.113-.643Z" fill="#dadada"/>
                <path id="Trazado_631602" data-name="Trazado 631602" d="M948.8,3647.314l1.113.643.9-.52-1.113-.643Z" fill="#dadada"/>
                <path id="Trazado_631603" data-name="Trazado 631603" d="M947.466,3646.545l1.113.643.9-.52-1.113-.643Z" fill="#dadada"/>
                <path id="Trazado_631604" data-name="Trazado 631604" d="M944.836,3644.945l-1.113-.643-.9.52,1.113.643Z" fill="#dadada"/>
                <path id="Trazado_631605" data-name="Trazado 631605" d="M941.491,3644.053l1.113.643.9-.52-1.113-.643Z" fill="#dadada"/>
                <path id="Trazado_631606" data-name="Trazado 631606" d="M942.171,3643.406l-1.113-.643-.9.52,1.113.643Z" fill="#dadada"/>
                <path id="Trazado_631607" data-name="Trazado 631607" d="M959.02,3653.469l-1.113-.643-.9.52,1.113.643Z" fill="#dadada"/>
                <path id="Trazado_631608" data-name="Trazado 631608" d="M955.674,3652.577l1.113.643.9-.52-1.113-.643Z" fill="#dadada"/>
                <path id="Trazado_631609" data-name="Trazado 631609" d="M956.355,3651.931l-1.113-.643-.9.52,1.113.643Z" fill="#dadada"/>
                <path id="Trazado_631610" data-name="Trazado 631610" d="M955.023,3651.161l-1.113-.643-.9.52,1.113.643Z" fill="#dadada"/>
                <path id="Trazado_631611" data-name="Trazado 631611" d="M953.69,3650.392l-1.113-.643-.9.52,1.113.643Z" fill="#dadada"/>
                <path id="Trazado_631612" data-name="Trazado 631612" d="M952.358,3649.623l-1.113-.643-.9.52,1.113.643Z" fill="#dadada"/>
                <path id="Trazado_631613" data-name="Trazado 631613" d="M949.012,3648.73l1.113.643.9-.52-1.113-.643Z" fill="#dadada"/>
                <path id="Trazado_631614" data-name="Trazado 631614" d="M949.693,3648.084l-1.113-.643-.9.52,1.114.643Z" fill="#dadada"/>
                <path id="Trazado_631615" data-name="Trazado 631615" d="M946.127,3647.065l1.333.769.9-.52-1.333-.769,1.119-.646-1.113-.643-1.119.646-.365.211-.535.309.744.429Z" fill="#dadada"/>
                <path id="Trazado_631616" data-name="Trazado 631616" d="M942.817,3646.111l.9-.52-1.113-.643-.9.52Z" fill="#dadada"/>
                <path id="Trazado_631617" data-name="Trazado 631617" d="M941.271,3644.179l-.9.52,1.113.643.9-.52Z" fill="#dadada"/>
                <path id="Trazado_631618" data-name="Trazado 631618" d="M941.052,3644.053l-1.113-.643-.9.52,1.113.643Z" fill="#dadada"/>
                <path id="Trazado_631619" data-name="Trazado 631619" d="M957.9,3654.116l-1.113-.643-.9.52,1.113.643Z" fill="#dadada"/>
                <path id="Trazado_631620" data-name="Trazado 631620" d="M955.668,3653.866l.9-.519-1.113-.643-.9.52Z" fill="#dadada"/>
                <path id="Trazado_631621" data-name="Trazado 631621" d="M955.236,3652.577l-1.113-.643-.9.52,1.113.643Z" fill="#dadada"/>
                <path id="Trazado_631622" data-name="Trazado 631622" d="M952.79,3651.165l-.9.52,1.113.643.9-.52Z" fill="#dadada"/>
                <path id="Trazado_631623" data-name="Trazado 631623" d="M952.571,3651.038l-1.113-.643-.9.52,1.113.643Z" fill="#dadada"/>
                <path id="Trazado_631624" data-name="Trazado 631624" d="M951.238,3650.269l-1.113-.643-.9.52,1.113.643Z" fill="#dadada"/>
                <path id="Trazado_631625" data-name="Trazado 631625" d="M949.006,3650.019l.9-.52-1.113-.643-.9.52Z" fill="#dadada"/>
                <path id="Trazado_631626" data-name="Trazado 631626" d="M948.573,3648.73l-1.113-.643-.9.52,1.113.643Z" fill="#dadada"/>
                <path id="Trazado_631627" data-name="Trazado 631627" d="M945.908,3647.191l-.406-.234-.707-.408-.9.52.707.408.406.234,1.332.769.9-.52Z" fill="#dadada"/>
                <path id="Trazado_631628" data-name="Trazado 631628" d="M939.465,3646.761l1.113.643.9-.52-1.113-.643Z" fill="#dadada"/>
                <path id="Trazado_631629" data-name="Trazado 631629" d="M939.033,3645.472l-.9.52,1.113.643.9-.52Z" fill="#dadada"/>
                <path id="Trazado_631630" data-name="Trazado 631630" d="M937.7,3644.7l-.9.52,1.113.643.9-.52Z" fill="#dadada"/>
              </g>
              <path id="Trazado_631631" data-name="Trazado 631631" d="M958.7,3645.424l-2.671,1.542a.488.488,0,0,1-.44,0l-4.029-2.326a.134.134,0,0,1,0-.254l2.671-1.542a.487.487,0,0,1,.44,0l4.029,2.326A.134.134,0,0,1,958.7,3645.424Z" fill="#878787"/>
            </g>
            <g id="Grupo_949590" data-name="Grupo 949590">
              <g id="Grupo_949589" data-name="Grupo 949589">
                <path id="Trazado_631632" data-name="Trazado 631632" d="M932.246,3647.2l-4.359-15.927a2.27,2.27,0,0,0-.779,2.013l3.776,13.815c.161.583.765.632,1.351.108Z" fill="#4a4a49"/>
                <path id="Trazado_631633" data-name="Trazado 631633" d="M948.129,3642.961l3.308,16.243L931.2,3647.518l-3.308-16.243Z" fill="#4a4a49"/>
                <path id="Trazado_631634" data-name="Trazado 631634" d="M952.5,3658.9l-4.358-15.927a2.272,2.272,0,0,0-.78,2.013l3.777,13.816c.16.583.765.631,1.35.108Z" fill="#333332"/>
              </g>
              <path id="Trazado_631635" data-name="Trazado 631635" d="M939.6,3645.906c.114.688-.313.967-.953.623a2.955,2.955,0,0,1-1.364-1.868c-.114-.688.313-.967.953-.623A2.955,2.955,0,0,1,939.6,3645.906Z" fill="#dadada"/>
            </g>
          </g>
        </g>
        <g id="Grupo_949605" data-name="Grupo 949605">
          <path id="Trazado_631636" data-name="Trazado 631636" d="M795.28,3676.738c0-6.455,4.511-14.869,10.076-18.793,3.138-2.212,5.94-2.524,7.788-1.219.012-.02,24.439,14.884,24.439,14.884a3.787,3.787,0,0,1,1.672,1.519l4.018,2.194a1.672,1.672,0,0,1,.658,1.161l2.842,1.576a46.735,46.735,0,0,0,12.759-.441,5.193,5.193,0,0,1,4.493,1.138,20.879,20.879,0,0,0,9.109,5.419l10.132-6.569,71.967,45.679-55.228,28.76-71.717-38.8,12.5-8.1c-.225-.167-.435-.343-.646-.518-.111-.092-.232-.178-.339-.272-.329-.29-.633-.6-.931-.911-.087-.091-.182-.175-.266-.268-.294-.324-.568-.67-.836-1.02-.075-.1-.156-.186-.229-.286-.258-.352-.5-.729-.743-1.11-.073-.115-.152-.221-.223-.339-.225-.37-.441-.767-.657-1.165-.081-.15-.166-.288-.247-.442-.189-.362-.375-.755-.562-1.142-.1-.215-.208-.414-.312-.637q-.41-.879-.83-1.847a4.448,4.448,0,0,1-3.68.65l-1.858-.921a4.582,4.582,0,0,1-3.427-.167l-26.438-11.715C796.55,3682.319,795.28,3680.152,795.28,3676.738Z" opacity="0.5" fill="url(#linear-gradient)" style="mix-blend-mode: multiply;isolation: isolate"/>
          <g id="Grupo_949604" data-name="Grupo 949604">
            <path id="Trazado_631637" data-name="Trazado 631637" d="M794.885,3659.6c0,6.455,4.532,9.071,10.122,5.844s10.122-11.077,10.122-17.532-4.532-9.072-10.122-5.844S794.885,3653.145,794.885,3659.6Z" fill="#1d1d1b"/>
            <g id="Grupo_949603" data-name="Grupo 949603">
              <path id="Trazado_631638" data-name="Trazado 631638" d="M822.312,3675.713c0-5.638,3.959-12.494,8.842-15.313,2.428-1.4,4.628-1.541,6.226-.633,1.614.917,2.615,2.9,2.615,5.737,0,5.638-3.958,12.5-8.841,15.314-2.526,1.458-4.8,1.547-6.414.516C823.236,3680.372,822.312,3678.435,822.312,3675.713Z" fill="#575756"/>
              <path id="Trazado_631639" data-name="Trazado 631639" d="M830.049,3683.084c3.585,1.54,7.116-2.522,9.472-6.049,2.162-4.941,5.856-10.981,3.575-12.843-2.588-1.844-9.541.1-14.231,1.956C828.1,3672.271,825.426,3680.1,830.049,3683.084Z" fill="#dadada"/>
              <path id="Trazado_631640" data-name="Trazado 631640" d="M869.223,3682.663s-.034.017-.1.042c-.362.151-.658,1.223-2.587,2.108-1.2.547-.3,1.461-1.823,2.236-.008,0-2.158,1.028-2.166,1.028a69.811,69.811,0,0,0-9.429,5.379c-1.466,1.044-4.63.914-5.775,2.009a19.731,19.731,0,0,0-1.542,1.651,29.128,29.128,0,0,1-3.445-2.038c-4.388-3.041-6.283-6.578-8.65-12.281l-5.188-4.632c-2.249-6.452,6.452-16.138,12.07-14.874l9.972,6.746,15.414,10.427,2.678,1.811Z" fill="#fcaf75"/>
              <path id="Trazado_631641" data-name="Trazado 631641" d="M835.111,3681.467c2.266,6.056,5.464,7.8,9.785,8.785,4.169,1.02,14.068-2.039,18.313-7.219.484-.275,3,.726,3.056.917,0,0-7.275,4.883-8.827,6.224l-12.266,6.606c-.171-.092-.35-.183-.516-.276l-.29-.165c-.26-.149-.513-.3-.759-.449-.115-.07-.231-.141-.344-.212-.212-.134-.416-.27-.618-.406-4.591-3.088-6.527-6.653-8.941-12.475l-5.188-4.632-.363-3.507Z" fill="#fcaf75" opacity="0.5" style="mix-blend-mode: multiply;isolation: isolate"/>
              <g id="Grupo_949601" data-name="Grupo 949601">
                <g id="Grupo_949599" data-name="Grupo 949599">
                  <g id="Grupo_949593" data-name="Grupo 949593">
                    <path id="Trazado_631642" data-name="Trazado 631642" d="M900,3752.046l55.228-28.76-71.962-51.8-55.228,28.76Z" fill="#fff"/>
                    <path id="Trazado_631643" data-name="Trazado 631643" d="M843.565,3701.6l39.919-20.788-2.182-1.571-39.919,20.788Z" fill="#1d1d1b"/>
                    <path id="Trazado_631644" data-name="Trazado 631644" d="M849.541,3705.9l39.919-20.788-1.343-.967L848.2,3704.937Z" fill="#1d1d1b"/>
                    <path id="Trazado_631645" data-name="Trazado 631645" d="M853.15,3708.5l39.919-20.788-1.343-.967-39.919,20.788Z" fill="#1d1d1b"/>
                    <path id="Trazado_631646" data-name="Trazado 631646" d="M856.758,3711.1l39.919-20.788-1.343-.967-39.919,20.788Z" fill="#1d1d1b"/>
                    <path id="Trazado_631647" data-name="Trazado 631647" d="M863.976,3716.295l39.919-20.788-1.343-.967-39.919,20.788Z" fill="#1d1d1b"/>
                    <path id="Trazado_631648" data-name="Trazado 631648" d="M867.585,3718.892,907.5,3698.1l-1.343-.967-39.919,20.788Z" fill="#1d1d1b"/>
                    <path id="Trazado_631649" data-name="Trazado 631649" d="M895.829,3708.662l15.284-7.959-1.343-.967-15.284,7.959Z" fill="#1d1d1b"/>
                    <path id="Trazado_631650" data-name="Trazado 631650" d="M874.8,3724.088l39.919-20.788-1.343-.967-39.919,20.788Z" fill="#1d1d1b"/>
                    <path id="Trazado_631651" data-name="Trazado 631651" d="M878.411,3726.686l39.919-20.788-1.343-.967-39.919,20.788Z" fill="#1d1d1b"/>
                    <path id="Trazado_631652" data-name="Trazado 631652" d="M891.371,3724.415l30.569-15.918-1.343-.967-30.569,15.918Z" fill="#1d1d1b"/>
                    <path id="Trazado_631653" data-name="Trazado 631653" d="M914.964,3725.56l17.8-9.27-1.343-.967-17.8,9.27Z" fill="#1d1d1b"/>
                    <path id="Trazado_631654" data-name="Trazado 631654" d="M918.573,3728.158l17.8-9.27-1.343-.967-17.8,9.27Z" fill="#1d1d1b"/>
                  </g>
                  <g id="Grupo_949598" data-name="Grupo 949598">
                    <path id="Trazado_631655" data-name="Trazado 631655" d="M892.476,3740.915c-4.352-3.133-4.02-7.7.739-10.176s12.171-1.946,16.523,1.187,4.02,7.7-.739,10.175S896.827,3744.047,892.476,3740.915Zm.581-.3a16.148,16.148,0,0,0,15.41,1.106c4.438-2.311,4.747-6.568.689-9.489a16.146,16.146,0,0,0-15.409-1.107C889.309,3733.433,889,3737.691,893.057,3740.612Z" fill="#1d71b8"/>
                    <path id="Trazado_631656" data-name="Trazado 631656" d="M893.736,3740.258c-3.716-2.675-3.432-6.573.632-8.689a14.785,14.785,0,0,1,14.109,1.013c3.716,2.675,3.433,6.573-.631,8.69A14.787,14.787,0,0,1,893.736,3740.258Zm.388-.2a14.005,14.005,0,0,0,13.367.96c3.851-2.005,4.119-5.7.6-8.232a14.008,14.008,0,0,0-13.367-.96C890.872,3733.829,890.6,3737.522,894.124,3740.056Z" fill="#1d71b8"/>
                    <path id="Trazado_631657" data-name="Trazado 631657" d="M896.717,3738.706c-2.213-1.593-2.045-3.915.376-5.175a8.806,8.806,0,0,1,8.4.6c2.213,1.594,2.044,3.915-.377,5.175A8.8,8.8,0,0,1,896.717,3738.706Zm.388-.2a8.029,8.029,0,0,0,7.661.55c2.206-1.149,2.36-3.265.343-4.718a8.03,8.03,0,0,0-7.661-.55C895.241,3734.935,895.087,3737.052,897.1,3738.5Z" fill="#1d71b8"/>
                    <g id="Grupo_949594" data-name="Grupo 949594">
                      <path id="Trazado_631658" data-name="Trazado 631658" d="M895.133,3734.084s-1.548-.719-1.447-.807l1.26.584-.792-.922c-.018-.022-.032-.043.083-.135,0,0,1.546.717,1.444.8l-1.256-.583a12.632,12.632,0,0,1,.818,1.041C895.231,3734.077,895.214,3734.085,895.133,3734.084Z" fill="#1d71b8"/>
                      <path id="Trazado_631659" data-name="Trazado 631659" d="M894.742,3734.71a.457.457,0,0,1-.161.074.753.753,0,0,1-.214.019,1.2,1.2,0,0,1-.27-.05l-.792-.23a.927.927,0,0,1-.235-.1.345.345,0,0,1-.124-.117.194.194,0,0,1-.027-.128.3.3,0,0,1,.054-.134.458.458,0,0,1,.274-.191.723.723,0,0,1,.214-.018,1.17,1.17,0,0,1,.267.048l.792.229a.962.962,0,0,1,.237.1.358.358,0,0,1,.124.116.193.193,0,0,1,.027.129.333.333,0,0,1-.053.134A.483.483,0,0,1,894.742,3734.71Zm-.578-.058a.673.673,0,0,0,.334.028.312.312,0,0,0,.2-.132.159.159,0,0,0,.012-.188.463.463,0,0,0-.259-.143l-.791-.23a.685.685,0,0,0-.332-.028.316.316,0,0,0-.2.134.159.159,0,0,0-.012.187.453.453,0,0,0,.256.142Z" fill="#1d71b8"/>
                      <path id="Trazado_631660" data-name="Trazado 631660" d="M892.769,3734.723l-.086.277a8.964,8.964,0,0,1,1.7.388l-1.736-.279s-.086.275-.253.248C892.4,3735.357,892.6,3734.7,892.769,3734.723Z" fill="#1d71b8"/>
                      <path id="Trazado_631661" data-name="Trazado 631661" d="M894.315,3735.744l-.425.056-.011.469s.421.1.37.207a9.824,9.824,0,0,1-1.855-.586,17.051,17.051,0,0,1,1.969-.187C894.364,3735.713,894.36,3735.722,894.315,3735.744Zm-.581.076-1.114.148,1.1.265Z" fill="#1d71b8"/>
                      <path id="Trazado_631662" data-name="Trazado 631662" d="M894.344,3736.725l-.829.062.067.215.891.2c.023.005.046.012,0,.119l-.879-.2a.3.3,0,0,1-.02.108.213.213,0,0,1-.072.091.454.454,0,0,1-.137.068.96.96,0,0,1-.211.037,1,1,0,0,1-.262-.011.586.586,0,0,1-.189-.067.379.379,0,0,1-.124-.109.461.461,0,0,1-.069-.138l-.093-.3c-.005-.029.012-.045.052-.048A10.4,10.4,0,0,1,894.344,3736.725Zm-1.666.361a.3.3,0,0,0,.142.177.543.543,0,0,0,.311.049.4.4,0,0,0,.271-.093.189.189,0,0,0,.031-.19l-.072-.23-.754.057Z" fill="#1d71b8"/>
                      <path id="Trazado_631663" data-name="Trazado 631663" d="M894.843,3737.821s-.644.138-.662.145c0,0-.786.552-.914.472l.729-.5-1.12-.1c-.041,0-.068-.014.005-.106,0,0,1.226.118,1.248.115C894.129,3737.852,894.773,3737.714,894.843,3737.821Z" fill="#1d71b8"/>
                      <path id="Trazado_631664" data-name="Trazado 631664" d="M895.577,3738.656l-.58.26.247.2a.535.535,0,0,1,.116.126.19.19,0,0,1,.033.128.209.209,0,0,1-.065.126.671.671,0,0,1-.206.127.864.864,0,0,1-.239.073.74.74,0,0,1-.215,0,.629.629,0,0,1-.191-.057.808.808,0,0,1-.164-.1l-.315-.258c-.029-.027-.028-.048,0-.062A7.429,7.429,0,0,1,895.577,3738.656Zm-1.136.824a.492.492,0,0,0,.259.11.621.621,0,0,0,.337-.07c.111-.05.173-.1.183-.164s-.022-.12-.1-.183l-.247-.2-.68.307Z" fill="#1d71b8"/>
                      <path id="Trazado_631665" data-name="Trazado 631665" d="M896.786,3739.892c.092-.064.131-.126.12-.187s-.064-.117-.16-.17a.588.588,0,0,0-.291-.077.483.483,0,0,0-.281.1s-.868.618-1.008.54l.867-.618a.728.728,0,0,1,.207-.1.685.685,0,0,1,.21-.03.767.767,0,0,1,.206.032,1.088,1.088,0,0,1,.2.082.776.776,0,0,1,.155.11.273.273,0,0,1,.077.124.184.184,0,0,1-.019.134.424.424,0,0,1-.138.143s-.867.618-1.007.541Z" fill="#1d71b8"/>
                      <path id="Trazado_631666" data-name="Trazado 631666" d="M897.629,3739.856l.461.165a.856.856,0,0,1,.177.084.332.332,0,0,1,.11.106.188.188,0,0,1,.024.13.387.387,0,0,1-.1.18.451.451,0,0,1-.1.091.408.408,0,0,1-.112.052.479.479,0,0,1-.121.021.727.727,0,0,1-.132,0,.192.192,0,0,1,.077.141.254.254,0,0,1-.074.174.4.4,0,0,1-.146.112.465.465,0,0,1-.173.037.7.7,0,0,1-.191-.02,1.636,1.636,0,0,1-.2-.06,2.056,2.056,0,0,1-.444-.206A9.287,9.287,0,0,1,897.629,3739.856Zm.01.12-.382.448.356.127a.67.67,0,0,0,.292.044.378.378,0,0,0,.249-.153c.065-.076.081-.142.05-.2a.38.38,0,0,0-.209-.141Zm-.758.889.311.111a1.242,1.242,0,0,0,.145.042.5.5,0,0,0,.131.012.336.336,0,0,0,.116-.028.256.256,0,0,0,.1-.073c.059-.07.074-.128.043-.176a.44.44,0,0,0-.216-.132l-.321-.114Z" fill="#1d71b8"/>
                      <path id="Trazado_631667" data-name="Trazado 631667" d="M899.718,3740.56l-.754-.166s-.486,1.034-.66,1a7.232,7.232,0,0,1,.61-1.114S899.763,3740.463,899.718,3740.56Z" fill="#1d71b8"/>
                      <path id="Trazado_631668" data-name="Trazado 631668" d="M900.2,3740.559s-.273,1.133-.452,1.108C899.747,3741.667,900.019,3740.535,900.2,3740.559Z" fill="#1d71b8"/>
                      <path id="Trazado_631669" data-name="Trazado 631669" d="M901.7,3741.577a.175.175,0,0,1-.039.107.31.31,0,0,1-.111.085.618.618,0,0,1-.177.054,1.078,1.078,0,0,1-.241.011,1.164,1.164,0,0,1-.222-.029.593.593,0,0,1-.182-.072.369.369,0,0,1-.125-.117.3.3,0,0,1-.046-.17l0-.526a.286.286,0,0,1,.046-.167.32.32,0,0,1,.123-.106.562.562,0,0,1,.181-.055,1.29,1.29,0,0,1,.462.025.726.726,0,0,1,.181.071.369.369,0,0,1,.113.1c.025.036.038.073-.054.177-.055,0-.085-.018-.11-.116a.181.181,0,0,0-.05-.071.308.308,0,0,0-.108-.057.7.7,0,0,0-.2-.031.585.585,0,0,0-.3.049.2.2,0,0,0-.1.192l0,.527a.221.221,0,0,0,.1.2.58.58,0,0,0,.294.077.716.716,0,0,0,.2-.013.339.339,0,0,0,.116-.048c.027-.02.045-.042.072-.127C901.516,3741.531,901.523,3741.521,901.7,3741.577Z" fill="#1d71b8"/>
                    </g>
                    <g id="Grupo_949595" data-name="Grupo 949595">
                      <path id="Trazado_631670" data-name="Trazado 631670" d="M906.867,3738.967s1.482.773,1.37.856l-1.2-.627s.7.946.6,1.077c0,0-1.478-.771-1.368-.855l1.2.627a11.442,11.442,0,0,1-.718-1.065C906.768,3738.969,906.785,3738.962,906.867,3738.967Z" fill="#1d71b8"/>
                      <path id="Trazado_631671" data-name="Trazado 631671" d="M907.321,3738.358a.484.484,0,0,1,.168-.067.723.723,0,0,1,.216-.01,1.108,1.108,0,0,1,.266.059l.771.258a.925.925,0,0,1,.227.106.319.319,0,0,1,.112.12.187.187,0,0,1,.015.129.333.333,0,0,1-.067.131.5.5,0,0,1-.124.113.527.527,0,0,1-.169.067.754.754,0,0,1-.217.01,1.167,1.167,0,0,1-.263-.058l-.771-.258a.918.918,0,0,1-.229-.107.33.33,0,0,1-.112-.12.193.193,0,0,1-.016-.129.348.348,0,0,1,.068-.132A.519.519,0,0,1,907.321,3738.358Zm.573.08a.692.692,0,0,0-.333-.041.347.347,0,0,0-.214.124.162.162,0,0,0-.029.187.428.428,0,0,0,.244.152l.771.258a.674.674,0,0,0,.33.04.332.332,0,0,0,.214-.125.158.158,0,0,0,.031-.186.429.429,0,0,0-.243-.151Z" fill="#1d71b8"/>
                      <path id="Trazado_631672" data-name="Trazado 631672" d="M909.3,3738.419l.113-.271a8.7,8.7,0,0,1-1.669-.45l1.713.343s.113-.27.278-.237C909.734,3737.8,909.464,3738.453,909.3,3738.419Z" fill="#1d71b8"/>
                      <path id="Trazado_631673" data-name="Trazado 631673" d="M907.847,3737.346l.432-.039.058-.466s-.413-.116-.351-.22a9.481,9.481,0,0,1,1.8.652,17.481,17.481,0,0,1-1.993.113C907.8,3737.376,907.8,3737.367,907.847,3737.346Zm.593-.053,1.129-.1-1.08-.3Z" fill="#1d71b8"/>
                      <path id="Trazado_631674" data-name="Trazado 631674" d="M907.917,3736.372l.837-.031-.046-.217-.873-.23c-.023-.006-.046-.014.008-.118l.862.231a.282.282,0,0,1,.03-.107.23.23,0,0,1,.081-.088.513.513,0,0,1,.144-.061,1.137,1.137,0,0,1,.476-.009.568.568,0,0,1,.184.074.4.4,0,0,1,.114.113.476.476,0,0,1,.055.14l.063.3c0,.029-.016.043-.057.044A10.59,10.59,0,0,1,907.917,3736.372Zm1.705-.3a.275.275,0,0,0-.126-.181.533.533,0,0,0-.306-.06.432.432,0,0,0-.281.082.194.194,0,0,0-.049.188l.049.231.763-.028Z" fill="#1d71b8"/>
                      <path id="Trazado_631675" data-name="Trazado 631675" d="M907.523,3735.263s.659-.113.678-.119c0,0,.843-.519.962-.435l-.78.466,1.114.14c.041.005.066.017-.016.1,0,0-1.217-.163-1.238-.161C908.243,3735.259,907.582,3735.372,907.523,3735.263Z" fill="#1d71b8"/>
                      <path id="Trazado_631676" data-name="Trazado 631676" d="M906.869,3734.405l.606-.237-.227-.21a.458.458,0,0,1-.1-.129.2.2,0,0,1-.022-.129.242.242,0,0,1,.078-.122.751.751,0,0,1,.219-.119.96.96,0,0,1,.247-.063.759.759,0,0,1,.216.006.667.667,0,0,1,.186.063.733.733,0,0,1,.154.108l.291.269c.027.028.024.049-.01.061A7.9,7.9,0,0,1,906.869,3734.405Zm1.219-.775a.456.456,0,0,0-.248-.12.666.666,0,0,0-.346.057c-.116.046-.183.1-.2.156s.01.121.081.185l.227.21.713-.278Z" fill="#1d71b8"/>
                      <path id="Trazado_631677" data-name="Trazado 631677" d="M905.778,3733.131c-.1.061-.143.122-.139.182s.053.119.145.175a.545.545,0,0,0,.283.087.518.518,0,0,0,.293-.087s.93-.581,1.062-.5l-.929.582a.758.758,0,0,1-.218.1.744.744,0,0,1-.213.023.784.784,0,0,1-.2-.041.926.926,0,0,1-.188-.088.726.726,0,0,1-.145-.116.248.248,0,0,1-.065-.125.2.2,0,0,1,.032-.133.47.47,0,0,1,.152-.137s.929-.582,1.064-.5Z" fill="#1d71b8"/>
                      <path id="Trazado_631678" data-name="Trazado 631678" d="M904.911,3733.126l-.446-.181a.826.826,0,0,1-.17-.091.3.3,0,0,1-.1-.11.179.179,0,0,1-.011-.128.415.415,0,0,1,.123-.176.547.547,0,0,1,.11-.087.491.491,0,0,1,.117-.048.509.509,0,0,1,.125-.015.745.745,0,0,1,.132.007.173.173,0,0,1-.064-.142.265.265,0,0,1,.091-.171.448.448,0,0,1,.158-.1.49.49,0,0,1,.176-.031.7.7,0,0,1,.189.027,2.044,2.044,0,0,1,.2.067,1.906,1.906,0,0,1,.425.222A10.177,10.177,0,0,1,904.911,3733.126Zm.847-.974-.3-.123a1.354,1.354,0,0,0-.141-.047.548.548,0,0,0-.131-.017.36.36,0,0,0-.118.023.286.286,0,0,0-.1.07c-.068.067-.087.125-.061.173a.4.4,0,0,0,.2.138l.311.127Zm-.846.855.427-.431-.343-.14a.66.66,0,0,0-.289-.054.409.409,0,0,0-.265.142c-.072.074-.1.138-.069.194a.338.338,0,0,0,.2.149Z" fill="#1d71b8"/>
                      <path id="Trazado_631679" data-name="Trazado 631679" d="M902.9,3732.358l.74.193s.588-1.01.759-.965a7.737,7.737,0,0,1-.721,1.084S902.85,3732.453,902.9,3732.358Z" fill="#1d71b8"/>
                      <path id="Trazado_631680" data-name="Trazado 631680" d="M902.422,3732.341s.385-1.114.562-1.084C902.984,3731.257,902.6,3732.372,902.422,3732.341Z" fill="#1d71b8"/>
                      <path id="Trazado_631681" data-name="Trazado 631681" d="M901.024,3731.272a.185.185,0,0,1,.051-.1.354.354,0,0,1,.118-.08.68.68,0,0,1,.184-.046,1.129,1.129,0,0,1,.242,0,1.229,1.229,0,0,1,.221.039.57.57,0,0,1,.176.078.359.359,0,0,1,.112.121.3.3,0,0,1,.029.171l-.055.522a.314.314,0,0,1-.064.164.353.353,0,0,1-.135.1.575.575,0,0,1-.187.047,1.248,1.248,0,0,1-.46-.043.662.662,0,0,1-.175-.078.3.3,0,0,1-.1-.1c-.022-.036-.032-.074.07-.174.056.006.085.023.1.121a.15.15,0,0,0,.043.071.3.3,0,0,0,.1.062.715.715,0,0,0,.192.037.611.611,0,0,0,.311-.036.22.22,0,0,0,.123-.188l.056-.522a.209.209,0,0,0-.081-.2.556.556,0,0,0-.287-.087.732.732,0,0,0-.2,0,.389.389,0,0,0-.121.043c-.03.019-.05.04-.086.123C901.2,3731.324,901.19,3731.334,901.024,3731.272Z" fill="#1d71b8"/>
                    </g>
                    <path id="Trazado_631682" data-name="Trazado 631682" d="M897.493,3738.3c-1.822-1.312-1.683-3.223.309-4.261a7.254,7.254,0,0,1,6.919.5c1.822,1.312,1.683,3.223-.31,4.261A7.251,7.251,0,0,1,897.493,3738.3Zm.388-.2a6.471,6.471,0,0,0,6.175.444c1.779-.927,1.9-2.633.277-3.8a6.473,6.473,0,0,0-6.176-.443C896.378,3735.223,896.254,3736.929,897.881,3738.1Z" fill="#1d71b8"/>
                    <g id="Grupo_949596" data-name="Grupo 949596">
                      <path id="Trazado_631683" data-name="Trazado 631683" d="M897.721,3732.132l-.715.187a.187.187,0,0,1-.172-.029.118.118,0,0,1-.053-.077c-.006-.03.009-.054.087-.089l.756-.163-.564-.379c-.034-.027-.047-.052-.041-.076a.108.108,0,0,1,.059-.062.224.224,0,0,1,.109-.025.22.22,0,0,1,.117.036l.515.4s.389-.429.417-.448a.21.21,0,0,1,.13-.022c.047.007.086.021.139.154l-.418.413.8.127a.208.208,0,0,1,.093.033c.036.026.047.055.031.087a.141.141,0,0,1-.064.069.169.169,0,0,1-.114.014l-.811-.158a2.2,2.2,0,0,1,.074.588.262.262,0,0,1-.126.024.212.212,0,0,1-.165-.089Z" fill="#1d71b8"/>
                    </g>
                    <g id="Grupo_949597" data-name="Grupo 949597">
                      <path id="Trazado_631684" data-name="Trazado 631684" d="M904.217,3740.96l-.714.187a.185.185,0,0,1-.172-.028.128.128,0,0,1-.054-.078c-.005-.03.01-.053.087-.089l.757-.163-.564-.378c-.034-.028-.047-.054-.041-.077a.1.1,0,0,1,.059-.061.212.212,0,0,1,.108-.026.223.223,0,0,1,.118.036l.516.4s.388-.429.415-.448a.213.213,0,0,1,.13-.021c.047,0,.087.019.139.153l-.417.412.8.128a.214.214,0,0,1,.093.033c.036.026.046.055.031.087a.148.148,0,0,1-.064.069.17.17,0,0,1-.115.013l-.811-.157a2.2,2.2,0,0,1,.075.587.277.277,0,0,1-.126.025.218.218,0,0,1-.166-.088Z" fill="#1d71b8"/>
                    </g>
                  </g>
                </g>
                <g id="Grupo_949600" data-name="Grupo 949600">
                  <path id="Trazado_631685" data-name="Trazado 631685" d="M914.658,3725.63c1.714.675,3.326,1.448,5.024,2.139,2.835,1.152,6.248,2.192,9.58,1.762a5.9,5.9,0,0,0,3.343-1.244c.618-.653.533-1.478-.544-2.019-2.628-1.319-6.194-.477-8.625.318-.143.047-.026.2.117.148a17.388,17.388,0,0,1,4.476-.96c1.555-.084,4.357.169,4.69,1.421.286,1.072-1.37,1.8-2.8,2.068a14.077,14.077,0,0,1-4.924-.044c-3.667-.66-6.6-2.279-9.782-3.555q-.7-.279-1.412-.524a7.151,7.151,0,0,0,4.15-1.315c.095-.08-.124-.175-.22-.095A7.2,7.2,0,0,1,913.4,3725c-1-.332-2.021-.623-3.08-.889q-1.407-.353-2.814-.7a4.981,4.981,0,0,0-1.764-.2c-.063.007-.122.048-.1.091.334.647,1.846.914,2.747,1.149a20.789,20.789,0,0,0,3.579.659c.458.037.919.051,1.375.043C913.787,3725.3,914.227,3725.459,914.658,3725.63Zm-1.79-.626c-.3-.006-.595-.022-.889-.05a20.368,20.368,0,0,1-3.106-.545q-.715-.18-1.417-.386c-.528-.155-1.244-.3-1.512-.661a10.289,10.289,0,0,1,2.891.55C910.2,3724.253,911.557,3724.593,912.868,3725Z" fill="#1d71b8"/>
                  <path id="Trazado_631686" data-name="Trazado 631686" d="M900.561,3733.591c1.1-1.506,3.863-2.153,6.468-1.546a1,1,0,0,0,.346,1.4.182.182,0,0,0,.205,0c.049-.062.1-.125.044-.2-.1-.132-.944-.679-.036-.69a23.619,23.619,0,0,1,2.776.279c.123.014.165-.076.1-.129-.391-.332-.8-.658-1.176-1-.266-.241-.346-.614.352-.534.267.03.534.063.795.115a10.26,10.26,0,0,1,1.079.276,6.679,6.679,0,0,0,1.848.819c.117.033.229-.067.134-.124a8.308,8.308,0,0,0-1.885-.847c-.069-.048-.135-.1-.2-.148-.221-.18-1.267-1-.164-1.087a4.953,4.953,0,0,1,.973.016,13.739,13.739,0,0,1,2.59.59q.733.286,1.487.552c.147.051.284-.069.138-.13-.467-.194-.953-.375-1.453-.538a37.643,37.643,0,0,1-7.611-3.964,16.076,16.076,0,0,1,2.926,1.013c.96.392,1.944.76,2.958,1.091.932.3,1.88.586,2.849.834a8.486,8.486,0,0,0,2.124.4,2.476,2.476,0,0,0,.9-.177,2.39,2.39,0,0,0,1.224-.216c1.153-.648-.261-1.346-1.2-1.757a19.826,19.826,0,0,0-2.57-.986,2.114,2.114,0,0,0-1.44-.026c-.132.058.044.183.174.126.722-.316,2.01.322,2.64.573a13.02,13.02,0,0,1,2.07.932c.355.225.752.577.374.868a1.715,1.715,0,0,1-.946.3c.3-.235.361-.556-.107-.875a11.384,11.384,0,0,0-3.81-1.673c-.485-.108-3.125-.566-2.75.224a2.881,2.881,0,0,0,1.234.946,13.553,13.553,0,0,0,2.188.931,13.144,13.144,0,0,0,2.5.6,5.552,5.552,0,0,1-2.3-.278c-.671-.172-1.337-.352-1.991-.551q-2.153-.654-4.158-1.485a13.532,13.532,0,0,0-3.266-1.04c-.116-.018-.172.079-.1.129a36.737,36.737,0,0,0,6.672,3.67l-.276-.062a4.95,4.95,0,0,0-2.494-.1c-.668.3-.128.8.309,1.157a5.2,5.2,0,0,0-1.842-.264c-.4.062-.621.261-.423.527a7.124,7.124,0,0,0,1.237,1.111l-1.691-.188a2.822,2.822,0,0,0-1.26.04.854.854,0,0,1,.183-.443c.035-.045.016-.1-.071-.122-2.787-.7-5.746,0-6.923,1.609C900.247,3733.624,900.495,3733.682,900.561,3733.591Zm16.351-4.327a10.516,10.516,0,0,1-3.621-1.639c-.183-.155-.579-.546.165-.566.176-.006.351,0,.527,0a8.118,8.118,0,0,1,1.106.132,10.124,10.124,0,0,1,1.763.514c.723.29,3.372,1.428,2.334,1.967-.076,0-.153-.007-.231-.015A12.358,12.358,0,0,1,916.912,3729.264Z" fill="#1d71b8"/>
                </g>
              </g>
              <path id="Trazado_631687" data-name="Trazado 631687" d="M843.1,3664.192c-7.771-3.28-17.936,14.207-13.047,18.892l-8.905-5.508c-2.935-6.475,3.484-18.934,12.2-19.9Z" fill="#fff"/>
              <path id="Trazado_631688" data-name="Trazado 631688" d="M797.811,3666.1l15.031-24.294,24.538,17.962c-1.6-.908-3.8-.77-6.226.633-4.883,2.819-8.842,9.675-8.842,15.313,0,2.722.924,4.659,2.428,5.621Z" fill="#1d1d1b"/>
              <g id="Grupo_949602" data-name="Grupo 949602">
                <path id="Trazado_631689" data-name="Trazado 631689" d="M874.434,3684.046c-5.487.983-8.037.35-13.154-2.108-9.551,1.954-20.551-1.263-15.877-12.785a45.8,45.8,0,0,0,5.155.884l15.75,10.107Z" fill="#fcaf75" opacity="0.5" style="mix-blend-mode: multiply;isolation: isolate"/>
                <path id="Trazado_631690" data-name="Trazado 631690" d="M846.613,3667.365a47.538,47.538,0,0,0,12.816,1.159,5.784,5.784,0,0,1,4.513,1.7c5.281,5.68,10.1,7.49,16.09,8.224,1.815,3.213-1.691,5.594-5.6,5.6-6.087.005-6.567-.9-11.949-3.9C852.939,3682.1,835.637,3682.941,846.613,3667.365Z" fill="#fcaf75"/>
              </g>
            </g>
          </g>
        </g>
        <g id="Grupo_949613" data-name="Grupo 949613">
          <g id="Grupo_949612" data-name="Grupo 949612">
            <g id="Grupo_949606" data-name="Grupo 949606">
              <path id="Trazado_631691" data-name="Trazado 631691" d="M975.2,3647.209l15.815-7.221-6.532-25.941-15.815,7.221Z" fill="#ededed"/>
              <path id="Trazado_631692" data-name="Trazado 631692" d="M971.62,3622.978l11.431-5.219-.2-.786-11.431,5.219Z" fill="#1d1d1b"/>
              <path id="Trazado_631693" data-name="Trazado 631693" d="M972.163,3625.132l11.431-5.219-.122-.484-11.431,5.219Z" fill="#1d1d1b"/>
              <path id="Trazado_631694" data-name="Trazado 631694" d="M972.49,3626.433l11.431-5.219-.122-.484-11.431,5.219Z" fill="#1d1d1b"/>
              <path id="Trazado_631695" data-name="Trazado 631695" d="M972.818,3627.734l11.431-5.219-.122-.484L972.7,3627.25Z" fill="#1d1d1b"/>
              <path id="Trazado_631696" data-name="Trazado 631696" d="M973.473,3630.335l11.431-5.219-.122-.484-11.431,5.219Z" fill="#1d1d1b"/>
              <path id="Trazado_631697" data-name="Trazado 631697" d="M973.8,3631.636l11.431-5.219-.122-.484-11.431,5.219Z" fill="#1d1d1b"/>
              <path id="Trazado_631698" data-name="Trazado 631698" d="M981.182,3629.716l4.377-2-.122-.484-4.377,2Z" fill="#1d1d1b"/>
              <path id="Trazado_631699" data-name="Trazado 631699" d="M974.456,3634.238l11.431-5.219-.122-.484-11.431,5.219Z" fill="#1d1d1b"/>
              <path id="Trazado_631700" data-name="Trazado 631700" d="M974.783,3635.539l11.431-5.219-.122-.484-11.431,5.219Z" fill="#1d1d1b"/>
              <path id="Trazado_631701" data-name="Trazado 631701" d="M977.788,3635.617l8.753-4-.122-.484-8.753,4Z" fill="#1d1d1b"/>
              <path id="Trazado_631702" data-name="Trazado 631702" d="M982.427,3637.851l5.1-2.328-.122-.484-5.1,2.327Z" fill="#1d1d1b"/>
              <path id="Trazado_631703" data-name="Trazado 631703" d="M982.755,3639.152l5.1-2.328-.122-.484-5.1,2.328Z" fill="#1d1d1b"/>
            </g>
            <g id="Grupo_949611" data-name="Grupo 949611">
              <path id="Trazado_631704" data-name="Trazado 631704" d="M975.413,3642.234a3.53,3.53,0,0,1,1.755-3.973,2.275,2.275,0,0,1,3.188,1.716,3.53,3.53,0,0,1-1.755,3.973A2.275,2.275,0,0,1,975.413,3642.234Zm.167-.076a2.123,2.123,0,0,0,2.973,1.6,3.293,3.293,0,0,0,1.636-3.706,2.123,2.123,0,0,0-2.973-1.6A3.293,3.293,0,0,0,975.58,3642.158Z" fill="#1d71b8"/>
              <path id="Trazado_631705" data-name="Trazado 631705" d="M975.774,3642.069a3.015,3.015,0,0,1,1.5-3.393,1.943,1.943,0,0,1,2.722,1.466,3.016,3.016,0,0,1-1.5,3.393A1.943,1.943,0,0,1,975.774,3642.069Zm.111-.051a1.842,1.842,0,0,0,2.579,1.389,2.857,2.857,0,0,0,1.42-3.214,1.842,1.842,0,0,0-2.579-1.389A2.855,2.855,0,0,0,975.885,3642.018Z" fill="#1d71b8"/>
              <path id="Trazado_631706" data-name="Trazado 631706" d="M976.627,3641.679a1.8,1.8,0,0,1,.893-2.021,1.159,1.159,0,0,1,1.622.874,1.8,1.8,0,0,1-.893,2.02A1.158,1.158,0,0,1,976.627,3641.679Zm.112-.05a1.056,1.056,0,0,0,1.478.8,1.637,1.637,0,0,0,.813-1.843,1.056,1.056,0,0,0-1.478-.8A1.637,1.637,0,0,0,976.739,3641.629Z" fill="#1d71b8"/>
              <g id="Grupo_949607" data-name="Grupo 949607">
                <path id="Trazado_631707" data-name="Trazado 631707" d="M977.033,3639.729s-.2-.4-.169-.428l.166.326a2.018,2.018,0,0,1,.022-.472s.2.4.167.428l-.164-.326s.015.434,0,.474C977.054,3639.734,977.049,3639.736,977.033,3639.729Z" fill="#1d71b8"/>
                <path id="Trazado_631708" data-name="Trazado 631708" d="M976.715,3639.916l-.125-.15c-.016-.019-.026-.038.187-.221l.125.151c.016.019.027.038-.006.214C976.882,3639.926,976.869,3639.938,976.715,3639.916Zm.03-.035a.081.081,0,0,0,.064.037.092.092,0,0,0,.062-.037.125.125,0,0,0,.032-.074.112.112,0,0,0-.03-.076l-.126-.151a.081.081,0,0,0-.063-.036.094.094,0,0,0-.062.038.119.119,0,0,0-.032.073.113.113,0,0,0,.03.076Z" fill="#1d71b8"/>
                <path id="Trazado_631709" data-name="Trazado 631709" d="M976.449,3639.8l-.061.1s.311.242.287.283l-.311-.242s-.061.1-.091.079C976.273,3640.027,976.419,3639.781,976.449,3639.8Z" fill="#1d71b8"/>
                <path id="Trazado_631710" data-name="Trazado 631710" d="M976.6,3640.325l-.1-.01-.076.185s.07.072.043.11c0,0-.308-.319-.286-.372a1.936,1.936,0,0,1,.431.075S976.616,3640.32,976.6,3640.325Zm-.131-.013-.251-.026.184.188Z" fill="#1d71b8"/>
                <path id="Trazado_631711" data-name="Trazado 631711" d="M976.455,3640.716l-.179-.038-.02.09s.15.146.132.194a1.259,1.259,0,0,0-.366-.236.638.638,0,0,1,.046-.141S976.466,3640.669,976.455,3640.716Zm-.4.017a.147.147,0,0,0,0,.081.071.071,0,0,0,.056.043.073.073,0,0,0,.07-.017.144.144,0,0,0,.036-.073l.022-.1-.164-.034Z" fill="#1d71b8"/>
                <path id="Trazado_631712" data-name="Trazado 631712" d="M976.384,3641.187l-.158.008s-.247.159-.261.118l.227-.142s-.213-.123-.2-.165c0,0,.232.139.236.14S976.387,3641.14,976.384,3641.187Z" fill="#1d71b8"/>
                <path id="Trazado_631713" data-name="Trazado 631713" d="M976.4,3641.573l-.16.06a.613.613,0,0,1-.024.255c-.015.013-.033.024-.214-.059a.581.581,0,0,1-.013-.151S976.394,3641.528,976.4,3641.573Zm-.362.241a.092.092,0,0,0,.035.063c.018.012.042.012.08,0a.111.111,0,0,0,.063-.051.119.119,0,0,0,.009-.08l-.019-.1-.187.07Z" fill="#1d71b8"/>
                <path id="Trazado_631714" data-name="Trazado 631714" d="M976.455,3642.154a.124.124,0,0,0,.054-.065.121.121,0,0,0-.006-.079.084.084,0,0,0-.047-.053.085.085,0,0,0-.074.018s-.274.179-.291.138l.275-.179c.022-.014.041-.023.156.215a.2.2,0,0,1-.051.047s-.274.179-.291.138Z" fill="#1d71b8"/>
                <path id="Trazado_631715" data-name="Trazado 631715" d="M976.633,3642.2a.572.572,0,0,1,.081.251c-.009.018-.023.036-.177.153-.008.022-.022.043-.2.037a.405.405,0,0,1-.058-.115A4.334,4.334,0,0,1,976.633,3642.2Zm-.017.049-.149.148.053.077a.081.081,0,0,0,.052.04c.02,0,.042-.009.075-.042a.127.127,0,0,0,.042-.074.108.108,0,0,0-.021-.072Zm-.3.294a.236.236,0,0,0,.153.086.106.106,0,0,0,.036-.066.113.113,0,0,0-.023-.069l-.047-.069Z" fill="#1d71b8"/>
                <path id="Trazado_631716" data-name="Trazado 631716" d="M976.948,3642.64l-.128-.123s-.262.373-.291.345a4.577,4.577,0,0,1,.3-.4S976.973,3642.6,976.948,3642.64Z" fill="#1d71b8"/>
                <path id="Trazado_631717" data-name="Trazado 631717" d="M977.047,3642.676s-.235.428-.267.4C976.78,3643.08,977.014,3642.652,977.047,3642.676Z" fill="#1d71b8"/>
                <path id="Trazado_631718" data-name="Trazado 631718" d="M976.961,3643.124a.228.228,0,0,1,.018-.07l.083-.209c.011-.026.023-.047.157-.047a.074.074,0,0,0-.069,0,.123.123,0,0,0-.052.068l-.083.209a.131.131,0,0,0-.011.086c.006.023.022.041.156.007C977.162,3643.16,977.166,3643.156,976.961,3643.124Z" fill="#1d71b8"/>
              </g>
              <g id="Grupo_949608" data-name="Grupo 949608">
                <path id="Trazado_631719" data-name="Trazado 631719" d="M978.66,3642.548s.18.418.144.443l-.147-.34a2.063,2.063,0,0,1-.046.473s-.18-.417-.145-.442l.147.339s.008-.436.022-.476C978.639,3642.542,978.644,3642.54,978.66,3642.548Z" fill="#1d71b8"/>
                <path id="Trazado_631720" data-name="Trazado 631720" d="M978.984,3642.383l.117.161c.014.02.024.039-.2.208l-.117-.161c-.015-.02-.025-.04.018-.215C978.819,3642.362,978.833,3642.35,978.984,3642.383Zm-.031.033a.083.083,0,0,0-.062-.041.089.089,0,0,0-.063.033.13.13,0,0,0-.036.072.115.115,0,0,0,.026.078l.117.161a.079.079,0,0,0,.061.04.084.084,0,0,0,.064-.033.117.117,0,0,0,.035-.071.113.113,0,0,0-.025-.078Z" fill="#1d71b8"/>
                <path id="Trazado_631721" data-name="Trazado 631721" d="M979.243,3642.515l.065-.1s-.295-.265-.27-.3l.3.265s.066-.1.094-.073C979.428,3642.3,979.271,3642.541,979.243,3642.515Z" fill="#1d71b8"/>
                <path id="Trazado_631722" data-name="Trazado 631722" d="M979.115,3641.98l.1.018.085-.181s-.066-.077-.037-.113c0,0,.289.343.265.394a1.977,1.977,0,0,1-.425-.106S979.1,3641.985,979.115,3641.98Zm.13.024.247.044-.173-.2Z" fill="#1d71b8"/>
                <path id="Trazado_631723" data-name="Trazado 631723" d="M979.283,3641.6l.176.051.025-.089s-.142-.157-.122-.2a1.309,1.309,0,0,0,.351.263.566.566,0,0,1-.053.138S979.27,3641.646,979.283,3641.6Zm.395.011a.142.142,0,0,0,0-.081.083.083,0,0,0-.123-.036.148.148,0,0,0-.04.071l-.026.095.16.047Z" fill="#1d71b8"/>
                <path id="Trazado_631724" data-name="Trazado 631724" d="M979.378,3641.131s.153,0,.157,0,.254-.142.265-.1l-.233.125s.2.14.186.18c0,0-.223-.156-.228-.157S979.372,3641.179,979.378,3641.131Z" fill="#1d71b8"/>
                <path id="Trazado_631725" data-name="Trazado 631725" d="M979.379,3640.742l.161-.048a.638.638,0,0,1,.037-.254c.015-.012.035-.022.21.075a.6.6,0,0,1,.005.152S979.385,3640.789,979.379,3640.742Zm.371-.215a.091.091,0,0,0-.032-.066c-.017-.013-.04-.015-.079,0a.106.106,0,0,0-.065.047.124.124,0,0,0-.013.08l.013.1.19-.056Z" fill="#1d71b8"/>
                <path id="Trazado_631726" data-name="Trazado 631726" d="M979.357,3640.156a.12.12,0,0,0-.057.061.117.117,0,0,0,0,.08.085.085,0,0,0,.044.056.088.088,0,0,0,.074-.012s.281-.16.3-.118l-.282.16c-.022.013-.042.02-.144-.228a.209.209,0,0,1,.053-.042s.281-.16.3-.118Z" fill="#1d71b8"/>
                <path id="Trazado_631727" data-name="Trazado 631727" d="M979.181,3640.088a.585.585,0,0,1-.068-.257c.01-.018.024-.035.183-.142.01-.021.024-.041.2-.023a.413.413,0,0,1,.052.121A4.009,4.009,0,0,1,979.181,3640.088Zm.326-.322a.242.242,0,0,0-.147-.1.1.1,0,0,0-.039.064.11.11,0,0,0,.019.07l.044.074Zm-.307.275.155-.138-.048-.082a.081.081,0,0,0-.051-.043c-.019,0-.041.006-.076.036a.131.131,0,0,0-.045.072.114.114,0,0,0,.017.074Z" fill="#1d71b8"/>
                <path id="Trazado_631728" data-name="Trazado 631728" d="M978.892,3639.632l.121.133s.279-.356.307-.325a4.592,4.592,0,0,1-.318.375S978.866,3639.666,978.892,3639.632Z" fill="#1d71b8"/>
                <path id="Trazado_631729" data-name="Trazado 631729" d="M978.8,3639.59s.255-.413.286-.388C979.082,3639.2,978.827,3639.615,978.8,3639.59Z" fill="#1d71b8"/>
                <path id="Trazado_631730" data-name="Trazado 631730" d="M978.9,3639.146a.208.208,0,0,1-.021.069l-.094.2c-.012.026-.025.046-.158.036a.076.076,0,0,0,.069.009.121.121,0,0,0,.055-.065l.093-.2a.138.138,0,0,0,.016-.086c-.005-.023-.02-.042-.155-.019C978.707,3639.095,978.7,3639.1,978.9,3639.146Z" fill="#1d71b8"/>
              </g>
              <path id="Trazado_631731" data-name="Trazado 631731" d="M976.85,3641.578a1.478,1.478,0,0,1,.735-1.664.953.953,0,0,1,1.334.719,1.478,1.478,0,0,1-.735,1.664A.953.953,0,0,1,976.85,3641.578Zm.111-.051a.85.85,0,0,0,1.191.642,1.319,1.319,0,0,0,.656-1.485.85.85,0,0,0-1.191-.642A1.319,1.319,0,0,0,976.961,3641.527Z" fill="#1d71b8"/>
              <g id="Grupo_949609" data-name="Grupo 949609">
                <path id="Trazado_631732" data-name="Trazado 631732" d="M977.869,3639.152s-.176.02-.173-.067l.18-.008s-.056-.192.014-.224l.043.2s.147-.141.19-.074l-.151.132s.144.111.1.187l-.141-.123s-.057.212-.127.191Z" fill="#1d71b8"/>
              </g>
              <g id="Grupo_949610" data-name="Grupo 949610">
                <path id="Trazado_631733" data-name="Trazado 631733" d="M977.8,3643.138s-.175.02-.173-.068l.18-.007s-.055-.193.015-.225l.042.2s.147-.14.19-.073l-.151.132s.144.111.1.187l-.141-.124s-.056.212-.127.191Z" fill="#1d71b8"/>
              </g>
            </g>
          </g>
          <path id="Trazado_631734" data-name="Trazado 631734" d="M980.182,3644.354l-1.368,3.409-.09.222-.426-.137c-.313-.161-5.2-2.916-5.293-3.02a12.867,12.867,0,0,1-2.249-4.3l.35-3.419s.555-1.571,1.272-1.091l.507,1.619,1.933.917,1.2.33-.7-1.31c-.977-2.036.129-3,.67-2.253l.944,1.945,2.116,2.552Z" fill="#fcaf75"/>
          <path id="Trazado_631735" data-name="Trazado 631735" d="M970.756,3640.529l2.523,2.32c1.951,1.837,3.807,2.632,5.535,2.1v2.817l-.09.222-.426-.137c-.313-.161-5.2-2.916-5.293-3.02A14.46,14.46,0,0,1,970.756,3640.529Z" fill="#fcaf75" opacity="0.3" style="mix-blend-mode: multiply;isolation: isolate"/>
          <path id="Trazado_631736" data-name="Trazado 631736" d="M1028.4,3661.581l-.251,3.021-.592,1.78-1.311,2.377c-.393.662-1.056.535-1.042-.081l-.639,1.127c-.577.885-1.411.137-.966-.781l.961-2.353-1.605,2.94c-.634.861-1.467.312-1.1-.852l1.288-3.272-1.42,2.566c-.431.582-1.4.218-1.132-.857l1.444-4.256a2.738,2.738,0,0,0-.146-1.614c-.284-.564-2.462.606-2.462.606-.767.44-1.454.833-1.993,1.145-.73.109-1.042-.075-.943-.558l1.506-1.572,1.69-1.482.743-.648a9.5,9.5,0,0,1,3.291-1.534l.09-.313.184-.615,1.638.251,2.443.374-.118,1.865.142.871Z" fill="#fcaf75"/>
          <path id="Trazado_631737" data-name="Trazado 631737" d="M1021.65,3661.051l3.313-.767,1.776,2.994-1.538,5.4c.057-1.438.119-3.161-.829-3.5l-1.649-.236,1.353-.909-.207-1.34-2.869-.455Z" fill="#fcaf75" opacity="0.3" style="mix-blend-mode: multiply;isolation: isolate"/>
          <path id="Trazado_631738" data-name="Trazado 631738" d="M1020.935,3621.27l.984,11.809.8,9.815c.721,5.694,1.538,10.271,1.021,13.251a2.082,2.082,0,0,0,.061.828,3.3,3.3,0,0,0,1.79,1.8,10.565,10.565,0,0,0,2.5.938c1.418-5.851,2.523-11.485,2.043-16.038l-.949-11.593C1028.923,3625.451,1027.349,3620.429,1020.935,3621.27Z" fill="#fff"/>
          <path id="Trazado_631739" data-name="Trazado 631739" d="M1019.685,3659.46l5.911-.685a3.3,3.3,0,0,1-1.79-1.8l-.1.313a9.518,9.518,0,0,0-3.292,1.526Z" fill="#fcaf75" opacity="0.3" style="mix-blend-mode: multiply;isolation: isolate"/>
          <path id="Trazado_631740" data-name="Trazado 631740" d="M1022.724,3642.894c.721,5.694,1.538,10.271,1.021,13.251a2.082,2.082,0,0,0,.061.828,3.3,3.3,0,0,0,1.79,1.8c-.012-.732.012-1.453.036-2.174.372-10.992,3.688-20.206-.085-25.276l-3.628,1.754Z" fill="#3c3c3b" opacity="0.3" style="mix-blend-mode: multiply;isolation: isolate"/>
          <path id="Trazado_631741" data-name="Trazado 631741" d="M993.2,3728.639c0-2.122,1.638-2.937,4.064-3.2,2.12,0,4.971.947,8.715,1.809l4.27,2.334a9.537,9.537,0,0,1,.31,5.937,4.683,4.683,0,0,1-4.13,1.3l-4.8-2.03-.346-.693C997.467,3733.683,993.2,3731.947,993.2,3728.639Z" fill="#1d1d1b"/>
          <path id="Trazado_631742" data-name="Trazado 631742" d="M1008.788,3720.137c0-1.731,1.552-2.031,3.867-2.21,4.18,0,4.359,2.093,8.2,2l3.78,2.3a11.315,11.315,0,0,1,.164,6.36,5.426,5.426,0,0,1-4.206,1.022l-3.885-2.284-.331-.7C1012.734,3726.078,1008.788,3723.368,1008.788,3720.137Z" fill="#1d1d1b"/>
          <path id="Trazado_631743" data-name="Trazado 631743" d="M1022.485,3661.051l-13.931,5.825a47.889,47.889,0,0,0,.278,6.519c.879,6.419,3.467,16.119,3.467,16.119,1.867,8.248,2.616,18.484,3.053,29.275.071,3.883,5.852,7.29,9.552,3.616,1.064-13.168,1.06-25.96-2.039-34.432,1.483-6.688.083-14.152-.334-21.859C1022.894,3665.962,1022.094,3661.216,1022.485,3661.051Z" fill="#1d1d1b"/>
          <path id="Trazado_631744" data-name="Trazado 631744" d="M1012.062,3674.885c-.014,7.7.081,13.914-1.775,20.594,2.628,8.46,1.918,21.053.119,34.205a5.654,5.654,0,0,1-7.533,1.032,4.56,4.56,0,0,1-1.818-4.464l-1.42-29.235a162.744,162.744,0,0,1-2.57-16.1c-.521-6.41,1.742-21.068,1.742-21.068a26.292,26.292,0,0,0,3.735.734c8.29,1.047,15.912-1.912,18.279-6.652.123.346.237.7.35,1.047a33.831,33.831,0,0,1,1.544,8.9C1022.985,3670.643,1016.352,3673.138,1012.062,3674.885Z" fill="#3c3c3b"/>
          <path id="Trazado_631745" data-name="Trazado 631745" d="M996.992,3635.35a83.075,83.075,0,0,1,.745,12.337c.024,1.49.036,2.944.084,4.373a38.412,38.412,0,0,0,.985,7.8,31.918,31.918,0,0,0,3.532,1.333c7.16,2.259,13.671,1.153,18.837-6.211a96.573,96.573,0,0,0,5.562-24.122c-.024-4.914-1.622-8.422-5.8-9.587-7.449,1.79-15.041,6.415-22.742,13.034C997.785,3634.653,997.388,3635,996.992,3635.35Z" fill="#fff"/>
          <path id="Trazado_631746" data-name="Trazado 631746" d="M1004.961,3621.8l.706,6.707c4.341-.03,11.13-3.038,10.276-5.346l-2.283-4.379Z" fill="#fcaf75"/>
          <path id="Trazado_631747" data-name="Trazado 631747" d="M1002.89,3622.65c1.722,1.96,4.32,1.7,6.965,1,3.865-1.786,6.648-4.431,6.267-9.461.308-3.652-1.348-7.478-7.574-7.279-3.962.126-7.338,1.566-7.575,5.8C1000.973,3612.706,1000.763,3620.7,1002.89,3622.65Z" fill="#fcaf75"/>
          <path id="Trazado_631748" data-name="Trazado 631748" d="M1005.426,3626.216l-1.581,3.585c7.422-.836,14.076-3.62,12.417-7.051l-1.354-1.574C1015.943,3623.647,1008.63,3626.595,1005.426,3626.216Z" fill="#c6c6c6"/>
          <path id="Trazado_631749" data-name="Trazado 631749" d="M1001,3611.663a5.972,5.972,0,0,0,2.525,3.53,20.8,20.8,0,0,0-.121,3.347c.177.059,1.894,1.538,1.894,1.538l.887,2.486c2.959,2.135,7.361.51,8.7-1.42.791-1,1.637-5.024,1.42-8.877-.47-3.226-2.79-6.359-7.753-6.569C1003.64,3605.49,1000.582,3608.348,1001,3611.663Z"/>
          <path id="Trazado_631750" data-name="Trazado 631750" d="M1003.936,3619.02c-.475-.53.254-1.76.788-1.934.742-.241,1.148.834,1.226,1.42a2.718,2.718,0,0,1-.437,2.051c-.506.747-1.3.013-1.547-.59C1003.788,3619.535,1004.237,3619.357,1003.936,3619.02Z" fill="#fcaf75"/>
          <path id="Trazado_631751" data-name="Trazado 631751" d="M1002.551,3645.461a25.1,25.1,0,0,1-.667,2.637,24.764,24.764,0,0,1-4.057,3.958,22.048,22.048,0,0,1-8.726,4.09c-5.1-2-6.7-3.455-11.049-8.44-.668-1.326-.284-2.731,1.737-4.261,4.339,1.565,5.835,1.387,8.752,2.765,3.19-5.208,6.393-10.653,9.65-11.907C1002.3,3636.362,1003.584,3640.192,1002.551,3645.461Z" fill="#fff"/>
          <path id="Trazado_631752" data-name="Trazado 631752" d="M997.064,3680.916a161.448,161.448,0,0,0,2.571,16.1l1.417,29.24a4.574,4.574,0,0,0,1.839,4.469c-1.274-12.3-1.839-23.834,0-32.76-2.752-10.127-4-20.735-.842-28.556-.036-3.123-.372-5.946.289-8.217a31.918,31.918,0,0,1-3.532-1.333S996.547,3674.513,997.064,3680.916Z" opacity="0.25" style="mix-blend-mode: multiply;isolation: isolate"/>
          <path id="Trazado_631753" data-name="Trazado 631753" d="M978.047,3647.711c3.94,4.241,5.61,6.223,11.052,8.434a22.024,22.024,0,0,0,8.722-4.085,38.412,38.412,0,0,0,.985,7.8,31.918,31.918,0,0,0,3.532,1.333,3.573,3.573,0,0,1,.2-.6c.673-1.729,2.066-3.075,4.817-3.916-3.027-1.73-4.024-5.8-4.8-11.208q-.252-1.766-.505-3.712a22.522,22.522,0,0,1-4.312,5.934c-2.295,2.187-5.07,3.628-9.262,5.8C986.853,3654.331,983.165,3649.393,978.047,3647.711Z" fill="#3c3c3b" opacity="0.3" style="mix-blend-mode: multiply;isolation: isolate"/>
        </g>
      </g>
    </g>
  </g>
</svg>
