<svg xmlns="http://www.w3.org/2000/svg" width="229.336" height="158.686" viewBox="0 0 229.336 158.686">
  <g id="Grupo_955463" data-name="Grupo 955463" transform="translate(-882.599 -837.309)">
    <g id="Grupo_955405" data-name="Grupo 955405" transform="translate(925.365 859.048)">
      <rect id="Rectángulo_339935" data-name="Rectángulo 339935" width="29.438" height="40.144" transform="translate(58.398 91.651)" fill="#919395"/>
      <rect id="Rectángulo_339936" data-name="Rectángulo 339936" width="67.425" height="4.772" transform="translate(39.405 130.801)" fill="#babcbe"/>
      <g id="Grupo_955404" data-name="Grupo 955404">
        <path id="Trazado_639847" data-name="Trazado 639847" d="M1084.94,872.024v90.031a5.952,5.952,0,0,1-5.673,6.194h-134.9a5.952,5.952,0,0,1-5.673-6.194V872.024a5.953,5.953,0,0,1,5.673-6.2h134.9A5.953,5.953,0,0,1,1084.94,872.024Z" transform="translate(-938.694 -865.824)" fill="#414042"/>
        <path id="Trazado_639848" data-name="Trazado 639848" d="M1084.94,975.366v12.719a5.952,5.952,0,0,1-5.673,6.194h-134.9a5.952,5.952,0,0,1-5.673-6.194V975.366Z" transform="translate(-938.694 -891.854)" fill="#babcbe"/>
        <rect id="Rectángulo_339937" data-name="Rectángulo 339937" width="136.384" height="73.63" rx="3.637" transform="translate(4.931 4.861)" fill="#6d6e71"/>
      </g>
    </g>
    <g id="Grupo_955410" data-name="Grupo 955410" transform="translate(933.77 868.152)">
      <rect id="Rectángulo_339938" data-name="Rectángulo 339938" width="128.932" height="81.166" fill="#fff"/>
      <g id="Grupo_955406" data-name="Grupo 955406" transform="translate(5.648 19.511)">
        <rect id="Rectángulo_339939" data-name="Rectángulo 339939" width="7.633" height="25.577" transform="translate(0 29.46)" fill="#f5921e"/>
        <rect id="Rectángulo_339940" data-name="Rectángulo 339940" width="7.633" height="29.826" transform="translate(9.682 25.212)" fill="#cfd0d2"/>
        <rect id="Rectángulo_339941" data-name="Rectángulo 339941" width="7.633" height="35.838" transform="translate(19.461 19.2)" fill="#f5921e"/>
        <rect id="Rectángulo_339942" data-name="Rectángulo 339942" width="7.633" height="40.621" transform="translate(29.143 14.417)" fill="#cfd0d2"/>
        <rect id="Rectángulo_339943" data-name="Rectángulo 339943" width="7.633" height="37.821" transform="translate(38.922 17.217)" fill="#f5921e"/>
        <rect id="Rectángulo_339944" data-name="Rectángulo 339944" width="7.633" height="35.838" transform="translate(48.604 19.2)" fill="#cfd0d2"/>
        <rect id="Rectángulo_339945" data-name="Rectángulo 339945" width="7.633" height="33.911" transform="translate(58.383 21.127)" fill="#f5921e"/>
        <rect id="Rectángulo_339946" data-name="Rectángulo 339946" width="7.633" height="35.838" transform="translate(68.065 19.2)" fill="#cfd0d2"/>
        <rect id="Rectángulo_339947" data-name="Rectángulo 339947" width="7.633" height="40.621" transform="translate(77.844 14.417)" fill="#f5921e"/>
        <rect id="Rectángulo_339948" data-name="Rectángulo 339948" width="7.633" height="45.732" transform="translate(87.526 9.306)" fill="#cfd0d2"/>
        <rect id="Rectángulo_339949" data-name="Rectángulo 339949" width="7.633" height="51.644" transform="translate(97.305 3.393)" fill="#f5921e"/>
        <rect id="Rectángulo_339950" data-name="Rectángulo 339950" width="7.633" height="55.038" transform="translate(106.987)" fill="#cfd0d2"/>
      </g>
      <g id="Grupo_955409" data-name="Grupo 955409" transform="translate(5.648 13.289)">
        <g id="Grupo_955407" data-name="Grupo 955407">
          <rect id="Rectángulo_339951" data-name="Rectángulo 339951" width="3.731" height="3.731" fill="#f5921e"/>
          <rect id="Rectángulo_339952" data-name="Rectángulo 339952" width="17.093" height="1.563" rx="0.782" transform="translate(6.185 1.084)" fill="#ced1d2"/>
        </g>
        <g id="Grupo_955408" data-name="Grupo 955408" transform="translate(0 5.472)">
          <rect id="Rectángulo_339953" data-name="Rectángulo 339953" width="3.731" height="3.731" fill="#babcbe"/>
          <rect id="Rectángulo_339954" data-name="Rectángulo 339954" width="17.093" height="1.563" rx="0.782" transform="translate(6.185 1.084)" fill="#ced1d2"/>
        </g>
      </g>
      <path id="Trazado_639849" data-name="Trazado 639849" d="M1074.6,888.917l-7.094.828,1.061,1.845-46.251,25.2L987.373,908.9,957.127,926.81l.015,1.837,30.5-18.061,34.914,7.885,46.811-25.5,1.017,1.769Z" transform="translate(-951.48 -880.415)" fill="#8080e0"/>
    </g>
    <g id="Grupo_955425" data-name="Grupo 955425" transform="translate(1055.642 870.746)">
      <g id="Grupo_955424" data-name="Grupo 955424" transform="translate(0)">
        <path id="Trazado_639850" data-name="Trazado 639850" d="M1147.142,1033.529l-.244,1.373a29.933,29.933,0,0,1-3.958,1.55c-.547,0-7.124-1.51-6.393,4.817h16.441l-.487-7.74Z" transform="translate(-1115.972 -917.372)" fill="#414042"/>
        <path id="Trazado_639851" data-name="Trazado 639851" d="M1165.619,1040.007v1.522s6.393,2.143,9.436-.542a5.485,5.485,0,0,0-.109-1.347,6.83,6.83,0,0,0-2.2-3.883l-.582-3.416-4.837,1.213v1.944s-1.526,3.54-1.691,4.39A.639.639,0,0,0,1165.619,1040.007Z" transform="translate(-1122.894 -917.09)" fill="#414042"/>
        <g id="Grupo_955411" data-name="Grupo 955411" transform="translate(0 24.279)">
          <path id="Trazado_639852" data-name="Trazado 639852" d="M1117.133,916.728s-1.193,1.911-1.375,2.074a5.661,5.661,0,0,1-1.236.506c-.319.105-.807-.092-.625-1.047.214-.849.211-1.223.393-1.387s2.189-1.174,2.189-1.174Z" transform="translate(-1110.595 -913.653)" fill="#e09088"/>
          <path id="Trazado_639853" data-name="Trazado 639853" d="M1112.648,917.4c.249-1.039.23-1.449.43-1.656a15.481,15.481,0,0,1,1.383-.9,3.467,3.467,0,0,0,1.284.867,20.127,20.127,0,0,0-1.733,1.077c-.2.206-.221,1.644-.585,1.792S1112.5,918.55,1112.648,917.4Z" transform="translate(-1110.301 -913.451)" fill="#eda89e"/>
          <path id="Trazado_639854" data-name="Trazado 639854" d="M1118.016,918.233s-2.018-2.726-2.614-3.329-4.057-1.381-4.945-1.8c-.974-.346-1.309.408-.118,1.085,1.269.752,3.537,1.721,3.713,1.827a5.315,5.315,0,0,1,.422,1.813c-.036.159-1.281.056-1.471-.029s-1-1.266-2.026-1.017,1.086,2.321,1.6,2.571,2.178,1.279,3.653,1.083l1.845-1.461Z" transform="translate(-1109.577 -913.015)" fill="#f4b7ac"/>
        </g>
        <g id="Grupo_955412" data-name="Grupo 955412" transform="translate(5.666 28.588)">
          <path id="Trazado_639855" data-name="Trazado 639855" d="M1140.188,931.956s-.288.378-.755.965a37.285,37.285,0,0,1-5.658,6.035l-.005.005c-.159.109-.308.2-.452.284-3,1.8-16.307-16.675-16.307-16.675l3.356-3.9s11.007,13.269,11.206,12.623c4.39-7.955,5.538-10.267,5.538-10.267S1145.328,922.9,1140.188,931.956Z" transform="translate(-1117.01 -918.667)" fill="#28516b"/>
        </g>
        <path id="Trazado_639856" data-name="Trazado 639856" d="M1166.241,957.811l2.314,57.969-6.82.609-5.929-47.145v47.145h-7.589l-2.009-58.335Z" transform="translate(-1118.282 -899.38)" fill="#8a5e3c"/>
        <path id="Trazado_639857" data-name="Trazado 639857" d="M1153.9,970.143l2.241,3.166,1.49,38.6V972.175Z" transform="translate(-1120.11 -902.31)" fill="#ced1d2" style="mix-blend-mode: multiply;isolation: isolate"/>
        <path id="Trazado_639858" data-name="Trazado 639858" d="M1166.365,946.484c-.746,1.377-3.58,8.924-3.58,8.924a21.261,21.261,0,0,1-6.468.855,8.236,8.236,0,0,1-1.5-3.654s-.467,2.506-1.616,3.51c-2.267-.243-6.374-.959-8.422-2.953l.075-1.835.85-20.289-2.327-11.738s4.932-6.7,11.42-7.875c7.387.89,14.776,7.875,14.776,7.875s-2.471,6.553-4.544,12.1C1164.107,933.851,1166.365,946.484,1166.365,946.484Z" transform="translate(-1117.609 -888.359)" fill="#28516b"/>
        <path id="Trazado_639859" data-name="Trazado 639859" d="M1145.309,926.621l-.651,8.19a37.285,37.285,0,0,1-5.658,6.035l4.693-5.762.547-4.176-.525-2.478.942.987Z" transform="translate(-1116.569 -891.969)" fill="#ced1d2" style="mix-blend-mode: multiply;isolation: isolate"/>
        <g id="Grupo_955414" data-name="Grupo 955414" transform="translate(35.206 28.589)">
          <path id="Trazado_639860" data-name="Trazado 639860" d="M1158.245,954.327l-.138-4.456-.1-4.457-.139-8.914-.052-8.915,0-4.458.044-4.458.139,4.457.1,4.457.138,8.914.052,8.915,0,4.458Z" transform="translate(-1156.246 -918.668)" fill="#353535"/>
          <g id="Grupo_955413" data-name="Grupo 955413" transform="translate(0 5.85)">
            <circle id="Elipse_7887" data-name="Elipse 7887" cx="0.414" cy="0.414" r="0.414" fill="#353535"/>
            <path id="Trazado_639861" data-name="Trazado 639861" d="M1155.757,934.663a.414.414,0,1,0,.414-.414A.414.414,0,0,0,1155.757,934.663Z" transform="translate(-1155.757 -928.22)" fill="#353535"/>
            <circle id="Elipse_7888" data-name="Elipse 7888" cx="0.414" cy="0.414" r="0.414" transform="translate(0 12.056)" fill="#353535"/>
            <path id="Trazado_639862" data-name="Trazado 639862" d="M1155.757,950.477a.414.414,0,1,0,.414-.414A.415.415,0,0,0,1155.757,950.477Z" transform="translate(-1155.757 -931.978)" fill="#353535"/>
            <path id="Trazado_639863" data-name="Trazado 639863" d="M1155.757,958.384a.414.414,0,1,0,.414-.414A.415.415,0,0,0,1155.757,958.384Z" transform="translate(-1155.757 -933.857)" fill="#353535"/>
          </g>
        </g>
        <path id="Trazado_639864" data-name="Trazado 639864" d="M1166.8,950.285c-.746,1.377-3.58,8.924-3.58,8.924a21.263,21.263,0,0,1-6.468.855,8.238,8.238,0,0,1-1.5-3.654s-.467,2.506-1.616,3.51c-2.267-.243-6.374-.959-8.422-2.953l.075-1.835c19.733-2.6,18.927-19.454,18.927-19.454a13.228,13.228,0,0,1-.686-3.729,10.342,10.342,0,0,1,.994-4.525s-.343,2.153-.383,3.1a26.243,26.243,0,0,0,1.323,4.678C1164.544,937.651,1166.8,950.285,1166.8,950.285Z" transform="translate(-1118.045 -892.16)" fill="#e5e5e6" style="mix-blend-mode: multiply;isolation: isolate"/>
        <g id="Grupo_955416" data-name="Grupo 955416" transform="translate(45.771 30.944)">
          <g id="Grupo_955415" data-name="Grupo 955415">
            <path id="Trazado_639865" data-name="Trazado 639865" d="M1175.807,921.757a118.316,118.316,0,0,1,4.316,19.169c.393,3.316-7.887,19.17-7.887,19.17l-2.622-3.646s3.677-11.207,4.137-14.847a77.115,77.115,0,0,0-2.49-7.749C1166.578,924.553,1175.807,921.757,1175.807,921.757Z" transform="translate(-1169.614 -921.757)" fill="#28516b"/>
          </g>
        </g>
        <path id="Trazado_639866" data-name="Trazado 639866" d="M1153.072,911.893s.442,2.68,4.6,2.68a5.414,5.414,0,0,0,5.3-3.307l-.521-2.142-.612-3.47-.75-4.221-3.749,4.654-4.206-.666-.035,3.59Z" transform="translate(-1119.913 -885.983)" fill="#f4b7ac"/>
        <path id="Trazado_639867" data-name="Trazado 639867" d="M1163.6,911.521l-5.717,5.449,2.04,4.338,5.711-7.52Z" transform="translate(-1121.055 -888.381)" fill="#317791"/>
        <path id="Trazado_639868" data-name="Trazado 639868" d="M1152.625,912.049l3.648,5.046-2.613,3.737-2.538-7.115Z" transform="translate(-1119.449 -888.506)" fill="#317791"/>
        <path id="Trazado_639869" data-name="Trazado 639869" d="M1120.223,918.668l1.864,1.541-1.2,1.119-1.491-.829.7,1.533-2.359,2.32-1.328-1.947Z" transform="translate(-1111.201 -890.079)" fill="#317791"/>
        <path id="Trazado_639870" data-name="Trazado 639870" d="M1153.157,908.76c1.879,1.367,4.593-.358,8.7-3.107l-.75-4.221-3.749,4.654-4.206-.666Z" transform="translate(-1119.933 -885.983)" fill="#e07f86" opacity="0.5"/>
        <path id="Trazado_639871" data-name="Trazado 639871" d="M1148.078,891.958a4.589,4.589,0,0,0-.239,3.467l1.689-2.973Z" transform="translate(-1118.607 -883.732)" fill="#353535"/>
        <path id="Trazado_639872" data-name="Trazado 639872" d="M1153.661,886.791v0s4.943-1.243,7.557,4.705a10.86,10.86,0,0,1-.047,7.58s-3.459,4.942-7.51,6.339c-2.842.875-5.132-4.234-5.778-9.332C1147.485,891.385,1150.424,887.21,1153.661,886.791Z" transform="translate(-1118.671 -882.478)" fill="#f4b7ac"/>
        <path id="Trazado_639873" data-name="Trazado 639873" d="M1151.555,904.366a3.944,3.944,0,0,0,3.97-.153s-.581,1.574-1.812,1.664A2.28,2.28,0,0,1,1151.555,904.366Z" transform="translate(-1119.552 -886.644)" fill="#fff"/>
        <g id="Grupo_955417" data-name="Grupo 955417" transform="translate(25.041)">
          <path id="Trazado_639874" data-name="Trazado 639874" d="M1164.871,899.592v2.3c1.949.7,3.548-1.221,3.84-2.793.146-.792-.041-1.494-.679-1.735-1.348-.5-2.364.81-2.847,1.626A5.425,5.425,0,0,0,1164.871,899.592Z" transform="translate(-1147.757 -884.991)" fill="#f4b7ac"/>
          <path id="Trazado_639875" data-name="Trazado 639875" d="M1162.589,885.771a2.848,2.848,0,0,0-2.942-.968h0c-5.521-9.432-15.235,2.472-15.235,2.472h2.431l-4.42,1.74c4.226,2.424,10.589,2.385,10.589,2.385h0a40.012,40.012,0,0,0,4.231-.1,2.45,2.45,0,0,0,1.638,2.362,29.217,29.217,0,0,0,.33,4.451,12.988,12.988,0,0,0,.841-3.322h0a5.238,5.238,0,0,1,1.02-1.038,2.834,2.834,0,0,1,1.139-.309S1163.674,887.257,1162.589,885.771Z" transform="translate(-1142.423 -881.168)" fill="#353535"/>
          <path id="Trazado_639876" data-name="Trazado 639876" d="M1167.551,899.174a2.745,2.745,0,0,0-2.177,1.259.114.114,0,0,0,.036.157.116.116,0,0,0,.06.017.112.112,0,0,0,.1-.053,2.977,2.977,0,0,1,.816-.8c.47.307.229,1.1.226,1.111a.113.113,0,0,0,.074.143.112.112,0,0,0,.034.006.114.114,0,0,0,.108-.079c.013-.039.266-.875-.229-1.3a1.994,1.994,0,0,1,.916-.23h.035a.114.114,0,1,0,0-.228Z" transform="translate(-1147.873 -885.447)" fill="#e07f86"/>
        </g>
        <g id="Grupo_955420" data-name="Grupo 955420" transform="translate(28.973 15.297)">
          <g id="Grupo_955418" data-name="Grupo 955418" transform="translate(9.039)">
            <path id="Trazado_639877" data-name="Trazado 639877" d="M1159.513,901.533c.016.109.3.159.628.112s.586-.173.571-.282-.3-.159-.627-.112S1159.5,901.424,1159.513,901.533Z" transform="translate(-1159.455 -901.233)" fill="#e07f86"/>
            <path id="Trazado_639878" data-name="Trazado 639878" d="M1159.439,902.443c.015-.109.3-.159.627-.112s.586.174.571.283-.3.159-.627.112S1159.423,902.553,1159.439,902.443Z" transform="translate(-1159.438 -901.489)" fill="#e07f86"/>
          </g>
          <g id="Grupo_955419" data-name="Grupo 955419">
            <path id="Trazado_639879" data-name="Trazado 639879" d="M1148.78,902.443c-.016-.109-.3-.159-.627-.112s-.586.174-.571.283.3.159.627.112S1148.8,902.553,1148.78,902.443Z" transform="translate(-1147.581 -901.489)" fill="#e07f86"/>
            <path id="Trazado_639880" data-name="Trazado 639880" d="M1148.854,901.533c-.015.109-.3.159-.627.112s-.586-.173-.571-.282.3-.159.627-.112S1148.87,901.424,1148.854,901.533Z" transform="translate(-1147.599 -901.233)" fill="#e07f86"/>
          </g>
        </g>
        <ellipse id="Elipse_7889" data-name="Elipse 7889" cx="0.408" cy="1.488" rx="0.408" ry="1.488" transform="translate(35.974 12.687)" fill="#353535"/>
        <path id="Trazado_639881" data-name="Trazado 639881" d="M1150.438,899.209c0,.773.162,1.4.362,1.4s.363-.627.363-1.4-.162-1.4-.363-1.4S1150.438,898.436,1150.438,899.209Z" transform="translate(-1119.287 -885.122)" fill="#353535"/>
        <g id="Grupo_955421" data-name="Grupo 955421" transform="translate(32.831 13.193)">
          <path id="Trazado_639882" data-name="Trazado 639882" d="M1153.31,902.4l-.041,0c-.172-.014-.574-.161-.617-1.19a8.76,8.76,0,0,1,.215-2.655.113.113,0,0,1,.142-.076.115.115,0,0,1,.076.142,8.72,8.72,0,0,0-.205,2.58c.028.693.229.957.409.973.262.026.658-.422.825-1.184a.115.115,0,0,1,.136-.087.114.114,0,0,1,.087.136C1154.16,901.838,1153.734,902.4,1153.31,902.4Z" transform="translate(-1152.641 -898.472)" fill="#e07f86"/>
        </g>
        <g id="Grupo_955422" data-name="Grupo 955422" transform="translate(29.46 11.173)">
          <path id="Trazado_639883" data-name="Trazado 639883" d="M1148.228,897.61c.127,0,.505-.808,1.031-1.06a1.5,1.5,0,0,1,1.18,0,.3.3,0,1,0,.2-.572,2.081,2.081,0,0,0-1.654.024C1148.228,896.375,1148.2,897.61,1148.228,897.61Z" transform="translate(-1148.22 -895.824)" fill="#353535"/>
        </g>
        <g id="Grupo_955423" data-name="Grupo 955423" transform="translate(35.63 11.061)">
          <path id="Trazado_639884" data-name="Trazado 639884" d="M1159.366,897.67c.179-.06-.109-1.372-.964-1.789a2.345,2.345,0,0,0-1.862-.027.342.342,0,1,0,.229.644,1.686,1.686,0,0,1,1.333,0A5.833,5.833,0,0,1,1159.366,897.67Z" transform="translate(-1156.313 -895.676)" fill="#353535"/>
        </g>
        <path id="Trazado_639885" data-name="Trazado 639885" d="M1165.619,1042.281v1.522s6.393,2.143,9.436-.542a5.484,5.484,0,0,0-.109-1.347c-4.251,2.267-9.029.363-9.312.249A.638.638,0,0,0,1165.619,1042.281Z" transform="translate(-1122.894 -919.365)" fill="#353535"/>
        <path id="Trazado_639886" data-name="Trazado 639886" d="M1152.991,1043.2l-.1-1.545-16.386.2.042,1.347Z" transform="translate(-1115.977 -919.303)" fill="#353535"/>
      </g>
    </g>
    <g id="Grupo_955441" data-name="Grupo 955441" transform="translate(882.599 871.457)">
      <path id="Trazado_639887" data-name="Trazado 639887" d="M923.979,1040.971h-16.4l.089-1.411.4-6.307h5.345l.246,1.367,3.948,1.548s5.119.509,6.193,3.392A3.161,3.161,0,0,1,923.979,1040.971Z" transform="translate(-888.534 -918.018)" fill="#414042"/>
      <path id="Trazado_639888" data-name="Trazado 639888" d="M923.979,1042.937h-16.4l.089-1.411h16.129A3.161,3.161,0,0,1,923.979,1042.937Z" transform="translate(-888.534 -919.983)" fill="#353535"/>
      <path id="Trazado_639889" data-name="Trazado 639889" d="M896.356,1039.713v1.52s-6.378,2.136-9.417-.543a5.54,5.54,0,0,1,.089-1.255,6.809,6.809,0,0,1,2.218-3.96l.579-3.406,4.829,1.2v1.946A39.631,39.631,0,0,1,896.356,1039.713Z" transform="translate(-883.629 -917.736)" fill="#414042"/>
      <path id="Trazado_639890" data-name="Trazado 639890" d="M896.356,1042.009v1.519s-6.378,2.136-9.417-.543a5.54,5.54,0,0,1,.089-1.255C890.962,1044.138,896.356,1042.009,896.356,1042.009Z" transform="translate(-883.629 -920.032)" fill="#fff"/>
      <path id="Trazado_639891" data-name="Trazado 639891" d="M896.356,1042.009v1.519s-6.378,2.136-9.417-.543a5.54,5.54,0,0,1,.089-1.255C890.962,1044.138,896.356,1042.009,896.356,1042.009Z" transform="translate(-883.629 -920.032)" fill="#353535"/>
      <path id="Trazado_639892" data-name="Trazado 639892" d="M911.8,958.011l-2.1,58.07h-7.571l-1.648-44.888-4.266,44.888-6.8-.607.5-58.058Z" transform="translate(-884.218 -899.997)" fill="#59595b"/>
      <path id="Trazado_639893" data-name="Trazado 639893" d="M902.829,974.863l2.833-2-5.118.679-1.252,38.543Z" transform="translate(-886.566 -903.667)" fill="#ced1d2" style="mix-blend-mode: multiply;isolation: isolate"/>
      <path id="Trazado_639894" data-name="Trazado 639894" d="M910.2,916.979l6.171,2.315s1.843,4.775,5.358,13.5c0,0,3.534,7.1-.02,8.333-3.391,1.028-9.643-12.316-9.643-12.316Z" transform="translate(-889.157 -890.388)" fill="#414042"/>
      <path id="Trazado_639895" data-name="Trazado 639895" d="M888.93,941.166c.008.32.023,2.3.023,2.531a28.419,28.419,0,0,1-1.06,6.321c0,4.1,11.809,3.973,14.866,3.344,9.863-.858,8.417-2.587,8.417-2.587-.094-.433-.2-1.006-.316-1.685-.889-5.215-2.312-16.586-2.293-17.253.008-.293.02-.573.031-.85-.23-.722,1.427-13.214.94-13.249a26.678,26.678,0,0,0-5.472-4.356c-.332-.2-.675-.4-1.034-.581-.089-.043-.179-.094-.265-.136-.223-.117-.449-.234-.683-.339a15.292,15.292,0,0,0-5.094-1.436,19.108,19.108,0,0,0-4.512,1.564c-.449.21-.89.441-1.326.678-.164.089-.324.183-.484.273-.258.144-.507.3-.753.444a19.822,19.822,0,0,0-6.642,7.016s.507.7.518.721c.344.643,3.078,7.156,4.193,10.062.105.448.207.929.292,1.432.035.194.066.39.1.592a.235.235,0,0,1,.008.051A59.657,59.657,0,0,1,888.93,941.166Z" transform="translate(-882.76 -888.941)" fill="#fff"/>
      <path id="Trazado_639896" data-name="Trazado 639896" d="M917.375,955.382c-2.321,2.924-9.391,3.545-9.391,3.545-.1-.358-2.825-4.783-2.825-4.783-.124-.9-.233-1.814-.332-2.734a166.633,166.633,0,0,1-.557-21.97l2.988-16.714a34.779,34.779,0,0,1,7.667,5.558s-1.193,9.451-1.049,13.543c.1,3.083,2.033,14.876,2.983,20.513C917.172,954.194,917.375,955.382,917.375,955.382Z" transform="translate(-887.716 -889.377)" fill="#414042"/>
      <path id="Trazado_639897" data-name="Trazado 639897" d="M917.129,937.962l-.938-6.487.781-3.745-.781,1.285-1.622-4.309,1.864,12.16Z" transform="translate(-890.196 -892.224)" fill="#ced1d2" style="mix-blend-mode: multiply;isolation: isolate"/>
      <path id="Trazado_639898" data-name="Trazado 639898" d="M904.308,934.647s-.166,17.288.891,24.69C905.2,959.337,905.458,942.688,904.308,934.647Z" transform="translate(-887.756 -894.586)" fill="#ced1d2" style="mix-blend-mode: multiply;isolation: isolate"/>
      <path id="Trazado_639899" data-name="Trazado 639899" d="M907.274,913.137l-2.964,16.34,5.417-7.047-1.75-2.037,2.126-2.145-1.156-4.515Z" transform="translate(-887.758 -889.475)" fill="#59595b"/>
      <path id="Trazado_639900" data-name="Trazado 639900" d="M900.291,954.168s-3.087,4.231-3.251,5.235c0,0-8.437-.572-11.754-2.719,0,0,1.412-15,1.785-20.558v-.01c.005-.1.015-.195.02-.284.025-.348.04-.646.05-.9a14.168,14.168,0,0,0-.07-1.869c-.472-4.848-3.428-12.471-3.428-12.471a25.2,25.2,0,0,1,8.574-7.764l7.184,16.635.8,22.049Z" transform="translate(-882.848 -889.402)" fill="#414042"/>
      <path id="Trazado_639901" data-name="Trazado 639901" d="M913.019,961.082c-2.321,2.924-9.391,3.545-9.391,3.545-.1-.358-2.825-4.783-2.825-4.783s-3.087,4.231-3.251,5.235c0,0-8.437-.572-11.754-2.719,0,0,1.412-15,1.785-20.558v-.01c.005-.1.015-.194.02-.284-.109-.184-.213-.373-.318-.572,0,0-.154-.264-.4-.726l.7-1.471.97-2.024,4.261.9,2.69.572s-1.865,6.11-2.719,7.1-2.578.331-2.578.331a15.4,15.4,0,0,0,10.264,11.487,2.193,2.193,0,0,0,.239.079,26.461,26.461,0,0,0,11.792.85C912.815,959.895,913.019,961.082,913.019,961.082Z" transform="translate(-883.36 -895.078)" fill="#ced1d2" style="mix-blend-mode: multiply;isolation: isolate"/>
      <path id="Trazado_639902" data-name="Trazado 639902" d="M894.89,910.433a16.782,16.782,0,0,0,7.406,5.748,8.413,8.413,0,0,0,2.55-6.22l-1.279-5.562-4.329,1.06-4.3-4.528v.281l-.023,4.29Z" transform="translate(-885.52 -886.575)" fill="#f4b7ac"/>
      <path id="Trazado_639903" data-name="Trazado 639903" d="M894.51,912.2l7.159,17.113-6.806-5.717,1.271-2.365-2.538-1.638-.4-6.2Z" transform="translate(-885.117 -889.253)" fill="#59595b"/>
      <path id="Trazado_639904" data-name="Trazado 639904" d="M894.921,905.591c4.758,3.354,7.168,4.18,9.6,3.525l-1.583-2.691-.234-1.166-4.423.531-3.338-4.489Z" transform="translate(-885.527 -886.663)" fill="#e07f86" opacity="0.5"/>
      <g id="Grupo_955436" data-name="Grupo 955436" transform="translate(4.78 2.527)">
        <path id="Trazado_639905" data-name="Trazado 639905" d="M901.4,885.5v0s-5.379-1.163-7.985,5.351a11.72,11.72,0,0,0,.324,8.178s3.912,5.208,8.334,6.57c3.1.843,6.084-4.718,5.9-10.279C907.793,890.054,904.907,885.833,901.4,885.5Z" transform="translate(-889.807 -885.415)" fill="#f4b7ac"/>
        <path id="Trazado_639906" data-name="Trazado 639906" d="M909.615,900.106c0,.707.192,1.279.429,1.279s.43-.573.43-1.279-.193-1.279-.43-1.279S909.615,899.4,909.615,900.106Z" transform="translate(-893.799 -888.602)" fill="#353535"/>
        <path id="Trazado_639907" data-name="Trazado 639907" d="M903.256,900.152c0,.732.216,1.325.481,1.325s.481-.593.481-1.325-.216-1.325-.481-1.325S903.256,899.42,903.256,900.152Z" transform="translate(-892.288 -888.602)" fill="#353535"/>
        <g id="Grupo_955428" data-name="Grupo 955428" transform="translate(11.598 15.397)">
          <g id="Grupo_955427" data-name="Grupo 955427">
            <g id="Grupo_955426" data-name="Grupo 955426">
              <path id="Trazado_639908" data-name="Trazado 639908" d="M904.208,906.446a.126.126,0,0,1-.055-.239c.1-.047,2.373-1.149,3.218-.236a.126.126,0,0,1-.185.171c-.6-.647-2.312-.008-2.923.291A.132.132,0,0,1,904.208,906.446Z" transform="translate(-904.083 -905.61)" fill="#e07f86"/>
            </g>
          </g>
        </g>
        <g id="Grupo_955429" data-name="Grupo 955429" transform="translate(0 9.017)">
          <path id="Trazado_639909" data-name="Trazado 639909" d="M893.1,899.67l.083,2.488c-2.079.828-3.874-1.189-4.245-2.875-.186-.85-.01-1.614.669-1.9,1.437-.589,2.581.79,3.132,1.653A5.933,5.933,0,0,1,893.1,899.67Z" transform="translate(-888.87 -897.243)" fill="#f4b7ac"/>
          <path id="Trazado_639910" data-name="Trazado 639910" d="M890.712,899.31a2.968,2.968,0,0,1,2.4,1.281.124.124,0,0,1-.034.171.118.118,0,0,1-.065.021.122.122,0,0,1-.106-.054,3.2,3.2,0,0,0-.91-.835c-.5.348-.207,1.2-.2,1.206a.123.123,0,0,1-.075.157.131.131,0,0,1-.037.008.123.123,0,0,1-.12-.082c-.014-.042-.319-.935.2-1.413a2.149,2.149,0,0,0-1-.215l-.038,0a.122.122,0,0,1-.129-.117A.124.124,0,0,1,890.712,899.31Z" transform="translate(-889.28 -897.733)" fill="#e07f86"/>
        </g>
        <g id="Grupo_955432" data-name="Grupo 955432" transform="translate(7.418 12.437)">
          <g id="Grupo_955430" data-name="Grupo 955430" transform="translate(0 0.147)">
            <path id="Trazado_639911" data-name="Trazado 639911" d="M899.9,902.233c-.015.118-.318.176-.675.13s-.636-.178-.621-.3.317-.176.675-.13S899.912,902.115,899.9,902.233Z" transform="translate(-898.6 -901.921)" fill="#e07f86"/>
            <path id="Trazado_639912" data-name="Trazado 639912" d="M899.992,903.213c-.019-.117-.323-.168-.679-.111s-.63.2-.612.313.323.167.679.111S900.01,903.331,899.992,903.213Z" transform="translate(-898.624 -902.196)" fill="#e07f86"/>
          </g>
          <g id="Grupo_955431" data-name="Grupo 955431" transform="translate(9.934)">
            <path id="Trazado_639913" data-name="Trazado 639913" d="M911.726,903.049c.015-.118.317-.177.675-.13s.636.178.621.3-.318.177-.675.13S911.711,903.167,911.726,903.049Z" transform="translate(-911.653 -902.007)" fill="#e07f86"/>
            <path id="Trazado_639914" data-name="Trazado 639914" d="M911.632,902.065c.018.117.323.168.679.111s.63-.2.612-.313-.322-.168-.679-.112S911.613,901.948,911.632,902.065Z" transform="translate(-911.631 -901.728)" fill="#e07f86"/>
          </g>
        </g>
        <g id="Grupo_955433" data-name="Grupo 955433" transform="translate(12.513 10.438)">
          <path id="Trazado_639915" data-name="Trazado 639915" d="M906.312,903.322h.045c.185-.006.628-.141.733-1.248a9.456,9.456,0,0,0-.078-2.874.122.122,0,0,0-.149-.091.124.124,0,0,0-.091.149,9.406,9.406,0,0,1,.072,2.793c-.07.746-.3,1.019-.5,1.025-.284.014-.685-.493-.822-1.323a.123.123,0,1,0-.242.04C905.428,902.667,905.855,903.3,906.312,903.322Z" transform="translate(-905.283 -899.106)" fill="#e07f86"/>
        </g>
        <g id="Grupo_955434" data-name="Grupo 955434" transform="translate(15.037 8.439)">
          <path id="Trazado_639916" data-name="Trazado 639916" d="M910.214,897.111a1.508,1.508,0,0,0-1.14.327.3.3,0,0,1-.353-.5,2.092,2.092,0,0,1,1.6-.429c.836.149,1.4,1.2,1.263,1.3A5.186,5.186,0,0,0,910.214,897.111Z" transform="translate(-908.594 -896.483)" fill="#8a5e3c"/>
        </g>
        <g id="Grupo_955435" data-name="Grupo 955435" transform="translate(8.817 8.671)">
          <path id="Trazado_639917" data-name="Trazado 639917" d="M900.475,898.709c-.184-.087.288-1.458,1.258-1.8a2.53,2.53,0,0,1,2,.2.369.369,0,1,1-.326.662,1.824,1.824,0,0,0-1.43-.169A6.312,6.312,0,0,0,900.475,898.709Z" transform="translate(-900.436 -896.788)" fill="#8a5e3c"/>
        </g>
      </g>
      <path id="Trazado_639918" data-name="Trazado 639918" d="M907.543,972.154l0-.012h0Z" transform="translate(-888.526 -903.496)" fill="#e5e5e6"/>
      <g id="Grupo_955439" data-name="Grupo 955439" transform="translate(28.431 19.069)">
        <g id="Grupo_955438" data-name="Grupo 955438">
          <g id="Grupo_955437" data-name="Grupo 955437">
            <path id="Trazado_639919" data-name="Trazado 639919" d="M929.359,907.113l-6.778.4a.746.746,0,0,0-.833.647l-1.846,14.72a1.01,1.01,0,0,0,.884,1.138l6.541-.71a.746.746,0,0,0,.833-.648l2.147-14.633C930.359,907.624,929.768,907.164,929.359,907.113Z" transform="translate(-919.893 -907.113)" fill="#6d6e71"/>
            <path id="Trazado_639920" data-name="Trazado 639920" d="M929.909,907.623l-6.778.4a.746.746,0,0,0-.833.647l-1.846,14.72a.746.746,0,0,0,.648.833l6.778-.4a.747.747,0,0,0,.833-.648l1.846-14.72A.746.746,0,0,0,929.909,907.623Z" transform="translate(-920.024 -907.234)" fill="#a5a7aa"/>
            <path id="Trazado_639921" data-name="Trazado 639921" d="M928.5,914.583c-.156,1.088-.764,1.9-1.358,1.816s-.948-1.036-.792-2.125.764-1.9,1.358-1.816S928.653,913.494,928.5,914.583Z" transform="translate(-921.418 -908.382)" fill="#ced1d2"/>
            <path id="Trazado_639922" data-name="Trazado 639922" d="M925.246,908.858l-1.315.082a.368.368,0,0,0,.046.735l1.315-.082a.369.369,0,0,0,.345-.39h0A.369.369,0,0,0,925.246,908.858Z" transform="translate(-920.77 -907.527)" fill="#414042"/>
          </g>
          <path id="Trazado_639923" data-name="Trazado 639923" d="M933.442,924.106a9.29,9.29,0,0,0,.306-4.59c-.242-1.242-2.688-3.386-3.076-3.716s-3.064-1.466-3.432-1.128,0,.88.759,1.275,1.786.9,1.864.952,1.527,2.017,1.527,2.017-2.051-.7-2.5-.791a8.919,8.919,0,0,0-2.976.071c-.193.233-.133.707.64.789a2.6,2.6,0,0,0-1.083.261c-.191.153-.527.965,1.785.915,0,0-1.14-.07-1.166.378s2.5.553,2.5.553a2.973,2.973,0,0,0,1.564,2.255l-.268,2.376Z" transform="translate(-921.186 -908.894)" fill="#f4b7ac"/>
        </g>
        <path id="Trazado_639924" data-name="Trazado 639924" d="M928.9,926.279a35.667,35.667,0,0,1-4.824,9c-2.424,3.435-2.175,6.925-.789,7.83s3.9-.432,5.131-2.969c1.208-2.187,4.78-12.861,4.78-12.861Z" transform="translate(-920.451 -911.667)" fill="#414042"/>
      </g>
      <path id="Trazado_639925" data-name="Trazado 639925" d="M893.382,937.981s-1.358,5.083-4.933,2.02a10.515,10.515,0,0,1-1.606-2.213c-.109-.184-.213-.373-.318-.572,0,0-.154-.264-.4-.726-1.4-2.591-5.732-11.405-2.118-14.647,3.9-3.51,6.607,5.6,7.552,10.445.174.552.343,1.094.5,1.606C892.765,936.207,893.382,937.981,893.382,937.981Z" transform="translate(-882.599 -891.358)" fill="#414042"/>
      <path id="Trazado_639926" data-name="Trazado 639926" d="M898.858,882.306c-5.742-1.235-6.5,3.462-6.585,4.307,0,0-.214-.256-1.579.426s-1.185,4.747-.313,6.638c0,0,2.339.552,3,4.464a5.723,5.723,0,0,0,0-4.083,4.525,4.525,0,0,0,1.96-2.942,13.272,13.272,0,0,0,5.646.082s-2.357.86-3.7,1.3c0,0,4.883.877,6.925-.91a15.432,15.432,0,0,1-1.336,1.495,15.657,15.657,0,0,0,4.054-1.037h0a16.026,16.026,0,0,1,.3,3.941,8.333,8.333,0,0,0,.81-4.4c1.083-.507,1.946-1.115,2.084-1.786C910.554,887.751,904.6,883.541,898.858,882.306Z" transform="translate(-884.286 -882.1)" fill="#8a5e3c"/>
      <g id="Grupo_955440" data-name="Grupo 955440" transform="translate(5.802 19.752)">
        <path id="Trazado_639927" data-name="Trazado 639927" d="M907.261,911.655c.759.108.916-.5.624-.853a4.481,4.481,0,0,0-2.562-.8,18.4,18.4,0,0,0-2.057,1.426l1.457-1.931s.771-.1,2.212-.4c1.21-.328.936-.927.451-.983-.421-.213-3.093-.112-3.568.323a19.407,19.407,0,0,0-2.376,2.7c-.245.437-1.317,3.484-1.613,4.423.524,1.4,1.947.722,2.7,1.816a4.835,4.835,0,0,0,3.171-3.791c.175-.094.218,1.478,1.253.733a6.722,6.722,0,0,0-.275-1.707s-.264,1.406.845.852C908.029,913.044,907.261,911.655,907.261,911.655Z" transform="translate(-892.495 -908.009)" fill="#e9a49e"/>
        <path id="Trazado_639928" data-name="Trazado 639928" d="M890.927,930.947c-1.969,5.436.39,11.539,3.722,7.31,1.849-3.833,6.114-16.912,6.469-18.482-.747-1.089-4.16-2.676-4.16-2.676Z" transform="translate(-890.209 -910.169)" fill="#414042"/>
        <path id="Trazado_639929" data-name="Trazado 639929" d="M891.085,925.627l.787,3.4-1.16,3.522,1.326-1.909.278,4.477.468-5.966,2.157-5.616-2.625,4.726Z" transform="translate(-890.329 -911.698)" fill="#ced1d2" style="mix-blend-mode: multiply;isolation: isolate"/>
      </g>
    </g>
    <g id="Grupo_955450" data-name="Grupo 955450" transform="translate(1016.361 956.932)">
      <g id="Grupo_955445" data-name="Grupo 955445">
        <g id="Grupo_955444" data-name="Grupo 955444">
          <path id="Trazado_639930" data-name="Trazado 639930" d="M1092.485,1001.18a18.48,18.48,0,0,1,3.869,13.84,18.575,18.575,0,0,1-.759,3.374,18.313,18.313,0,0,1-5.1,7.905q-.457.422-.954.817a18.454,18.454,0,0,1-29.83-16.563,18,18,0,0,1,.717-3.385,18.458,18.458,0,0,1,32.058-5.988Z" transform="translate(-1058.417 -994.216)" fill="#d89532"/>
          <path id="Trazado_639931" data-name="Trazado 639931" d="M1090.952,1002.4a18.449,18.449,0,0,1-1.992,25.12q-.456.421-.954.816a18.454,18.454,0,0,1-29.83-16.563,17.924,17.924,0,0,1,.717-3.384,18.457,18.457,0,0,1,32.058-5.989Z" transform="translate(-1058.053 -994.506)" fill="#f5c951"/>
          <g id="Grupo_955442" data-name="Grupo 955442" transform="translate(0 9.78)">
            <path id="Trazado_639932" data-name="Trazado 639932" d="M1094.061,1024.706a18.307,18.307,0,0,1-5.1,7.906l-29.452-6.436a18.4,18.4,0,0,1-1.331-9.31Z" transform="translate(-1058.053 -1009.379)" fill="#e5e5e6" style="mix-blend-mode: soft-light;isolation: isolate"/>
            <path id="Trazado_639933" data-name="Trazado 639933" d="M1095.1,1014.5a18.4,18.4,0,0,1-.022,4.5l-35.926-7.852a18.31,18.31,0,0,1,1.852-4.1Z" transform="translate(-1058.315 -1007.045)" fill="#e5e5e6" style="mix-blend-mode: soft-light;isolation: isolate"/>
          </g>
          <path id="Trazado_639934" data-name="Trazado 639934" d="M1089.018,1006.241a14.339,14.339,0,0,1-2.055,19.962,3,3,0,0,1-.236.2,14.348,14.348,0,1,1-17.872-22.452,2.887,2.887,0,0,1,.248-.185A14.338,14.338,0,0,1,1089.018,1006.241Z" transform="translate(-1059.333 -995.788)" fill="#d89532"/>
          <path id="Trazado_639935" data-name="Trazado 639935" d="M1089.167,1006.241a14.045,14.045,0,1,1-19.914-2.475A14.338,14.338,0,0,1,1089.167,1006.241Z" transform="translate(-1059.482 -995.788)" fill="#ebb030"/>
          <g id="Grupo_955443" data-name="Grupo 955443" transform="translate(10.448 10.205)">
            <path id="Trazado_639936" data-name="Trazado 639936" d="M1086.081,1021.816l1.515,1.9-2.417,1.924-1.447-1.818a12.9,12.9,0,0,1-5.361,2.307l-1.045-3.986a10.531,10.531,0,0,0,4.834-2.055c1.149-.915,1.369-1.483,1.042-1.894-1.2-1.509-6.868,4.99-10.429.515-1.542-1.937-1.433-4.686,1.065-7.318l-1.487-1.869,2.417-1.925,1.461,1.835a11.436,11.436,0,0,1,4.272-1.776l1.116,3.9a9.476,9.476,0,0,0-4.053,1.77c-1.183.942-1.288,1.585-.96,2,1.147,1.44,6.826-5.042,10.348-.618C1088.425,1016.561,1088.37,1019.237,1086.081,1021.816Z" transform="translate(-1071.757 -1007.602)" fill="#f5c951"/>
          </g>
        </g>
      </g>
      <g id="Grupo_955449" data-name="Grupo 955449" transform="translate(19.043 0.467)">
        <g id="Grupo_955448" data-name="Grupo 955448">
          <path id="Trazado_639937" data-name="Trazado 639937" d="M1121.905,1013.286a18.446,18.446,0,0,1-17.2,18.412q-.62.046-1.255.045a18.454,18.454,0,0,1-13.024-31.536,17.99,17.99,0,0,1,2.669-2.2,18.458,18.458,0,0,1,28.812,15.279Z" transform="translate(-1083.497 -994.829)" fill="#d89532"/>
          <path id="Trazado_639938" data-name="Trazado 639938" d="M1119.945,1013.286a18.446,18.446,0,0,1-17.2,18.412q-.62.046-1.255.045a18.454,18.454,0,0,1-13.024-31.536,17.953,17.953,0,0,1,2.67-2.2,18.457,18.457,0,0,1,28.811,15.279Z" transform="translate(-1083.031 -994.829)" fill="#f5c951"/>
          <g id="Grupo_955446" data-name="Grupo 955446" transform="translate(0.677 1.12)">
            <path id="Trazado_639939" data-name="Trazado 639939" d="M1111.869,1030.367a18.312,18.312,0,0,1-8.915,3.008L1083.919,1010a18.407,18.407,0,0,1,4.756-8.113Z" transform="translate(-1083.919 -997.625)" fill="#e5e5e6" style="mix-blend-mode: soft-light;isolation: isolate"/>
            <path id="Trazado_639940" data-name="Trazado 639940" d="M1119.7,1023.367a18.416,18.416,0,0,1-2.819,3.506l-23.218-28.517a18.344,18.344,0,0,1,4-2.058Z" transform="translate(-1086.234 -996.298)" fill="#e5e5e6" style="mix-blend-mode: soft-light;isolation: isolate"/>
          </g>
          <path id="Trazado_639941" data-name="Trazado 639941" d="M1117.117,1014.567a14.34,14.34,0,0,1-14.04,14.339c-.1.01-.2.01-.309.01a14.349,14.349,0,0,1,0-28.7c.1,0,.209,0,.309.01A14.34,14.34,0,0,1,1117.117,1014.567Z" transform="translate(-1084.312 -996.11)" fill="#d89532"/>
          <path id="Trazado_639942" data-name="Trazado 639942" d="M1117.308,1014.57a14.045,14.045,0,1,1-14.04-14.339A14.34,14.34,0,0,1,1117.308,1014.57Z" transform="translate(-1084.503 -996.113)" fill="#ebb030"/>
          <g id="Grupo_955447" data-name="Grupo 955447" transform="translate(11.543 8.157)">
            <path id="Trazado_639943" data-name="Trazado 639943" d="M1106.894,1023.7v2.433h-3.09V1023.8a12.88,12.88,0,0,1-5.632-1.534l1.665-3.768a10.525,10.525,0,0,0,5.062,1.4c1.469,0,1.995-.307,1.995-.832,0-1.928-8.481-.373-8.481-6.093,0-2.475,1.8-4.557,5.391-5.061v-2.389h3.09v2.344a11.441,11.441,0,0,1,4.448,1.272l-1.555,3.747a9.469,9.469,0,0,0-4.274-1.139c-1.513,0-1.994.438-1.994.964,0,1.841,8.481.307,8.481,5.96C1112,1021.044,1110.29,1023.1,1106.894,1023.7Z" transform="translate(-1098.172 -1005.529)" fill="#f5c951"/>
          </g>
        </g>
      </g>
    </g>
    <g id="Grupo_955462" data-name="Grupo 955462" transform="translate(935.246 837.309)">
      <g id="Grupo_955453" data-name="Grupo 955453" transform="translate(0 73.698)">
        <g id="Grupo_955451" data-name="Grupo 955451" transform="translate(16.292 37.7)">
          <line id="Línea_153" data-name="Línea 153" x1="5.162" y2="9.404" transform="translate(1.767 0.97)" fill="#6d6e71"/>
          <rect id="Rectángulo_339955" data-name="Rectángulo 339955" width="10.728" height="4.033" transform="translate(0 9.404) rotate(-61.239)" fill="#6d6e71"/>
        </g>
        <path id="Trazado_639944" data-name="Trazado 639944" d="M960.7,1022.409a2.893,2.893,0,0,1-3.9,1.23l-1.288-.715-.105-.057-2.3-1.252a2.914,2.914,0,0,1-1.065-3.967l13.5-24.605a2.913,2.913,0,0,1,3.916-1.23l2.485,1.368.007,0,1.206.659A2.9,2.9,0,0,1,974.2,997.8Z" transform="translate(-951.656 -947.641)" fill="#414042"/>
        <path id="Trazado_639945" data-name="Trazado 639945" d="M961.867,1022.916a2.893,2.893,0,0,1-3.9,1.23l-1.288-.715-.105-.057,16.393-29.763.141.078.007,0,1.206.659a2.9,2.9,0,0,1,1.054,3.967Z" transform="translate(-952.823 -948.147)" fill="#59595b"/>
        <g id="Grupo_955452" data-name="Grupo 955452" transform="translate(10.793)">
          <path id="Trazado_639946" data-name="Trazado 639946" d="M1005.782,952.015a17.709,17.709,0,0,1-12.039,21.934,17.444,17.444,0,0,1-5.753.682,17.654,17.654,0,0,1-7.26-1.946,17.607,17.607,0,0,1-8.908-10.779c-.143-.49-.26-.989-.36-1.478a17.686,17.686,0,0,1,29.348-16.445,17.428,17.428,0,0,1,3.456,4.412A16.946,16.946,0,0,1,1005.782,952.015Z" transform="translate(-967.073 -935.237)" fill="#89c8de" opacity="0.4"/>
          <path id="Trazado_639947" data-name="Trazado 639947" d="M981.466,934.849a21.722,21.722,0,1,0,26.93,14.781A21.721,21.721,0,0,0,981.466,934.849Zm-10.909,25.8a17.688,17.688,0,1,1,21.929,12.036A17.709,17.709,0,0,1,970.557,960.651Z" transform="translate(-965.813 -933.977)" fill="#ef5a29"/>
        </g>
        <path id="Trazado_639948" data-name="Trazado 639948" d="M1000.916,944.061l-24.6,25.4a17.551,17.551,0,0,1-4.389-7.474c-.143-.49-.26-.989-.36-1.477l20.266-20.9A17.856,17.856,0,0,1,1000.916,944.061Z" transform="translate(-956.387 -935.315)" fill="#fff" opacity="0.4"/>
        <path id="Trazado_639949" data-name="Trazado 639949" d="M1008.777,954.856a17.846,17.846,0,0,1,.65,3.577l-18.442,19.038a17.654,17.654,0,0,1-7.26-1.946l23.536-24.289A16.949,16.949,0,0,1,1008.777,954.856Z" transform="translate(-959.276 -938.078)" fill="#fff" opacity="0.4"/>
      </g>
      <g id="Grupo_955461" data-name="Grupo 955461" transform="translate(40.948)">
        <path id="Trazado_639950" data-name="Trazado 639950" d="M1067.818,837.309h-57.624a4.827,4.827,0,0,0-4.827,4.827v31.991a4.827,4.827,0,0,0,4.827,4.827h25.087l3.725,6.452,3.725-6.452h25.087a4.827,4.827,0,0,0,4.827-4.827V842.136A4.827,4.827,0,0,0,1067.818,837.309Z" transform="translate(-1005.367 -837.309)" fill="#9797de"/>
        <g id="Grupo_955460" data-name="Grupo 955460" transform="translate(4.734 6.993)">
          <g id="Grupo_955454" data-name="Grupo 955454">
            <path id="Trazado_639951" data-name="Trazado 639951" d="M1030.251,846.481c-.039.615,0,13.374,0,13.374l10.037-8.649A13,13,0,0,0,1030.251,846.481Z" transform="translate(-1016.01 -846.481)" fill="#f5921e"/>
            <path id="Trazado_639952" data-name="Trazado 639952" d="M1045.432,861.4a12.973,12.973,0,0,0-2.986-8.3l-10.037,8.649h13.015C1045.426,861.635,1045.432,861.519,1045.432,861.4Z" transform="translate(-1016.527 -848.054)" fill="#e5e5e6"/>
            <path id="Trazado_639953" data-name="Trazado 639953" d="M1024.6,848.6a13.024,13.024,0,1,0,10.827,20.252l-10.827-6.877S1024.562,849.212,1024.6,848.6Z" transform="translate(-1011.577 -846.984)" fill="#fff"/>
            <path id="Trazado_639954" data-name="Trazado 639954" d="M1031.373,865.924,1042.2,872.8a12.958,12.958,0,0,0,2.186-6.877Z" transform="translate(-1016.281 -851.101)" fill="#ced1d2"/>
          </g>
          <g id="Grupo_955459" data-name="Grupo 955459" transform="translate(38.802 3.799)">
            <g id="Grupo_955455" data-name="Grupo 955455">
              <rect id="Rectángulo_339956" data-name="Rectángulo 339956" width="3.319" height="3.319" fill="#fff"/>
              <rect id="Rectángulo_339957" data-name="Rectángulo 339957" width="12.894" height="0.79" rx="0.395" transform="translate(5.936 1.213)" fill="#fff"/>
            </g>
            <g id="Grupo_955456" data-name="Grupo 955456" transform="translate(0 5.581)">
              <rect id="Rectángulo_339958" data-name="Rectángulo 339958" width="3.319" height="3.319" fill="#f5921e"/>
              <rect id="Rectángulo_339959" data-name="Rectángulo 339959" width="12.894" height="0.79" rx="0.395" transform="translate(5.936 1.213)" fill="#fff"/>
            </g>
            <g id="Grupo_955457" data-name="Grupo 955457" transform="translate(0 11.162)">
              <rect id="Rectángulo_339960" data-name="Rectángulo 339960" width="3.319" height="3.319" fill="#e5e5e6"/>
              <rect id="Rectángulo_339961" data-name="Rectángulo 339961" width="12.894" height="0.79" rx="0.395" transform="translate(5.936 1.213)" fill="#fff"/>
            </g>
            <g id="Grupo_955458" data-name="Grupo 955458" transform="translate(0 16.744)">
              <rect id="Rectángulo_339962" data-name="Rectángulo 339962" width="3.319" height="3.319" fill="#ced1d2"/>
              <rect id="Rectángulo_339963" data-name="Rectángulo 339963" width="12.894" height="0.79" rx="0.395" transform="translate(5.936 1.213)" fill="#fff"/>
            </g>
          </g>
        </g>
      </g>
    </g>
  </g>
</svg>
