<svg xmlns="http://www.w3.org/2000/svg" width="174" height="174" viewBox="0 0 174 174">
  <g id="Grupo_962220" data-name="Grupo 962220" transform="translate(-713 -3368)">
    <g id="Grupo_958967" data-name="Grupo 958967">
      <circle id="Elipse_7895" data-name="Elipse 7895" cx="87" cy="87" r="87" transform="translate(713 3368)" fill="#fff"/>
    </g>
    <g id="editor-de-seleccion-de-fuentes" transform="translate(761.199 3367.169)">
      <g id="Grupo_958965" data-name="Grupo 958965" transform="translate(0 53.67)">
        <path id="Trazado_640493" data-name="Trazado 640493" d="M66.98,97.148a1.45,1.45,0,0,0-1.69.338L62.2,100.575a1.444,1.444,0,0,0-.435,1.061v6.081a7.74,7.74,0,0,1-7.72,7.721H13.9a7.436,7.436,0,0,1-5.453-2.268,7.435,7.435,0,0,1-2.268-5.453V67.568a7.435,7.435,0,0,1,2.268-5.453A7.436,7.436,0,0,1,13.9,59.846h40.15a8.576,8.576,0,0,1,2.171.29,1.41,1.41,0,0,0,1.544-.386l2.364-2.365a1.5,1.5,0,0,0,.434-1.4,1.463,1.463,0,0,0-.869-1.11,13.29,13.29,0,0,0-5.646-1.207H13.9a13.387,13.387,0,0,0-9.82,4.078A13.388,13.388,0,0,0,0,67.568v40.15a13.387,13.387,0,0,0,4.077,9.82,13.385,13.385,0,0,0,9.82,4.078H54.047a13.925,13.925,0,0,0,13.9-13.9V98.549A1.4,1.4,0,0,0,66.98,97.148Z" transform="translate(0 -53.67)" fill="#cc3000"/>
        <path id="Trazado_640494" data-name="Trazado 640494" d="M182.721,140.92v13.9h13.9l32.428-32.428-13.9-13.9Zm11.967,9.265h-2.7v-4.631h-4.632v-2.7l5.6-5.6,7.335,7.335Zm21.185-33.153-16.89,16.89a1.094,1.094,0,1,1-1.544-1.543l16.89-16.89a1.094,1.094,0,1,1,1.544,1.544Z" transform="translate(-151.837 -99.225)" fill="#cc3000"/>
        <path id="Trazado_640495" data-name="Trazado 640495" d="M411.194,64.643l-7.335-7.335a4.659,4.659,0,0,0-6.562,0l-4.44,4.439,13.9,13.9,4.439-4.44a4.661,4.661,0,0,0,0-6.563Z" transform="translate(-326.456 -55.57)" fill="#cc3000"/>
      </g>
    </g>
  </g>
</svg>
