<svg xmlns="http://www.w3.org/2000/svg" width="257" height="77" viewBox="0 0 257 77">
  <g id="Grupo_962224" data-name="Grupo 962224" transform="translate(3334 7459)">
    <path id="Trazado_655413" data-name="Trazado 655413" d="M11,0H246a11,11,0,0,1,11,11V66a11,11,0,0,1-11,11H11A11,11,0,0,1,0,66V11A11,11,0,0,1,11,0Z" transform="translate(-3334 -7459)" fill="#fff"/>
    <path id="Trazado_655414" data-name="Trazado 655414" d="M-1.61-10.038l.1,1.178a3.4,3.4,0,0,1,2.867-1.364A2.864,2.864,0,0,1,3.7-9.287a4.461,4.461,0,0,1,.8,2.82V0H1.368V-6.336a1.694,1.694,0,0,0-.306-1.118A1.416,1.416,0,0,0-.051-7.812a1.491,1.491,0,0,0-1.364.724V0H-4.541V-10.038Z" transform="translate(-3318 -7418)" fill="#21456e"/>
    <path id="Trazado_655418" data-name="Trazado 655418" d="M.561.186A5.16,5.16,0,0,1-3.177-1.192,4.757,4.757,0,0,1-4.606-4.778v-.26a6.165,6.165,0,0,1,.571-2.718A4.175,4.175,0,0,1-2.37-9.579a5.027,5.027,0,0,1,2.6-.645,4.345,4.345,0,0,1,3.34,1.313,5.159,5.159,0,0,1,1.225,3.66v1.215H-1.424A2.253,2.253,0,0,0-.691-2.709a2.181,2.181,0,0,0,1.466.482A2.81,2.81,0,0,0,3.094-3.266L4.523-1.577A3.994,3.994,0,0,1,2.867-.292,5.6,5.6,0,0,1,.561.186Zm-.353-8q-1.373,0-1.633,1.818H1.73v-.241A1.549,1.549,0,0,0,1.35-7.4,1.514,1.514,0,0,0,.209-7.812Z" transform="translate(-3285 -7400)" fill="#21456e"/>
    <path id="Trazado_655415" data-name="Trazado 655415" d="M5.631,0H2.394L-2.394-8.405V0H-5.65V-13.508h3.256L2.384-5.1v-8.405H5.631Z" transform="translate(-3240 -7433)" fill="#21456e"/>
    <path id="Trazado_655419" data-name="Trazado 655419" d="M-34.2-5.492A14.178,14.178,0,0,1-33.6-9.7a10.164,10.164,0,0,1,1.665-3.3A5.914,5.914,0,0,1-29.572-14.9l.594,1.54a6.048,6.048,0,0,0-2.009,2.983,14.547,14.547,0,0,0-.719,4.755v.408A14.831,14.831,0,0,0-31-.371a6.023,6.023,0,0,0,2.018,3.006l-.594,1.54a5.855,5.855,0,0,1-2.361-1.9A10.011,10.011,0,0,1-33.6-1.011a14.246,14.246,0,0,1-.6-4.063ZM-16.3,0h-3.238L-24.33-8.405V0h-3.256V-13.508h3.256L-19.552-5.1v-8.405H-16.3ZM-3.549-4.62H-9.124V-7.032h5.576ZM10.5,0H7.362V-9.982l-3.08.9v-2.375l5.928-2.05H10.5Zm9.055-5.232a13.229,13.229,0,0,1-.64,4.138,10.564,10.564,0,0,1-1.767,3.363,5.884,5.884,0,0,1-2.435,1.906l-.594-1.54A6.109,6.109,0,0,0,16.11-.334a14.331,14.331,0,0,0,.733-4.611v-.566a14.831,14.831,0,0,0-.71-4.843,6.023,6.023,0,0,0-2.018-3.006l.594-1.54a5.992,5.992,0,0,1,2.417,1.888A10.434,10.434,0,0,1,18.889-9.7a13.117,13.117,0,0,1,.663,4.059ZM31.677-7.663h3.164v2.681H31.677v3.627H28.755V-4.982H25.582V-7.663h3.173v-3.525h2.922Z" transform="translate(-3216 -7402)" fill="#21456e"/>
    <path id="Trazado_655420" data-name="Trazado 655420" d="M-1.118-2.5H5.339V0H-5.181V-1.716l6.438-9.277H-5.219v-2.514H5.274v1.67Z" transform="translate(-3211 -7433)" fill="#21456e"/>
    <path id="Trazado_655426" data-name="Trazado 655426" d="M-1.118-2.5H5.339V0H-5.181V-1.716l6.438-9.277H-5.219v-2.514H5.274v1.67Z" transform="translate(-3172 -7402)" fill="#21456e"/>
    <path id="Trazado_655427" data-name="Trazado 655427" d="M4.847-4.945A6.053,6.053,0,0,1,3.794-1.211,3.376,3.376,0,0,1,.951.186,2.894,2.894,0,0,1-1.322-.826V3.859H-4.448v-13.9h2.922l.093.928A2.894,2.894,0,0,1,.932-10.224,3.4,3.4,0,0,1,3.818-8.855a6.128,6.128,0,0,1,1.03,3.762ZM1.721-5.14q0-2.672-1.559-2.672a1.471,1.471,0,0,0-1.484.8v3.952a1.519,1.519,0,0,0,1.5.835q1.494,0,1.54-2.579Z" transform="translate(-3169 -7433)" fill="#21456e"/>
    <path id="Trazado_655432" data-name="Trazado 655432" d="M4.847-4.945A6.053,6.053,0,0,1,3.794-1.211,3.376,3.376,0,0,1,.951.186,2.894,2.894,0,0,1-1.322-.826V3.859H-4.448v-13.9h2.922l.093.928A2.894,2.894,0,0,1,.932-10.224,3.4,3.4,0,0,1,3.818-8.855a6.128,6.128,0,0,1,1.03,3.762ZM1.721-5.14q0-2.672-1.559-2.672a1.471,1.471,0,0,0-1.484.8v3.952a1.519,1.519,0,0,0,1.5.835q1.494,0,1.54-2.579Z" transform="translate(-3130 -7402)" fill="#21456e"/>
    <path id="Trazado_655431" data-name="Trazado 655431" d="M-4.857-5.121A6.026,6.026,0,0,1-3.818-8.869,3.413,3.413,0,0,1-.951-10.224,2.915,2.915,0,0,1,1.517-8.962l.223-1.076H4.448v13.9H1.313V-.835A2.91,2.91,0,0,1-.969.186,3.383,3.383,0,0,1-3.8-1.192,6.362,6.362,0,0,1-4.857-5.121Zm3.126.195q0,2.7,1.559,2.7a1.509,1.509,0,0,0,1.484-.816V-7.014a1.477,1.477,0,0,0-1.466-.8q-1.457,0-1.568,2.329Z" transform="translate(-3137 -7433)" fill="#21456e"/>
    <path id="Trazado_655434" data-name="Trazado 655434" d="M-4.857-5.121A6.026,6.026,0,0,1-3.818-8.869,3.413,3.413,0,0,1-.951-10.224,2.915,2.915,0,0,1,1.517-8.962l.223-1.076H4.448v13.9H1.313V-.835A2.91,2.91,0,0,1-.969.186,3.383,3.383,0,0,1-3.8-1.192,6.362,6.362,0,0,1-4.857-5.121Zm3.126.195q0,2.7,1.559,2.7a1.509,1.509,0,0,0,1.484-.816V-7.014a1.477,1.477,0,0,0-1.466-.8q-1.457,0-1.568,2.329Z" transform="translate(-3098 -7402)" fill="#21456e"/>
    <path id="Trazado_655421" data-name="Trazado 655421" d="M2.25,0H-2.215V-.967L-.158-3.129A2.455,2.455,0,0,0,.6-4.5a.957.957,0,0,0-.18-.628A.643.643,0,0,0-.1-5.348.651.651,0,0,0-.65-5.06a1.183,1.183,0,0,0-.211.719H-2.347a2.1,2.1,0,0,1,.294-1.088,2.065,2.065,0,0,1,.817-.78A2.428,2.428,0,0,1-.066-6.491a2.389,2.389,0,0,1,1.6.479,1.71,1.71,0,0,1,.56,1.375,2,2,0,0,1-.141.736,3.228,3.228,0,0,1-.437.751A11.015,11.015,0,0,1,.558-2.1l-.826.954H2.25Z" transform="translate(-3199 -7440)" fill="#21456e"/>
    <path id="Trazado_655428" data-name="Trazado 655428" d="M2.25,0H-2.215V-.967L-.158-3.129A2.455,2.455,0,0,0,.6-4.5a.957.957,0,0,0-.18-.628A.643.643,0,0,0-.1-5.348.651.651,0,0,0-.65-5.06a1.183,1.183,0,0,0-.211.719H-2.347a2.1,2.1,0,0,1,.294-1.088,2.065,2.065,0,0,1,.817-.78A2.428,2.428,0,0,1-.066-6.491a2.389,2.389,0,0,1,1.6.479,1.71,1.71,0,0,1,.56,1.375,2,2,0,0,1-.141.736,3.228,3.228,0,0,1-.437.751A11.015,11.015,0,0,1,.558-2.1l-.826.954H2.25Z" transform="translate(-3160 -7409)" fill="#21456e"/>
    <path id="Trazado_655424" data-name="Trazado 655424" d="M2.25,0H-2.215V-.967L-.158-3.129A2.455,2.455,0,0,0,.6-4.5a.957.957,0,0,0-.18-.628A.643.643,0,0,0-.1-5.348.651.651,0,0,0-.65-5.06a1.183,1.183,0,0,0-.211.719H-2.347a2.1,2.1,0,0,1,.294-1.088,2.065,2.065,0,0,1,.817-.78A2.428,2.428,0,0,1-.066-6.491a2.389,2.389,0,0,1,1.6.479,1.71,1.71,0,0,1,.56,1.375,2,2,0,0,1-.141.736,3.228,3.228,0,0,1-.437.751A11.015,11.015,0,0,1,.558-2.1l-.826.954H2.25Z" transform="translate(-3274 -7407)" fill="#21456e"/>
    <path id="Trazado_655416" data-name="Trazado 655416" d="M-1.15-8.874l-3.024-.834.6-1.752,2.959,1.214-.232-3.262H1.141L.9-10.18l2.876-1.186.6,1.77-3.062.834L3.349-6.3l-1.6,1.095L.046-7.937-1.661-5.3l-1.6-1.048Z" transform="translate(-3225 -7430)" fill="#21456e"/>
    <path id="Trazado_655422" data-name="Trazado 655422" d="M-1.15-8.874l-3.024-.834.6-1.752,2.959,1.214-.232-3.262H1.141L.9-10.18l2.876-1.186.6,1.77-3.062.834L3.349-6.3l-1.6,1.095L.046-7.937-1.661-5.3l-1.6-1.048Z" transform="translate(-3261 -7400)" fill="#21456e"/>
    <path id="Trazado_655425" data-name="Trazado 655425" d="M-1.15-8.874l-3.024-.834.6-1.752,2.959,1.214-.232-3.262H1.141L.9-10.18l2.876-1.186.6,1.77-3.062.834L3.349-6.3l-1.6,1.095L.046-7.937-1.661-5.3l-1.6-1.048Z" transform="translate(-3185 -7430)" fill="#21456e"/>
    <path id="Trazado_655430" data-name="Trazado 655430" d="M-1.15-8.874l-3.024-.834.6-1.752,2.959,1.214-.232-3.262H1.141L.9-10.18l2.876-1.186.6,1.77-3.062.834L3.349-6.3l-1.6,1.095L.046-7.937-1.661-5.3l-1.6-1.048Z" transform="translate(-3146 -7399)" fill="#21456e"/>
    <path id="Trazado_655429" data-name="Trazado 655429" d="M-1.15-8.874l-3.024-.834.6-1.752,2.959,1.214-.232-3.262H1.141L.9-10.18l2.876-1.186.6,1.77-3.062.834L3.349-6.3l-1.6,1.095L.046-7.937-1.661-5.3l-1.6-1.048Z" transform="translate(-3153 -7430)" fill="#21456e"/>
    <path id="Trazado_655433" data-name="Trazado 655433" d="M-1.15-8.874l-3.024-.834.6-1.752,2.959,1.214-.232-3.262H1.141L.9-10.18l2.876-1.186.6,1.77-3.062.834L3.349-6.3l-1.6,1.095L.046-7.937-1.661-5.3l-1.6-1.048Z" transform="translate(-3114 -7399)" fill="#21456e"/>
    <path id="Trazado_655417" data-name="Trazado 655417" d="M4.217-6.7H-4.374V-9.11H4.217Zm0,4.073H-4.374V-5.038H4.217Z" transform="translate(-3304 -7416)" fill="#21456e"/>
    <path id="Trazado_655423" data-name="Trazado 655423" d="M0,0H205" transform="translate(-3291.5 -7422.5)" fill="none" stroke="#21456e" stroke-width="1"/>
    <path id="Trazado_655394" data-name="Trazado 655394" d="M-3196-7502.765s-.123,2.764-1.223,3.435a3.668,3.668,0,0,1-3.81,0c-.966-.751-.429-2.146,0-2.684a2.256,2.256,0,0,1,2.817-.187c.859.751,1.319,2.522,2.216,2.871s1.166.348,1.488.268" transform="translate(0 66)" fill="none" stroke="#21456e" stroke-linecap="round" stroke-width="1"/>
    <path id="Trazado_655395" data-name="Trazado 655395" d="M-3196-7502.765s-.123,2.764-1.223,3.435a3.668,3.668,0,0,1-3.81,0c-.966-.751-.429-2.146,0-2.684a2.256,2.256,0,0,1,2.817-.187c.859.751,1.319,2.522,2.216,2.871s1.166.348,1.488.268" transform="translate(39 97)" fill="none" stroke="#21456e" stroke-linecap="round" stroke-width="1"/>
  </g>
</svg>
