<svg xmlns="http://www.w3.org/2000/svg" width="472" height="77" viewBox="0 0 472 77">
  <g id="Grupo_962225" data-name="Grupo 962225" transform="translate(3442 7370)">
    <rect id="Rectángulo_340298" data-name="Rectángulo 340298" width="472" height="77" rx="11" transform="translate(-3442 -7370)" fill="#fff"/>
    <g id="Grupo_962217" data-name="Grupo 962217" transform="translate(-8 66)">
      <path id="Trazado_655437" data-name="Trazado 655437" d="M-11.484-5a3.536,3.536,0,0,1-1.082.867,2.936,2.936,0,0,1-1.379.328,3.031,3.031,0,0,1-1.715-.484,3.149,3.149,0,0,1-1.129-1.363,4.648,4.648,0,0,1-.4-1.941,4.735,4.735,0,0,1,.434-2.055,3.185,3.185,0,0,1,1.23-1.4,3.509,3.509,0,0,1,1.859-.484A3.177,3.177,0,0,1-11-10.27a5.5,5.5,0,0,1,.973,3.441v.422q0,3.32-1.312,4.848A5.043,5.043,0,0,1-15.3.008h-.281V-1.219h.3a3.979,3.979,0,0,0,2.75-.932A4,4,0,0,0-11.484-5Zm-2.227,0a2.232,2.232,0,0,0,1.34-.445,2.625,2.625,0,0,0,.895-1.1v-.578a3.977,3.977,0,0,0-.617-2.312,1.842,1.842,0,0,0-1.562-.891,1.856,1.856,0,0,0-1.531.73,3.013,3.013,0,0,0-.578,1.926,3.136,3.136,0,0,0,.559,1.918A1.769,1.769,0,0,0-13.711-5Zm12.8.148a6.61,6.61,0,0,1-.867,3.773A3.084,3.084,0,0,1-4.484.156a3.107,3.107,0,0,1-2.7-1.207,6.274,6.274,0,0,1-.906-3.605v-1.93a6.463,6.463,0,0,1,.867-3.727A3.108,3.108,0,0,1-4.5-11.531a3.136,3.136,0,0,1,2.7,1.176A6.237,6.237,0,0,1-.906-6.727ZM-2.352-6.828A5.3,5.3,0,0,0-2.867-9.5a1.775,1.775,0,0,0-1.633-.84,1.751,1.751,0,0,0-1.617.836,5.171,5.171,0,0,0-.523,2.57v2.313A5.381,5.381,0,0,0-6.105-1.9a1.771,1.771,0,0,0,1.621.879,1.747,1.747,0,0,0,1.59-.828,5.186,5.186,0,0,0,.543-2.609ZM8.078-4.852a6.61,6.61,0,0,1-.867,3.773A3.084,3.084,0,0,1,4.5.156,3.107,3.107,0,0,1,1.8-1.051,6.274,6.274,0,0,1,.9-4.656v-1.93a6.463,6.463,0,0,1,.867-3.727,3.108,3.108,0,0,1,2.719-1.219,3.136,3.136,0,0,1,2.7,1.176,6.237,6.237,0,0,1,.891,3.629ZM6.633-6.828A5.3,5.3,0,0,0,6.117-9.5a1.775,1.775,0,0,0-1.633-.84,1.751,1.751,0,0,0-1.617.836,5.171,5.171,0,0,0-.523,2.57v2.313A5.381,5.381,0,0,0,2.879-1.9,1.771,1.771,0,0,0,4.5-1.023a1.747,1.747,0,0,0,1.59-.828,5.186,5.186,0,0,0,.543-2.609Zm10.43,1.977A6.61,6.61,0,0,1,16.2-1.078,3.084,3.084,0,0,1,13.484.156a3.107,3.107,0,0,1-2.7-1.207,6.274,6.274,0,0,1-.906-3.605v-1.93a6.463,6.463,0,0,1,.867-3.727,3.108,3.108,0,0,1,2.719-1.219,3.136,3.136,0,0,1,2.7,1.176,6.237,6.237,0,0,1,.891,3.629ZM15.617-6.828A5.3,5.3,0,0,0,15.1-9.5a1.775,1.775,0,0,0-1.633-.84,1.751,1.751,0,0,0-1.617.836,5.171,5.171,0,0,0-.523,2.57v2.313A5.381,5.381,0,0,0,11.863-1.9a1.771,1.771,0,0,0,1.621.879,1.747,1.747,0,0,0,1.59-.828,5.186,5.186,0,0,0,.543-2.609Z" transform="translate(-3251 -7408)" fill="#12263f"/>
      <path id="Trazado_655438" data-name="Trazado 655438" d="M-38.016-4.617a12.079,12.079,0,0,1,.473-3.391,9.85,9.85,0,0,1,1.41-2.953,6,6,0,0,1,1.945-1.875l.3.953a6.222,6.222,0,0,0-1.871,2.672,11.583,11.583,0,0,0-.8,4.023l-.008.664a11.643,11.643,0,0,0,1.1,5.234,6.252,6.252,0,0,0,1.578,2.078l-.3.883a6.192,6.192,0,0,1-1.984-1.937A10.859,10.859,0,0,1-38.016-4.617ZM-27.891,0h-1.453V-9.633l-2.914,1.07V-9.875l4.141-1.555h.227Zm4.336,2.266-.82-.562a3.77,3.77,0,0,0,.766-2.109v-1.3H-22.2V-.578A3.559,3.559,0,0,1-22.582,1,3.7,3.7,0,0,1-23.555,2.266ZM-14.977-5a3.536,3.536,0,0,1-1.082.867,2.936,2.936,0,0,1-1.379.328,3.031,3.031,0,0,1-1.715-.484,3.149,3.149,0,0,1-1.129-1.363,4.648,4.648,0,0,1-.4-1.941,4.735,4.735,0,0,1,.434-2.055,3.185,3.185,0,0,1,1.23-1.4,3.509,3.509,0,0,1,1.859-.484A3.177,3.177,0,0,1-14.5-10.27a5.5,5.5,0,0,1,.973,3.441v.422q0,3.32-1.312,4.848A5.043,5.043,0,0,1-18.8.008h-.281V-1.219h.3a3.979,3.979,0,0,0,2.75-.932A4,4,0,0,0-14.977-5ZM-17.2-5a2.232,2.232,0,0,0,1.34-.445,2.625,2.625,0,0,0,.895-1.1v-.578a3.977,3.977,0,0,0-.617-2.312,1.842,1.842,0,0,0-1.562-.891,1.856,1.856,0,0,0-1.531.73,3.013,3.013,0,0,0-.578,1.926A3.136,3.136,0,0,0-18.7-5.754,1.769,1.769,0,0,0-17.2-5Zm11.344-6.383v1.227h-.266a3.805,3.805,0,0,0-2.687,1A4.161,4.161,0,0,0-9.969-6.43,3.085,3.085,0,0,1-7.516-7.461,2.95,2.95,0,0,1-5.145-6.414a4.038,4.038,0,0,1,.887,2.7A4.025,4.025,0,0,1-5.215-.9,3.3,3.3,0,0,1-7.781.156,3.247,3.247,0,0,1-10.43-1.1a4.97,4.97,0,0,1-1.016-3.23v-.555a7.488,7.488,0,0,1,1.34-4.8,4.921,4.921,0,0,1,3.988-1.7Zm-1.9,5.125a2.306,2.306,0,0,0-1.367.445A2.32,2.32,0,0,0-9.992-4.7v.531A3.731,3.731,0,0,0-9.359-1.9a1.9,1.9,0,0,0,1.578.859,1.838,1.838,0,0,0,1.535-.719,2.982,2.982,0,0,0,.559-1.883,2.983,2.983,0,0,0-.566-1.895A1.816,1.816,0,0,0-7.758-6.258ZM-.914-7.684l-2.359-.7.359-1.178,2.359.874-.07-2.685H.57L.492-8.651l2.32-.859.359,1.186-2.4.71L2.32-5.5l-.969.734L-.1-7.012l-1.406,2.2-.977-.711ZM9.094,0H7.641V-9.633L4.727-8.562V-9.875L8.867-11.43h.227ZM13.43,2.266l-.82-.562a3.77,3.77,0,0,0,.766-2.109v-1.3h1.414V-.578A3.559,3.559,0,0,1,14.4,1,3.7,3.7,0,0,1,13.43,2.266ZM22.008-5a3.536,3.536,0,0,1-1.082.867,2.936,2.936,0,0,1-1.379.328,3.031,3.031,0,0,1-1.715-.484A3.149,3.149,0,0,1,16.7-5.652a4.648,4.648,0,0,1-.4-1.941,4.735,4.735,0,0,1,.434-2.055,3.185,3.185,0,0,1,1.23-1.4,3.509,3.509,0,0,1,1.859-.484,3.177,3.177,0,0,1,2.66,1.262,5.5,5.5,0,0,1,.973,3.441v.422q0,3.32-1.312,4.848A5.043,5.043,0,0,1,18.188.008h-.281V-1.219h.3a3.979,3.979,0,0,0,2.75-.932A4,4,0,0,0,22.008-5ZM19.781-5a2.232,2.232,0,0,0,1.34-.445,2.625,2.625,0,0,0,.895-1.1v-.578A3.977,3.977,0,0,0,21.4-9.437a1.842,1.842,0,0,0-1.562-.891A1.856,1.856,0,0,0,18.3-9.6a3.013,3.013,0,0,0-.578,1.926,3.136,3.136,0,0,0,.559,1.918A1.769,1.769,0,0,0,19.781-5Zm11.344-6.383v1.227h-.266a3.805,3.805,0,0,0-2.687,1A4.161,4.161,0,0,0,27.016-6.43a3.085,3.085,0,0,1,2.453-1.031A2.95,2.95,0,0,1,31.84-6.414a4.038,4.038,0,0,1,.887,2.7A4.025,4.025,0,0,1,31.77-.9,3.3,3.3,0,0,1,29.2.156,3.247,3.247,0,0,1,26.555-1.1a4.97,4.97,0,0,1-1.016-3.23v-.555a7.488,7.488,0,0,1,1.34-4.8,4.921,4.921,0,0,1,3.988-1.7Zm-1.9,5.125a2.306,2.306,0,0,0-1.367.445A2.32,2.32,0,0,0,26.992-4.7v.531A3.731,3.731,0,0,0,27.625-1.9a1.9,1.9,0,0,0,1.578.859,1.838,1.838,0,0,0,1.535-.719A2.982,2.982,0,0,0,31.3-3.641a2.983,2.983,0,0,0-.566-1.895A1.816,1.816,0,0,0,29.227-6.258Zm8.7,1.719a12.084,12.084,0,0,1-.457,3.34,9.876,9.876,0,0,1-1.4,2.949,6.127,6.127,0,0,1-1.973,1.922l-.3-.883A6.281,6.281,0,0,0,35.723-.074a12.387,12.387,0,0,0,.746-4.309v-.25a12.861,12.861,0,0,0-.344-3.051,10.3,10.3,0,0,0-.957-2.527,5.838,5.838,0,0,0-1.379-1.742l.3-.883a6.1,6.1,0,0,1,1.965,1.906,9.9,9.9,0,0,1,1.4,2.945A12.363,12.363,0,0,1,37.922-4.539Z" transform="translate(-3182 -7408)" fill="#12263f"/>
      <path id="Trazado_655442" data-name="Trazado 655442" d="M-31.926-4.617a12.079,12.079,0,0,1,.473-3.391,9.85,9.85,0,0,1,1.41-2.953A6,6,0,0,1-28.1-12.836l.3.953a6.222,6.222,0,0,0-1.871,2.672,11.583,11.583,0,0,0-.8,4.023l-.008.664a11.643,11.643,0,0,0,1.1,5.234A6.252,6.252,0,0,0-27.8,2.789l-.3.883a6.192,6.192,0,0,1-1.984-1.937A10.859,10.859,0,0,1-31.926-4.617ZM-21.012-5a3.536,3.536,0,0,1-1.082.867,2.936,2.936,0,0,1-1.379.328,3.031,3.031,0,0,1-1.715-.484,3.149,3.149,0,0,1-1.129-1.363,4.648,4.648,0,0,1-.4-1.941,4.735,4.735,0,0,1,.434-2.055,3.185,3.185,0,0,1,1.23-1.4,3.509,3.509,0,0,1,1.859-.484,3.177,3.177,0,0,1,2.66,1.262,5.5,5.5,0,0,1,.973,3.441v.422q0,3.32-1.312,4.848A5.043,5.043,0,0,1-24.832.008h-.281V-1.219h.3a3.979,3.979,0,0,0,2.75-.932A4,4,0,0,0-21.012-5Zm-2.227,0a2.232,2.232,0,0,0,1.34-.445A2.625,2.625,0,0,0-21-6.547v-.578a3.977,3.977,0,0,0-.617-2.312,1.842,1.842,0,0,0-1.562-.891,1.856,1.856,0,0,0-1.531.73,3.013,3.013,0,0,0-.578,1.926,3.136,3.136,0,0,0,.559,1.918A1.769,1.769,0,0,0-23.238-5Zm12.8.148A6.61,6.61,0,0,1-11.3-1.078,3.084,3.084,0,0,1-14.012.156a3.107,3.107,0,0,1-2.7-1.207,6.274,6.274,0,0,1-.906-3.605v-1.93a6.463,6.463,0,0,1,.867-3.727,3.108,3.108,0,0,1,2.719-1.219,3.136,3.136,0,0,1,2.7,1.176,6.237,6.237,0,0,1,.891,3.629Zm-1.445-1.977A5.3,5.3,0,0,0-12.395-9.5a1.775,1.775,0,0,0-1.633-.84,1.751,1.751,0,0,0-1.617.836,5.171,5.171,0,0,0-.523,2.57v2.313A5.381,5.381,0,0,0-15.633-1.9a1.771,1.771,0,0,0,1.621.879,1.747,1.747,0,0,0,1.59-.828,5.186,5.186,0,0,0,.543-2.609Zm10.43,1.977a6.61,6.61,0,0,1-.867,3.773A3.084,3.084,0,0,1-5.027.156a3.107,3.107,0,0,1-2.7-1.207,6.274,6.274,0,0,1-.906-3.605v-1.93a6.463,6.463,0,0,1,.867-3.727,3.108,3.108,0,0,1,2.719-1.219,3.136,3.136,0,0,1,2.7,1.176,6.237,6.237,0,0,1,.891,3.629ZM-2.895-6.828A5.3,5.3,0,0,0-3.41-9.5a1.775,1.775,0,0,0-1.633-.84,1.751,1.751,0,0,0-1.617.836,5.171,5.171,0,0,0-.523,2.57v2.313A5.381,5.381,0,0,0-6.648-1.9a1.771,1.771,0,0,0,1.621.879,1.747,1.747,0,0,0,1.59-.828,5.186,5.186,0,0,0,.543-2.609ZM7.535-4.852a6.61,6.61,0,0,1-.867,3.773A3.084,3.084,0,0,1,3.957.156a3.107,3.107,0,0,1-2.7-1.207A6.274,6.274,0,0,1,.355-4.656v-1.93a6.463,6.463,0,0,1,.867-3.727,3.108,3.108,0,0,1,2.719-1.219,3.136,3.136,0,0,1,2.7,1.176,6.237,6.237,0,0,1,.891,3.629ZM6.09-6.828A5.3,5.3,0,0,0,5.574-9.5a1.775,1.775,0,0,0-1.633-.84,1.751,1.751,0,0,0-1.617.836A5.171,5.171,0,0,0,1.8-6.937v2.313A5.381,5.381,0,0,0,2.336-1.9a1.771,1.771,0,0,0,1.621.879,1.747,1.747,0,0,0,1.59-.828A5.186,5.186,0,0,0,6.09-4.461Zm6.453,2.586H8.73v-1.18h3.813ZM18.551,0H17.1V-9.633l-2.914,1.07V-9.875l4.141-1.555h.227ZM26.27-4.539a12.084,12.084,0,0,1-.457,3.34,9.876,9.876,0,0,1-1.4,2.949,6.127,6.127,0,0,1-1.973,1.922l-.3-.883A6.281,6.281,0,0,0,24.07-.074a12.387,12.387,0,0,0,.746-4.309v-.25a12.861,12.861,0,0,0-.344-3.051,10.3,10.3,0,0,0-.957-2.527,5.838,5.838,0,0,0-1.379-1.742l.3-.883a6.1,6.1,0,0,1,1.965,1.906,9.9,9.9,0,0,1,1.4,2.945A12.363,12.363,0,0,1,26.27-4.539Zm5.563,0a12.084,12.084,0,0,1-.457,3.34,9.876,9.876,0,0,1-1.4,2.949A6.127,6.127,0,0,1,28,3.672l-.3-.883A6.281,6.281,0,0,0,29.633-.074a12.387,12.387,0,0,0,.746-4.309v-.25a12.861,12.861,0,0,0-.344-3.051,10.3,10.3,0,0,0-.957-2.527A5.838,5.838,0,0,0,27.7-11.953l.3-.883a6.1,6.1,0,0,1,1.965,1.906,9.9,9.9,0,0,1,1.4,2.945A12.363,12.363,0,0,1,31.832-4.539Z" transform="translate(-3172 -7375)" fill="#12263f"/>
      <path id="Trazado_655443" data-name="Trazado 655443" d="M-75.082-4.617a12.079,12.079,0,0,1,.473-3.391,9.85,9.85,0,0,1,1.41-2.953,6,6,0,0,1,1.945-1.875l.3.953a6.222,6.222,0,0,0-1.871,2.672,11.583,11.583,0,0,0-.8,4.023l-.008.664a11.643,11.643,0,0,0,1.1,5.234,6.252,6.252,0,0,0,1.578,2.078l-.3.883a6.192,6.192,0,0,1-1.984-1.937A10.859,10.859,0,0,1-75.082-4.617Zm5.469,0a12.079,12.079,0,0,1,.473-3.391,9.85,9.85,0,0,1,1.41-2.953,6,6,0,0,1,1.945-1.875l.3.953a6.222,6.222,0,0,0-1.871,2.672,11.583,11.583,0,0,0-.8,4.023l-.008.664a11.643,11.643,0,0,0,1.1,5.234,6.252,6.252,0,0,0,1.578,2.078l-.3.883A6.192,6.192,0,0,1-67.77,1.734,10.859,10.859,0,0,1-69.613-4.617ZM-59.488,0h-1.453V-9.633l-2.914,1.07V-9.875l4.141-1.555h.227Zm4.336,2.266-.82-.562a3.77,3.77,0,0,0,.766-2.109v-1.3h1.414V-.578A3.559,3.559,0,0,1-54.18,1,3.7,3.7,0,0,1-55.152,2.266ZM-46.574-5a3.536,3.536,0,0,1-1.082.867,2.936,2.936,0,0,1-1.379.328,3.031,3.031,0,0,1-1.715-.484,3.149,3.149,0,0,1-1.129-1.363,4.648,4.648,0,0,1-.4-1.941,4.735,4.735,0,0,1,.434-2.055,3.185,3.185,0,0,1,1.23-1.4,3.509,3.509,0,0,1,1.859-.484,3.177,3.177,0,0,1,2.66,1.262,5.5,5.5,0,0,1,.973,3.441v.422q0,3.32-1.312,4.848A5.043,5.043,0,0,1-50.395.008h-.281V-1.219h.3a3.979,3.979,0,0,0,2.75-.932A4,4,0,0,0-46.574-5ZM-48.8-5a2.232,2.232,0,0,0,1.34-.445,2.625,2.625,0,0,0,.895-1.1v-.578a3.977,3.977,0,0,0-.617-2.312,1.842,1.842,0,0,0-1.562-.891,1.856,1.856,0,0,0-1.531.73,3.013,3.013,0,0,0-.578,1.926A3.136,3.136,0,0,0-50.3-5.754,1.769,1.769,0,0,0-48.8-5Zm11.344-6.383v1.227h-.266a3.805,3.805,0,0,0-2.687,1A4.161,4.161,0,0,0-41.566-6.43a3.085,3.085,0,0,1,2.453-1.031,2.95,2.95,0,0,1,2.371,1.047,4.038,4.038,0,0,1,.887,2.7A4.025,4.025,0,0,1-36.812-.9,3.3,3.3,0,0,1-39.379.156,3.247,3.247,0,0,1-42.027-1.1a4.97,4.97,0,0,1-1.016-3.23v-.555a7.488,7.488,0,0,1,1.34-4.8,4.921,4.921,0,0,1,3.988-1.7Zm-1.9,5.125a2.306,2.306,0,0,0-1.367.445A2.32,2.32,0,0,0-41.59-4.7v.531A3.731,3.731,0,0,0-40.957-1.9a1.9,1.9,0,0,0,1.578.859,1.838,1.838,0,0,0,1.535-.719,2.982,2.982,0,0,0,.559-1.883,2.983,2.983,0,0,0-.566-1.895A1.816,1.816,0,0,0-39.355-6.258Zm6.844-1.426-2.359-.7.359-1.178,2.359.874-.07-2.685h1.2l-.078,2.724,2.32-.859.359,1.186-2.4.71L-29.277-5.5l-.969.734L-31.7-7.012l-1.406,2.2-.977-.711ZM-22.5,0h-1.453V-9.633l-2.914,1.07V-9.875l4.141-1.555h.227Zm4.336,2.266-.82-.562a3.77,3.77,0,0,0,.766-2.109v-1.3h1.414V-.578A3.559,3.559,0,0,1-17.2,1,3.7,3.7,0,0,1-18.168,2.266ZM-9.59-5a3.536,3.536,0,0,1-1.082.867,2.936,2.936,0,0,1-1.379.328,3.031,3.031,0,0,1-1.715-.484,3.149,3.149,0,0,1-1.129-1.363,4.648,4.648,0,0,1-.4-1.941,4.735,4.735,0,0,1,.434-2.055,3.185,3.185,0,0,1,1.23-1.4,3.509,3.509,0,0,1,1.859-.484,3.177,3.177,0,0,1,2.66,1.262,5.5,5.5,0,0,1,.973,3.441v.422q0,3.32-1.312,4.848A5.043,5.043,0,0,1-13.41.008h-.281V-1.219h.3a3.979,3.979,0,0,0,2.75-.932A4,4,0,0,0-9.59-5Zm-2.227,0a2.232,2.232,0,0,0,1.34-.445,2.625,2.625,0,0,0,.895-1.1v-.578A3.977,3.977,0,0,0-10.2-9.437a1.842,1.842,0,0,0-1.562-.891,1.856,1.856,0,0,0-1.531.73,3.013,3.013,0,0,0-.578,1.926,3.136,3.136,0,0,0,.559,1.918A1.769,1.769,0,0,0-11.816-5ZM-.473-11.383v1.227H-.738a3.805,3.805,0,0,0-2.687,1A4.161,4.161,0,0,0-4.582-6.43,3.085,3.085,0,0,1-2.129-7.461,2.95,2.95,0,0,1,.242-6.414a4.038,4.038,0,0,1,.887,2.7A4.025,4.025,0,0,1,.172-.9,3.3,3.3,0,0,1-2.395.156,3.247,3.247,0,0,1-5.043-1.1a4.97,4.97,0,0,1-1.016-3.23v-.555a7.488,7.488,0,0,1,1.34-4.8,4.921,4.921,0,0,1,3.988-1.7Zm-1.9,5.125a2.306,2.306,0,0,0-1.367.445A2.32,2.32,0,0,0-4.605-4.7v.531A3.731,3.731,0,0,0-3.973-1.9a1.9,1.9,0,0,0,1.578.859A1.838,1.838,0,0,0-.859-1.758,2.982,2.982,0,0,0-.3-3.641,2.983,2.983,0,0,0-.867-5.535,1.816,1.816,0,0,0-2.371-6.258Zm8.7,1.719A12.084,12.084,0,0,1,5.867-1.2a9.876,9.876,0,0,1-1.4,2.949A6.127,6.127,0,0,1,2.5,3.672l-.3-.883A6.281,6.281,0,0,0,4.125-.074a12.387,12.387,0,0,0,.746-4.309v-.25a12.861,12.861,0,0,0-.344-3.051,10.3,10.3,0,0,0-.957-2.527,5.838,5.838,0,0,0-1.379-1.742l.3-.883A6.1,6.1,0,0,1,4.461-10.93a9.9,9.9,0,0,1,1.4,2.945A12.363,12.363,0,0,1,6.324-4.539Zm3.711-3.145-2.359-.7.359-1.178,2.359.874-.07-2.685h1.2l-.078,2.724,2.32-.859.359,1.186-2.4.71L13.27-5.5l-.969.734-1.453-2.25-1.406,2.2-.977-.711ZM22.426-4.852a6.61,6.61,0,0,1-.867,3.773A3.084,3.084,0,0,1,18.848.156a3.107,3.107,0,0,1-2.7-1.207,6.274,6.274,0,0,1-.906-3.605v-1.93a6.463,6.463,0,0,1,.867-3.727,3.108,3.108,0,0,1,2.719-1.219,3.136,3.136,0,0,1,2.7,1.176,6.237,6.237,0,0,1,.891,3.629ZM20.98-6.828A5.3,5.3,0,0,0,20.465-9.5a1.775,1.775,0,0,0-1.633-.84,1.751,1.751,0,0,0-1.617.836,5.171,5.171,0,0,0-.523,2.57v2.313A5.381,5.381,0,0,0,17.227-1.9a1.771,1.771,0,0,0,1.621.879,1.747,1.747,0,0,0,1.59-.828,5.186,5.186,0,0,0,.543-2.609Zm3.4,9.094-.82-.562a3.77,3.77,0,0,0,.766-2.109v-1.3h1.414V-.578A3.559,3.559,0,0,1,25.352,1,3.7,3.7,0,0,1,24.379,2.266Zm3.7-7.969.578-5.672h5.828v1.336h-4.6l-.344,3.1a3.671,3.671,0,0,1,1.9-.492A3.138,3.138,0,0,1,33.91-6.4a4.026,4.026,0,0,1,.914,2.777,3.886,3.886,0,0,1-.949,2.77A3.46,3.46,0,0,1,31.223.156,3.6,3.6,0,0,1,28.762-.68a3.337,3.337,0,0,1-1.086-2.312h1.367a2.3,2.3,0,0,0,.7,1.473,2.162,2.162,0,0,0,1.484.5A1.95,1.95,0,0,0,32.8-1.711a2.874,2.874,0,0,0,.574-1.9,2.638,2.638,0,0,0-.621-1.832,2.113,2.113,0,0,0-1.652-.691,2.383,2.383,0,0,0-1.484.414l-.383.313Zm9.953-1.98-2.359-.7.359-1.178,2.359.874-.07-2.685h1.2l-.078,2.724,2.32-.859.359,1.186-2.4.71L41.27-5.5l-.969.734-1.453-2.25-1.406,2.2-.977-.711Zm9.32,9.949-.82-.562A3.77,3.77,0,0,0,47.3-.406v-1.3h1.414V-.578A3.559,3.559,0,0,1,48.328,1,3.7,3.7,0,0,1,47.355,2.266ZM57.527-4.852a6.61,6.61,0,0,1-.867,3.773A3.084,3.084,0,0,1,53.949.156a3.107,3.107,0,0,1-2.7-1.207,6.274,6.274,0,0,1-.906-3.605v-1.93a6.463,6.463,0,0,1,.867-3.727,3.108,3.108,0,0,1,2.719-1.219,3.136,3.136,0,0,1,2.7,1.176,6.237,6.237,0,0,1,.891,3.629ZM56.082-6.828A5.3,5.3,0,0,0,55.566-9.5a1.775,1.775,0,0,0-1.633-.84,1.751,1.751,0,0,0-1.617.836,5.171,5.171,0,0,0-.523,2.57v2.313A5.381,5.381,0,0,0,52.328-1.9a1.771,1.771,0,0,0,1.621.879,1.747,1.747,0,0,0,1.59-.828,5.186,5.186,0,0,0,.543-2.609Zm3.4,9.094L58.66,1.7a3.77,3.77,0,0,0,.766-2.109v-1.3H60.84V-.578A3.559,3.559,0,0,1,60.453,1,3.7,3.7,0,0,1,59.48,2.266Zm3.7-7.969.578-5.672H69.59v1.336h-4.6l-.344,3.1a3.671,3.671,0,0,1,1.9-.492A3.138,3.138,0,0,1,69.012-6.4a4.026,4.026,0,0,1,.914,2.777,3.886,3.886,0,0,1-.949,2.77A3.46,3.46,0,0,1,66.324.156,3.6,3.6,0,0,1,63.863-.68a3.337,3.337,0,0,1-1.086-2.312h1.367a2.3,2.3,0,0,0,.7,1.473,2.162,2.162,0,0,0,1.484.5,1.95,1.95,0,0,0,1.582-.687,2.874,2.874,0,0,0,.574-1.9,2.638,2.638,0,0,0-.621-1.832,2.113,2.113,0,0,0-1.652-.691,2.383,2.383,0,0,0-1.484.414l-.383.313Zm11.8,1.164a12.084,12.084,0,0,1-.457,3.34,9.876,9.876,0,0,1-1.4,2.949A6.127,6.127,0,0,1,71.16,3.672l-.3-.883A6.281,6.281,0,0,0,72.789-.074a12.387,12.387,0,0,0,.746-4.309v-.25a12.861,12.861,0,0,0-.344-3.051,10.3,10.3,0,0,0-.957-2.527,5.838,5.838,0,0,0-1.379-1.742l.3-.883a6.1,6.1,0,0,1,1.965,1.906,9.9,9.9,0,0,1,1.4,2.945A12.363,12.363,0,0,1,74.988-4.539Z" transform="translate(-3048 -7375)" fill="#12263f"/>
      <path id="Trazado_655441" data-name="Trazado 655441" d="M-40.75-4.617a12.079,12.079,0,0,1,.473-3.391,9.85,9.85,0,0,1,1.41-2.953,6,6,0,0,1,1.945-1.875l.3.953A6.222,6.222,0,0,0-38.5-9.211a11.583,11.583,0,0,0-.8,4.023l-.008.664A11.643,11.643,0,0,0-38.2.711a6.252,6.252,0,0,0,1.578,2.078l-.3.883a6.192,6.192,0,0,1-1.984-1.937A10.859,10.859,0,0,1-40.75-4.617Zm5.469,0a12.079,12.079,0,0,1,.473-3.391,9.85,9.85,0,0,1,1.41-2.953,6,6,0,0,1,1.945-1.875l.3.953a6.222,6.222,0,0,0-1.871,2.672,11.583,11.583,0,0,0-.8,4.023l-.008.664a11.643,11.643,0,0,0,1.1,5.234,6.252,6.252,0,0,0,1.578,2.078l-.3.883a6.192,6.192,0,0,1-1.984-1.937A10.859,10.859,0,0,1-35.281-4.617Zm12.508-.234a6.61,6.61,0,0,1-.867,3.773A3.084,3.084,0,0,1-26.352.156a3.107,3.107,0,0,1-2.7-1.207,6.274,6.274,0,0,1-.906-3.605v-1.93a6.463,6.463,0,0,1,.867-3.727,3.108,3.108,0,0,1,2.719-1.219,3.136,3.136,0,0,1,2.7,1.176,6.237,6.237,0,0,1,.891,3.629Zm-1.445-1.977A5.3,5.3,0,0,0-24.734-9.5a1.775,1.775,0,0,0-1.633-.84,1.751,1.751,0,0,0-1.617.836,5.171,5.171,0,0,0-.523,2.57v2.313A5.381,5.381,0,0,0-27.973-1.9a1.771,1.771,0,0,0,1.621.879,1.747,1.747,0,0,0,1.59-.828,5.186,5.186,0,0,0,.543-2.609Zm3.4,9.094-.82-.562a3.77,3.77,0,0,0,.766-2.109v-1.3h1.414V-.578A3.559,3.559,0,0,1-19.848,1,3.7,3.7,0,0,1-20.82,2.266Zm10.172-7.117a6.61,6.61,0,0,1-.867,3.773A3.084,3.084,0,0,1-14.227.156a3.107,3.107,0,0,1-2.7-1.207,6.274,6.274,0,0,1-.906-3.605v-1.93a6.463,6.463,0,0,1,.867-3.727,3.108,3.108,0,0,1,2.719-1.219,3.136,3.136,0,0,1,2.7,1.176,6.237,6.237,0,0,1,.891,3.629Zm-1.445-1.977A5.3,5.3,0,0,0-12.609-9.5a1.775,1.775,0,0,0-1.633-.84,1.751,1.751,0,0,0-1.617.836,5.171,5.171,0,0,0-.523,2.57v2.313A5.381,5.381,0,0,0-15.848-1.9a1.771,1.771,0,0,0,1.621.879,1.747,1.747,0,0,0,1.59-.828,5.186,5.186,0,0,0,.543-2.609ZM-8.133-5.7l.578-5.672h5.828v1.336h-4.6l-.344,3.1a3.671,3.671,0,0,1,1.9-.492A3.138,3.138,0,0,1-2.3-6.4a4.026,4.026,0,0,1,.914,2.777A3.886,3.886,0,0,1-2.34-.855,3.46,3.46,0,0,1-4.992.156,3.6,3.6,0,0,1-7.453-.68,3.337,3.337,0,0,1-8.539-2.992h1.367a2.3,2.3,0,0,0,.7,1.473,2.162,2.162,0,0,0,1.484.5A1.95,1.95,0,0,0-3.41-1.711a2.874,2.874,0,0,0,.574-1.9,2.638,2.638,0,0,0-.621-1.832,2.113,2.113,0,0,0-1.652-.691,2.383,2.383,0,0,0-1.484.414l-.383.313ZM1.82-7.684l-2.359-.7L-.18-9.564,2.18-8.69l-.07-2.685H3.3L3.227-8.651l2.32-.859.359,1.186-2.4.71L5.055-5.5l-.969.734L2.633-7.012l-1.406,2.2L.25-5.527ZM14.211-4.852a6.61,6.61,0,0,1-.867,3.773A3.084,3.084,0,0,1,10.633.156a3.107,3.107,0,0,1-2.7-1.207,6.274,6.274,0,0,1-.906-3.605v-1.93A6.463,6.463,0,0,1,7.9-10.312a3.108,3.108,0,0,1,2.719-1.219,3.136,3.136,0,0,1,2.7,1.176,6.237,6.237,0,0,1,.891,3.629ZM12.766-6.828A5.3,5.3,0,0,0,12.25-9.5a1.775,1.775,0,0,0-1.633-.84A1.751,1.751,0,0,0,9-9.508a5.171,5.171,0,0,0-.523,2.57v2.313A5.381,5.381,0,0,0,9.012-1.9a1.771,1.771,0,0,0,1.621.879,1.747,1.747,0,0,0,1.59-.828,5.186,5.186,0,0,0,.543-2.609Zm3.4,9.094-.82-.562a3.77,3.77,0,0,0,.766-2.109v-1.3h1.414V-.578A3.559,3.559,0,0,1,17.137,1,3.7,3.7,0,0,1,16.164,2.266ZM26.336-4.852a6.61,6.61,0,0,1-.867,3.773A3.084,3.084,0,0,1,22.758.156a3.107,3.107,0,0,1-2.7-1.207,6.274,6.274,0,0,1-.906-3.605v-1.93a6.463,6.463,0,0,1,.867-3.727,3.108,3.108,0,0,1,2.719-1.219,3.136,3.136,0,0,1,2.7,1.176,6.237,6.237,0,0,1,.891,3.629ZM24.891-6.828A5.3,5.3,0,0,0,24.375-9.5a1.775,1.775,0,0,0-1.633-.84,1.751,1.751,0,0,0-1.617.836,5.171,5.171,0,0,0-.523,2.57v2.313A5.381,5.381,0,0,0,21.137-1.9a1.771,1.771,0,0,0,1.621.879,1.747,1.747,0,0,0,1.59-.828,5.186,5.186,0,0,0,.543-2.609ZM28.852-5.7l.578-5.672h5.828v1.336h-4.6l-.344,3.1a3.671,3.671,0,0,1,1.9-.492A3.138,3.138,0,0,1,34.68-6.4a4.026,4.026,0,0,1,.914,2.777,3.886,3.886,0,0,1-.949,2.77A3.46,3.46,0,0,1,31.992.156,3.6,3.6,0,0,1,29.531-.68a3.337,3.337,0,0,1-1.086-2.312h1.367a2.3,2.3,0,0,0,.7,1.473,2.162,2.162,0,0,0,1.484.5,1.95,1.95,0,0,0,1.582-.687,2.874,2.874,0,0,0,.574-1.9,2.638,2.638,0,0,0-.621-1.832,2.113,2.113,0,0,0-1.652-.691,2.383,2.383,0,0,0-1.484.414l-.383.313Zm11.8,1.164A12.084,12.084,0,0,1,40.2-1.2,9.876,9.876,0,0,1,38.8,1.75a6.127,6.127,0,0,1-1.973,1.922l-.3-.883A6.281,6.281,0,0,0,38.457-.074,12.387,12.387,0,0,0,39.2-4.383v-.25a12.861,12.861,0,0,0-.344-3.051,10.3,10.3,0,0,0-.957-2.527,5.838,5.838,0,0,0-1.379-1.742l.3-.883a6.1,6.1,0,0,1,1.965,1.906,9.9,9.9,0,0,1,1.4,2.945A12.363,12.363,0,0,1,40.656-4.539Z" transform="translate(-3262 -7375)" fill="#12263f"/>
      <path id="Trazado_655440" data-name="Trazado 655440" d="M-2.477-4.852a6.61,6.61,0,0,1-.867,3.773A3.084,3.084,0,0,1-6.055.156a3.107,3.107,0,0,1-2.7-1.207,6.274,6.274,0,0,1-.906-3.605v-1.93a6.463,6.463,0,0,1,.867-3.727A3.108,3.108,0,0,1-6.07-11.531a3.136,3.136,0,0,1,2.7,1.176,6.237,6.237,0,0,1,.891,3.629ZM-3.922-6.828A5.3,5.3,0,0,0-4.437-9.5a1.775,1.775,0,0,0-1.633-.84,1.751,1.751,0,0,0-1.617.836,5.171,5.171,0,0,0-.523,2.57v2.313A5.381,5.381,0,0,0-7.676-1.9a1.771,1.771,0,0,0,1.621.879,1.747,1.747,0,0,0,1.59-.828,5.186,5.186,0,0,0,.543-2.609Zm3.4,9.094-.82-.562A3.77,3.77,0,0,0-.578-.406v-1.3H.836V-.578A3.559,3.559,0,0,1,.449,1,3.7,3.7,0,0,1-.523,2.266ZM3.18-5.7l.578-5.672H9.586v1.336h-4.6l-.344,3.1a3.671,3.671,0,0,1,1.9-.492A3.138,3.138,0,0,1,9.008-6.4a4.026,4.026,0,0,1,.914,2.777,3.886,3.886,0,0,1-.949,2.77A3.46,3.46,0,0,1,6.32.156,3.6,3.6,0,0,1,3.859-.68,3.337,3.337,0,0,1,2.773-2.992H4.141a2.3,2.3,0,0,0,.7,1.473,2.162,2.162,0,0,0,1.484.5A1.95,1.95,0,0,0,7.9-1.711a2.874,2.874,0,0,0,.574-1.9,2.638,2.638,0,0,0-.621-1.832A2.113,2.113,0,0,0,6.2-6.133a2.383,2.383,0,0,0-1.484.414l-.383.313Z" transform="translate(-3120 -7408)" fill="#12263f"/>
      <path id="Trazado_655439" data-name="Trazado 655439" d="M-2.477-4.852a6.61,6.61,0,0,1-.867,3.773A3.084,3.084,0,0,1-6.055.156a3.107,3.107,0,0,1-2.7-1.207,6.274,6.274,0,0,1-.906-3.605v-1.93a6.463,6.463,0,0,1,.867-3.727A3.108,3.108,0,0,1-6.07-11.531a3.136,3.136,0,0,1,2.7,1.176,6.237,6.237,0,0,1,.891,3.629ZM-3.922-6.828A5.3,5.3,0,0,0-4.437-9.5a1.775,1.775,0,0,0-1.633-.84,1.751,1.751,0,0,0-1.617.836,5.171,5.171,0,0,0-.523,2.57v2.313A5.381,5.381,0,0,0-7.676-1.9a1.771,1.771,0,0,0,1.621.879,1.747,1.747,0,0,0,1.59-.828,5.186,5.186,0,0,0,.543-2.609Zm3.4,9.094-.82-.562A3.77,3.77,0,0,0-.578-.406v-1.3H.836V-.578A3.559,3.559,0,0,1,.449,1,3.7,3.7,0,0,1-.523,2.266ZM3.18-5.7l.578-5.672H9.586v1.336h-4.6l-.344,3.1a3.671,3.671,0,0,1,1.9-.492A3.138,3.138,0,0,1,9.008-6.4a4.026,4.026,0,0,1,.914,2.777,3.886,3.886,0,0,1-.949,2.77A3.46,3.46,0,0,1,6.32.156,3.6,3.6,0,0,1,3.859-.68,3.337,3.337,0,0,1,2.773-2.992H4.141a2.3,2.3,0,0,0,.7,1.473,2.162,2.162,0,0,0,1.484.5A1.95,1.95,0,0,0,7.9-1.711a2.874,2.874,0,0,0,.574-1.9,2.638,2.638,0,0,0-.621-1.832A2.113,2.113,0,0,0,6.2-6.133a2.383,2.383,0,0,0-1.484.414l-.383.313Z" transform="translate(-3086 -7408)" fill="#12263f"/>
      <path id="Trazado_655446" data-name="Trazado 655446" d="M-.867-7.684l-2.359-.7.359-1.178,2.359.874-.07-2.685h1.2L.539-8.651l2.32-.859.359,1.186-2.4.71L2.367-5.5,1.4-4.762-.055-7.012l-1.406,2.2-.977-.711Z" transform="translate(-3226 -7408)" fill="#12263f"/>
      <path id="Trazado_655447" data-name="Trazado 655447" d="M-.867-7.684l-2.359-.7.359-1.178,2.359.874-.07-2.685h1.2L.539-8.651l2.32-.859.359,1.186-2.4.71L2.367-5.5,1.4-4.762-.055-7.012l-1.406,2.2-.977-.711Z" transform="translate(-3212 -7375)" fill="#12263f"/>
      <path id="Trazado_655444" data-name="Trazado 655444" d="M-.867-7.684l-2.359-.7.359-1.178,2.359.874-.07-2.685h1.2L.539-8.651l2.32-.859.359,1.186-2.4.71L2.367-5.5,1.4-4.762-.055-7.012l-1.406,2.2-.977-.711Z" transform="translate(-3138 -7408)" fill="#12263f"/>
      <path id="Trazado_655445" data-name="Trazado 655445" d="M.7-6.1H3.871v1.367H.7v3.594H-.754V-4.734H-3.926V-6.1H-.754v-3.32H.7Z" transform="translate(-3130 -7375)" fill="#12263f"/>
      <text id="_" data-name="*" transform="translate(-3103 -7408)" fill="#12263f" font-size="16" font-family="Roboto-Regular, Roboto"><tspan x="-3.445" y="0">*</tspan></text>
      <line id="Línea_175" data-name="Línea 175" x2="316" transform="translate(-3304 -7399.5)" fill="none" stroke="#2c6ec4" stroke-width="4"/>
      <path id="Trazado_655435" data-name="Trazado 655435" d="M-34.375,0h-1.508l-5.727-8.766V0h-1.508V-11.375h1.508l5.742,8.8v-8.8h1.492Zm7.656-.836A3.07,3.07,0,0,1-29.2.156a2.628,2.628,0,0,1-2.059-.785,3.4,3.4,0,0,1-.715-2.324v-5.5h1.445v5.461q0,1.922,1.563,1.922a2.163,2.163,0,0,0,2.2-1.234V-8.453h1.445V0h-1.375Zm4.961-7.617.039.938a3.122,3.122,0,0,1,2.508-1.094A2.417,2.417,0,0,1-16.8-7.25a3.2,3.2,0,0,1,1.1-.984,3.242,3.242,0,0,1,1.6-.375q2.781,0,2.828,2.945V0h-1.445V-5.578a1.941,1.941,0,0,0-.414-1.355,1.823,1.823,0,0,0-1.391-.449,1.916,1.916,0,0,0-1.336.48,1.949,1.949,0,0,0-.617,1.293V0H-17.93V-5.539a1.613,1.613,0,0,0-1.8-1.844A1.934,1.934,0,0,0-21.68-6.172V0h-1.445V-8.453ZM-5.586.156a3.693,3.693,0,0,1-2.8-1.129,4.19,4.19,0,0,1-1.078-3.02v-.266A5.073,5.073,0,0,1-8.98-6.5,3.748,3.748,0,0,1-7.637-8.051a3.378,3.378,0,0,1,1.871-.559A3.166,3.166,0,0,1-3.2-7.523a4.7,4.7,0,0,1,.914,3.109v.6H-8.016a3,3,0,0,0,.73,2.02,2.3,2.3,0,0,0,1.777.77,2.517,2.517,0,0,0,1.3-.312,3.259,3.259,0,0,0,.93-.828l.883.688A3.55,3.55,0,0,1-5.586.156Zm-.18-7.578a1.928,1.928,0,0,0-1.469.637A3.1,3.1,0,0,0-7.969-5h4.234v-.109a2.753,2.753,0,0,0-.594-1.707A1.815,1.815,0,0,0-5.766-7.422Zm9.234.266a4.331,4.331,0,0,0-.711-.055A1.9,1.9,0,0,0,.828-6V0H-.617V-8.453H.789l.023.977A2.251,2.251,0,0,1,2.828-8.609a1.477,1.477,0,0,1,.641.109ZM9.7,0a3.036,3.036,0,0,1-.2-.891A3.225,3.225,0,0,1,7.094.156,2.984,2.984,0,0,1,5.043-.551a2.287,2.287,0,0,1-.8-1.793,2.39,2.39,0,0,1,1-2.051,4.733,4.733,0,0,1,2.824-.73H9.477v-.664A1.623,1.623,0,0,0,9.023-7a1.821,1.821,0,0,0-1.336-.449,2.107,2.107,0,0,0-1.3.391,1.151,1.151,0,0,0-.523.945H4.414a2,2,0,0,1,.449-1.223,3.066,3.066,0,0,1,1.219-.934,4.1,4.1,0,0,1,1.691-.344,3.342,3.342,0,0,1,2.289.73,2.635,2.635,0,0,1,.859,2.012v3.891a4.757,4.757,0,0,0,.3,1.852V0ZM7.3-1.1a2.54,2.54,0,0,0,1.289-.352,2.127,2.127,0,0,0,.883-.914V-4.1H8.344q-2.656,0-2.656,1.555a1.316,1.316,0,0,0,.453,1.063A1.742,1.742,0,0,0,7.3-1.1Zm5.531-3.2a4.952,4.952,0,0,1,.922-3.129,2.915,2.915,0,0,1,2.414-1.184,2.932,2.932,0,0,1,2.352,1.016V-12h1.445V0H18.641l-.07-.906A2.943,2.943,0,0,1,16.156.156a2.887,2.887,0,0,1-2.395-1.2,5.008,5.008,0,0,1-.926-3.141Zm1.445.164a3.749,3.749,0,0,0,.594,2.25,1.92,1.92,0,0,0,1.641.813A2.108,2.108,0,0,0,18.523-2.3V-6.187a2.125,2.125,0,0,0-1.992-1.2,1.929,1.929,0,0,0-1.656.82A4.128,4.128,0,0,0,14.281-4.133ZM21.828-4.3a4.993,4.993,0,0,1,.488-2.234A3.643,3.643,0,0,1,23.676-8.07a3.7,3.7,0,0,1,1.988-.539,3.565,3.565,0,0,1,2.793,1.2,4.6,4.6,0,0,1,1.066,3.18v.1a5.036,5.036,0,0,1-.473,2.215A3.589,3.589,0,0,1,27.7-.391a3.743,3.743,0,0,1-2.02.547,3.556,3.556,0,0,1-2.785-1.2A4.575,4.575,0,0,1,21.828-4.2Zm1.453.172a3.616,3.616,0,0,0,.652,2.258,2.088,2.088,0,0,0,1.746.852,2.075,2.075,0,0,0,1.75-.863A3.955,3.955,0,0,0,28.078-4.3a3.61,3.61,0,0,0-.66-2.254,2.1,2.1,0,0,0-1.754-.863,2.075,2.075,0,0,0-1.727.852A3.925,3.925,0,0,0,23.281-4.133ZM35.422-7.156a4.331,4.331,0,0,0-.711-.055A1.9,1.9,0,0,0,32.781-6V0H31.336V-8.453h1.406l.023.977a2.251,2.251,0,0,1,2.016-1.133,1.477,1.477,0,0,1,.641.109Zm7.938.8H36.844V-7.617h6.516Zm0,3.242H36.844v-1.25h6.516Z" transform="translate(-3375 -7407)" fill="#12263f"/>
      <path id="Trazado_655436" data-name="Trazado 655436" d="M-51.031,0V-11.375h3.211a5.169,5.169,0,0,1,2.625.656,4.438,4.438,0,0,1,1.762,1.867A6.078,6.078,0,0,1-42.8-6.07v.727a6.1,6.1,0,0,1-.621,2.82A4.369,4.369,0,0,1-45.2-.664,5.5,5.5,0,0,1-47.883,0Zm1.5-10.148v8.922h1.578a3.434,3.434,0,0,0,2.7-1.079,4.458,4.458,0,0,0,.965-3.073v-.665a4.529,4.529,0,0,0-.91-3.014,3.239,3.239,0,0,0-2.582-1.091ZM-37.258.156a3.693,3.693,0,0,1-2.8-1.129,4.19,4.19,0,0,1-1.078-3.02v-.266a5.073,5.073,0,0,1,.48-2.246,3.748,3.748,0,0,1,1.344-1.547,3.378,3.378,0,0,1,1.871-.559,3.166,3.166,0,0,1,2.563,1.086,4.7,4.7,0,0,1,.914,3.109v.6h-5.727a3,3,0,0,0,.73,2.02,2.3,2.3,0,0,0,1.777.77,2.517,2.517,0,0,0,1.3-.312,3.259,3.259,0,0,0,.93-.828l.883.688A3.55,3.55,0,0,1-37.258.156Zm-.18-7.578a1.928,1.928,0,0,0-1.469.637A3.1,3.1,0,0,0-39.641-5h4.234v-.109A2.753,2.753,0,0,0-36-6.816,1.815,1.815,0,0,0-37.437-7.422Zm6.516-1.031.047,1.063a3.08,3.08,0,0,1,2.531-1.219q2.68,0,2.7,3.023V0h-1.445V-5.594A1.946,1.946,0,0,0-27.5-6.945a1.675,1.675,0,0,0-1.277-.437,2.086,2.086,0,0,0-1.234.375,2.546,2.546,0,0,0-.828.984V0h-1.445V-8.453ZM-23.844-4.3a4.993,4.993,0,0,1,.488-2.234A3.643,3.643,0,0,1-22-8.07a3.7,3.7,0,0,1,1.988-.539,3.565,3.565,0,0,1,2.793,1.2,4.6,4.6,0,0,1,1.066,3.18v.1a5.036,5.036,0,0,1-.473,2.215A3.589,3.589,0,0,1-17.973-.391a3.743,3.743,0,0,1-2.02.547,3.556,3.556,0,0,1-2.785-1.2A4.575,4.575,0,0,1-23.844-4.2Zm1.453.172a3.616,3.616,0,0,0,.652,2.258,2.088,2.088,0,0,0,1.746.852,2.075,2.075,0,0,0,1.75-.863A3.955,3.955,0,0,0-17.594-4.3a3.61,3.61,0,0,0-.66-2.254,2.1,2.1,0,0,0-1.754-.863,2.075,2.075,0,0,0-1.727.852A3.925,3.925,0,0,0-22.391-4.133Zm9.414-4.32.039.938A3.122,3.122,0,0,1-10.43-8.609,2.417,2.417,0,0,1-8.016-7.25a3.2,3.2,0,0,1,1.1-.984,3.242,3.242,0,0,1,1.6-.375q2.781,0,2.828,2.945V0H-3.937V-5.578a1.941,1.941,0,0,0-.414-1.355,1.823,1.823,0,0,0-1.391-.449,1.916,1.916,0,0,0-1.336.48A1.949,1.949,0,0,0-7.7-5.609V0H-9.148V-5.539a1.613,1.613,0,0,0-1.8-1.844A1.934,1.934,0,0,0-12.9-6.172V0h-1.445V-8.453ZM1.258,0H-.187V-8.453H1.258ZM-.3-10.7a.863.863,0,0,1,.215-.594.807.807,0,0,1,.637-.242.819.819,0,0,1,.641.242.854.854,0,0,1,.219.594.826.826,0,0,1-.219.586.834.834,0,0,1-.641.234.821.821,0,0,1-.637-.234A.834.834,0,0,1-.3-10.7ZM4.938-8.453l.047,1.063A3.08,3.08,0,0,1,7.516-8.609q2.68,0,2.7,3.023V0H8.773V-5.594a1.946,1.946,0,0,0-.418-1.352,1.675,1.675,0,0,0-1.277-.437,2.086,2.086,0,0,0-1.234.375,2.546,2.546,0,0,0-.828.984V0H3.57V-8.453ZM17.617,0a3.036,3.036,0,0,1-.2-.891A3.225,3.225,0,0,1,15.008.156a2.984,2.984,0,0,1-2.051-.707,2.287,2.287,0,0,1-.8-1.793,2.39,2.39,0,0,1,1-2.051,4.733,4.733,0,0,1,2.824-.73h1.406v-.664A1.623,1.623,0,0,0,16.938-7,1.821,1.821,0,0,0,15.6-7.445a2.107,2.107,0,0,0-1.3.391,1.151,1.151,0,0,0-.523.945H12.328a2,2,0,0,1,.449-1.223A3.066,3.066,0,0,1,14-8.266a4.1,4.1,0,0,1,1.691-.344,3.342,3.342,0,0,1,2.289.73,2.635,2.635,0,0,1,.859,2.012v3.891a4.757,4.757,0,0,0,.3,1.852V0Zm-2.4-1.1a2.54,2.54,0,0,0,1.289-.352,2.127,2.127,0,0,0,.883-.914V-4.1H16.258Q13.6-4.1,13.6-2.547a1.316,1.316,0,0,0,.453,1.063A1.742,1.742,0,0,0,15.219-1.1ZM20.75-4.3a4.952,4.952,0,0,1,.922-3.129,2.915,2.915,0,0,1,2.414-1.184,2.932,2.932,0,0,1,2.352,1.016V-12h1.445V0H26.555l-.07-.906A2.943,2.943,0,0,1,24.07.156a2.887,2.887,0,0,1-2.395-1.2,5.008,5.008,0,0,1-.926-3.141Zm1.445.164a3.749,3.749,0,0,0,.594,2.25,1.92,1.92,0,0,0,1.641.813A2.108,2.108,0,0,0,26.438-2.3V-6.187a2.125,2.125,0,0,0-1.992-1.2,1.929,1.929,0,0,0-1.656.82A4.128,4.128,0,0,0,22.2-4.133ZM29.742-4.3a4.993,4.993,0,0,1,.488-2.234A3.643,3.643,0,0,1,31.59-8.07a3.7,3.7,0,0,1,1.988-.539,3.565,3.565,0,0,1,2.793,1.2,4.6,4.6,0,0,1,1.066,3.18v.1a5.036,5.036,0,0,1-.473,2.215A3.589,3.589,0,0,1,35.613-.391a3.743,3.743,0,0,1-2.02.547,3.556,3.556,0,0,1-2.785-1.2A4.575,4.575,0,0,1,29.742-4.2Zm1.453.172a3.616,3.616,0,0,0,.652,2.258,2.088,2.088,0,0,0,1.746.852,2.075,2.075,0,0,0,1.75-.863A3.955,3.955,0,0,0,35.992-4.3a3.61,3.61,0,0,0-.66-2.254,2.1,2.1,0,0,0-1.754-.863,2.075,2.075,0,0,0-1.727.852A3.925,3.925,0,0,0,31.2-4.133ZM43.336-7.156a4.331,4.331,0,0,0-.711-.055A1.9,1.9,0,0,0,40.7-6V0H39.25V-8.453h1.406l.023.977A2.251,2.251,0,0,1,42.7-8.609a1.477,1.477,0,0,1,.641.109Zm7.938.8H44.758V-7.617h6.516Zm0,3.242H44.758v-1.25h6.516Z" transform="translate(-3370 -7375)" fill="#12263f"/>
    </g>
  </g>
</svg>
