<svg xmlns="http://www.w3.org/2000/svg" width="204" height="77" viewBox="0 0 204 77">
  <g id="Grupo_962227" data-name="Grupo 962227" transform="translate(2552 7498)">
    <path id="Trazado_655450" data-name="Trazado 655450" d="M11,0H193a11,11,0,0,1,11,11V66a11,11,0,0,1-11,11H11A11,11,0,0,1,0,66V11A11,11,0,0,1,11,0Z" transform="translate(-2552 -7498)" fill="#fff"/>
    <path id="Trazado_655451" data-name="Trazado 655451" d="M-1.61-10.038l.1,1.178a3.4,3.4,0,0,1,2.867-1.364A2.864,2.864,0,0,1,3.7-9.287a4.461,4.461,0,0,1,.8,2.82V0H1.368V-6.336a1.694,1.694,0,0,0-.306-1.118A1.416,1.416,0,0,0-.051-7.812a1.491,1.491,0,0,0-1.364.724V0H-4.541V-10.038Z" transform="translate(-2536 -7451)" fill="#21456e"/>
    <path id="Trazado_655452" data-name="Trazado 655452" d="M4.217-6.7H-4.374V-9.11H4.217Zm0,4.073H-4.374V-5.038H4.217Z" transform="translate(-2518 -7450)" fill="#21456e"/>
    <path id="Trazado_655453" data-name="Trazado 655453" d="M0,0H136.5" transform="translate(-2497 -7454.839)" fill="none" stroke="#21456e" stroke-width="1"/>
    <path id="Trazado_655454" data-name="Trazado 655454" d="M-1.294-2.9H6.182V0H-6V-1.987L1.456-12.729h-7.5v-2.911H6.107v1.934Z" transform="translate(-2471 -7467)" fill="#21456e"/>
    <path id="Trazado_655455" data-name="Trazado 655455" d="M4.847-4.945A6.053,6.053,0,0,1,3.794-1.211,3.376,3.376,0,0,1,.951.186,2.894,2.894,0,0,1-1.322-.826V3.859H-4.448v-13.9h2.922l.093.928A2.894,2.894,0,0,1,.932-10.224,3.4,3.4,0,0,1,3.818-8.855a6.128,6.128,0,0,1,1.03,3.762ZM1.721-5.14q0-2.672-1.559-2.672a1.471,1.471,0,0,0-1.484.8v3.952a1.519,1.519,0,0,0,1.5.835q1.494,0,1.54-2.579Z" transform="translate(-2424 -7470)" fill="#21456e"/>
    <path id="Trazado_655461" data-name="Trazado 655461" d="M-4.857-5.121A6.026,6.026,0,0,1-3.818-8.869,3.413,3.413,0,0,1-.951-10.224,2.915,2.915,0,0,1,1.517-8.962l.223-1.076H4.448v13.9H1.313V-.835A2.91,2.91,0,0,1-.969.186,3.383,3.383,0,0,1-3.8-1.192,6.362,6.362,0,0,1-4.857-5.121Zm3.126.195q0,2.7,1.559,2.7a1.509,1.509,0,0,0,1.484-.816V-7.014a1.477,1.477,0,0,0-1.466-.8q-1.457,0-1.568,2.329Z" transform="translate(-2387 -7470)" fill="#21456e"/>
    <path id="Trazado_655456" data-name="Trazado 655456" d="M2.5,0H-2.461V-1.074l2.285-2.4A2.727,2.727,0,0,0,.669-5a1.063,1.063,0,0,0-.2-.7.715.715,0,0,0-.581-.239.724.724,0,0,0-.61.32,1.314,1.314,0,0,0-.234.8h-1.65A2.335,2.335,0,0,1-2.28-6.033,2.294,2.294,0,0,1-1.372-6.9a2.7,2.7,0,0,1,1.3-.312A2.654,2.654,0,0,1,1.7-6.68a1.9,1.9,0,0,1,.623,1.528,2.219,2.219,0,0,1-.156.818,3.587,3.587,0,0,1-.486.835A12.238,12.238,0,0,1,.62-2.329L-.3-1.27H2.5Z" transform="translate(-2458 -7475)" fill="#21456e"/>
    <path id="Trazado_655459" data-name="Trazado 655459" d="M2.5,0H-2.461V-1.074l2.285-2.4A2.727,2.727,0,0,0,.669-5a1.063,1.063,0,0,0-.2-.7.715.715,0,0,0-.581-.239.724.724,0,0,0-.61.32,1.314,1.314,0,0,0-.234.8h-1.65A2.335,2.335,0,0,1-2.28-6.033,2.294,2.294,0,0,1-1.372-6.9a2.7,2.7,0,0,1,1.3-.312A2.654,2.654,0,0,1,1.7-6.68a1.9,1.9,0,0,1,.623,1.528,2.219,2.219,0,0,1-.156.818,3.587,3.587,0,0,1-.486.835A12.238,12.238,0,0,1,.62-2.329L-.3-1.27H2.5Z" transform="translate(-2418 -7438)" fill="#21456e"/>
    <path id="Trazado_655457" data-name="Trazado 655457" d="M-1.15-8.874l-3.024-.834.6-1.752,2.959,1.214-.232-3.262H1.141L.9-10.18l2.876-1.186.6,1.77-3.062.834L3.349-6.3l-1.6,1.095L.046-7.937-1.661-5.3l-1.6-1.048Z" transform="translate(-2442 -7467)" fill="#21456e"/>
    <path id="Trazado_655458" data-name="Trazado 655458" d="M.561.186A5.16,5.16,0,0,1-3.177-1.192,4.757,4.757,0,0,1-4.606-4.778v-.26a6.165,6.165,0,0,1,.571-2.718A4.175,4.175,0,0,1-2.37-9.579a5.027,5.027,0,0,1,2.6-.645,4.345,4.345,0,0,1,3.34,1.313,5.159,5.159,0,0,1,1.225,3.66v1.215H-1.424A2.253,2.253,0,0,0-.691-2.709a2.181,2.181,0,0,0,1.466.482A2.81,2.81,0,0,0,3.094-3.266L4.523-1.577A3.994,3.994,0,0,1,2.867-.292,5.6,5.6,0,0,1,.561.186Zm-.353-8q-1.373,0-1.633,1.818H1.73v-.241A1.549,1.549,0,0,0,1.35-7.4,1.514,1.514,0,0,0,.209-7.812Z" transform="translate(-2430 -7430)" fill="#21456e"/>
    <path id="Trazado_655460" data-name="Trazado 655460" d="M-1.15-8.874l-3.024-.834.6-1.752,2.959,1.214-.232-3.262H1.141L.9-10.18l2.876-1.186.6,1.77-3.062.834L3.349-6.3l-1.6,1.095L.046-7.937-1.661-5.3l-1.6-1.048Z" transform="translate(-2405 -7467)" fill="#21456e"/>
    <path id="Trazado_655396" data-name="Trazado 655396" d="M-3195.184-7502.765s-.141,3.169-1.4,3.938a4.205,4.205,0,0,1-4.368,0c-1.108-.861-.492-2.461,0-3.076a2.585,2.585,0,0,1,3.23-.215c.984.86,1.511,2.892,2.54,3.291s1.336.4,1.705.308" transform="translate(741.258 31.376)" fill="none" stroke="#21456e" stroke-linecap="round" stroke-width="1"/>
  </g>
</svg>
