<svg xmlns="http://www.w3.org/2000/svg" width="164" height="164" viewBox="0 0 164 164">
  <g id="Grupo_941744" data-name="Grupo 941744" transform="translate(-377 -1857)">
    <g id="Grupo_81380" data-name="Grupo 81380" transform="translate(197.186 575.265)">
      <g id="Grupo_930456" data-name="Grupo 930456" transform="translate(195.146 1283.954)">
        <circle id="Elipse_7667" data-name="Elipse 7667" cx="65.203" cy="65.203" r="65.203" transform="translate(0 14.578)" fill="#ff3c00"/>
        <g id="muestreo" transform="translate(13.204 27.68)">
          <g id="Grupo_954707" data-name="Grupo 954707" transform="translate(1.521 1.651)">
            <path id="Trazado_637671" data-name="Trazado 637671" d="M17.612,384.515,7.757,394.37v11.473a2.378,2.378,0,0,0,2.378,2.378H21.608l9.855-9.855a2.734,2.734,0,0,0,0-3.866l-9.985-9.985A2.734,2.734,0,0,0,17.612,384.515Z" transform="translate(-7.702 -307.32)" fill="#8ebac5"/>
            <path id="Trazado_637672" data-name="Trazado 637672" d="M63.673,398.368l-9.854,9.856H48.178l9.854-9.856a2.732,2.732,0,0,0,0-3.866l-9.1-9.1.886-.888a2.738,2.738,0,0,1,3.868,0l9.984,9.986A2.732,2.732,0,0,1,63.673,398.368Z" transform="translate(-39.913 -307.322)" fill="#7ca1b1"/>
            <path id="Trazado_637673" data-name="Trazado 637673" d="M12.207,16.527a4.45,4.45,0,1,1,4.45-4.45A4.449,4.449,0,0,1,12.207,16.527Z" transform="translate(-7.702 -7.627)" fill="#99e6fc"/>
            <path id="Trazado_637674" data-name="Trazado 637674" d="M25.383,12.075a4.448,4.448,0,0,1-6.675,3.851,4.388,4.388,0,0,0,.922-.7,4.448,4.448,0,0,0-.922-7,4.45,4.45,0,0,1,6.675,3.853Z" transform="translate(-16.429 -7.624)" fill="#62dbfb"/>
            <path id="Trazado_637675" data-name="Trazado 637675" d="M166.262,20.858h-6.591a1.207,1.207,0,0,1-1.029-1.837l3.3-5.381a1.207,1.207,0,0,1,2.058,0l3.3,5.381A1.207,1.207,0,0,1,166.262,20.858Z" transform="translate(-127.795 -11.958)" fill="#6ed5a1"/>
            <path id="Trazado_637676" data-name="Trazado 637676" d="M316.731,16.527h-5.152a1.873,1.873,0,0,1-1.874-1.873V9.5a1.873,1.873,0,0,1,1.874-1.873h5.152A1.873,1.873,0,0,1,318.6,9.5v5.152A1.873,1.873,0,0,1,316.731,16.527Z" transform="translate(-248.316 -7.627)" fill="#fb5f7a"/>
            <path id="Trazado_637677" data-name="Trazado 637677" d="M328.711,9.5V14.65a1.874,1.874,0,0,1-1.875,1.873h-4.448a1.873,1.873,0,0,0,1.873-1.873V9.5a1.874,1.874,0,0,0-1.873-1.875h4.448A1.874,1.874,0,0,1,328.711,9.5Z" transform="translate(-258.423 -7.624)" fill="#f74455"/>
            <path id="Trazado_637678" data-name="Trazado 637678" d="M469.049,22.7h-6.016A1.207,1.207,0,0,1,462,20.862l3.008-4.912a1.207,1.207,0,0,1,2.058,0l3.008,4.912A1.207,1.207,0,0,1,469.049,22.7Z" transform="translate(-369.536 -13.799)" fill="#6ed5a1"/>
            <path id="Trazado_637679" data-name="Trazado 637679" d="M7.668,170l3.3-5.381a1.207,1.207,0,0,1,2.058,0l3.3,5.381a1.207,1.207,0,0,1-1.029,1.837H8.7A1.207,1.207,0,0,1,7.668,170Z" transform="translate(-7.488 -132.265)" fill="#6ed5a1"/>
            <path id="Trazado_637680" data-name="Trazado 637680" d="M7.757,316.6v-5.152a1.873,1.873,0,0,1,1.873-1.873h5.152a1.873,1.873,0,0,1,1.873,1.873V316.6a1.873,1.873,0,0,1-1.873,1.874H9.63A1.873,1.873,0,0,1,7.757,316.6Z" transform="translate(-7.702 -248.241)" fill="#fb5f7a"/>
            <path id="Trazado_637681" data-name="Trazado 637681" d="M26.761,311.447V316.6a1.873,1.873,0,0,1-1.873,1.873H20.438a1.873,1.873,0,0,0,1.873-1.873v-5.153a1.873,1.873,0,0,0-1.873-1.873h4.451A1.873,1.873,0,0,1,26.761,311.447Z" transform="translate(-17.808 -248.239)" fill="#f74455"/>
            <path id="Trazado_637682" data-name="Trazado 637682" d="M158.642,471.943l3.3-5.381a1.207,1.207,0,0,1,2.058,0l3.3,5.381a1.207,1.207,0,0,1-1.029,1.837h-6.591A1.207,1.207,0,0,1,158.642,471.943Z" transform="translate(-127.795 -372.879)" fill="#6ed5a1"/>
            <path id="Trazado_637683" data-name="Trazado 637683" d="M309.705,467.576v-5.152a1.873,1.873,0,0,1,1.874-1.873h5.152a1.873,1.873,0,0,1,1.873,1.873v5.152a1.873,1.873,0,0,1-1.873,1.873h-5.152A1.873,1.873,0,0,1,309.705,467.576Z" transform="translate(-248.316 -368.548)" fill="#fb5f7a"/>
            <path id="Trazado_637684" data-name="Trazado 637684" d="M328.711,462.427v5.151a1.874,1.874,0,0,1-1.875,1.875h-4.448a1.874,1.874,0,0,0,1.873-1.875v-5.151a1.873,1.873,0,0,0-1.873-1.873h4.448A1.874,1.874,0,0,1,328.711,462.427Z" transform="translate(-258.423 -368.551)" fill="#f74455"/>
            <path id="Trazado_637685" data-name="Trazado 637685" d="M460.679,165.628v-5.152a1.873,1.873,0,0,1,1.873-1.873H467.7a1.873,1.873,0,0,1,1.874,1.873v5.152A1.873,1.873,0,0,1,467.7,167.5h-5.152A1.873,1.873,0,0,1,460.679,165.628Z" transform="translate(-368.623 -127.934)" fill="#fb5f7a"/>
            <path id="Trazado_637686" data-name="Trazado 637686" d="M479.681,160.477v5.153a1.873,1.873,0,0,1-1.873,1.873h-4.451a1.874,1.874,0,0,0,1.875-1.873v-5.153a1.874,1.874,0,0,0-1.875-1.873h4.451A1.873,1.873,0,0,1,479.681,160.477Z" transform="translate(-378.727 -127.936)" fill="#f74455"/>
            <path id="Trazado_637687" data-name="Trazado 637687" d="M460.679,316.6v-5.152a1.873,1.873,0,0,1,1.873-1.873H467.7a1.873,1.873,0,0,1,1.874,1.873V316.6a1.873,1.873,0,0,1-1.874,1.874h-5.152A1.874,1.874,0,0,1,460.679,316.6Z" transform="translate(-368.623 -248.241)" fill="#fb5f7a"/>
            <path id="Trazado_637688" data-name="Trazado 637688" d="M479.681,311.447V316.6a1.873,1.873,0,0,1-1.873,1.873h-4.451a1.874,1.874,0,0,0,1.875-1.873v-5.153a1.874,1.874,0,0,0-1.875-1.873h4.451A1.873,1.873,0,0,1,479.681,311.447Z" transform="translate(-378.727 -248.239)" fill="#f74455"/>
            <path id="Trazado_637689" data-name="Trazado 637689" d="M460.679,465a4.45,4.45,0,1,1,4.45,4.45A4.449,4.449,0,0,1,460.679,465Z" transform="translate(-368.623 -368.548)" fill="#99e6fc"/>
            <path id="Trazado_637690" data-name="Trazado 637690" d="M478.311,465a4.447,4.447,0,0,1-6.673,3.853,4.449,4.449,0,0,0,.92-7,4.377,4.377,0,0,0-.92-.7A4.448,4.448,0,0,1,478.311,465Z" transform="translate(-377.356 -368.551)" fill="#62dbfb"/>
            <path id="Trazado_637691" data-name="Trazado 637691" d="M0,0H11.684V13.859H0Z" transform="translate(24.435 68.241) rotate(45)" fill="#eaf6ff"/>
            <path id="Trazado_637692" data-name="Trazado 637692" d="M118.894,373.114l-9.8,9.8-2.828-2.828,9.777-9.821Z" transform="translate(-86.203 -296.602)" fill="#c8effe"/>
            <circle id="Elipse_7835" data-name="Elipse 7835" cx="34.595" cy="34.595" r="34.595" transform="translate(15.91 15.856)" fill="#8ebac5"/>
            <path id="Trazado_637693" data-name="Trazado 637693" d="M269.249,144.745a34.507,34.507,0,0,1-27.351,10.01,34.595,34.595,0,0,0,0-68.946,34.594,34.594,0,0,1,27.351,58.936Z" transform="translate(-194.283 -69.832)" fill="#7ca1b1"/>
            <path id="Trazado_637694" data-name="Trazado 637694" d="M166.6,159.7a28.773,28.773,0,1,1,2.314-29.545A28.818,28.818,0,0,1,166.6,159.7Z" transform="translate(-92.622 -92.548)" fill="#eaf6ff"/>
            <path id="Trazado_637695" data-name="Trazado 637695" d="M268.246,159.694a28.779,28.779,0,0,1-26.362,11.962,28.8,28.8,0,0,0-.006-57.319,28.8,28.8,0,0,1,26.368,45.357Z" transform="translate(-194.267 -92.546)" fill="#c8effe"/>
            <path id="Trazado_637696" data-name="Trazado 637696" d="M149.233,134.866v12.44a4.523,4.523,0,0,1-4.522,4.524h-12.44a4.524,4.524,0,0,1-4.524-4.524v-3.687a28.944,28.944,0,0,1,12.71-13.274h4.253A4.521,4.521,0,0,1,149.233,134.866Z" transform="translate(-103.32 -105.416)" fill="#fb5f7a"/>
            <path id="Trazado_637697" data-name="Trazado 637697" d="M193.34,134.866v12.44a4.523,4.523,0,0,1-4.522,4.524H183.1a4.523,4.523,0,0,0,4.522-4.524v-12.44a4.524,4.524,0,0,0-3.346-4.367c.1-.053.193-.1.29-.154h4.254A4.521,4.521,0,0,1,193.34,134.866Z" transform="translate(-147.427 -105.416)" fill="#f74455"/>
            <path id="Trazado_637698" data-name="Trazado 637698" d="M150.364,289.338a10.751,10.751,0,0,1-8.257,10.453,28.952,28.952,0,0,1-12.939-12.939,10.744,10.744,0,0,1,21.2,2.486Z" transform="translate(-104.451 -223.552)" fill="#99e6fc"/>
            <path id="Trazado_637699" data-name="Trazado 637699" d="M180.159,289.337A10.751,10.751,0,0,1,171.9,299.79q-1.255-.625-2.458-1.379a10.745,10.745,0,0,0-2.886-19.431,10.744,10.744,0,0,1,13.6,10.357Z" transform="translate(-134.246 -223.552)" fill="#62dbfb"/>
            <path id="Trazado_637700" data-name="Trazado 637700" d="M299.926,141.983a10.736,10.736,0,0,1-2.858,5.111q-.375.375-.784.713a10.743,10.743,0,1,1-9.3-18.763,28.961,28.961,0,0,1,12.937,12.939Z" transform="translate(-223.632 -104.38)" fill="#99e6fc"/>
            <path id="Trazado_637701" data-name="Trazado 637701" d="M319.377,141.983a10.735,10.735,0,0,1-2.858,5.111q-.375.375-.784.713a28.64,28.64,0,0,0-7.571-13.344,28.871,28.871,0,0,0-5.025-4.018,10.667,10.667,0,0,1,3.3-1.4,28.962,28.962,0,0,1,12.937,12.939Z" transform="translate(-243.084 -104.38)" fill="#62dbfb"/>
            <path id="Trazado_637702" data-name="Trazado 637702" d="M297.606,296.378a29.045,29.045,0,0,1-8.527,7.932h-7.473a2.879,2.879,0,0,1-2.456-4.381l7.861-12.836a2.88,2.88,0,0,1,4.91,0l2.7,4.4Z" transform="translate(-223.627 -229.23)" fill="#6ed5a1"/>
            <path id="Trazado_637703" data-name="Trazado 637703" d="M315.516,319.037a29.047,29.047,0,0,1-8.527,7.932H301.2a29.045,29.045,0,0,0,8.527-7.932,28.452,28.452,0,0,0,2.8-4.883Z" transform="translate(-241.537 -251.889)" fill="#46cc8d"/>
          </g>
          <g id="Grupo_954708" data-name="Grupo 954708" transform="translate(0 0.128)">
            <path id="Trazado_637704" data-name="Trazado 637704" d="M80.452,94.224A1.524,1.524,0,0,0,80,96.332a33.136,33.136,0,1,1-4.387-5.415,1.523,1.523,0,0,0,2.155-2.154,36.125,36.125,0,0,0-55.763,45.333l-5.662,5.662a4.25,4.25,0,0,0-5.787.212L.7,149.823a1.523,1.523,0,0,0,2.154,2.154l9.855-9.855a1.21,1.21,0,0,1,1.712,0l9.985,9.985a1.21,1.21,0,0,1,0,1.712l-9.855,9.855a1.523,1.523,0,1,0,2.154,2.154l9.855-9.855a4.249,4.249,0,0,0,.2-5.8l5.659-5.658A36.128,36.128,0,0,0,88.17,117.9a36.234,36.234,0,0,0-5.611-23.231A1.524,1.524,0,0,0,80.452,94.224ZM24.618,148.008,18.511,141.9l5.3-5.3a37.418,37.418,0,0,0,6.106,6.109Z" transform="translate(-0.205 -62.328)"/>
            <path id="Trazado_637705" data-name="Trazado 637705" d="M6.231,12.074A5.973,5.973,0,1,0,.258,6.1a5.98,5.98,0,0,0,5.973,5.973Zm0-8.9A2.926,2.926,0,1,1,3.3,6.1,2.929,2.929,0,0,1,6.231,3.175Z" transform="translate(-0.206 -0.128)"/>
            <path id="Trazado_637706" data-name="Trazado 637706" d="M153.7,16.406h6.591a2.73,2.73,0,0,0,2.328-4.156l-3.3-5.381a2.73,2.73,0,0,0-4.657,0l-3.3,5.381a2.73,2.73,0,0,0,2.329,4.156ZM157,8.9l2.73,4.458h-5.46Z" transform="translate(-120.306 -4.46)"/>
            <path id="Trazado_637707" data-name="Trazado 637707" d="M305.6,12.074h5.152a3.4,3.4,0,0,0,3.4-3.4V3.525a3.4,3.4,0,0,0-3.4-3.4H305.6a3.4,3.4,0,0,0-3.4,3.4V8.677A3.4,3.4,0,0,0,305.6,12.074Zm-.35-8.549a.35.35,0,0,1,.35-.35h5.152a.35.35,0,0,1,.35.35V8.677a.35.35,0,0,1-.35.35H305.6a.35.35,0,0,1-.35-.35Z" transform="translate(-240.819 -0.128)"/>
            <path id="Trazado_637708" data-name="Trazado 637708" d="M457.065,18.247h6.016a2.73,2.73,0,0,0,2.328-4.156L462.4,9.178a2.712,2.712,0,0,0-2.328-1.3h0a2.712,2.712,0,0,0-2.329,1.3l-3.008,4.912a2.73,2.73,0,0,0,2.329,4.156Zm3.008-7.036,2.443,3.989H457.63Z" transform="translate(-362.047 -6.301)"/>
            <path id="Trazado_637709" data-name="Trazado 637709" d="M2.73,167.38H9.32a2.73,2.73,0,0,0,2.328-4.156l-3.3-5.381a2.73,2.73,0,0,0-4.657,0L.4,163.224A2.73,2.73,0,0,0,2.73,167.38Zm3.3-7.505,2.73,4.458H3.295Z" transform="translate(0 -124.767)"/>
            <path id="Trazado_637710" data-name="Trazado 637710" d="M8.806,302.076H3.654a3.4,3.4,0,0,0-3.4,3.4v5.152a3.4,3.4,0,0,0,3.4,3.4H8.806a3.4,3.4,0,0,0,3.4-3.4v-5.152A3.4,3.4,0,0,0,8.806,302.076Zm.35,8.549a.35.35,0,0,1-.35.35H3.654a.35.35,0,0,1-.35-.35v-5.152a.35.35,0,0,1,.35-.35H8.806a.35.35,0,0,1,.35.35Z" transform="translate(-0.205 -240.742)"/>
            <path id="Trazado_637711" data-name="Trazado 637711" d="M159.328,459.79a2.73,2.73,0,0,0-4.657,0l-3.3,5.381a2.73,2.73,0,0,0,2.328,4.156H160.3a2.73,2.73,0,0,0,2.328-4.156Zm-5.059,6.491,2.73-4.458,2.73,4.458Z" transform="translate(-120.308 -365.38)"/>
            <path id="Trazado_637712" data-name="Trazado 637712" d="M310.754,453.05H305.6a3.4,3.4,0,0,0-3.4,3.4V461.6a3.4,3.4,0,0,0,3.4,3.4h5.152a3.4,3.4,0,0,0,3.4-3.4v-5.152A3.4,3.4,0,0,0,310.754,453.05Zm.35,8.549a.35.35,0,0,1-.35.35H305.6a.35.35,0,0,1-.35-.35v-5.152a.35.35,0,0,1,.35-.35h5.152a.35.35,0,0,1,.35.35Z" transform="translate(-240.819 -361.049)"/>
            <path id="Trazado_637713" data-name="Trazado 637713" d="M461.728,151.1h-5.152a3.4,3.4,0,0,0-3.4,3.4v5.152a3.4,3.4,0,0,0,3.4,3.4h5.152a3.4,3.4,0,0,0,3.4-3.4V154.5A3.4,3.4,0,0,0,461.728,151.1Zm.35,8.549a.35.35,0,0,1-.35.35h-5.152a.35.35,0,0,1-.35-.35V154.5a.35.35,0,0,1,.35-.35h5.152a.35.35,0,0,1,.35.35Z" transform="translate(-361.125 -120.436)"/>
            <path id="Trazado_637714" data-name="Trazado 637714" d="M461.728,302.076h-5.152a3.4,3.4,0,0,0-3.4,3.4v5.152a3.4,3.4,0,0,0,3.4,3.4h5.152a3.4,3.4,0,0,0,3.4-3.4v-5.152A3.4,3.4,0,0,0,461.728,302.076Zm.35,8.549a.35.35,0,0,1-.35.35h-5.152a.35.35,0,0,1-.35-.35v-5.152a.35.35,0,0,1,.35-.35h5.152a.35.35,0,0,1,.35.35Z" transform="translate(-361.125 -240.742)"/>
            <path id="Trazado_637715" data-name="Trazado 637715" d="M459.152,453.05a5.973,5.973,0,1,0,5.973,5.973A5.98,5.98,0,0,0,459.152,453.05Zm0,8.9a2.926,2.926,0,1,1,2.926-2.926A2.929,2.929,0,0,1,459.152,461.949Z" transform="translate(-361.125 -361.049)"/>
            <path id="Trazado_637716" data-name="Trazado 637716" d="M124.476,161.185q-.9-.474-1.773-1.015a1.523,1.523,0,1,0-1.616,2.583,30.351,30.351,0,0,0,37.509-4.286,30.327,30.327,0,1,0-43.292-.411,1.523,1.523,0,0,0,2.194-2.114,27.329,27.329,0,0,1-4.511-6.237,9.22,9.22,0,1,1,11.489,11.48Zm31.965-4.872a27.566,27.566,0,0,1-4.763,3.816h-7.053a1.355,1.355,0,0,1-1.155-2.062l7.86-12.835a1.355,1.355,0,0,1,2.311,0l5.149,8.409A27.731,27.731,0,0,1,156.441,156.313Zm4.875-31.974a9.22,9.22,0,1,1-11.481-11.481,27.544,27.544,0,0,1,11.481,11.481Zm-27.233,28.018a12.272,12.272,0,0,0-22.728-6.42,27.538,27.538,0,0,1-.94-14.366,6.048,6.048,0,0,0,5.183,2.936h2.338a1.523,1.523,0,1,0,0-3.047H115.6a3,3,0,0,1-3-3v-3.352a27.511,27.511,0,0,1,11.561-12.086h3.878a3,3,0,0,1,3,3v12.439a3,3,0,0,1-3,3h-2.954a1.523,1.523,0,0,0,0,3.047h2.954a6.053,6.053,0,0,0,6.047-6.047V116.022a6.053,6.053,0,0,0-3.506-5.485,27.55,27.55,0,0,1,15.488.691,12.273,12.273,0,1,0,16.882,16.882,27.406,27.406,0,0,1-2.28,22.761l-4.428-7.231a4.4,4.4,0,0,0-7.508,0l-7.86,12.835a4.457,4.457,0,0,0,4.082,6.7,27.807,27.807,0,0,1-16.7-.365A12.219,12.219,0,0,0,134.083,152.356Z" transform="translate(-85.125 -85.049)"/>
          </g>
        </g>
      </g>
      <rect id="Rectángulo_305736" data-name="Rectángulo 305736" width="164" height="164" transform="translate(179.814 1281.735)" fill="none"/>
    </g>
  </g>
</svg>
