<svg xmlns="http://www.w3.org/2000/svg" width="164" height="164" viewBox="0 0 164 164">
  <g id="Grupo_959319" data-name="Grupo 959319" transform="translate(-377 -1857)">
    <g id="Grupo_81380" data-name="Grupo 81380" transform="translate(197.186 575.265)">
      <g id="Grupo_930456" data-name="Grupo 930456" transform="translate(195.146 1283.954)">
        <circle id="Elipse_7667" data-name="Elipse 7667" cx="65.203" cy="65.203" r="65.203" transform="translate(0 14.578)" fill="#ff3c00"/>
        <g id="confiar" transform="translate(13.029 24.609)">
          <g id="Grupo_959333" data-name="Grupo 959333" transform="translate(1.852 1.561)">
            <g id="Grupo_959332" data-name="Grupo 959332">
              <path id="Trazado_654432" data-name="Trazado 654432" d="M142.772,291.816l-4.158-2.763-9.2-3.347L111.6,299.812l5.715,10.227c.076.044.152.089.228.133l4.746,2.763,22.6-16.058Z" transform="translate(-89.991 -227.798)" fill="#ffe0d1"/>
              <g id="Grupo_959331" data-name="Grupo 959331" transform="translate(0 36.631)">
                <path id="Trazado_654433" data-name="Trazado 654433" d="M122,357.607a27.473,27.473,0,0,1-7.64-6.555l-.889-1.107-.835-.409-1.035.82,5.715,10.227c.076.044.152.09.228.133l4.746,2.763,4.412-3.134Z" transform="translate(-89.991 -314.973)" fill="#ffd1c2"/>
                <path id="Trazado_654434" data-name="Trazado 654434" d="M224.029,197.248a.826.826,0,0,0-1.242-.707l-25.754,15.016a2.261,2.261,0,0,1-1.834.171l-3.659-1.245a21.181,21.181,0,0,0-14.36.266l-.089.035-7.1,9.24L153.61,234.892l-1.682,1.488a4.211,4.211,0,0,0-1.124,4.456,3.947,3.947,0,0,0,.753,1.291,4.079,4.079,0,0,0,4.914.953,4.086,4.086,0,0,0,.119,5.424,4.282,4.282,0,0,0,5.88.106l.048-.044a4.079,4.079,0,0,0,.092,5.456,4.275,4.275,0,0,0,5.878.106l.169-.154a4.078,4.078,0,0,0,.125,5.416,4.279,4.279,0,0,0,5.878.106l1.649-1.459,11.261-8.306a2.084,2.084,0,0,1,3.344-2.467l3.13-2.309a2.51,2.51,0,0,1,3.885-2.866l4.305-3.176a17.271,17.271,0,0,0,7.169-5.834l1.105-1.557,13.268-6.482a.825.825,0,0,0,.463-.748Z" transform="translate(-120.854 -193.734)" fill="#ffe0d1"/>
                <path id="Trazado_654435" data-name="Trazado 654435" d="M224.029,197.248a.826.826,0,0,0-1.242-.707l-25.754,15.016a2.261,2.261,0,0,1-1.834.171l-3.659-1.245a21.181,21.181,0,0,0-14.36.266l-.09.035-7.1,9.24-18.065,16.356a4.211,4.211,0,0,0-1.124,4.456,3.947,3.947,0,0,0,.754,1.291,4.079,4.079,0,0,0,4.914.953,4.086,4.086,0,0,0,.119,5.424,4.282,4.282,0,0,0,5.88.106l.048-.044a4.079,4.079,0,0,0,.092,5.456,4.275,4.275,0,0,0,5.878.106l.169-.154a4.078,4.078,0,0,0,.125,5.416,4.279,4.279,0,0,0,5.878.106l1.649-1.459.463-.342v-.954a4.283,4.283,0,0,1-4.615-.905,4.066,4.066,0,0,1-1.093-2.777c0-.06,0-.123.009-.187a1.141,1.141,0,0,0-1.322-1.248,4.26,4.26,0,0,1-3.766-1.156,4.079,4.079,0,0,1-1.05-3.366,1.328,1.328,0,0,0-1.482-1.515c-1.266.172-2.708.142-3.488-.637a4.068,4.068,0,0,1-1.091-2.777,4.118,4.118,0,0,1,.05-.64,1.369,1.369,0,0,0-1.231-1.58,2.71,2.71,0,0,1-.89-.28,1.786,1.786,0,0,1-.408-2.934l14.425-13.091,7.1-9.24.09-.035a21.181,21.181,0,0,1,14.36-.266l3.659,1.245a2.261,2.261,0,0,0,1.834-.171l25.754-15.016a.815.815,0,0,1,.436-.113Z" transform="translate(-120.854 -193.734)" fill="#ffd1c2"/>
                <path id="Trazado_654436" data-name="Trazado 654436" d="M247.714,273.306a7.255,7.255,0,0,0-2.106-5.127l-7.478-7.572a21.172,21.172,0,0,0-3.315.964l-.09.035-7.1,9.24-4.27,3.875,6.859.3,5.982,4.239a7.257,7.257,0,0,0,4.218,1.343h0a7.334,7.334,0,0,0,4.5-1.556A7.259,7.259,0,0,0,247.714,273.306Z" transform="translate(-178.489 -244.555)" fill="#ffd1c2"/>
                <path id="Trazado_654437" data-name="Trazado 654437" d="M72.69,209.305l-8.661-8.767a20.088,20.088,0,0,0-17.534-5.709l-10.349,1.69L8.481,183.533a.483.483,0,0,0-.689.438v27.968a.483.483,0,0,0,.271.434l18.523,9.061.889,1.107a27.477,27.477,0,0,0,7.64,6.555l1.221-6.435L51.649,210.5l8.924.376,6.734,4.772a4.174,4.174,0,0,0,5.382-6.34Z" transform="translate(-7.792 -183.487)" fill="#ffe0d1"/>
                <path id="Trazado_654438" data-name="Trazado 654438" d="M32.158,219.566a6.355,6.355,0,0,0-2.164-1.731l-16.231-7.94a2.3,2.3,0,0,1-1.287-2.063V185.408l-3.995-1.875a.483.483,0,0,0-.689.438v27.968a.483.483,0,0,0,.271.434l18.523,9.061.889,1.107a27.477,27.477,0,0,0,7.64,6.555l1.042-5.5a27.493,27.493,0,0,1-4-4.034Z" transform="translate(-7.792 -183.487)" fill="#ffd1c2"/>
              </g>
              <path id="Trazado_654439" data-name="Trazado 654439" d="M185.1,48.158l-4.321,1.585a2.012,2.012,0,0,1-1.386,0l-4.321-1.585a22.663,22.663,0,0,1-14.86-21.277V13.312a2.333,2.333,0,0,1,1.887-2.29L180.181,7.5l17.894,3.519a2.333,2.333,0,0,1,1.883,2.289V26.881A22.663,22.663,0,0,1,185.1,48.158Z" transform="translate(-128.484 -7.5)" fill="#b3e5ee"/>
              <path id="Trazado_654440" data-name="Trazado 654440" d="M183.271,58.775c-10.684-3.544-17.787-12.744-17.787-23.038V21.25l-3.389.66a2.333,2.333,0,0,0-1.887,2.29V37.769a22.663,22.663,0,0,0,14.86,21.277l4.321,1.585a2.012,2.012,0,0,0,1.386,0l3.842-1.409Z" transform="translate(-128.483 -18.388)" fill="#86d7e5"/>
              <path id="Trazado_654441" data-name="Trazado 654441" d="M200.975,66.5a16.476,16.476,0,0,1-10.766-15.415V41.875a1.376,1.376,0,0,1,1.113-1.35l12.609-2.456,12.428,2.444a1.375,1.375,0,0,1,1.11,1.35v9.224A16.418,16.418,0,0,1,206.7,66.5l-2.864,1.05Z" transform="translate(-152.24 -31.706)" fill="#f9f7f7"/>
            </g>
            <path id="Trazado_654442" data-name="Trazado 654442" d="M275.849,364.455a17.268,17.268,0,0,0,2.857-1.59,7.016,7.016,0,0,0-1.344-2.333l-2.728-3.14a7.055,7.055,0,0,0-9.954-.7l-.224.2a7.017,7.017,0,0,0-2.181,3.485,7.053,7.053,0,0,0-3.757,1.675l-.225.2a7.005,7.005,0,0,0-2.185,3.485,7.053,7.053,0,0,0-3.752,1.673l-.226.2a7.015,7.015,0,0,0-2.181,3.485,7.054,7.054,0,0,0-3.757,1.675l-.224.2a7.055,7.055,0,0,0-.7,9.953l2.3,2.651a4.1,4.1,0,0,0,.7-.523l1.648-1.459,11.261-8.306a2.084,2.084,0,0,1,3.344-2.467l3.13-2.309a2.51,2.51,0,0,1,3.885-2.866Z" transform="translate(-194.471 -282.641)" fill="#ffd1c2"/>
            <path id="Trazado_654443" data-name="Trazado 654443" d="M351.052,379.813l-2.728-3.14a3.933,3.933,0,0,1,.389-5.548l.225-.2a3.933,3.933,0,0,1,5.548.389l2.728,3.14a3.933,3.933,0,0,1-.389,5.548l-.225.2A3.933,3.933,0,0,1,351.052,379.813Z" transform="translate(-276.679 -294.519)" fill="#ffe0d1"/>
            <path id="Trazado_654444" data-name="Trazado 654444" d="M352.753,379.682l-2.728-3.14a3.937,3.937,0,0,1-.025-5.126,3.957,3.957,0,0,0-1.063.662l-.225.2a3.933,3.933,0,0,0-.389,5.548l2.728,3.14a3.933,3.933,0,0,0,5.548.389l.225-.2a3.884,3.884,0,0,0,.416-.42A3.935,3.935,0,0,1,352.753,379.682Z" transform="translate(-276.679 -295.668)" fill="#ffd1c2"/>
            <path id="Trazado_654445" data-name="Trazado 654445" d="M321.447,405.539l-2.728-3.14a3.933,3.933,0,0,1,.389-5.548l.225-.2a3.933,3.933,0,0,1,5.548.389l2.728,3.14a3.933,3.933,0,0,1-.389,5.548l-.225.2A3.933,3.933,0,0,1,321.447,405.539Z" transform="translate(-253.237 -314.89)" fill="#ffe0d1"/>
            <path id="Trazado_654446" data-name="Trazado 654446" d="M323.2,405.521l-2.728-3.14a3.942,3.942,0,0,1-.289-4.788,3.942,3.942,0,0,0-.851.568l-.225.2a3.933,3.933,0,0,0-.389,5.548l2.728,3.14a3.933,3.933,0,0,0,5.548.389l.225-.2a3.905,3.905,0,0,0,.677-.762A3.935,3.935,0,0,1,323.2,405.521Z" transform="translate(-253.236 -316.396)" fill="#ffd1c2"/>
            <path id="Trazado_654447" data-name="Trazado 654447" d="M291.842,431.266l-2.728-3.14a3.933,3.933,0,0,1,.389-5.548l.225-.2a3.933,3.933,0,0,1,5.548.389l2.728,3.14a3.933,3.933,0,0,1-.389,5.548l-.225.2A3.933,3.933,0,0,1,291.842,431.266Z" transform="translate(-229.794 -335.262)" fill="#ffe0d1"/>
            <path id="Trazado_654448" data-name="Trazado 654448" d="M293.511,431.432l-2.728-3.14a3.937,3.937,0,0,1-.26-4.832,3.9,3.9,0,0,0-.8.539l-.225.2a3.933,3.933,0,0,0-.389,5.548l2.728,3.14a3.933,3.933,0,0,0,5.548.389l.225-.2a3.929,3.929,0,0,0,.645-.716A3.937,3.937,0,0,1,293.511,431.432Z" transform="translate(-229.793 -336.88)" fill="#ffd1c2"/>
            <path id="Trazado_654449" data-name="Trazado 654449" d="M262.237,456.992l-2.728-3.14a3.933,3.933,0,0,1,.389-5.548l.225-.2a3.933,3.933,0,0,1,5.548.389l2.728,3.14a3.933,3.933,0,0,1-.389,5.548l-.225.2A3.933,3.933,0,0,1,262.237,456.992Z" transform="translate(-206.351 -355.634)" fill="#ffe0d1"/>
            <path id="Trazado_654450" data-name="Trazado 654450" d="M265.269,459.483l-4.175-4.805a3.929,3.929,0,0,1-.65-4.11,4.006,4.006,0,0,0-.322.252l-.225.2a3.933,3.933,0,0,0-.389,5.548l2.728,3.14a3.935,3.935,0,0,0,4.749.928A3.927,3.927,0,0,1,265.269,459.483Z" transform="translate(-206.35 -358.345)" fill="#ffd1c2"/>
          </g>
          <g id="Grupo_959334" data-name="Grupo 959334" transform="translate(0.29 0)">
            <path id="Trazado_654451" data-name="Trazado 654451" d="M1.188,177.626l28.354,13.309a1.565,1.565,0,0,0,.915.128l10.35-1.69a18.563,18.563,0,0,1,16.171,5.266l8.662,8.768a2.614,2.614,0,0,1-.247,3.893,2.629,2.629,0,0,1-3.123.076l-8.445-5.983a3.087,3.087,0,0,0-3.883.234l-6.172,5.6a1.561,1.561,0,1,0,2.1,2.312l6.151-5.6,8.445,5.983a5.736,5.736,0,0,0,7.4-8.711l-6.867-6.951a19.66,19.66,0,0,1,11.043.459l3.66,1.244a3.827,3.827,0,0,0,3.1-.287l.022-.012L105.8,179.928a1.561,1.561,0,1,0-1.573-2.7L77.26,192.958a.7.7,0,0,1-.559.048l-3.66-1.243a22.788,22.788,0,0,0-14.569-.018A21.693,21.693,0,0,0,40.3,186.291L30.431,187.9,2.515,174.8a1.561,1.561,0,0,0-1.327,2.826Z" transform="translate(-0.29 -138.298)"/>
            <path id="Trazado_654452" data-name="Trazado 654452" d="M106.642,317.331a1.561,1.561,0,0,0-2.088-.717l-13.735,6.709a1.56,1.56,0,0,0-.588.5l-1.105,1.558a15.718,15.718,0,0,1-5.033,4.559,5.491,5.491,0,0,0-.528-.72l-2.728-3.139a5.5,5.5,0,0,0-7.751-.543l-.225.2a5.476,5.476,0,0,0-1.877,3.833l-.072-.007a5.459,5.459,0,0,0-3.988,1.333l-.225.2a5.477,5.477,0,0,0-1.878,3.835,5.476,5.476,0,0,0-4.059,1.324l-.225.2a5.478,5.478,0,0,0-1.878,3.835A5.477,5.477,0,0,0,54.6,341.6l-.225.2a5.494,5.494,0,0,0-.543,7.751l1.318,1.517-.526.465-.029.026a2.732,2.732,0,0,1-3.692-.047,2.518,2.518,0,0,1-.058-3.322,1.561,1.561,0,0,0-2.254-2.153l-.168.156a2.732,2.732,0,0,1-3.692-.047,2.513,2.513,0,0,1-.039-3.347,1.561,1.561,0,0,0-2.241-2.168l-.047.043a2.732,2.732,0,0,1-3.692-.047,2.517,2.517,0,0,1-.055-3.326,1.561,1.561,0,0,0-1.893-2.405,2.519,2.519,0,0,1-3.035-.59,2.594,2.594,0,0,1,.247-3.564l1.679-1.487,5.237-4.752a1.561,1.561,0,0,0-2.1-2.312l-5.223,4.739-1.681,1.488-.028.026a5.767,5.767,0,0,0-1.68,2.888l-.012-.007a25.812,25.812,0,0,1-7.42-6.309l-.89-1.107a1.561,1.561,0,0,0-.531-.424L2.538,314.287a1.561,1.561,0,1,0-1.372,2.8l18.48,9.04.672.836a28.924,28.924,0,0,0,8.314,7.068l1.945,1.1a5.424,5.424,0,0,0,.8,1.218,5.637,5.637,0,0,0,3.6,1.891,5.636,5.636,0,0,0,1.47,4.522l.039.041a5.8,5.8,0,0,0,4.463,1.667,5.631,5.631,0,0,0,1.516,3.812l.039.041a5.808,5.808,0,0,0,4.624,1.655,5.628,5.628,0,0,0,1.507,3.671l.039.041a5.847,5.847,0,0,0,8.031.16l.557-.493a5.453,5.453,0,0,0,3.06,1.2q.2.014.393.014a5.453,5.453,0,0,0,3.6-1.347l.225-.2a5.477,5.477,0,0,0,1.878-3.836c.153.013.306.021.46.021a5.471,5.471,0,0,0,3.6-1.345l.225-.2a5.477,5.477,0,0,0,1.878-3.836c.153.013.306.021.46.021a5.471,5.471,0,0,0,3.6-1.345l.225-.2a5.459,5.459,0,0,0,1.877-3.763c0-.024,0-.048,0-.073.152.013.3.021.457.021a5.47,5.47,0,0,0,3.6-1.344l.225-.2a5.479,5.479,0,0,0,1.882-3.921,18.844,18.844,0,0,0,6.77-5.863l.875-1.233,13.377-6.535a1.56,1.56,0,0,0,.717-2.087ZM62.487,350.678l-.225.2a2.372,2.372,0,0,1-3.346-.235L56.188,347.5a2.372,2.372,0,0,1,.235-3.346l.225-.2a2.374,2.374,0,0,1,3.346.235l2.728,3.14a2.374,2.374,0,0,1-.234,3.346Zm6.162-5.355-.225.2a2.375,2.375,0,0,1-3.346-.235l-2.728-3.14a2.374,2.374,0,0,1,.234-3.346l.225-.2a2.375,2.375,0,0,1,3.346.235l2.728,3.139A2.375,2.375,0,0,1,68.649,345.323Zm6.973-6.979a2.357,2.357,0,0,1-.811,1.625l-.225.2a2.375,2.375,0,0,1-3.346-.235l-2.728-3.14a2.375,2.375,0,0,1,.234-3.346l.225-.2a2.355,2.355,0,0,1,1.552-.582c.056,0,.113,0,.169.006a2.357,2.357,0,0,1,1.624.81l2.728,3.139A2.357,2.357,0,0,1,75.622,338.344Zm5.352-3.731-.225.2a2.375,2.375,0,0,1-3.346-.235l-2.728-3.139a2.372,2.372,0,0,1,.235-3.346l.225-.2a2.375,2.375,0,0,1,3.346.235l2.728,3.139a2.374,2.374,0,0,1-.234,3.346Z" transform="translate(-0.29 -248.744)"/>
            <path id="Trazado_654453" data-name="Trazado 654453" d="M168.593,43.685l4.321,1.585a3.578,3.578,0,0,0,2.462,0l4.321-1.585A24.226,24.226,0,0,0,195.108,25.7a1.561,1.561,0,1,0-3.061-.613,21.228,21.228,0,0,1-13.425,15.666L174.3,42.338a.453.453,0,0,1-.312,0l-4.321-1.585a21.175,21.175,0,0,1-13.837-19.812V7.373a.773.773,0,0,1,.624-.758l17.785-3.464,17.594,3.46a.774.774,0,0,1,.623.757V18.74a1.561,1.561,0,1,0,3.122,0V7.369a3.9,3.9,0,0,0-3.143-3.821L174.543.029a1.563,1.563,0,0,0-.6,0L155.859,3.551a3.9,3.9,0,0,0-3.15,3.822V20.942a24.308,24.308,0,0,0,15.884,22.743Z" transform="translate(-120.984 0)"/>
            <path id="Trazado_654454" data-name="Trazado 654454" d="M198.293,30.6a1.559,1.559,0,0,0-.6,0L183.972,33.27a1.561,1.561,0,0,0-1.263,1.532V45.147A18.043,18.043,0,0,0,194.5,62.028l2.864,1.05a1.563,1.563,0,0,0,1.075,0l2.864-1.05a18.042,18.042,0,0,0,11.789-16.88V34.792a1.561,1.561,0,0,0-1.26-1.532Zm11.676,14.549A14.909,14.909,0,0,1,200.227,59.1l-2.327.853-2.327-.853a14.909,14.909,0,0,1-9.742-13.949V36.089l12.159-2.368,11.978,2.356Z" transform="translate(-144.739 -24.206)"/>
            <path id="Trazado_654455" data-name="Trazado 654455" d="M226.438,84.183a1.561,1.561,0,0,0-2.139,2.275l2.52,2.37a1.561,1.561,0,0,0,1.069.424c.033,0,.066,0,.1,0a1.561,1.561,0,0,0,1.106-.566l8.162-9.917a1.561,1.561,0,0,0-2.411-1.984l-7.1,8.629Z" transform="translate(-177.283 -60.349)"/>
          </g>
        </g>
      </g>
      <rect id="Rectángulo_305736" data-name="Rectángulo 305736" width="164" height="164" transform="translate(179.814 1281.735)" fill="none"/>
    </g>
  </g>
</svg>
