<svg xmlns="http://www.w3.org/2000/svg" width="164" height="164" viewBox="0 0 164 164">
  <g id="Grupo_959320" data-name="Grupo 959320" transform="translate(-377 -1857)">
    <g id="Grupo_81380" data-name="Grupo 81380" transform="translate(197.186 575.265)">
      <g id="Grupo_930456" data-name="Grupo 930456" transform="translate(195.146 1283.954)">
        <circle id="Elipse_7667" data-name="Elipse 7667" cx="65.203" cy="65.203" r="65.203" transform="translate(0 14.578)" fill="#ff3c00"/>
        <g id="Filled_outline" data-name="Filled outline" transform="translate(-3.706 13.781)">
          <path id="Trazado_654456" data-name="Trazado 654456" d="M106.75,24,56,74.75l5.814,5.814L87.5,106.249l50.75-50.75V24Zm21,14a3.49,3.49,0,1,1,2.478-1.022A3.5,3.5,0,0,1,127.749,38Z" transform="translate(-31.254 -6.25)" fill="#348fd9"/>
          <path id="Trazado_654457" data-name="Trazado 654457" d="M154.137,24q-1.975,3.81-4.128,7.335a3.5,3.5,0,1,1-3.784,5.812C129.631,61,106.734,74.253,82.58,80.564l25.685,25.685,50.75-50.75V24Z" transform="translate(-52.019 -6.25)" fill="#3086cd"/>
          <path id="Trazado_654458" data-name="Trazado 654458" d="M266.273,102a3.8,3.8,0,0,0-2.344-6.961c1.322-3.584-3.012-6.623-6.136-4.3a4,4,0,0,0-7.585,0c-3.124-2.32-7.458.718-6.136,4.3A3.8,3.8,0,0,0,241.729,102a3.8,3.8,0,0,0,2.344,6.961c-1.322,3.584,3.012,6.623,6.136,4.3a4,4,0,0,0,7.585,0c3.124,2.32,7.458-.718,6.136-4.3A3.8,3.8,0,0,0,266.273,102Z" transform="translate(-175.005 -56.25)" fill="#ffb531"/>
          <path id="Trazado_654459" data-name="Trazado 654459" d="M104,32.75A12.025,12.025,0,0,0,112.75,24a12.025,12.025,0,0,0,8.75,8.75,12.025,12.025,0,0,0-8.75,8.75A12.025,12.025,0,0,0,104,32.75Z" transform="translate(-68.754 -6.25)" fill="#ffb531"/>
          <path id="Trazado_654460" data-name="Trazado 654460" d="M416,344h15.75v31.5H416Z" transform="translate(-312.504 -256.251)" fill="#4d5e78"/>
          <path id="Trazado_654461" data-name="Trazado 654461" d="M109.747,343v26.25H55.3a13.971,13.971,0,0,1-6.261-1.479L27.568,357.035A6.458,6.458,0,0,1,30.505,344.8l.752,0a6.457,6.457,0,0,1,2.824.676l19.665,9.769h7a7,7,0,1,1,0-14H75.913l3.465-1.949a25.707,25.707,0,0,1,27.4,1.387c.429.3.847.617,1.258.945Z" transform="translate(-6.251 -250)" fill="#fec9a3"/>
          <path id="Trazado_654462" data-name="Trazado 654462" d="M249.851,359.742v26.25H203.33c16.491-5.18,31.821-14.181,43.555-28.562.429.3.847.617,1.258.945Z" transform="translate(-146.355 -266.743)" fill="#fec093"/>
          <path id="Trazado_654463" data-name="Trazado 654463" d="M69.512,90.737l2.475-2.475L52.225,68.5l49-49h29.025v7h-3.8a5.25,5.25,0,1,0,0,3.5h3.8V48.525L95.762,83.012l2.475,2.475,35-35a1.75,1.75,0,0,0,.513-1.237V40.5H139a7,7,0,1,0,0-14h-5.25V17.75A1.75,1.75,0,0,0,132,16H100.5a1.75,1.75,0,0,0-1.238.513l-50.75,50.75a1.75,1.75,0,0,0,0,2.475ZM119.749,28.25a1.752,1.752,0,0,1,1.75-1.75V30a1.752,1.752,0,0,1-1.75-1.75ZM139,30a3.5,3.5,0,1,1,0,7h-5.25V30Z" transform="translate(-25.003)"/>
          <path id="Trazado_654464" data-name="Trazado 654464" d="M232.229,100.531a5.578,5.578,0,0,0,3.57,3.629,5.428,5.428,0,0,0,2.24,4.242,5.763,5.763,0,0,0,5.135.923,5.838,5.838,0,0,0,9.092,0,5.763,5.763,0,0,0,5.135-.923,5.428,5.428,0,0,0,2.24-4.242,5.578,5.578,0,0,0,3.57-3.629,5.353,5.353,0,0,0-.727-4.781,5.353,5.353,0,0,0,.727-4.781,5.578,5.578,0,0,0-3.57-3.629A5.428,5.428,0,0,0,257.4,83.1a5.762,5.762,0,0,0-5.135-.923,5.838,5.838,0,0,0-9.092,0,5.763,5.763,0,0,0-5.135.923,5.428,5.428,0,0,0-2.24,4.242,5.578,5.578,0,0,0-3.57,3.629,5.353,5.353,0,0,0,.727,4.781A5.353,5.353,0,0,0,232.229,100.531Zm4.183-6.24a1.931,1.931,0,0,1-.845-2.268,2.121,2.121,0,0,1,2.177-1.484,1.75,1.75,0,0,0,1.689-2.355,1.94,1.94,0,0,1,.7-2.283,2.233,2.233,0,0,1,2.747-.009A1.75,1.75,0,0,0,245.6,85a2.247,2.247,0,0,1,4.238,0,1.75,1.75,0,0,0,2.717.894,2.231,2.231,0,0,1,2.747.009,1.94,1.94,0,0,1,.7,2.283,1.75,1.75,0,0,0,1.689,2.355,2.125,2.125,0,0,1,2.177,1.484,1.931,1.931,0,0,1-.845,2.268,1.75,1.75,0,0,0,0,2.919,1.931,1.931,0,0,1,.845,2.268,2.122,2.122,0,0,1-2.177,1.484,1.75,1.75,0,0,0-1.689,2.355,1.94,1.94,0,0,1-.7,2.283,2.233,2.233,0,0,1-2.747.009,1.75,1.75,0,0,0-2.717.894,2.247,2.247,0,0,1-4.238,0,1.75,1.75,0,0,0-2.717-.894,2.233,2.233,0,0,1-2.747-.009,1.94,1.94,0,0,1-.7-2.283,1.75,1.75,0,0,0-1.689-2.355,2.118,2.118,0,0,1-2.177-1.484,1.931,1.931,0,0,1,.845-2.268,1.75,1.75,0,0,0,0-2.919Z" transform="translate(-168.724 -50)"/>
          <path id="Trazado_654465" data-name="Trazado 654465" d="M0,0H14.849V3.5H0Z" transform="translate(32.252 69.009) rotate(-45)"/>
          <path id="Trazado_654466" data-name="Trazado 654466" d="M0,0H14.849V3.5H0Z" transform="translate(37.5 74.259) rotate(-45)"/>
          <path id="Trazado_654467" data-name="Trazado 654467" d="M0,0H14.849V3.5H0Z" transform="translate(42.749 79.509) rotate(-45)"/>
          <path id="Trazado_654468" data-name="Trazado 654468" d="M0,0H14.849V3.5H0Z" transform="translate(47.998 84.759) rotate(-45)"/>
          <path id="Trazado_654469" data-name="Trazado 654469" d="M0,0H7.425V3.5H0Z" transform="translate(58.496 84.76) rotate(-45)"/>
          <path id="Trazado_654470" data-name="Trazado 654470" d="M0,0H3.5V6.032H0Z" transform="translate(53.25 52.238) rotate(-45)"/>
          <path id="Trazado_654471" data-name="Trazado 654471" d="M0,0H3.5V15.468H0Z" transform="translate(59.811 58.801) rotate(-45)"/>
          <path id="Trazado_654472" data-name="Trazado 654472" d="M97.326,28.2a10.257,10.257,0,0,1,7.477,7.477,1.75,1.75,0,0,0,3.4,0,10.257,10.257,0,0,1,7.477-7.477,1.75,1.75,0,0,0,0-3.4,10.257,10.257,0,0,1-7.477-7.477,1.75,1.75,0,0,0-3.4,0A10.257,10.257,0,0,1,97.326,24.8a1.75,1.75,0,0,0,0,3.4Zm9.174-6.033a13.735,13.735,0,0,0,4.336,4.336,13.735,13.735,0,0,0-4.336,4.336,13.735,13.735,0,0,0-4.336-4.336,13.735,13.735,0,0,0,4.336-4.336Z" transform="translate(-62.504 -0.001)"/>
          <path id="Trazado_654473" data-name="Trazado 654473" d="M0,0H18.664V3.5H0Z" transform="translate(86.495 77.764) rotate(-45)"/>
          <path id="Trazado_654474" data-name="Trazado 654474" d="M0,0H4.95V3.5H0Z" transform="translate(102.244 62.017) rotate(-45)"/>
          <path id="Trazado_654475" data-name="Trazado 654475" d="M119.246,329.75H103.5a1.75,1.75,0,0,0-1.75,1.75v1.659a27.449,27.449,0,0,0-29.476-1.633L69.2,333.25H54.5a8.746,8.746,0,0,0-7.222,13.686l-18.665-9.273a8.259,8.259,0,0,0-3.589-.857l-.752-.006a8.209,8.209,0,0,0-3.734,15.55l21.473,10.737a15.827,15.827,0,0,0,7.044,1.663h70.194A1.75,1.75,0,0,0,121,363V331.5A1.75,1.75,0,0,0,119.246,329.75ZM43.573,359.956,22.1,349.219a4.709,4.709,0,0,1,2.1-8.92h.037l.752.006a4.739,4.739,0,0,1,2.059.492l19.665,9.77a1.753,1.753,0,0,0,.779.183h22.75a1.75,1.75,0,1,0,0-3.5H54.5a5.25,5.25,0,1,1,0-10.5H69.663a1.75,1.75,0,0,0,.858-.225l3.465-1.949a23.954,23.954,0,0,1,26.708,2.174l1.052.841v23.659H49.051a12.312,12.312,0,0,1-5.478-1.293Zm73.923,1.293h-12.25v-28H117.5Z" transform="translate(0 -243.75)"/>
          <path id="Trazado_654476" data-name="Trazado 654476" d="M442.625,437.25A2.625,2.625,0,1,0,440,434.625a2.625,2.625,0,0,0,2.625,2.625Z" transform="translate(-331.254 -325.001)"/>
          <path id="Trazado_654477" data-name="Trazado 654477" d="M0,0H3.5V19.8H0Z" transform="translate(49.749 59.237) rotate(-45)"/>
        </g>
      </g>
      <rect id="Rectángulo_305736" data-name="Rectángulo 305736" width="164" height="164" transform="translate(179.814 1281.735)" fill="none"/>
    </g>
  </g>
</svg>
