<svg xmlns="http://www.w3.org/2000/svg" width="164" height="164" viewBox="0 0 164 164">
  <g id="Grupo_959322" data-name="Grupo 959322" transform="translate(-377 -1857)">
    <g id="Grupo_81380" data-name="Grupo 81380" transform="translate(197.186 575.265)">
      <g id="Grupo_930456" data-name="Grupo 930456" transform="translate(195.146 1283.954)">
        <circle id="Elipse_7667" data-name="Elipse 7667" cx="65.203" cy="65.203" r="65.203" transform="translate(0 14.578)" fill="#ff3c00"/>
        <g id="Layer_1" transform="translate(8.349 18.882)">
          <g id="Grupo_959344" data-name="Grupo 959344" transform="translate(3.27 8.09)">
            <path id="Trazado_654478" data-name="Trazado 654478" d="M11.692,108.088V13.549a2.96,2.96,0,1,0-5.919,0v97.5a2.96,2.96,0,0,0,2.96,2.96H110.473a2.96,2.96,0,1,0,0-5.919Z" transform="translate(-4.671 -9.488)" fill="#f0c020"/>
            <circle id="Elipse_7908" data-name="Elipse 7908" cx="5.725" cy="5.725" r="5.725" transform="translate(50.135 32.679)" fill="#ffb69f"/>
            <path id="Trazado_654479" data-name="Trazado 654479" d="M103.172,16.66,98.495,28.547l-1.467-3.374-9.6,4.175a2.852,2.852,0,0,0-5.206,1.612v.647L54.991,43.446A2.855,2.855,0,0,0,49.337,44v1.9L19.217,59V49.356L93.5,17.065,91.29,11.983Z" transform="translate(-12.194 -10.268)" fill="#fc5d3d"/>
            <path id="Trazado_654480" data-name="Trazado 654480" d="M124.145,161.478v24.545a4.038,4.038,0,0,1-4.038,4.038h0a4.038,4.038,0,0,1-4.038-4.038V166.472a1.321,1.321,0,0,0-1.321-1.321H100.068l-3.575,10.474a4.4,4.4,0,0,1-1.517,2.094L80.534,189.143a4.038,4.038,0,1,1-4.86-6.448L87.7,173.1a4.4,4.4,0,0,0,1.616-2.435l2.167-8.517v-5.069H119.74a4.4,4.4,0,0,1,4.4,4.4Z" transform="translate(-42.887 -91.46)" fill="#7d7b79"/>
            <path id="Trazado_654481" data-name="Trazado 654481" d="M93.315,81.057v5.276l-5.708,2.479V81.057a2.855,2.855,0,0,1,5.655-.555A2.891,2.891,0,0,1,93.315,81.057Z" transform="translate(-50.464 -47.325)" fill="#ffb69f"/>
            <path id="Trazado_654482" data-name="Trazado 654482" d="M167.985,51.447v4.021l-5.708,2.479v-6.5a2.852,2.852,0,0,1,5.206-1.612,2.82,2.82,0,0,1,.5,1.612Z" transform="translate(-92.249 -30.755)" fill="#ffb69f"/>
            <path id="Trazado_654483" data-name="Trazado 654483" d="M126.2,64.2v14.78a4.4,4.4,0,0,1-2.647,4.039l-5.778,2.51V105.1H99.058V93.671l-5.289,2.3a4.4,4.4,0,0,1-6.161-4.039V80.978L93.315,78.5V89.791l27.178-11.816V66.683Z" transform="translate(-50.464 -39.49)" fill="#72c2e9"/>
            <g id="Grupo_959335" data-name="Grupo 959335" transform="translate(29.171 24.983)">
              <path id="Trazado_654484" data-name="Trazado 654484" d="M77.983,150.647c-1.622-.536-3.3-1-4.238-5.056-.866,3.732-2.254,4.4-4.238,5.056,3.236,1.069,3.724,2.839,4.238,5.056C74.632,151.882,76.1,151.27,77.983,150.647Z" transform="translate(-69.507 -110.017)" fill="#f0c020"/>
              <path id="Trazado_654485" data-name="Trazado 654485" d="M202.649,69.872c-1.622-.536-3.3-1-4.238-5.056-.866,3.732-2.254,4.4-4.238,5.056,3.236,1.069,3.724,2.839,4.238,5.056C199.3,71.107,200.765,70.495,202.649,69.872Z" transform="translate(-139.269 -64.816)" fill="#f0c020"/>
              <path id="Trazado_654486" data-name="Trazado 654486" d="M191.532,115.758c-1.622-.536-3.3-1-4.238-5.056-.866,3.732-2.254,4.4-4.238,5.056,3.236,1.069,3.724,2.839,4.238,5.056C188.181,116.993,189.648,116.381,191.532,115.758Z" transform="translate(-133.048 -90.493)" fill="#f0c020"/>
            </g>
            <path id="Trazado_654487" data-name="Trazado 654487" d="M103.172,16.66,98.495,28.547l-1.467-3.374-9.6,4.175a2.852,2.852,0,0,0-5.206,1.612v.647L54.991,43.446A2.855,2.855,0,0,0,49.337,44v1.9L19.217,59V49.356L93.5,17.065,91.29,11.983Z" transform="translate(-12.194 -10.268)" fill="#fc5d3d"/>
            <path id="Trazado_654488" data-name="Trazado 654488" d="M71.3,154.569c-.47-2.025-.78-3.363-3.518-4.268a1.09,1.09,0,0,1,0-2.069c1.648-.545,2.738-.9,3.518-4.268a1.09,1.09,0,0,1,2.122,0c.8,3.44,1.992,3.765,3.518,4.268a1.09,1.09,0,0,1,0,2.069c-1.589.525-2.738.9-3.518,4.268A1.089,1.089,0,0,1,71.3,154.569Zm-.622-5.277a5.657,5.657,0,0,1,1.705,1.8A5.39,5.39,0,0,1,74,149.277a5.555,5.555,0,0,1-1.629-1.885A5.4,5.4,0,0,1,70.68,149.292Z" transform="translate(-38.954 -83.654)"/>
            <path id="Trazado_654489" data-name="Trazado 654489" d="M195.969,73.793c-.47-2.025-.78-3.363-3.518-4.268a1.09,1.09,0,0,1,0-2.069c1.648-.545,2.738-.9,3.518-4.268a1.09,1.09,0,0,1,2.122,0c.8,3.44,1.992,3.765,3.518,4.268a1.09,1.09,0,0,1,0,2.069c-1.589.525-2.738.9-3.518,4.268A1.089,1.089,0,0,1,195.969,73.793Zm-.622-5.277a5.657,5.657,0,0,1,1.705,1.8,5.39,5.39,0,0,1,1.611-1.818,5.56,5.56,0,0,1-1.629-1.885,5.4,5.4,0,0,1-1.688,1.9Z" transform="translate(-108.717 -38.453)"/>
            <path id="Trazado_654490" data-name="Trazado 654490" d="M184.852,119.68c-.47-2.025-.78-3.363-3.518-4.268a1.09,1.09,0,0,1,0-2.069c1.648-.545,2.738-.9,3.518-4.268a1.09,1.09,0,0,1,2.122,0c.8,3.44,1.992,3.765,3.518,4.268a1.09,1.09,0,0,1,0,2.069c-1.589.525-2.738.9-3.518,4.268A1.089,1.089,0,0,1,184.852,119.68Zm-.622-5.277a5.658,5.658,0,0,1,1.705,1.8,5.389,5.389,0,0,1,1.611-1.818,5.56,5.56,0,0,1-1.629-1.885,5.4,5.4,0,0,1-1.688,1.9Z" transform="translate(-102.496 -64.131)"/>
            <g id="Grupo_959343" data-name="Grupo 959343">
              <g id="Grupo_959336" data-name="Grupo 959336" transform="translate(62.099 47.272)">
                <path id="Trazado_654491" data-name="Trazado 654491" d="M145.374,130.773a1.1,1.1,0,0,1-1.1-1.1v-1.254a1.1,1.1,0,0,1,2.2,0v1.254A1.1,1.1,0,0,1,145.374,130.773Zm0-5.657a1.1,1.1,0,0,1-1.1-1.1v-7.487a1.1,1.1,0,1,1,2.2,0v7.487A1.1,1.1,0,0,1,145.374,125.116Z" transform="translate(-144.273 -115.427)" fill="#c5e5fe"/>
              </g>
              <g id="Grupo_959337" data-name="Grupo 959337" transform="translate(9.734 9.654)">
                <path id="Trazado_654492" data-name="Trazado 654492" d="M25.461,61.053a1.1,1.1,0,0,1,.58-1.445l1.778-.761a1.1,1.1,0,1,1,.866,2.025l-1.778.761A1.1,1.1,0,0,1,25.461,61.053Zm5.828-2.492a1.1,1.1,0,0,1,.58-1.445L95.038,30.1a1.1,1.1,0,1,1,.866,2.025L32.734,59.139A1.1,1.1,0,0,1,31.289,58.56Z" transform="translate(-25.372 -30.011)" fill="#ffcbc3"/>
              </g>
              <g id="Grupo_959338" data-name="Grupo 959338" transform="translate(69.833 68.405)">
                <path id="Trazado_654493" data-name="Trazado 654493" d="M169.44,189.872a1.1,1.1,0,0,1-1.1-1.1v-2.642a1.1,1.1,0,1,1,2.2,0v2.642A1.1,1.1,0,0,1,169.44,189.872Zm0-7.046a1.1,1.1,0,0,1-1.1-1.1V165.613h-5.405a1.1,1.1,0,0,1,0-2.2h5.625a1.984,1.984,0,0,1,1.982,1.982v16.332A1.1,1.1,0,0,1,169.44,182.826Z" transform="translate(-161.833 -163.411)" fill="#efefef"/>
              </g>
              <g id="Grupo_959342" data-name="Grupo 959342" transform="translate(9.734 9.654)">
                <g id="Grupo_959339" data-name="Grupo 959339" transform="translate(52.365 37.618)">
                  <path id="Trazado_654494" data-name="Trazado 654494" d="M145.374,130.773a1.1,1.1,0,0,1-1.1-1.1v-1.254a1.1,1.1,0,0,1,2.2,0v1.254A1.1,1.1,0,0,1,145.374,130.773Zm0-5.657a1.1,1.1,0,0,1-1.1-1.1v-7.487a1.1,1.1,0,1,1,2.2,0v7.487A1.1,1.1,0,0,1,145.374,125.116Z" transform="translate(-144.273 -115.427)" fill="#c5e5fe"/>
                </g>
                <g id="Grupo_959340" data-name="Grupo 959340" transform="translate(0 0)">
                  <path id="Trazado_654495" data-name="Trazado 654495" d="M25.461,61.053a1.1,1.1,0,0,1,.58-1.445l1.778-.761a1.1,1.1,0,1,1,.866,2.025l-1.778.761A1.1,1.1,0,0,1,25.461,61.053Zm5.828-2.492a1.1,1.1,0,0,1,.58-1.445L95.038,30.1a1.1,1.1,0,1,1,.866,2.025L32.734,59.139A1.1,1.1,0,0,1,31.289,58.56Z" transform="translate(-25.372 -30.011)" fill="#ffcbc3"/>
                </g>
                <g id="Grupo_959341" data-name="Grupo 959341" transform="translate(60.098 58.75)">
                  <path id="Trazado_654496" data-name="Trazado 654496" d="M169.44,189.872a1.1,1.1,0,0,1-1.1-1.1v-2.642a1.1,1.1,0,1,1,2.2,0v2.642A1.1,1.1,0,0,1,169.44,189.872Zm0-7.046a1.1,1.1,0,0,1-1.1-1.1V165.613h-5.405a1.1,1.1,0,0,1,0-2.2h5.625a1.984,1.984,0,0,1,1.982,1.982v16.332A1.1,1.1,0,0,1,169.44,182.826Z" transform="translate(-161.833 -163.411)" fill="#efefef"/>
                </g>
              </g>
              <path id="Trazado_654497" data-name="Trazado 654497" d="M109.074,105.588h-7.447v-2.079a1.1,1.1,0,1,0-2.2,0v2.079H84.7a5.115,5.115,0,0,0,.929-2.933V78.106a5.52,5.52,0,0,0-5.51-5.505H71.682l0-17.748,5.118-2.22a5.5,5.5,0,0,0,3.312-5.051V28.78a3.926,3.926,0,0,0-.148-1.042l7.573-3.3,1.026,2.365a1.1,1.1,0,0,0,2.035-.035l4.677-11.887a1.1,1.1,0,0,0-.621-1.426L82.768,8.781a1.1,1.1,0,0,0-1.414,1.462l1.775,4.074-35.5,15.428a1.1,1.1,0,0,0,.881,2.021,0,0,0,0,1,0,0L85.014,15.9a1.1,1.1,0,0,0,.573-1.449L84.433,11.8l8.385,3.3-3.3,8.39-.405-.934a1.123,1.123,0,0,0-1.449-.573L78.8,25.841A3.951,3.951,0,0,0,72.2,28.7l-25.534,11.1a3.953,3.953,0,0,0-7.355,2.015V43L11.4,55.139V47.9L40.436,35.276A1.1,1.1,0,0,0,41,33.828a1.127,1.127,0,0,0-1.449-.573L11.391,45.5V12.151a4.061,4.061,0,1,0-8.121,0v97.5a4.068,4.068,0,0,0,4.061,4.061H92.012a1.1,1.1,0,0,0,0-2.2H7.331a1.867,1.867,0,0,1-1.859-1.859v-97.5a1.859,1.859,0,0,1,3.717,0v94.538a1.1,1.1,0,0,0,1.1,1.1h98.784a1.859,1.859,0,0,1,0,3.717H100.82a1.1,1.1,0,0,0,0,2.2h8.253a4.061,4.061,0,0,0,0-8.122ZM75.919,50.611l-5.778,2.51a1.1,1.1,0,0,0-.661,1.009V72.6H52.965V62.269a1.1,1.1,0,0,0-1.541-1.009l-5.289,2.3a3.305,3.305,0,0,1-4.62-3.03V50.3c.993-.432.3-.129,3.506-1.521v9.61A1.1,1.1,0,0,0,46.557,59.4L73.734,47.585a1.1,1.1,0,0,0,.661-1.013V36.007L77.9,34.484l0,13.1a3.3,3.3,0,0,1-1.986,3.03ZM72.2,45.851l-6.628,2.882a6.822,6.822,0,1,0-9.2,4l-9.149,3.979V41.967L72.2,31.105c0,8.434,0-6.9,0,14.745ZM59.131,51.118a4.624,4.624,0,1,1,4.624-4.624A4.641,4.641,0,0,1,59.131,51.118ZM74.4,28.78a1.753,1.753,0,0,1,3.505,0v3.3L74.4,33.6V28.78ZM41.515,41.821a1.76,1.76,0,0,1,1.753-1.752h.009a1.763,1.763,0,0,1,1.744,1.752v4.554L41.515,47.9ZM11.391,57.538,39.313,45.4V60.534a5.508,5.508,0,0,0,7.7,5.051l3.752-1.634V78.63L49.13,85.051a1.1,1.1,0,0,0,.8,1.339,1.115,1.115,0,0,0,1.339-.793l1.665-6.558.031-.268V74.8h27.16a3.324,3.324,0,0,1,3.308,3.3v24.548a2.938,2.938,0,0,1-5.875,0V83.1a2.429,2.429,0,0,0-2.422-2.422H60.453a1.1,1.1,0,0,0-1.043.744L55.833,91.9A3.3,3.3,0,0,1,54.7,93.472L40.255,104.9a2.937,2.937,0,0,1-3.536-4.69L45.8,92.956a1.1,1.1,0,0,0,.176-1.546,1.13,1.13,0,0,0-1.55-.172l-9.037,7.214a5.134,5.134,0,0,0-1.039,7.135H29.214v-2.079a1.1,1.1,0,1,0-2.2,0v2.079H11.391Zm40.861,44.87a1.107,1.107,0,0,0-1.1,1.1v2.079H42.928L56.022,95.229a5.538,5.538,0,0,0,1.9-2.616l3.321-9.733h13.89a.223.223,0,0,1,.22.22v19.554a5.1,5.1,0,0,0,.926,2.933H53.353v-2.079a1.1,1.1,0,0,0-1.1-1.1Z" transform="translate(-3.27 -8.09)"/>
              <circle id="Elipse_7909" data-name="Elipse 7909" cx="1.101" cy="1.101" r="1.101" transform="translate(92.045 103.417)"/>
              <path id="Trazado_654498" data-name="Trazado 654498" d="M93.992,61.139a1.1,1.1,0,1,0,1.449.568A1.122,1.122,0,0,0,93.992,61.139Z" transform="translate(-53.668 -37.727)"/>
              <path id="Trazado_654499" data-name="Trazado 654499" d="M105.428,191.952a1.1,1.1,0,0,0,0-1.559,1.123,1.123,0,0,0-1.55,0s0,0,0,0a1.1,1.1,0,0,0,1.55,1.559Z" transform="translate(-59.388 -109.93)"/>
            </g>
          </g>
        </g>
      </g>
      <rect id="Rectángulo_305736" data-name="Rectángulo 305736" width="164" height="164" transform="translate(179.814 1281.735)" fill="none"/>
    </g>
  </g>
</svg>
