<svg xmlns="http://www.w3.org/2000/svg" width="101" height="101" viewBox="0 0 101 101">
  <g id="Grupo_962223" data-name="Grupo 962223" transform="translate(-637 -996)">
    <circle id="Elipse_1142" data-name="Elipse 1142" cx="50.5" cy="50.5" r="50.5" transform="translate(637 996)" fill="#ffbba6"/>
    <g id="poblacion" transform="translate(644.744 1017.427)">
      <path id="Trazado_637643" data-name="Trazado 637643" d="M187.634,97.994v11.3h0q.523-.091,1.053-.161l.156-.02c.313-.04.627-.075.944-.1.146-.014.294-.023.442-.034.239-.017.477-.037.718-.048.407-.019.817-.031,1.229-.031s.822.012,1.23.031c.241.011.479.031.718.048.147.011.3.02.442.034.316.028.631.065.943.1l.156.02c.353.046.7.1,1.053.161h0v-11.3h3.634v-6.36A3.634,3.634,0,0,0,196.72,88h-9.086A3.634,3.634,0,0,0,184,91.634v6.36Z" transform="translate(-148.92 -78.006)" fill="#fbc926"/>
      <path id="Trazado_637644" data-name="Trazado 637644" d="M112.708,293.805a1.817,1.817,0,1,1,0-3.634h1.817a1.817,1.817,0,1,0,0-3.634h-9.086a1.817,1.817,0,0,1,0-3.634h1.817a1.817,1.817,0,1,0,0-3.634h-4.543a1.817,1.817,0,0,1,0-3.634h10.518L111.8,274.8a26.165,26.165,0,0,0-7.269-2.4q-.523-.091-1.053-.161l-.156-.02c-.313-.04-.627-.075-.943-.1-.146-.014-.294-.023-.442-.034-.239-.017-.477-.037-.718-.048-.408-.02-.818-.032-1.23-.032s-.822.012-1.23.031c-.241.011-.479.031-.718.048-.147.011-.294.02-.442.034-.316.028-.631.065-.944.1l-.156.02c-.353.046-.7.1-1.053.161a26.166,26.166,0,0,0-7.269,2.4l-2.549,1.489a26.461,26.461,0,0,0-4.709,3.89l8.22,0a1.764,1.764,0,0,1,1.764,1.764v.045a1.817,1.817,0,0,1-1.816,1.826h-1.82a1.818,1.818,0,0,0,0,3.635h9.086a1.817,1.817,0,0,1,0,3.634H81.812a1.817,1.817,0,0,0,.005,3.634h2.726a1.817,1.817,0,1,1,0,3.634h41.793a26.539,26.539,0,0,0-.4-4.543Zm-8.177.909h-1.817a1.817,1.817,0,1,1,0-3.634h1.817a1.817,1.817,0,1,1,0,3.634Z" transform="translate(-56.732 -241.109)" fill="#1881d1"/>
      <g id="Grupo_954704" data-name="Grupo 954704" transform="translate(16.909 34.525)">
        <path id="Trazado_637645" data-name="Trazado 637645" d="M265.817,304a1.817,1.817,0,1,0,0,3.634h4.543a1.817,1.817,0,1,1,0,3.634h-1.817a1.817,1.817,0,1,0,0,3.634h9.086a1.817,1.817,0,1,1,0,3.634h-1.817a1.817,1.817,0,1,0,0,3.634h13.23a26.345,26.345,0,0,0-11.3-17.352l-1.4-.82Z" transform="translate(-236.743 -304)" fill="#03ddd7"/>
        <path id="Trazado_637646" data-name="Trazado 637646" d="M36.72,360.34a1.817,1.817,0,0,0-1.817-1.817H32.177a1.817,1.817,0,0,1-.005-3.634H46.718a1.817,1.817,0,0,0,0-3.634H37.628a1.817,1.817,0,0,1,0-3.634h1.82a1.818,1.818,0,0,0,1.816-1.826v-.045a1.764,1.764,0,0,0-1.764-1.764l-8.22,0A26.251,26.251,0,0,0,24,362.157H34.9A1.817,1.817,0,0,0,36.72,360.34Z" transform="translate(-24 -339.443)" fill="#03ddd7"/>
        <path id="Trazado_637647" data-name="Trazado 637647" d="M267.634,440h-1.817a1.817,1.817,0,1,0,0,3.634h1.817a1.817,1.817,0,1,0,0-3.634Z" transform="translate(-236.743 -424.555)" fill="#03ddd7"/>
      </g>
      <circle id="Elipse_7832" data-name="Elipse 7832" cx="4.5" cy="4.5" r="4.5" transform="translate(39 1)" fill="#fbc926"/>
      <g id="Grupo_954705" data-name="Grupo 954705" transform="translate(18.726 5.404)">
        <ellipse id="Elipse_7833" data-name="Elipse 7833" cx="4.5" cy="5" rx="4.5" ry="5" transform="translate(36.274 -0.404)" fill="#f4ebdc"/>
        <circle id="Elipse_7834" data-name="Elipse 7834" cx="5" cy="5" r="5" transform="translate(3.274 -0.404)" fill="#f4ebdc"/>
        <path id="Trazado_637648" data-name="Trazado 637648" d="M52.72,137.994h3.634v-6.36A3.634,3.634,0,0,0,52.72,128H43.634A3.634,3.634,0,0,0,40,131.634v6.36h3.634v16.354l4.543-4.543,1.993-1.165,2.549-1.489Z" transform="translate(-40 -118.868)" fill="#f4ebdc"/>
        <path id="Trazado_637649" data-name="Trazado 637649" d="M328,137.994h3.634v9.157l1.433.837,1.4.82,1.707,1,4.543,4.543V137.994h3.634v-6.36A3.634,3.634,0,0,0,340.72,128h-9.086A3.634,3.634,0,0,0,328,131.634v6.36Z" transform="translate(-295.292 -118.868)" fill="#f4ebdc"/>
      </g>
      <g id="Grupo_954706" data-name="Grupo 954706" transform="translate(16)">
        <path id="Trazado_637650" data-name="Trazado 637650" d="M260.543,432h-1.817a2.726,2.726,0,1,0,0,5.451h1.817a2.726,2.726,0,1,0,0-5.451Zm0,3.634h-1.817a.909.909,0,0,1,0-1.817h1.817a.909.909,0,0,1,0,1.817Z" transform="translate(-228.743 -382.938)" fill="#101010"/>
        <path id="Trazado_637651" data-name="Trazado 637651" d="M65.062,40.885V25.439h2.726a.908.908,0,0,0,.909-.909v-6.36a4.548,4.548,0,0,0-4.543-4.543h-.491a5.451,5.451,0,1,0-8.1,0h-.491a4.5,4.5,0,0,0-2.726.932v-.932A4.548,4.548,0,0,0,47.8,9.086h-.491a5.451,5.451,0,1,0-8.1,0h-.491a4.548,4.548,0,0,0-4.543,4.543v.932a4.5,4.5,0,0,0-2.726-.932h-.491a5.451,5.451,0,1,0-8.1,0H22.36a4.548,4.548,0,0,0-4.543,4.543v6.36a.908.908,0,0,0,.909.909h2.726V40.885h.015A27.117,27.117,0,0,0,16,57.239a.908.908,0,0,0,.909.909H69.6a.908.908,0,0,0,.909-.909,27.117,27.117,0,0,0-5.466-16.354ZM55.976,9.994a3.634,3.634,0,1,1,3.634,3.634A3.638,3.638,0,0,1,55.976,9.994Zm-.909,5.451h9.086a2.729,2.729,0,0,1,2.726,2.726v5.451H65.062V18.171H63.245V38.733a27.62,27.62,0,0,0-2.726-2.571V25.439H58.7V34.8q-.883-.611-1.817-1.148v-.033h-.057c-.282-.163-.564-.322-.851-.474V18.171H54.159v5.451H52.342V18.171A2.729,2.729,0,0,1,55.068,15.445Zm2.726,29.074H48.708a.909.909,0,1,1,0-1.817h1.817a2.726,2.726,0,1,0,0-5.451H45.982a.909.909,0,0,1,0-1.817H56.342A25.515,25.515,0,0,1,68.1,51.788H55.976a.909.909,0,1,1,0-1.817h1.817a2.726,2.726,0,0,0,0-5.451ZM48.708,20.9h1.817v3.634a.908.908,0,0,0,.909.909h2.726v6.825a27.021,27.021,0,0,0-5.451-1.734ZM39.622,5.451a3.634,3.634,0,1,1,3.634,3.634A3.638,3.638,0,0,1,39.622,5.451Zm-3.634,8.177A2.729,2.729,0,0,1,38.714,10.9H47.8a2.729,2.729,0,0,1,2.726,2.726V19.08H48.708V13.628H46.891v16.6c-.025,0-.05,0-.075-.007q-.785-.1-1.585-.161c-.086-.006-.173-.015-.259-.02-.268-.016-.537-.027-.808-.036V20.9H42.348V30c-.27.009-.54.02-.808.036-.086.005-.173.014-.259.02q-.8.057-1.585.161c-.025,0-.05,0-.075.007v-16.6H37.805V19.08H35.988V13.628ZM32.354,32.265V25.439H35.08a.908.908,0,0,0,.909-.909V20.9h1.817v9.634A27.018,27.018,0,0,0,32.354,32.265ZM23.268,9.994A3.634,3.634,0,1,1,26.9,13.628,3.638,3.638,0,0,1,23.268,9.994Zm-1.817,8.177v5.451H19.634V18.171a2.729,2.729,0,0,1,2.726-2.726h9.086a2.729,2.729,0,0,1,2.726,2.726v5.451H32.354V18.171H30.537V33.142A27.177,27.177,0,0,0,27.811,34.8V25.439H25.994V36.163a27.406,27.406,0,0,0-2.726,2.571V18.171ZM17.833,56.33a25.344,25.344,0,0,1,6.759-16.354l7.814,0a.867.867,0,0,1,.856.9.918.918,0,0,1-.267.652.9.9,0,0,1-.64.265H30.535a2.726,2.726,0,0,0,0,5.451h9.086a.909.909,0,0,1,0,1.817H25.08a2.726,2.726,0,0,0,.005,5.451h2.726a.909.909,0,1,1,0,1.817Zm12.536,0a2.7,2.7,0,0,0,.167-.909A2.729,2.729,0,0,0,27.811,52.7H25.086a.909.909,0,0,1-.005-1.817H39.627a2.726,2.726,0,0,0,0-5.451H30.537a.909.909,0,0,1,0-1.817h1.822a2.7,2.7,0,0,0,1.927-.8,2.754,2.754,0,0,0,.8-1.981,2.675,2.675,0,0,0-2.673-2.672H26.448A25.363,25.363,0,0,1,38.9,32.18q1.07-.184,2.132-.279l.1-.007a25.085,25.085,0,0,1,4.245,0l.1.007q1.063.094,2.132.279a25.262,25.262,0,0,1,5.072,1.436h-6.7a2.726,2.726,0,1,0,0,5.451h4.543a.909.909,0,0,1,0,1.817H48.708a2.726,2.726,0,0,0,0,5.451h9.086a.909.909,0,1,1,0,1.817H55.976a2.726,2.726,0,1,0,0,5.451H68.433a25.4,25.4,0,0,1,.247,2.726H30.37Z" transform="translate(-16)" fill="#101010"/>
      </g>
    </g>
  </g>
</svg>
