<svg xmlns="http://www.w3.org/2000/svg" width="101" height="101" viewBox="0 0 101 101">
  <g id="Grupo_962224" data-name="Grupo 962224" transform="translate(-637 -1318)">
    <circle id="Elipse_1147" data-name="Elipse 1147" cx="50.5" cy="50.5" r="50.5" transform="translate(637 1318)" fill="#ffbba6"/>
    <g id="Grupo_954708" data-name="Grupo 954708" transform="translate(659.724 1339.603)">
      <path id="Trazado_637704" data-name="Trazado 637704" d="M43.823,86.9a.828.828,0,0,0-.244,1.145A18,18,0,1,1,41.2,85.1a.828.828,0,1,0,1.17-1.17,19.625,19.625,0,0,0-30.293,24.627L9,111.633a2.309,2.309,0,0,0-3.144.115L.5,117.1a.828.828,0,0,0,1.17,1.17l5.354-5.354a.657.657,0,0,1,.93,0l5.424,5.424a.657.657,0,0,1,0,.93l-5.354,5.354a.828.828,0,1,0,1.17,1.17l5.354-5.354a2.308,2.308,0,0,0,.108-3.152l3.074-3.074A19.627,19.627,0,0,0,48.016,99.762a19.684,19.684,0,0,0-3.048-12.62A.828.828,0,0,0,43.823,86.9ZM13.491,116.116,10.174,112.8l2.88-2.88a20.328,20.328,0,0,0,3.317,3.319Z" transform="translate(-0.229 -69.57)"/>
      <path id="Trazado_637705" data-name="Trazado 637705" d="M3.5,6.618A3.245,3.245,0,1,0,.258,3.373,3.248,3.248,0,0,0,3.5,6.618Zm0-4.834a1.59,1.59,0,1,1-1.589,1.59A1.591,1.591,0,0,1,3.5,1.783Z" transform="translate(-0.23 -0.128)"/>
      <path id="Trazado_637706" data-name="Trazado 637706" d="M152.456,11.454h3.58A1.483,1.483,0,0,0,157.3,9.2l-1.79-2.923a1.483,1.483,0,0,0-2.53,0L151.192,9.2a1.483,1.483,0,0,0,1.265,2.258Zm1.79-4.077L155.73,9.8h-2.966Z" transform="translate(-134.313 -4.964)"/>
      <path id="Trazado_637707" data-name="Trazado 637707" d="M304.05,6.618h2.8a1.847,1.847,0,0,0,1.845-1.845v-2.8A1.847,1.847,0,0,0,306.849.128h-2.8a1.847,1.847,0,0,0-1.845,1.845v2.8A1.847,1.847,0,0,0,304.05,6.618Zm-.19-4.644a.19.19,0,0,1,.19-.19h2.8a.19.19,0,0,1,.19.19v2.8a.19.19,0,0,1-.19.19h-2.8a.19.19,0,0,1-.19-.19Z" transform="translate(-268.857 -0.128)"/>
      <path id="Trazado_637708" data-name="Trazado 637708" d="M455.818,13.509h3.268a1.483,1.483,0,0,0,1.265-2.258l-1.634-2.669a1.473,1.473,0,0,0-1.265-.709h0a1.474,1.474,0,0,0-1.265.709l-1.634,2.669a1.483,1.483,0,0,0,1.265,2.258Zm1.634-3.822,1.327,2.167h-2.654Z" transform="translate(-404.199 -7.019)"/>
      <path id="Trazado_637709" data-name="Trazado 637709" d="M1.483,162.428h3.58a1.483,1.483,0,0,0,1.265-2.258l-1.79-2.923a1.483,1.483,0,0,0-2.53,0L.218,160.17a1.483,1.483,0,0,0,1.265,2.258Zm1.79-4.077,1.483,2.422H1.79Z" transform="translate(0 -139.278)"/>
      <path id="Trazado_637710" data-name="Trazado 637710" d="M4.9,302.076H2.1a1.847,1.847,0,0,0-1.845,1.845v2.8A1.847,1.847,0,0,0,2.1,308.566H4.9a1.847,1.847,0,0,0,1.845-1.845v-2.8A1.847,1.847,0,0,0,4.9,302.076Zm.19,4.644a.19.19,0,0,1-.19.19H2.1a.19.19,0,0,1-.19-.19v-2.8a.19.19,0,0,1,.19-.19H4.9a.19.19,0,0,1,.19.19Z" transform="translate(-0.229 -268.756)"/>
      <path id="Trazado_637711" data-name="Trazado 637711" d="M155.513,459.194a1.483,1.483,0,0,0-2.53,0l-1.79,2.923a1.483,1.483,0,0,0,1.265,2.258h3.58a1.483,1.483,0,0,0,1.265-2.258Zm-2.748,3.526,1.483-2.422,1.483,2.422Z" transform="translate(-134.315 -407.905)"/>
      <path id="Trazado_637712" data-name="Trazado 637712" d="M306.849,453.05h-2.8a1.847,1.847,0,0,0-1.845,1.845v2.8a1.847,1.847,0,0,0,1.845,1.845h2.8a1.847,1.847,0,0,0,1.845-1.845v-2.8A1.847,1.847,0,0,0,306.849,453.05Zm.19,4.644a.19.19,0,0,1-.19.19h-2.8a.19.19,0,0,1-.19-.19v-2.8a.19.19,0,0,1,.19-.19h2.8a.19.19,0,0,1,.19.19Z" transform="translate(-268.857 -403.07)"/>
      <path id="Trazado_637713" data-name="Trazado 637713" d="M457.823,151.1h-2.8a1.847,1.847,0,0,0-1.845,1.845v2.8a1.847,1.847,0,0,0,1.845,1.845h2.8a1.847,1.847,0,0,0,1.845-1.845v-2.8A1.848,1.848,0,0,0,457.823,151.1Zm.19,4.644a.19.19,0,0,1-.19.19h-2.8a.19.19,0,0,1-.19-.19v-2.8a.19.19,0,0,1,.19-.19h2.8a.19.19,0,0,1,.19.19Z" transform="translate(-403.171 -134.443)"/>
      <path id="Trazado_637714" data-name="Trazado 637714" d="M457.823,302.076h-2.8a1.847,1.847,0,0,0-1.845,1.845v2.8a1.847,1.847,0,0,0,1.845,1.845h2.8a1.847,1.847,0,0,0,1.845-1.845v-2.8A1.848,1.848,0,0,0,457.823,302.076Zm.19,4.644a.19.19,0,0,1-.19.19h-2.8a.19.19,0,0,1-.19-.19v-2.8a.19.19,0,0,1,.19-.19h2.8a.19.19,0,0,1,.19.19Z" transform="translate(-403.171 -268.756)"/>
      <path id="Trazado_637715" data-name="Trazado 637715" d="M456.424,453.05a3.245,3.245,0,1,0,3.245,3.245A3.249,3.249,0,0,0,456.424,453.05Zm0,4.834a1.59,1.59,0,1,1,1.589-1.59A1.591,1.591,0,0,1,456.424,457.884Z" transform="translate(-403.171 -403.07)"/>
      <path id="Trazado_637716" data-name="Trazado 637716" d="M116.413,136.3q-.491-.257-.963-.551a.828.828,0,1,0-.878,1.4,16.488,16.488,0,0,0,20.377-2.328,16.475,16.475,0,1,0-23.519-.223.828.828,0,0,0,1.192-1.148,14.846,14.846,0,0,1-2.45-3.389,5.009,5.009,0,1,1,6.241,6.237Zm17.365-2.647a14.977,14.977,0,0,1-2.587,2.073H127.36a.736.736,0,0,1-.628-1.12L131,127.63a.736.736,0,0,1,1.255,0l2.8,4.568A15.066,15.066,0,0,1,133.778,133.65Zm2.649-17.37a5.009,5.009,0,1,1-6.237-6.237,14.963,14.963,0,0,1,6.237,6.237ZM121.633,131.5a6.667,6.667,0,0,0-12.347-3.488,14.96,14.96,0,0,1-.511-7.8,3.286,3.286,0,0,0,2.816,1.6h1.27a.828.828,0,1,0,0-1.655h-1.27a1.631,1.631,0,0,1-1.63-1.63V116.7a14.945,14.945,0,0,1,6.28-6.566h2.107a1.631,1.631,0,0,1,1.63,1.63v6.757a1.631,1.631,0,0,1-1.63,1.63h-1.6a.828.828,0,0,0,0,1.655h1.6a3.288,3.288,0,0,0,3.285-3.285v-6.757a3.288,3.288,0,0,0-1.9-2.98,14.967,14.967,0,0,1,8.414.375,6.667,6.667,0,1,0,9.171,9.171,14.889,14.889,0,0,1-1.239,12.365l-2.405-3.928a2.391,2.391,0,0,0-4.079,0l-4.27,6.973a2.421,2.421,0,0,0,2.217,3.64,15.106,15.106,0,0,1-9.074-.2A6.638,6.638,0,0,0,121.633,131.5Z" transform="translate(-95.036 -94.936)"/>
    </g>
  </g>
</svg>
