<svg xmlns="http://www.w3.org/2000/svg" width="101" height="101" viewBox="0 0 101 101">
  <g id="Grupo_962226" data-name="Grupo 962226" transform="translate(-637 -1480)">
    <circle id="Elipse_7836" data-name="Elipse 7836" cx="50.5" cy="50.5" r="50.5" transform="translate(637 1480)" fill="#ffbba6"/>
    <g id="confianza" transform="translate(644.95 1498)">
      <path id="Trazado_637717" data-name="Trazado 637717" d="M76.625,99.975q-.651.387-1.333.741a.634.634,0,0,1-.58,0C68.983,97.756,64.866,92.982,64,86.509a25.528,25.528,0,0,0-34.65,32.719l2.665-2.665a.915.915,0,0,1,1.295,0L47.55,130.8a.915.915,0,0,1,0,1.295l-1.881,1.881a25.631,25.631,0,0,0,14.569,0L58.357,132.1a.915.915,0,0,1,0-1.295l14.24-14.24a.915.915,0,0,1,1.295,0l2.665,2.665a25.586,25.586,0,0,0,.068-19.253Z" transform="translate(-11.403 -73.336)" fill="#d8ecfe"/>
      <g id="Grupo_954709" data-name="Grupo 954709" transform="translate(16.033 10.664)">
        <path id="Trazado_637718" data-name="Trazado 637718" d="M32.015,116.563a.915.915,0,0,1,1.295,0l.372.372A25.536,25.536,0,0,1,55.529,84.129a25.531,25.531,0,0,0-28.093,25.389,25.439,25.439,0,0,0,1.914,9.71Z" transform="translate(-27.436 -84)" fill="#c4e2ff"/>
      </g>
      <g id="Grupo_954723" data-name="Grupo 954723" transform="translate(15.326 19.56)">
        <path id="Trazado_637719" data-name="Trazado 637719" d="M246.96,328.495l-2.95-2.95-4.067,4.067a7.49,7.49,0,0,1-5.33,2.208h0q-.139,0-.279-.005l-1.812-.067q-.142-.005-.283-.005a7.617,7.617,0,0,0-3.88,1.052l7.151,7.151Z" transform="translate(-202.143 -303.775)" fill="#ffe5c2"/>
        <path id="Trazado_637720" data-name="Trazado 637720" d="M239.789,379.051l-4.145-4.145a7.583,7.583,0,0,1-.985.03l-1.812-.067a7.6,7.6,0,0,0-4.113,1.032l7.1,7.1Z" transform="translate(-202.471 -346.833)" fill="#fed2a4"/>
        <g id="Grupo_954710" data-name="Grupo 954710" transform="translate(31.36 23.399)">
          <path id="Trazado_637721" data-name="Trazado 637721" d="M274.173,359.2l-5.018-5.018a.915.915,0,0,1,0-1.295l14.24-14.24a.915.915,0,0,1,1.295,0l5.018,5.018a.915.915,0,0,1,0,1.295l-14.24,14.24A.915.915,0,0,1,274.173,359.2Z" transform="translate(-268.887 -338.382)" fill="#fe646f"/>
        </g>
        <g id="Grupo_954711" data-name="Grupo 954711" transform="translate(31.36 23.399)">
          <path id="Trazado_637722" data-name="Trazado 637722" d="M274.486,354.185a.915.915,0,0,1,0-1.295l12.222-12.222-2.018-2.018a.915.915,0,0,0-1.295,0l-14.24,14.24a.915.915,0,0,0,0,1.295l5.018,5.018a.915.915,0,0,0,1.295,0l2.018-2.018Z" transform="translate(-268.887 -338.382)" fill="#fd4755"/>
        </g>
        <path id="Trazado_637723" data-name="Trazado 637723" d="M122.08,174.106a2.742,2.742,0,0,0-3.943-.068,2.742,2.742,0,0,0-3.878-3.878,2.742,2.742,0,0,0-3.878-3.878A2.742,2.742,0,0,0,106.5,162.4L83.368,185.54l11.138,11.138,5.774-5.774a7.6,7.6,0,0,1,5.656-2.221l1.812.067a7.6,7.6,0,0,0,5.656-2.221l8.559-8.559A2.789,2.789,0,0,0,122.08,174.106Z" transform="translate(-75.56 -160.645)" fill="#d88a55"/>
        <path id="Trazado_637724" data-name="Trazado 637724" d="M91.972,183.522l19.211-19.211a2.741,2.741,0,0,0-4.68-1.906L83.368,185.54l11.138,11.138,3.516-3.516-6.049-6.049A2.539,2.539,0,0,1,91.972,183.522Z" transform="translate(-75.56 -160.645)" fill="#c57a44"/>
        <g id="Grupo_954719" data-name="Grupo 954719" transform="translate(7.811 0.379)">
          <path id="Trazado_637725" data-name="Trazado 637725" d="M174.659,162.159l-.012.012H172.4a3.361,3.361,0,0,1-3.361-3.361v-.623a1.494,1.494,0,0,1,.34-.951,2.741,2.741,0,0,0-2.885,4.51l6.294,6.294a2.8,2.8,0,0,0,3.849.147,2.742,2.742,0,0,0,.09-3.964Z" transform="translate(-155.241 -157.066)" fill="#ffe5c2"/>
          <g id="Grupo_954712" data-name="Grupo 954712" transform="translate(10.447)">
            <path id="Trazado_637726" data-name="Trazado 637726" d="M175.363,166.754l-6.294-6.294a2.741,2.741,0,0,1-.384-3.393,2.742,2.742,0,0,0-2.194,4.669l6.294,6.294a2.8,2.8,0,0,0,3.849.147,2.752,2.752,0,0,0,.488-.6A2.879,2.879,0,0,1,175.363,166.754Z" transform="translate(-165.688 -157.055)" fill="#fed2a4"/>
          </g>
          <g id="Grupo_954713" data-name="Grupo 954713" transform="translate(6.569 3.878)">
            <path id="Trazado_637727" data-name="Trazado 637727" d="M139.823,188.4a2.742,2.742,0,1,0-3.878,3.878l7.073,7.073a2.742,2.742,0,1,0,3.878-3.878Z" transform="translate(-135.142 -187.599)" fill="#ffe5c2"/>
          </g>
          <g id="Grupo_954714" data-name="Grupo 954714" transform="translate(6.569 3.879)">
            <path id="Trazado_637728" data-name="Trazado 637728" d="M145.677,198.028l-7.073-7.073a2.741,2.741,0,0,1-.422-3.329,2.741,2.741,0,0,0-2.237,4.664l7.073,7.073a2.734,2.734,0,0,0,4.3-.548,2.731,2.731,0,0,1-1.641-.786Z" transform="translate(-135.142 -187.61)" fill="#fed2a4"/>
          </g>
          <g id="Grupo_954715" data-name="Grupo 954715" transform="translate(2.691 7.756)">
            <path id="Trazado_637729" data-name="Trazado 637729" d="M109.276,218.948a2.742,2.742,0,1,0-3.878,3.878l5.807,5.807a2.742,2.742,0,1,0,3.878-3.878Z" transform="translate(-104.595 -218.145)" fill="#ffe5c2"/>
          </g>
          <g id="Grupo_954716" data-name="Grupo 954716" transform="translate(2.691 7.756)">
            <path id="Trazado_637730" data-name="Trazado 637730" d="M113.8,227.354,108,221.547a2.741,2.741,0,0,1-.387-3.387,2.742,2.742,0,0,0-2.21,4.667l5.807,5.807a2.732,2.732,0,0,0,4.265-.491A2.73,2.73,0,0,1,113.8,227.354Z" transform="translate(-104.595 -218.147)" fill="#fed2a4"/>
          </g>
          <g id="Grupo_954717" data-name="Grupo 954717" transform="translate(0 12.82)">
            <path id="Trazado_637731" data-name="Trazado 637731" d="M88.079,258.843a2.742,2.742,0,0,0-3.878,3.878l3.093,3.093a2.742,2.742,0,1,0,3.878-3.878Z" transform="translate(-83.398 -258.04)" fill="#ffe5c2"/>
          </g>
          <g id="Grupo_954718" data-name="Grupo 954718" transform="translate(0 12.822)">
            <path id="Trazado_637732" data-name="Trazado 637732" d="M89.908,264.547l-3.093-3.093a2.741,2.741,0,0,1-.386-3.39,2.741,2.741,0,0,0-2.23,4.665l3.093,3.093a2.732,2.732,0,0,0,4.262-.487A2.73,2.73,0,0,1,89.908,264.547Z" transform="translate(-83.397 -258.049)" fill="#fed2a4"/>
          </g>
        </g>
        <g id="Grupo_954720" data-name="Grupo 954720" transform="translate(21.607)">
          <path id="Trazado_637733" data-name="Trazado 637733" d="M198.461,154.068h-4.9a1.5,1.5,0,0,0-1.5,1.5v.623a3.361,3.361,0,0,0,3.361,3.361h2.25l3.438-3.438A2.742,2.742,0,0,0,198.461,154.068Z" transform="translate(-192.064 -154.068)" fill="#ffe5c2"/>
        </g>
        <g id="Grupo_954721" data-name="Grupo 954721" transform="translate(0 23.4)">
          <path id="Trazado_637734" data-name="Trazado 637734" d="M42.688,354.186,37.67,359.2a.915.915,0,0,1-1.295,0l-14.24-14.24a.915.915,0,0,1,0-1.295l5.018-5.018a.915.915,0,0,1,1.295,0l14.24,14.24a.915.915,0,0,1,0,1.294Z" transform="translate(-21.867 -338.383)" fill="#97d729"/>
        </g>
        <g id="Grupo_954722" data-name="Grupo 954722" transform="translate(0 23.399)">
          <path id="Trazado_637735" data-name="Trazado 637735" d="M27.357,344.963a.915.915,0,0,1,0-1.295l3.055-3.055-1.963-1.963a.915.915,0,0,0-1.295,0l-5.018,5.018a.915.915,0,0,0,0,1.295l14.24,14.24a.915.915,0,0,0,1.295,0l1.963-1.963Z" transform="translate(-21.867 -338.382)" fill="#8bc727"/>
        </g>
      </g>
      <g id="Grupo_954728" data-name="Grupo 954728" transform="translate(52.426 0.952)">
        <g id="Grupo_954724" data-name="Grupo 954724" transform="translate(0)">
          <path id="Trazado_637736" data-name="Trazado 637736" d="M325.274,7.5c-3.314,0-6.44,3.308-9.2,2.408a.634.634,0,0,0-.786.394,20.164,20.164,0,0,0-1.188,6.836c0,7.8,4.416,13.448,10.884,16.788a.633.633,0,0,0,.58,0c6.467-3.34,10.884-8.989,10.884-16.788A20.164,20.164,0,0,0,335.26,10.3a.634.634,0,0,0-.786-.394c-2.759.9-5.885-2.408-9.2-2.408Z" transform="translate(-314.101 -7.5)" fill="#fed402"/>
        </g>
        <path id="Trazado_637737" data-name="Trazado 637737" d="M322.635,35.818a6.585,6.585,0,0,1-3.072-9.314c-.012-.283-.02-.569-.02-.858a20.168,20.168,0,0,1,1-6.293c-1.569.73-3.067,1.361-4.471.9a.634.634,0,0,0-.786.394,20.164,20.164,0,0,0-1.188,6.836c0,7.8,4.416,13.448,10.884,16.788a.634.634,0,0,0,.58,0,23.983,23.983,0,0,0,3.8-2.424A20.607,20.607,0,0,1,322.635,35.818Z" transform="translate(-314.1 -17.848)" fill="#fac600"/>
        <g id="Grupo_954727" data-name="Grupo 954727" transform="translate(4.587 5.349)">
          <g id="Grupo_954725" data-name="Grupo 954725">
            <circle id="Elipse_7836-2" data-name="Elipse 7836" cx="6.586" cy="6.586" r="6.586" fill="#97d729"/>
          </g>
          <g id="Grupo_954726" data-name="Grupo 954726" transform="translate(0)">
            <path id="Trazado_637738" data-name="Trazado 637738" d="M354.9,56.223a6.588,6.588,0,0,1,4.253-6.159,6.586,6.586,0,1,0,0,12.319,6.588,6.588,0,0,1-4.253-6.159Z" transform="translate(-350.236 -49.637)" fill="#8bc727"/>
          </g>
        </g>
      </g>
      <g id="Grupo_954729" data-name="Grupo 954729" transform="translate(14.375 0)">
        <path id="Trazado_637739" data-name="Trazado 637739" d="M75.725,10.591a21.1,21.1,0,0,0-1.244-7.159A1.6,1.6,0,0,0,72.5,2.455c-1.14.372-2.574-.3-4.093-1.01A11.671,11.671,0,0,0,63.6,0a11.674,11.674,0,0,0-4.811,1.445c-1.518.711-2.952,1.382-4.093,1.01a1.6,1.6,0,0,0-1.977.977,21.1,21.1,0,0,0-1.244,7.159c0,.359.012.713.03,1.066a26.465,26.465,0,0,0-34.667,34L14.92,47.572a1.87,1.87,0,0,0,0,2.641l14.24,14.24a1.867,1.867,0,0,0,2.641,0l2.744-2.744a26.489,26.489,0,0,0,14.008,0L51.3,64.453a1.867,1.867,0,0,0,2.641,0L59.393,59a.952.952,0,0,0-1.347-1.346l-5.427,5.427-4.966-4.966L61.841,43.926l4.966,4.966-5.619,5.619a.952.952,0,0,0,1.347,1.346l5.645-5.645a1.867,1.867,0,0,0,0-2.641l-1.916-1.916a26.435,26.435,0,0,0,.125-18.617c6.041-3.85,9.336-9.614,9.336-16.448ZM30.482,63.081,16.293,48.893l4.966-4.966L35.448,58.115ZM40.294,26h1.879l1.774,1.774a1.79,1.79,0,0,1-.059,2.588,1.854,1.854,0,0,1-2.533-.118l-6.294-6.294a1.792,1.792,0,0,1,0-2.531,1.774,1.774,0,0,1,.927-.489c0,.045-.007.089-.007.134v.623A4.318,4.318,0,0,0,40.294,26Zm-2.409-4.313V21.06a.549.549,0,0,1,.548-.548h4.9a1.79,1.79,0,0,1,1.533.866l-2.714,2.714H40.294A2.412,2.412,0,0,1,37.885,21.683Zm2.9,10.683a1.79,1.79,0,0,1-.02,2.551,1.8,1.8,0,0,1-2.511-.02l-7.073-7.073h0a1.79,1.79,0,0,1,2.531-2.531Zm-5.144,2.612a1.79,1.79,0,0,1-.02,2.551,1.8,1.8,0,0,1-2.511-.02l-4.62-4.62L27.3,31.7a1.79,1.79,0,0,1,2.531-2.532h0Zm-8.5-.744,3.095,3.095a1.79,1.79,0,0,1-.021,2.55,1.8,1.8,0,0,1-2.511-.02l-3.093-3.093a1.79,1.79,0,0,1,2.53-2.532Zm1.829,8.047a3.682,3.682,0,0,0,3.591-2.822,3.715,3.715,0,0,0,4.385-.563A3.664,3.664,0,0,0,38,36.993a3.725,3.725,0,0,0,1.526.326A3.691,3.691,0,0,0,43.1,32.7a3.622,3.622,0,0,0,2.077-.933,3.694,3.694,0,0,0,.12-5.339L43.9,25.032l3.039-3.039a1.79,1.79,0,0,1,2.534,2.529l0,0A.952.952,0,0,0,50.82,25.87,1.79,1.79,0,0,1,53.353,28.4l0,0h0A.952.952,0,1,0,54.7,29.748a1.79,1.79,0,1,1,2.531,2.531.952.952,0,0,0,1.346,1.346,1.79,1.79,0,0,1,2.575.045,1.842,1.842,0,0,1-.094,2.538L54.224,43.04a.952.952,0,0,0,1.347,1.346l1.667-1.666L58.8,44.279l-10.1,10.1-5.465-5.465a6.638,6.638,0,0,1,2.44-.372l1.812.067a8.533,8.533,0,0,0,4.56-1.122.952.952,0,0,0-.945-1.654,6.644,6.644,0,0,1-3.545.873l-1.812-.067a8.576,8.576,0,0,0-6.365,2.5l-5.1,5.1L24.48,44.454,27.136,41.8a3.71,3.71,0,0,0,1.836.484ZM41.551,60.748a24.52,24.52,0,0,1-5.432-.61l.7-.7a1.867,1.867,0,0,0,0-2.641l-1.2-1.2,5.1-5.1a6.591,6.591,0,0,1,.746-.64l5.88,5.88-1.064,1.064a1.87,1.87,0,0,0,0,2.641l.7.7A24.515,24.515,0,0,1,41.551,60.748ZM66.116,36.182a24.457,24.457,0,0,1-1.335,7.991l-1.619-1.619a1.867,1.867,0,0,0-2.641,0l-.379.379-1.558-1.558L62.4,37.555a3.761,3.761,0,0,0,.138-5.185A3.666,3.666,0,0,0,59.9,31.2q-.126,0-.252,0a3.692,3.692,0,0,0-3.688-3.883q-.1,0-.19,0A3.689,3.689,0,0,0,51.9,23.448a3.692,3.692,0,0,0-5.6-3.349,3.693,3.693,0,0,0-2.962-1.492h-4.9a2.437,2.437,0,0,0-1.411.45,3.685,3.685,0,0,0-4.383,3.812c-.063,0-.127,0-.19,0a3.695,3.695,0,0,0-3.694,3.694c0,.064,0,.127,0,.19a3.7,3.7,0,0,0-3.592,5.129,3.692,3.692,0,0,0-1.9,6.236l2.43,2.43-2.564,2.564-.554-.554a1.867,1.867,0,0,0-2.641,0L18.32,44.173A24.56,24.56,0,0,1,51.735,13.831c1,6.116,4.864,11.154,11.138,14.394a1.586,1.586,0,0,0,1.454,0c.133-.069.262-.14.392-.21a24.462,24.462,0,0,1,1.4,8.166ZM63.6,26.457a19.935,19.935,0,0,1-7.37-6.336,16.59,16.59,0,0,1-2.851-9.53,19.2,19.2,0,0,1,1.035-6.238c1.752.423,3.495-.393,5.183-1.183a10.139,10.139,0,0,1,4-1.265,10.138,10.138,0,0,1,4,1.265c1.688.791,3.43,1.606,5.183,1.183a19.2,19.2,0,0,1,1.035,6.238,16.59,16.59,0,0,1-2.851,9.53A19.936,19.936,0,0,1,63.6,26.457Z" transform="translate(-14.375 0)"/>
        <path id="Trazado_637740" data-name="Trazado 637740" d="M356.844,48.614a.952.952,0,0,0,.624-1.193,7.54,7.54,0,1,0-.209,5.086.952.952,0,0,0-1.765-.716,5.632,5.632,0,1,1,.156-3.8A.953.953,0,0,0,356.844,48.614Z" transform="translate(-301.048 -36.788)"/>
        <path id="Trazado_637741" data-name="Trazado 637741" d="M376.272,81.36l-2.94,2.94-2.05-2.05a.952.952,0,0,0-1.347,1.346l2.723,2.723a.952.952,0,0,0,1.347,0l3.614-3.614a.952.952,0,1,0-1.347-1.346Z" transform="translate(-324.552 -70.788)"/>
      </g>
    </g>
  </g>
</svg>
