<svg xmlns="http://www.w3.org/2000/svg" width="101" height="101" viewBox="0 0 101 101">
  <g id="Grupo_962227" data-name="Grupo 962227" transform="translate(-637 -1641)">
    <circle id="Elipse_1150" data-name="Elipse 1150" cx="50.5" cy="50.5" r="50.5" transform="translate(637 1641)" fill="#ffbba6"/>
    <g id="mensaje-de-error" transform="translate(657 1661.987)">
      <path id="Trazado_637742" data-name="Trazado 637742" d="M10,16a5,5,0,0,0-5,5V45a5,5,0,0,0,5,5h3a1,1,0,0,1,1,1v7.03a.978.978,0,0,0,1.57.77l11.16-8.592A1,1,0,0,1,27.34,50H50a5,5,0,0,0,5-5V21a5,5,0,0,0-5-5Z" fill="#fff"/>
      <path id="Trazado_637743" data-name="Trazado 637743" d="M34.029,3.217,48.256,25.7A4.757,4.757,0,0,1,44.227,33H15.773a4.757,4.757,0,0,1-4.029-7.3L25.971,3.217a4.769,4.769,0,0,1,8.058,0Z" fill="#d86271"/>
      <circle id="Elipse_7837" data-name="Elipse 7837" cx="2" cy="2" r="2" transform="translate(28 25)" fill="#f1f3f5"/>
      <path id="Trazado_637744" data-name="Trazado 637744" d="M30,21a2.17,2.17,0,0,1-2.163-1.99l-.585-7.021a2.759,2.759,0,1,1,5.5,0l-.585,7.021A2.17,2.17,0,0,1,30,21Z" fill="#f1f3f5"/>
      <g id="Grupo_954730" data-name="Grupo 954730">
        <path id="Trazado_637745" data-name="Trazado 637745" d="M30,24a3,3,0,1,0,3,3A3,3,0,0,0,30,24Zm0,4a1,1,0,1,1,1-1A1,1,0,0,1,30,28Z" fill="#373737"/>
        <path id="Trazado_637746" data-name="Trazado 637746" d="M30,8a3.76,3.76,0,0,0-3.747,4.072l.585,7.021a3.172,3.172,0,0,0,6.321,0l.585-7.021A3.76,3.76,0,0,0,30,8Zm1.17,10.927a1.173,1.173,0,0,1-2.337,0l-.585-7.021a1.761,1.761,0,1,1,3.51,0Z" fill="#373737"/>
        <path id="Trazado_637747" data-name="Trazado 637747" d="M10,17h4a1,1,0,0,0,0-2H10a6.006,6.006,0,0,0-6,6V45a6.006,6.006,0,0,0,6,6h3v7.03a1.976,1.976,0,0,0,3.181,1.562L27.341,51H50a6.006,6.006,0,0,0,6-6V21a6.006,6.006,0,0,0-6-6H42.667L34.874,2.683a5.769,5.769,0,0,0-9.748,0L10.9,25.168A5.757,5.757,0,0,0,15.772,34H44.228A5.756,5.756,0,0,0,49.1,25.169L43.932,17H50a4,4,0,0,1,4,4V45a4,4,0,0,1-4,4H27.341a2,2,0,0,0-1.221.416L15,58.03V51a2,2,0,0,0-2-2H10a4,4,0,0,1-4-4V21A4,4,0,0,1,10,17ZM47.527,30.053A3.72,3.72,0,0,1,44.228,32H15.772a3.757,3.757,0,0,1-3.183-5.763L26.815,3.751a3.772,3.772,0,0,1,6.37,0L47.411,26.238a3.7,3.7,0,0,1,.116,3.815Z" fill="#373737"/>
        <path id="Trazado_637748" data-name="Trazado 637748" d="M12,39h3a1,1,0,0,0,0-2H12a1,1,0,0,0,0,2Z" fill="#373737"/>
        <path id="Trazado_637749" data-name="Trazado 637749" d="M36,42a1,1,0,0,0,0,2h3a1,1,0,0,0,0-2Z" fill="#373737"/>
        <path id="Trazado_637750" data-name="Trazado 637750" d="M44,38a1,1,0,0,0-1-1H19a1,1,0,0,0,0,2H43A1,1,0,0,0,44,38Z" fill="#373737"/>
        <path id="Trazado_637751" data-name="Trazado 637751" d="M12,44H32a1,1,0,0,0,0-2H12a1,1,0,0,0,0,2Z" fill="#373737"/>
        <path id="Trazado_637752" data-name="Trazado 637752" d="M48,39a1,1,0,0,0,0-2H47a1,1,0,0,0,0,2Z" fill="#373737"/>
      </g>
    </g>
  </g>
</svg>
